<?xml version="1.0" encoding="UTF-8" standalone="no"?>
<!-- Created with Inkscape (http://www.inkscape.org/) -->

<svg
   xmlns:dc="http://purl.org/dc/elements/1.1/"
   xmlns:cc="http://creativecommons.org/ns#"
   xmlns:rdf="http://www.w3.org/1999/02/22-rdf-syntax-ns#"
   xmlns:svg="http://www.w3.org/2000/svg"
   xmlns="http://www.w3.org/2000/svg"
   xmlns:sodipodi="http://sodipodi.sourceforge.net/DTD/sodipodi-0.dtd"
   xmlns:inkscape="http://www.inkscape.org/namespaces/inkscape"
   width="3317.9595"
   height="1210.5941"
   id="svg2"
   version="1.1"
   inkscape:version="0.48.3.1 r9886"
   sodipodi:docname="2014-05-19.svg">
  <defs
     id="defs4" />
  <sodipodi:namedview
     id="base"
     pagecolor="#ffffff"
     bordercolor="#666666"
     borderopacity="1.0"
     inkscape:pageopacity="0.0"
     inkscape:pageshadow="2"
     inkscape:zoom="0.35"
     inkscape:cx="1658.9797"
     inkscape:cy="539.35148"
     inkscape:document-units="px"
     inkscape:current-layer="layer1"
     showgrid="false"
     fit-margin-top="10"
     fit-margin-left="10"
     fit-margin-right="10"
     fit-margin-bottom="10"
     inkscape:window-width="1440"
     inkscape:window-height="853"
     inkscape:window-x="0"
     inkscape:window-y="0"
     inkscape:window-maximized="1" />
  <metadata
     id="metadata7">
    <rdf:RDF>
      <cc:Work
         rdf:about="">
        <dc:format>image/svg+xml</dc:format>
        <dc:type
           rdf:resource="http://purl.org/dc/dcmitype/StillImage" />
        <dc:title />
      </cc:Work>
    </rdf:RDF>
  </metadata>
  <g
     inkscape:label="Layer 1"
     inkscape:groupmode="layer"
     id="layer1"
     transform="translate(2074.2348,78.946212)">
    <path
       sodipodi:type="arc"
       style="fill:#ffccaa;fill-opacity:1;fill-rule:evenodd;stroke:#000000;stroke-width:0.213;stroke-miterlimit:4;stroke-opacity:1;stroke-dasharray:none"
       id="path2985"
       sodipodi:cx="534.37067"
       sodipodi:cy="488.69705"
       sodipodi:rx="53.538086"
       sodipodi:ry="40.406101"
       d="m 587.90875,488.69705 c 0,22.31568 -23.96982,40.4061 -53.53808,40.4061 -29.56827,0 -53.53809,-18.09042 -53.53809,-40.4061 0,-22.31567 23.96982,-40.4061 53.53809,-40.4061 29.56826,0 53.53808,18.09043 53.53808,40.4061 z"
       transform="matrix(2.3128363,1.2086988,-1.2086988,2.3128363,94.35636,-1248.6109)" />
    <path
       sodipodi:type="arc"
       style="fill:#ffffff;fill-opacity:1;fill-rule:evenodd;stroke:none"
       id="path2987"
       sodipodi:cx="507.09659"
       sodipodi:cy="495.76813"
       sodipodi:rx="8.0812206"
       sodipodi:ry="6.0609155"
       d="m 515.17781,495.76813 c 0,3.34735 -3.61809,6.06091 -8.08122,6.06091 -4.46314,0 -8.08122,-2.71356 -8.08122,-6.06091 0,-3.34735 3.61808,-6.06092 8.08122,-6.06092 4.46313,0 8.08122,2.71357 8.08122,6.06092 z"
       transform="matrix(2.2307216,1.3542693,-1.3542693,2.2307216,205.35565,-1250.8486)" />
    <path
       sodipodi:type="arc"
       style="fill:#0000ff;fill-opacity:1;fill-rule:evenodd;stroke:none"
       id="path3757"
       sodipodi:cx="501.69644"
       sodipodi:cy="494.41574"
       sodipodi:rx="1.6964285"
       sodipodi:ry="1.3392857"
       d="m 503.39287,494.41574 c 0,0.73967 -0.75952,1.33929 -1.69643,1.33929 -0.93691,0 -1.69643,-0.59962 -1.69643,-1.33929 0,-0.73967 0.75952,-1.33928 1.69643,-1.33928 0.93691,0 1.69643,0.59961 1.69643,1.33928 z"
       transform="matrix(3.0216758,0,0,3.4795055,-857.22391,-1176.2091)" />
    <path
       style="fill:none;stroke:#000000;stroke-width:2.60962915px;stroke-linecap:butt;stroke-linejoin:miter;stroke-opacity:1"
       d="M 716.52473,631.72229 C 791.08556,605.16 795.7456,567.41359 795.7456,567.41359"
       id="path3759"
       inkscape:connector-curvature="0" />
    <rect
       style="fill:#008000;fill-opacity:1;fill-rule:evenodd;stroke:#000000;stroke-width:2.60962915;stroke-opacity:1"
       id="rect3781"
       width="254.89838"
       height="145.1494"
       x="1047.4034"
       y="-297.51498"
       transform="matrix(0.66049017,0.75083469,-0.67001966,0.74234335,0,0)" />
    <rect
       style="fill:#000000;fill-opacity:1;fill-rule:evenodd;stroke:none"
       id="rect3783"
       width="61.948902"
       height="144.9868"
       x="1188.1368"
       y="348.56882"
       transform="matrix(0.899005,0.43793837,-0.43793837,0.899005,0,0)" />
    <rect
       style="fill:#000000;fill-opacity:1;fill-rule:evenodd;stroke:none"
       id="rect3785"
       width="59.971809"
       height="139.05553"
       x="501.30984"
       y="1189.5293"
       transform="matrix(0.9540264,-0.2997226,0.2997226,0.9540264,0,0)" />
    <rect
       style="fill:#000000;fill-opacity:1;fill-rule:evenodd;stroke:none"
       id="rect3787"
       width="56.676655"
       height="167.39384"
       x="-389.9108"
       y="1379.6819"
       transform="matrix(0.44811179,-0.89397753,0.89397753,0.44811179,0,0)" />
    <rect
       style="fill:#000000;fill-opacity:1;fill-rule:evenodd;stroke:none"
       id="rect3789"
       width="61.948902"
       height="148.94098"
       x="1022.6458"
       y="787.60596"
       transform="matrix(0.99999993,-3.6937393e-4,3.6937393e-4,0.99999993,0,0)" />
    <rect
       style="fill:#008000;fill-opacity:1;fill-rule:evenodd;stroke:#000000;stroke-width:2.60962915;stroke-opacity:1"
       id="rect3791"
       width="176.62029"
       height="75.129517"
       x="850.29797"
       y="651.4563" />
    <rect
       style="fill:#ffccaa;fill-opacity:1;fill-rule:evenodd;stroke:none"
       id="rect3793"
       width="109.39912"
       height="26.361235"
       x="1028.2363"
       y="675.18158" />
    <path
       sodipodi:type="arc"
       style="fill:#000000;fill-opacity:1;fill-rule:evenodd;stroke:none"
       id="path3801"
       sodipodi:cx="504.82144"
       sodipodi:cy="544.86218"
       sodipodi:rx="9.6428576"
       sodipodi:ry="9.6428576"
       d="m 514.4643,544.86218 c 0,5.32561 -4.31726,9.64286 -9.64286,9.64286 -5.3256,0 -9.64286,-4.31725 -9.64286,-9.64286 0,-5.3256 4.31726,-9.64285 9.64286,-9.64285 5.3256,0 9.64286,4.31725 9.64286,9.64285 z"
       transform="matrix(1.4814815,0,0,1,-250.74074,-0.89285714)" />
    <rect
       style="fill:#aa4400;fill-opacity:1;fill-rule:evenodd;stroke:none"
       id="rect3795"
       width="36.07288"
       height="19.770927"
       x="460.15167"
       y="534.14893" />
    <text
       xml:space="preserve"
       style="font-size:4px;font-style:normal;font-weight:normal;line-height:125%;letter-spacing:0px;word-spacing:0px;fill:#000000;fill-opacity:1;stroke:none;font-family:Sans"
       x="461.78571"
       y="544.505"
       id="text3797"
       sodipodi:linespacing="125%"><tspan
         sodipodi:role="line"
         id="tspan3799"
         x="461.78571"
         y="544.505">derp bullets, inc.</tspan></text>
    <path
       sodipodi:type="arc"
       style="fill:#000000;fill-opacity:1;fill-rule:evenodd;stroke:none"
       id="path3803"
       sodipodi:cx="-97.984795"
       sodipodi:cy="388.69196"
       sodipodi:rx="91.923882"
       sodipodi:ry="91.923882"
       d="m -6.0609131,388.69196 c 0,50.76815 -41.1557239,91.92388 -91.9238819,91.92388 -50.768155,0 -91.923885,-41.15573 -91.923885,-91.92388 0,-50.76816 41.15573,-91.92389 91.923885,-91.92389 50.768158,0 91.9238819,41.15573 91.9238819,91.92389 z"
       transform="matrix(1.7456811,0,0,1.7456811,-1469.1209,-587.00863)" />
    <path
       sodipodi:type="arc"
       style="fill:#ff0000;fill-opacity:1;fill-rule:evenodd;stroke:none"
       id="path3805"
       sodipodi:cx="-260.11429"
       sodipodi:cy="382.12598"
       sodipodi:rx="76.266518"
       sodipodi:ry="76.266518"
       d="m -183.84777,382.12598 c 0,42.12083 -34.14568,76.26651 -76.26652,76.26651 -42.12083,0 -76.26652,-34.14568 -76.26652,-76.26651 0,-42.12084 34.14569,-76.26652 76.26652,-76.26652 42.12084,0 76.26652,34.14568 76.26652,76.26652 z"
       transform="matrix(1.7456811,0,0,1.7456811,-1185.2129,-572.9014)" />
    <path
       sodipodi:type="arc"
       style="fill:#000000;fill-opacity:1;fill-rule:evenodd;stroke:none"
       id="path3807"
       sodipodi:cx="-284.35794"
       sodipodi:cy="381.11581"
       sodipodi:rx="63.134533"
       sodipodi:ry="63.134533"
       d="m -221.22341,381.11581 c 0,34.86824 -28.26629,63.13454 -63.13453,63.13454 -34.86824,0 -63.13453,-28.2663 -63.13453,-63.13454 0,-34.86824 28.26629,-63.13453 63.13453,-63.13453 34.86824,0 63.13453,28.26629 63.13453,63.13453 z"
       transform="matrix(1.7456811,0,0,1.7456811,-1142.8912,-571.138)" />
    <path
       sodipodi:type="arc"
       style="fill:#666666;fill-opacity:1;fill-rule:evenodd;stroke:none"
       id="path3809"
       sodipodi:cx="-71.215752"
       sodipodi:cy="428.59299"
       sodipodi:rx="68.185295"
       sodipodi:ry="68.185295"
       d="m -3.0304565,428.59299 c 0,37.6577 -30.5275965,68.18529 -68.1852955,68.18529 -37.657698,0 -68.185298,-30.52759 -68.185298,-68.18529 0,-37.6577 30.5276,-68.1853 68.185298,-68.1853 37.657699,0 68.1852955,30.5276 68.1852955,68.1853 z"
       transform="matrix(0.33463643,0,0,0.33463643,-1665.1986,-89.679515)" />
    <path
       sodipodi:type="arc"
       style="fill:#ff0000;fill-opacity:1;fill-rule:evenodd;stroke:none"
       id="path3813"
       sodipodi:cx="-121.42857"
       sodipodi:cy="373.79074"
       sodipodi:rx="10.714286"
       sodipodi:ry="10.714286"
       d="m -110.71429,373.79074 c 0,5.91734 -4.79695,10.71429 -10.71428,10.71429 -5.91734,0 -10.71429,-4.79695 -10.71429,-10.71429 0,-5.91734 4.79695,-10.71428 10.71429,-10.71428 5.91733,0 10.71428,4.79694 10.71428,10.71428 z"
       transform="matrix(1.7456811,0,0,1.7456811,-1476.6024,-598.85432)" />
    <path
       sodipodi:type="arc"
       style="fill:#808080;fill-opacity:1;fill-rule:evenodd;stroke:none"
       id="path3815"
       sodipodi:cx="-97.14286"
       sodipodi:cy="370.57648"
       sodipodi:rx="10.714286"
       sodipodi:ry="10.714286"
       d="m -86.428575,370.57648 c 0,5.91733 -4.796949,10.71428 -10.714285,10.71428 -5.91734,0 -10.71429,-4.79695 -10.71429,-10.71428 0,-5.91734 4.79695,-10.71429 10.71429,-10.71429 5.917336,0 10.714285,4.79695 10.714285,10.71429 z"
       transform="matrix(1.5129236,0,0,1.5129236,-1541.6083,-506.83289)" />
    <path
       sodipodi:type="arc"
       style="fill:#000000;fill-opacity:1;fill-rule:evenodd;stroke:none"
       id="path3817"
       sodipodi:cx="-160.13393"
       sodipodi:cy="358.83539"
       sodipodi:rx="1.7410715"
       sodipodi:ry="1.7410715"
       d="m -158.39285,358.83539 c 0,0.96157 -0.77951,1.74107 -1.74108,1.74107 -0.96156,0 -1.74107,-0.7795 -1.74107,-1.74107 0,-0.96157 0.77951,-1.74107 1.74107,-1.74107 0.96157,0 1.74108,0.7795 1.74108,1.74107 z"
       transform="matrix(1.7456811,0,0,1.7456811,-1409.5807,-572.35738)" />
    <path
       transform="matrix(0.33463643,0,0,0.33463643,-1563.362,-89.679515)"
       d="m -3.0304565,428.59299 c 0,37.6577 -30.5275965,68.18529 -68.1852955,68.18529 -37.657698,0 -68.185298,-30.52759 -68.185298,-68.18529 0,-37.6577 30.5276,-68.1853 68.185298,-68.1853 37.657699,0 68.1852955,30.5276 68.1852955,68.1853 z"
       sodipodi:ry="68.185295"
       sodipodi:rx="68.185295"
       sodipodi:cy="428.59299"
       sodipodi:cx="-71.215752"
       id="path3819"
       style="fill:#666666;fill-opacity:1;fill-rule:evenodd;stroke:none"
       sodipodi:type="arc" />
    <path
       transform="matrix(1.7456811,0,0,1.7456811,-1374.7658,-598.85432)"
       d="m -110.71429,373.79074 c 0,5.91734 -4.79695,10.71429 -10.71428,10.71429 -5.91734,0 -10.71429,-4.79695 -10.71429,-10.71429 0,-5.91734 4.79695,-10.71428 10.71429,-10.71428 5.91733,0 10.71428,4.79694 10.71428,10.71428 z"
       sodipodi:ry="10.714286"
       sodipodi:rx="10.714286"
       sodipodi:cy="373.79074"
       sodipodi:cx="-121.42857"
       id="path3821"
       style="fill:#ff0000;fill-opacity:1;fill-rule:evenodd;stroke:none"
       sodipodi:type="arc" />
    <path
       transform="matrix(1.5129236,0,0,1.5129236,-1439.7717,-506.83289)"
       d="m -86.428575,370.57648 c 0,5.91733 -4.796949,10.71428 -10.714285,10.71428 -5.91734,0 -10.71429,-4.79695 -10.71429,-10.71428 0,-5.91734 4.79695,-10.71429 10.71429,-10.71429 5.917336,0 10.714285,4.79695 10.714285,10.71429 z"
       sodipodi:ry="10.714286"
       sodipodi:rx="10.714286"
       sodipodi:cy="370.57648"
       sodipodi:cx="-97.14286"
       id="path3823"
       style="fill:#808080;fill-opacity:1;fill-rule:evenodd;stroke:none"
       sodipodi:type="arc" />
    <path
       transform="matrix(1.7456811,0,0,1.7456811,-1307.7441,-572.35738)"
       d="m -158.39285,358.83539 c 0,0.96157 -0.77951,1.74107 -1.74108,1.74107 -0.96156,0 -1.74107,-0.7795 -1.74107,-1.74107 0,-0.96157 0.77951,-1.74107 1.74107,-1.74107 0.96157,0 1.74108,0.7795 1.74108,1.74107 z"
       sodipodi:ry="1.7410715"
       sodipodi:rx="1.7410715"
       sodipodi:cy="358.83539"
       sodipodi:cx="-160.13393"
       id="path3825"
       style="fill:#000000;fill-opacity:1;fill-rule:evenodd;stroke:none"
       sodipodi:type="arc" />
    <path
       sodipodi:type="arc"
       style="fill:#ff0000;fill-opacity:1;fill-rule:evenodd;stroke:none"
       id="path3827"
       sodipodi:cx="-92.428955"
       sodipodi:cy="421.77444"
       sodipodi:rx="42.17387"
       sodipodi:ry="2.0203052"
       d="m -50.255085,421.77444 c 0,1.11579 -18.881885,2.02031 -42.17387,2.02031 -23.291985,0 -42.173875,-0.90452 -42.173875,-2.02031 0,-1.11578 18.88189,-2.0203 42.173875,-2.0203 23.291985,0 42.17387,0.90452 42.17387,2.0203 z"
       transform="matrix(1.7456811,0,0,1.7456811,-1477.0563,-582.15927)" />
    <rect
       style="fill:#ff0000;fill-opacity:1;fill-rule:evenodd;stroke:none"
       id="rect3829"
       width="266.83984"
       height="503.75369"
       x="-1778.3558"
       y="245.06656" />
    <rect
       style="fill:#000000;fill-opacity:1;fill-rule:evenodd;stroke:none"
       id="rect3831"
       width="243.14845"
       height="480.68579"
       x="-1765.8867"
       y="255.04187" />
    <rect
       y="750.0672"
       x="-1778.3558"
       height="371.58075"
       width="105.98779"
       id="rect3833"
       style="fill:#ff0000;fill-opacity:1;fill-rule:evenodd;stroke:none" />
    <rect
       y="757.42523"
       x="-1773.4032"
       height="354.56528"
       width="96.57766"
       id="rect3835"
       style="fill:#000000;fill-opacity:1;fill-rule:evenodd;stroke:none" />
    <rect
       style="fill:#ff0000;fill-opacity:1;fill-rule:evenodd;stroke:none"
       id="rect3837"
       width="105.98779"
       height="371.58075"
       x="-1619.6495"
       y="750.0672" />
    <rect
       style="fill:#000000;fill-opacity:1;fill-rule:evenodd;stroke:none"
       id="rect3839"
       width="96.57766"
       height="354.56528"
       x="-1614.6968"
       y="757.42523" />
    <rect
       style="fill:#ff0000;fill-opacity:1;fill-rule:evenodd;stroke:none"
       id="rect3841"
       width="105.98779"
       height="226.9816"
       x="-1434.5558"
       y="1130.5742"
       transform="matrix(0.86088011,0.50880786,-0.50880786,0.86088011,0,0)" />
    <rect
       style="fill:#000000;fill-opacity:1;fill-rule:evenodd;stroke:none"
       id="rect3843"
       width="96.57766"
       height="216.58762"
       x="-1429.603"
       y="1135.069"
       transform="matrix(0.86088011,0.50880786,-0.50880786,0.86088011,0,0)" />
    <rect
       y="-294.93988"
       x="-1578.3022"
       height="189.95009"
       width="105.98779"
       id="rect3849"
       style="fill:#ff0000;fill-opacity:1;fill-rule:evenodd;stroke:none"
       transform="matrix(0.93054686,-0.36617284,0.36617284,0.93054686,0,0)" />
    <rect
       y="-291.17847"
       x="-1573.3496"
       height="181.25188"
       width="96.57766"
       id="rect3851"
       style="fill:#000000;fill-opacity:1;fill-rule:evenodd;stroke:none"
       transform="matrix(0.93054686,-0.36617284,0.36617284,0.93054686,0,0)" />
    <rect
       y="-539.70709"
       x="-1498.8469"
       height="188.18669"
       width="105.98779"
       id="rect3853"
       style="fill:#ff0000;fill-opacity:1;fill-rule:evenodd;stroke:none"
       transform="matrix(0.78950708,-0.61374145,0.61374145,0.78950708,0,0)" />
    <rect
       y="-535.98059"
       x="-1493.8943"
       height="179.56923"
       width="96.57766"
       id="rect3855"
       style="fill:#000000;fill-opacity:1;fill-rule:evenodd;stroke:none"
       transform="matrix(0.78950708,-0.61374145,0.61374145,0.78950708,0,0)" />
    <rect
       y="537.00842"
       x="-1263.9149"
       height="16.060631"
       width="136.86198"
       id="rect3859"
       style="fill:#000000;fill-opacity:1;fill-rule:evenodd;stroke:#ffffff;stroke-width:0.68738651;stroke-miterlimit:4;stroke-opacity:1;stroke-dasharray:none" />
    <rect
       style="fill:#000000;fill-opacity:1;fill-rule:evenodd;stroke:#ffffff;stroke-width:3.49136209;stroke-miterlimit:4;stroke-opacity:1;stroke-dasharray:none"
       id="rect3857"
       width="684.20087"
       height="82.879997"
       x="-1939.9498"
       y="511.21375" />
    <rect
       style="fill:#ff0000;fill-opacity:1;fill-rule:evenodd;stroke:none"
       id="rect3845"
       width="105.98779"
       height="219.92796"
       x="-1872.2498"
       y="-652.48553"
       transform="matrix(0.83980564,-0.54288718,0.54288718,0.83980564,0,0)" />
    <rect
       style="fill:#000000;fill-opacity:1;fill-rule:evenodd;stroke:none"
       id="rect3847"
       width="96.57766"
       height="209.85699"
       x="-1867.297"
       y="-648.13055"
       transform="matrix(0.83980564,-0.54288718,0.54288718,0.83980564,0,0)" />
    <rect
       y="511.21375"
       x="-2063.2725"
       height="136.00166"
       width="126.70766"
       id="rect3861"
       style="fill:#000000;fill-opacity:1;fill-rule:evenodd;stroke:#ffffff;stroke-width:1.92465019;stroke-miterlimit:4;stroke-opacity:1;stroke-dasharray:none" />
  </g>
</svg>
