<?xml version="1.0" encoding="UTF-8" standalone="no"?>
<!-- Created with Inkscape (http://www.inkscape.org/) -->

<svg
   xmlns:dc="http://purl.org/dc/elements/1.1/"
   xmlns:cc="http://creativecommons.org/ns#"
   xmlns:rdf="http://www.w3.org/1999/02/22-rdf-syntax-ns#"
   xmlns:svg="http://www.w3.org/2000/svg"
   xmlns="http://www.w3.org/2000/svg"
   version="1.2"
   width="859.73547"
   height="958.03888"
   id="svg2">
  <defs
     id="defs4" />
  <metadata
     id="metadata7">
    <rdf:RDF>
      <cc:Work
         rdf:about="">
        <dc:format>image/svg+xml</dc:format>
        <dc:type
           rdf:resource="http://purl.org/dc/dcmitype/StillImage" />
        <dc:title></dc:title>
      </cc:Work>
    </rdf:RDF>
  </metadata>
  <g
     transform="translate(5.5507627,459.6446)"
     id="layer1">
    <path
       d="m 5.0507627,376.57013 c 0.3645306,2.32336 4.6006134,0.52339 6.0609153,1.01015 4.220717,1.40691 0.590944,0.17174 2.020305,3.03046 0.150585,0.30117 0.673435,0 1.010153,0 1.34687,0 2.69374,0 4.04061,0 2.368987,0 -0.476191,-0.2381 2.020305,1.01015 0.301169,0.15059 0.772057,-0.23809 1.010152,0 0.238096,0.2381 -0.238095,0.77206 0,1.01016 0.505077,0.50507 2.525382,-0.50508 3.030458,0 0.238095,0.23809 -0.238095,0.77205 0,1.01015 0.243074,0.24307 3.797536,-0.24308 4.04061,0 0.238096,0.23809 -0.238095,0.77205 0,1.01015 0.505077,0.50508 2.525382,-0.50508 3.030458,0 0.238095,0.2381 -0.238095,0.77206 0,1.01015 0.362862,0.36286 3.387091,-0.32676 4.04061,0 0.301169,0.15059 -0.238095,0.77206 0,1.01016 0.243074,0.24307 3.797536,-0.24308 4.04061,0 0.238096,0.23809 -0.238095,0.77205 0,1.01015 0.238096,0.23809 0.673435,0 1.010153,0 2.020305,0 4.04061,0 6.060915,0 1.683588,0 3.367175,0 5.050763,0 0.336717,0 0.673435,0 1.010152,0 0.336718,0 0.708984,-0.15059 1.010153,0 0.425918,0.21296 0.584235,0.79719 1.010152,1.01015 0.261176,0.13059 5.344918,0 6.060916,0 5.050762,0 10.101525,0 15.152288,0 7.407785,0 14.815571,0 22.223356,0 2.020303,0 4.040613,0 6.060913,0 0.67344,0 1.34687,0 2.02031,0 0.67343,0 1.41796,0.30117 2.0203,0 0.30117,-0.15058 -0.23809,-0.77206 0,-1.01015 0.35459,-0.35459 4.35302,0.34887 5.05077,0 0.42591,-0.21296 0.58423,-0.7972 1.01015,-1.01015 0.6349,-0.31746 3.4057,0.31745 4.04061,0 0.42592,-0.21296 0.58423,-0.7972 1.01015,-1.01016 0.6349,-0.31745 3.40571,0.31745 4.04061,0 0.42592,-0.21296 0.58424,-0.79719 1.01015,-1.01015 0.30743,-0.15371 2.57553,0 3.03046,0 0.24499,0 2.99797,0.0325 3.03046,0 0.23809,-0.2381 -0.2381,-0.77206 0,-1.01015 0.35458,-0.35459 4.35301,0.34887 5.05076,0 0.42592,-0.21296 0.58424,-0.7972 1.01015,-1.01015 0.69775,-0.34888 4.69618,0.35458 5.05077,0 0.23809,-0.2381 -0.30117,-0.85957 0,-1.01016 0.61997,-0.30999 4.42456,0.3131 5.05076,0 0.42592,-0.21296 0.58423,-0.79719 1.01015,-1.01015 0.80812,-0.40406 2.22234,0.40406 3.03046,0 0.42592,-0.21296 0.58423,-0.79719 1.01015,-1.01015 0.548,-0.274 3.76421,0.2764 4.04061,0 0.2381,-0.2381 -0.23809,-0.77206 0,-1.01016 0.31279,-0.31279 4.73797,0.3128 5.05076,0 0.2381,-0.23809 -0.23809,-0.77205 0,-1.01015 0.2764,-0.2764 3.49262,0.274 4.04061,0 0.42592,-0.21296 0.58424,-0.79719 1.01016,-1.01015 0.6349,-0.31745 3.4057,0.31745 4.04061,0 0.42592,-0.21296 0.58423,-0.79719 1.01015,-1.01015 0.60234,-0.30117 1.54411,0.47619 2.02031,0 0.23809,-0.2381 -0.2381,-0.77206 0,-1.01016 0.31279,-0.31279 4.73797,0.3128 5.05076,0 0.23809,-0.23809 -0.2381,-0.77205 0,-1.01015 0.23809,-0.23809 0.67343,0 1.01015,0 0.33672,0 0.67344,0 1.01015,0 0.33672,0 0.67344,0 1.01016,0 0.33671,0 0.77205,0.2381 1.01015,0 0.23809,-0.23809 -0.2381,-0.77206 0,-1.01015 0.23809,-0.2381 0.70898,0.15058 1.01015,0 0.42592,-0.21296 0.58424,-0.79719 1.01015,-1.01015 0.80813,-0.40406 2.22234,0.40406 3.03046,0 0.42592,-0.21296 0.58424,-0.7972 1.01015,-1.01016 0.60234,-0.30116 1.54412,0.47619 2.02031,0 0.23809,-0.23809 -0.2381,-0.77205 0,-1.01015 0.24307,-0.24307 3.79753,0.24308 4.04061,0 0.23809,-0.23809 -0.2381,-0.77206 0,-1.01015 0.47619,-0.47619 1.54411,0.47619 2.0203,0 0.2381,-0.2381 -0.23809,-0.77206 0,-1.01015 0.50508,-0.50508 2.52539,0.50507 3.03046,0 0.2381,-0.2381 -0.23809,-0.77206 0,-1.01016 0.2381,-0.23809 0.77206,0.2381 1.01015,0 0.2381,-0.23809 -0.23809,-0.77205 0,-1.01015 0.50508,-0.50507 2.52539,0.50508 3.03046,0 0.2381,-0.23809 -0.23809,-0.77206 0,-1.01015 0.47619,-0.47619 1.54412,0.47619 2.02031,0 0.23809,-0.2381 -0.2381,-0.77206 0,-1.01015 0.47619,-0.47619 1.41796,0.30117 2.0203,0 0.42592,-0.21296 0.58424,-0.7972 1.01015,-1.01016 0.40052,-0.20025 2.82395,0.20652 3.03046,0 0.2381,-0.23809 -0.23809,-0.77205 0,-1.01015 0.47619,-0.47619 1.54412,0.47619 2.02031,0 0.23809,-0.23809 -0.2381,-0.77206 0,-1.01015 0.50507,-0.50508 2.52538,0.50508 3.03045,0 0.2381,-0.2381 -0.23809,-0.77206 0,-1.01015 0.2381,-0.2381 0.77206,0.23809 1.01016,0 0.23809,-0.2381 -0.2381,-0.77206 0,-1.01016 0.47619,-0.47619 1.71913,0.60234 2.0203,0 0.30117,-0.60233 -0.30117,-1.41796 0,-2.0203 0.30117,-0.60234 1.54412,0.47619 2.02031,0 0.23809,-0.2381 -0.2381,-0.77206 0,-1.01015 0.23809,-0.2381 0.70898,0.15058 1.01015,0 0.42592,-0.21296 0.58423,-0.7972 1.01015,-1.01016 0.60234,-0.30117 1.54412,0.47619 2.02031,0 0.67368,-0.67368 -0.67369,-1.34662 0,-2.0203 0.47619,-0.47619 1.54411,0.47619 2.0203,0 0.2381,-0.2381 -0.23809,-0.77206 0,-1.01015 0.47619,-0.47619 1.54412,0.47619 2.02031,0 0.23809,-0.2381 -0.2381,-0.77206 0,-1.01016 0.23809,-0.23809 0.77206,0.2381 1.01015,0 0.2381,-0.23809 -0.23809,-0.77205 0,-1.01015 0.47619,-0.47619 1.54411,0.47619 2.02031,0 0.23809,-0.23809 -0.2381,-0.77206 0,-1.01015 0.23809,-0.2381 0.77205,0.23809 1.01015,0 0.47619,-0.47619 -0.47619,-1.54412 0,-2.02031 0.23809,-0.23809 0.77206,0.2381 1.01015,0 0.2381,-0.23809 -0.23809,-0.77205 0,-1.01015 0.2381,-0.23809 0.77206,0.2381 1.01015,0 0.2381,-0.23809 -0.15058,-0.70898 0,-1.01015 1.11675,-2.2335 0.62695,-0.31347 2.02031,-1.01015 0.42592,-0.21296 0.67343,-0.67344 1.01015,-1.01016 0.33672,-0.33671 0.79719,-0.58423 1.01015,-1.01015 0.15059,-0.30117 -0.23809,-0.77206 0,-1.01015 0.2381,-0.2381 0.77206,0.23809 1.01016,0 0.23809,-0.2381 -0.2381,-0.77206 0,-1.01015 0.23809,-0.2381 0.67343,0 1.01015,0 0,-0.33672 -0.15059,-0.70899 0,-1.01016 2.102,-4.20401 -0.0697,1.07989 2.0203,-1.01015 0.2381,-0.23809 -0.23809,-0.77206 0,-1.01015 0.2381,-0.2381 0.77206,0.23809 1.01016,0 0.23809,-0.2381 -0.15059,-0.70899 0,-1.01015 0.21295,-0.42592 0.79719,-0.58424 1.01015,-1.01016 0.15058,-0.30117 -0.2381,-0.77205 0,-1.01015 0.23809,-0.23809 0.77206,0.2381 1.01015,0 0.2381,-0.23809 -0.15058,-0.70898 0,-1.01015 0.42592,-0.85184 1.59439,-1.16847 2.02031,-2.02031 0.15058,-0.30117 -0.15059,-0.70898 0,-1.01015 0.60609,-1.21218 2.42436,-1.81827 3.03045,-3.03046 0.15059,-0.30117 -0.23809,-0.77205 0,-1.01015 0.2381,-0.2381 0.77206,0.2381 1.01016,0 0.47619,-0.47619 -0.47619,-1.54411 0,-2.02031 0.23809,-0.23809 0.77205,0.2381 1.01015,0 0.23809,-0.23809 0,-0.67343 0,-1.01015 0.33672,0 0.77206,0.2381 1.01015,0 0.47619,-0.47619 -0.47619,-1.54411 0,-2.0203 0.2381,-0.2381 0.77206,0.23809 1.01015,0 0.47619,-0.47619 -0.47619,-1.54412 0,-2.02031 0.2381,-0.23809 0.77206,0.2381 1.01016,0 0.23809,-0.23809 -0.2381,-0.77206 0,-1.01015 0.23809,-0.2381 0.77205,0.23809 1.01015,0 0.47619,-0.47619 -0.47619,-1.54412 0,-2.02031 0.23809,-0.23809 0.77206,0.2381 1.01015,0 0.67487,-0.67486 -0.67487,-1.34543 0,-2.0203 0.2381,-0.2381 0.77206,0.23809 1.01015,0 0.47619,-0.47619 -0.47619,-1.54412 0,-2.02031 0.2381,-0.23809 0.70899,0.15059 1.01016,0 0.85183,-0.42591 1.16847,-1.59438 2.0203,-2.0203 0.30117,-0.15059 0.77206,0.23809 1.01015,0 0.2381,-0.2381 -0.23809,-0.77206 0,-1.01015 0.2381,-0.2381 0.77206,0.23809 1.01016,0 0.23809,-0.2381 -0.2381,-0.77206 0,-1.01016 0.23809,-0.23809 0.77205,0.2381 1.01015,0 0.23809,-0.23809 -0.2381,-0.77205 0,-1.01015 0.23809,-0.23809 0.77206,0.2381 1.01015,0 0.2381,-0.23809 0,-0.67343 0,-1.01015 0.33672,0 0.77206,0.23809 1.01015,0 0.2381,-0.2381 -0.23809,-0.77206 0,-1.01015 2.09005,-2.09005 -0.0817,3.19386 2.02031,-1.01016 0.15058,-0.30117 -0.2381,-0.77205 0,-1.01015 0.23809,-0.23809 0.77206,0.2381 1.01015,0 0.5324,-0.5324 0.38368,-1.60266 1.01015,-2.0203 0.56034,-0.37356 1.41797,0.30117 2.02031,0 0.30117,-0.15059 -0.15058,-0.70899 0,-1.01016 2.10201,-4.20401 -0.0697,1.07989 2.0203,-1.01015 0.2381,-0.23809 -0.15058,-0.70898 0,-1.01015 0.21296,-0.42592 0.85957,-0.5584 1.01016,-1.01015 0.21296,-0.63888 -0.47619,-1.54412 0,-2.02031 0.47619,-0.47619 1.41796,0.30117 2.0203,0 0.30117,-0.15058 -0.23809,-0.77206 0,-1.01015 0.2381,-0.2381 0.77206,0.23809 1.01016,0 0.50507,-0.50508 -0.50508,-2.52538 0,-3.03046 0.23809,-0.23809 0.77205,0.2381 1.01015,0 0.47619,-0.47619 -0.30117,-1.41797 0,-2.0203 0.21296,-0.42592 0.79719,-0.58424 1.01015,-1.01016 0.30117,-0.60234 -0.47619,-1.54411 0,-2.0203 0.2381,-0.2381 0.77206,0.23809 1.01015,0 0.50508,-0.50508 -0.50507,-2.52538 0,-3.03046 0.2381,-0.23809 0.77206,0.2381 1.01016,0 0.47619,-0.47619 -0.4762,-1.54411 0,-2.0203 0.23809,-0.2381 0.77205,0.23809 1.01015,0 0.0458,-0.0458 0,-4.57448 0,-5.05077 0,-0.33671 -0.2381,-0.77205 0,-1.01015 0.23809,-0.2381 0.77206,0.2381 1.01015,0 0.20651,-0.20651 -0.20026,-2.62994 0,-3.03046 0.21296,-0.42592 0.79719,-0.58423 1.01015,-1.01015 0.40406,-0.80812 -0.40406,-2.22234 0,-3.03046 0.21296,-0.42592 0.7972,-0.58423 1.01016,-1.01015 0.30116,-0.60234 -0.30117,-1.41797 0,-2.02031 0.21295,-0.42591 0.79719,-0.58423 1.01015,-1.01015 0.40406,-0.80812 -0.40406,-2.22233 0,-3.03046 0.21296,-0.42591 0.79719,-0.58423 1.01015,-1.01015 0.20026,-0.40052 -0.20651,-2.82394 0,-3.03046 0.2381,-0.23809 0.77206,0.2381 1.01015,0 0.0458,-0.0458 0,-4.57447 0,-5.05076 0,-0.33672 -0.23809,-0.77206 0,-1.01015 0.2381,-0.2381 0.77206,0.23809 1.01016,0 0.47619,-0.47619 -0.47619,-1.54412 0,-2.02031 0.23809,-0.23809 0.77205,0.2381 1.01015,0 0.24307,-0.24307 -0.24308,-3.79753 0,-4.04061 0.23809,-0.23809 0.77206,0.2381 1.01015,0 0.31279,-0.31279 -0.31279,-4.73797 0,-5.05076 0.2381,-0.23809 0.77206,0.2381 1.01015,0 0.47619,-0.47619 -0.30117,-1.41797 0,-2.0203 0.21296,-0.42592 0.7972,-0.58424 1.01016,-1.01016 0.20025,-0.40051 -0.20652,-2.82394 0,-3.03045 0.23809,-0.2381 0.77205,0.23809 1.01015,0 0.31006,-0.31006 -0.18745,-3.29082 0,-4.04061 0.18261,-0.73045 0.77206,-1.30602 1.01015,-2.02031 0.30586,-0.91757 -0.35464,-5.52895 0,-6.06091 0.41765,-0.62647 1.60266,-0.38369 2.02031,-1.01016 0.67343,-1.01015 -0.33672,-2.0203 0,-3.03045 0.23809,-0.71429 0.82754,-1.28987 1.01015,-2.02031 0.16333,-0.65333 -0.37356,-1.45997 0,-2.02031 0.41765,-0.62647 1.60266,-0.38368 2.0203,-1.01015 0.37356,-0.56033 0,-1.34687 0,-2.0203 0,-0.33672 0,-0.67344 0,-1.01016 0,-3.25163 -0.23809,1.72444 1.01016,-2.0203 0.19737,-0.59213 -0.21297,-3.72116 0,-4.04061 0.41764,-0.62647 1.60265,-0.38368 2.0203,-1.01015 0.44645,-0.66968 -0.40415,-4.24246 0,-5.05077 0.15059,-0.30117 0.77206,0.2381 1.01015,0 0.50508,-0.50507 -0.50507,-2.52538 0,-3.03045 0.2381,-0.2381 0.77206,0.23809 1.01016,0 0.47619,-0.47619 -0.30117,-1.41797 0,-2.02031 0.21296,-0.42592 0.79719,-0.58423 1.01015,-1.01015 0.274,-0.548 -0.2764,-3.76421 0,-4.04061 0.23809,-0.2381 0.77206,0.23809 1.01015,0 0.47619,-0.47619 -0.47619,-1.54412 0,-2.02031 0.2381,-0.23809 0.77206,0.2381 1.01015,0 0.50508,-0.50507 -0.50507,-2.52538 0,-3.03045 0.2381,-0.2381 0.77206,0.23809 1.01016,0 0.23809,-0.2381 -0.15059,-0.70899 0,-1.01016 0.21296,-0.42591 0.79719,-0.58423 1.01015,-1.01015 0.30117,-0.60234 -0.47619,-1.54411 0,-2.0203 0.23809,-0.2381 0.77206,0.23809 1.01015,0 0.47619,-0.47619 -0.30117,-1.41797 0,-2.02031 0.21296,-0.42592 0.85957,-0.5584 1.01015,-1.01015 0.19738,-0.59214 -0.21296,-3.72116 0,-4.04061 0.41765,-0.62647 1.60266,-0.38368 2.02031,-1.01015 0.37355,-0.56034 -0.21296,-1.38143 0,-2.02031 0.15058,-0.45175 0.85957,-0.5584 1.01015,-1.01015 0.21296,-0.63888 -0.37355,-1.45998 0,-2.02031 0.41765,-0.62647 1.60266,-0.38368 2.02031,-1.01015 0.37355,-0.56033 -0.21296,-1.38143 0,-2.0203 0.15058,-0.45176 0.67343,-0.67344 1.01015,-1.01016 0.67343,-0.67343 1.59439,-1.16847 2.0203,-2.0203 0.30117,-0.60234 -0.37355,-1.45998 0,-2.02031 0.41765,-0.62647 1.60266,-0.38368 2.02031,-1.01015 0.37355,-0.56033 -0.16333,-1.36698 0,-2.02031 0.18261,-0.73044 0.77206,-1.30601 1.01015,-2.0203 0.10648,-0.31944 -0.30117,-0.85957 0,-1.01015 0.60234,-0.30117 1.54412,0.47619 2.02031,0 0.95238,-0.95238 -0.74711,-2.91995 0,-4.04061 0.41764,-0.62647 1.60266,-0.38369 2.0203,-1.01016 0.37356,-0.56033 -0.30117,-1.41796 0,-2.0203 0.15059,-0.30117 0.77206,0.23809 1.01015,0 0.2381,-0.2381 -0.18677,-0.72999 0,-1.01015 0.52829,-0.79243 1.49202,-1.22788 2.02031,-2.02031 0.37355,-0.56033 -0.47619,-1.54411 0,-2.0203 0.2381,-0.2381 0.67343,0 1.01015,0 0.33672,-0.67344 0.77206,-1.30602 1.01016,-2.02031 0.21295,-0.63888 -0.30117,-1.41797 0,-2.0203 0.21295,-0.42592 0.79719,-0.58424 1.01015,-1.01016 0.15058,-0.30117 -0.2381,-0.77205 0,-1.01015 0.23809,-0.23809 0.77205,0.2381 1.01015,0 0.2381,-0.23809 -0.18678,-0.72999 0,-1.01015 0.52829,-0.79243 1.49202,-1.22788 2.02031,-2.02031 0.18677,-0.28016 -0.2381,-0.77205 0,-1.01015 2.69374,0 -0.33672,0.33672 1.01015,-1.01015 0.23809,-0.2381 0.77206,0.23809 1.01015,0 0.2381,-0.2381 -0.15058,-0.70898 0,-1.01015 0.42592,-0.85184 1.59439,-1.16847 2.02031,-2.02031 0.15058,-0.30117 -0.15059,-0.70898 0,-1.01015 0.21295,-0.42592 0.85956,-0.5584 1.01015,-1.01015 0.21296,-0.63888 -0.21296,-1.38143 0,-2.02031 0.88264,-2.64793 1.38772,0.63259 3.03046,-1.01015 0.47619,-0.47619 -0.21296,-1.38143 0,-2.02031 0.15058,-0.45175 0.67343,-0.67343 1.01015,-1.01015 0.67343,-0.67343 1.59439,-1.16847 2.0203,-2.0203 0.30117,-0.60234 -0.37355,-1.45998 0,-2.02031 0.41765,-0.62647 1.30602,-0.77206 2.02031,-1.01015 0.31944,-0.10648 0.85957,0.30117 1.01015,0 0.42139,-0.84278 -0.47034,-3.57027 0,-4.04061 0.47619,-0.47619 1.41797,0.30117 2.02031,0 0.30117,-0.15059 -0.18678,-0.72999 0,-1.01015 -2.49267,-3.05823 2.74767,-1.73753 3.03045,-2.02031 0.2381,-0.2381 -0.30117,-0.85957 0,-1.01015 0.60234,-0.30117 1.54412,0.47619 2.02031,0 0.47034,-0.47034 -0.42139,-3.197837 0,-4.040613 0.15058,-0.301169 0.69071,0.10648 1.01015,0 0.71429,-0.238095 1.60266,-0.383682 2.02031,-1.010152 0.37355,-0.560332 -0.30117,-1.417967 0,-2.020305 0.15058,-0.30117 0.70898,0.150584 1.01015,0 0.42592,-0.212959 0.79719,-0.584235 1.01015,-1.010153 0,-2.69374 -0.33672,0.336718 1.01015,-1.010152 0.2381,-0.238096 -0.23809,-0.772058 0,-1.010153 0.2381,-0.238095 0.77206,0.238095 1.01016,0 2.09004,-2.090042 -3.19386,0.0817 1.01015,-2.020305 0.30117,-0.150585 0.77206,0.238095 1.01015,0 0.47619,-0.476191 -0.47619,-1.544115 0,-2.020305 0.2381,-0.238095 0.77206,0.238095 1.01015,0 0.2381,-0.238095 -0.23809,-0.772058 0,-1.010153 2.09005,-2.090041 -0.0817,3.193861 2.02031,-1.010152 0.15058,-0.30117 -0.2381,-0.772058 0,-1.010153 0.23809,-0.238095 0.77206,0.238095 1.01015,0 0.2381,-0.238095 -0.23809,-0.772057 0,-1.010152 0.2381,-0.238096 0.70899,0.150584 1.01015,0 1.21219,-0.606092 1.81828,-2.424366 3.03046,-3.030458 0.60234,-0.301169 1.54412,0.47619 2.02031,0 0.23809,-0.238095 -0.2381,-0.772057 0,-1.010153 0.23809,-0.238095 0.77205,0.238096 1.01015,0 0.23809,-0.238095 -0.2381,-0.772057 0,-1.010152 0.23809,-0.238095 0.70898,0.150585 1.01015,0 0.42592,-0.212959 0.58424,-0.797194 1.01015,-1.010153 0.30117,-0.150584 0.77206,0.238096 1.01016,0 0.23809,-0.238095 -0.2381,-0.772057 0,-1.010152 0.47619,-0.476191 1.54411,0.47619 2.0203,0 0.2381,-0.238095 -0.23809,-0.772057 0,-1.010153 2.69374,0 -0.33672,0.336718 1.01015,-1.010152 0.2381,-0.238096 0.70899,0.150584 1.01016,0 4.62307,-2.311536 -4.2865,0.41868 3.03046,-2.020305 0.31943,-0.10648 0.70898,0.150584 1.01015,0 0.42592,-0.212959 0.58423,-0.797194 1.01015,-1.010153 0.30117,-0.150585 0.70898,0.150585 1.01015,0 0.42592,-0.212959 0.58424,-0.797194 1.01016,-1.010152 0.30116,-0.150585 0.72998,0.186777 1.01015,0 0.79243,-0.528286 1.22787,-1.49202 2.0203,-2.020306 0.28017,-0.186777 0.69072,0.10648 1.01016,0 0.71428,-0.238095 1.28986,-0.827541 2.0203,-1.010152 0.65333,-0.163332 1.45997,0.373554 2.02031,0 0.62647,-0.417647 0.38368,-1.602659 1.01015,-2.020305 0.56033,-0.373555 1.41796,0.301169 2.0203,0 0.85184,-0.425918 1.34687,-1.34687 2.02031,-2.020305 0.33672,-0.336718 0.5584,-0.859568 1.01015,-1.010153 0.63888,-0.212959 1.34687,0 2.02031,0 0.67343,-0.673435 1.22787,-1.492019 2.0203,-2.020305 0.41886,-0.279239 3.47397,0.283323 4.04061,0 0.42592,-0.212959 0.58424,-0.797194 1.01015,-1.010152 0.30117,-0.150585 0.77206,0.238095 1.01016,0 0.23809,-0.238096 -0.2381,-0.772058 0,-1.010153 0.2764,-0.2764 3.49261,0.273998 4.04061,0 0.42591,-0.212959 0.58423,-0.797194 1.01015,-1.010153 0.90351,-0.451754 2.12695,0.451754 3.03046,0 0.85183,-0.425917 1.16847,-1.594387 2.0203,-2.020305 0.60234,-0.301169 1.36698,0.163332 2.02031,0 0.73044,-0.18261 1.28986,-0.827541 2.0203,-1.010152 0.65333,-0.163332 1.39504,0.250107 2.02031,0 1.12722,-0.450888 1.90324,-1.569418 3.03045,-2.020305 0.62527,-0.250108 1.41797,0.301169 2.02031,0 0.85184,-0.425918 1.16847,-1.594388 2.0203,-2.020305 0.60234,-0.30117 1.41797,0.301169 2.02031,0 0.85184,-0.425918 1.13604,-1.6666 2.02031,-2.020305 0.9379,-0.375162 2.0203,0 3.03045,0 0.67344,0 1.41797,0.301169 2.02031,0 0.85183,-0.425918 1.22787,-1.49202 2.0203,-2.020306 0.28017,-0.186777 0.72999,0.186778 1.01016,0 0.79242,-0.528285 1.16847,-1.594387 2.0203,-2.020305 0.7673,-0.38365 7.31392,0.383651 8.08122,0 0.30117,-0.150584 -0.23809,-0.772057 0,-1.010152 0.50508,-0.505076 2.52538,0.505076 3.03046,0 0.23809,-0.238095 -0.2381,-0.772057 0,-1.010153 0.2764,-0.2764 3.49261,0.273998 4.04061,0 0.42592,-0.212959 0.58423,-0.797193 1.01015,-1.010152 0.80812,-0.404061 2.22234,0.404061 3.03046,0 0.42592,-0.212959 0.58423,-0.797194 1.01015,-1.010153 0.6349,-0.317451 3.40571,0.317452 4.04061,0 0.42592,-0.212959 0.58424,-0.797194 1.01015,-1.010152 0.30117,-0.150585 0.70899,0.150584 1.01016,0 0.42591,-0.212959 0.5584,-0.859568 1.01015,-1.010153 0.218,-0.07267 3.7632,0.18494 4.04061,0 0.79243,-0.528286 1.16847,-1.594387 2.0203,-2.020305 0.76736,-0.383677 7.32433,0.378449 8.08122,0 0.85184,-0.425918 1.22788,-1.492019 2.02031,-2.020305 0.28017,-0.186777 0.67343,0 1.01015,0 0.67344,0 1.34687,0 2.02031,0 1.68359,0 3.36717,0 5.05076,0 0.67344,0 1.34687,0 2.02031,0 0.33671,0 0.77205,0.238095 1.01015,0 0.23809,-0.238095 -0.2381,-0.772057 0,-1.010153 0.50507,-0.505076 2.52538,0.505077 3.03046,0 0.23809,-0.238095 -0.2381,-0.772057 0,-1.010152 0.31279,-0.312791 4.73797,0.312791 5.05076,0 0.23809,-0.238095 -0.2381,-0.772057 0,-1.010153 0.23809,-0.238095 0.67343,0 1.01015,0 2.02031,0 4.04061,0 6.06092,0 0.33671,0 0.77205,0.238096 1.01015,0 0.23809,-0.238095 -0.2381,-0.772057 0,-1.010152 0.23809,-0.238096 0.67343,0 1.01015,0 0.33672,0 0.67344,0 1.01015,0 5.05077,0 10.10153,0 15.15229,0 2.80127,0 -1.61249,0.150584 3.03046,-1.010153 0.65333,-0.163332 1.34687,0 2.0203,0 2.02031,0 4.04061,0 6.06092,0 4.71405,0 9.42809,0 14.14214,0 1.68358,0 3.36717,0 5.05076,0 1.01015,0 2.07214,-0.319438 3.03046,0 0.45175,0.150585 0.55839,0.859568 1.01015,1.010153 0.46241,0.154137 4.48694,0 5.05076,0 3.03046,0 6.06092,0 9.09137,0 0.71033,0 5.76308,-0.198563 6.06092,0 3.74474,2.496495 0.18528,2.020305 4.04061,2.020305 16.16244,0 32.32488,0 48.48732,0 2.35702,0 4.71405,0 7.07107,0 0.33672,0 0.77206,-0.238095 1.01015,0 0.2381,0.238095 -0.23809,0.772057 0,1.010152 0.35459,0.354584 4.35302,-0.348873 5.05076,0 0.42592,0.212959 0.58424,0.797194 1.01016,1.010153 0.60234,0.301169 1.54411,-0.476191 2.0203,0 0.2381,0.238095 -0.23809,0.772057 0,1.010152 0.2381,0.238096 0.70899,-0.150584 1.01016,0 0.42591,0.212959 0.55839,0.859568 1.01015,1.010153 0.63887,0.212959 1.34687,0 2.0203,0 0.33672,0 0.70899,-0.150585 1.01016,0 0.42591,0.212959 0.58423,0.797194 1.01015,1.010153 0.30117,0.150584 0.77206,-0.238096 1.01015,0 0.2381,0.238095 -0.23809,0.772057 0,1.010152 0.2381,0.238095 0.77206,-0.238095 1.01015,0 0.2381,0.238095 -0.23809,0.772057 0,1.010153 0.47619,0.47619 1.54412,-0.476191 2.02031,0 0.47619,0.47619 -0.47619,1.544114 0,2.020305 0.47619,0.47619 1.54411,-0.476191 2.0203,0 0.2381,0.238095 -0.23809,0.772057 0,1.010152 0.2381,0.238096 0.77206,-0.238095 1.01016,0 0.23809,0.238096 -0.2381,0.772058 0,1.010153 0.23809,0.238095 0.70898,-0.150585 1.01015,0 0.42592,0.212959 0.58423,0.797194 1.01015,1.010152 0.30117,0.150585 0.77206,-0.238095 1.01015,0 0.2381,0.238096 -0.23809,0.772058 0,1.010153 0.47619,0.47619 1.54412,-0.476191 2.02031,0 0.5324,0.532397 0.47775,1.487908 1.01015,2.020305 0.47619,0.47619 1.54412,-0.47619 2.02031,0 0.23809,0.238095 -0.2381,0.772057 0,1.010153 0.23809,0.238095 0.70898,-0.150585 1.01015,0 0.42592,0.212958 0.58423,0.797193 1.01015,1.010152 0.40052,0.200259 2.82395,-0.206512 3.03046,0 0.23809,0.238095 -0.2381,0.772057 0,1.010153 0.47619,0.47619 1.54411,-0.476191 2.0203,0 0.2381,0.238095 -0.23809,0.772057 0,1.010152 0.47619,0.476191 1.54412,-0.47619 2.02031,0 0.23809,0.238095 -0.2381,0.772057 0,1.010153 0.47619,0.47619 1.54411,-0.476191 2.0203,0 0.2381,0.238095 -0.23809,0.772057 0,1.010152 0.2381,0.238096 0.77206,-0.238095 1.01016,0 0.23809,0.238096 -0.2381,0.772058 0,1.010153 0.47619,0.47619 1.54411,-0.476191 2.0203,0 0.2381,0.238095 -0.23809,0.772057 0,1.010152 0.2381,0.238096 0.70898,-0.150584 1.01015,0 3.35026,3.350255 -0.95238,-0.47619 2.02031,1.010153 0.85183,0.425918 1.16847,1.594387 2.0203,2.020305 0.60234,0.301169 1.54412,-0.47619 2.02031,0 0.23809,0.238095 -0.2381,0.772057 0,1.010153 0.23809,0.238095 0.70898,-0.150585 1.01015,0 2.4965,1.248247 -0.34868,1.010152 2.02031,1.010152 2.28217,0 -0.45176,-0.150585 3.03045,1.010153 0.31944,0.106479 0.77206,-0.238096 1.01016,0 0.23809,0.238095 -0.2381,0.772057 0,1.010152 0.47619,0.476191 1.54411,-0.47619 2.0203,0 0.2381,0.238095 -0.23809,0.772057 0,1.010153 0.47619,0.47619 1.54412,-0.476191 2.02031,0 0.23809,0.238095 -0.15059,0.708983 0,1.010152 2.102,4.204013 -0.0697,-1.079889 2.0203,1.010153 0.2381,0.238095 -0.23809,0.772057 0,1.010152 0.2381,0.238096 0.77206,-0.238095 1.01016,0 0,2.69374 -0.33672,-0.336717 1.01015,1.010153 0.23809,0.238095 -0.2381,0.772057 0,1.010152 0.23809,0.238096 0.67343,0 1.01015,0 0,0.336718 -0.2381,0.772058 0,1.010153 0.47619,0.47619 1.54411,-0.47619 2.02031,0 0.47619,0.47619 -0.4762,1.544115 0,2.020305 0.47619,0.476191 1.41796,-0.301169 2.0203,0 4.20401,2.102007 -1.07989,-0.06974 1.01015,2.020305 0.2381,0.238095 0.70899,-0.150584 1.01016,0 4.20401,2.102007 -1.07989,-0.06974 1.01015,2.020305 0.23809,0.238096 0.77206,-0.238095 1.01015,0 0.2381,0.238096 -0.23809,0.772058 0,1.010153 0.2381,0.238095 0.77206,-0.238095 1.01015,0 2.09004,2.090041 -3.19386,-0.0817 1.01016,2.020305 0.30116,0.150585 0.77205,-0.238095 1.01015,0 0.23809,0.238095 -0.15059,0.708983 0,1.010152 3.35025,3.350255 -0.47619,-0.952381 1.01015,2.020306 0.21296,0.425917 0.67344,0.673435 1.01015,1.010152 1.01016,1.010153 2.02031,2.020305 3.03046,3.030458 0.33672,0.336717 0.85957,0.558398 1.01015,1.010152 0.002,0.0046 -9.6e-4,3.029494 0,3.030458 0.85847,0.858464 2.172,1.16184 3.03046,2.020305 0.2381,0.238095 -0.10648,0.690714 0,1.010153 0.2381,0.714285 0.5584,1.417966 1.01015,2.020305 5.44951,7.266 -1.12165,-2.131806 4.04061,3.030457 0.5324,0.532397 0.67344,1.34687 1.01016,2.020305 0.67343,0.673438 1.27662,1.425358 2.0203,2.020308 0.94802,0.75841 2.30203,1.04906 3.03046,2.0203 0.40406,0.53875 -0.30117,1.41797 0,2.02031 0.42592,0.85183 1.34687,1.34687 2.0203,2.0203 1.34687,1.34687 2.69374,2.69374 4.04061,4.04061 0.67344,0.67344 1.44888,1.2584 2.02031,2.02031 4.65084,6.20113 -1.97681,-1.93331 1.01015,4.04061 0.85184,1.70367 3.18878,2.33694 4.04061,4.04061 0.30117,0.60234 -0.30117,1.41796 0,2.0203 0.85184,1.70367 3.18878,2.33694 4.04061,4.04061 0.30117,0.60234 -0.37355,1.45998 0,2.02031 0.41765,0.62647 1.60266,0.38368 2.02031,1.01015 0.37355,0.56033 0,1.34687 0,2.02031 0.67343,1.01015 1.26189,2.08244 2.0203,3.03045 0.17369,0.21712 3.99574,3.95088 4.04061,4.04061 0.30117,0.60234 -0.16333,1.36698 0,2.02031 0.18261,0.73044 0.82754,1.28986 1.01016,2.0203 0.16333,0.65333 -0.30117,1.41797 0,2.02031 0.42591,0.85183 1.59438,1.16847 2.0203,2.0203 0.30117,0.60234 -0.30117,1.41797 0,2.02031 0.42592,0.85184 1.59439,1.16847 2.02031,2.0203 0.30116,0.60234 -0.30117,1.41797 0,2.02031 4.7133,9.4266 -0.53964,-3.83991 4.04061,3.03046 0.37355,0.56033 -0.30117,1.41796 0,2.0203 5.29917,5.29917 0.0385,-0.91386 2.0203,4.04061 4.79086,11.97715 -0.59714,-4.22474 4.04061,5.05077 0.30117,0.60233 -0.21296,1.38142 0,2.0203 0.15059,0.45175 0.72444,0.6292 1.01015,1.01015 0.72843,0.97124 1.56942,1.90324 2.02031,3.03046 0.25011,0.62527 -0.30117,1.41797 0,2.02031 0.85183,1.70367 3.18877,2.33694 4.04061,4.04061 0.30117,0.60233 -0.30117,1.41796 0,2.0203 0.42592,0.85184 1.49202,1.22788 2.0203,2.02031 0.18678,0.28016 -0.18677,0.72998 0,1.01015 1.05658,1.58486 3.18878,2.33694 4.04061,4.04061 0.60234,1.20468 -0.60233,2.83593 0,4.04061 0.15059,0.30117 0.85957,-0.30117 1.01016,0 0.50246,1.00493 -0.39966,2.83063 0,3.03046 5.38748,0 -0.67344,-0.67344 2.0203,2.0203 0.47619,0.47619 1.54412,-0.47619 2.02031,0 0.25065,0.25066 -0.23351,4.58376 0,5.05076 0.15058,0.30117 0.77205,-0.23809 1.01015,0 0.47619,0.47619 -0.47619,1.54412 0,2.02031 0.23809,0.23809 0.77206,-0.2381 1.01015,0 0.35458,0.35458 -0.34887,4.35302 0,5.05076 0.21296,0.42592 0.7972,0.58424 1.01015,1.01015 0.15059,0.30117 -0.23809,0.77206 0,1.01016 0.2381,0.23809 0.77206,-0.2381 1.01016,0 0.50507,0.50507 -0.50508,2.52538 0,3.03046 0.23809,0.23809 0.77205,-0.2381 1.01015,0 0.2764,0.2764 -0.274,3.49261 0,4.04061 2.10201,4.20401 -0.0697,-1.07989 2.0203,1.01015 0.2381,0.23809 0,0.67343 0,1.01015 0,1.68359 0,3.36718 0,5.05076 0,2.69374 -0.33671,-0.33671 1.01016,1.01016 0.23809,0.23809 0,0.67343 0,1.01015 0,0.7026 -0.18266,4.68546 0,5.05076 0.21296,0.42592 0.79719,0.58424 1.01015,1.01015 0.30117,0.60234 -0.47619,1.54412 0,2.02031 0.23809,0.23809 0.77206,-0.2381 1.01015,0 0.12478,0.12478 0,3.40715 0,4.04061 0,2.7973 1.01015,-0.777 1.01015,2.0203 0,0.33672 0,0.67344 0,1.01016 0,0.33671 -0.23809,0.77205 0,1.01015 0.2381,0.23809 0.77206,-0.2381 1.01016,0 0.47619,0.47619 -0.30117,1.41797 0,2.0203 0.21296,0.42592 0.79719,0.58424 1.01015,1.01016 0.30117,0.60234 -0.47619,1.54411 0,2.0203 0.23809,0.2381 0.77206,-0.23809 1.01015,0 0.47619,0.47619 -0.30117,1.41797 0,2.02031 0.21296,0.42591 0.7972,0.58423 1.01015,1.01015 0.30117,0.60234 -0.47619,1.54411 0,2.0203 0.2381,0.2381 0.77206,-0.23809 1.01016,0 0.47619,0.47619 -0.30117,1.41797 0,2.02031 0.21296,0.42592 0.79719,0.58423 1.01015,1.01015 0.15058,0.30117 -0.2381,0.77206 0,1.01015 0.2381,0.2381 0.77206,-0.23809 1.01015,0 0.33299,0.33299 -0.24366,3.30962 0,4.04061 0.15059,0.45176 0.7972,0.58424 1.01016,1.01016 0.27399,0.54799 -0.27641,3.76421 0,4.04061 0.23809,0.23809 0.77205,-0.2381 1.01015,0 0.20651,0.20651 -0.20026,2.62994 0,3.03046 0.21296,0.42591 0.79719,0.58423 1.01015,1.01015 0.20026,0.40051 -0.20651,2.82394 0,3.03046 0.2381,0.23809 0.77206,-0.2381 1.01015,0 0.2381,0.23809 -0.15058,0.70898 0,1.01015 0.21296,0.42592 0.7972,0.58423 1.01016,1.01015 0.34887,0.69775 -0.35459,4.69618 0,5.05076 0.23809,0.2381 0.77205,-0.23809 1.01015,0 0.47619,0.47619 -0.47619,1.54412 0,2.02031 0.23809,0.23809 0.77206,-0.2381 1.01015,0 0.24307,0.24307 -0.24307,3.79753 0,4.04061 0.2381,0.23809 0.77206,-0.2381 1.01015,0 0.47619,0.47619 -0.47619,1.54411 0,2.0203 0.2381,0.2381 0.77206,-0.23809 1.01016,0 0.50507,0.50508 -0.50508,2.52538 0,3.03046 0.23809,0.2381 0.77205,-0.23809 1.01015,0 0.23809,0.2381 0,0.67344 0,1.01015 0,0.47629 -0.0458,5.00498 0,5.05077 0.23809,0.23809 0.77206,-0.2381 1.01015,0 0.47619,0.47619 -0.47619,1.54411 0,2.0203 0.2381,0.2381 0.77206,-0.23809 1.01015,0 0.50508,0.50508 -0.50507,2.52538 0,3.03046 0.2381,0.23809 0.77206,-0.2381 1.01016,0 0.24307,0.24307 -0.24308,3.79754 0,4.04061 0.23809,0.23809 0.77205,-0.2381 1.01015,0 0.0325,0.0325 0,2.78547 0,3.03046 0,2.28217 -0.15059,-0.45176 1.01015,3.03045 0.2192,0.6576 0,6.22537 0,7.07107 0,0.67344 0,1.34687 0,2.02031 0,0.33671 -0.18678,0.72998 0,1.01015 0.52829,0.79243 1.49202,1.22788 2.02031,2.02031 0.22131,0.33197 0,4.47978 0,5.05076 0,0.33672 -0.2381,0.77206 0,1.01015 0.23809,0.2381 0.77205,-0.23809 1.01015,0 0.23809,0.2381 0,0.67344 0,1.01015 0,2.02031 0,4.04061 0,6.06092 0,0.33672 -0.2381,0.77206 0,1.01015 0.23809,0.2381 0.77206,-0.23809 1.01015,0 0.2381,0.2381 0,0.67344 0,1.01015 0,2.69374 0,5.38748 0,8.08122 0,0.33672 0,0.67344 0,1.01016 0,0.33671 0.2381,0.77205 0,1.01015 -0.23809,0.23809 -0.77206,-0.2381 -1.01015,0 -0.2381,0.23809 0.23809,0.77206 0,1.01015 -0.2381,0.2381 -0.77206,-0.23809 -1.01015,0 -0.2381,0.2381 0.23809,0.77206 0,1.01015 -0.0325,0.0325 -2.78547,0 -3.03046,0 -0.37097,0 -3.99996,0.0407 -4.04061,0 -2.09004,-2.09004 3.19386,0.0817 -1.01015,-2.0203 -0.30117,-0.15059 -0.77206,0.23809 -1.01016,0 -0.47619,-0.47619 0.47619,-1.54412 0,-2.02031 -0.23809,-0.23809 -0.77205,0.2381 -1.01015,0 -0.23809,-0.23809 0.2381,-0.77205 0,-1.01015 -0.23809,-0.23809 -0.77206,0.2381 -1.01015,0 -0.2381,-0.23809 0.23809,-0.77206 0,-1.01015 -0.2381,-0.2381 -0.77206,0.23809 -1.01015,0 -0.2381,-0.2381 0.23809,-0.77206 0,-1.01015 -0.2381,-0.2381 -0.77206,0.23809 -1.01016,0 -0.50507,-0.50508 0.50508,-2.52539 0,-3.03046 -0.23809,-0.2381 -0.77205,0.23809 -1.01015,0 -0.2381,-0.2381 0,-0.67344 0,-1.01015 0,-0.70261 0.18265,-4.68546 0,-5.05077 -0.21296,-0.42591 -0.85957,-0.5584 -1.01015,-1.01015 -0.24888,-0.74663 0.30168,-4.59824 0,-5.05076 -0.52829,-0.79243 -1.59439,-1.16847 -2.02031,-2.02031 -0.60234,-1.20467 0.32667,-2.73395 0,-4.04061 -0.18261,-0.73044 -0.77205,-1.30602 -1.01015,-2.0203 -0.10648,-0.31944 0,-0.67344 0,-1.01016 0,-0.67343 0,-1.34687 0,-2.0203 0,-0.0994 0.0521,-5.95674 0,-6.06092 -0.42592,-0.85183 -1.59439,-1.16847 -2.02031,-2.0203 -0.40406,-0.80812 0.40407,-2.22234 0,-3.03046 -0.54294,-1.08588 -1.56941,-1.90324 -2.0203,-3.03046 -0.32318,-0.80794 0.3604,-5.70051 0,-6.06091 -0.47619,-0.47619 -1.41797,0.30117 -2.02031,0 -0.30116,-0.15059 0.10648,-0.69072 0,-1.01015 -0.23809,-0.71429 -0.82754,-1.28987 -1.01015,-2.02031 -0.16333,-0.65333 0.37356,-1.45997 0,-2.0203 -0.41764,-0.62647 -1.48791,-0.47776 -2.0203,-1.01016 -0.2381,-0.23809 0.23809,-0.77205 0,-1.01015 -0.2381,-0.23809 -0.77206,0.2381 -1.01016,0 -0.23809,-0.23809 0.2381,-0.77206 0,-1.01015 -0.23809,-0.2381 -0.77205,0.23809 -1.01015,0 -0.23809,-0.2381 0.2381,-0.77206 0,-1.01015 -1.34687,-1.34687 -1.01015,1.68358 -1.01015,-1.01016 0,-0.33671 0,-0.67343 0,-1.01015 0,-0.33672 0.23809,-0.77206 0,-1.01015 -0.2381,-0.2381 -0.77206,0.23809 -1.01015,0 -0.2381,-0.2381 0.15058,-0.70898 0,-1.01015 -0.21296,-0.42592 -0.7972,-0.58424 -1.01016,-1.01016 -0.15058,-0.30117 0.2381,-0.77205 0,-1.01015 -0.23809,-0.23809 -0.77205,0.2381 -1.01015,0 -0.24307,-0.24307 0.24308,-3.79754 0,-4.04061 -0.23809,-0.23809 -0.77206,0.2381 -1.01015,0 -0.47619,-0.47619 0.47619,-1.54411 0,-2.0203 -0.2381,-0.2381 -0.77206,0.23809 -1.01015,0 -0.20652,-0.20652 0.20026,-2.62994 0,-3.03046 -0.21296,-0.42592 -0.7972,-0.58424 -1.01016,-1.01015 -0.15058,-0.30117 0.2381,-0.77206 0,-1.01016 -0.23809,-0.23809 -0.85956,0.30117 -1.01015,0 -0.30117,-0.60234 0.37356,-1.45997 0,-2.0203 -0.41765,-0.62647 -1.39383,-0.59251 -2.0203,-1.01015 -2.00117,0.10083 -0.47776,-1.48791 -1.01016,-2.02031 -0.23809,-0.2381 -0.77205,0.2381 -1.01015,0 -0.47619,-0.47619 0.47619,-1.54411 0,-2.02031 -0.47619,-0.47619 -1.54411,0.4762 -2.0203,0 -0.2381,-0.23809 0.15058,-0.70898 0,-1.01015 -0.21296,-0.42592 -0.7972,-0.58423 -1.01016,-1.01015 -0.15058,-0.30117 0.2381,-0.77206 0,-1.01015 -0.23809,-0.2381 -0.70898,0.15058 -1.01015,0 -2.2335,-1.11675 -0.31347,-0.62695 -1.01015,-2.02031 -2.10201,-4.20401 0.0697,1.07989 -2.02031,-1.01015 -0.23809,-0.2381 0,-0.67344 0,-1.01015 0,-0.67344 0.30117,-1.41797 0,-2.02031 -0.15058,-0.30117 -0.70898,0.15059 -1.01015,0 -4.20401,-2.102 1.07989,0.0697 -1.01015,-2.0203 -0.2381,-0.2381 -0.77206,0.23809 -1.01015,0 -0.47619,-0.47619 0.47619,-1.54412 0,-2.02031 -2.09005,-2.09004 0.0817,3.19386 -2.02031,-1.01015 -0.15058,-0.30117 0,-0.67344 0,-1.01015 -0.33672,-0.33672 -0.79719,-0.58424 -1.01015,-1.01016 -0.15059,-0.30117 0.23809,-0.77205 0,-1.01015 -0.5324,-0.5324 -1.60266,-0.38368 -2.02031,-1.01015 -0.37355,-0.56033 0.30117,-1.41797 0,-2.02031 -0.15058,-0.30117 -0.72998,0.18678 -1.01015,0 -0.79243,-0.52828 -1.34687,-1.34687 -2.0203,-2.0203 -0.67344,-0.67344 -1.59439,-1.16847 -2.02031,-2.02031 -0.30117,-0.60233 0.21296,-1.38142 0,-2.0203 -0.15058,-0.45176 -0.67343,-0.67344 -1.01015,-1.01015 -0.67344,-0.67344 -1.49202,-1.22788 -2.02031,-2.02031 -0.18677,-0.28016 0.2381,-0.77206 0,-1.01015 -0.23809,-0.2381 -0.77205,0.23809 -1.01015,0 -4.7108,-4.71081 -0.73509,-1.19513 -2.0203,-5.05076 -0.15059,-0.45176 -0.7972,-0.58424 -1.01016,-1.01016 -0.15058,-0.30117 0.2381,-0.77205 0,-1.01015 -0.23809,-0.23809 -0.77205,0.2381 -1.01015,0 -0.2381,-0.23809 0.18678,-0.72999 0,-1.01015 -4.5985,-4.5985 -0.53396,0.41842 -2.0203,-4.04061 -1.05101,-3.15301 -0.67344,0.33672 -2.02031,-1.01015 -0.47619,-0.4762 0.47619,-1.54412 0,-2.02031 -0.2381,-0.23809 -0.67344,0 -1.01015,0 0,-0.33672 0.23809,-0.77206 0,-1.01015 -0.2381,-0.2381 -0.77206,0.23809 -1.01016,0 -0.23809,-0.2381 0.2381,-0.77206 0,-1.01015 -0.23809,-0.2381 -0.77205,0.23809 -1.01015,0 -0.47619,-0.4762 0.47619,-1.54412 0,-2.02031 -1.34687,-1.34687 -1.01015,1.68359 -1.01015,-1.01015 0,-0.33672 0.30117,-0.85957 0,-1.01015 -0.60234,-0.30117 -1.38143,0.21295 -2.02031,0 -1.92791,-0.64264 -0.48831,-1.98678 -1.01015,-3.03046 -0.21296,-0.42592 -0.79719,-0.58424 -1.01015,-1.01016 -0.15059,-0.30116 0.23809,-0.77205 0,-1.01015 -0.2381,-0.23809 -0.77206,0.2381 -1.01015,0 -0.2381,-0.23809 0.15058,-0.70898 0,-1.01015 -0.21296,-0.42592 -0.7972,-0.58424 -1.01016,-1.01015 -0.15058,-0.30117 0.10648,-0.69072 0,-1.01016 -0.23809,-0.71428 -0.77205,-1.30601 -1.01015,-2.0203 -0.10648,-0.31944 0.18678,-0.72999 0,-1.01015 -0.52828,-0.79243 -1.59439,-1.16847 -2.0203,-2.02031 -0.30117,-0.60234 0.21296,-1.38143 0,-2.0203 -0.15059,-0.45176 -0.85957,-0.5584 -1.01016,-1.01016 -0.42591,-1.27775 0.60234,-2.83593 0,-4.04061 -0.85183,-1.70367 -3.18877,-2.33694 -4.04061,-4.04061 -0.30117,-0.60233 0.21296,-1.38142 0,-2.0203 -0.15058,-0.45176 -0.85956,-0.5584 -1.01015,-1.01015 -0.21296,-0.63888 0.30117,-1.41797 0,-2.02031 -0.42592,-0.85183 -1.59439,-1.16847 -2.0203,-2.0203 -0.30117,-0.60234 0.37355,-1.45998 0,-2.02031 -0.41765,-0.62647 -1.60266,-0.38368 -2.02031,-1.01015 -0.37355,-0.56033 0.30117,-1.41797 0,-2.02031 -0.42592,-0.85183 -1.59439,-1.16847 -2.0203,-2.0203 -0.30117,-0.60234 0,-1.34687 0,-2.02031 0,-0.33671 0.23809,-0.77205 0,-1.01015 -0.2381,-0.23809 -0.85957,0.30117 -1.01016,0 -0.42138,-0.84277 0.47034,-3.57027 0,-4.04061 -0.47619,-0.47619 -1.41796,0.30117 -2.0203,0 -0.30117,-0.15058 0.18678,-0.72999 0,-1.01015 -0.52829,-0.79243 -1.49202,-1.22788 -2.02031,-2.02031 -0.18677,-0.28016 0.10648,-0.69071 0,-1.01015 -0.23809,-0.71429 -0.82754,-1.28986 -1.01015,-2.0203 -0.16333,-0.65333 0.30117,-1.41797 0,-2.02031 -0.15058,-0.30117 -0.77206,0.2381 -1.01015,0 -0.47619,-0.47619 0.47619,-1.54411 0,-2.0203 -2.69374,0 0.33672,0.33671 -1.01015,-1.01016 -0.2381,-0.23809 -0.77206,0.2381 -1.01016,0 -0.36286,-0.36286 0.32676,-3.38709 0,-4.04061 -0.19983,-0.39966 -2.02552,0.50247 -3.03045,0 -0.60234,-0.30117 0.47619,-1.54411 0,-2.0203 -0.2381,-0.2381 -0.77206,0.23809 -1.01016,0 -0.23809,-0.2381 0.2381,-0.77206 0,-1.01016 -0.23809,-0.23809 -0.77205,0.2381 -1.01015,0 -0.47619,-0.47619 0.47619,-1.54411 0,-2.0203 -0.23809,-0.2381 -0.77206,0.23809 -1.01015,0 -0.2381,-0.2381 0.23809,-0.77206 0,-1.01015 -0.2381,-0.2381 -0.77206,0.23809 -1.01015,0 -0.2381,-0.2381 0.15058,-0.70899 0,-1.01016 -0.21296,-0.42591 -0.7972,-0.58423 -1.01016,-1.01015 -0.15058,-0.30117 0.2381,-0.77206 0,-1.01015 -0.23809,-0.2381 -0.77205,0.23809 -1.01015,0 -0.23809,-0.2381 0.2381,-0.77206 0,-1.01015 -0.23809,-0.2381 -0.77206,0.23809 -1.01015,0 -0.2381,-0.2381 0.23809,-0.77206 0,-1.01016 -0.2381,-0.23809 -0.77206,0.2381 -1.01015,0 -2.09005,-2.09004 3.19386,0.0817 -1.01016,-2.0203 -0.30117,-0.15059 -0.77205,0.23809 -1.01015,0 -0.23809,-0.2381 0.15058,-0.70898 0,-1.01015 -2.10201,-4.20402 0.0697,1.07989 -2.0203,-1.01016 -0.2381,-0.23809 0.15058,-0.70898 0,-1.01015 -2.10201,-4.20401 0.0697,1.07989 -2.02031,-1.01015 -0.2381,-0.2381 0.2381,-0.77206 0,-1.01015 -0.2381,-0.2381 -0.77206,0.23809 -1.01015,0 -0.2381,-0.2381 0.23809,-0.77206 0,-1.01016 -0.2381,-0.23809 -0.77206,0.2381 -1.01015,0 -0.2381,-0.23809 0,-0.67343 0,-1.01015 -0.33672,0 -0.70899,0.15059 -1.01016,0 -4.20401,-2.10201 1.07989,0.0697 -1.01015,-2.0203 -0.2381,-0.2381 -0.77206,0.23809 -1.01015,0 -0.2381,-0.2381 0.23809,-0.77206 0,-1.01016 -0.2381,-0.23809 -0.77206,0.2381 -1.01016,0 -0.23809,-0.23809 0.2381,-0.77205 0,-1.01015 -0.23809,-0.23809 -0.77205,0.2381 -1.01015,0 -0.23809,-0.23809 0.2381,-0.77206 0,-1.01015 -0.47619,-0.47619 -1.54411,0.47619 -2.0203,0 -0.2381,-0.2381 0.23809,-0.77206 0,-1.01015 -2.69374,0 0.33671,0.33671 -1.01016,-1.01016 -0.23809,-0.23809 -0.70898,0.15059 -1.01015,0 -0.42592,-0.21296 -0.58423,-0.79719 -1.01015,-1.01015 -0.30117,-0.15058 -0.77206,0.2381 -1.01015,0 -0.2381,-0.23809 0.23809,-0.77206 0,-1.01015 -0.47619,-0.47619 -1.54412,0.47619 -2.02031,0 -0.23809,-0.2381 0.2381,-0.77206 0,-1.01015 -0.50507,-0.50508 -2.52538,0.50507 -3.03046,0 -0.23809,-0.2381 0.2381,-0.77206 0,-1.01016 -0.47619,-0.47619 -1.54411,0.47619 -2.0203,0 -0.2381,-0.23809 0.23809,-0.77205 0,-1.01015 -0.47619,-0.47619 -1.41797,0.30117 -2.02031,0 -0.42591,-0.21296 -0.58423,-0.79719 -1.01015,-1.01015 -0.60234,-0.30117 -1.54411,0.47619 -2.0203,0 -0.2381,-0.2381 0.23809,-0.77206 0,-1.01015 -0.47619,-0.47619 -1.54412,0.47619 -2.02031,0 -0.23809,-0.2381 0.2381,-0.77206 0,-1.01016 -0.50507,-0.50507 -2.52538,0.50508 -3.03046,0 -0.23809,-0.23809 0.2381,-0.77205 0,-1.01015 -0.50507,-0.50508 -2.52538,0.50508 -3.03045,0 -0.2381,-0.23809 0.23809,-0.77206 0,-1.01015 -0.20652,-0.20651 -2.62994,0.20026 -3.03046,0 -0.42592,-0.21296 -0.58424,-0.7972 -1.01015,-1.01015 -0.40052,-0.20026 -2.82395,0.20651 -3.03046,0 -0.2381,-0.2381 0.23809,-0.77206 0,-1.01016 -0.47619,-0.47619 -1.54412,0.47619 -2.02031,0 -0.23809,-0.23809 0.2381,-0.77205 0,-1.01015 -0.50507,-0.50508 -2.52538,0.50508 -3.03045,0 -0.2381,-0.23809 0.23809,-0.77206 0,-1.01015 -0.47619,-0.47619 -1.54412,0.47619 -2.02031,0 -0.23809,-0.2381 0.2381,-0.77206 0,-1.01015 -0.20651,-0.20652 -2.62994,0.20025 -3.03046,0 -0.42591,-0.21296 -0.58423,-0.7972 -1.01015,-1.01016 -0.54799,-0.27399 -3.76421,0.2764 -4.04061,0 -0.2381,-0.23809 0.2381,-0.77205 0,-1.01015 -0.2381,-0.23809 -0.70898,0.15059 -1.01015,0 -0.42592,-0.21296 -0.58424,-0.79719 -1.01015,-1.01015 -0.30117,-0.15059 -0.77206,0.23809 -1.01016,0 -0.23809,-0.2381 0.2381,-0.77206 0,-1.01015 -0.47619,-0.4762 -1.41796,0.30116 -2.0203,0 -0.42592,-0.21296 -0.58424,-0.7972 -1.01016,-1.01016 -0.30116,-0.15058 -0.77205,0.2381 -1.01015,0 -0.23809,-0.23809 0.2381,-0.77205 0,-1.01015 -0.47619,-0.47619 -1.54411,0.47619 -2.0203,0 -0.2381,-0.2381 0,-0.67343 0,-1.01015 -0.33672,0 -0.77206,0.23809 -1.01016,0 -0.23809,-0.2381 0.2381,-0.77206 0,-1.01015 -0.24307,-0.24308 -3.79753,0.24307 -4.04061,0 -0.23809,-0.2381 0.2381,-0.77206 0,-1.01016 -0.47619,-0.47619 -1.41796,0.30117 -2.0203,0 -0.42592,-0.21296 -0.58424,-0.79719 -1.01015,-1.01015 -0.60234,-0.30117 -1.54412,0.47619 -2.02031,0 -0.23809,-0.2381 0.2381,-0.77206 0,-1.01015 -0.47619,-0.47619 -1.54411,0.47619 -2.0203,0 -0.2381,-0.2381 0.23809,-0.77206 0,-1.01016 -0.2764,-0.2764 -3.49262,0.274 -4.04061,0 -0.42592,-0.21295 -0.58424,-0.79719 -1.01016,-1.010148 -0.60233,-0.301169 -1.41796,0.301168 -2.0203,0 -0.42592,-0.212959 -0.58424,-0.797193 -1.01015,-1.010152 -0.69775,-0.348873 -4.69618,0.354583 -5.05077,0 -0.23809,-0.238095 0.2381,-0.772058 0,-1.010153 -0.23809,-0.238095 -0.67343,0 -1.01015,0 -2.0203,0 -4.04061,0 -6.06091,0 -0.33672,0 -0.77206,0.238095 -1.01016,0 -0.23809,-0.238095 0.2381,-0.772057 0,-1.010152 -0.23809,-0.238096 -0.67343,0 -1.01015,0 -0.33672,0 -0.67343,0 -1.01015,0 -5.05076,0 -10.10153,0 -15.15229,0 -0.33672,0 -0.67344,0 -1.01015,0 -0.33672,0 -0.77206,-0.238096 -1.01016,0 -0.23809,0.238095 0.2381,0.772057 0,1.010152 -0.47619,0.476191 -1.54411,-0.47619 -2.0203,0 -0.2381,0.238095 0.23809,0.772058 0,1.010153 -0.2381,0.238095 -0.67344,0 -1.01015,0 -2.02031,0 -4.04061,0 -6.06092,0 -0.33672,0 -0.67343,0 -1.01015,0 -0.33672,0 -0.77206,-0.238095 -1.01015,0 -0.2381,0.238095 0.23809,0.772057 0,1.010152 -0.47619,0.476188 -1.41797,-0.301169 -2.02031,0 -0.42592,0.212958 -0.58423,0.797198 -1.01015,1.010148 -0.40052,0.20026 -2.82395,-0.20651 -3.03046,0 -0.23809,0.2381 0.2381,0.77206 0,1.01016 -0.24307,0.24307 -3.79753,-0.24308 -4.04061,0 -0.23809,0.23809 0.2381,0.77205 0,1.01015 -0.47619,0.47619 -1.41797,-0.30117 -2.0203,0 -0.42592,0.21296 -0.58424,0.79719 -1.01016,1.01015 -0.60233,0.30117 -1.54411,-0.47619 -2.0203,0 -0.2381,0.2381 0.23809,0.77206 0,1.01016 -0.2381,0.23809 -0.70898,-0.15059 -1.01015,0 -3.35026,3.35025 0.95238,-0.4762 -2.02031,1.01015 -0.42592,0.21296 -0.58423,0.79719 -1.01015,1.01015 -0.80812,0.40406 -2.22234,-0.40406 -3.03046,0 -4.20401,2.10201 1.07989,-0.0697 -1.01015,2.02031 -0.50508,0.50507 -2.52538,-0.50508 -3.03046,0 -0.23809,0.23809 0.2381,0.77205 0,1.01015 -0.23809,0.23809 -0.70898,-0.15059 -1.01015,0 -0.42592,0.21296 -0.58424,0.79719 -1.01015,1.01015 -0.30117,0.15059 -0.70899,-0.15058 -1.01016,0 -0.42591,0.21296 -0.58423,0.79719 -1.01015,1.01015 -0.30117,0.15059 -0.77206,-0.23809 -1.01015,0 -0.2381,0.2381 0.23809,0.77206 0,1.01016 -0.2381,0.23809 -0.70899,-0.15059 -1.01015,0 -0.42592,0.21295 -0.58424,0.79719 -1.01016,1.01015 -0.30117,0.15058 -0.77205,-0.2381 -1.01015,0 -0.23809,0.23809 0.2381,0.77206 0,1.01015 -0.23809,0.2381 -0.70898,-0.15058 -1.01015,0 -0.42592,0.21296 -0.58424,0.79719 -1.01015,1.01015 -0.30117,0.15059 -0.77206,-0.23809 -1.01016,0 -0.23809,0.2381 0.2381,0.77206 0,1.01016 -0.23809,0.23809 -0.70898,-0.15059 -1.01015,0 -0.42592,0.21295 -0.58423,0.79719 -1.01015,1.01015 -0.30117,0.15058 -0.77206,-0.2381 -1.01015,0 -0.2381,0.23809 0.23809,0.77206 0,1.01015 -0.2381,0.2381 -0.77206,-0.23809 -1.01016,0 -0.53239,0.5324 -0.47775,1.48791 -1.01015,2.02031 -0.5324,0.53239 -1.41797,0.55839 -2.02031,1.01015 -0.7619,0.57143 -1.22787,1.49202 -2.0203,2.0203 -0.28017,0.18678 -0.69071,-0.10648 -1.01015,0 -0.71429,0.2381 -1.30602,0.77206 -2.02031,1.01016 -0.31944,0.10648 -0.85957,-0.30117 -1.01015,0 -0.30117,0.60233 0.47619,1.54411 0,2.0203 -0.47619,0.47619 -1.41797,-0.30117 -2.02031,0 -0.85183,0.42592 -1.34687,1.34687 -2.0203,2.02031 -0.33672,0.33671 -0.85957,0.55839 -1.01015,1.01015 -0.21296,0.63888 0.30117,1.41797 0,2.0203 -0.19983,0.39966 -2.02553,-0.50246 -3.03046,0 -0.30117,0.15059 0.23809,0.77206 0,1.01016 -0.2381,0.23809 -0.85957,-0.30117 -1.01015,0 -0.30117,0.60233 0.47619,1.54411 0,2.0203 -0.44126,3.55191 -2.88546,0.24005 -4.04061,1.01015 -5.02538,3.35026 -0.23212,0.46423 -2.02031,4.04061 -0.15058,0.30117 -0.67343,0 -1.01015,0 -0.67344,0 -1.38143,-0.21295 -2.02031,0 -2.64793,0.88265 0.63259,1.38772 -1.01015,3.03046 -0.47619,0.47619 -1.36698,-0.16333 -2.0203,0 -0.73045,0.18261 -1.30602,0.77206 -2.02031,1.01015 -0.31944,0.10648 -0.72999,-0.18677 -1.01015,0 -5.02538,3.35026 -0.23211,0.46423 -2.02031,4.04061 -0.15058,0.30117 -0.67343,0 -1.01015,0 -0.67343,0 -1.36698,-0.16333 -2.0203,0 -0.73045,0.18262 -1.30602,0.77206 -2.02031,1.01016 -2.18106,0.72702 -0.15398,-2.29442 -3.03046,2.0203 -0.18677,0.28017 0.2381,0.77206 0,1.01015 -0.23809,0.2381 -0.67343,0 -1.01015,0 -0.67343,0 -1.41797,-0.30116 -2.0203,0 -0.85184,0.42592 -1.22788,1.49202 -2.02031,2.02031 -0.28017,0.18678 -0.77206,-0.2381 -1.01015,0 -0.2381,0.2381 0,0.67343 0,1.01015 -0.67344,0.67344 -1.22788,1.49202 -2.02031,2.02031 -0.28016,0.18677 -0.77205,-0.2381 -1.01015,0 -0.2381,0.23809 0.30117,0.85957 0,1.01015 -1.00494,0.50247 -2.83063,-0.39966 -3.03046,0 -0.30117,0.60234 0.47619,1.54411 0,2.02031 -0.47619,0.47619 -1.54411,-0.4762 -2.0203,0 -0.47619,0.47619 0.30117,1.41796 0,2.0203 -0.15059,0.30117 -0.69072,-0.10648 -1.01016,0 -0.71428,0.2381 -1.30601,0.77206 -2.0203,1.01015 -0.31944,0.10648 -0.77206,-0.23809 -1.01015,0 -1.34687,1.34687 2.14285,0.9693 -1.01016,2.02031 -0.63887,0.21296 -1.41796,-0.30117 -2.0203,0 -0.30117,0.15058 0.23809,0.77206 0,1.01015 -0.2381,0.2381 -0.77206,-0.23809 -1.01015,0 -0.2381,0.2381 0.23809,0.77206 0,1.01015 -0.2381,0.2381 -0.77206,-0.23809 -1.01016,0 -0.53239,0.5324 -0.77205,1.30602 -1.01015,2.02031 -0.10648,0.31944 0.2381,0.77206 0,1.01015 -1.34687,1.34687 -0.9693,-2.14286 -2.0203,1.01015 -0.21296,0.63888 0.47619,1.54412 0,2.02031 -0.47619,0.47619 -1.38143,-0.21296 -2.02031,0 -0.76649,0.2555 -3.11222,3.57642 -4.04061,4.04061 -0.30117,0.15058 -0.77206,-0.2381 -1.01015,0 -0.2381,0.23809 0.18678,0.72998 0,1.01015 2.49266,3.05822 -2.74768,1.73753 -3.03046,2.02031 -0.23809,0.23809 0.18678,0.72998 0,1.01015 -0.52828,0.79243 -1.49202,1.22787 -2.0203,2.0203 -0.18678,0.28017 0.23809,0.77206 0,1.01016 -0.2381,0.23809 -0.67344,0 -1.01016,0 -0.67343,0.67343 -1.49202,1.22787 -2.0203,2.0203 -0.18678,0.28017 0.23809,0.77206 0,1.01015 -0.2381,0.2381 -0.67344,0 -1.01015,0 -0.67344,0.67344 -1.59439,1.16847 -2.02031,2.02031 -0.30117,0.60234 0.47619,1.54411 0,2.0203 -0.47619,0.47619 -1.41797,-0.30117 -2.0203,0 -0.30117,0.15059 0.10648,0.69072 0,1.01016 -0.2381,0.71428 -0.47776,1.4879 -1.01016,2.0203 -2.24478,2.24479 -2.13254,-0.56119 -3.03045,3.03046 -0.16334,0.65333 0.47619,1.54411 0,2.0203 -0.47619,0.47619 -1.41797,-0.30116 -2.02031,0 -0.30117,0.15059 0.30117,0.85957 0,1.01016 -0.60234,0.30117 -1.54411,-0.47619 -2.0203,0 -0.47619,0.47619 0.21295,1.38143 0,2.0203 -0.71671,2.15011 -1.6224,0.0714 -3.03046,1.01015 -2.32542,1.55029 -0.10312,2.22654 -1.01015,4.04061 -0.15059,0.30117 -0.77206,-0.23809 -1.01016,0 -0.23809,0.2381 0,0.67344 0,1.01016 -0.67343,0 -1.41796,-0.30117 -2.0203,0 -0.30117,0.15058 0.18678,0.72998 0,1.01015 -0.67344,0.67343 -1.34687,1.34687 -2.02031,2.0203 -0.33671,0 -0.77205,-0.23809 -1.01015,0 -0.2381,0.2381 0.15058,0.70899 0,1.01016 -0.21296,0.42592 -0.67343,0.67343 -1.01015,1.01015 -0.67344,0.67344 -1.2584,1.44888 -2.02031,2.02031 -0.60234,0.45175 -1.60266,0.38368 -2.0203,1.01015 -0.37356,0.56033 0.21296,1.38143 0,2.0203 -1.05101,3.15301 -0.67344,-0.33671 -2.02031,1.01016 -0.23809,0.23809 0.15059,0.70898 0,1.01015 -0.21296,0.42592 -0.79719,0.58423 -1.01015,1.01015 -0.15058,0.30117 0.18678,0.72999 0,1.01015 2.49266,3.05822 -2.74768,1.73753 -3.03046,2.02031 -0.23809,0.23809 0.30117,0.85957 0,1.01015 -0.60234,0.30117 -1.54411,-0.47619 -2.0203,0 -1.64274,1.64274 1.63778,2.14781 -1.01016,3.03046 -0.63887,0.21296 -1.54411,-0.47619 -2.0203,0 -0.76583,0.76583 1.04807,3.67861 -1.01015,5.05076 -0.56033,0.37356 -1.41797,-0.30117 -2.02031,0 -0.30117,0.15059 0.15059,0.70898 0,1.01015 -0.21296,0.42592 -0.79719,0.58424 -1.01015,1.01016 -0.15059,0.30117 0.23809,0.77205 0,1.01015 -0.2381,0.23809 -0.77206,-0.2381 -1.01015,0 -0.5324,0.5324 -0.77206,1.30602 -1.01016,2.0203 -0.10648,0.31944 0.2381,0.77206 0,1.01016 -0.23809,0.23809 -0.77205,-0.2381 -1.01015,0 -2.09004,2.09004 3.19386,-0.0817 -1.01015,2.0203 -0.30117,0.15059 -0.77206,-0.23809 -1.01015,0 -0.2381,0.2381 0.15058,0.70898 0,1.01015 -0.21296,0.42592 -0.7972,0.58424 -1.01016,1.01016 -0.15058,0.30117 0.2381,0.77205 0,1.01015 -0.23809,0.23809 -0.77205,-0.2381 -1.01015,0 -0.23809,0.23809 0.2381,0.77206 0,1.01015 -0.23809,0.2381 -0.77206,-0.23809 -1.01015,0 -0.2381,0.2381 0.23809,0.77206 0,1.01015 -0.2381,0.2381 -0.77206,-0.23809 -1.01015,0 -0.2381,0.2381 0.18677,0.72999 0,1.01016 -0.67344,0.67343 -1.34687,1.34687 -2.02031,2.0203 0,0.33672 0.15059,0.70898 0,1.01015 -0.21296,0.42592 -0.67343,0.67344 -1.01015,1.01016 -0.33672,0.33671 -0.58424,0.79719 -1.01015,1.01015 -0.30117,0.15058 -0.77206,-0.2381 -1.01016,0 -0.23809,0.23809 0.15059,0.70898 0,1.01015 -2.102,4.20401 0.0697,-1.07989 -2.0203,1.01015 -0.2381,0.2381 0.15058,0.70899 0,1.01016 -0.21296,0.42591 -0.74601,0.61393 -1.01015,1.01015 -0.41765,0.62647 -0.47776,1.48791 -1.01016,2.0203 -0.53239,0.5324 -1.4879,0.47776 -2.0203,1.01016 -0.2381,0.23809 0.23809,0.77205 0,1.01015 -0.2381,0.23809 -0.77206,-0.2381 -1.01015,0 -0.2381,0.23809 0.15058,0.70898 0,1.01015 -0.6061,1.21219 -2.42437,1.81828 -3.03046,3.03046 -0.30117,0.60234 0.30117,1.41797 0,2.0203 -0.15059,0.30117 -0.77206,-0.23809 -1.01015,0 -0.2381,0.2381 0.23809,0.77206 0,1.01016 -0.2381,0.23809 -0.67344,0 -1.01016,0 -0.67343,0.33671 -1.60266,0.38368 -2.0203,1.01015 -0.37356,0.56033 0.16333,1.36698 0,2.02031 -0.18261,0.73044 -0.77206,1.30601 -1.01015,2.0203 -0.10648,0.31944 0.30116,0.85957 0,1.01015 -0.60234,0.30117 -1.54412,-0.47619 -2.02031,0 -0.47619,0.47619 0.37355,1.45998 0,2.02031 -0.41765,0.62647 -1.30602,0.77206 -2.0203,1.01015 -0.31944,0.10648 -0.85957,-0.30117 -1.01016,0 -0.30117,0.60234 0.37356,1.45997 0,2.02031 -0.41764,0.62647 -1.60266,0.38368 -2.0203,1.01015 -0.37356,0.56033 0.30117,1.41796 0,2.0203 -0.15059,0.30117 -0.77206,-0.23809 -1.01015,0 -0.2381,0.2381 0.18677,0.72999 0,1.01016 -0.52829,0.79242 -1.44888,1.2584 -2.02031,2.0203 -0.45175,0.60234 -0.47776,1.48791 -1.01015,2.02031 -0.5324,0.53239 -1.30602,0.77205 -2.02031,1.01015 -0.31944,0.10648 -0.85957,-0.30117 -1.01015,0 -0.45175,0.90351 0.45175,2.12695 0,3.03046 -1.02151,2.04301 -2.34423,0.32393 -3.03046,1.01015 -0.47619,0.47619 0.47619,1.54411 0,2.0203 -0.23809,0.2381 -0.77206,-0.23809 -1.01015,0 -0.2381,0.2381 0.23809,0.77206 0,1.01016 -0.2381,0.23809 -0.77206,-0.2381 -1.01015,0 -0.2381,0.23809 0.15058,0.70898 0,1.01015 -0.21296,0.42592 -0.7972,0.58423 -1.01016,1.01015 -0.15058,0.30117 0.2381,0.77206 0,1.01015 -0.23809,0.2381 -0.69071,-0.10648 -1.01015,0 -0.71428,0.2381 -1.48791,0.47776 -2.0203,1.01016 -0.2381,0.23809 0.23809,0.77205 0,1.01015 -0.2381,0.23809 -0.77206,-0.2381 -1.01016,0 -0.67368,0.67368 0.67369,1.34662 0,2.0203 -0.23809,0.2381 -0.77205,-0.23809 -1.01015,0 -2.09004,2.09005 3.19386,-0.0817 -1.01015,2.02031 -2.54457,1.27228 0.87418,-3.83666 -3.03046,2.0203 -0.18678,0.28017 0.10648,0.69072 0,1.01016 -0.23809,0.71428 -0.77206,1.30602 -1.01015,2.0203 -0.25254,0.75762 0.50508,2.52538 0,3.03046 -0.47619,0.47619 -1.38143,-0.21296 -2.02031,0 -2.1501,0.7167 -0.0714,1.6224 -1.01015,3.03046 -0.41765,0.62647 -1.30602,0.77205 -2.0203,1.01015 -0.31944,0.10648 -0.85957,-0.30117 -1.01016,0 -0.30117,0.60234 0.37356,1.45997 0,2.0203 -0.41764,0.62647 -1.41796,0.5584 -2.0203,1.01016 -7.26601,5.4495 2.1318,-1.12166 -3.03046,4.04061 -0.5324,0.53239 -1.48791,0.47775 -2.0203,1.01015 0,2.69374 0.33671,-0.33672 -1.01016,1.01015 -0.23809,0.2381 0.2381,0.77206 0,1.01016 -0.23809,0.23809 -0.77205,-0.2381 -1.01015,0 -0.23809,0.23809 0.2381,0.77205 0,1.01015 -0.23809,0.23809 -0.77206,-0.2381 -1.01015,0 -0.47619,0.47619 0.47619,1.54411 0,2.0203 -0.2381,0.2381 -0.77206,-0.23809 -1.01015,0 -0.2381,0.2381 0.23809,0.77206 0,1.01016 -0.2381,0.23809 -0.70899,-0.15059 -1.01016,0 -0.42591,0.21295 -0.67343,0.67343 -1.01015,1.01015 -0.33672,0.33672 -0.79719,0.58423 -1.01015,1.01015 -0.15059,0.30117 0.23809,0.77206 0,1.01015 -0.2381,0.2381 -0.70899,-0.15058 -1.01015,0 -4.20402,2.10201 1.07988,-0.0697 -1.01016,2.02031 -0.23809,0.23809 -0.77205,-0.2381 -1.01015,0 -0.23809,0.23809 0.15059,0.70898 0,1.01015 -0.21296,0.42592 -0.79719,0.58424 -1.01015,1.01015 -0.15059,0.30117 0.15058,0.70899 0,1.01016 -2.10201,4.20401 0.0697,-1.07989 -2.02031,1.01015 -0.23809,0.23809 0.15059,0.70898 0,1.01015 -0.21296,0.42592 -0.79719,0.58424 -1.01015,1.01015 -0.15058,0.30117 0.2381,0.77206 0,1.01016 -0.23809,0.23809 -0.77206,-0.2381 -1.01015,0 -0.2381,0.23809 0.23809,0.77205 0,1.01015 -0.2381,0.23809 -0.77206,-0.2381 -1.01015,0 -0.2381,0.23809 0.10647,0.69071 0,1.01015 -0.2381,0.71429 -0.77206,1.30602 -1.01016,2.02031 -0.10648,0.31943 0.2381,0.77205 0,1.01015 -0.23809,0.23809 -0.77205,-0.2381 -1.01015,0 -0.2381,0.23809 0,0.67343 0,1.01015 -0.67343,0.67344 -1.22788,1.49202 -2.0203,2.02031 -0.28017,0.18677 -0.77206,-0.2381 -1.01016,0 -0.23809,0.23809 0,0.67343 0,1.01015 0,0.67343 0.47619,1.54411 0,2.0203 -0.47619,0.47619 -1.41796,-0.30117 -2.0203,0 -0.30117,0.15059 0.23809,0.77206 0,1.01016 -0.2381,0.23809 -0.77206,-0.2381 -1.01016,0 -0.23809,0.23809 0.2381,0.77205 0,1.01015 -0.23809,0.23809 -0.77205,-0.2381 -1.01015,0 -0.47619,0.47619 0.47619,1.54411 0,2.0203 -0.23809,0.2381 -0.77205,-0.23809 -1.01015,0 -0.2381,0.2381 0.2381,0.77206 0,1.01016 -0.2381,0.23809 -0.77206,-0.2381 -1.01015,0 -0.2381,0.23809 0.23809,0.77205 0,1.01015 -0.2381,0.23809 -0.77206,-0.2381 -1.01016,0 -0.47619,0.47619 0.4762,1.54411 0,2.0203 -0.23809,0.2381 -0.77205,-0.23809 -1.01015,0 -0.23809,0.2381 0.2381,0.77206 0,1.01016 -0.23809,0.23809 -0.77206,-0.2381 -1.01015,0 -0.2381,0.23809 0.23809,0.77205 0,1.01015 -0.2381,0.23809 -0.77206,-0.2381 -1.01015,0 -0.2381,0.23809 0.23809,0.77206 0,1.01015 -0.2381,0.2381 -0.77206,-0.23809 -1.01016,0 -0.23809,0.2381 0.2381,0.77206 0,1.01015 -0.23809,0.2381 -0.77205,-0.23809 -1.01015,0 -0.23809,0.2381 0.2381,0.77206 0,1.01016 -0.23809,0.23809 -0.67343,0 -1.01015,0 0,0.33671 0.15058,0.70898 0,1.01015 -2.10201,4.20401 0.0697,-1.07989 -2.02031,1.01015 -0.23809,0.2381 0.2381,0.77206 0,1.01015 -2.69374,0 0.33672,-0.33671 -1.01015,1.01016 -0.23809,0.23809 -0.77206,-0.2381 -1.01015,0 -2.09004,2.09004 3.19386,-0.0817 -1.01015,2.0203 -0.30117,0.15059 -0.77206,-0.23809 -1.01016,0 -1.34687,1.34687 2.14286,0.9693 -1.01015,2.02031 -2.30892,0.76964 -1.67675,-1.02041 -3.03046,1.01015 -0.33671,0.67343 -0.67343,1.34687 -1.01015,2.0203 0,0.67344 0.30117,1.41797 0,2.02031 -0.15058,0.30117 -0.69071,-0.10648 -1.01015,0 -0.71429,0.2381 -1.48791,0.47776 -2.02031,1.01015 -0.23809,0.2381 0.2381,0.77206 0,1.01016 -0.23809,0.23809 -0.77205,-0.2381 -1.01015,0 -0.23809,0.23809 0,0.67343 0,1.01015 -0.33672,0 -0.70898,-0.15059 -1.01015,0 -1.54713,0.77356 -0.78996,1.80011 -2.02031,3.03046 -0.36019,2.48145 -2.14449,0.41951 -3.03045,1.01015 -0.79243,0.52828 -1.34687,1.34687 -2.02031,2.0203 -0.33672,0.33672 -0.85957,0.5584 -1.01015,1.01016 -0.21296,0.63887 0.30117,1.41796 0,2.0203 -0.15059,0.30117 -0.69072,-0.10648 -1.01015,0 -0.71429,0.2381 -1.30602,0.77206 -2.02031,1.01015 -0.31944,0.10648 -0.85957,-0.30117 -1.01015,0 -0.30117,0.60234 0.47619,1.54412 0,2.02031 -0.47619,0.47619 -1.41797,-0.30117 -2.02031,0 -0.30117,0.15058 0.2381,0.77206 0,1.01015 -9.6e-4,9.6e-4 -3.02588,-0.002 -3.03045,0 -3.15301,1.051 0.33671,0.67344 -1.01016,2.02031 -0.47619,0.47619 -1.71913,-0.60234 -2.0203,0 -0.30117,0.60233 0.30117,1.41796 0,2.0203 -0.15059,0.30117 -0.70899,-0.15058 -1.01015,0 -4.20402,2.10201 1.07988,-0.0697 -1.01016,2.02031 -0.23809,0.23809 -0.70898,-0.15059 -1.01015,0 -0.42592,0.21295 -0.58423,0.79719 -1.01015,1.01015 -0.30117,0.15058 -0.70899,-0.15059 -1.01015,0 -4.20402,2.102 1.07988,-0.0697 -1.01016,2.0203 -0.23809,0.2381 -0.70898,-0.15058 -1.01015,0 -0.42592,0.21296 -0.58423,0.7972 -1.01015,1.01016 -0.30117,0.15058 -0.77206,-0.2381 -1.01016,0 -1.34687,1.34687 2.14286,0.9693 -1.01015,2.0203 -6.70051,0 1.42857,-0.47619 -3.03046,1.01015 -0.63887,0.21296 -1.45997,-0.37355 -2.0203,0 -0.62647,0.41765 -0.38368,1.60266 -1.01015,2.02031 -4.29166,2.86111 0.3212,-4.52241 -4.04061,2.0203 -0.18678,0.28017 0.30117,0.85957 0,1.01016 -0.60234,0.30117 -1.54412,-0.47619 -2.02031,0 -0.47619,0.47619 0.47619,1.54411 0,2.0203 -2.0203,2.02031 -1.51523,-1.01015 -3.03046,0 -0.79242,0.52829 -1.49202,1.22788 -2.0203,2.02031 -0.18678,0.28016 0.30117,0.85956 0,1.01015 -0.60234,0.30117 -1.34687,0 -2.02031,0 -0.33671,0 -0.72998,-0.18678 -1.01015,0 -6.70051,6.70051 1.90476,-0.95238 -4.04061,2.0203 -0.30117,0.15059 0.10648,0.69072 0,1.01016 -0.23809,0.71428 -0.38368,1.60266 -1.01015,2.0203 -0.94466,0.62977 -2.79037,-0.48018 -3.03046,0 -0.30117,0.60234 0.47619,1.54412 0,2.02031 -5.7242,0 -0.33672,-0.67344 -2.0203,1.01015 -0.50508,0.50508 -2.52539,-0.50508 -3.03046,0 -0.2381,0.23809 0.23809,0.77206 0,1.01015 -0.2381,0.2381 -0.77206,-0.23809 -1.01015,0 -0.2381,0.2381 0.23809,0.77206 0,1.01015 -0.47619,0.4762 -1.54412,-0.47619 -2.02031,0 -0.23809,0.2381 0.2381,0.77206 0,1.01016 -0.23809,0.23809 -0.70898,-0.15059 -1.01015,0 -0.85184,0.42591 -1.16847,1.59438 -2.02031,2.0203 -0.80812,0.40406 -2.22233,-0.40406 -3.03045,0 -0.42592,0.21296 -0.58424,0.7972 -1.01016,1.01015 -0.40051,0.20026 -2.82394,-0.20651 -3.03045,0 -0.2381,0.2381 0.23809,0.77206 0,1.01016 -0.2381,0.23809 -0.70899,-0.15059 -1.01016,0 -0.42592,0.21296 -0.58423,0.79719 -1.01015,1.01015 -0.44949,0.22475 -3.57858,-0.15401 -4.04061,0 -0.45175,0.15058 -0.5584,0.85957 -1.01015,1.01015 -0.63888,0.21296 -1.41797,-0.30117 -2.02031,0 -0.85183,0.42592 -1.22787,1.49202 -2.0203,2.02031 -0.49396,0.3293 -3.74665,-0.29396 -4.04061,0 -0.2381,0.23809 0,0.67343 0,1.01015 -0.67344,0.67344 -1.22788,1.49202 -2.02031,2.02031 -0.28016,0.18677 -0.67343,0 -1.01015,0 -0.67344,0 -1.45997,-0.37356 -2.02031,0 -0.62647,0.41764 -0.38368,1.60265 -1.01015,2.0203 -0.31945,0.21297 -3.44847,-0.19738 -4.04061,0 -4.45903,1.48634 3.67005,1.01015 -3.03046,1.01015 -0.67343,0 -1.54411,-0.47619 -2.0203,0 -0.47619,0.47619 0.30117,1.41797 0,2.02031 -0.0391,0.0781 -3.80594,-0.23467 -4.04061,0 -0.2381,0.23809 0.30117,0.85957 0,1.01015 -0.60234,0.30117 -1.34687,0 -2.02031,0 -0.33671,0 -0.72998,-0.18678 -1.01015,0 -0.79243,0.52829 -1.22788,1.49202 -2.0203,2.02031 -0.28017,0.18677 -0.69072,-0.10648 -1.01016,0 -0.71428,0.23809 -1.28986,0.82754 -2.0203,1.01015 -0.65333,0.16333 -1.34687,0 -2.02031,0 -0.33671,0 -0.85956,-0.30117 -1.01015,0 -0.30117,0.60234 0.47619,1.54411 0,2.0203 -0.47619,0.47619 -1.38143,-0.21296 -2.0203,0 -0.45176,0.15059 -0.5584,0.85957 -1.01016,1.01016 -0.63887,0.21295 -1.34687,0 -2.0203,0 -0.33672,0 -0.85957,-0.30117 -1.01015,0 -0.30117,0.60233 0.47619,1.54411 0,2.0203 -0.25066,0.25066 -4.58376,-0.2335 -5.05077,0 -0.30117,0.15059 0.2381,0.77206 0,1.01015 -0.23809,0.2381 -0.70898,-0.15058 -1.01015,0 -0.42592,0.21296 -0.58423,0.7972 -1.01015,1.01016 -0.64114,0.32057 -4.72327,-0.32749 -5.05077,0 -0.23809,0.23809 0.2381,0.77205 0,1.01015 -0.23809,0.23809 -0.77205,-0.2381 -1.01015,0 -0.23809,0.23809 0.2381,0.77206 0,1.01015 -0.24307,0.24308 -3.79753,-0.24307 -4.04061,0 -0.23809,0.2381 0.2381,0.77206 0,1.01015 -0.47619,0.47619 -1.54411,-0.47619 -2.0203,0 -0.2381,0.2381 0.23809,0.77206 0,1.01016 -0.47619,0.47619 -1.41797,-0.30117 -2.02031,0 -0.42592,0.21295 -0.58423,0.79719 -1.01015,1.01015 -0.60234,0.30117 -1.54412,-0.47619 -2.02031,0 -0.23809,0.23809 0.2381,0.77206 0,1.01015 -0.47619,0.47619 -1.54411,-0.47619 -2.0203,0 -0.2381,0.2381 0.23809,0.77206 0,1.01015 -0.24307,0.24308 -3.79754,-0.24307 -4.04061,0 -0.2381,0.2381 0.23809,0.77206 0,1.01016 -0.47619,0.47619 -1.54412,-0.47619 -2.02031,0 -0.23809,0.23809 0.2381,0.77205 0,1.01015 -0.35458,0.35458 -4.35301,-0.34887 -5.05076,0 -0.42592,0.21296 -0.58423,0.79719 -1.01015,1.01015 -0.60234,0.30117 -1.54412,-0.47619 -2.02031,0 -0.23809,0.2381 0.2381,0.77206 0,1.01015 -0.50507,0.50508 -2.52538,-0.50507 -3.03045,0 -0.2381,0.2381 0.23809,0.77206 0,1.01016 -0.20652,0.20651 -2.62994,-0.20026 -3.03046,0 -0.42592,0.21296 -0.58424,0.79719 -1.01015,1.01015 -0.80813,0.40406 -2.22234,-0.40406 -3.03046,0 -0.42592,0.21296 -0.58424,0.79719 -1.01015,1.01015 -0.60234,0.30117 -1.54412,-0.47619 -2.02031,0 -0.23809,0.2381 0.30117,0.85957 0,1.01015 -0.90351,0.45176 -2.12695,-0.45175 -3.03046,0 -0.42591,0.21296 -0.58423,0.7972 -1.01015,1.01016 -0.40052,0.20026 -2.82395,-0.20652 -3.03046,0 -0.23809,0.23809 0.2381,0.77205 0,1.01015 -0.2764,0.2764 -3.49261,-0.274 -4.04061,0 -0.42592,0.21296 -0.58423,0.79719 -1.01015,1.01015 -0.69775,0.34887 -4.69618,-0.35458 -5.05076,0 -0.2381,0.2381 0.23809,0.77206 0,1.01015 -0.2381,0.2381 -0.67344,0 -1.01016,0 -0.47628,0 -5.00498,-0.0458 -5.05076,0 -0.238093,0.2381 0.2381,0.77206 0,1.01016 -0.276398,0.2764 -3.492613,-0.274 -4.040608,0 -0.425918,0.21296 -0.584235,0.79719 -1.010153,1.01015 -0.535622,0.26781 -4.363555,-0.22907 -5.050762,0 -0.451754,0.15058 -0.584235,0.79719 -1.010153,1.01015 -0.634903,0.31745 -3.405707,-0.31745 -4.04061,0 -0.425918,0.21296 -0.584235,0.7972 -1.010153,1.01015 -0.547995,0.274 -3.76421,-0.2764 -4.04061,0 -0.238095,0.2381 0.238095,0.77206 0,1.01016 -0.312791,0.31279 -4.737972,-0.31279 -5.050763,0 -0.238095,0.23809 0.238096,0.77205 0,1.01015 -0.238095,0.23809 -0.673435,0 -1.010152,0 -1.683588,0 -3.367175,0 -5.050763,0 -0.336717,0 -0.772057,-0.2381 -1.010152,0 -0.238096,0.23809 0.238095,0.77206 0,1.01015 -0.243074,0.24308 -3.797537,-0.24307 -4.040611,0 -0.238095,0.2381 0.238096,0.77206 0,1.01015 -0.47619,0.4762 -1.417966,-0.30116 -2.020305,0 -0.425917,0.21296 -0.584235,0.7972 -1.010152,1.01016 -0.400518,0.20026 -2.823946,-0.20651 -3.030458,0 -0.238095,0.23809 0.238095,0.77205 0,1.01015 -0.312791,0.31279 -4.737972,-0.31279 -5.050763,0 -0.238095,0.2381 0.238096,0.77206 0,1.01015 -0.238095,0.2381 -0.673435,0 -1.010152,0 -1.683588,0 -3.367175,0 -5.050763,0 -0.336717,0 -0.772057,-0.23809 -1.010152,0 -0.238096,0.2381 0.238095,0.77206 0,1.01015 -0.238096,0.2381 -0.673435,0 -1.010153,0 -0.476285,0 -5.004981,-0.0458 -5.050763,0 -0.238095,0.2381 0.238096,0.77206 0,1.01016 -0.238095,0.23809 -0.673435,0 -1.010152,0 -1.683588,0 -3.367175,0 -5.050763,0 -0.336718,0 -0.772057,-0.2381 -1.010153,0 -0.238095,0.23809 0.238096,0.77205 0,1.01015 -0.2764,0.2764 -3.492615,-0.274 -4.04061,0 -0.425917,0.21296 -0.584235,0.79719 -1.010152,1.01015 -0.637275,0.31864 -4.413489,-0.31863 -5.050763,0 -0.425918,0.21296 -0.584235,0.7972 -1.010153,1.01016 -0.547995,0.27399 -3.76421,-0.2764 -4.04061,0 -0.238095,0.23809 0.238096,0.77205 0,1.01015 -0.312791,0.31279 -4.737972,-0.31279 -5.050762,0 -0.238096,0.23809 0.238095,0.77205 0,1.01015 -0.476191,0.47619 -1.417967,-0.30117 -2.020306,0 -0.4259173,0.21296 -0.5842344,0.79719 -1.0101521,1.01015 -0.5479952,0.274 -3.7642102,-0.2764 -4.0406102,0 -0.2380952,0.2381 0.2380953,0.77206 0,1.01016 -0.2380952,0.23809 -0.673435,0 -1.0101525,0 -0.3367175,0 -0.673435,0 -1.0101526,0 -2.69374008,0 -5.3874802,0 -8.0812203,0"
       id="path2985"
       style="fill:none;stroke:#000000;stroke-width:1px;stroke-linecap:butt;stroke-linejoin:miter;stroke-opacity:1" />
    <path
       d="M 350,8.0764678 347.14286,-300.49496"
       id="path2987"
       style="fill:none;stroke:#000000;stroke-width:1px;stroke-linecap:butt;stroke-linejoin:miter;stroke-opacity:1" />
    <path
       d="M 781.42857,8.0764678 778.57143,-300.49496"
       id="path2989"
       style="fill:none;stroke:#000000;stroke-width:1px;stroke-linecap:butt;stroke-linejoin:miter;stroke-opacity:1" />
    <path
       d="m 780.42327,-301.86725 -432.26988,2.85714"
       id="path2991"
       style="fill:none;stroke:#000000;stroke-width:1.18358552px;stroke-linecap:butt;stroke-linejoin:miter;stroke-opacity:1" />
    <path
       d="m 563.9042,-417.71929 0.76826,116.23275"
       id="path2993"
       style="fill:none;stroke:#000000;stroke-width:0.31825349px;stroke-linecap:butt;stroke-linejoin:miter;stroke-opacity:1" />
    <text
       x="517.71924"
       y="-430.48444"
       id="text3866"
       xml:space="preserve"
       style="font-size:40px;font-style:normal;font-weight:normal;line-height:125%;letter-spacing:0px;word-spacing:0px;fill:#000000;fill-opacity:1;stroke:none;font-family:Sans"><tspan
         x="517.71924"
         y="-430.48444"
         id="tspan3868"><tspan
           x="517.71924"
           y="-430.48444"
           id="tspan3870">LIFE</tspan></tspan></text>
    <text
       x="453.84503"
       y="308.69308"
       transform="matrix(0.92309336,-0.38457593,0.38457593,0.92309336,0,0)"
       id="text3003"
       xml:space="preserve"
       style="font-size:40px;font-style:normal;font-weight:normal;line-height:125%;letter-spacing:0px;word-spacing:0px;fill:#000000;fill-opacity:1;stroke:none;font-family:Sans"><tspan
         x="453.84503"
         y="308.69308"
         id="tspan3005">RAGE</tspan></text>
    <flowRoot
       transform="translate(-5.5507627,-459.6446)"
       id="flowRoot3007"
       xml:space="preserve"
       style="font-size:12px;font-style:normal;font-weight:normal;line-height:125%;letter-spacing:0px;word-spacing:0px;fill:#000000;fill-opacity:1;stroke:none;font-family:Sans"><flowRegion
         id="flowRegion3009"><rect
           width="337.39096"
           height="86.873116"
           x="22.223356"
           y="859.04395"
           id="rect3011"
           style="font-size:12px" /></flowRegion><flowPara
         id="flowPara3013"></flowPara></flowRoot>    <text
       x="-111.95019"
       y="437.00494"
       transform="matrix(0.96169164,-0.27413353,0.27413353,0.96169164,0,0)"
       id="text3015"
       xml:space="preserve"
       style="font-size:40px;font-style:normal;font-weight:normal;line-height:125%;letter-spacing:0px;word-spacing:0px;fill:#000000;fill-opacity:1;stroke:none;font-family:Sans"><tspan
         x="-111.95019"
         y="437.00494"
         id="tspan3017"
         style="font-size:12px">Typical disagreements among two humans</tspan></text>
    <text
       x="42.0807"
       y="814.09662"
       transform="matrix(0,-1,1,0,0,0)"
       id="text3854"
       xml:space="preserve"
       style="font-size:40px;font-style:normal;font-weight:normal;line-height:125%;letter-spacing:0px;word-spacing:0px;fill:#000000;fill-opacity:1;stroke:none;font-family:Sans"><tspan
         x="42.0807"
         y="814.09662"
         id="tspan3856"><tspan
           x="42.0807"
           y="814.09662"
           id="tspan3858"
           style="font-size:20px">Physical Abuse, which is</tspan><tspan
           x="285.04944"
           y="814.09662"
           dx="0"
           id="tspan3860"
           style="font-size:20px" /></tspan><tspan
         x="42.0807"
         y="839.09662"
         id="tspan3862"><tspan
           x="42.0807"
           y="839.09662"
           id="tspan3864"
           style="font-size:20px">obviously illegal</tspan></tspan></text>
    <rect
       width="866.71088"
       height="955.60431"
       x="-2.0203052"
       y="2.434572"
       transform="translate(-5.5507627,-459.6446)"
       id="rect3033"
       style="fill:none;stroke:#000000;stroke-opacity:1" />
    <text
       x="-11.61168"
       y="571.12537"
       id="text3803"
       xml:space="preserve"
       style="font-size:40px;font-style:normal;font-weight:normal;line-height:125%;letter-spacing:0px;word-spacing:0px;fill:#000000;fill-opacity:1;stroke:none;font-family:Sans"><tspan
         x="-11.61168"
         y="571.12537"
         id="tspan3805">It is not MY dad's fault, it is THE dad's fault.</tspan></text>
    <flowRoot
       transform="translate(-5.5507627,-459.6446)"
       id="flowRoot3807"
       xml:space="preserve"
       style="font-size:40px;font-style:normal;font-weight:normal;line-height:125%;letter-spacing:0px;word-spacing:0px;fill:#000000;fill-opacity:1;stroke:none;font-family:Sans"><flowRegion
         id="flowRegion3809"><rect
           width="54.548237"
           height="212.13203"
           x="-62.629459"
           y="1028.7495"
           id="rect3811" /></flowRegion><flowPara
         id="flowPara3813"></flowPara></flowRoot>    <text
       x="4.0406103"
       y="1246.9425"
       transform="translate(-5.5507627,-459.6446)"
       id="text3815"
       xml:space="preserve"
       style="font-size:40px;font-style:normal;font-weight:normal;line-height:125%;letter-spacing:0px;word-spacing:0px;fill:#000000;fill-opacity:1;stroke:none;font-family:Sans"><tspan
         x="4.0406103"
         y="1246.9425"
         id="tspan3817">However, I definitely need to move the fuck out.</tspan><tspan
         x="4.0406103"
         y="1296.9425"
         id="tspan3819">Need is not like a want need but an actual fucking need. I have deduced it.</tspan><tspan
         x="4.0406103"
         y="1346.9425"
         id="tspan3821">I can't (am not allowed to) argue with him because he rages 100% of the time and &quot;kicks me out&quot;. I'd go if I could without fucking dying.</tspan><tspan
         x="4.0406103"
         y="1396.9425"
         id="tspan3823">This has been a shit launch because I am holding back because money. I am a fucking pussy. I am a fucking pussy for not wanting to be a slave and work. lol wut?</tspan><tspan
         x="4.0406103"
         y="1446.9425"
         id="tspan3825" /><tspan
         x="4.0406103"
         y="1496.9425"
         id="tspan3827">&quot;Work to survive&quot; is slavery.</tspan><tspan
         x="4.0406103"
         y="1546.9425"
         id="tspan3829" /><tspan
         x="4.0406103"
         y="1596.9425"
         id="tspan3831">Nobody is guilty because we have to bootstrap out of it as a species that evolves from a big bang and (had this without the &quot;and&quot; earlier) out of randomness and infinite time.</tspan><tspan
         x="4.0406103"
         y="1646.9425"
         id="tspan3833">It is extremely difficult to pursuade those who have benefited from the system (US &quot;Free Market&quot; (where everything seems better in the advertisements, but everyone is necessarily (else death) taking part in a mass distributed innovate+con ... beneficial to no-one in the long run (but definitely benecficial at first)... slavery (where everyone takes advantage of everyone (in the BEST case scenario (which we are certainly not in))))) to agree to do the bootstrap.</tspan></text>
  </g>
</svg>
