<?xml version="1.0" encoding="UTF-8" standalone="no"?>
<!-- Created with Inkscape (http://www.inkscape.org/) -->

<svg
   xmlns:dc="http://purl.org/dc/elements/1.1/"
   xmlns:cc="http://creativecommons.org/ns#"
   xmlns:rdf="http://www.w3.org/1999/02/22-rdf-syntax-ns#"
   xmlns:svg="http://www.w3.org/2000/svg"
   xmlns="http://www.w3.org/2000/svg"
   xmlns:sodipodi="http://sodipodi.sourceforge.net/DTD/sodipodi-0.dtd"
   xmlns:inkscape="http://www.inkscape.org/namespaces/inkscape"
   width="744.09003"
   height="1052.36"
   id="svg2"
   version="1.1"
   inkscape:version="0.47 r22583"
   sodipodi:docname="New document 1">
  <defs
     id="defs4" />
  <sodipodi:namedview
     id="base"
     pagecolor="#ffffff"
     bordercolor="#666666"
     borderopacity="1.0"
     inkscape:pageopacity="0.0"
     inkscape:pageshadow="2"
     inkscape:zoom="0.98994949"
     inkscape:cx="347.5037"
     inkscape:cy="798.6304"
     inkscape:document-units="px"
     inkscape:current-layer="layer1"
     showgrid="false"
     inkscape:window-width="1440"
     inkscape:window-height="848"
     inkscape:window-x="0"
     inkscape:window-y="0"
     inkscape:window-maximized="1" />
  <metadata
     id="metadata7">
    <rdf:RDF>
      <cc:Work
         rdf:about="">
        <dc:format>image/svg+xml</dc:format>
        <dc:type
           rdf:resource="http://purl.org/dc/dcmitype/StillImage" />
        <dc:title></dc:title>
      </cc:Work>
    </rdf:RDF>
  </metadata>
  <g
     inkscape:label="Layer 1"
     inkscape:groupmode="layer"
     id="layer1"
     transform="translate(0,-0.00217)">
    <path
       style="fill:none;stroke:#000000;stroke-width:1px;stroke-linecap:butt;stroke-linejoin:miter;stroke-opacity:1"
       d="m 375.77675,529.10317 c 0,-109.09648 -24.24366,-71.72084 -21.21321,-116.16755 3.03046,-44.44671 35.35534,-31.31473 34.34519,-127.27922 -1.01015,-95.96449 -59.599,-72.73098 -46.46702,-145.46196 13.13199,-72.730989 9.09138,-57.578701 9.09138,-57.578701"
       id="path2818" />
    <path
       sodipodi:type="arc"
       style="fill:#ffb380;fill-opacity:1;stroke:none"
       id="path2820"
       sodipodi:cx="134.85536"
       sodipodi:cy="483.14124"
       sodipodi:rx="71.215752"
       sodipodi:ry="13.637059"
       d="m 206.07111,483.14124 c 0,7.53154 -31.88437,13.63705 -71.21575,13.63705 -39.331372,0 -71.21575,-6.10551 -71.21575,-13.63705 0,-7.53154 31.884378,-13.63706 71.21575,-13.63706 39.33138,0 71.21575,6.10552 71.21575,13.63706 z"
       transform="translate(146.47212,-63.63961)" />
    <path
       style="fill:none;stroke:#000000;stroke-width:1px;stroke-linecap:butt;stroke-linejoin:miter;stroke-opacity:1"
       d="m 329.30973,409.90516 c 0,20.20306 4.04061,18.18275 4.04061,18.18275"
       id="path3594" />
    <path
       style="fill:none;stroke:#000000;stroke-width:1px;stroke-linecap:butt;stroke-linejoin:miter;stroke-opacity:1"
       d="m 342.44171,418.99654 1.01016,0"
       id="path3596" />
    <path
       sodipodi:type="arc"
       style="fill:#ffb380;fill-opacity:1;stroke:none"
       id="path3598"
       sodipodi:cx="70.710678"
       sodipodi:cy="504.8595"
       sodipodi:rx="15.152288"
       sodipodi:ry="15.152288"
       d="m 85.862967,504.8595 c 0,8.36837 -6.783911,15.15229 -15.152289,15.15229 -8.368378,0 -15.152288,-6.78392 -15.152288,-15.15229 0,-8.36838 6.78391,-15.15229 15.152288,-15.15229 8.368378,0 15.152289,6.78391 15.152289,15.15229 z"
       transform="translate(146.47212,-76.771591)" />
    <path
       d="m 85.862967,504.8595 c 0,8.36837 -6.783911,15.15229 -15.152289,15.15229 -8.368378,0 -15.152288,-6.78392 -15.152288,-15.15229 0,-8.36838 6.78391,-15.15229 15.152288,-15.15229 8.368378,0 15.152289,6.78391 15.152289,15.15229 z"
       sodipodi:ry="15.152288"
       sodipodi:rx="15.152288"
       sodipodi:cy="504.8595"
       sodipodi:cx="70.710678"
       id="path3600"
       style="fill:#ffb380;fill-opacity:1;stroke:none"
       sodipodi:type="arc"
       transform="translate(146.47212,-100.0051)" />
    <text
       xml:space="preserve"
       style="font-size:32px;font-style:normal;font-weight:normal;fill:#000000;fill-opacity:1;stroke:none;font-family:Bitstream Vera Sans"
       x="327.28943"
       y="40.189331"
       id="text3602"><tspan
         sodipodi:role="line"
         id="tspan3604"
         x="327.28943"
         y="40.189331">DPL</tspan></text>
    <text
       xml:space="preserve"
       style="font-size:10px;font-style:normal;font-weight:normal;fill:#000000;fill-opacity:1;stroke:none;font-family:Bitstream Vera Sans"
       x="212.13203"
       y="424.0473"
       id="text3606"><tspan
         sodipodi:role="line"
         id="tspan3608"
         x="212.13203"
         y="424.0473">Private Security Audits</tspan></text>
    <path
       transform="translate(134.35029,-316.17775)"
       d="m 206.07111,483.14124 c 0,7.53154 -31.88437,13.63705 -71.21575,13.63705 -39.331372,0 -71.21575,-6.10551 -71.21575,-13.63705 0,-7.53154 31.884378,-13.63706 71.21575,-13.63706 39.33138,0 71.21575,6.10552 71.21575,13.63706 z"
       sodipodi:ry="13.637059"
       sodipodi:rx="71.215752"
       sodipodi:cy="483.14124"
       sodipodi:cx="134.85536"
       id="path3622"
       style="fill:#ffb380;fill-opacity:1;stroke:none"
       sodipodi:type="arc" />
    <path
       id="path3624"
       d="m 317.1879,157.36702 c 0,20.20306 4.04061,18.18275 4.04061,18.18275"
       style="fill:none;stroke:#000000;stroke-width:1px;stroke-linecap:butt;stroke-linejoin:miter;stroke-opacity:1" />
    <path
       id="path3626"
       d="m 330.31988,166.4584 1.01016,0"
       style="fill:none;stroke:#000000;stroke-width:1px;stroke-linecap:butt;stroke-linejoin:miter;stroke-opacity:1" />
    <path
       transform="translate(134.35029,-329.30973)"
       d="m 85.862967,504.8595 c 0,8.36837 -6.783911,15.15229 -15.152289,15.15229 -8.368378,0 -15.152288,-6.78392 -15.152288,-15.15229 0,-8.36838 6.78391,-15.15229 15.152288,-15.15229 8.368378,0 15.152289,6.78391 15.152289,15.15229 z"
       sodipodi:ry="15.152288"
       sodipodi:rx="15.152288"
       sodipodi:cy="504.8595"
       sodipodi:cx="70.710678"
       id="path3628"
       style="fill:#ffb380;fill-opacity:1;stroke:none"
       sodipodi:type="arc" />
    <path
       transform="translate(134.35029,-352.54324)"
       sodipodi:type="arc"
       style="fill:#ffb380;fill-opacity:1;stroke:none"
       id="path3630"
       sodipodi:cx="70.710678"
       sodipodi:cy="504.8595"
       sodipodi:rx="15.152288"
       sodipodi:ry="15.152288"
       d="m 85.862967,504.8595 c 0,8.36837 -6.783911,15.15229 -15.152289,15.15229 -8.368378,0 -15.152288,-6.78392 -15.152288,-15.15229 0,-8.36838 6.78391,-15.15229 15.152288,-15.15229 8.368378,0 15.152289,6.78391 15.152289,15.15229 z" />
    <text
       id="text3632"
       y="170.49902"
       x="206.07112"
       style="font-size:10px;font-style:normal;font-weight:normal;fill:#000000;fill-opacity:1;stroke:none;font-family:Bitstream Vera Sans"
       xml:space="preserve"><tspan
         y="170.49902"
         x="206.07112"
         id="tspan3634"
         sodipodi:role="line">Maintenance Patches</tspan></text>
    <path
       sodipodi:type="arc"
       style="fill:#ffb380;fill-opacity:1;stroke:none"
       id="path3636"
       sodipodi:cx="134.85536"
       sodipodi:cy="483.14124"
       sodipodi:rx="71.215752"
       sodipodi:ry="13.637059"
       d="m 206.07111,483.14124 c 0,7.53154 -31.88437,13.63705 -71.21575,13.63705 -39.331372,0 -71.21575,-6.10551 -71.21575,-13.63705 0,-7.53154 31.884378,-13.63706 71.21575,-13.63706 39.33138,0 71.21575,6.10552 71.21575,13.63706 z"
       transform="matrix(-1,0,0,1,595.98999,-182.83761)" />
    <path
       style="fill:none;stroke:#000000;stroke-width:1px;stroke-linecap:butt;stroke-linejoin:miter;stroke-opacity:1"
       d="m 413.15238,290.70716 c 0,20.20306 -4.04061,18.18275 -4.04061,18.18275"
       id="path3638" />
    <path
       style="fill:none;stroke:#000000;stroke-width:1px;stroke-linecap:butt;stroke-linejoin:miter;stroke-opacity:1"
       d="m 400.0204,299.79854 -1.01016,0"
       id="path3640" />
    <path
       sodipodi:type="arc"
       style="fill:#ffb380;fill-opacity:1;stroke:none"
       id="path3642"
       sodipodi:cx="70.710678"
       sodipodi:cy="504.8595"
       sodipodi:rx="15.152288"
       sodipodi:ry="15.152288"
       d="m 85.862967,504.8595 c 0,8.36837 -6.783911,15.15229 -15.152289,15.15229 -8.368378,0 -15.152288,-6.78392 -15.152288,-15.15229 0,-8.36838 6.78391,-15.15229 15.152288,-15.15229 8.368378,0 15.152289,6.78391 15.152289,15.15229 z"
       transform="matrix(-1,0,0,1,595.98999,-195.96959)" />
    <path
       d="m 85.862967,504.8595 c 0,8.36837 -6.783911,15.15229 -15.152289,15.15229 -8.368378,0 -15.152288,-6.78392 -15.152288,-15.15229 0,-8.36838 6.78391,-15.15229 15.152288,-15.15229 8.368378,0 15.152289,6.78391 15.152289,15.15229 z"
       sodipodi:ry="15.152288"
       sodipodi:rx="15.152288"
       sodipodi:cy="504.8595"
       sodipodi:cx="70.710678"
       id="path3644"
       style="fill:#ffb380;fill-opacity:1;stroke:none"
       sodipodi:type="arc"
       transform="matrix(-1,0,0,1,595.98999,-219.2031)" />
    <path
       transform="matrix(-1,0,0,1,581.84785,20.203052)"
       d="m 206.07111,483.14124 c 0,7.53154 -31.88437,13.63705 -71.21575,13.63705 -39.331372,0 -71.21575,-6.10551 -71.21575,-13.63705 0,-7.53154 31.884378,-13.63706 71.21575,-13.63706 39.33138,0 71.21575,6.10552 71.21575,13.63706 z"
       sodipodi:ry="13.637059"
       sodipodi:rx="71.215752"
       sodipodi:cy="483.14124"
       sodipodi:cx="134.85536"
       id="path3650"
       style="fill:#ffb380;fill-opacity:1;stroke:none"
       sodipodi:type="arc" />
    <path
       id="path3652"
       d="m 399.01024,493.74782 c 0,20.20306 -4.04061,18.18275 -4.04061,18.18275"
       style="fill:none;stroke:#000000;stroke-width:1px;stroke-linecap:butt;stroke-linejoin:miter;stroke-opacity:1" />
    <path
       id="path3654"
       d="m 385.87826,502.8392 -1.01016,0"
       style="fill:none;stroke:#000000;stroke-width:1px;stroke-linecap:butt;stroke-linejoin:miter;stroke-opacity:1" />
    <path
       transform="matrix(-1,0,0,1,581.84785,7.0710716)"
       d="m 85.862967,504.8595 c 0,8.36837 -6.783911,15.15229 -15.152289,15.15229 -8.368378,0 -15.152288,-6.78392 -15.152288,-15.15229 0,-8.36838 6.78391,-15.15229 15.152288,-15.15229 8.368378,0 15.152289,6.78391 15.152289,15.15229 z"
       sodipodi:ry="15.152288"
       sodipodi:rx="15.152288"
       sodipodi:cy="504.8595"
       sodipodi:cx="70.710678"
       id="path3656"
       style="fill:#ffb380;fill-opacity:1;stroke:none"
       sodipodi:type="arc" />
    <path
       transform="matrix(-1,0,0,1,581.84785,-16.162438)"
       sodipodi:type="arc"
       style="fill:#ffb380;fill-opacity:1;stroke:none"
       id="path3658"
       sodipodi:cx="70.710678"
       sodipodi:cy="504.8595"
       sodipodi:rx="15.152288"
       sodipodi:ry="15.152288"
       d="m 85.862967,504.8595 c 0,8.36837 -6.783911,15.15229 -15.152289,15.15229 -8.368378,0 -15.152288,-6.78392 -15.152288,-15.15229 0,-8.36838 6.78391,-15.15229 15.152288,-15.15229 8.368378,0 15.152289,6.78391 15.152289,15.15229 z" />
    <text
       xml:space="preserve"
       style="font-size:11px;font-style:normal;font-weight:normal;fill:#000000;fill-opacity:1;stroke:none;font-family:Bitstream Vera Sans"
       x="404.06104"
       y="506.87979"
       id="text3660"><tspan
         sodipodi:role="line"
         id="tspan3662"
         x="404.06104"
         y="506.87979">Initial Libre Creation</tspan></text>
    <text
       xml:space="preserve"
       style="font-size:12px;font-style:normal;font-weight:normal;fill:#000000;fill-opacity:1;stroke:none;font-family:Bitstream Vera Sans"
       x="420.22348"
       y="303.83914"
       id="text3664"><tspan
         sodipodi:role="line"
         id="tspan3666"
         x="420.22348"
         y="303.83914">Continual Growth</tspan></text>
    <text
       xml:space="preserve"
       style="font-size:20px;font-style:normal;font-weight:normal;fill:#000000;fill-opacity:1;stroke:none;font-family:Bitstream Vera Sans"
       x="108.08633"
       y="89.686806"
       id="text3668"><tspan
         sodipodi:role="line"
         id="tspan3670"
         x="108.08633"
         y="89.686806">Proprietors</tspan><tspan
         sodipodi:role="line"
         x="108.08633"
         y="114.68681"
         id="tspan3676">(faggots)</tspan></text>
    <text
       xml:space="preserve"
       style="font-size:20px;font-style:normal;font-weight:normal;fill:#000000;fill-opacity:1;stroke:none;font-family:Bitstream Vera Sans"
       x="465.68033"
       y="92.717262"
       id="text3672"><tspan
         sodipodi:role="line"
         id="tspan3674"
         x="465.68033"
         y="92.717262">Free Culture Hackers</tspan><tspan
         sodipodi:role="line"
         x="465.68033"
         y="117.71726"
         id="tspan3678">(gods)</tspan></text>
    <text
       id="text3680"
       y="617.99658"
       x="273.75134"
       style="font-size:32px;font-style:normal;font-weight:normal;fill:#000000;fill-opacity:1;stroke:none;font-family:Bitstream Vera Sans"
       xml:space="preserve"><tspan
         y="617.99658"
         x="273.75134"
         id="tspan3682"
         sodipodi:role="line">Proprietary</tspan></text>
    <text
       id="text3684"
       y="659.41284"
       x="108.08633"
       style="font-size:20px;font-style:normal;font-weight:normal;fill:#000000;fill-opacity:1;stroke:none;font-family:Bitstream Vera Sans"
       xml:space="preserve"><tspan
         y="659.41284"
         x="108.08633"
         id="tspan3686"
         sodipodi:role="line">Proprietors</tspan><tspan
         id="tspan3688"
         y="684.41284"
         x="108.08633"
         sodipodi:role="line">(faggots)</tspan></text>
    <text
       id="text3690"
       y="662.4433"
       x="465.68033"
       style="font-size:20px;font-style:normal;font-weight:normal;fill:#000000;fill-opacity:1;stroke:none;font-family:Bitstream Vera Sans"
       xml:space="preserve"><tspan
         y="662.4433"
         x="465.68033"
         id="tspan3692"
         sodipodi:role="line">Free Culture Hackers</tspan><tspan
         id="tspan3694"
         y="687.4433"
         x="465.68033"
         sodipodi:role="line">(gods)</tspan></text>
    <path
       style="fill:none;stroke:#000000;stroke-width:1px;stroke-linecap:butt;stroke-linejoin:miter;stroke-opacity:1"
       d="M 363.65492,819.01694 C 316.17775,751.33672 269.71073,754.36718 269.71073,754.36718"
       id="path3696" />
    <path
       transform="matrix(0.88804179,-0.45976274,0.45976274,0.88804179,-76.791726,448.25659)"
       d="m 206.07111,483.14124 c 0,7.53154 -31.88437,13.63705 -71.21575,13.63705 -39.331372,0 -71.21575,-6.10551 -71.21575,-13.63705 0,-7.53154 31.884378,-13.63706 71.21575,-13.63706 39.33138,0 71.21575,6.10552 71.21575,13.63706 z"
       sodipodi:ry="13.637059"
       sodipodi:rx="71.215752"
       sodipodi:cy="483.14124"
       sodipodi:cx="134.85536"
       id="path3698"
       style="fill:#ffb380;fill-opacity:1;stroke:none"
       sodipodi:type="arc" />
    <path
       id="path3700"
       d="m 303.29396,784.72221 c 9.28861,17.94117 11.94798,14.28932 11.94798,14.28932"
       style="fill:none;stroke:#000000;stroke-width:1px;stroke-linecap:butt;stroke-linejoin:miter;stroke-opacity:1" />
    <path
       id="path3702"
       d="m 319.13558,786.75814 0.89707,-0.46443"
       style="fill:none;stroke:#000000;stroke-width:1px;stroke-linecap:butt;stroke-linejoin:miter;stroke-opacity:1" />
    <path
       transform="matrix(0.88804179,-0.45976274,0.45976274,0.88804179,-82.829325,436.59483)"
       d="m 85.862967,504.8595 c 0,8.36837 -6.783911,15.15229 -15.152289,15.15229 -8.368378,0 -15.152288,-6.78392 -15.152288,-15.15229 0,-8.36838 6.78391,-15.15229 15.152288,-15.15229 8.368378,0 15.152289,6.78391 15.152289,15.15229 z"
       sodipodi:ry="15.152288"
       sodipodi:rx="15.152288"
       sodipodi:cy="504.8595"
       sodipodi:cx="70.710678"
       id="path3704"
       style="fill:#ffb380;fill-opacity:1;stroke:none"
       sodipodi:type="arc" />
    <path
       transform="matrix(0.88804179,-0.45976274,0.45976274,0.88804179,-93.511223,415.96251)"
       sodipodi:type="arc"
       style="fill:#ffb380;fill-opacity:1;stroke:none"
       id="path3706"
       sodipodi:cx="70.710678"
       sodipodi:cy="504.8595"
       sodipodi:rx="15.152288"
       sodipodi:ry="15.152288"
       d="m 85.862967,504.8595 c 0,8.36837 -6.783911,15.15229 -15.152289,15.15229 -8.368378,0 -15.152288,-6.78392 -15.152288,-15.15229 0,-8.36838 6.78391,-15.15229 15.152288,-15.15229 8.368378,0 15.152289,6.78391 15.152289,15.15229 z" />
    <text
       id="text3708"
       y="850.57867"
       x="-199.59184"
       style="font-size:14px;font-style:normal;font-weight:normal;fill:#000000;fill-opacity:1;stroke:none;font-family:Bitstream Vera Sans"
       xml:space="preserve"
       transform="matrix(0.88804179,-0.45976274,0.45976274,0.88804179,0,0)"><tspan
         y="850.57867"
         x="-199.59184"
         id="tspan3710"
         sodipodi:role="line">Initial Creation</tspan></text>
    <text
       xml:space="preserve"
       style="font-size:13px;font-style:normal;font-weight:normal;fill:#000000;fill-opacity:1;stroke:none;font-family:Bitstream Vera Sans"
       x="236.3757"
       y="752.34686"
       id="text3712"><tspan
         sodipodi:role="line"
         id="tspan3714"
         x="236.3757"
         y="752.34686">hdd-death</tspan></text>
    <text
       xml:space="preserve"
       style="font-size:32px;font-style:normal;font-weight:normal;fill:#000000;fill-opacity:1;stroke:none;font-family:Bitstream Vera Sans"
       x="273.75134"
       y="964.47888"
       id="text3716"><tspan
         sodipodi:role="line"
         id="tspan3718"
         x="273.75134"
         y="964.47888">LGPL/MPL</tspan></text>
    <text
       xml:space="preserve"
       style="font-size:20px;font-style:normal;font-weight:normal;fill:#000000;fill-opacity:1;stroke:none;font-family:Bitstream Vera Sans"
       x="108.08633"
       y="1005.8951"
       id="text3720"><tspan
         sodipodi:role="line"
         id="tspan3722"
         x="108.08633"
         y="1005.8951">Proprietors</tspan><tspan
         sodipodi:role="line"
         x="108.08633"
         y="1030.895"
         id="tspan3724">(faggots)</tspan></text>
    <text
       xml:space="preserve"
       style="font-size:20px;font-style:normal;font-weight:normal;fill:#000000;fill-opacity:1;stroke:none;font-family:Bitstream Vera Sans"
       x="465.68033"
       y="1008.9256"
       id="text3726"><tspan
         sodipodi:role="line"
         id="tspan3728"
         x="465.68033"
         y="1008.9256">Free Culture Hackers</tspan><tspan
         sodipodi:role="line"
         x="465.68033"
         y="1033.9255"
         id="tspan3730">(gods)</tspan></text>
    <path
       style="fill:none;stroke:#000000;stroke-width:1px;stroke-linecap:butt;stroke-linejoin:miter;stroke-opacity:1"
       d="m 340.42141,1492.7865 c 4.04061,-334.3605 28.28427,-408.1016 28.28427,-408.1016"
       id="path3732"
       transform="translate(0,0.00217)" />
    <path
       style="fill:none;stroke:#000000;stroke-width:1;stroke-linecap:butt;stroke-linejoin:miter;stroke-opacity:1;fill-opacity:1;stroke-miterlimit:4;stroke-dasharray:4,4;stroke-dashoffset:0"
       d="m 340.42141,1438.2404 c 36.36549,-78.7919 56.56854,-77.7817 56.56854,-77.7817"
       id="path3734" />
    <path
       style="fill:none;stroke:#000000;stroke-width:1;stroke-linecap:butt;stroke-linejoin:miter;stroke-opacity:1;stroke-miterlimit:4;stroke-dasharray:4,4;stroke-dashoffset:0"
       d="m 344.46202,1311.9692 c 37.37564,-139.4011 134.35029,-131.3198 134.35029,-131.3198"
       id="path5174"
       transform="translate(0,0.00217)" />
    <path
       style="fill:none;stroke:#000000;stroke-width:1;stroke-linecap:butt;stroke-linejoin:miter;stroke-opacity:1;stroke-miterlimit:4;stroke-dasharray:3,3;stroke-dashoffset:0"
       d="m 356.58385,1155.3955 c 54.54824,-64.6497 129.29952,-76.7715 129.29952,-76.7715"
       id="path5176"
       transform="translate(0,0.00217)" />
    <path
       sodipodi:type="arc"
       style="fill:#ffb380;fill-opacity:1;stroke:none"
       id="path5178"
       sodipodi:cx="134.85536"
       sodipodi:cy="483.14124"
       sodipodi:rx="71.215752"
       sodipodi:ry="13.637059"
       d="m 206.07111,483.14124 a 71.215752,13.637059 0 1 1 -142.4315,0 71.215752,13.637059 0 1 1 142.4315,0 z"
       transform="matrix(-1,0,0,1,547.50266,987.92919)" />
    <path
       style="fill:none;stroke:#000000;stroke-width:1px;stroke-linecap:butt;stroke-linejoin:miter;stroke-opacity:1"
       d="m 364.66505,1461.474 c 0,20.203 -4.04061,18.1827 -4.04061,18.1827"
       id="path5180" />
    <path
       style="fill:none;stroke:#000000;stroke-width:1px;stroke-linecap:butt;stroke-linejoin:miter;stroke-opacity:1"
       d="m 351.53307,1470.5653 -1.01016,0"
       id="path5182" />
    <path
       sodipodi:type="arc"
       style="fill:#ffb380;fill-opacity:1;stroke:none"
       id="path5184"
       sodipodi:cx="70.710678"
       sodipodi:cy="504.8595"
       sodipodi:rx="15.152288"
       sodipodi:ry="15.152288"
       d="m 85.862967,504.8595 a 15.152288,15.152288 0 1 1 -30.304577,0 15.152288,15.152288 0 1 1 30.304577,0 z"
       transform="matrix(-1,0,0,1,547.50266,974.79721)" />
    <path
       d="m 85.862967,504.8595 a 15.152288,15.152288 0 1 1 -30.304577,0 15.152288,15.152288 0 1 1 30.304577,0 z"
       sodipodi:ry="15.152288"
       sodipodi:rx="15.152288"
       sodipodi:cy="504.8595"
       sodipodi:cx="70.710678"
       id="path5186"
       style="fill:#ffb380;fill-opacity:1;stroke:none"
       sodipodi:type="arc"
       transform="matrix(-1,0,0,1,547.50266,951.5637)" />
    <text
       id="text5188"
       y="1474.606"
       x="369.71585"
       style="font-size:11px;font-style:normal;font-weight:normal;fill:#000000;fill-opacity:1;stroke:none;font-family:Bitstream Vera Sans"
       xml:space="preserve"><tspan
         y="1474.606"
         x="369.71585"
         id="tspan5190"
         sodipodi:role="line">Initial Libre Creation</tspan></text>
    <text
       id="text5192"
       y="1610.9766"
       x="301.02545"
       style="font-size:32px;font-style:normal;font-weight:normal;fill:#000000;fill-opacity:1;stroke:none;font-family:Bitstream Vera Sans"
       xml:space="preserve"><tspan
         y="1610.9766"
         x="301.02545"
         id="tspan5194"
         sodipodi:role="line">GPL</tspan></text>
    <text
       id="text5196"
       y="1649.3623"
       x="108.08633"
       style="font-size:20px;font-style:normal;font-weight:normal;fill:#000000;fill-opacity:1;stroke:none;font-family:Bitstream Vera Sans"
       xml:space="preserve"><tspan
         y="1649.3623"
         x="108.08633"
         id="tspan5198"
         sodipodi:role="line">Proprietors</tspan><tspan
         id="tspan5200"
         y="1674.3622"
         x="108.08633"
         sodipodi:role="line">(faggots)</tspan></text>
    <text
       id="text5202"
       y="1652.3928"
       x="465.68033"
       style="font-size:20px;font-style:normal;font-weight:normal;fill:#000000;fill-opacity:1;stroke:none;font-family:Bitstream Vera Sans"
       xml:space="preserve"><tspan
         y="1652.3928"
         x="465.68033"
         id="tspan5204"
         sodipodi:role="line">Free Culture Hackers</tspan><tspan
         id="tspan5206"
         y="1677.3927"
         x="465.68033"
         sodipodi:role="line">(gods)</tspan></text>
    <path
       style="fill:none;stroke:#000000;stroke-width:1px;stroke-linecap:butt;stroke-linejoin:miter;stroke-opacity:1"
       d="m 328.29958,2009.9846 c 20.20305,-151.5229 64.64976,-173.7462 64.64976,-173.7462"
       id="path5208"
       transform="translate(0,0.00217)" />
    <path
       sodipodi:type="spiral"
       style="fill:none;stroke:#000000;stroke-width:1px;stroke-linecap:butt;stroke-linejoin:miter;stroke-opacity:1"
       id="path5212"
       sodipodi:cx="563.6651"
       sodipodi:cy="1834.218"
       sodipodi:expansion="4.29"
       sodipodi:revolution="14.4"
       sodipodi:radius="108.08632"
       sodipodi:argument="-92.04866"
       sodipodi:t0="0"
       d="m 563.6651,1834.218 c 0,0 0,0 0,0 -2e-5,0 2e-5,0 3e-5,0 1.4e-4,-10e-5 2.3e-4,10e-5 2.4e-4,2e-4 6e-5,5e-4 -5.5e-4,8e-4 -9.5e-4,8e-4 -0.001,-10e-5 -0.002,-0 -0.002,-0 3.7e-4,-0 0.004,-0 0.006,-0 0.006,0 0.008,0.01 0.006,0.013 -0.003,0.01 -0.0146,0.014 -0.0237,0.011 -0.0167,-0.01 -0.0224,-0.025 -0.0171,-0.041 0.009,-0.026 0.0409,-0.035 0.0652,-0.026 0.0396,0.015 0.0521,0.063 0.0372,0.1001 -0.0233,0.058 -0.0941,0.075 -0.1479,0.052 -0.081,-0.035 -0.10558,-0.1353 -0.0714,-0.2115 0.0498,-0.1113 0.18916,-0.1445 0.29446,-0.096 0.14954,0.07 0.19345,0.2582 0.12512,0.4003 -0.0948,0.1972 -0.3451,0.2543 -0.53313,0.1613 -0.25567,-0.1264 -0.32878,-0.4529 -0.20485,-0.6975 0.16552,-0.3266 0.58487,-0.4189 0.89815,-0.2567 0.41177,0.2131 0.52704,0.7445 0.31812,1.1404 -0.27069,0.513 -0.93575,0.6553 -1.43004,0.39 -0.63225,-0.3394 -0.80618,-1.1626 -0.47351,-1.773 0.42058,-0.7717 1.42941,-0.9824 2.17578,-0.57 0.93363,0.5159 1.18673,1.7409 0.68068,2.6454 -0.6269,1.1204 -2.10205,1.4221 -3.18899,0.807 -1.33458,-0.7553 -1.69189,-2.5181 -0.95045,-3.8146 0.90296,-1.5788 2.99461,-1.9992 4.53019,-1.1125 1.85599,1.0718 2.34758,3.5375 1.29476,5.3447 -1.26363,2.169 -4.15279,2.7407 -6.26693,1.4989 -2.521,-1.4808 -3.18249,-4.8471 -1.72673,-7.3067 1.72545,-2.9153 5.62725,-3.6769 8.47399,-1.98 3.35508,1.9999 4.22818,6.5002 2.26066,9.7792 -2.30663,3.8441 -7.47365,4.8408 -11.2335,2.5707 -4.38605,-2.6481 -5.51913,-8.5551 -2.9121,-12.8482 3.0271,-4.9847 9.75283,-6.2681 14.63515,-3.287 5.64417,3.4462 7.09278,11.0751 3.69782,16.6069 -3.90852,6.3685 -12.53086,7.9981 -18.77628,4.1466 -7.16214,-4.4169 -8.98958,-14.1291 -4.63586,-21.1567 4.97435,-8.0295 15.87913,-10.0727 23.76205,-5.168 8.97515,5.5842 11.25309,17.7909 5.74554,26.6067 -6.24984,10.004 -19.87449,12.5368 -29.70558,6.3711 -11.12095,-6.9746 -13.92995,-22.1403 -7.04748,-33.074 7.76212,-12.3312 24.59929,-15.4389 36.72804,-7.7774 13.63986,8.6161 17.07001,27.2625 8.56362,40.684 -9.54013,15.0526 -30.14146,18.8302 -44.95881,9.4092 -16.5748,-10.5383 -20.72631,-33.2481 -10.31723,-49.57 11.61475,-18.2124 36.59466,-22.7655 54.53557,-11.2907 19.97138,12.7735 24.9552,40.1937 12.33297,59.874 -14.01877,21.8578 -44.05827,27.3029 -65.60446,13.4472 -23.87786,-15.3551 -29.81627,-48.2016 -14.63681,-71.7464 16.78692,-26.0382 52.63752,-32.5034 78.32012,-15.9053 28.34524,18.3189 35.37249,57.38 17.25617,85.3462 -19.95592,30.8059 -62.44358,38.4319 -92.84587,18.6931 -33.42727,-21.7028 -41.69025,-67.843 -20.21985,-100.8409 23.56449,-36.2164 73.59355,-45.1564 109.35376,-21.8402 39.18051,25.5462 48.83933,79.7107 23.55807,118.4072 -27.65336,42.3272 -86.21063,52.7483 -128.02472,25.3774 -45.66429,-29.8912 -56.89296,-93.1095 -27.30247,-138.2303 18.43804,-28.1151 50.09292,-45.7564 83.60242,-47.3452"
       transform="matrix(-0.68814278,0.7255753,0.7255753,0.68814278,-472.65512,240.56519)" />
  </g>
</svg>
