<?xml version="1.0" encoding="UTF-8" standalone="no"?>
<!-- Created with Inkscape (http://www.inkscape.org/) -->

<svg
   xmlns:dc="http://purl.org/dc/elements/1.1/"
   xmlns:cc="http://creativecommons.org/ns#"
   xmlns:rdf="http://www.w3.org/1999/02/22-rdf-syntax-ns#"
   xmlns:svg="http://www.w3.org/2000/svg"
   xmlns="http://www.w3.org/2000/svg"
   version="1.1"
   width="744.09448"
   height="1052.3622"
   id="svg2">
  <defs
     id="defs4" />
  <metadata
     id="metadata7">
    <rdf:RDF>
      <cc:Work
         rdf:about="">
        <dc:format>image/svg+xml</dc:format>
        <dc:type
           rdf:resource="http://purl.org/dc/dcmitype/StillImage" />
        <dc:title></dc:title>
      </cc:Work>
    </rdf:RDF>
  </metadata>
  <g
     id="layer1">
    <g
       id="g2987"
       style="fill:none;stroke:#000000;stroke-opacity:1">
      <path
         d="M 67.202462,681.00091 102.20603,833.25807 137.16307,816.53475 88.596567,676.10761 z"
         id="path2997"
         style="fill:none;stroke:#000000;stroke-opacity:1" />
      <path
         d="m 67.202462,658.75101 0,22.2499 21.394105,-4.8933 0,-21.54666 z"
         id="path2989"
         style="fill:none;stroke:#000000;stroke-opacity:1" />
      <path
         d="m 88.596567,654.56095 48.566503,124.84761 0,37.12619 -48.566503,-140.42714 z"
         id="path2999"
         style="fill:none;stroke:#000000;stroke-opacity:1" />
      <path
         d="M 67.202462,658.75101 102.20603,793.99354 137.16307,779.40856 88.596567,654.56095 z"
         id="path2991"
         style="fill:none;stroke:#000000;stroke-opacity:1" />
      <path
         d="m 102.20603,793.99354 0,39.26453 34.95704,-16.72332 0,-37.12619 z"
         id="path2995"
         style="fill:none;stroke:#000000;stroke-opacity:1" />
      <path
         d="m 67.202462,658.75101 35.003568,135.24253 0,39.26453 -35.003568,-152.25716 z"
         id="path2993"
         style="fill:none;stroke:#000000;stroke-opacity:1" />
    </g>
    <rect
       width="6.6291261"
       height="86.178642"
       x="392.2233"
       y="786.09229"
       id="rect3001"
       style="fill:#000000;fill-opacity:1;fill-rule:evenodd;stroke:none" />
    <rect
       width="6.6291261"
       height="86.178642"
       x="779.4718"
       y="-485.0224"
       transform="matrix(0,1,-1,0,0,0)"
       id="rect3771"
       style="fill:#000000;fill-opacity:1;fill-rule:evenodd;stroke:none" />
    <rect
       width="6.6291261"
       height="86.178642"
       x="485.03107"
       y="786.09229"
       id="rect3773"
       style="fill:#000000;fill-opacity:1;fill-rule:evenodd;stroke:none" />
  </g>
</svg>
