<?xml version="1.0" encoding="UTF-8" standalone="no"?>
<!-- Created with Inkscape (http://www.inkscape.org/) -->

<svg
   xmlns:dc="http://purl.org/dc/elements/1.1/"
   xmlns:cc="http://creativecommons.org/ns#"
   xmlns:rdf="http://www.w3.org/1999/02/22-rdf-syntax-ns#"
   xmlns:svg="http://www.w3.org/2000/svg"
   xmlns="http://www.w3.org/2000/svg"
   xmlns:sodipodi="http://sodipodi.sourceforge.net/DTD/sodipodi-0.dtd"
   xmlns:inkscape="http://www.inkscape.org/namespaces/inkscape"
   width="744.09448819"
   height="1052.3622047"
   id="svg2"
   version="1.1"
   inkscape:version="0.48.1 r9760"
   sodipodi:docname="New document 1">
  <defs
     id="defs4" />
  <sodipodi:namedview
     id="base"
     pagecolor="#ffffff"
     bordercolor="#666666"
     borderopacity="1.0"
     inkscape:pageopacity="0.0"
     inkscape:pageshadow="2"
     inkscape:zoom="0.66"
     inkscape:cx="375"
     inkscape:cy="520"
     inkscape:document-units="px"
     inkscape:current-layer="layer2"
     showgrid="false"
     inkscape:window-width="1280"
     inkscape:window-height="976"
     inkscape:window-x="-3"
     inkscape:window-y="-3"
     inkscape:window-maximized="1" />
  <metadata
     id="metadata7">
    <rdf:RDF>
      <cc:Work
         rdf:about="">
        <dc:format>image/svg+xml</dc:format>
        <dc:type
           rdf:resource="http://purl.org/dc/dcmitype/StillImage" />
        <dc:title></dc:title>
      </cc:Work>
    </rdf:RDF>
  </metadata>
  <g
     inkscape:label="Layer 1"
     inkscape:groupmode="layer"
     id="layer1">
    <rect
       style="fill:#008dff;fill-rule:evenodd;stroke:#000000;stroke-width:1px;stroke-linecap:butt;stroke-linejoin:miter;stroke-opacity:1;fill-opacity:1"
       id="rect2987"
       width="557.57574"
       height="557.57574"
       x="90.909096"
       y="270.54401" />
    <path
       style="fill:#000000;fill-opacity:1"
       id="path3775"
       d="m 340.60126,735.475 c 5.80146,1.48674 11.54682,3.1226 17.27799,4.86229 5.07536,1.53427 10.18088,2.92801 15.3594,4.07014 3.99862,0.45836 7.83205,1.68348 11.77926,2.39926 2.87858,0.44539 5.79763,0.4692 8.70344,0.49708 3.26529,-0.21034 6.78521,-0.44358 9.90724,-1.50465 2.75585,-0.70075 5.43642,-1.63096 8.2034,-2.28914 2.96349,-0.60026 5.99818,-1.5197 8.58284,-3.11748 0.42131,-0.2194 1.6754,-0.8955 1.26391,-0.65821 -6.03253,3.47878 -12.06768,6.95331 -18.1281,10.38327 -0.36227,0.20503 0.6704,-0.49636 1.02983,-0.70633 6.74726,-3.94159 13.61358,-7.68165 20.28724,-11.74662 5.99555,-3.65193 -12.15479,7.02823 -18.25235,10.50715 -0.30379,0.17333 0.57896,-0.39257 0.86845,-0.58886 1.07464,-0.9516 1.98117,-2.05508 2.97581,-3.08335 0,0 20.7128,-8.80993 20.7128,-8.80993 l 0,0 c -0.85028,1.1942 -1.87884,2.24831 -2.89429,3.2984 -5.3885,7.29584 0.30066,-0.1381 -20.90693,12.7876 -5.97308,3.6405 12.0776,-7.06098 18.1346,-10.5601 0.36228,-0.20929 -0.68816,0.47746 -1.04876,0.68964 -19.79799,11.64941 -13.34966,8.35598 -21.54822,12.50241 -2.88245,1.16304 -5.82656,2.11795 -8.87423,2.75187 -2.72569,0.80048 -5.46297,1.54753 -8.2138,2.25869 -3.39086,0.57188 -6.81503,1.15557 -10.26575,1.03535 -2.99198,-0.0765 -5.99678,-0.20209 -8.93164,-0.8422 -3.87016,-0.88231 -7.69665,-1.93622 -11.62286,-2.56494 -5.18356,-1.20817 -10.30527,-2.61484 -15.36574,-4.2698 -5.72648,-1.79301 -11.52112,-3.43139 -17.45515,-4.37681 0,0 18.42161,-12.92473 18.42161,-12.92473 z"
       inkscape:connector-curvature="0" />
  </g>
  <g
     inkscape:groupmode="layer"
     id="layer5"
     inkscape:label="Hair">
    <path
       style="fill:#000000;fill-opacity:1;stroke:none"
       id="path3813"
       d="m 341.47274,406.52021 c -2.27454,4.47098 -4.12047,9.13321 -5.92281,13.80771 -1.37091,3.45402 -2.71128,6.91793 -4.04758,10.38565 -1.01966,2.91354 -1.61113,5.95742 -2.3278,8.95703 -0.60298,2.71951 -1.00494,5.47342 -0.60728,8.24277 1.22424,3.00231 2.58958,5.78937 3.0705,9.04379 0.57681,5.4101 -1.38043,10.12783 -4.08458,14.66883 -2.39509,3.29783 -5.45015,6.04012 -8.63982,8.54852 0,0 -20.8078,8.29994 -20.8078,8.29994 l 0,0 c 3.23776,-2.41727 6.36066,-4.96158 9.14145,-7.91048 2.73293,-4.03002 5.04374,-8.17924 4.60333,-13.23014 -0.26782,-3.28582 -1.91127,-5.90859 -3.13416,-8.89841 -0.54566,-3.03027 -0.35998,-6.01634 0.26678,-9.0357 0.66233,-3.10197 1.4409,-6.17665 2.21854,-9.24777 1.30098,-3.52883 2.73467,-6.99821 4.14787,-10.48235 1.90746,-4.59184 3.59357,-9.28132 5.72681,-13.77659 0,0 20.39655,-9.3728 20.39655,-9.3728 z"
       inkscape:connector-curvature="0" />
  </g>
  <g
     inkscape:groupmode="layer"
     id="layer3"
     inkscape:label="HeadMirror">
    <path
       style="fill:#ffffff;fill-opacity:1"
       d="m 366.75745,741.75965 c -26.92677,-6.90186 -27.3032,-7.07026 -28.17815,-12.60463 -0.41938,-2.65273 -1.01811,-14.36859 -1.33052,-26.03526 -0.46876,-17.50568 -1.15804,-22.68962 -3.94482,-29.66793 -5.72452,-14.33462 -13.08411,-22.54587 -26.68932,-29.77792 -12.70821,-6.75521 -24.89958,-18.26589 -28.85922,-27.24791 -3.98985,-9.05051 -2.38312,-26.80283 4.63265,-51.18503 6.69953,-23.28313 14.41209,-72.5737 14.42451,-92.18624 0.008,-12.73831 5.60836,-38.38064 10.24151,-46.89326 2.18371,-4.0122 6.57139,-9.64475 9.75039,-12.51679 5.42375,-4.90004 6.4101,-5.21525 16.00292,-5.11421 5.62259,0.0592 16.35927,0.68976 23.85927,1.40118 8.42553,0.79921 22.90059,0.6591 37.88019,-0.36666 13.33411,-0.91308 26.08891,-1.19706 28.34401,-0.63107 5.02539,1.2613 11.96368,8.48549 16.95183,17.65035 4.43733,8.15284 10.00348,33.9896 10.01139,46.47046 0.0121,19.61254 7.72499,68.90311 14.4245,92.18624 7.01577,24.3822 8.6225,42.13452 4.63265,51.18503 -3.95963,8.98202 -16.151,20.4927 -28.85921,27.24791 -13.62962,7.24502 -21.01698,15.50045 -26.64667,29.77792 -2.81561,7.14067 -3.5129,12.92706 -4.48328,37.20416 -0.99784,24.96392 -0.84352,28.97178 1.17229,30.44578 1.90109,1.39011 1.06223,2.0145 -4.63319,3.44862 -10.66603,2.68575 -19.9495,2.01635 -38.70373,-2.79074 l 0,0 z"
       id="path3777"
       inkscape:connector-curvature="0" />
    <path
       style="fill:#ffffff;fill-opacity:1"
       d="m 478.04489,540.7814 c -1.68792,-11.85562 -6.98072,-52.71331 -6.98258,-53.90197 -9.4e-4,-0.59884 0.9369,-0.72863 2.08409,-0.28842 1.34968,0.51793 2.46211,-0.69898 3.15211,-3.44816 0.58648,-2.33671 1.77681,-5.10465 2.64518,-6.15098 4.22155,-5.08665 4.67818,-1.29966 3.86385,32.04442 -0.83562,34.2162 -2.67002,46.44325 -4.76265,31.74511 z"
       id="path3781"
       inkscape:connector-curvature="0" />
    <path
       style="fill:#ffffff;fill-opacity:1"
       d=""
       id="path3783"
       inkscape:connector-curvature="0" />
    <path
       style="fill:#ffffff;fill-opacity:1"
       d=""
       id="path3785"
       inkscape:connector-curvature="0" />
    <path
       style="fill:#000000;fill-opacity:1"
       d="m 265.94863,545.544 c -1.9279,-4.8185 -3.19632,-70.45454 -1.36154,-70.45454 2.26706,0 4.56229,3.1974 5.78107,8.05339 0.69,2.74918 1.80242,3.96609 3.15211,3.44816 2.5756,-0.98835 2.65575,-3.0849 -0.95043,24.86208 -4.34924,33.70546 -5.14211,37.78772 -6.62121,34.09091 z"
       id="path3787"
       inkscape:connector-curvature="0" />
    <path
       style="fill:#ffffff;fill-opacity:1"
       d="m 264.55543,542.71336 c -0.71494,-5.12078 -1.05616,-22.26057 -0.75826,-38.08841 l 0.54164,-28.77792 3.13748,6.34807 c 1.72563,3.49144 3.9274,6.34807 4.89284,6.34807 2.55225,0 2.03219,7.78584 -2.48767,37.242 -3.90099,25.423 -4.06656,25.94925 -5.32603,16.92819 z"
       id="path3797"
       inkscape:connector-curvature="0" />
  </g>
  <g
     inkscape:groupmode="layer"
     id="layer4"
     inkscape:label="Layer">
    <path
       sodipodi:type="arc"
       style="fill:#ffffff;fill-opacity:1;stroke:#000000;stroke-width:30.83472633;stroke-linejoin:miter;stroke-miterlimit:4;stroke-opacity:1;stroke-dasharray:none"
       id="path3800"
       sodipodi:cx="397.72726"
       sodipodi:cy="560.6955"
       sodipodi:rx="62.878788"
       sodipodi:ry="62.878788"
       d="m 460.60605,560.6955 a 62.878788,62.878788 0 1 1 -125.75757,0 62.878788,62.878788 0 1 1 125.75757,0 z"
       transform="matrix(1.0790085,0,0,0.862307,-54.919114,59.779604)" />
    <path
       sodipodi:type="arc"
       style="fill:#ffffff;fill-opacity:1;stroke:#000000;stroke-width:39.29999924;stroke-linejoin:miter;stroke-miterlimit:4;stroke-opacity:1;stroke-dasharray:none"
       id="path3804"
       sodipodi:cx="374.24243"
       sodipodi:cy="541.7561"
       sodipodi:rx="15.151515"
       sodipodi:ry="15.151515"
       d="m 389.39395,541.7561 a 15.151515,15.151515 0 1 1 -30.30303,0 15.151515,15.151515 0 1 1 30.30303,0 z"
       transform="matrix(0.78231529,0,0,0.78231529,81.466855,117.93202)" />
  </g>
  <g
     inkscape:groupmode="layer"
     id="layer2"
     inkscape:label="Head">
    <path
       style="fill:#000000;fill-opacity:1"
       id="path3762"
       d="m 372.93872,411.34484 c -3.65954,-1.26175 -7.49682,-1.81917 -11.33519,-2.17527 -3.31463,-0.25746 -6.6412,-0.23465 -9.96313,-0.25503 -3.47001,-0.0503 -6.88612,-0.83189 -10.34234,-1.17695 -3.11514,-0.27397 -6.24422,-0.28346 -9.36864,-0.31911 -3.44362,-0.16412 -6.7941,-0.0374 -10.06508,1.10599 -8.15323,2.88576 -23.34188,12.65491 10.7546,-6.94804 -6.82372,3.93758 -13.61244,7.93645 -20.47116,11.81275 -0.4318,0.24404 -0.94358,0.31691 -1.38639,0.54035 -0.79628,0.4018 -3.09506,1.77448 -2.32341,1.32718 6.00228,-3.47935 24.12379,-13.71598 18.04708,-10.36833 -6.88306,3.79187 -13.64431,7.80078 -20.46647,11.70117 -7.41056,4.39232 1.79275,-1.07004 16.53467,-9.48904 0.47413,-0.27078 -0.92667,0.57771 -1.38959,0.86725 -1.36097,0.85123 -2.56692,1.76346 -3.7907,2.80249 -2.382,2.13673 -4.49916,4.56074 -6.41925,7.11607 -1.81032,2.53013 -3.14219,5.34976 -4.73809,8.01012 -1.181,2.18649 -2.47589,4.27841 -3.17164,6.67643 -0.77798,2.45219 -1.42311,4.94441 -2.17453,7.40568 -0.73111,2.68169 -1.19047,5.40916 -1.94281,8.08695 -0.74065,2.57326 -0.74665,5.26316 -1.31436,7.86771 -0.71589,2.5694 -0.9846,5.21499 -1.14377,7.8673 -0.15798,3.49569 -0.16246,6.99611 -0.16835,10.4947 0.24101,3.57992 -0.29889,7.09755 -0.80301,10.62556 -0.42805,3.08024 -0.4591,6.18424 -0.98276,9.25099 -0.67222,2.98217 -0.81833,6.03685 -1.20353,9.0582 -0.62477,2.97172 -1.07239,5.96433 -1.31136,8.99064 -0.0628,2.87817 -0.19517,5.7044 -0.77027,8.52802 -0.4542,2.7861 -0.88316,5.5603 -1.47494,8.32242 -0.49011,3.01772 -0.91434,6.02991 -1.52908,9.02702 -0.45549,3.1017 -1.08656,6.16429 -1.8818,9.19649 -0.89495,2.99927 -1.68132,6.02905 -2.5,9.05021 -0.73463,3.04098 -1.51133,6.06876 -2.24924,9.10914 -0.83397,3.04174 -2.0525,5.93889 -2.75181,9.01917 -0.53368,3.0624 -1.1818,6.10659 -1.8477,9.14304 -0.87154,2.91337 -1.37965,5.89408 -1.65311,8.91668 -0.21107,3.14695 -0.22456,6.30389 -0.24104,9.45673 -0.007,3.31851 -0.11457,6.6237 0.37721,9.91213 0.37348,3.1847 1.47748,6.10824 3.15321,8.81746 2.04223,2.79252 4.48378,5.2591 6.81538,7.81161 1.6622,2.41555 3.72505,4.46812 5.662,6.65236 2.29418,2.17592 4.76165,4.13028 7.48831,5.73219 2.90724,1.45181 5.99363,2.54808 8.804,4.18217 2.55621,1.19073 5.04901,2.45949 7.52886,3.79758 2.03336,1.28533 3.67029,3.03154 5.4942,4.56734 1.92425,2.04303 3.43777,4.4422 4.92656,6.81212 2.03426,2.51717 3.67138,5.26864 5.0303,8.1971 1.55665,3.21444 2.8891,6.54693 4.00674,9.93905 0.77115,3.13986 1.34656,6.33404 1.91673,9.51875 0.69614,4.53871 0.73247,9.13648 0.82691,13.71633 0.0456,4.37503 0.0896,8.75006 0.11389,13.12526 0.0299,3.41456 -0.006,6.82895 -0.006,10.24351 0.27548,3.26084 0.88544,6.4779 1.21109,9.73539 1.8e-4,1.36865 0.30317,2.68957 0.60616,4.01296 0,0 -19.77373,10.65542 -19.77373,10.65542 l 0,0 c -0.33986,-1.42009 -0.74891,-2.83564 -0.70581,-4.313 -0.27558,-3.3332 -0.81687,-6.62523 -1.26739,-9.93723 0.003,-3.41645 -0.0273,-6.8328 0.0138,-10.24916 0.034,-4.38335 0.0896,-8.7672 0.0264,-13.15054 -0.063,-4.44892 -0.15104,-8.91602 -0.79857,-13.3257 -0.56347,-3.09512 -1.21533,-6.16656 -1.79033,-9.25648 -1.02137,-3.32464 -2.32565,-6.5789 -3.84578,-9.70514 -1.32028,-2.83952 -3.03051,-5.43091 -4.92002,-7.92543 -1.39376,-2.18094 -2.83927,-4.38321 -4.68413,-6.21078 -1.64344,-1.49993 -3.26581,-3.03477 -5.19072,-4.17979 -2.45079,-1.37506 -5.04297,-2.45197 -7.49622,-3.82192 -2.90722,-1.50923 -5.98687,-2.66684 -8.83673,-4.29229 -2.81931,-1.82298 -5.50069,-3.85753 -7.85896,-6.2583 -1.96001,-2.16576 -3.98872,-4.26538 -5.67563,-6.66103 -2.32965,-2.71676 -4.88147,-5.23799 -6.95222,-8.16535 -1.84358,-2.94208 -3.18556,-6.10627 -3.61912,-9.58184 -0.56953,-3.40397 -0.6005,-6.79094 -0.51199,-10.24115 -0.0115,-3.19618 -0.0532,-6.39462 0.11898,-9.58792 0.20578,-3.13004 0.56146,-6.255 1.49251,-9.26513 0.86092,-2.94158 1.28772,-6.0411 1.89388,-9.03878 0.55896,-3.17328 1.63437,-6.13502 2.68871,-9.1626 0.9181,-2.96888 1.43155,-6.08004 2.26504,-9.0726 0.73805,-3.06815 1.66857,-6.08212 2.46404,-9.13454 0.99182,-2.90984 1.54816,-5.96301 1.9667,-9.0021 0.58052,-3.01012 1.24342,-5.97359 1.51433,-9.03511 0.54401,-2.76805 1.20431,-5.48124 1.43735,-8.30158 0.56521,-2.76094 1.12323,-5.42943 0.94421,-8.28163 0.18219,-3.08856 0.49622,-6.1697 1.21847,-9.18559 0.63094,-2.9907 0.44635,-6.10847 1.1869,-9.09474 0.60776,-3.0411 0.75306,-6.08327 1.04055,-9.17082 0.47596,-3.45261 1.27061,-6.86622 1.00245,-10.37643 -0.007,-3.51505 -0.0477,-7.03111 0.0276,-10.54556 0.10381,-2.76159 0.24239,-5.54143 0.92065,-8.23337 0.70694,-2.61391 0.84269,-5.24359 1.30247,-7.91273 0.68108,-2.72609 1.53245,-5.36601 1.93376,-8.16124 0.71325,-2.43352 1.2297,-4.92186 2.21438,-7.26485 0.48329,-2.70278 1.54772,-4.95655 2.9121,-7.30672 1.55624,-2.72056 3.11341,-5.43648 4.69724,-8.14487 1.70639,-2.82502 3.967,-5.25171 6.23402,-7.62799 7.62184,-7.35643 17.8123,-11.38743 26.87303,-16.69867 -60.75582,35.13794 47.67459,-27.42037 -11.81544,7.12951 8.74564,-5.0683 17.80362,-11.92198 27.91893,-14.77522 3.45096,-0.6857 6.91742,-0.72611 10.42842,-0.61106 3.1766,0.0278 6.3571,0.11952 9.51449,0.4968 3.38454,0.42637 6.75654,1.12708 10.18477,0.99199 3.36352,0.009 6.73285,0.0769 10.07741,0.46707 3.96973,0.51703 7.89645,1.29509 11.72622,2.47853 0,0 -18.61438,12.62967 -18.61438,12.62967 z"
       inkscape:connector-curvature="0" />
    <path
       style="fill:#000000;fill-opacity:1"
       id="path3764"
       d="m 271.79148,486.68664 c -0.0846,-3.05267 -0.81056,-6.07955 -2.43197,-8.6789 -1.22944,-2.06816 -3.1508,-3.68926 -5.34756,-4.65565 -2.722,-1.11061 -5.51527,-1.67279 -8.43157,-2.00052 -0.56757,0.062 -2.27343,0.2245 -2.84426,0.37901 -1.3496,0.36532 -2.32887,1.29297 -3.48194,2.02939 6.03646,-3.45942 12.07292,-6.91885 18.10938,-10.37827 -2.81708,2.7991 -3.50997,6.68072 -4.01649,10.45866 -0.47244,4.7891 -0.45146,9.6108 -0.47612,14.41823 -3.1e-4,4.69894 0.0521,9.39749 0.0982,14.09613 0.0329,3.28053 0.0427,6.56122 0.0478,9.84189 0.003,3.02 0.002,6.04 0.002,9.05999 -0.22401,3.02049 0.37641,5.96526 0.83388,8.93029 0.45936,3.05161 0.57761,6.13727 0.65038,9.21772 -0.2128,2.73241 0.40133,5.35405 0.88016,8.0165 0.17561,1.95079 0.65248,4.14931 3.03979,3.86391 2.33493,-0.52873 4.73241,-0.67637 7.11582,-0.81035 1.95,-0.0785 0.97031,-0.0452 2.93907,-0.0998 0,0 -18.09372,13.25168 -18.09372,13.25168 l 0,0 c -1.94797,0.0949 -0.97912,0.0391 -2.90659,0.16682 -2.50472,0.21495 -5.06517,0.78232 -7.56191,0.34117 -2.66402,-1.18776 -4.21162,-3.18866 -4.36679,-6.17179 -0.46869,-2.77416 -1.24977,-5.49463 -1.00164,-8.34037 -0.0475,-2.99279 -0.11702,-5.9923 -0.51439,-8.96328 -0.444,-3.06783 -1.21805,-6.10106 -0.99121,-9.22369 -1.2e-4,-3.02052 -5.5e-4,-6.04104 0.002,-9.06157 0.004,-3.29267 0.0117,-6.58534 0.032,-9.87795 0.0271,-4.72266 0.0472,-9.44525 0.0315,-14.168 -0.0223,-4.86896 -0.0922,-9.74513 0.26442,-14.60516 0.42604,-4.09368 0.96958,-8.22701 3.24873,-11.76622 6.69551,-4.1092 13.37502,-8.24459 20.08653,-12.3276 2.1556,-1.31138 4.6984,-1.46471 7.14939,-1.18519 3.09483,0.48393 6.1308,1.21195 8.96454,2.58933 2.38723,1.4342 4.54482,3.26257 5.924,5.7223 1.78044,2.98259 2.66045,6.27777 3.09978,9.71359 0,0 -20.05341,10.21772 -20.05341,10.21772 z"
       inkscape:connector-curvature="0" />
    <path
       inkscape:connector-curvature="0"
       d="m 373.73663,411.34484 c 3.65954,-1.26175 7.49682,-1.81917 11.33519,-2.17527 3.31463,-0.25746 6.6412,-0.23465 9.96313,-0.25503 3.47001,-0.0503 6.88612,-0.83189 10.34234,-1.17695 3.11514,-0.27397 6.24422,-0.28346 9.36864,-0.31911 3.44362,-0.16412 6.7941,-0.0374 10.06508,1.10599 8.15323,2.88576 23.34188,12.65491 -10.7546,-6.94804 6.82372,3.93758 13.61244,7.93645 20.47116,11.81275 0.4318,0.24404 0.94358,0.31691 1.38639,0.54035 0.79628,0.4018 3.09506,1.77448 2.32341,1.32718 -6.00228,-3.47935 -24.12379,-13.71598 -18.04708,-10.36833 6.88306,3.79187 13.64431,7.80078 20.46647,11.70117 7.41056,4.39232 -1.79275,-1.07004 -16.53467,-9.48904 -0.47413,-0.27078 0.92667,0.57771 1.38959,0.86725 1.36097,0.85123 2.56692,1.76346 3.7907,2.80249 2.382,2.13673 4.49916,4.56074 6.41925,7.11607 1.81032,2.53013 3.14219,5.34976 4.73809,8.01012 1.181,2.18649 2.47589,4.27841 3.17164,6.67643 0.77798,2.45219 1.42311,4.94441 2.17453,7.40568 0.73111,2.68169 1.19047,5.40916 1.94281,8.08695 0.74065,2.57326 0.74665,5.26316 1.31436,7.86771 0.71589,2.5694 0.9846,5.21499 1.14377,7.8673 0.15798,3.49569 0.16246,6.99611 0.16835,10.4947 -0.24101,3.57992 0.29889,7.09755 0.80301,10.62556 0.42805,3.08024 0.4591,6.18424 0.98276,9.25099 0.67222,2.98217 0.81833,6.03685 1.20353,9.0582 0.62477,2.97172 1.07239,5.96433 1.31136,8.99064 0.0628,2.87817 0.19517,5.7044 0.77027,8.52802 0.4542,2.7861 0.88316,5.5603 1.47494,8.32242 0.49011,3.01772 0.91434,6.02991 1.52908,9.02702 0.45549,3.1017 1.08656,6.16429 1.8818,9.19649 0.89495,2.99927 1.68132,6.02905 2.5,9.05021 0.73463,3.04098 1.51133,6.06876 2.24924,9.10914 0.83397,3.04174 2.0525,5.93889 2.75181,9.01917 0.53368,3.0624 1.1818,6.10659 1.8477,9.14304 0.87154,2.91337 1.37965,5.89408 1.65311,8.91668 0.21107,3.14695 0.22456,6.30389 0.24104,9.45673 0.007,3.31851 0.11457,6.6237 -0.37721,9.91213 -0.37348,3.1847 -1.47748,6.10824 -3.15321,8.81746 -2.04223,2.79252 -4.48378,5.2591 -6.81538,7.81161 -1.6622,2.41555 -3.72505,4.46812 -5.662,6.65236 -2.29418,2.17592 -4.76165,4.13028 -7.48831,5.73219 -2.90724,1.45181 -5.99363,2.54808 -8.804,4.18217 -2.55621,1.19073 -5.04901,2.45949 -7.52886,3.79758 -2.03336,1.28533 -3.67029,3.03154 -5.4942,4.56734 -1.92425,2.04303 -3.43777,4.4422 -4.92656,6.81212 -2.03426,2.51717 -3.67138,5.26864 -5.0303,8.1971 -1.55665,3.21444 -2.8891,6.54693 -4.00674,9.93905 -0.77115,3.13986 -1.34656,6.33404 -1.91673,9.51875 -0.69614,4.53871 -0.73247,9.13648 -0.82691,13.71633 -0.0456,4.37503 -0.0896,8.75006 -0.11389,13.12526 -0.0299,3.41456 0.006,6.82895 0.006,10.24351 -0.27548,3.26084 -0.88544,6.4779 -1.21109,9.73539 -1.8e-4,1.36865 -0.30317,2.68957 -0.60616,4.01296 0,0 19.77373,10.65542 19.77373,10.65542 l 0,0 c 0.33986,-1.42009 0.74891,-2.83564 0.70581,-4.313 0.27558,-3.3332 0.81687,-6.62523 1.26739,-9.93723 -0.003,-3.41645 0.0273,-6.8328 -0.0138,-10.24916 -0.034,-4.38335 -0.0896,-8.7672 -0.0264,-13.15054 0.063,-4.44892 0.15104,-8.91602 0.79857,-13.3257 0.56347,-3.09512 1.21533,-6.16656 1.79033,-9.25648 1.02137,-3.32464 2.32565,-6.5789 3.84578,-9.70514 1.32028,-2.83952 3.03051,-5.43091 4.92002,-7.92543 1.39376,-2.18094 2.83927,-4.38321 4.68413,-6.21078 1.64344,-1.49993 3.26581,-3.03477 5.19072,-4.17979 2.45079,-1.37506 5.04297,-2.45197 7.49622,-3.82192 2.90722,-1.50923 5.98687,-2.66684 8.83673,-4.29229 2.81931,-1.82298 5.50069,-3.85753 7.85896,-6.2583 1.96001,-2.16576 3.98872,-4.26538 5.67563,-6.66103 2.32965,-2.71676 4.88147,-5.23799 6.95222,-8.16535 1.84358,-2.94208 3.18556,-6.10627 3.61912,-9.58184 0.56953,-3.40397 0.6005,-6.79094 0.51199,-10.24115 0.0115,-3.19618 0.0532,-6.39462 -0.11898,-9.58792 -0.20578,-3.13004 -0.56146,-6.255 -1.49251,-9.26513 -0.86092,-2.94158 -1.28772,-6.0411 -1.89388,-9.03878 -0.55896,-3.17328 -1.63437,-6.13502 -2.68871,-9.1626 -0.9181,-2.96888 -1.43155,-6.08004 -2.26504,-9.0726 -0.73805,-3.06815 -1.66857,-6.08212 -2.46404,-9.13454 -0.99182,-2.90984 -1.54816,-5.96301 -1.9667,-9.0021 -0.58052,-3.01012 -1.24342,-5.97359 -1.51433,-9.03511 -0.54401,-2.76805 -1.20431,-5.48124 -1.43735,-8.30158 -0.56521,-2.76094 -1.12323,-5.42943 -0.94421,-8.28163 -0.18219,-3.08856 -0.49622,-6.1697 -1.21847,-9.18559 -0.63094,-2.9907 -0.44635,-6.10847 -1.1869,-9.09474 -0.60776,-3.0411 -0.75306,-6.08327 -1.04055,-9.17082 -0.47596,-3.45261 -1.27061,-6.86622 -1.00245,-10.37643 0.007,-3.51505 0.0477,-7.03111 -0.0276,-10.54556 -0.10381,-2.76159 -0.24239,-5.54143 -0.92065,-8.23337 -0.70694,-2.61391 -0.84269,-5.24359 -1.30247,-7.91273 -0.68108,-2.72609 -1.53245,-5.36601 -1.93376,-8.16124 -0.71325,-2.43352 -1.2297,-4.92186 -2.21438,-7.26485 -0.48329,-2.70278 -1.54772,-4.95655 -2.9121,-7.30672 -1.55624,-2.72056 -3.11341,-5.43648 -4.69724,-8.14487 -1.70639,-2.82502 -3.967,-5.25171 -6.23402,-7.62799 -7.62184,-7.35643 -17.8123,-11.38743 -26.87303,-16.69867 60.75582,35.13794 -47.67459,-27.42037 11.81544,7.12951 -8.74564,-5.0683 -17.80362,-11.92198 -27.91893,-14.77522 -3.45096,-0.6857 -6.91742,-0.72611 -10.42842,-0.61106 -3.1766,0.0278 -6.3571,0.11952 -9.51449,0.4968 -3.38454,0.42637 -6.75654,1.12708 -10.18477,0.99199 -3.36352,0.009 -6.73285,0.0769 -10.07741,0.46707 -3.96973,0.51703 -7.89645,1.29509 -11.72622,2.47853 0,0 18.61438,12.62967 18.61438,12.62967 z"
       id="path3769"
       style="fill:#000000;fill-opacity:1" />
    <path
       inkscape:connector-curvature="0"
       d="m 474.88387,486.68664 c 0.0846,-3.05267 0.81056,-6.07955 2.43197,-8.6789 1.22944,-2.06816 3.1508,-3.68926 5.34756,-4.65565 2.722,-1.11061 5.51527,-1.67279 8.43157,-2.00052 0.56757,0.062 2.27343,0.2245 2.84426,0.37901 1.3496,0.36532 2.32887,1.29297 3.48194,2.02939 -6.03646,-3.45942 -12.07292,-6.91885 -18.10938,-10.37827 2.81708,2.7991 3.50997,6.68072 4.01649,10.45866 0.47244,4.7891 0.45146,9.6108 0.47612,14.41823 3.1e-4,4.69894 -0.0521,9.39749 -0.0982,14.09613 -0.0329,3.28053 -0.0427,6.56122 -0.0478,9.84189 -0.003,3.02 -0.002,6.04 -0.002,9.05999 0.22401,3.02049 -0.37641,5.96526 -0.83388,8.93029 -0.45936,3.05161 -0.57761,6.13727 -0.65038,9.21772 0.2128,2.73241 -0.40133,5.35405 -0.88016,8.0165 -0.17561,1.95079 -0.65248,4.14931 -3.03979,3.86391 -2.33493,-0.52873 -4.73241,-0.67637 -7.11582,-0.81035 -1.95,-0.0785 -0.97031,-0.0452 -2.93907,-0.0998 0,0 18.09372,13.25168 18.09372,13.25168 l 0,0 c 1.94797,0.0949 0.97912,0.0391 2.90659,0.16682 2.50472,0.21495 5.06517,0.78232 7.56191,0.34117 2.66402,-1.18776 4.21162,-3.18866 4.36679,-6.17179 0.46869,-2.77416 1.24977,-5.49463 1.00164,-8.34037 0.0475,-2.99279 0.11702,-5.9923 0.51439,-8.96328 0.444,-3.06783 1.21805,-6.10106 0.99121,-9.22369 1.2e-4,-3.02052 5.5e-4,-6.04104 -0.002,-9.06157 -0.004,-3.29267 -0.0117,-6.58534 -0.032,-9.87795 -0.0271,-4.72266 -0.0472,-9.44525 -0.0315,-14.168 0.0223,-4.86896 0.0922,-9.74513 -0.26442,-14.60516 -0.42604,-4.09368 -0.96958,-8.22701 -3.24873,-11.76622 -6.69551,-4.1092 -13.37502,-8.24459 -20.08653,-12.3276 -2.1556,-1.31138 -4.6984,-1.46471 -7.14939,-1.18519 -3.09483,0.48393 -6.1308,1.21195 -8.96454,2.58933 -2.38723,1.4342 -4.54482,3.26257 -5.924,5.7223 -1.78044,2.98259 -2.66045,6.27777 -3.09978,9.71359 0,0 20.05341,10.21772 20.05341,10.21772 z"
       id="path3771"
       style="fill:#000000;fill-opacity:1" />
    <path
       style="fill:#ffffff;fill-opacity:1"
       d="m 265.94205,535.69552 c -0.60883,-4.58334 -0.89941,-19.92425 -0.64572,-34.09091 l 0.46125,-25.75758 2.67184,5.68182 c 1.46952,3.125 3.34452,5.68182 4.16667,5.68182 2.17347,0 1.73059,6.96869 -2.11846,33.33333 -3.32203,22.75477 -3.46303,23.22579 -4.53558,15.15152 z"
       id="path3793"
       inkscape:connector-curvature="0" />
    <path
       style="fill:#ffffff;fill-opacity:1"
       d="m 265.94205,535.69552 c -0.60883,-4.58334 -0.89941,-19.92425 -0.64572,-34.09091 l 0.46125,-25.75758 2.67184,5.68182 c 1.46952,3.125 3.34452,5.68182 4.16667,5.68182 2.17347,0 1.73059,6.96869 -2.11846,33.33333 -3.32203,22.75477 -3.46303,23.22579 -4.53558,15.15152 z"
       id="path3795"
       inkscape:connector-curvature="0" />
  </g>
</svg>
