<?xml version="1.0" encoding="UTF-8" standalone="no"?>
<!-- Created with Inkscape (http://www.inkscape.org/) -->

<svg
   xmlns:dc="http://purl.org/dc/elements/1.1/"
   xmlns:cc="http://creativecommons.org/ns#"
   xmlns:rdf="http://www.w3.org/1999/02/22-rdf-syntax-ns#"
   xmlns:svg="http://www.w3.org/2000/svg"
   xmlns="http://www.w3.org/2000/svg"
   xmlns:sodipodi="http://sodipodi.sourceforge.net/DTD/sodipodi-0.dtd"
   xmlns:inkscape="http://www.inkscape.org/namespaces/inkscape"
   width="745.27936"
   height="1017.4052"
   id="svg2"
   version="1.1"
   inkscape:version="0.48.3.1 r9886"
   sodipodi:docname="New document 1">
  <defs
     id="defs4" />
  <sodipodi:namedview
     id="base"
     pagecolor="#ffffff"
     bordercolor="#666666"
     borderopacity="1.0"
     inkscape:pageopacity="0.0"
     inkscape:pageshadow="2"
     inkscape:zoom="3.959798"
     inkscape:cx="407.24708"
     inkscape:cy="140.91626"
     inkscape:document-units="px"
     inkscape:current-layer="layer1"
     showgrid="false"
     fit-margin-top="10"
     fit-margin-left="10"
     fit-margin-right="10"
     fit-margin-bottom="10"
     inkscape:window-width="1440"
     inkscape:window-height="848"
     inkscape:window-x="0"
     inkscape:window-y="0"
     inkscape:window-maximized="1" />
  <metadata
     id="metadata7">
    <rdf:RDF>
      <cc:Work
         rdf:about="">
        <dc:format>image/svg+xml</dc:format>
        <dc:type
           rdf:resource="http://purl.org/dc/dcmitype/StillImage" />
        <dc:title></dc:title>
      </cc:Work>
    </rdf:RDF>
  </metadata>
  <g
     inkscape:label="Layer 1"
     inkscape:groupmode="layer"
     id="layer1"
     transform="translate(-2.6319828,-379.81754)">
    <path
       style="fill:none;stroke:#000000;stroke-width:1px;stroke-linecap:butt;stroke-linejoin:miter;stroke-opacity:1"
       d="M 115.15739,788.71237 C 281.83256,714.97123 734.3809,668.50422 734.3809,668.50422"
       id="path2989"
       inkscape:connector-curvature="0" />
    <path
       sodipodi:type="arc"
       style="fill:#ff9955;fill-rule:evenodd;stroke:#000000;stroke-width:1px;stroke-linecap:butt;stroke-linejoin:miter;stroke-opacity:1"
       id="path2991"
       sodipodi:cx="408.57144"
       sodipodi:cy="735.57648"
       sodipodi:rx="10.714286"
       sodipodi:ry="11.071428"
       d="m 419.28573,735.57648 a 10.714286,11.071428 0 1 1 -21.42857,0 10.714286,11.071428 0 1 1 21.42857,0 z"
       transform="matrix(1.1597237,0,0,1.1597237,-63.072607,-121.35507)" />
    <rect
       style="fill:#008000"
       id="rect2993"
       width="22.366102"
       height="29.821466"
       x="399.98849"
       y="745.3786" />
    <rect
       style="fill:#000080"
       id="rect2995"
       width="8.283741"
       height="34.377525"
       x="255.51347"
       y="832.41144"
       transform="matrix(0.97737775,-0.21150115,0.21150115,0.97737775,0,0)" />
    <rect
       y="834.2146"
       x="242.25949"
       height="32.720779"
       width="8.283741"
       id="rect2997"
       style="fill:#000080"
       transform="matrix(0.97737775,-0.21150115,0.21150115,0.97737775,0,0)" />
    <rect
       style="fill:#000080"
       id="rect2999"
       width="8.283741"
       height="28.164721"
       x="720.7901"
       y="484.33777"
       transform="matrix(0.89387644,0.44831341,-0.44831341,0.89387644,0,0)" />
    <path
       sodipodi:type="arc"
       style="fill:#ffffff"
       id="path3005"
       sodipodi:cx="404.43982"
       sodipodi:cy="734.66919"
       sodipodi:rx="2.1465743"
       sodipodi:ry="2.1465743"
       d="m 406.58639,734.66919 a 2.1465743,2.1465743 0 1 1 -4.29314,0 2.1465743,2.1465743 0 1 1 4.29314,0 z"
       transform="matrix(1.1597237,0,0,1.1597237,-60.290299,-119.15851)" />
    <path
       transform="matrix(1.1597237,0,0,1.1597237,-51.357627,-120.91576)"
       d="m 406.58639,734.66919 a 2.1465743,2.1465743 0 1 1 -4.29314,0 2.1465743,2.1465743 0 1 1 4.29314,0 z"
       sodipodi:ry="2.1465743"
       sodipodi:rx="2.1465743"
       sodipodi:cy="734.66919"
       sodipodi:cx="404.43982"
       id="path3007"
       style="fill:#ffffff"
       sodipodi:type="arc" />
    <path
       sodipodi:type="arc"
       style="fill:#0000ff"
       id="path3011"
       sodipodi:cx="406.96521"
       sodipodi:cy="737.32086"
       sodipodi:rx="0.63134533"
       sodipodi:ry="0.63134533"
       d="m 407.59656,737.32086 a 0.63134533,0.63134533 0 1 1 -1.2627,0 0.63134533,0.63134533 0 1 1 1.2627,0 z"
       transform="matrix(1.1597237,0,0,1.1597237,-62.926169,-121.35507)" />
    <path
       transform="matrix(1.1597237,0,0,1.1597237,-53.847061,-123.25875)"
       d="m 407.59656,737.32086 a 0.63134533,0.63134533 0 1 1 -1.2627,0 0.63134533,0.63134533 0 1 1 1.2627,0 z"
       sodipodi:ry="0.63134533"
       sodipodi:rx="0.63134533"
       sodipodi:cy="737.32086"
       sodipodi:cx="406.96521"
       id="path3013"
       style="fill:#0000ff"
       sodipodi:type="arc" />
    <rect
       transform="matrix(-0.42611521,-0.90466891,0.86095677,-0.50867812,0,0)"
       y="56.174095"
       x="-883.83752"
       height="8.4918957"
       width="23.237295"
       id="rect3017"
       style="fill:#008000" />
    <rect
       transform="matrix(0.89387644,0.44831341,-0.44831341,0.89387644,0,0)"
       y="490.81003"
       x="709.9668"
       height="28.164721"
       width="8.283741"
       id="rect3003"
       style="fill:#000080" />
    <rect
       style="fill:#008000"
       id="rect3015"
       width="23.237295"
       height="8.4918957"
       x="-799.75854"
       y="-280.48294"
       transform="matrix(-0.72979716,-0.68366374,0.61257686,-0.79041103,0,0)" />
    <rect
       style="fill:#000080"
       id="rect3019"
       width="23.401567"
       height="11.597239"
       x="401.23108"
       y="774.16455" />
    <rect
       style="fill:none;stroke:#000000;stroke-opacity:1"
       id="rect3021"
       width="724.27936"
       height="431.33514"
       x="13.131983"
       y="430.10822" />
    <path
       style="fill:none;stroke:#000000;stroke-width:1px;stroke-linecap:butt;stroke-linejoin:miter;stroke-opacity:1"
       d="m 52.857143,483.07647 654.999997,0"
       id="path3791"
       inkscape:connector-curvature="0" />
    <path
       style="fill:none;stroke:#000000;stroke-width:1px;stroke-linecap:butt;stroke-linejoin:miter;stroke-opacity:1"
       d="m 386.42857,483.07647 0,56.07143 12.85027,-22.25733"
       id="path3793"
       inkscape:connector-curvature="0" />
    <path
       inkscape:connector-curvature="0"
       id="path3795"
       d="m 385.70741,483.07647 0,56.07143 -12.85027,-22.25733"
       style="fill:none;stroke:#000000;stroke-width:1px;stroke-linecap:butt;stroke-linejoin:miter;stroke-opacity:1" />
    <text
       xml:space="preserve"
       style="font-size:40px;font-style:normal;font-weight:normal;line-height:125%;letter-spacing:0px;word-spacing:0px;fill:#000000;fill-opacity:1;stroke:none;font-family:Sans"
       x="362.85715"
       y="473.79074"
       id="text3797"
       sodipodi:linespacing="125%"><tspan
         sodipodi:role="line"
         id="tspan3799"
         x="362.85715"
         y="473.79074"
         style="font-size:14px">Death</tspan></text>
    <text
       xml:space="preserve"
       style="font-size:40px;font-style:normal;font-weight:normal;line-height:125%;letter-spacing:0px;word-spacing:0px;fill:#000000;fill-opacity:1;stroke:none;font-family:Sans"
       x="266.42856"
       y="419.50504"
       id="text3801"
       sodipodi:linespacing="125%"><tspan
         sodipodi:role="line"
         id="tspan3803"
         x="266.42856"
         y="419.50504">NOT LAUNCH</tspan></text>
    <path
       d="m 419.28573,735.57648 a 10.714286,11.071428 0 1 1 -21.42857,0 10.714286,11.071428 0 1 1 21.42857,0 z"
       sodipodi:ry="11.071428"
       sodipodi:rx="10.714286"
       sodipodi:cy="735.57648"
       sodipodi:cx="408.57144"
       id="path3807"
       style="fill:#ff9955;fill-rule:evenodd;stroke:#000000;stroke-width:1px;stroke-linecap:butt;stroke-linejoin:miter;stroke-opacity:1"
       sodipodi:type="arc"
       transform="matrix(1.2415833,0,0,1.2415833,-144.98443,283.9432)" />
    <rect
       y="1244.327"
       x="-238.42976"
       height="31.926428"
       width="23.944822"
       id="rect3809"
       style="fill:#008000"
       transform="matrix(0.88901851,-0.45787125,0.45787125,0.88901851,0,0)" />
    <rect
       transform="matrix(0.95580019,0.29401699,-0.29401699,0.95580019,0,0)"
       y="1085.3687"
       x="753.27448"
       height="36.804077"
       width="8.8684521"
       id="rect3811"
       style="fill:#000080" />
    <rect
       transform="matrix(0.88032585,-0.47436948,0.46587701,0.88484948,0,0)"
       style="fill:#000080"
       id="rect3813"
       width="8.3176746"
       height="33.068066"
       x="-233.97937"
       y="1272.3278" />
    <rect
       transform="matrix(0.76410766,0.64508874,-0.64508874,0.76410766,0,0)"
       y="724.01953"
       x="1104.0061"
       height="30.152739"
       width="8.8684521"
       id="rect3815"
       style="fill:#000080" />
    <path
       sodipodi:type="arc"
       style="fill:#ffffff"
       id="path3819"
       sodipodi:cx="404.43982"
       sodipodi:cy="734.66919"
       sodipodi:rx="2.1465743"
       sodipodi:ry="2.1465743"
       d="m 406.58639,734.66919 a 2.1465743,2.1465743 0 1 1 -4.29314,0 2.1465743,2.1465743 0 1 1 4.29314,0 z"
       transform="matrix(1.2415833,0,0,1.2415833,-133.05225,279.9793)" />
    <rect
       style="fill:#008000"
       id="rect3825"
       width="24.877508"
       height="9.0912991"
       x="225.1534"
       y="-1286.7284"
       transform="matrix(-0.91756949,0.39757543,-0.48146675,-0.87646436,0,0)" />
    <rect
       style="fill:#000080"
       id="rect3827"
       width="8.8682833"
       height="29.051956"
       x="343.61685"
       y="1250.5215"
       transform="matrix(0.99975339,-0.02220703,0.0239218,0.99971383,0,0)" />
    <rect
       transform="matrix(-0.19867389,-0.98006565,0.957249,-0.2892652,0,0)"
       y="108.21946"
       x="-1299.2803"
       height="9.0912991"
       width="24.877508"
       id="rect3829"
       style="fill:#008000" />
    <rect
       y="955.38751"
       x="13.131983"
       height="431.33514"
       width="724.27936"
       id="rect3833"
       style="fill:none;stroke:#000000;stroke-opacity:1" />
    <path
       inkscape:connector-curvature="0"
       id="path3835"
       d="m 52.857143,1008.3558 654.999997,0"
       style="fill:none;stroke:#000000;stroke-width:1px;stroke-linecap:butt;stroke-linejoin:miter;stroke-opacity:1" />
    <path
       inkscape:connector-curvature="0"
       id="path3837"
       d="m 386.42857,1008.3558 0,56.0714 12.85027,-22.2573"
       style="fill:none;stroke:#000000;stroke-width:1px;stroke-linecap:butt;stroke-linejoin:miter;stroke-opacity:1" />
    <path
       style="fill:none;stroke:#000000;stroke-width:1px;stroke-linecap:butt;stroke-linejoin:miter;stroke-opacity:1"
       d="m 385.70741,1008.3558 0,56.0714 -12.85027,-22.2573"
       id="path3839"
       inkscape:connector-curvature="0" />
    <text
       sodipodi:linespacing="125%"
       id="text3841"
       y="999.07007"
       x="362.85715"
       style="font-size:40px;font-style:normal;font-weight:normal;line-height:125%;letter-spacing:0px;word-spacing:0px;fill:#000000;fill-opacity:1;stroke:none;font-family:Sans"
       xml:space="preserve"><tspan
         style="font-size:14px"
         y="999.07007"
         x="362.85715"
         id="tspan3843"
         sodipodi:role="line">Death</tspan></text>
    <text
       sodipodi:linespacing="125%"
       id="text3845"
       y="942.76404"
       x="295.72299"
       style="font-size:40px;font-style:normal;font-weight:normal;line-height:125%;letter-spacing:0px;word-spacing:0px;fill:#000000;fill-opacity:1;stroke:none;font-family:Sans"
       xml:space="preserve"><tspan
         y="942.76404"
         x="295.72299"
         id="tspan3847"
         sodipodi:role="line">LAUNCH</tspan></text>
    <path
       style="fill:none;stroke:#000000;stroke-width:1px;stroke-linecap:butt;stroke-linejoin:miter;stroke-opacity:1"
       d="M 577.80726,945.68438 C 410.12193,748.70464 46.467017,655.7706 46.467017,655.7706"
       id="path3849"
       inkscape:connector-curvature="0"
       transform="translate(2.6319828,379.81754)" />
    <path
       transform="matrix(1.2415833,0,0,1.2415833,-140.70129,281.86385)"
       d="m 406.58639,734.66919 a 2.1465743,2.1465743 0 1 1 -4.29314,0 2.1465743,2.1465743 0 1 1 4.29314,0 z"
       sodipodi:ry="2.1465743"
       sodipodi:rx="2.1465743"
       sodipodi:cy="734.66919"
       sodipodi:cx="404.43982"
       id="path3851"
       style="fill:#ffffff"
       sodipodi:type="arc" />
    <path
       transform="matrix(2.0317221,0,0,2.0317221,-465.0363,-304.67147)"
       d="m 407.59656,737.32086 a 0.63134533,0.63134533 0 1 1 -1.2627,0 0.63134533,0.63134533 0 1 1 1.2627,0 z"
       sodipodi:ry="0.63134533"
       sodipodi:rx="0.63134533"
       sodipodi:cy="737.32086"
       sodipodi:cx="406.96521"
       id="path3853"
       style="fill:#0000ff"
       sodipodi:type="arc" />
    <rect
       transform="matrix(-0.96659071,-0.25632478,0.26070553,-0.96541837,0,0)"
       y="-1106.4484"
       x="-676.4632"
       height="9.1930332"
       width="29.78883"
       id="rect3855"
       style="fill:#008000" />
    <rect
       style="fill:#000080"
       id="rect3859"
       width="7.6147599"
       height="25.063332"
       x="1266.4185"
       y="206.34319"
       transform="matrix(0.45234796,0.89184154,-0.86852526,0.4956449,0,0)" />
    <path
       sodipodi:type="arc"
       style="fill:#0000ff"
       id="path3861"
       sodipodi:cx="406.96521"
       sodipodi:cy="737.32086"
       sodipodi:rx="0.63134533"
       sodipodi:ry="0.63134533"
       d="m 407.59656,737.32086 a 0.63134533,0.63134533 0 1 1 -1.2627,0 0.63134533,0.63134533 0 1 1 1.2627,0 z"
       transform="matrix(2.0317221,0,0,2.0317221,-457.44269,-306.27887)" />
  </g>
</svg>
