<?xml version="1.0" encoding="UTF-8" standalone="no"?>
<!-- Created with Inkscape (http://www.inkscape.org/) -->

<svg
   xmlns:dc="http://purl.org/dc/elements/1.1/"
   xmlns:cc="http://creativecommons.org/ns#"
   xmlns:rdf="http://www.w3.org/1999/02/22-rdf-syntax-ns#"
   xmlns:svg="http://www.w3.org/2000/svg"
   xmlns="http://www.w3.org/2000/svg"
   xmlns:sodipodi="http://sodipodi.sourceforge.net/DTD/sodipodi-0.dtd"
   xmlns:inkscape="http://www.inkscape.org/namespaces/inkscape"
   width="415.38461"
   height="475.02264"
   id="svg3007"
   version="1.1"
   inkscape:version="0.48.3.1 r9886"
   sodipodi:docname="Microsoft.sitting.on.Nokias.head.i.was.gonna.add.puppet.strings.but.i.like.it.as.is.svg"
   inkscape:export-filename="/home/d3fault/test/microsoft.nokia.sit.head.png"
   inkscape:export-xdpi="127.50444"
   inkscape:export-ydpi="127.50444">
  <defs
     id="defs3009" />
  <sodipodi:namedview
     id="base"
     pagecolor="#ffffff"
     bordercolor="#666666"
     borderopacity="1.0"
     inkscape:pageopacity="0.0"
     inkscape:pageshadow="2"
     inkscape:zoom="1.3"
     inkscape:cx="202.90325"
     inkscape:cy="245.01254"
     inkscape:current-layer="layer1"
     inkscape:document-units="px"
     showgrid="false"
     inkscape:window-width="1440"
     inkscape:window-height="853"
     inkscape:window-x="0"
     inkscape:window-y="0"
     inkscape:window-maximized="1"
     fit-margin-top="10"
     fit-margin-left="10"
     fit-margin-right="10"
     fit-margin-bottom="10" />
  <metadata
     id="metadata3012">
    <rdf:RDF>
      <cc:Work
         rdf:about="">
        <dc:format>image/svg+xml</dc:format>
        <dc:type
           rdf:resource="http://purl.org/dc/dcmitype/StillImage" />
        <dc:title />
      </cc:Work>
    </rdf:RDF>
  </metadata>
  <g
     id="layer1"
     inkscape:label="Layer 1"
     inkscape:groupmode="layer"
     transform="translate(-92.307693,-16.153845)">
    <rect
       style="fill:#ffffff"
       id="rect3589"
       width="395.38461"
       height="453.84616"
       x="102.30769"
       y="26.153845"
       inkscape:export-filename="/home/d3fault/test/microsoft.nokia.sit.head.png"
       inkscape:export-xdpi="203.06441"
       inkscape:export-ydpi="203.06441" />
    <path
       sodipodi:type="arc"
       style="fill:#ff9955"
       id="path3015"
       sodipodi:cx="162.15469"
       sodipodi:cy="241.91573"
       sodipodi:rx="16.086775"
       sodipodi:ry="38.608261"
       d="m 178.24147,241.91573 c 0,21.32275 -7.2023,38.60826 -16.08678,38.60826 -8.88448,0 -16.08677,-17.28551 -16.08677,-38.60826 0,-21.32276 7.20229,-38.60827 16.08677,-38.60827 8.88448,0 16.08678,17.28551 16.08678,38.60827 z"
       transform="translate(110.05153,0)" />
    <path
       sodipodi:type="arc"
       style="fill:#ffccaa"
       id="path3017"
       sodipodi:cx="177.27628"
       sodipodi:cy="212.63779"
       sodipodi:rx="16.408512"
       sodipodi:ry="36.356113"
       d="m 193.68479,212.63779 c 0,20.07892 -7.34634,36.35611 -16.40851,36.35611 -9.06218,0 -16.40852,-16.27719 -16.40852,-36.35611 0,-20.07893 7.34634,-36.35612 16.40852,-36.35612 9.06217,0 16.40851,16.27719 16.40851,36.35612 z"
       transform="translate(109.3712,10.295536)" />
    <path
       sodipodi:type="arc"
       style="fill:#ffccaa"
       id="path3017-0"
       sodipodi:cx="177.27628"
       sodipodi:cy="212.63779"
       sodipodi:rx="16.408512"
       sodipodi:ry="36.356113"
       d="m 193.68479,212.63779 c 0,20.07892 -7.34634,36.35611 -16.40851,36.35611 -9.06218,0 -16.40852,-16.27719 -16.40852,-36.35611 0,-20.07893 7.34634,-36.35612 16.40852,-36.35612 9.06217,0 16.40851,16.27719 16.40851,36.35612 z"
       transform="translate(85.241031,5.4695043)" />
    <rect
       style="fill:#00ff00"
       id="rect3041"
       width="57.268921"
       height="120.97256"
       x="240.63928"
       y="279.88049" />
    <text
       xml:space="preserve"
       style="font-size:40px;font-style:normal;font-weight:normal;line-height:125%;letter-spacing:0px;word-spacing:0px;fill:#000000;fill-opacity:1;stroke:none;font-family:Sans"
       x="-75.393051"
       y="424.00336"
       id="text3080"
       sodipodi:linespacing="125%"
       transform="matrix(0.70710678,-0.70710678,0.70710678,0.70710678,0,0)"><tspan
         sodipodi:role="line"
         x="-75.393051"
         y="424.00336"
         id="tspan3082"><tspan
           x="-75.393051"
           y="424.00336"
           style="font-size:12px"
           id="tspan3084">No Key, Eh? </tspan></tspan></text>
    <rect
       style="fill:#0000ff"
       id="rect3053"
       width="62.362972"
       height="108.35567"
       x="248.0296"
       y="96.46772" />
    <text
       xml:space="preserve"
       style="font-size:40px;font-style:normal;font-weight:normal;line-height:125%;letter-spacing:0px;word-spacing:0px;fill:#fff6d5;fill-opacity:1;stroke:none;font-family:Sans"
       x="53.168468"
       y="308.13126"
       id="text3086"
       sodipodi:linespacing="125%"
       transform="matrix(0.70710678,-0.70710678,0.70710678,0.70710678,0,0)"><tspan
         sodipodi:role="line"
         x="53.168468"
         y="308.13126"
         id="tspan3088"><tspan
           x="53.168468"
           y="308.13126"
           style="font-size:14px;fill:#ffffff"
           id="tspan3090">Microshaft</tspan></tspan></text>
    <path
       sodipodi:type="arc"
       style="fill:#ffccaa"
       id="path3063"
       sodipodi:cx="176.56517"
       sodipodi:cy="72.691841"
       sodipodi:rx="35.468941"
       sodipodi:ry="39.366627"
       d="m 212.03411,72.691841 c 0,21.741588 -15.87998,39.366629 -35.46894,39.366629 -19.58895,0 -35.46894,-17.625041 -35.46894,-39.366629 0,-21.741587 15.87999,-39.366627 35.46894,-39.366627 19.58896,0 35.46894,17.62504 35.46894,39.366627 z"
       transform="translate(103.81523,-3.8976857)" />
    <path
       sodipodi:type="arc"
       style="fill:#ffccaa"
       id="path3065"
       sodipodi:cx="252.57004"
       sodipodi:cy="248.47746"
       sodipodi:rx="46.772228"
       sodipodi:ry="21.82704"
       d="m 299.34227,248.47746 c 0,12.05474 -20.94064,21.82704 -46.77223,21.82704 -25.83159,0 -46.77223,-9.7723 -46.77223,-21.82704 0,-12.05474 20.94064,-21.82704 46.77223,-21.82704 25.83159,0 46.77223,9.7723 46.77223,21.82704 z"
       transform="translate(84.326806,-20.267966)" />
    <path
       sodipodi:type="arc"
       style="fill:#ffccaa"
       id="path3065-0"
       sodipodi:cx="252.57004"
       sodipodi:cy="248.47746"
       sodipodi:rx="46.772228"
       sodipodi:ry="21.82704"
       d="m 299.34227,248.47746 c 0,12.05474 -20.94064,21.82704 -46.77223,21.82704 -25.83159,0 -46.77223,-9.7723 -46.77223,-21.82704 0,-12.05474 20.94064,-21.82704 46.77223,-21.82704 25.83159,0 46.77223,9.7723 46.77223,21.82704 z"
       transform="matrix(0.93969262,0.34202014,-0.34202014,0.93969262,182.20433,-75.296698)" />
    <path
       sodipodi:type="arc"
       style="fill:#ffccaa"
       id="path3087"
       sodipodi:cx="286.09015"
       sodipodi:cy="308.11206"
       sodipodi:rx="15.590743"
       sodipodi:ry="43.264313"
       d="m 301.68089,308.11206 c 0,23.89422 -6.98021,43.26431 -15.59074,43.26431 -8.61053,0 -15.59074,-19.37009 -15.59074,-43.26431 0,-23.89422 6.98021,-43.26431 15.59074,-43.26431 8.61053,0 15.59074,19.37009 15.59074,43.26431 z"
       transform="translate(81.988195,-13.252131)" />
    <path
       sodipodi:type="arc"
       style="fill:#ffccaa"
       id="path3087-8"
       sodipodi:cx="286.09015"
       sodipodi:cy="308.11206"
       sodipodi:rx="15.590743"
       sodipodi:ry="43.264313"
       d="m 301.68089,308.11206 c 0,23.89422 -6.98021,43.26431 -15.59074,43.26431 -8.61053,0 -15.59074,-19.37009 -15.59074,-43.26431 0,-23.89422 6.98021,-43.26431 15.59074,-43.26431 8.61053,0 15.59074,19.37009 15.59074,43.26431 z"
       transform="matrix(0.93969262,-0.34202014,0.34202014,0.93969262,22.70387,68.488488)" />
    <rect
       style="fill:#ffccaa"
       id="rect3107"
       width="119.26918"
       height="36.638245"
       x="310.39258"
       y="105.04263" />
    <rect
       style="fill:#0000ff"
       id="rect3109"
       width="38.197319"
       height="52.228989"
       x="310.39258"
       y="96.46772" />
    <rect
       style="fill:#ffccaa"
       id="rect3111"
       width="99.001221"
       height="36.638245"
       x="149.0284"
       y="105.82217" />
    <rect
       style="fill:#0000ff"
       id="rect3113"
       width="44.433617"
       height="53.788059"
       x="203.59599"
       y="96.46772" />
    <path
       sodipodi:type="arc"
       style="fill:#ffccaa"
       id="path3115"
       sodipodi:cx="38.58709"
       sodipodi:cy="125.70036"
       sodipodi:rx="26.114494"
       sodipodi:ry="26.114494"
       d="m 64.701584,125.70036 c 0,14.42264 -11.691857,26.1145 -26.114494,26.1145 -14.422637,0 -26.114495,-11.69186 -26.114495,-26.1145 0,-14.42263 11.691858,-26.114491 26.114495,-26.114491 14.422637,0 26.114494,11.691861 26.114494,26.114491 z"
       transform="matrix(0.86567164,0,0,0.86567164,98.474823,15.715818)" />
    <path
       sodipodi:type="arc"
       style="fill:#ffccaa"
       id="path3115-5"
       sodipodi:cx="38.58709"
       sodipodi:cy="125.70036"
       sodipodi:rx="26.114494"
       sodipodi:ry="26.114494"
       d="m 64.701584,125.70036 c 0,14.42264 -11.691857,26.1145 -26.114494,26.1145 -14.422637,0 -26.114495,-11.69186 -26.114495,-26.1145 0,-14.42263 11.691858,-26.114491 26.114495,-26.114491 14.422637,0 26.114494,11.691861 26.114494,26.114491 z"
       transform="matrix(0.86567164,0,0,0.86567164,413.40783,14.936283)" />
    <rect
       style="fill:#ff9955"
       id="rect3135-4"
       width="111.90935"
       height="49.629356"
       x="-16.741381"
       y="-403.08072"
       transform="matrix(-0.53265933,0.84632975,-0.53265933,-0.84632975,0,0)" />
    <rect
       style="fill:#00ff00"
       id="rect3139"
       width="50.669914"
       height="53.788063"
       x="190.34386"
       y="279.65894" />
    <rect
       style="fill:#ff9955"
       id="rect3135-4-2"
       width="112.31603"
       height="47.137444"
       x="500.82156"
       y="116.52811"
       transform="matrix(0.88357978,0.46828065,-0.80483096,0.59350411,0,0)" />
    <rect
       style="fill:#00ff00"
       id="rect3137"
       width="49.11084"
       height="56.906212"
       x="297.91998"
       y="279.65897" />
    <path
       sodipodi:type="arc"
       style="fill:#ff9955"
       id="path3177"
       sodipodi:cx="367.55176"
       sodipodi:cy="370.47504"
       sodipodi:rx="33.909866"
       sodipodi:ry="8.1851397"
       d="m 401.46162,370.47504 c 0,4.52052 -15.18196,8.18514 -33.90986,8.18514 -18.7279,0 -33.90987,-3.66462 -33.90987,-8.18514 0,-4.52053 15.18197,-8.18514 33.90987,-8.18514 18.7279,0 33.90986,3.66461 33.90986,8.18514 z"
       transform="matrix(0.93969262,0.34202014,-0.1791534,0.49221992,170.52614,63.968812)" />
    <path
       sodipodi:type="arc"
       style="fill:#ff9955"
       id="path3177-5"
       sodipodi:cx="367.55176"
       sodipodi:cy="370.47504"
       sodipodi:rx="33.909866"
       sodipodi:ry="8.1851397"
       d="m 401.46162,370.47504 c 0,4.52052 -15.18196,8.18514 -33.90986,8.18514 -18.7279,0 -33.90987,-3.66462 -33.90987,-8.18514 0,-4.52053 15.18197,-8.18514 33.90987,-8.18514 18.7279,0 33.90986,3.66461 33.90986,8.18514 z"
       transform="matrix(0.50641494,-0.62889443,0.31613047,0.27641694,-179.22515,528.49432)" />
    <path
       sodipodi:type="arc"
       style="fill:#ff9955"
       id="path3177-1"
       sodipodi:cx="367.55176"
       sodipodi:cy="370.47504"
       sodipodi:rx="33.909866"
       sodipodi:ry="8.1851397"
       d="m 401.46162,370.47504 c 0,4.52052 -15.18196,8.18514 -33.90986,8.18514 -18.7279,0 -33.90987,-3.66462 -33.90987,-8.18514 0,-4.52053 15.18197,-8.18514 33.90987,-8.18514 18.7279,0 33.90986,3.66461 33.90986,8.18514 z"
       transform="matrix(0.58596566,-0.73175694,0.36579015,0.32162793,-221.50574,557.92375)" />
    <path
       sodipodi:type="arc"
       style="fill:#ff9955"
       id="path3177-0"
       sodipodi:cx="367.55176"
       sodipodi:cy="370.47504"
       sodipodi:rx="33.909866"
       sodipodi:ry="8.1851397"
       d="m 401.46162,370.47504 c 0,4.52052 -15.18196,8.18514 -33.90986,8.18514 -18.7279,0 -33.90987,-3.66462 -33.90987,-8.18514 0,-4.52053 15.18197,-8.18514 33.90987,-8.18514 18.7279,0 33.90986,3.66461 33.90986,8.18514 z"
       transform="matrix(0.64278761,-0.76604444,0.40126136,0.33669826,-250.21161,573.26127)" />
    <path
       sodipodi:type="arc"
       style="fill:#ff9955"
       id="path3177-01"
       sodipodi:cx="367.55176"
       sodipodi:cy="370.47504"
       sodipodi:rx="33.909866"
       sodipodi:ry="8.1851397"
       d="m 401.46162,370.47504 c 0,4.52052 -15.18196,8.18514 -33.90986,8.18514 -18.7279,0 -33.90987,-3.66462 -33.90987,-8.18514 0,-4.52053 15.18197,-8.18514 33.90987,-8.18514 18.7279,0 33.90986,3.66461 33.90986,8.18514 z"
       transform="matrix(0.64278761,-0.76604444,0.40126136,0.33669826,-241.92785,578.29762)" />
    <path
       sodipodi:type="arc"
       style="fill:#ff9955"
       id="path3177-3"
       sodipodi:cx="367.55176"
       sodipodi:cy="370.47504"
       sodipodi:rx="33.909866"
       sodipodi:ry="8.1851397"
       d="m 401.46162,370.47504 c 0,4.52052 -15.18196,8.18514 -33.90986,8.18514 -18.7279,0 -33.90987,-3.66462 -33.90987,-8.18514 0,-4.52053 15.18197,-8.18514 33.90987,-8.18514 18.7279,0 33.90986,3.66461 33.90986,8.18514 z"
       transform="matrix(0.64278761,-0.76604444,0.40126136,0.33669826,-234.27134,586.89132)" />
    <text
       xml:space="preserve"
       style="font-size:40px;font-style:normal;font-weight:normal;line-height:125%;letter-spacing:0px;word-spacing:0px;fill:#000000;fill-opacity:1;stroke:none;font-family:Sans"
       x="120.20055"
       y="403.01852"
       id="text3092"
       sodipodi:linespacing="125%"><tspan
         sodipodi:role="line"
         x="120.20055"
         y="403.01852"
         id="tspan3094"><tspan
           x="120.20055"
           y="403.01852"
           style="font-size:8px"
           id="tspan3096">M</tspan></tspan></text>
    <text
       xml:space="preserve"
       style="font-size:40px;font-style:normal;font-weight:normal;line-height:125%;letter-spacing:0px;word-spacing:0px;fill:#000000;fill-opacity:1;stroke:none;font-family:Sans"
       x="126.08684"
       y="410.41907"
       id="text3098"
       sodipodi:linespacing="125%"><tspan
         sodipodi:role="line"
         x="126.08684"
         y="410.41907"
         id="tspan3100"><tspan
           x="126.08684"
           y="410.41907"
           style="font-size:8px"
           id="tspan3102">O</tspan></tspan></text>
    <text
       xml:space="preserve"
       style="font-size:40px;font-style:normal;font-weight:normal;line-height:125%;letter-spacing:0px;word-spacing:0px;fill:#000000;fill-opacity:1;stroke:none;font-family:Sans"
       x="132.32314"
       y="418.21445"
       id="text3104"
       sodipodi:linespacing="125%"><tspan
         sodipodi:role="line"
         x="132.32314"
         y="418.21445"
         id="tspan3106"><tspan
           x="132.32314"
           y="418.21445"
           style="font-size:8px"
           id="tspan3108">B</tspan></tspan></text>
    <text
       xml:space="preserve"
       style="font-size:40px;font-style:normal;font-weight:normal;line-height:125%;letter-spacing:0px;word-spacing:0px;fill:#000000;fill-opacity:1;stroke:none;font-family:Sans"
       x="146.3548"
       y="435.36426"
       id="text3110"
       sodipodi:linespacing="125%"><tspan
         sodipodi:role="line"
         x="146.3548"
         y="435.36426"
         id="tspan3112"><tspan
           x="146.3548"
           y="435.36426"
           style="font-size:8px"
           id="tspan3114">L</tspan></tspan></text>
    <text
       xml:space="preserve"
       style="font-size:40px;font-style:normal;font-weight:normal;line-height:125%;letter-spacing:0px;word-spacing:0px;fill:#000000;fill-opacity:1;stroke:none;font-family:Sans"
       x="139.33897"
       y="426.78934"
       id="text3116"
       sodipodi:linespacing="125%"><tspan
         sodipodi:role="line"
         x="139.33897"
         y="426.78934"
         id="tspan3118"><tspan
           x="139.33897"
           y="426.78934"
           style="font-size:8px"
           id="tspan3120">I</tspan></tspan></text>
    <text
       xml:space="preserve"
       style="font-size:40px;font-style:normal;font-weight:normal;line-height:125%;letter-spacing:0px;word-spacing:0px;fill:#000000;fill-opacity:1;stroke:none;font-family:Sans"
       x="542.71704"
       y="198.88057"
       id="text3122"
       sodipodi:linespacing="125%"
       transform="matrix(0.93969262,0.34202014,-0.34202014,0.93969262,0,0)"><tspan
         sodipodi:role="line"
         x="542.71704"
         y="198.88057"
         id="tspan3124"><tspan
           x="542.71704"
           y="198.88057"
           style="font-size:10px"
           id="tspan3126">QAML</tspan></tspan></text>
    <rect
       style="fill:#784421"
       id="rect3320"
       width="118.2353"
       height="75.882355"
       x="372.03619"
       y="405.29413"
       ry="0" />
    <path
       sodipodi:type="arc"
       style="fill:#ff9955"
       id="path3177-54"
       sodipodi:cx="367.55176"
       sodipodi:cy="370.47504"
       sodipodi:rx="33.909866"
       sodipodi:ry="8.1851397"
       d="m 401.46162,370.47504 c 0,4.52052 -15.18196,8.18514 -33.90986,8.18514 -18.7279,0 -33.90987,-3.66462 -33.90987,-8.18514 0,-4.52053 15.18197,-8.18514 33.90987,-8.18514 18.7279,0 33.90986,3.66461 33.90986,8.18514 z"
       transform="matrix(1,0,0,0.5238095,63.896205,231.82401)" />
    <text
       xml:space="preserve"
       style="font-size:40px;font-style:normal;font-weight:normal;line-height:125%;letter-spacing:0px;word-spacing:0px;fill:#000000;fill-opacity:1;stroke:none;font-family:Sans"
       x="423.8046"
       y="428.78366"
       id="text3128"
       sodipodi:linespacing="125%"><tspan
         sodipodi:role="line"
         x="423.8046"
         y="428.78366"
         id="tspan3130"><tspan
           x="423.8046"
           y="428.78366"
           style="font-size:10px"
           id="tspan3132">Cute</tspan></tspan></text>
    <path
       sodipodi:type="arc"
       style="fill:#ff0000"
       id="path3375"
       sodipodi:cx="306.17648"
       sodipodi:cy="427.94116"
       sodipodi:rx="10.294118"
       sodipodi:ry="3.2352941"
       d="m 316.4706,427.94116 c 0,1.78681 -4.60883,3.2353 -10.29412,3.2353 -5.68528,0 -10.29411,-1.44849 -10.29411,-3.2353 0,-1.7868 4.60883,-3.23529 10.29411,-3.23529 5.68529,0 10.29412,1.44849 10.29412,3.23529 z"
       transform="translate(101.44796,-1.7647059)" />
    <path
       sodipodi:type="arc"
       style="fill:#ff0000"
       id="path3375-2"
       sodipodi:cx="306.17648"
       sodipodi:cy="427.94116"
       sodipodi:rx="10.294118"
       sodipodi:ry="3.2352941"
       d="m 316.4706,427.94116 c 0,1.78681 -4.60883,3.2353 -10.29412,3.2353 -5.68528,0 -10.29411,-1.44849 -10.29411,-3.2353 0,-1.7868 4.60883,-3.23529 10.29411,-3.23529 5.68529,0 10.29412,1.44849 10.29412,3.23529 z"
       transform="matrix(0.93969262,0.34202015,-0.34202015,0.93969262,287.74775,-135.08696)" />
    <path
       sodipodi:type="arc"
       style="fill:#ff0000"
       id="path3375-2-4"
       sodipodi:cx="306.17648"
       sodipodi:cy="427.94116"
       sodipodi:rx="10.294118"
       sodipodi:ry="3.2352941"
       d="m 316.4706,427.94116 c 0,1.78681 -4.60883,3.2353 -10.29412,3.2353 -5.68528,0 -10.29411,-1.44849 -10.29411,-3.2353 0,-1.7868 4.60883,-3.23529 10.29411,-3.23529 5.68529,0 10.29412,1.44849 10.29412,3.23529 z"
       transform="matrix(0.93969262,0.34202015,-0.34202015,0.93969262,283.04186,-128.02815)" />
    <path
       sodipodi:type="arc"
       style="fill:#ff0000"
       id="path3375-2-8"
       sodipodi:cx="306.17648"
       sodipodi:cy="427.94116"
       sodipodi:rx="10.294118"
       sodipodi:ry="3.2352941"
       d="m 316.4706,427.94116 c 0,1.78681 -4.60883,3.2353 -10.29412,3.2353 -5.68528,0 -10.29411,-1.44849 -10.29411,-3.2353 0,-1.7868 4.60883,-3.23529 10.29411,-3.23529 5.68529,0 10.29412,1.44849 10.29412,3.23529 z"
       transform="matrix(0.93969262,0.34202015,-0.34202015,0.93969262,278.33598,-121.55756)" />
    <path
       sodipodi:type="arc"
       style="fill:#ff0000"
       id="path3375-2-49"
       sodipodi:cx="306.17648"
       sodipodi:cy="427.94116"
       sodipodi:rx="10.294118"
       sodipodi:ry="3.2352941"
       d="m 316.4706,427.94116 c 0,1.78681 -4.60883,3.2353 -10.29412,3.2353 -5.68528,0 -10.29411,-1.44849 -10.29411,-3.2353 0,-1.7868 4.60883,-3.23529 10.29411,-3.23529 5.68529,0 10.29412,1.44849 10.29412,3.23529 z"
       transform="matrix(0.93969262,0.34202015,-0.34202015,0.93969262,298.92421,-148.02816)" />
    <path
       sodipodi:type="arc"
       style="fill:#ff9955"
       id="path3177-54-9"
       sodipodi:cx="367.55176"
       sodipodi:cy="370.47504"
       sodipodi:rx="33.909866"
       sodipodi:ry="8.1851397"
       d="m 401.46162,370.47504 c 0,4.52052 -15.18196,8.18514 -33.90986,8.18514 -18.7279,0 -33.90987,-3.66462 -33.90987,-8.18514 0,-4.52053 15.18197,-8.18514 33.90987,-8.18514 18.7279,0 33.90986,3.66461 33.90986,8.18514 z"
       transform="matrix(1,0,0,0.5238095,63.411859,248.41116)" />
    <text
       xml:space="preserve"
       style="font-size:40px;font-style:normal;font-weight:normal;line-height:125%;letter-spacing:0px;word-spacing:0px;fill:#000000;fill-opacity:1;stroke:none;font-family:Sans"
       x="418.61435"
       y="444.37405"
       id="text3134"
       sodipodi:linespacing="125%"><tspan
         sodipodi:role="line"
         x="418.61435"
         y="444.37405"
         id="tspan3136"><tspan
           x="418.61435"
           y="444.37405"
           style="font-size:9px"
           id="tspan3138">MeStop</tspan></tspan></text>
    <path
       sodipodi:type="arc"
       style="fill:#ff0000"
       id="path3375-9"
       sodipodi:cx="306.17648"
       sodipodi:cy="427.94116"
       sodipodi:rx="10.294118"
       sodipodi:ry="3.2352941"
       d="m 316.4706,427.94116 c 0,1.78681 -4.60883,3.2353 -10.29412,3.2353 -5.68528,0 -10.29411,-1.44849 -10.29411,-3.2353 0,-1.7868 4.60883,-3.23529 10.29411,-3.23529 5.68529,0 10.29412,1.44849 10.29412,3.23529 z"
       transform="translate(100.96361,14.822434)" />
    <path
       sodipodi:type="arc"
       style="fill:#ff9955"
       id="path3177-54-9-9"
       sodipodi:cx="367.55176"
       sodipodi:cy="370.47504"
       sodipodi:rx="33.909866"
       sodipodi:ry="8.1851397"
       d="m 401.46162,370.47504 c 0,4.52052 -15.18196,8.18514 -33.90986,8.18514 -18.7279,0 -33.90987,-3.66462 -33.90987,-8.18514 0,-4.52053 15.18197,-8.18514 33.90987,-8.18514 18.7279,0 33.90986,3.66461 33.90986,8.18514 z"
       transform="matrix(1,0,0,0.5238095,64.000099,261.35234)" />
    <text
       xml:space="preserve"
       style="font-size:40px;font-style:normal;font-weight:normal;line-height:125%;letter-spacing:0px;word-spacing:0px;fill:#000000;fill-opacity:1;stroke:none;font-family:Sans"
       x="420.37906"
       y="458.08319"
       id="text3140"
       sodipodi:linespacing="125%"><tspan
         sodipodi:role="line"
         x="420.37906"
         y="458.08319"
         id="tspan3142"><tspan
           x="420.37906"
           y="458.08319"
           style="font-size:8px"
           id="tspan3144">C++ API</tspan></tspan></text>
    <path
       sodipodi:type="arc"
       style="fill:#ff0000"
       id="path3375-9-9"
       sodipodi:cx="306.17648"
       sodipodi:cy="427.94116"
       sodipodi:rx="10.294118"
       sodipodi:ry="3.2352941"
       d="m 316.4706,427.94116 c 0,1.78681 -4.60883,3.2353 -10.29412,3.2353 -5.68528,0 -10.29411,-1.44849 -10.29411,-3.2353 0,-1.7868 4.60883,-3.23529 10.29411,-3.23529 5.68529,0 10.29412,1.44849 10.29412,3.23529 z"
       transform="translate(101.55184,27.763605)" />
    <path
       sodipodi:type="arc"
       style="fill:#ff9955"
       id="path3177-54-9-9-6"
       sodipodi:cx="367.55176"
       sodipodi:cy="370.47504"
       sodipodi:rx="33.909866"
       sodipodi:ry="8.1851397"
       d="m 401.46162,370.47504 c 0,4.52052 -15.18196,8.18514 -33.90986,8.18514 -18.7279,0 -33.90987,-3.66462 -33.90987,-8.18514 0,-4.52053 15.18197,-8.18514 33.90987,-8.18514 18.7279,0 33.90986,3.66461 33.90986,8.18514 z"
       transform="matrix(1,0,0,0.5238095,64.588335,273.58871)" />
    <text
       xml:space="preserve"
       style="font-size:40px;font-style:normal;font-weight:normal;line-height:125%;letter-spacing:0px;word-spacing:0px;fill:#000000;fill-opacity:1;stroke:none;font-family:Sans"
       x="420.96732"
       y="470.31958"
       id="text3146"
       sodipodi:linespacing="125%"><tspan
         sodipodi:role="line"
         x="420.96732"
         y="470.31958"
         id="tspan3148"><tspan
           x="420.96732"
           y="470.31958"
           style="font-size:8px"
           id="tspan3150">Simba</tspan></tspan></text>
    <path
       sodipodi:type="arc"
       style="fill:#ff0000"
       id="path3375-9-9-2"
       sodipodi:cx="306.17648"
       sodipodi:cy="427.94116"
       sodipodi:rx="10.294118"
       sodipodi:ry="3.2352941"
       d="m 316.4706,427.94116 c 0,1.78681 -4.60883,3.2353 -10.29412,3.2353 -5.68528,0 -10.29411,-1.44849 -10.29411,-3.2353 0,-1.7868 4.60883,-3.23529 10.29411,-3.23529 5.68529,0 10.29412,1.44849 10.29412,3.23529 z"
       transform="translate(102.14007,39.999986)" />
    <text
       xml:space="preserve"
       style="font-size:40px;font-style:normal;font-weight:normal;line-height:125%;letter-spacing:0px;word-spacing:0px;fill:#000000;fill-opacity:1;stroke:none;font-family:Sans"
       x="467.04724"
       y="111.74952"
       id="text3152"
       sodipodi:linespacing="125%"
       transform="matrix(0.8660254,0.50000001,-0.50000001,0.8660254,0,0)"><tspan
         sodipodi:role="line"
         x="467.04724"
         y="111.74952"
         id="tspan3154"><tspan
           x="467.04724"
           y="111.74952"
           style="font-size:10px"
           id="tspan3156">Mobile Software</tspan></tspan></text>
    <text
       xml:space="preserve"
       style="font-size:40px;font-style:normal;font-weight:normal;line-height:125%;letter-spacing:0px;word-spacing:0px;fill:#000000;fill-opacity:1;stroke:none;font-family:Sans"
       x="-270.04913"
       y="333.21521"
       id="text3158"
       sodipodi:linespacing="125%"
       transform="matrix(0.50000001,-0.8660254,0.8660254,0.50000001,0,0)"><tspan
         sodipodi:role="line"
         x="-270.04913"
         y="333.21521"
         id="tspan3160"><tspan
           x="-270.04913"
           y="333.21521"
           style="font-size:9px"
           id="tspan3162">Mobile Hardware</tspan></tspan></text>
    <rect
       style="fill:#241c1c"
       id="rect3568"
       width="67.647057"
       height="78.823532"
       x="234.97737"
       y="401.17648" />
  </g>
</svg>
