<?xml version="1.0" encoding="UTF-8" standalone="no"?>
<!-- Created with Inkscape (http://www.inkscape.org/) -->

<svg
   xmlns:dc="http://purl.org/dc/elements/1.1/"
   xmlns:cc="http://creativecommons.org/ns#"
   xmlns:rdf="http://www.w3.org/1999/02/22-rdf-syntax-ns#"
   xmlns:svg="http://www.w3.org/2000/svg"
   xmlns="http://www.w3.org/2000/svg"
   xmlns:sodipodi="http://sodipodi.sourceforge.net/DTD/sodipodi-0.dtd"
   xmlns:inkscape="http://www.inkscape.org/namespaces/inkscape"
   width="640px"
   height="480px"
   id="svg3007"
   version="1.1"
   inkscape:version="0.48.1 r9760"
   sodipodi:docname="Microsoft.sitting.on.Nokias.head.i.was.gonna.add.puppet.strings.but.i.like.it.as.is.svg"
   inkscape:export-filename="/home/d3fault/test/microsoft.nokia.sit.head.png"
   inkscape:export-xdpi="127.50444"
   inkscape:export-ydpi="127.50444">
  <defs
     id="defs3009" />
  <sodipodi:namedview
     id="base"
     pagecolor="#ffffff"
     bordercolor="#666666"
     borderopacity="1.0"
     inkscape:pageopacity="0.0"
     inkscape:pageshadow="2"
     inkscape:zoom="1.3"
     inkscape:cx="293.67248"
     inkscape:cy="242.03144"
     inkscape:current-layer="layer1"
     inkscape:document-units="px"
     showgrid="false"
     inkscape:window-width="1280"
     inkscape:window-height="976"
     inkscape:window-x="-3"
     inkscape:window-y="-3"
     inkscape:window-maximized="1" />
  <metadata
     id="metadata3012">
    <rdf:RDF>
      <cc:Work
         rdf:about="">
        <dc:format>image/svg+xml</dc:format>
        <dc:type
           rdf:resource="http://purl.org/dc/dcmitype/StillImage" />
        <dc:title></dc:title>
      </cc:Work>
    </rdf:RDF>
  </metadata>
  <g
     id="layer1"
     inkscape:label="Layer 1"
     inkscape:groupmode="layer">
    <rect
       style="fill:#ffffff"
       id="rect3589"
       width="395.38461"
       height="453.84616"
       x="102.30769"
       y="26.153845"
       inkscape:export-filename="/home/d3fault/test/microsoft.nokia.sit.head.png"
       inkscape:export-xdpi="203.06441"
       inkscape:export-ydpi="203.06441" />
    <path
       sodipodi:type="arc"
       style="fill:#ff9955"
       id="path3015"
       sodipodi:cx="162.15469"
       sodipodi:cy="241.91573"
       sodipodi:rx="16.086775"
       sodipodi:ry="38.608261"
       d="m 178.24147,241.91573 a 16.086775,38.608261 0 1 1 -32.17355,0 16.086775,38.608261 0 1 1 32.17355,0 z"
       transform="translate(110.05153,0)" />
    <path
       sodipodi:type="arc"
       style="fill:#ffccaa"
       id="path3017"
       sodipodi:cx="177.27628"
       sodipodi:cy="212.63779"
       sodipodi:rx="16.408512"
       sodipodi:ry="36.356113"
       d="m 193.68479,212.63779 a 16.408512,36.356113 0 1 1 -32.81703,0 16.408512,36.356113 0 1 1 32.81703,0 z"
       transform="translate(109.3712,10.295536)" />
    <path
       sodipodi:type="arc"
       style="fill:#ffccaa"
       id="path3017-0"
       sodipodi:cx="177.27628"
       sodipodi:cy="212.63779"
       sodipodi:rx="16.408512"
       sodipodi:ry="36.356113"
       d="m 193.68479,212.63779 a 16.408512,36.356113 0 1 1 -32.81703,0 16.408512,36.356113 0 1 1 32.81703,0 z"
       transform="translate(85.241031,5.4695043)" />
    <rect
       style="fill:#00ff00"
       id="rect3041"
       width="57.268921"
       height="120.97256"
       x="240.63928"
       y="279.88049" />
    <flowRoot
       xml:space="preserve"
       id="flowRoot3043"
       style="font-size:40px;font-style:normal;font-weight:normal;line-height:125%;letter-spacing:0px;word-spacing:0px;fill:#000000;fill-opacity:1;stroke:none;font-family:Sans"
       transform="matrix(0.70710678,-0.70710678,0.70710678,0.70710678,-90.00634,222.29522)"><flowRegion
         id="flowRegion3045"><rect
           id="rect3047"
           width="73.35569"
           height="14.799834"
           x="145.42445"
           y="318.48877" /></flowRegion><flowPara
         id="flowPara3049"><flowSpan
           style="font-size:12px"
           id="flowSpan3051">No Key, Eh? </flowSpan></flowPara></flowRoot>    <rect
       style="fill:#0000ff"
       id="rect3053"
       width="62.362972"
       height="108.35567"
       x="248.0296"
       y="96.46772" />
    <flowRoot
       xml:space="preserve"
       id="flowRoot3055"
       style="font-size:40px;font-style:normal;font-weight:normal;line-height:125%;letter-spacing:0px;word-spacing:0px;fill:#fff6d5;fill-opacity:1;stroke:none;font-family:Sans"
       transform="matrix(0.70710678,-0.70710678,0.70710678,0.70710678,-0.63976395,238.34505)"><flowRegion
         id="flowRegion3057"><rect
           id="rect3059"
           width="213.59319"
           height="47.551765"
           x="222.16809"
           y="126.09013"
           style="fill:#fff6d5" /></flowRegion><flowPara
         id="flowPara3061"
         style="font-size:14px;fill:#ffffff">Microshaft</flowPara></flowRoot>    <path
       sodipodi:type="arc"
       style="fill:#ffccaa"
       id="path3063"
       sodipodi:cx="176.56517"
       sodipodi:cy="72.691841"
       sodipodi:rx="35.468941"
       sodipodi:ry="39.366627"
       d="m 212.03411,72.691841 a 35.468941,39.366627 0 1 1 -70.93788,0 35.468941,39.366627 0 1 1 70.93788,0 z"
       transform="translate(103.81523,-3.8976857)" />
    <path
       sodipodi:type="arc"
       style="fill:#ffccaa"
       id="path3065"
       sodipodi:cx="252.57004"
       sodipodi:cy="248.47746"
       sodipodi:rx="46.772228"
       sodipodi:ry="21.82704"
       d="m 299.34227,248.47746 a 46.772228,21.82704 0 1 1 -93.54446,0 46.772228,21.82704 0 1 1 93.54446,0 z"
       transform="translate(84.326806,-20.267966)" />
    <path
       sodipodi:type="arc"
       style="fill:#ffccaa"
       id="path3065-0"
       sodipodi:cx="252.57004"
       sodipodi:cy="248.47746"
       sodipodi:rx="46.772228"
       sodipodi:ry="21.82704"
       d="m 299.34227,248.47746 a 46.772228,21.82704 0 1 1 -93.54446,0 46.772228,21.82704 0 1 1 93.54446,0 z"
       transform="matrix(0.93969262,0.34202014,-0.34202014,0.93969262,182.20433,-75.296698)" />
    <path
       sodipodi:type="arc"
       style="fill:#ffccaa"
       id="path3087"
       sodipodi:cx="286.09015"
       sodipodi:cy="308.11206"
       sodipodi:rx="15.590743"
       sodipodi:ry="43.264313"
       d="m 301.68089,308.11206 a 15.590743,43.264313 0 1 1 -31.18148,0 15.590743,43.264313 0 1 1 31.18148,0 z"
       transform="translate(81.988195,-13.252131)" />
    <path
       sodipodi:type="arc"
       style="fill:#ffccaa"
       id="path3087-8"
       sodipodi:cx="286.09015"
       sodipodi:cy="308.11206"
       sodipodi:rx="15.590743"
       sodipodi:ry="43.264313"
       d="m 301.68089,308.11206 a 15.590743,43.264313 0 1 1 -31.18148,0 15.590743,43.264313 0 1 1 31.18148,0 z"
       transform="matrix(0.93969262,-0.34202014,0.34202014,0.93969262,22.70387,68.488488)" />
    <rect
       style="fill:#ffccaa"
       id="rect3107"
       width="119.26918"
       height="36.638245"
       x="310.39258"
       y="105.04263" />
    <rect
       style="fill:#0000ff"
       id="rect3109"
       width="38.197319"
       height="52.228989"
       x="310.39258"
       y="96.46772" />
    <rect
       style="fill:#ffccaa"
       id="rect3111"
       width="99.001221"
       height="36.638245"
       x="149.0284"
       y="105.82217" />
    <rect
       style="fill:#0000ff"
       id="rect3113"
       width="44.433617"
       height="53.788059"
       x="203.59599"
       y="96.46772" />
    <path
       sodipodi:type="arc"
       style="fill:#ffccaa"
       id="path3115"
       sodipodi:cx="38.58709"
       sodipodi:cy="125.70036"
       sodipodi:rx="26.114494"
       sodipodi:ry="26.114494"
       d="m 64.701584,125.70036 a 26.114494,26.114494 0 1 1 -52.228989,0 26.114494,26.114494 0 1 1 52.228989,0 z"
       transform="matrix(0.86567164,0,0,0.86567164,98.474823,15.715818)" />
    <path
       sodipodi:type="arc"
       style="fill:#ffccaa"
       id="path3115-5"
       sodipodi:cx="38.58709"
       sodipodi:cy="125.70036"
       sodipodi:rx="26.114494"
       sodipodi:ry="26.114494"
       d="m 64.701584,125.70036 a 26.114494,26.114494 0 1 1 -52.228989,0 26.114494,26.114494 0 1 1 52.228989,0 z"
       transform="matrix(0.86567164,0,0,0.86567164,413.40783,14.936283)" />
    <rect
       style="fill:#ff9955"
       id="rect3135-4"
       width="111.90935"
       height="49.629356"
       x="-16.741381"
       y="-403.08072"
       transform="matrix(-0.53265933,0.84632975,-0.53265933,-0.84632975,0,0)" />
    <rect
       style="fill:#00ff00"
       id="rect3139"
       width="50.669914"
       height="53.788063"
       x="190.34386"
       y="279.65894" />
    <rect
       style="fill:#ff9955"
       id="rect3135-4-2"
       width="112.31603"
       height="47.137444"
       x="500.82156"
       y="116.52811"
       transform="matrix(0.88357978,0.46828065,-0.80483096,0.59350411,0,0)" />
    <rect
       style="fill:#00ff00"
       id="rect3137"
       width="49.11084"
       height="56.906212"
       x="297.91998"
       y="279.65897" />
    <path
       sodipodi:type="arc"
       style="fill:#ff9955"
       id="path3177"
       sodipodi:cx="367.55176"
       sodipodi:cy="370.47504"
       sodipodi:rx="33.909866"
       sodipodi:ry="8.1851397"
       d="m 401.46162,370.47504 a 33.909866,8.1851397 0 1 1 -67.81973,0 33.909866,8.1851397 0 1 1 67.81973,0 z"
       transform="matrix(0.93969262,0.34202014,-0.1791534,0.49221992,170.52614,63.968812)" />
    <path
       sodipodi:type="arc"
       style="fill:#ff9955"
       id="path3177-5"
       sodipodi:cx="367.55176"
       sodipodi:cy="370.47504"
       sodipodi:rx="33.909866"
       sodipodi:ry="8.1851397"
       d="m 401.46162,370.47504 a 33.909866,8.1851397 0 1 1 -67.81973,0 33.909866,8.1851397 0 1 1 67.81973,0 z"
       transform="matrix(0.50641494,-0.62889443,0.31613047,0.27641694,-179.22515,528.49432)" />
    <path
       sodipodi:type="arc"
       style="fill:#ff9955"
       id="path3177-1"
       sodipodi:cx="367.55176"
       sodipodi:cy="370.47504"
       sodipodi:rx="33.909866"
       sodipodi:ry="8.1851397"
       d="m 401.46162,370.47504 a 33.909866,8.1851397 0 1 1 -67.81973,0 33.909866,8.1851397 0 1 1 67.81973,0 z"
       transform="matrix(0.58596566,-0.73175694,0.36579015,0.32162793,-221.50574,557.92375)" />
    <path
       sodipodi:type="arc"
       style="fill:#ff9955"
       id="path3177-0"
       sodipodi:cx="367.55176"
       sodipodi:cy="370.47504"
       sodipodi:rx="33.909866"
       sodipodi:ry="8.1851397"
       d="m 401.46162,370.47504 a 33.909866,8.1851397 0 1 1 -67.81973,0 33.909866,8.1851397 0 1 1 67.81973,0 z"
       transform="matrix(0.64278761,-0.76604444,0.40126136,0.33669826,-250.21161,573.26127)" />
    <path
       sodipodi:type="arc"
       style="fill:#ff9955"
       id="path3177-01"
       sodipodi:cx="367.55176"
       sodipodi:cy="370.47504"
       sodipodi:rx="33.909866"
       sodipodi:ry="8.1851397"
       d="m 401.46162,370.47504 a 33.909866,8.1851397 0 1 1 -67.81973,0 33.909866,8.1851397 0 1 1 67.81973,0 z"
       transform="matrix(0.64278761,-0.76604444,0.40126136,0.33669826,-241.92785,578.29762)" />
    <path
       sodipodi:type="arc"
       style="fill:#ff9955"
       id="path3177-3"
       sodipodi:cx="367.55176"
       sodipodi:cy="370.47504"
       sodipodi:rx="33.909866"
       sodipodi:ry="8.1851397"
       d="m 401.46162,370.47504 a 33.909866,8.1851397 0 1 1 -67.81973,0 33.909866,8.1851397 0 1 1 67.81973,0 z"
       transform="matrix(0.64278761,-0.76604444,0.40126136,0.33669826,-234.27134,586.89132)" />
    <flowRoot
       xml:space="preserve"
       id="flowRoot3225"
       style="font-size:40px;font-style:normal;font-weight:normal;line-height:125%;letter-spacing:0px;word-spacing:0px;fill:#000000;fill-opacity:1;stroke:none;font-family:Sans"
       transform="translate(42.2318,-20.267966)"><flowRegion
         id="flowRegion3227"><rect
           id="rect3229"
           width="18.708899"
           height="19.488428"
           x="77.953712"
           y="415.29843" /></flowRegion><flowPara
         id="flowPara3231"
         style="font-size:8px">M</flowPara></flowRoot>    <flowRoot
       xml:space="preserve"
       id="flowRoot3225-3"
       style="font-size:40px;font-style:normal;font-weight:normal;line-height:125%;letter-spacing:0px;word-spacing:0px;fill:#000000;fill-opacity:1;stroke:none;font-family:Sans"
       transform="translate(48.118085,-12.867432)"><flowRegion
         id="flowRegion3227-0"><rect
           id="rect3229-0"
           width="18.708899"
           height="19.488428"
           x="77.953712"
           y="415.29843" /></flowRegion><flowPara
         id="flowPara3231-4"
         style="font-size:8px">O</flowPara></flowRoot>    <flowRoot
       xml:space="preserve"
       id="flowRoot3225-8"
       style="font-size:40px;font-style:normal;font-weight:normal;line-height:125%;letter-spacing:0px;word-spacing:0px;fill:#000000;fill-opacity:1;stroke:none;font-family:Sans"
       transform="translate(54.354383,-5.0720606)"><flowRegion
         id="flowRegion3227-2"><rect
           id="rect3229-2"
           width="18.708899"
           height="19.488428"
           x="77.953712"
           y="415.29843" /></flowRegion><flowPara
         id="flowPara3231-0"
         style="font-size:8px">B</flowPara></flowRoot>    <flowRoot
       xml:space="preserve"
       id="flowRoot3225-2"
       style="font-size:40px;font-style:normal;font-weight:normal;line-height:125%;letter-spacing:0px;word-spacing:0px;fill:#000000;fill-opacity:1;stroke:none;font-family:Sans"
       transform="translate(68.386051,12.077757)"><flowRegion
         id="flowRegion3227-4"><rect
           id="rect3229-5"
           width="18.708899"
           height="19.488428"
           x="77.953712"
           y="415.29843" /></flowRegion><flowPara
         id="flowPara3231-8"
         style="font-size:8px">L</flowPara></flowRoot>    <flowRoot
       xml:space="preserve"
       id="flowRoot3225-5"
       style="font-size:40px;font-style:normal;font-weight:normal;line-height:125%;letter-spacing:0px;word-spacing:0px;fill:#000000;fill-opacity:1;stroke:none;font-family:Sans"
       transform="translate(61.370217,3.5028478)"><flowRegion
         id="flowRegion3227-42"><rect
           id="rect3229-7"
           width="18.708899"
           height="19.488428"
           x="77.953712"
           y="415.29843" /></flowRegion><flowPara
         id="flowPara3231-5"
         style="font-size:8px">I</flowPara></flowRoot>    <flowRoot
       xml:space="preserve"
       id="flowRoot3312"
       style="font-size:40px;font-style:normal;font-weight:normal;line-height:125%;letter-spacing:0px;word-spacing:0px;fill:#000000;fill-opacity:1;stroke:none;font-family:Sans"
       transform="matrix(0.93969262,0.34202014,-0.34202014,0.93969262,254.0449,-100.34367)"><flowRegion
         id="flowRegion3314"><rect
           id="rect3316"
           width="119.26919"
           height="48.331303"
           x="338.31912"
           y="370.08527" /></flowRegion><flowPara
         id="flowPara3318"
         style="font-size:10px">QAML</flowPara></flowRoot>    <rect
       style="fill:#784421"
       id="rect3320"
       width="118.2353"
       height="75.882355"
       x="372.03619"
       y="405.29413"
       ry="0" />
    <path
       sodipodi:type="arc"
       style="fill:#ff9955"
       id="path3177-54"
       sodipodi:cx="367.55176"
       sodipodi:cy="370.47504"
       sodipodi:rx="33.909866"
       sodipodi:ry="8.1851397"
       d="m 401.46162,370.47504 a 33.909866,8.1851397 0 1 1 -67.81973,0 33.909866,8.1851397 0 1 1 67.81973,0 z"
       transform="matrix(1,0,0,0.5238095,63.896205,231.82401)" />
    <flowRoot
       xml:space="preserve"
       id="flowRoot3367"
       style="font-size:40px;font-style:normal;font-weight:normal;line-height:125%;letter-spacing:0px;word-spacing:0px;fill:#000000;fill-opacity:1;stroke:none;font-family:Sans"
       transform="translate(86.742082,12.941176)"><flowRegion
         id="flowRegion3369"><rect
           id="rect3371"
           width="65.294121"
           height="51.764706"
           x="337.05884"
           y="405.88235" /></flowRegion><flowPara
         id="flowPara3373"
         style="font-size:10px">Cute</flowPara></flowRoot>    <path
       sodipodi:type="arc"
       style="fill:#ff0000"
       id="path3375"
       sodipodi:cx="306.17648"
       sodipodi:cy="427.94116"
       sodipodi:rx="10.294118"
       sodipodi:ry="3.2352941"
       d="m 316.4706,427.94116 a 10.294118,3.2352941 0 1 1 -20.58823,0 10.294118,3.2352941 0 1 1 20.58823,0 z"
       transform="translate(101.44796,-1.7647059)" />
    <path
       sodipodi:type="arc"
       style="fill:#ff0000"
       id="path3375-2"
       sodipodi:cx="306.17648"
       sodipodi:cy="427.94116"
       sodipodi:rx="10.294118"
       sodipodi:ry="3.2352941"
       d="m 316.4706,427.94116 a 10.294118,3.2352941 0 1 1 -20.58823,0 10.294118,3.2352941 0 1 1 20.58823,0 z"
       transform="matrix(0.93969262,0.34202015,-0.34202015,0.93969262,287.74775,-135.08696)" />
    <path
       sodipodi:type="arc"
       style="fill:#ff0000"
       id="path3375-2-4"
       sodipodi:cx="306.17648"
       sodipodi:cy="427.94116"
       sodipodi:rx="10.294118"
       sodipodi:ry="3.2352941"
       d="m 316.4706,427.94116 a 10.294118,3.2352941 0 1 1 -20.58823,0 10.294118,3.2352941 0 1 1 20.58823,0 z"
       transform="matrix(0.93969262,0.34202015,-0.34202015,0.93969262,283.04186,-128.02815)" />
    <path
       sodipodi:type="arc"
       style="fill:#ff0000"
       id="path3375-2-8"
       sodipodi:cx="306.17648"
       sodipodi:cy="427.94116"
       sodipodi:rx="10.294118"
       sodipodi:ry="3.2352941"
       d="m 316.4706,427.94116 a 10.294118,3.2352941 0 1 1 -20.58823,0 10.294118,3.2352941 0 1 1 20.58823,0 z"
       transform="matrix(0.93969262,0.34202015,-0.34202015,0.93969262,278.33598,-121.55756)" />
    <path
       sodipodi:type="arc"
       style="fill:#ff0000"
       id="path3375-2-49"
       sodipodi:cx="306.17648"
       sodipodi:cy="427.94116"
       sodipodi:rx="10.294118"
       sodipodi:ry="3.2352941"
       d="m 316.4706,427.94116 a 10.294118,3.2352941 0 1 1 -20.58823,0 10.294118,3.2352941 0 1 1 20.58823,0 z"
       transform="matrix(0.93969262,0.34202015,-0.34202015,0.93969262,298.92421,-148.02816)" />
    <path
       sodipodi:type="arc"
       style="fill:#ff9955"
       id="path3177-54-9"
       sodipodi:cx="367.55176"
       sodipodi:cy="370.47504"
       sodipodi:rx="33.909866"
       sodipodi:ry="8.1851397"
       d="m 401.46162,370.47504 a 33.909866,8.1851397 0 1 1 -67.81973,0 33.909866,8.1851397 0 1 1 67.81973,0 z"
       transform="matrix(1,0,0,0.5238095,63.411859,248.41116)" />
    <flowRoot
       xml:space="preserve"
       id="flowRoot3367-3"
       style="font-size:40px;font-style:normal;font-weight:normal;line-height:125%;letter-spacing:0px;word-spacing:0px;fill:#000000;fill-opacity:1;stroke:none;font-family:Sans"
       transform="translate(81.551854,29.528314)"><flowRegion
         id="flowRegion3369-6"><rect
           id="rect3371-3"
           width="65.294121"
           height="51.764706"
           x="337.05884"
           y="405.88235" /></flowRegion><flowPara
         id="flowPara3373-8"
         style="font-size:9px">MeStop</flowPara></flowRoot>    <path
       sodipodi:type="arc"
       style="fill:#ff0000"
       id="path3375-9"
       sodipodi:cx="306.17648"
       sodipodi:cy="427.94116"
       sodipodi:rx="10.294118"
       sodipodi:ry="3.2352941"
       d="m 316.4706,427.94116 a 10.294118,3.2352941 0 1 1 -20.58823,0 10.294118,3.2352941 0 1 1 20.58823,0 z"
       transform="translate(100.96361,14.822434)" />
    <path
       sodipodi:type="arc"
       style="fill:#ff9955"
       id="path3177-54-9-9"
       sodipodi:cx="367.55176"
       sodipodi:cy="370.47504"
       sodipodi:rx="33.909866"
       sodipodi:ry="8.1851397"
       d="m 401.46162,370.47504 a 33.909866,8.1851397 0 1 1 -67.81973,0 33.909866,8.1851397 0 1 1 67.81973,0 z"
       transform="matrix(1,0,0,0.5238095,64.000099,261.35234)" />
    <flowRoot
       xml:space="preserve"
       id="flowRoot3367-3-3"
       style="font-size:40px;font-style:normal;font-weight:normal;line-height:125%;letter-spacing:0px;word-spacing:0px;fill:#000000;fill-opacity:1;stroke:none;font-family:Sans"
       transform="translate(83.316564,44.234191)"><flowRegion
         id="flowRegion3369-6-9"><rect
           id="rect3371-3-9"
           width="65.294121"
           height="51.764706"
           x="337.05884"
           y="405.88235" /></flowRegion><flowPara
         id="flowPara3373-8-7"
         style="font-size:8px">C++ API</flowPara></flowRoot>    <path
       sodipodi:type="arc"
       style="fill:#ff0000"
       id="path3375-9-9"
       sodipodi:cx="306.17648"
       sodipodi:cy="427.94116"
       sodipodi:rx="10.294118"
       sodipodi:ry="3.2352941"
       d="m 316.4706,427.94116 a 10.294118,3.2352941 0 1 1 -20.58823,0 10.294118,3.2352941 0 1 1 20.58823,0 z"
       transform="translate(101.55184,27.763605)" />
    <path
       sodipodi:type="arc"
       style="fill:#ff9955"
       id="path3177-54-9-9-6"
       sodipodi:cx="367.55176"
       sodipodi:cy="370.47504"
       sodipodi:rx="33.909866"
       sodipodi:ry="8.1851397"
       d="m 401.46162,370.47504 a 33.909866,8.1851397 0 1 1 -67.81973,0 33.909866,8.1851397 0 1 1 67.81973,0 z"
       transform="matrix(1,0,0,0.5238095,64.588335,273.58871)" />
    <flowRoot
       xml:space="preserve"
       id="flowRoot3367-3-3-9"
       style="font-size:40px;font-style:normal;font-weight:normal;line-height:125%;letter-spacing:0px;word-spacing:0px;fill:#000000;fill-opacity:1;stroke:none;font-family:Sans"
       transform="translate(83.904805,56.470566)"><flowRegion
         id="flowRegion3369-6-9-4"><rect
           id="rect3371-3-9-2"
           width="65.294121"
           height="51.764706"
           x="337.05884"
           y="405.88235" /></flowRegion><flowPara
         id="flowPara3373-8-7-0"
         style="font-size:8px">Simba</flowPara></flowRoot>    <path
       sodipodi:type="arc"
       style="fill:#ff0000"
       id="path3375-9-9-2"
       sodipodi:cx="306.17648"
       sodipodi:cy="427.94116"
       sodipodi:rx="10.294118"
       sodipodi:ry="3.2352941"
       d="m 316.4706,427.94116 a 10.294118,3.2352941 0 1 1 -20.58823,0 10.294118,3.2352941 0 1 1 20.58823,0 z"
       transform="translate(102.14007,39.999986)" />
    <flowRoot
       xml:space="preserve"
       id="flowRoot3533"
       style="font-size:40px;font-style:normal;font-weight:normal;line-height:125%;letter-spacing:0px;word-spacing:0px;fill:#000000;fill-opacity:1;stroke:none;font-family:Sans"
       transform="matrix(0.8660254,0.50000001,-0.50000001,0.8660254,415.80413,-135.53692)"><flowRegion
         id="flowRegion3535"><rect
           id="rect3537"
           width="186.47058"
           height="47.058826"
           x="174.70589"
           y="427.05884" /></flowRegion><flowPara
         id="flowPara3539"
         style="font-size:10px">Mobile Software</flowPara></flowRoot>    <flowRoot
       xml:space="preserve"
       id="flowRoot3533-4"
       style="font-size:40px;font-style:normal;font-weight:normal;line-height:125%;letter-spacing:0px;word-spacing:0px;fill:#000000;fill-opacity:1;stroke:none;font-family:Sans"
       transform="matrix(0.50000001,-0.8660254,0.8660254,0.50000001,-311.42695,333.77127)"><flowRegion
         id="flowRegion3535-7"><rect
           id="rect3537-6"
           width="186.47058"
           height="47.058826"
           x="174.70589"
           y="427.05884" /></flowRegion><flowPara
         id="flowPara3539-8"
         style="font-size:9px">Mobile Hardware</flowPara></flowRoot>    <rect
       style="fill:#241c1c"
       id="rect3568"
       width="67.647057"
       height="78.823532"
       x="234.97737"
       y="401.17648" />
  </g>
</svg>
