<?xml version="1.0" encoding="UTF-8" standalone="no"?>
<!-- Created with Inkscape (http://www.inkscape.org/) -->

<svg
   xmlns:dc="http://purl.org/dc/elements/1.1/"
   xmlns:cc="http://creativecommons.org/ns#"
   xmlns:rdf="http://www.w3.org/1999/02/22-rdf-syntax-ns#"
   xmlns:svg="http://www.w3.org/2000/svg"
   xmlns="http://www.w3.org/2000/svg"
   xmlns:sodipodi="http://sodipodi.sourceforge.net/DTD/sodipodi-0.dtd"
   xmlns:inkscape="http://www.inkscape.org/namespaces/inkscape"
   width="744.09448819"
   height="1052.3622047"
   id="svg2"
   version="1.1"
   inkscape:version="0.48.3.1 r9886"
   sodipodi:docname="New document 1">
  <defs
     id="defs4" />
  <sodipodi:namedview
     id="base"
     pagecolor="#ffffff"
     bordercolor="#666666"
     borderopacity="1.0"
     inkscape:pageopacity="0.0"
     inkscape:pageshadow="2"
     inkscape:zoom="0.98994949"
     inkscape:cx="271.42612"
     inkscape:cy="642.53691"
     inkscape:document-units="px"
     inkscape:current-layer="layer1"
     showgrid="false"
     inkscape:window-width="1440"
     inkscape:window-height="853"
     inkscape:window-x="0"
     inkscape:window-y="0"
     inkscape:window-maximized="1" />
  <metadata
     id="metadata7">
    <rdf:RDF>
      <cc:Work
         rdf:about="">
        <dc:format>image/svg+xml</dc:format>
        <dc:type
           rdf:resource="http://purl.org/dc/dcmitype/StillImage" />
        <dc:title></dc:title>
      </cc:Work>
    </rdf:RDF>
  </metadata>
  <g
     inkscape:label="Layer 1"
     inkscape:groupmode="layer"
     id="layer1">
    <path
       sodipodi:type="arc"
       style="fill:none;stroke:#000000;stroke-width:24.28000069;stroke-miterlimit:4;stroke-opacity:1;stroke-dasharray:none"
       id="path2985"
       sodipodi:cx="386.88843"
       sodipodi:cy="444.25034"
       sodipodi:rx="346.48233"
       sodipodi:ry="327.28943"
       d="m 733.37076,444.25034 a 346.48233,327.28943 0 1 1 -692.964663,0 346.48233,327.28943 0 1 1 692.964663,0 z" />
    <path
       style="fill:none;stroke:#000000;stroke-width:24.28000069;stroke-miterlimit:4;stroke-opacity:1;stroke-dasharray:none"
       id="path2987"
       d="m 413.24884,211.06498 c -3.18995,-0.34668 -6.3512,-0.88246 -9.53502,-1.27814 -4.31146,-0.13499 -8.50953,-0.89268 -12.75215,-1.59739 -3.15018,-0.62294 -6.37841,-0.54189 -9.5558,-0.8638 -0.78953,-0.08 -4.24809,-0.66076 -5.0562,-0.79361 -5.17175,-0.54253 -10.26514,-1.46527 -15.39188,-2.31202 -4.78443,-0.77063 -9.62822,-0.96205 -14.46408,-1.07733 -4.52562,-0.071 -9.05202,-0.0459 -13.57799,-0.0338 -0.69587,0.002 -1.39384,-0.0489 -2.0876,0.005 -0.63425,0.0496 -3.41581,0.57028 -4.03258,0.67794 -1.87093,0.32658 -3.71194,0.58808 -5.5487,1.07388 -1.44715,0.56865 -3.07652,0.47136 -4.55056,0.88917 -1.13961,0.32302 -2.27862,1.02896 -3.37905,1.48119 0.99729,-0.19963 -3.63822,2.01949 -2.50522,1.35886 4.03247,-2.35123 16.10903,-9.43417 12.15909,-6.9468 -0.19609,0.12349 -33.74258,19.46519 -1.31311,0.76519 -4.69636,3.51658 -1.63456,1.25997 -14.0805,8.27671 -0.40163,0.22643 -1.20313,0.22768 -1.61981,0.35819 -0.49233,0.15419 -0.94169,0.42406 -1.42644,0.60068 -0.26404,0.0679 -0.54017,0.0995 -0.7921,0.20369 -0.23048,0.0953 -0.42638,0.25889 -0.63957,0.38833 -0.23144,0.10433 -0.45686,0.22321 -0.69432,0.313 -0.78363,0.29634 -1.50486,0.37033 -2.25005,0.76996 -1.76546,0.44845 -3.49142,1.04163 -5.26616,1.49264 -0.24385,0.13282 -0.48222,0.27621 -0.73153,0.39846 -0.24627,0.12075 -0.50256,0.2199 -0.75384,0.32986 -0.26637,0.0841 -0.54628,0.13364 -0.79912,0.25242 -0.23142,0.10872 -0.8619,0.54979 -0.63958,0.42349 11.7898,-6.6977 16.07738,-9.58421 11.4347,-6.48434 0.66165,5.42071 -12.67323,6.46723 -17.4468,9.53462 -1.34461,0.70446 -2.87868,1.14157 -4.11992,2.0189 -0.91921,0.66357 -2.06258,0.60177 -3.09431,0.8918 -0.50486,0.14192 -0.96837,0.40461 -1.46368,0.5769 -0.26686,0.0669 -0.54563,0.0974 -0.80057,0.2008 -0.23254,0.0944 -0.43082,0.2575 -0.64622,0.38625 -0.23243,0.10447 -0.45893,0.22329 -0.69729,0.31342 -0.78457,0.29665 -1.50643,0.37238 -2.252,0.77321 -0.70355,0.44826 -1.5721,0.41925 -2.33059,0.67546 -0.74997,0.25333 -1.41146,0.63513 -2.19096,0.85166 -1.809,0.53539 -3.59724,1.02806 -5.48251,1.26402 -2.20812,0.78563 -4.41851,1.47844 -6.73276,1.88027 -2.16021,0.10374 -4.2412,0.54038 -6.36236,0.91426 -2.12501,0.27476 -4.25221,0.67833 -6.3108,1.28154 -2.12792,0.81471 -4.48107,0.65203 -6.62561,1.31276 -0.28816,0.0826 -0.59027,0.12667 -0.86448,0.24777 -0.51438,0.33003 -0.80085,0.54232 -1.36098,0.78963 -0.76514,0.33782 -1.56766,0.48341 -2.33819,0.8166 -5.1059,2.99936 3.42118,-2.01424 11.21297,-6.38807 0.27602,-0.15494 -0.51512,0.368 -0.77428,0.54973 -0.78064,0.54741 -1.59377,1.0366 -2.39109,1.55891 -4.60974,3.63817 -9.93362,5.9242 -15.14345,8.84624 -0.27323,0.15325 -1.12129,0.55771 -0.84975,0.4015 12.72648,-7.32145 15.61578,-9.69094 11.26253,-6.22 -1.44448,1.26224 -2.96665,2.43405 -4.37511,3.73675 -1.42467,1.62026 -33.13481,18.49998 -2.58346,1.60334 0.97617,-0.53987 -1.36361,1.07367 -2.32413,2.00376 -1.23372,1.06458 -2.01631,2.51211 -3.02003,3.77273 -0.86217,1.38957 -1.50596,2.89351 -2.31409,4.32405 -0.89617,1.34604 -1.44763,2.84172 -2.10054,4.30683 -0.5849,1.42099 -1.16653,2.85365 -1.88572,4.21313 -0.67355,1.34758 -1.28043,2.73267 -2.00827,4.05212 -0.6517,1.4017 -1.19105,2.85993 -1.74219,4.30663 -0.821,1.37747 -1.06945,2.95812 -1.56233,4.45693 -0.46036,1.52079 -1.12848,2.95307 -1.61595,4.46527 -0.52474,1.46382 -1.20003,2.85907 -1.80824,4.28765 -0.69865,1.33403 -1.26813,2.72159 -2.14491,3.95348 -0.83407,1.21391 -1.47884,2.53828 -2.22347,3.80435 -0.86821,1.37529 -1.83382,2.66075 -2.57212,4.11741 -0.78451,1.38617 -1.37311,2.86361 -2.28449,4.17627 -0.61121,1.37079 -1.72526,2.3446 -2.5963,3.52603 -0.96232,1.09034 -1.56442,2.42499 -2.4412,3.58011 -0.76025,1.47202 -1.85188,2.6181 -3.02823,3.75776 -1.10673,1.08063 -2.34851,1.969 -3.65014,2.7971 -1.2419,0.94365 -2.38872,1.99364 -3.67996,2.87415 -1.443,1.08774 -2.84814,2.22213 -4.27121,3.33743 -1.86798,1.29271 -3.73612,2.58775 -5.68599,3.75497 -4.58613,2.6333 -9.1726,5.26601 -13.75839,7.8999 -0.32112,0.18443 -1.284,0.73854 -0.96233,0.55507 3.92366,-2.23799 7.82136,-4.52198 11.76832,-6.71861 0.39559,-0.22016 -0.71664,0.55786 -1.10788,0.78568 -4.6593,2.71302 -9.35648,5.36047 -14.03863,8.03387 -0.4019,0.22948 -0.80896,0.4498 -1.21344,0.67469 -5.24946,2.51312 -1.78464,0.88982 10.62254,-6.18902 -0.6278,0.35643 -1.22325,0.76312 -1.87889,1.06657 0,0 -13.9009,5.82155 -13.9009,5.82155 l 0,0 c 0.43064,-0.8085 1.04793,-1.06036 1.83598,-1.51345 14.34176,-8.24577 9.07072,-5.48079 14.92893,-8.53112 5.04395,-2.64609 2.61592,-1.39663 -10.24022,6.07218 -0.38098,0.22134 0.74076,-0.47759 1.11876,-0.704 4.57363,-2.73945 9.15048,-5.47356 13.73581,-8.19339 0.32111,-0.19047 1.30537,-0.72518 0.98285,-0.53713 -3.94142,2.29814 -7.89325,4.57837 -11.83988,6.86755 1.92962,-1.1919 3.8586,-2.37364 5.74706,-3.62469 1.45893,-1.03948 2.78909,-2.24431 4.23033,-3.28523 0.79912,-0.71266 1.76732,-1.17004 2.56141,-1.89269 0.18584,-0.16912 0.31118,-0.3986 0.501,-0.56324 0.18225,-0.15807 0.40367,-0.26431 0.6055,-0.39646 1.11844,-1.09839 2.65403,-1.57017 3.67722,-2.77401 1.24485,-0.88746 2.56555,-1.94409 3.16386,-3.38772 0.80465,-1.23602 1.77857,-2.33832 2.3859,-3.70486 1.09203,-1.11293 -0.10559,0.18973 0.87332,-1.16523 0.57904,-0.80148 1.61164,-1.09723 1.7968,-2.20182 0.8507,-1.33663 1.82366,-2.56302 2.34059,-4.09704 0.8806,-1.34035 1.3387,-2.96678 2.56658,-4.08266 0.68952,-1.33579 1.46971,-2.60416 2.16528,-3.92874 0.80257,-1.24661 1.75494,-2.36062 2.21122,-3.81222 0.84277,-1.25229 1.27538,-2.77229 1.87702,-4.14891 0.38048,-0.73929 0.48485,-1.48613 0.78248,-2.25788 0.0915,-0.23722 0.20834,-0.46384 0.31251,-0.69576 0.11748,-0.20548 0.26535,-0.39635 0.35243,-0.61644 0.10279,-0.25979 0.14154,-0.54056 0.21231,-0.81084 0.16727,-0.48535 0.40899,-0.94546 0.54476,-1.44055 0.29222,-1.06566 0.29974,-2.22334 0.93078,-3.18656 0.81607,-1.32128 1.17059,-2.9089 1.72016,-4.35167 0.67878,-1.34636 1.44768,-2.64244 2.01603,-4.03591 0.67548,-1.36236 1.43733,-2.68747 1.9314,-4.12715 0.19853,-0.47198 0.47586,-0.90909 0.66251,-1.38589 0.40762,-1.04127 0.57888,-2.16689 1.41715,-3.00162 0.68688,-1.55389 1.77856,-2.86185 2.19474,-4.54266 0.92465,-1.38918 2.01654,-2.66834 2.94422,-4.06042 0.76844,-0.67659 1.40946,-1.60045 2.29038,-2.13562 4.52155,-2.74689 9.08922,-5.41716 13.64395,-8.10867 0.29485,-0.17423 1.19848,-0.66308 0.90407,-0.48812 -3.98629,2.36888 -7.98692,4.71355 -11.98037,7.07032 1.52986,-1.16564 2.87226,-2.57452 4.39956,-3.75139 4.69291,-4.10911 0.83418,-0.81181 14.34416,-8.7143 0.27366,-0.16008 1.13594,-0.56122 0.86283,-0.4002 -21.15197,12.47132 -14.81165,8.84577 -10.50108,6.04564 0.75899,-0.69991 1.50292,-1.07991 2.36658,-1.61939 4.99319,-3.11898 9.78912,-6.75169 15.2925,-8.91932 1.57746,-0.53726 3.02162,-1.40897 4.68704,-1.66934 2.21199,-0.32009 4.41529,-0.67305 6.56092,-1.32219 2.12316,-0.47012 4.24213,-0.93391 6.40032,-1.21582 2.10182,-0.39279 4.22237,-0.56254 6.32821,-0.92378 2.2942,-0.52715 4.48162,-1.40914 6.79319,-1.85054 1.82558,-0.35706 3.58777,-0.93285 5.36479,-1.47463 1.48009,-0.56651 3.00685,-0.97465 4.46057,-1.61258 1.51957,-0.44773 2.92178,-1.1734 4.44831,-1.60086 1.49749,-0.4977 3.0756,-0.75183 4.40075,-1.68233 1.41183,-0.59141 2.75374,-1.3377 4.14599,-1.97415 5.33556,-2.08318 13.93387,-7.53297 -8.24466,5.28843 5.61648,-3.44789 11.04084,-7.46692 17.34271,-9.49806 1.73304,-0.5401 3.51896,-0.90354 5.1836,-1.64116 1.51076,-0.44573 2.9027,-1.16549 4.40523,-1.6354 0.74015,-0.27808 1.52555,-0.44554 2.24447,-0.77653 0.22964,-0.10572 0.88373,-0.49137 0.66559,-0.36358 -12.74706,7.46757 -16.07787,9.68282 -11.56159,6.70111 4.47119,-2.64729 9.20141,-4.89929 13.41359,-7.94188 3.7915,-2.73873 -16.26793,9.23599 -12.14575,7.02608 4.59621,-2.46404 9.04164,-5.19955 13.56848,-7.78881 0.81528,-0.46633 1.64945,-0.91255 2.51822,-1.27085 2.58583,-1.05979 5.27887,-1.54184 8.00606,-2.11989 3.88518,-0.75365 7.82816,-1.51692 11.79922,-1.44087 4.5191,3.7e-4 9.03873,-0.001 13.55696,0.0992 4.87239,0.13973 9.74564,0.41851 14.55477,1.26554 5.12297,0.87438 10.24452,1.65439 15.40297,2.2906 4.86808,0.7585 9.78628,0.87077 14.65387,1.64119 4.24058,0.71747 8.47659,1.2321 12.76983,1.51178 3.23296,0.41468 6.45894,0.87469 9.7045,1.1881 0,0 -12.25759,8.64262 -12.25759,8.64262 z"
       inkscape:connector-curvature="0" />
    <path
       style="fill:none;stroke:#000000;stroke-width:24.28000069;stroke-miterlimit:4;stroke-opacity:1;stroke-dasharray:none"
       id="path2989"
       d="m 531.68667,324.00004 c -3.95946,0.93853 -7.50346,2.93708 -11.28768,4.36205 -4.21528,1.60332 -8.52136,2.93595 -12.77122,4.43932 -4.67478,1.53491 -9.35674,3.04397 -14.00954,4.66193 -2.80923,1.06528 -5.50245,2.40618 -8.13117,3.85458 -0.9644,0.53137 -3.82673,2.18057 -2.86741,1.64008 10.29237,-5.79893 12.80637,-7.51926 6.80394,-3.61047 -5.6542,3.81913 -11.15287,7.86833 -16.64806,11.91223 -4.91456,3.89687 -10.17789,7.30195 -15.28201,10.93485 -0.76903,0.58401 -1.54149,1.16352 -2.3071,1.75201 -1.66066,1.27647 -2.92417,2.33134 -4.65739,3.49969 -5.44976,3.67362 -11.374,6.58931 -17.02935,9.93781 -3.4297,2.03072 6.92083,-3.95583 10.38125,-5.93375 -4.28363,2.78147 -8.32437,5.91774 -12.55527,8.7844 -4.86882,2.81424 -9.71303,5.67147 -14.60644,8.44271 -1.30831,0.74093 -2.68537,1.35354 -4.01725,2.0512 -0.62597,0.32789 -2.50219,1.31306 -1.89059,0.95908 13.75254,-7.95975 14.34162,-8.37879 9.59169,-5.31953 -5.64409,3.48351 -5.55172,3.44916 -15.67314,9.04687 -0.48236,0.26677 -1.0418,0.36265 -1.55032,0.57535 -0.53064,0.22196 -2.06188,1.01682 -1.56468,0.72761 13.92737,-8.10094 14.62133,-8.61248 9.97964,-5.50775 -5.63944,3.87908 -2.66796,1.88532 -15.45389,9.11315 -0.46161,0.26095 -0.98652,0.39096 -1.46684,0.61562 -0.50014,0.23393 -1.95149,1.0333 -1.47226,0.75909 12.35804,-7.07121 14.80969,-8.93027 10.12173,-5.51463 -6.18035,4.5387 -12.89204,8.36517 -20.03714,11.11598 -0.37007,0.11264 -0.75038,0.1959 -1.11021,0.3379 -0.65164,0.33011 -1.07671,0.56901 -1.75739,0.82417 -0.84955,0.31847 -1.65959,0.42589 -2.47204,0.83926 -5.10386,2.03148 -1.04655,0.45563 11.52574,-6.66141 0.21409,-0.12119 -0.42473,0.24834 -0.6369,0.37285 -0.75591,0.44361 -1.49011,0.9174 -2.24642,1.36062 -45.66289,26.16253 8.27478,-4.7033 -2.4162,1.45282 -4.53725,2.61265 -9.06758,5.23793 -13.63609,7.79553 -4.06737,2.27705 16.08618,-9.42317 12.1326,-6.95383 -4.42069,2.76109 -9.02322,5.21976 -13.53483,7.82964 4.0636,-2.34333 8.1121,-4.71304 12.1908,-7.02997 0.22069,-0.12537 -0.39332,0.32428 -0.61225,0.45268 -4.48709,2.63165 -8.96818,5.27479 -13.50194,7.82519 -0.23811,0.13395 -0.5336,0.12313 -0.79087,0.21503 -0.26893,0.0961 -1.03054,0.48999 -0.78319,0.34727 4.03308,-2.32714 8.09619,-4.60185 12.14429,-6.90278 -8.70033,5.07205 -30.62524,17.66479 -4.65628,2.71936 -8.02137,5.29731 -27.73826,15.93299 -2.30628,1.52013 0.28883,-0.16369 -0.55884,0.3597 -0.82367,0.5599 -2.74106,2.07216 0.96652,-0.56471 -1.88696,1.43529 -1.67955,1.03017 -3.26529,2.19611 -4.87858,3.32392 -44.59903,25.43505 9.20793,-5.30297 -3.13902,1.86721 -4.53605,2.63421 -9.10814,5.20608 -13.64253,7.84316 -4.0164,2.33583 8.05905,-4.62628 12.08857,-6.93941 -5.58149,3.48496 -11.03688,7.37173 -17.10878,9.91517 26.82131,-15.33472 4.71567,-2.72167 -1.45203,0.91626 -3.99152,2.35433 16.05062,-9.27247 12.04373,-6.94438 -4.53703,2.63611 -9.04965,5.31585 -13.63418,7.86846 -0.31439,0.17505 -0.70106,0.17109 -1.03692,0.30023 -0.3214,0.12357 -0.61826,0.30335 -0.92739,0.45503 3.96054,-2.24716 7.90666,-4.5199 11.8816,-6.74147 0.36967,-0.20661 -0.69706,0.48274 -1.06338,0.69523 -4.6186,2.67906 -9.25662,5.32451 -13.88969,7.97846 -3.83866,2.19889 15.40463,-8.70491 11.50647,-6.61329 -17.88628,9.5972 -8.80094,5.90723 -15.63953,8.62577 -2.59064,1.14621 -5.20314,2.27702 -7.86353,3.27135 -2.06902,0.66628 -4.04759,1.57829 -6.0897,2.32798 -1.80097,0.72962 -3.52244,1.66675 -5.36567,2.28414 -1.67549,0.34947 -3.35284,0.79568 -4.92459,1.48979 -1.17061,0.58649 -2.50592,0.56116 -3.7417,0.86807 -0.56077,0.13927 -1.08494,0.39868 -1.63431,0.57772 1.1074,-0.18836 -3.13628,1.71169 -2.06476,1.08776 29.4178,-17.12965 1.99769,-0.35234 -1.99116,1.06141 -1.64574,0.26651 -3.11747,0.96631 -4.76442,1.25618 -0.65062,0.48422 -1.49948,0.52299 -2.21395,0.83098 -0.72471,0.3124 -1.30724,0.71376 -2.07957,0.96164 -0.27236,0.0592 -0.55517,0.0824 -0.81709,0.17775 -0.23775,0.0865 -0.44462,0.24161 -0.66692,0.36242 -0.23907,0.0975 -0.47307,0.20842 -0.71721,0.29239 -0.80996,0.27859 -1.64615,0.38924 -2.49058,0.50055 -0.95311,0.59534 -2.10706,0.58657 -3.13755,0.9102 -0.49503,0.15546 -0.94432,0.43201 -1.42913,0.61687 -1.97135,0.42048 -3.8458,1.14321 -5.79029,1.6714 -1.43438,0.47311 -3.00301,0.36252 -4.45671,0.68797 -1.31672,0.29478 -2.61977,0.95842 -3.92087,1.34266 -2.02413,0.73543 -3.65537,2.11292 -5.76816,2.58438 -1.90159,0.10996 -3.41082,1.26541 -5.13614,1.89068 -4.27231,2.80923 -10.76859,6.07368 10.92995,-6.23818 0.2134,-0.12108 -0.39562,0.29031 -0.59407,0.43458 -1.03099,0.7495 -0.44451,0.28922 -1.53397,1.21132 -1.69122,1.15543 -3.15872,2.58663 -4.76129,3.84973 -1.45554,1.12186 -2.98565,2.1223 -4.49709,3.16286 -1.31488,1.06387 -2.71457,1.99982 -4.08506,2.98338 -4.118,4.20083 -8.37768,5.01207 -14.6165,8.8756 -3.99507,2.47404 16.28246,-9.39046 12.22558,-7.01913 -4.48549,2.62185 -9.00029,5.19329 -13.51144,7.77074 -4.08858,2.33601 8.16249,-4.69763 12.24374,-7.04644 -5.21857,3.66573 -11.01768,6.53604 -16.4869,9.7234 -3.99309,2.3271 8.01568,-4.6032 12.02352,-6.9048 -5.14201,3.33073 -0.84368,0.56674 -14.40724,8.28841 -0.55237,0.31447 -2.27269,1.13576 -1.72366,0.8155 4.00109,-2.33384 16.02094,-9.30371 12.06892,-6.88773 -4.46312,2.72843 -9.06853,5.21695 -13.60279,7.82543 31.65494,-18.23526 -1.07831,0.62958 -1.62229,0.93591 -0.28145,0.15849 -0.61845,0.19487 -0.90861,0.3368 -0.81932,0.40077 -1.4862,0.84168 -2.36254,1.14654 -1.56083,0.39974 -2.99116,1.15498 -4.44315,1.83203 -0.4849,0.28229 -1.06421,0.23376 -1.57505,0.41859 -0.23761,0.086 -0.88627,0.48586 -0.66672,0.36075 20.57633,-11.72594 15.33339,-9.1989 11.09171,-6.13448 -1.56369,0.89638 -2.97284,2.04523 -4.32349,3.2335 -1.44835,1.52886 -3.10776,2.82925 -4.66655,4.23721 -1.34628,1.17298 -2.63333,2.41181 -3.96802,3.59666 -1.04055,1.06533 -1.85132,2.27874 -2.29466,3.70027 -0.41904,1.56876 0.0494,3.16126 0.26346,4.72837 0.24324,1.949 0.28679,3.91454 0.31911,5.87602 0.12427,1.74579 0.72056,3.39098 1.2073,5.05565 0.5514,1.96812 0.69443,4.009 0.78391,6.04069 0.009,0.33939 0.0182,0.67878 0.0273,1.01817 0,0 -13.32364,6.8259 -13.32364,6.8259 l 0,0 c -0.006,-0.33248 -0.0115,-0.66495 -0.0173,-0.99742 -0.0591,-1.91699 -0.14099,-3.84812 -0.62184,-5.71497 -0.50866,-1.79545 -1.19076,-3.53919 -1.38598,-5.41219 -0.0224,-1.90522 -0.0475,-3.81446 -0.25674,-5.71031 -0.22094,-1.72993 -0.75607,-3.46904 -0.51765,-5.21451 0.30216,-1.70622 0.91069,-3.06336 1.95656,-4.43225 1.16516,-1.37371 2.64253,-2.48148 3.99054,-3.66989 1.48781,-1.48516 3.16249,-2.72958 4.67974,-4.18836 1.18903,-1.38395 2.68886,-2.48335 4.13452,-3.56758 2.12297,-1.02732 -0.7909,0.43479 1.23339,-0.75299 6.76668,-3.97043 9.88366,-6.41209 15.67539,-8.65058 1.44466,-0.69415 2.98704,-1.16758 4.47102,-1.76887 0.77741,-0.38789 1.55135,-0.77637 2.3302,-1.16026 0.28041,-0.13821 1.10038,-0.59353 0.83038,-0.43594 -0.54198,0.31634 -34.14219,19.78827 1.62594,-0.94901 -40.53209,23.41578 31.28049,-17.93011 -8.74551,5.2824 -0.26282,0.15242 0.52461,-0.30657 0.78692,-0.45985 43.52433,-25.40011 -10.79497,6.4747 4.44759,-2.75225 4.47542,-2.62844 9.11613,-4.99382 13.42628,-7.88532 3.90051,-2.61671 -16.29094,9.35795 -12.19495,7.05927 7.62322,-4.27819 26.96323,-15.70808 1.33663,-0.67442 -0.42138,0.2472 1.76173,-0.93347 1.19036,-0.85501 1.05365,-1.38308 2.75781,-2.00515 4.04052,-3.16489 1.41612,-1.22011 3.12329,-1.9412 4.46576,-3.26712 1.81176,-0.99124 3.11099,-2.61434 4.80045,-3.78848 1.94684,-1.21733 -0.10565,0.18135 1.46586,-1.22834 4.37619,-3.92554 10.07948,-6.4361 15.42242,-8.98585 1.66693,-0.79332 3.38533,-1.35669 5.18638,-1.77468 1.91195,-0.83736 3.68027,-1.99964 5.72643,-2.5288 2.76157,-0.90175 5.5785,-1.35714 8.39934,-2.0229 1.93005,-0.62102 3.8866,-1.15299 5.80531,-1.80358 1.5316,-0.54114 3.14041,-0.90232 4.70751,-1.32064 1.56023,-0.38647 3.01303,-1.05629 4.53514,-1.56165 1.42498,-0.65598 2.88724,-1.25028 4.41756,-1.61393 1.54704,-0.44214 3.09711,-0.9192 4.59392,-1.49805 5.76151,-3.20016 -17.75506,9.85695 -11.53955,6.68264 4.51214,-2.30439 10.18717,-6.65572 15.6964,-8.67469 1.77103,-0.51251 3.62528,-0.7369 5.31988,-1.51187 1.63853,-0.50534 3.2834,-0.97583 4.91089,-1.50623 1.77139,-0.7891 3.5635,-1.52322 5.3538,-2.2693 1.99294,-0.80342 4.00414,-1.56288 6.02601,-2.29016 2.61243,-1.07485 5.24311,-2.10526 7.80796,-3.29002 0.4718,-0.21965 1.86185,-0.92641 1.41541,-0.65896 -3.75098,2.24717 -15.15848,8.72405 -11.33539,6.6019 4.71647,-2.61804 9.30037,-5.47023 14.01596,-8.08984 28.35507,-15.75189 -19.2163,11.17555 -10.5888,6.13964 4.58397,-2.67568 9.17269,-5.34322 13.75904,-8.01483 0.64423,-0.26327 2.49986,-1.21863 1.89949,-0.86663 -3.98911,2.33885 -15.97112,9.32984 -11.99983,6.96085 4.50115,-2.68506 9.11069,-5.18697 13.58949,-7.90913 0.49138,-0.29865 -35.32966,20.45006 1.51359,-0.82753 8.25293,-4.50919 -17.88311,10.86205 -8.59076,4.85495 4.52415,-2.62334 9.02312,-5.29061 13.57246,-7.87003 4.02627,-2.28284 -7.99911,4.65869 -12.00317,6.98026 -0.53291,0.30899 0.98336,-0.74716 1.5152,-1.058 4.51612,-2.63948 8.96261,-5.4123 13.61553,-7.80238 4.11435,-2.11343 -7.99857,4.64762 -11.99786,6.97143 1.74338,-0.96119 3.22852,-2.29724 4.91731,-3.34414 0.64541,-0.34904 1.39113,-0.70471 1.95214,-1.19352 0.26644,-0.23216 0.40789,-0.60415 0.71021,-0.78716 4.47975,-2.71179 8.99893,-5.36275 13.59498,-7.8724 4.06065,-2.2173 -7.99163,4.66423 -11.98821,6.99503 -0.25516,0.14881 0.50931,-0.29938 0.76397,-0.44907 43.32764,-25.96344 -9.04491,5.56598 4.57871,-2.92612 4.5393,-2.59563 9.05981,-5.22437 13.61788,-7.78687 0.4786,-0.26906 1.96838,-0.96974 1.49466,-0.69217 -4.04924,2.37261 -8.10177,4.73964 -12.16215,7.09312 -0.21719,0.12589 0.4212,-0.27326 0.6318,-0.40988 4.47635,-2.64907 8.9527,-5.29814 13.42905,-7.9472 -31.18594,18.0681 0.0973,-0.0638 1.43809,-0.80836 4.05728,-2.25316 -8.02697,4.66056 -12.04191,6.98832 -0.2622,0.15202 0.52193,-0.30826 0.78366,-0.46108 4.53141,-2.64587 9.11947,-5.1969 13.59576,-7.93499 3.93132,-2.40473 -7.97362,4.62312 -11.96044,6.93468 5.51586,-3.52612 11.21623,-7.02422 17.1292,-9.74873 1.80599,-0.53351 3.50041,-1.34532 5.2794,-1.95935 0.77649,-0.32185 1.56212,-0.62226 2.33071,-0.96253 0.42779,-0.1894 1.67086,-0.83916 1.26897,-0.59967 -20.66887,12.31709 -13.46042,8.04117 -9.12066,5.17251 5.46889,-4.22684 1.55867,-1.28641 15.29534,-9.2591 0.48537,-0.28171 1.01195,-0.48561 1.51458,-0.73525 0.46246,-0.2297 1.82442,-0.9665 1.38054,-0.70268 -13.10866,7.79106 -14.68503,8.91452 -9.93247,5.66681 5.61513,-4.01065 2.25141,-1.67033 15.47677,-9.1559 0.5091,-0.28815 1.07358,-0.46522 1.6061,-0.70737 0.48819,-0.22199 1.91599,-0.9603 1.45579,-0.68493 -3.21478,1.92365 -16.13109,9.41654 -9.72132,5.64034 5.91429,-3.70601 3.41265,-2.15939 15.76019,-9.293 1.2561,-0.72569 2.57619,-1.33449 3.86352,-2.0032 0.6591,-0.34238 2.61501,-1.40764 1.97815,-1.02548 -3.49267,2.09586 -7.03241,4.11226 -10.54861,6.16839 4.2986,-2.79004 8.34483,-5.92515 12.54847,-8.83577 4.9118,-2.87041 9.85299,-5.6911 14.73539,-8.61123 3.41264,-2.04108 -6.89175,3.96904 -10.32581,5.97389 -0.7659,0.44714 1.56835,-0.8316 2.32106,-1.30061 1.95499,-1.21813 2.87,-2.01786 4.69048,-3.44472 0.76513,-0.5997 1.53052,-1.19906 2.29578,-1.79858 5.08248,-3.71018 10.4553,-7.00158 15.3668,-10.94934 5.47888,-4.0719 11.00608,-8.0879 16.61186,-11.98212 7.51434,-5.01663 2.84024,-1.97418 18.06397,-10.8287 3.59361,-2.09014 7.33692,-3.94526 11.25231,-5.35318 4.68949,-1.56955 9.36213,-3.18137 14.06404,-4.71046 4.26479,-1.43342 8.52286,-2.88736 12.72957,-4.48464 3.80987,-1.55451 7.53963,-3.28379 11.4586,-4.55568 0,0 -11.75763,9.29222 -11.75763,9.29222 z"
       inkscape:connector-curvature="0" />
    <rect
       style="fill:none;stroke:#000000;stroke-width:10.50968465;stroke-miterlimit:4;stroke-opacity:1;stroke-dasharray:none"
       id="rect2991"
       width="207.50175"
       height="79.970299"
       x="-16.543802"
       y="390.20978"
       transform="matrix(0.94672555,-0.3220415,0.57279055,0.81970177,0,0)" />
    <path
       sodipodi:type="arc"
       style="fill:none;stroke:#000000;stroke-width:22.70429049;stroke-miterlimit:4;stroke-opacity:1;stroke-dasharray:none"
       id="path2993"
       sodipodi:cx="255.82114"
       sodipodi:cy="320.00159"
       sodipodi:rx="1.0101526"
       sodipodi:ry="2.7779195"
       d="m 256.83129,320.00159 a 1.0101526,2.7779195 0 1 1 -2.02031,0 1.0101526,2.7779195 0 1 1 2.02031,0 z"
       transform="matrix(0.50037374,-0.40949462,1.3272525,0.91231253,-285.79627,146.45457)" />
    <rect
       style="fill:none;stroke:#000000;stroke-width:22.7042808;stroke-miterlimit:4;stroke-opacity:1;stroke-dasharray:none"
       id="rect2995"
       width="8.2142859"
       height="6.0714288"
       x="-80.0411"
       y="433.30423"
       transform="matrix(0.66002658,-0.75124225,0.75124225,0.66002658,0,0)" />
    <rect
       style="fill:none;stroke:#000000;stroke-width:22.70428856;stroke-miterlimit:4;stroke-opacity:1;stroke-dasharray:none"
       id="rect2997"
       width="1.7857143"
       height="15.714286"
       x="-71.388145"
       y="446.49045"
       transform="matrix(0.6697493,-0.74258728,0.74258728,0.6697493,0,0)" />
    <path
       transform="matrix(-0.51917495,0.38537915,-1.2826343,-0.97404439,918.36954,540.85431)"
       d="m 256.83129,320.00159 a 1.0101526,2.7779195 0 1 1 -2.02031,0 1.0101526,2.7779195 0 1 1 2.02031,0 z"
       sodipodi:ry="2.7779195"
       sodipodi:rx="1.0101526"
       sodipodi:cy="320.00159"
       sodipodi:cx="255.82114"
       id="path2999"
       style="fill:none;stroke:#000000;stroke-width:22.7043156;stroke-miterlimit:4;stroke-opacity:1;stroke-dasharray:none"
       sodipodi:type="arc" />
    <rect
       transform="matrix(-0.69480698,0.71919626,-0.71919626,-0.69480698,0,0)"
       y="-484.93472"
       x="-30.494272"
       height="6.0714288"
       width="8.2142859"
       id="rect3001"
       style="fill:none;stroke:#000000;stroke-width:22.70428276;stroke-miterlimit:4;stroke-opacity:1;stroke-dasharray:none" />
    <rect
       transform="matrix(-0.70410963,0.71009129,-0.71009129,-0.70410963,0,0)"
       y="-472.31564"
       x="-33.79789"
       height="15.714286"
       width="1.7857143"
       id="rect3003"
       style="fill:none;stroke:#000000;stroke-width:22.70427309;stroke-miterlimit:4;stroke-opacity:1;stroke-dasharray:none" />
    <text
       xml:space="preserve"
       style="font-size:4px;font-style:normal;font-weight:normal;line-height:125%;letter-spacing:0px;word-spacing:0px;fill:#000000;fill-opacity:1;stroke:none;font-family:Sans"
       x="13.878878"
       y="447.03958"
       id="text3005"
       sodipodi:linespacing="125%"
       transform="matrix(0.7683593,-0.64001873,0.64001873,0.7683593,0,0)"><tspan
         sodipodi:role="line"
         id="tspan3007"
         x="13.878878"
         y="447.03958">Cool</tspan></text>
    <flowRoot
       xml:space="preserve"
       id="flowRoot3009"
       style="font-size:4px;font-style:normal;font-weight:normal;line-height:125%;letter-spacing:0px;word-spacing:0px;fill:#000000;fill-opacity:1;stroke:none;font-family:Sans"
       transform="matrix(0.85424007,-0.51987874,0.51987874,0.85424007,-116.39587,209.3813)"><flowRegion
         id="flowRegion3011"><rect
           id="rect3013"
           width="36.607128"
           height="10.892853"
           x="305.17856"
           y="299.14789" /></flowRegion><flowPara
         id="flowPara3015">We came from above</flowPara></flowRoot>    <flowRoot
       xml:space="preserve"
       id="flowRoot3017"
       style="font-size:4px;font-style:normal;font-weight:normal;line-height:125%;letter-spacing:0px;word-spacing:0px;fill:#000000;fill-opacity:1;stroke:none;font-family:Sans"
       transform="matrix(0.87309776,-0.48754517,0.48754517,0.87309776,-120.61615,204.53437)"><flowRegion
         id="flowRegion3019"><rect
           id="rect3021"
           width="33.75"
           height="14.464286"
           x="319.64285"
           y="328.96933" /></flowRegion><flowPara
         id="flowPara3023">No you don't understand</flowPara></flowRoot>    <text
       xml:space="preserve"
       style="font-size:4px;font-style:normal;font-weight:normal;line-height:125%;letter-spacing:0px;word-spacing:0px;fill:#000000;fill-opacity:1;stroke:none;font-family:Sans"
       x="453.52545"
       y="-314.40152"
       id="text3793"
       sodipodi:linespacing="125%"
       transform="matrix(0.49618463,0.86821703,-0.86821703,0.49618463,0,0)"><tspan
         sodipodi:role="line"
         id="tspan3795"
         x="453.52545"
         y="-314.40152">&quot;Underground&quot;</tspan></text>
  </g>
</svg>
