<?xml version="1.0" encoding="UTF-8" standalone="no"?>
<!-- Created with Inkscape (http://www.inkscape.org/) -->

<svg
   xmlns:dc="http://purl.org/dc/elements/1.1/"
   xmlns:cc="http://creativecommons.org/ns#"
   xmlns:rdf="http://www.w3.org/1999/02/22-rdf-syntax-ns#"
   xmlns:svg="http://www.w3.org/2000/svg"
   xmlns="http://www.w3.org/2000/svg"
   xmlns:sodipodi="http://sodipodi.sourceforge.net/DTD/sodipodi-0.dtd"
   xmlns:inkscape="http://www.inkscape.org/namespaces/inkscape"
   width="977.74695"
   height="616.3468"
   id="svg2"
   version="1.1"
   inkscape:version="0.47 r22583"
   sodipodi:docname="New document 1">
  <defs
     id="defs4" />
  <sodipodi:namedview
     id="base"
     pagecolor="#ffffff"
     bordercolor="#666666"
     borderopacity="1.0"
     inkscape:pageopacity="0.0"
     inkscape:pageshadow="2"
     inkscape:zoom="1.4"
     inkscape:cx="246.24637"
     inkscape:cy="485.3896"
     inkscape:document-units="px"
     inkscape:current-layer="layer1"
     showgrid="false"
     inkscape:window-width="1280"
     inkscape:window-height="972"
     inkscape:window-x="0"
     inkscape:window-y="0"
     inkscape:window-maximized="1" />
  <metadata
     id="metadata7">
    <rdf:RDF>
      <cc:Work
         rdf:about="">
        <dc:format>image/svg+xml</dc:format>
        <dc:type
           rdf:resource="http://purl.org/dc/dcmitype/StillImage" />
        <dc:title></dc:title>
      </cc:Work>
    </rdf:RDF>
  </metadata>
  <g
     inkscape:label="Layer 1"
     inkscape:groupmode="layer"
     id="layer1"
     transform="translate(-39.395943,-250.30106)">
    <rect
       style="fill:#000000;fill-opacity:1;stroke:none"
       id="rect2852"
       width="174.28572"
       height="187.14285"
       x="379.28571"
       y="475.93362" />
    <path
       sodipodi:type="arc"
       style="fill:#ffb380;fill-opacity:1;stroke:none"
       id="path2816"
       sodipodi:cx="468.57144"
       sodipodi:cy="432.36218"
       sodipodi:rx="40"
       sodipodi:ry="50"
       d="m 508.57144,432.36218 c 0,27.61424 -17.90861,50 -40,50 -22.09139,0 -40,-22.38576 -40,-50 0,-27.61423 17.90861,-50 40,-50 22.09139,0 40,22.38577 40,50 z" />
    <rect
       style="fill:#0000ff;fill-opacity:1;stroke:none"
       id="rect2818"
       width="139.40105"
       height="157.58379"
       x="394.96964"
       y="482.63617" />
    <rect
       style="fill:#0000ff;fill-opacity:1;stroke:none"
       id="rect2820"
       width="44.446747"
       height="44.44706"
       x="349.51279"
       y="494.758" />
    <rect
       style="fill:#ffb380;fill-opacity:1;stroke:none"
       id="rect2822"
       width="22.223356"
       height="85.862968"
       x="360.62445"
       y="539.20465" />
    <rect
       y="492.7377"
       x="533.36053"
       height="44.44706"
       width="44.446747"
       id="rect2824"
       style="fill:#0000ff;fill-opacity:1;stroke:none" />
    <rect
       y="537.18433"
       x="544.47223"
       height="85.862968"
       width="22.223356"
       id="rect2826"
       style="fill:#ffb380;fill-opacity:1;stroke:none" />
    <rect
       style="fill:#000000;fill-opacity:1;stroke:none"
       id="rect2828"
       width="218.19295"
       height="112.12693"
       x="421.98267"
       y="585.20105"
       transform="matrix(0.99518663,0.09799783,-0.09799783,0.99518663,0,0)" />
    <rect
       style="fill:#000000;fill-opacity:1;stroke:none"
       id="rect2856"
       width="175"
       height="30"
       x="369.28571"
       y="836.64789" />
    <rect
       style="fill:#000000;fill-opacity:1;stroke:none"
       id="rect2854"
       width="28.571428"
       height="110.71429"
       x="437.14285"
       y="742.36218" />
    <rect
       style="fill:#552200;fill-opacity:1;stroke:none"
       id="rect2830"
       width="59.598999"
       height="128.28937"
       x="552.92023"
       y="492.24533"
       transform="matrix(0.96740363,0.25323943,-0.25323943,0.96740363,0,0)" />
    <rect
       y="492.24533"
       x="619.59033"
       height="128.28937"
       width="59.598999"
       id="rect2832"
       style="fill:#552200;fill-opacity:1;stroke:none"
       transform="matrix(0.96740363,0.25323943,-0.25323943,0.96740363,0,0)" />
    <rect
       style="fill:#ffb380;fill-opacity:1;stroke:none"
       id="rect2836"
       width="20.776834"
       height="105.43965"
       x="582.02655"
       y="609.25421"
       transform="matrix(0.9638868,0.26631231,-0.27205281,0.96228232,0,0)" />
    <rect
       transform="matrix(0.96649929,0.2566693,-0.28217975,0.95936155,0,0)"
       y="616.55365"
       x="654.38403"
       height="103.76368"
       width="21.150366"
       id="rect2838"
       style="fill:#ffb380;fill-opacity:1;stroke:none" />
    <path
       sodipodi:type="arc"
       style="fill:#ffffff;fill-opacity:1;stroke:none"
       id="path2842"
       sodipodi:cx="452.54834"
       sodipodi:cy="420.00668"
       sodipodi:rx="9.0913725"
       sodipodi:ry="9.0913725"
       d="m 461.63971,420.00668 c 0,5.02103 -4.07034,9.09138 -9.09137,9.09138 -5.02103,0 -9.09137,-4.07035 -9.09137,-9.09138 0,-5.02102 4.07034,-9.09137 9.09137,-9.09137 5.02103,0 9.09137,4.07035 9.09137,9.09137 z" />
    <path
       d="m 461.63971,420.00668 c 0,5.02103 -4.07034,9.09138 -9.09137,9.09138 -5.02103,0 -9.09137,-4.07035 -9.09137,-9.09138 0,-5.02102 4.07034,-9.09137 9.09137,-9.09137 5.02103,0 9.09137,4.07035 9.09137,9.09137 z"
       sodipodi:ry="9.0913725"
       sodipodi:rx="9.0913725"
       sodipodi:cy="420.00668"
       sodipodi:cx="452.54834"
       id="path2844"
       style="fill:#ffffff;fill-opacity:1;stroke:none"
       sodipodi:type="arc"
       transform="translate(31.314729,0)" />
    <path
       sodipodi:type="arc"
       style="fill:#0000ff;fill-opacity:1;stroke:none"
       id="path2846"
       sodipodi:cx="440.89285"
       sodipodi:cy="434.32648"
       sodipodi:rx="3.75"
       sodipodi:ry="3.75"
       d="m 444.64285,434.32648 c 0,2.07106 -1.67893,3.75 -3.75,3.75 -2.07107,0 -3.75,-1.67894 -3.75,-3.75 0,-2.07107 1.67893,-3.75 3.75,-3.75 2.07107,0 3.75,1.67893 3.75,3.75 z"
       transform="translate(8.2142857,-16.071429)" />
    <path
       transform="translate(40,-16.071429)"
       d="m 444.64285,434.32648 c 0,2.07106 -1.67893,3.75 -3.75,3.75 -2.07107,0 -3.75,-1.67894 -3.75,-3.75 0,-2.07107 1.67893,-3.75 3.75,-3.75 2.07107,0 3.75,1.67893 3.75,3.75 z"
       sodipodi:ry="3.75"
       sodipodi:rx="3.75"
       sodipodi:cy="434.32648"
       sodipodi:cx="440.89285"
       id="path2848"
       style="fill:#0000ff;fill-opacity:1;stroke:none"
       sodipodi:type="arc" />
    <path
       style="fill:none;stroke:#000000;stroke-width:1px;stroke-linecap:butt;stroke-linejoin:miter;stroke-opacity:1"
       d="m 447.24504,457.38233 42.42641,0"
       id="path2850" />
    <path
       style="fill:none;stroke:#000000;stroke-width:1px;stroke-linecap:butt;stroke-linejoin:miter;stroke-opacity:1"
       d="m 433.57142,252.36218 35.71429,0 0,110 -36.42857,0"
       id="path2858" />
    <path
       id="path2860"
       d="m 505.46175,252.36218 -35.71429,0 0,110 36.42857,0"
       style="fill:none;stroke:#000000;stroke-width:1px;stroke-linecap:butt;stroke-linejoin:miter;stroke-opacity:1" />
    <path
       sodipodi:type="arc"
       style="fill:#000000;fill-opacity:1;stroke:none"
       id="path2862"
       sodipodi:cx="468.21429"
       sodipodi:cy="395.57648"
       sodipodi:rx="6.7857141"
       sodipodi:ry="6.7857141"
       d="m 475.00001,395.57648 c 0,3.74764 -3.03807,6.78571 -6.78572,6.78571 -3.74764,0 -6.78571,-3.03807 -6.78571,-6.78571 0,-3.74765 3.03807,-6.78572 6.78571,-6.78572 3.74765,0 6.78572,3.03807 6.78572,6.78572 z" />
    <path
       style="fill:none;stroke:#000000;stroke-width:1.01611757px;stroke-linecap:butt;stroke-linejoin:miter;stroke-opacity:1"
       d="M 474.47235,396.28269 506.06337,362.6381"
       id="path2864" />
    <path
       style="fill:none;stroke:#000000;stroke-width:1.00912321px;stroke-linecap:butt;stroke-linejoin:miter;stroke-opacity:1"
       d="M 461.87044,396.01834 433.04028,362.27746"
       id="path2866" />
    <path
       style="fill:none;stroke:#000000;stroke-width:1px;stroke-linecap:butt;stroke-linejoin:miter;stroke-opacity:1"
       d="m 505.625,362.00504 0,-11.07143"
       id="path2868" />
    <path
       id="path2870"
       d="m 505.625,263.43361 0,-11.07143"
       style="fill:none;stroke:#000000;stroke-width:1px;stroke-linecap:butt;stroke-linejoin:miter;stroke-opacity:1" />
    <path
       id="path2872"
       d="m 433.48214,362.00504 0,-11.07143"
       style="fill:none;stroke:#000000;stroke-width:1px;stroke-linecap:butt;stroke-linejoin:miter;stroke-opacity:1" />
    <path
       style="fill:none;stroke:#000000;stroke-width:1px;stroke-linecap:butt;stroke-linejoin:miter;stroke-opacity:1"
       d="m 433.48214,263.43361 0,-11.07143"
       id="path2874" />
    <text
       xml:space="preserve"
       style="font-size:20px;font-style:normal;font-weight:normal;text-align:center;text-anchor:middle;fill:#000000;fill-opacity:1;stroke:none;font-family:Bitstream Vera Sans"
       x="516.42859"
       y="321.64792"
       id="text2876"><tspan
         sodipodi:role="line"
         id="tspan2878"
         x="516.42859"
         y="321.64792">encrypt</tspan></text>
    <path
       sodipodi:type="arc"
       style="fill:none;stroke:#000000;stroke-opacity:1"
       id="path2880"
       sodipodi:cx="612.14288"
       sodipodi:cy="315.93362"
       sodipodi:rx="53.57143"
       sodipodi:ry="53.57143"
       d="m 642.36738,360.16459 c -24.42809,16.69252 -57.76293,10.42161 -74.45546,-14.00647 -6.01005,-8.7952 -9.26154,-19.18247 -9.33905,-29.83471"
       sodipodi:start="0.97134382"
       sodipodi:end="3.1343166"
       sodipodi:open="true"
       transform="matrix(0.41397641,0.71702817,-0.71702817,0.41397641,571.23804,-259.36956)" />
    <path
       style="fill:none;stroke:#000000;stroke-width:1px;stroke-linecap:butt;stroke-linejoin:miter;stroke-opacity:1"
       d="m 575.71429,281.6479 282.85714,0"
       id="path3654" />
    <path
       id="path3656"
       d="m 575.71429,287.36219 282.85714,0"
       style="fill:none;stroke:#000000;stroke-width:1px;stroke-linecap:butt;stroke-linejoin:miter;stroke-opacity:1" />
    <path
       id="path3658"
       d="m 575.71429,293.07647 282.85714,0"
       style="fill:none;stroke:#000000;stroke-width:1px;stroke-linecap:butt;stroke-linejoin:miter;stroke-opacity:1" />
    <path
       style="fill:none;stroke:#000000;stroke-width:1px;stroke-linecap:butt;stroke-linejoin:miter;stroke-opacity:1"
       d="m 575.71429,298.79076 282.85714,0"
       id="path3660" />
    <path
       id="path3662"
       d="m 575.71429,305.21933 282.85714,0"
       style="fill:none;stroke:#000000;stroke-width:1px;stroke-linecap:butt;stroke-linejoin:miter;stroke-opacity:1" />
    <path
       style="fill:none;stroke:#000000;stroke-width:1px;stroke-linecap:butt;stroke-linejoin:miter;stroke-opacity:1"
       d="m 575.71429,310.93362 282.85714,0"
       id="path3664" />
    <path
       style="fill:none;stroke:#000000;stroke-width:1px;stroke-linecap:butt;stroke-linejoin:miter;stroke-opacity:1"
       d="m 575.71429,316.6479 282.85714,0"
       id="path3666" />
    <path
       id="path3668"
       d="m 575.71429,322.36219 282.85714,0"
       style="fill:none;stroke:#000000;stroke-width:1px;stroke-linecap:butt;stroke-linejoin:miter;stroke-opacity:1" />
    <path
       id="path3670"
       d="m 575.71429,326.6479 282.85714,0"
       style="fill:none;stroke:#000000;stroke-width:1px;stroke-linecap:butt;stroke-linejoin:miter;stroke-opacity:1" />
    <path
       style="fill:none;stroke:#000000;stroke-width:1px;stroke-linecap:butt;stroke-linejoin:miter;stroke-opacity:1"
       d="m 575.71429,333.07647 282.85714,0"
       id="path3672" />
    <path
       id="path3674"
       d="m 575.71429,338.79076 282.85714,0"
       style="fill:none;stroke:#000000;stroke-width:1px;stroke-linecap:butt;stroke-linejoin:miter;stroke-opacity:1" />
    <path
       id="path3676"
       d="m 575.71429,344.50504 282.85714,0"
       style="fill:none;stroke:#000000;stroke-width:1px;stroke-linecap:butt;stroke-linejoin:miter;stroke-opacity:1" />
    <path
       transform="matrix(-0.41397641,0.71702817,0.71702817,0.41397641,860.35794,-259.36956)"
       sodipodi:open="true"
       sodipodi:end="3.1343166"
       sodipodi:start="0.97134382"
       d="m 642.36738,360.16459 c -24.42809,16.69252 -57.76293,10.42161 -74.45546,-14.00647 -6.01005,-8.7952 -9.26154,-19.18247 -9.33905,-29.83471"
       sodipodi:ry="53.57143"
       sodipodi:rx="53.57143"
       sodipodi:cy="315.93362"
       sodipodi:cx="612.14288"
       id="path3680"
       style="fill:none;stroke:#000000;stroke-opacity:1"
       sodipodi:type="arc" />
    <text
       xml:space="preserve"
       style="font-size:6px;font-style:normal;font-weight:normal;text-align:center;text-anchor:middle;fill:#000000;fill-opacity:1;stroke:none;font-family:Bitstream Vera Sans"
       x="717.5"
       y="280.57648"
       id="text3682"><tspan
         sodipodi:role="line"
         id="tspan3684"
         x="717.5"
         y="280.57648">01100101000101000101110101101000100010101010001011000010010001100100101101</tspan></text>
    <text
       id="text3686"
       y="304.14792"
       x="717.5"
       style="font-size:6px;font-style:normal;font-weight:normal;text-align:center;text-anchor:middle;fill:#000000;fill-opacity:1;stroke:none;font-family:Bitstream Vera Sans"
       xml:space="preserve"><tspan
         y="304.14792"
         x="717.5"
         id="tspan3688"
         sodipodi:role="line">01100101000101000101110101101000100010101010001011000010010001100100101101</tspan></text>
    <text
       xml:space="preserve"
       style="font-size:6px;font-style:normal;font-weight:normal;text-align:center;text-anchor:middle;fill:#000000;fill-opacity:1;stroke:none;font-family:Bitstream Vera Sans"
       x="717.5"
       y="331.64792"
       id="text3690"><tspan
         sodipodi:role="line"
         id="tspan3692"
         x="717.5"
         y="331.64792">01100101000101000101110101101000100010101010001011000010010001100100101101</tspan></text>
    <text
       id="text3694"
       y="321.64792"
       x="717.5"
       style="font-size:6px;font-style:normal;font-weight:normal;text-align:center;text-anchor:middle;fill:#000000;fill-opacity:1;stroke:none;font-family:Bitstream Vera Sans"
       xml:space="preserve"><tspan
         y="321.64792"
         x="717.5"
         id="tspan3696"
         sodipodi:role="line">00110010010010100010100101001001000100100100010110110010001010110001010100</tspan></text>
    <text
       xml:space="preserve"
       style="font-size:6px;font-style:normal;font-weight:normal;text-align:center;text-anchor:middle;fill:#000000;fill-opacity:1;stroke:none;font-family:Bitstream Vera Sans"
       x="717.5"
       y="287.00507"
       id="text3698"><tspan
         sodipodi:role="line"
         id="tspan3700"
         x="717.5"
         y="287.00507">00110010010010100010100101001001000100100100010110110010001010110001010100</tspan></text>
    <text
       id="text3702"
       y="343.79077"
       x="717.5"
       style="font-size:6px;font-style:normal;font-weight:normal;text-align:center;text-anchor:middle;fill:#000000;fill-opacity:1;stroke:none;font-family:Bitstream Vera Sans"
       xml:space="preserve"><tspan
         y="343.79077"
         x="717.5"
         id="tspan3704"
         sodipodi:role="line">00110010010010100010100101001001000100100100010110110010001010110001010100</tspan></text>
    <text
       xml:space="preserve"
       style="font-size:6px;font-style:normal;font-weight:normal;text-align:center;text-anchor:middle;fill:#000000;fill-opacity:1;stroke:none;font-family:Bitstream Vera Sans"
       x="717.5"
       y="292.36221"
       id="text3706"><tspan
         sodipodi:role="line"
         id="tspan3708"
         x="717.5"
         y="292.36221">01011100101001101011100011010011110110000110101100011011001011010101101010</tspan></text>
    <text
       id="text3710"
       y="337.71936"
       x="717.5"
       style="font-size:6px;font-style:normal;font-weight:normal;text-align:center;text-anchor:middle;fill:#000000;fill-opacity:1;stroke:none;font-family:Bitstream Vera Sans"
       xml:space="preserve"><tspan
         y="337.71936"
         x="717.5"
         id="tspan3712"
         sodipodi:role="line">01011100101001101011100011010011110110000110101100011011001011010101101010</tspan></text>
    <text
       xml:space="preserve"
       style="font-size:6px;font-style:normal;font-weight:normal;text-align:center;text-anchor:middle;fill:#000000;fill-opacity:1;stroke:none;font-family:Bitstream Vera Sans"
       x="717.5"
       y="310.21936"
       id="text3714"><tspan
         sodipodi:role="line"
         id="tspan3716"
         x="717.5"
         y="310.21936">01011100101001101011100011010011110110000110101100011011001011010101101010</tspan></text>
    <text
       id="text3718"
       y="298.07651"
       x="717.5"
       style="font-size:6px;font-style:normal;font-weight:normal;text-align:center;text-anchor:middle;fill:#000000;fill-opacity:1;stroke:none;font-family:Bitstream Vera Sans"
       xml:space="preserve"><tspan
         y="298.07651"
         x="717.5"
         id="tspan3720"
         sodipodi:role="line">11001000100111000110101010101001011000100101010011011000101001100101010100</tspan></text>
    <text
       xml:space="preserve"
       style="font-size:6px;font-style:normal;font-weight:normal;text-align:center;text-anchor:middle;fill:#000000;fill-opacity:1;stroke:none;font-family:Bitstream Vera Sans"
       x="717.5"
       y="315.93365"
       id="text3722"><tspan
         sodipodi:role="line"
         id="tspan3724"
         x="717.5"
         y="315.93365">11001000100111000110101010101001011000100101010011011000101001100101010100</tspan></text>
    <text
       id="text3726"
       y="326.64795"
       x="717.5"
       style="font-size:6px;font-style:normal;font-weight:normal;text-align:center;text-anchor:middle;fill:#000000;fill-opacity:1;stroke:none;font-family:Bitstream Vera Sans"
       xml:space="preserve"><tspan
         y="326.64795"
         x="717.5"
         id="tspan3728"
         sodipodi:role="line">11001000100111000110101010101001011000100101010011011000101001100101010100</tspan></text>
    <rect
       style="fill:#000000;fill-opacity:1;stroke:none"
       id="rect3730"
       width="76.428574"
       height="170"
       x="940.71429"
       y="253.07649" />
    <path
       style="fill:none;stroke:#000000;stroke-width:1px;stroke-linecap:butt;stroke-linejoin:miter;stroke-opacity:1"
       d="m 877.85714,310.21932 63.57143,0"
       id="path3732" />
    <rect
       style="fill:#ff0000;fill-opacity:1;stroke:none"
       id="rect3734"
       width="7.1428571"
       height="6.7857141"
       x="1000.0691"
       y="285.35242" />
    <path
       style="fill:#f2f2f2;stroke:none"
       d="m 871.25657,250.30106 53.53808,0"
       id="path3736" />
    <rect
       style="fill:#cccccc;fill-opacity:1;stroke:none"
       id="rect3738"
       width="60"
       height="1.4285715"
       x="948.75"
       y="265.21933" />
    <rect
       y="277.71933"
       x="948.75"
       height="1.4285715"
       width="60"
       id="rect3740"
       style="fill:#cccccc;fill-opacity:1;stroke:none" />
    <text
       xml:space="preserve"
       style="font-size:6px;font-style:normal;font-weight:normal;text-align:center;text-anchor:middle;fill:#000000;fill-opacity:1;stroke:none;font-family:Bitstream Vera Sans"
       x="311.07144"
       y="265.93362"
       id="text3748"><tspan
         sodipodi:role="line"
         id="tspan3750"
         x="311.07144"
         y="265.93362">Hello, how are you? I am fine.</tspan></text>
    <text
       id="text3752"
       y="274.86221"
       x="311.42859"
       style="font-size:6px;font-style:normal;font-weight:normal;text-align:center;text-anchor:middle;fill:#000000;fill-opacity:1;stroke:none;font-family:Bitstream Vera Sans"
       xml:space="preserve"><tspan
         y="274.86221"
         x="311.42859"
         id="tspan3754"
         sodipodi:role="line">Oh, you are fine too. Good. That is good.</tspan></text>
    <path
       d="m 508.57144,432.36218 c 0,27.61424 -17.90861,50 -40,50 -22.09139,0 -40,-22.38576 -40,-50 0,-27.61423 17.90861,-50 40,-50 22.09139,0 40,22.38577 40,50 z"
       sodipodi:ry="50"
       sodipodi:rx="40"
       sodipodi:cy="432.36218"
       sodipodi:cx="468.57144"
       id="path3758"
       style="fill:#ffb380;fill-opacity:1;stroke:none"
       sodipodi:type="arc"
       transform="translate(-330.35714,-125.71429)" />
    <path
       d="m 461.63971,420.00668 c 0,5.02103 -4.07034,9.09138 -9.09137,9.09138 -5.02103,0 -9.09137,-4.07035 -9.09137,-9.09138 0,-5.02102 4.07034,-9.09137 9.09137,-9.09137 5.02103,0 9.09137,4.07035 9.09137,9.09137 z"
       sodipodi:ry="9.0913725"
       sodipodi:rx="9.0913725"
       sodipodi:cy="420.00668"
       sodipodi:cx="452.54834"
       id="path3760"
       style="fill:#ffffff;fill-opacity:1;stroke:none"
       sodipodi:type="arc"
       transform="translate(-330.35714,-125.71429)" />
    <path
       transform="translate(-299.04242,-125.71429)"
       sodipodi:type="arc"
       style="fill:#ffffff;fill-opacity:1;stroke:none"
       id="path3762"
       sodipodi:cx="452.54834"
       sodipodi:cy="420.00668"
       sodipodi:rx="9.0913725"
       sodipodi:ry="9.0913725"
       d="m 461.63971,420.00668 c 0,5.02103 -4.07034,9.09138 -9.09137,9.09138 -5.02103,0 -9.09137,-4.07035 -9.09137,-9.09138 0,-5.02102 4.07034,-9.09137 9.09137,-9.09137 5.02103,0 9.09137,4.07035 9.09137,9.09137 z" />
    <path
       transform="translate(-316.07143,-138.21429)"
       d="m 444.64285,434.32648 c 0,2.07106 -1.67893,3.75 -3.75,3.75 -2.07107,0 -3.75,-1.67894 -3.75,-3.75 0,-2.07107 1.67893,-3.75 3.75,-3.75 2.07107,0 3.75,1.67893 3.75,3.75 z"
       sodipodi:ry="3.75"
       sodipodi:rx="3.75"
       sodipodi:cy="434.32648"
       sodipodi:cx="440.89285"
       id="path3764"
       style="fill:#008000;fill-opacity:1;stroke:none"
       sodipodi:type="arc" />
    <path
       sodipodi:type="arc"
       style="fill:#008000;fill-opacity:1;stroke:none"
       id="path3766"
       sodipodi:cx="440.89285"
       sodipodi:cy="434.32648"
       sodipodi:rx="3.75"
       sodipodi:ry="3.75"
       d="m 444.64285,434.32648 c 0,2.07106 -1.67893,3.75 -3.75,3.75 -2.07107,0 -3.75,-1.67894 -3.75,-3.75 0,-2.07107 1.67893,-3.75 3.75,-3.75 2.07107,0 3.75,1.67893 3.75,3.75 z"
       transform="translate(-285.71428,-138.57143)" />
    <path
       d="m 475.00001,395.57648 c 0,3.74764 -3.03807,6.78571 -6.78572,6.78571 -3.74764,0 -6.78571,-3.03807 -6.78571,-6.78571 0,-3.74765 3.03807,-6.78572 6.78571,-6.78572 3.74765,0 6.78572,3.03807 6.78572,6.78572 z"
       sodipodi:ry="6.7857141"
       sodipodi:rx="6.7857141"
       sodipodi:cy="395.57648"
       sodipodi:cx="468.21429"
       id="path3770"
       style="fill:#000000;fill-opacity:1;stroke:none"
       sodipodi:type="arc"
       transform="translate(-330.35714,-125.71429)" />
    <path
       style="fill:none;stroke:#000000;stroke-width:0.94525677;stroke-linecap:butt;stroke-linejoin:miter;stroke-miterlimit:4;stroke-opacity:1;stroke-dasharray:none"
       d="m 459.55541,268.79075 -319.11082,0"
       id="path3746" />
    <text
       xml:space="preserve"
       style="font-size:40px;font-style:normal;font-weight:normal;text-align:center;text-anchor:middle;fill:#000000;fill-opacity:1;stroke:none;font-family:Bitstream Vera Sans"
       x="137.14285"
       y="348.43359"
       id="text3772"><tspan
         sodipodi:role="line"
         id="tspan3774"
         x="137.14285"
         y="348.43359">W</tspan></text>
    <rect
       style="fill:#ff0000;fill-opacity:1;stroke:none"
       id="rect3776"
       width="112.12692"
       height="210.11172"
       x="83.842659"
       y="354.34677" />
    <rect
       style="fill:#000000;fill-opacity:1;stroke:none"
       id="rect3778"
       width="53.538086"
       height="241.42645"
       x="84.852814"
       y="563.44836" />
    <rect
       y="563.44836"
       x="143.44167"
       height="241.42645"
       width="53.538086"
       id="rect3780"
       style="fill:#000000;fill-opacity:1;stroke:none" />
    <rect
       style="fill:#ff0000;fill-opacity:1;stroke:none"
       id="rect3782"
       width="40.406101"
       height="151.52289"
       x="199.00005"
       y="360.40768" />
    <rect
       y="360.40768"
       x="39.395943"
       height="151.52289"
       width="40.406101"
       id="rect3784"
       style="fill:#ff0000;fill-opacity:1;stroke:none" />
  </g>
</svg>
