<?xml version="1.0" encoding="UTF-8" standalone="no"?>
<!-- Created with Inkscape (http://www.inkscape.org/) -->

<svg
   xmlns:dc="http://purl.org/dc/elements/1.1/"
   xmlns:cc="http://creativecommons.org/ns#"
   xmlns:rdf="http://www.w3.org/1999/02/22-rdf-syntax-ns#"
   xmlns:svg="http://www.w3.org/2000/svg"
   xmlns="http://www.w3.org/2000/svg"
   xmlns:sodipodi="http://sodipodi.sourceforge.net/DTD/sodipodi-0.dtd"
   xmlns:inkscape="http://www.inkscape.org/namespaces/inkscape"
   width="564.6651"
   height="1114.8087"
   id="svg2"
   version="1.1"
   inkscape:version="0.47 r22583"
   sodipodi:docname="the.world.is.dangerous.so.i.need.to.censor.my.hard.drive.whoops.svg">
  <defs
     id="defs4" />
  <sodipodi:namedview
     id="base"
     pagecolor="#ffffff"
     bordercolor="#666666"
     borderopacity="1.0"
     inkscape:pageopacity="0.0"
     inkscape:pageshadow="2"
     inkscape:zoom="2.8"
     inkscape:cx="261.68086"
     inkscape:cy="375.95311"
     inkscape:document-units="px"
     inkscape:current-layer="layer1"
     showgrid="false"
     inkscape:window-width="1280"
     inkscape:window-height="972"
     inkscape:window-x="0"
     inkscape:window-y="0"
     inkscape:window-maximized="1" />
  <metadata
     id="metadata7">
    <rdf:RDF>
      <cc:Work
         rdf:about="">
        <dc:format>image/svg+xml</dc:format>
        <dc:type
           rdf:resource="http://purl.org/dc/dcmitype/StillImage" />
        <dc:title></dc:title>
      </cc:Work>
    </rdf:RDF>
  </metadata>
  <g
     inkscape:label="Layer 1"
     inkscape:groupmode="layer"
     id="layer1"
     transform="translate(-88.393425,-109.38985)">
    <text
       xml:space="preserve"
       style="font-size:20px;font-style:normal;font-weight:normal;text-align:center;text-anchor:middle;fill:#000000;fill-opacity:1;stroke:none;font-family:Bitstream Vera Sans"
       x="361.42856"
       y="199.50504"
       id="text2816"><tspan
         sodipodi:role="line"
         id="tspan2818"
         x="361.42856"
         y="199.50504">&quot;The world is dangerous,</tspan><tspan
         sodipodi:role="line"
         x="361.42856"
         y="224.50504"
         id="tspan2820">so I need to censor my hard drive&quot;</tspan></text>
    <path
       sodipodi:type="arc"
       style="fill:#ffb380;fill-opacity:1;stroke:none"
       id="path2826"
       sodipodi:cx="372.85715"
       sodipodi:cy="425.21933"
       sodipodi:rx="62.857143"
       sodipodi:ry="62.857143"
       d="m 435.71429,425.21933 c 0,34.71504 -28.1421,62.85714 -62.85714,62.85714 -34.71504,0 -62.85715,-28.1421 -62.85715,-62.85714 0,-34.71504 28.14211,-62.85714 62.85715,-62.85714 34.71504,0 62.85714,28.1421 62.85714,62.85714"
       transform="matrix(0.46448088,0,0,0.46448088,183.95784,128.42737)" />
    <rect
       style="fill:#000000;fill-opacity:1;stroke:none"
       id="rect3628"
       width="36.36549"
       height="144.45181"
       x="314.15744"
       y="463.44327" />
    <rect
       style="fill:#ffb380;fill-opacity:1;stroke:none"
       id="rect3606"
       width="47.857143"
       height="10.714286"
       x="430"
       y="371.64789" />
    <rect
       style="fill:#008000;fill-opacity:1;stroke:none"
       id="rect3602"
       width="40.714287"
       height="28.571428"
       x="394.28571"
       y="361.64789" />
    <rect
       y="-380.2193"
       x="-279.28577"
       height="10.714286"
       width="47.857143"
       id="rect3610"
       style="fill:#ffb380;fill-opacity:1;stroke:none"
       transform="scale(-1,-1)" />
    <rect
       y="361.64789"
       x="276.42856"
       height="28.571428"
       width="40.714287"
       id="rect3604"
       style="fill:#008000;fill-opacity:1;stroke:none" />
    <rect
       y="467.14288"
       x="-374.505"
       height="10.714286"
       width="47.857143"
       id="rect3608"
       style="fill:#ffb380;fill-opacity:1;stroke:none"
       transform="matrix(0,-1,1,0,0,0)" />
    <rect
       transform="matrix(0,1,-1,0,0,0)"
       style="fill:#ffb380;fill-opacity:1;stroke:none"
       id="rect3612"
       width="47.857143"
       height="10.714286"
       x="377.36218"
       y="-242.14285" />
    <rect
       style="fill:#ffb380;fill-opacity:1;stroke:none"
       id="rect3614"
       width="22.475895"
       height="13.637059"
       x="460.62955"
       y="314.95084" />
    <rect
       y="419.50162"
       x="225.26401"
       height="13.637059"
       width="22.475895"
       id="rect3616"
       style="fill:#ffb380;fill-opacity:1;stroke:none" />
    <rect
       style="fill:#ffb380;fill-opacity:1;stroke:none"
       id="rect3618"
       width="7.0754523"
       height="2.7881799"
       x="424.99457"
       y="-362.04718"
       transform="matrix(0.25890714,0.96590222,-0.96594942,0.25873098,0,0)" />
    <rect
       style="fill:#ffb380;fill-opacity:1;stroke:none"
       id="rect3620"
       width="2.4996688"
       height="15.714241"
       x="463.92856"
       y="301.11218" />
    <rect
       y="309.14786"
       x="468.21426"
       height="7.1428571"
       width="2.5"
       id="rect3622"
       style="fill:#ffb380;fill-opacity:1;stroke:none" />
    <rect
       style="fill:#ffb380;fill-opacity:1;stroke:none"
       id="rect3624"
       width="2.5"
       height="7.1428571"
       x="473.75"
       y="309.14786" />
    <rect
       y="309.14786"
       x="478.57144"
       height="7.1428571"
       width="2.5"
       id="rect3626"
       style="fill:#ffb380;fill-opacity:1;stroke:none" />
    <rect
       y="463.44327"
       x="358.60416"
       height="144.45181"
       width="36.36549"
       id="rect3630"
       style="fill:#000000;fill-opacity:1;stroke:none" />
    <rect
       style="fill:#008000;fill-opacity:1;stroke:none"
       id="rect3600"
       width="88.571426"
       height="131.21321"
       x="312.85715"
       y="355.21933" />
    <rect
       style="fill:none;stroke:#000000;stroke-opacity:1"
       id="rect3632"
       width="563.6651"
       height="549.52301"
       x="88.893425"
       y="109.88985" />
    <path
       sodipodi:type="arc"
       style="fill:#ffffff;fill-opacity:1;stroke:none"
       id="path3634"
       sodipodi:cx="344.71457"
       sodipodi:cy="320.63293"
       sodipodi:rx="5.8083773"
       sodipodi:ry="5.8083773"
       d="m 350.52295,320.63293 c 0,3.20788 -2.6005,5.80838 -5.80838,5.80838 -3.20788,0 -5.80838,-2.6005 -5.80838,-5.80838 0,-3.20787 2.6005,-5.80837 5.80838,-5.80837 3.20788,0 5.80838,2.6005 5.80838,5.80837 z"
       transform="translate(1.767767,0.25253814)" />
    <path
       transform="translate(23.738585,0.25253814)"
       d="m 350.52295,320.63293 c 0,3.20788 -2.6005,5.80838 -5.80838,5.80838 -3.20788,0 -5.80838,-2.6005 -5.80838,-5.80838 0,-3.20787 2.6005,-5.80837 5.80838,-5.80837 3.20788,0 5.80838,2.6005 5.80838,5.80837 z"
       sodipodi:ry="5.8083773"
       sodipodi:rx="5.8083773"
       sodipodi:cy="320.63293"
       sodipodi:cx="344.71457"
       id="path3636"
       style="fill:#ffffff;fill-opacity:1;stroke:none"
       sodipodi:type="arc" />
    <path
       sodipodi:type="arc"
       style="fill:#0000ff;fill-opacity:1;stroke:none"
       id="path3638"
       sodipodi:cx="340.16888"
       sodipodi:cy="329.09296"
       sodipodi:rx="3.1567266"
       sodipodi:ry="3.1567266"
       d="m 343.32561,329.09296 c 0,1.74341 -1.41331,3.15672 -3.15673,3.15672 -1.74341,0 -3.15672,-1.41331 -3.15672,-3.15672 0,-1.74342 1.41331,-3.15673 3.15672,-3.15673 1.74342,0 3.15673,1.41331 3.15673,3.15673 z"
       transform="translate(6.3134534,-7.9549513)" />
    <path
       transform="translate(28.536809,-7.9549513)"
       d="m 343.32561,329.09296 c 0,1.74341 -1.41331,3.15672 -3.15673,3.15672 -1.74341,0 -3.15672,-1.41331 -3.15672,-3.15672 0,-1.74342 1.41331,-3.15673 3.15672,-3.15673 1.74342,0 3.15673,1.41331 3.15673,3.15673 z"
       sodipodi:ry="3.1567266"
       sodipodi:rx="3.1567266"
       sodipodi:cy="329.09296"
       sodipodi:cx="340.16888"
       id="path3640"
       style="fill:#0000ff;fill-opacity:1;stroke:none"
       sodipodi:type="arc" />
    <path
       sodipodi:type="arc"
       style="fill:#000000;fill-opacity:1;stroke:none"
       id="path3642"
       sodipodi:cx="357.34146"
       sodipodi:cy="343.23511"
       sodipodi:rx="13.131983"
       sodipodi:ry="4.7982244"
       d="m 370.47344,343.23511 c 0,2.64998 -5.87938,4.79822 -13.13198,4.79822 -7.25259,0 -13.13198,-2.14824 -13.13198,-4.79822 0,-2.64999 5.87939,-4.79823 13.13198,-4.79823 7.2526,0 13.13198,2.14824 13.13198,4.79823 z"
       transform="translate(-1.2626907,-1.767767)" />
    <text
       id="text3644"
       y="763.79077"
       x="361.42856"
       style="font-size:20px;font-style:normal;font-weight:normal;text-align:center;text-anchor:middle;fill:#000000;fill-opacity:1;stroke:none;font-family:Bitstream Vera Sans"
       xml:space="preserve"><tspan
         id="tspan3648"
         y="763.79077"
         x="361.42856"
         sodipodi:role="line">&quot;Whoops&quot;</tspan></text>
    <rect
       style="fill:#4d4d4d;fill-opacity:1;stroke:none"
       id="rect3706"
       width="62.534374"
       height="1.6067501"
       x="326.48352"
       y="880.2193" />
    <path
       transform="matrix(0.46448088,0,0,0.46448088,183.95784,692.71308)"
       d="m 435.71429,425.21933 c 0,34.71504 -28.1421,62.85714 -62.85714,62.85714 -34.71504,0 -62.85715,-28.1421 -62.85715,-62.85714 0,-34.71504 28.14211,-62.85714 62.85715,-62.85714 34.71504,0 62.85714,28.1421 62.85714,62.85714 z"
       sodipodi:ry="62.857143"
       sodipodi:rx="62.857143"
       sodipodi:cy="425.21933"
       sodipodi:cx="372.85715"
       id="path3650"
       style="fill:#ffb380;fill-opacity:1;stroke:none"
       sodipodi:type="arc" />
    <rect
       y="1027.729"
       x="314.15744"
       height="144.45181"
       width="36.36549"
       id="rect3652"
       style="fill:#000000;fill-opacity:1;stroke:none" />
    <rect
       y="1008.0657"
       x="-102.38065"
       height="10.714286"
       width="47.857143"
       id="rect3654"
       style="fill:#ffb380;fill-opacity:1;stroke:none"
       transform="matrix(0.8660254,-0.5,0.5,0.8660254,0,0)" />
    <rect
       y="996.41156"
       x="130.20425"
       height="28.571428"
       width="40.714287"
       id="rect3656"
       style="fill:#008000;fill-opacity:1;stroke:none"
       transform="matrix(0.96592583,-0.25881905,0.25881905,0.96592583,0,0)" />
    <rect
       transform="scale(-1,-1)"
       style="fill:#ffb380;fill-opacity:1;stroke:none"
       id="rect3658"
       width="47.857143"
       height="10.714286"
       x="-279.28577"
       y="-944.505" />
    <rect
       style="fill:#008000;fill-opacity:1;stroke:none"
       id="rect3660"
       width="40.714287"
       height="28.571428"
       x="276.42856"
       y="925.93359" />
    <rect
       transform="matrix(-0.96592583,-0.25881905,0.25881905,-0.96592583,0,0)"
       style="fill:#ffb380;fill-opacity:1;stroke:none"
       id="rect3662"
       width="47.857143"
       height="10.714286"
       x="-682.06274"
       y="-759.53143" />
    <rect
       y="-242.14285"
       x="941.64789"
       height="10.714286"
       width="47.857143"
       id="rect3664"
       style="fill:#ffb380;fill-opacity:1;stroke:none"
       transform="matrix(0,1,-1,0,0,0)" />
    <rect
       style="fill:#000000;fill-opacity:1;stroke:none"
       id="rect3702"
       width="24.642937"
       height="10.713882"
       x="392.67859"
       y="876.11218" />
    <rect
       style="fill:#000000;fill-opacity:1;stroke:none"
       id="rect3700"
       width="12.857142"
       height="32.065407"
       x="403.39288"
       y="876.64789" />
    <rect
       y="622.50861"
       x="-766.04474"
       height="13.637059"
       width="22.475895"
       id="rect3666"
       style="fill:#ffb380;fill-opacity:1;stroke:none"
       transform="matrix(0.25881905,-0.96592583,0.96592583,0.25881905,0,0)" />
    <rect
       style="fill:#ffb380;fill-opacity:1;stroke:none"
       id="rect3668"
       width="22.475895"
       height="13.637059"
       x="225.26401"
       y="983.78735" />
    <rect
       transform="matrix(0.866071,0.49992101,-0.50007895,0.86597982,0,0)"
       y="553.62115"
       x="794.91443"
       height="2.7881799"
       width="7.0754523"
       id="rect3670"
       style="fill:#ffb380;fill-opacity:1;stroke:none" />
    <rect
       style="fill:#ffb380;fill-opacity:1;stroke:none"
       id="rect3674"
       width="2.5"
       height="7.1428571"
       x="-758.46002"
       y="616.70563"
       transform="matrix(0.25881905,-0.96592583,0.96592583,0.25881905,0,0)" />
    <rect
       y="616.70563"
       x="-752.92432"
       height="7.1428571"
       width="2.5"
       id="rect3676"
       style="fill:#ffb380;fill-opacity:1;stroke:none"
       transform="matrix(0.25881905,-0.96592583,0.96592583,0.25881905,0,0)" />
    <rect
       style="fill:#ffb380;fill-opacity:1;stroke:none"
       id="rect3678"
       width="2.5"
       height="7.1428571"
       x="-748.10284"
       y="616.70563"
       transform="matrix(0.25881905,-0.96592583,0.96592583,0.25881905,0,0)" />
    <rect
       style="fill:#000000;fill-opacity:1;stroke:none"
       id="rect3680"
       width="36.36549"
       height="144.45181"
       x="358.60416"
       y="1027.729" />
    <rect
       y="919.50507"
       x="312.85715"
       height="131.21321"
       width="88.571426"
       id="rect3682"
       style="fill:#008000;fill-opacity:1;stroke:none" />
    <rect
       y="674.17554"
       x="88.893425"
       height="549.52301"
       width="563.6651"
       id="rect3684"
       style="fill:none;stroke:#000000;stroke-opacity:1" />
    <path
       transform="translate(1.767767,564.53825)"
       d="m 350.52295,320.63293 c 0,3.20788 -2.6005,5.80838 -5.80838,5.80838 -3.20788,0 -5.80838,-2.6005 -5.80838,-5.80838 0,-3.20787 2.6005,-5.80837 5.80838,-5.80837 3.20788,0 5.80838,2.6005 5.80838,5.80837 z"
       sodipodi:ry="5.8083773"
       sodipodi:rx="5.8083773"
       sodipodi:cy="320.63293"
       sodipodi:cx="344.71457"
       id="path3686"
       style="fill:#ffffff;fill-opacity:1;stroke:none"
       sodipodi:type="arc" />
    <path
       sodipodi:type="arc"
       style="fill:#ffffff;fill-opacity:1;stroke:none"
       id="path3688"
       sodipodi:cx="344.71457"
       sodipodi:cy="320.63293"
       sodipodi:rx="5.8083773"
       sodipodi:ry="5.8083773"
       d="m 350.52295,320.63293 c 0,3.20788 -2.6005,5.80838 -5.80838,5.80838 -3.20788,0 -5.80838,-2.6005 -5.80838,-5.80838 0,-3.20787 2.6005,-5.80837 5.80838,-5.80837 3.20788,0 5.80838,2.6005 5.80838,5.80837 z"
       transform="translate(23.738585,564.53825)" />
    <path
       transform="matrix(0.65999999,0,0,0.65999999,123.42297,665.31818)"
       d="m 343.32561,329.09296 c 0,1.74341 -1.41331,3.15672 -3.15673,3.15672 -1.74341,0 -3.15672,-1.41331 -3.15672,-3.15672 0,-1.74342 1.41331,-3.15673 3.15672,-3.15673 1.74342,0 3.15673,1.41331 3.15673,3.15673 z"
       sodipodi:ry="3.1567266"
       sodipodi:rx="3.1567266"
       sodipodi:cy="329.09296"
       sodipodi:cx="340.16888"
       id="path3690"
       style="fill:#0000ff;fill-opacity:1;stroke:none"
       sodipodi:type="arc" />
    <path
       sodipodi:type="arc"
       style="fill:#0000ff;fill-opacity:1;stroke:none"
       id="path3692"
       sodipodi:cx="340.16888"
       sodipodi:cy="329.09296"
       sodipodi:rx="3.1567266"
       sodipodi:ry="3.1567266"
       d="m 343.32561,329.09296 c 0,1.74341 -1.41331,3.15672 -3.15673,3.15672 -1.74341,0 -3.15672,-1.41331 -3.15672,-3.15672 0,-1.74342 1.41331,-3.15673 3.15672,-3.15673 1.74342,0 3.15673,1.41331 3.15673,3.15673 z"
       transform="matrix(0.55999998,0,0,0.55999998,174.29678,702.52063)" />
    <path
       transform="matrix(0.27631577,0,0,0.27631577,257.33969,814.38418)"
       d="m 370.47344,343.23511 c 0,2.64998 -5.87938,4.79822 -13.13198,4.79822 -7.25259,0 -13.13198,-2.14824 -13.13198,-4.79822 0,-2.64999 5.87939,-4.79823 13.13198,-4.79823 7.2526,0 13.13198,2.14824 13.13198,4.79823 z"
       sodipodi:ry="4.7982244"
       sodipodi:rx="13.131983"
       sodipodi:cy="343.23511"
       sodipodi:cx="357.34146"
       id="path3694"
       style="fill:#000000;fill-opacity:1;stroke:none"
       sodipodi:type="arc" />
    <rect
       transform="matrix(0.25881905,-0.96592583,0.96592583,0.25881905,0,0)"
       y="616.6322"
       x="-764.39557"
       height="7.1428571"
       width="2.5"
       id="rect3698"
       style="fill:#ffb380;fill-opacity:1;stroke:none" />
    <rect
       style="fill:#4d4d4d;fill-opacity:1;stroke:none"
       id="rect3704"
       width="4.1071429"
       height="8.0357141"
       x="388.75"
       y="877.00507" />
    <path
       sodipodi:type="arc"
       style="fill:#ff0000;fill-opacity:1;stroke:none"
       id="path3708"
       sodipodi:cx="328.25894"
       sodipodi:cy="887.13898"
       sodipodi:rx="0.66964287"
       sodipodi:ry="4.5089288"
       d="m 328.92858,887.13898 c 0,2.49021 -0.2998,4.50893 -0.66964,4.50893 -0.36983,0 -0.66964,-2.01872 -0.66964,-4.50893 0,-2.49022 0.29981,-4.50893 0.66964,-4.50893 0.36984,0 0.66964,2.01871 0.66964,4.50893 z" />
    <path
       sodipodi:type="arc"
       style="fill:#ff0000;fill-opacity:1;stroke:none"
       id="path3710"
       sodipodi:cx="329.33035"
       sodipodi:cy="891.51398"
       sodipodi:rx="0.3125"
       sodipodi:ry="6.1160712"
       d="m 329.64285,891.51398 c 0,3.37781 -0.13991,6.11607 -0.3125,6.11607 -0.17259,0 -0.3125,-2.73826 -0.3125,-6.11607 0,-3.37782 0.13991,-6.11607 0.3125,-6.11607 0.17259,0 0.3125,2.73825 0.3125,6.11607 z" />
    <path
       sodipodi:type="arc"
       style="fill:#ff0000;fill-opacity:1;stroke:none"
       id="path3712"
       sodipodi:cx="325.84821"
       sodipodi:cy="901.1568"
       sodipodi:rx="0.84821427"
       sodipodi:ry="7.5446429"
       d="m 326.69642,901.1568 c 0,4.16679 -0.37976,7.54464 -0.84821,7.54464 -0.46846,0 -0.84822,-3.37785 -0.84822,-7.54464 0,-4.16679 0.37976,-7.54464 0.84822,-7.54464 0.46845,0 0.84821,3.37785 0.84821,7.54464 z" />
    <path
       sodipodi:type="arc"
       style="fill:#ff0000;fill-opacity:1;stroke:none"
       id="path3714"
       sodipodi:cx="328.21429"
       sodipodi:cy="901.06757"
       sodipodi:rx="0.53571427"
       sodipodi:ry="7.6339288"
       d="m 328.75001,901.06757 c 0,4.2161 -0.23985,7.63392 -0.53572,7.63392 -0.29586,0 -0.53571,-3.41782 -0.53571,-7.63392 0,-4.21611 0.23985,-7.63393 0.53571,-7.63393 0.29587,0 0.53572,3.41782 0.53572,7.63393 z" />
    <path
       sodipodi:type="arc"
       style="fill:#ff0000;fill-opacity:1;stroke:none"
       id="path3716"
       sodipodi:cx="384.50894"
       sodipodi:cy="891.1568"
       sodipodi:rx="0.58035713"
       sodipodi:ry="9.0625"
       d="m 385.0893,891.1568 c 0,5.00508 -0.25984,9.0625 -0.58036,9.0625 -0.32052,0 -0.58036,-4.05742 -0.58036,-9.0625 0,-5.00508 0.25984,-9.0625 0.58036,-9.0625 0.32052,0 0.58036,4.05742 0.58036,9.0625 z" />
    <path
       sodipodi:type="arc"
       style="fill:#ff0000;fill-opacity:1;stroke:none"
       id="path3718"
       sodipodi:cx="384.55356"
       sodipodi:cy="881.02289"
       sodipodi:rx="0.44642857"
       sodipodi:ry="1.0714285"
       d="m 384.99999,881.02289 c 0,0.59173 -0.19988,1.07143 -0.44643,1.07143 -0.24656,0 -0.44643,-0.4797 -0.44643,-1.07143 0,-0.59174 0.19987,-1.07143 0.44643,-1.07143 0.24655,0 0.44643,0.47969 0.44643,1.07143 z" />
    <path
       sodipodi:type="arc"
       style="fill:#ff0000;fill-opacity:1;stroke:none"
       id="path3720"
       sodipodi:cx="329.33035"
       sodipodi:cy="881.1568"
       sodipodi:rx="0.49107143"
       sodipodi:ry="0.9375"
       d="m 329.82142,881.1568 c 0,0.51777 -0.21986,0.9375 -0.49107,0.9375 -0.27121,0 -0.49107,-0.41973 -0.49107,-0.9375 0,-0.51777 0.21986,-0.9375 0.49107,-0.9375 0.27121,0 0.49107,0.41973 0.49107,0.9375 z" />
    <path
       sodipodi:type="arc"
       style="fill:#ff0000;fill-opacity:1;stroke:none"
       id="path3722"
       sodipodi:cx="382.54465"
       sodipodi:cy="911.7818"
       sodipodi:rx="1.6517857"
       sodipodi:ry="11.919642"
       d="m 384.19643,911.7818 c 0,6.58304 -0.73953,11.91964 -1.65178,11.91964 -0.91226,0 -1.65179,-5.3366 -1.65179,-11.91964 0,-6.58304 0.73953,-11.91964 1.65179,-11.91964 0.91225,0 1.65178,5.3366 1.65178,11.91964 z" />
    <path
       sodipodi:type="arc"
       style="fill:#ff0000;fill-opacity:1;stroke:none"
       id="path3724"
       sodipodi:cx="330.82495"
       sodipodi:cy="922.81012"
       sodipodi:rx="1.5152289"
       sodipodi:ry="12.626906"
       d="m 332.34018,922.81012 c 0,6.97365 -0.67839,12.62691 -1.51523,12.62691 -0.83684,0 -1.51523,-5.65326 -1.51523,-12.62691 0,-6.97365 0.67839,-12.62691 1.51523,-12.62691 0.83684,0 1.51523,5.65326 1.51523,12.62691 z" />
    <path
       sodipodi:type="arc"
       style="fill:#ff0000;fill-opacity:1;stroke:none"
       id="path3726"
       sodipodi:cx="325.14285"
       sodipodi:cy="928.49225"
       sodipodi:rx="2.3991122"
       sodipodi:ry="17.803938"
       d="m 327.54197,928.49225 c 0,9.83284 -1.07412,17.80394 -2.39912,17.80394 -1.32499,0 -2.39911,-7.9711 -2.39911,-17.80394 0,-9.83284 1.07412,-17.80394 2.39911,-17.80394 1.325,0 2.39912,7.9711 2.39912,17.80394 z" />
    <path
       sodipodi:type="arc"
       style="fill:#ff0000;fill-opacity:1;stroke:none"
       id="path3728"
       sodipodi:cx="379.31229"
       sodipodi:cy="931.27014"
       sodipodi:rx="2.0203052"
       sodipodi:ry="19.824244"
       d="m 381.33259,931.27014 c 0,10.94863 -0.90452,19.82425 -2.0203,19.82425 -1.11579,0 -2.02031,-8.87562 -2.02031,-19.82425 0,-10.94863 0.90452,-19.82424 2.02031,-19.82424 1.11578,0 2.0203,8.87561 2.0203,19.82424 z" />
    <path
       sodipodi:type="arc"
       style="fill:#ff0000;fill-opacity:1;stroke:none"
       id="path3730"
       sodipodi:cx="384.36304"
       sodipodi:cy="947.68512"
       sodipodi:rx="1.2626907"
       sodipodi:ry="26.390236"
       d="m 385.62573,947.68512 c 0,14.57492 -0.56533,26.39024 -1.26269,26.39024 -0.69737,0 -1.26269,-11.81532 -1.26269,-26.39024 0,-14.57493 0.56532,-26.39024 1.26269,-26.39024 0.69736,0 1.26269,11.81531 1.26269,26.39024 z" />
    <path
       sodipodi:type="arc"
       style="fill:#ff0000;fill-opacity:1;stroke:none"
       id="path3732"
       sodipodi:cx="329.18347"
       sodipodi:cy="957.9129"
       sodipodi:rx="2.1465743"
       sodipodi:ry="21.465742"
       d="m 331.33005,957.9129 c 0,11.8552 -0.96106,21.46574 -2.14658,21.46574 -1.18552,0 -2.14657,-9.61054 -2.14657,-21.46574 0,-11.8552 0.96105,-21.46574 2.14657,-21.46574 1.18552,0 2.14658,9.61054 2.14658,21.46574 z" />
  </g>
</svg>
