<?xml version="1.0" encoding="UTF-8" standalone="no"?>
<!-- Created with Inkscape (http://www.inkscape.org/) -->

<svg
   xmlns:dc="http://purl.org/dc/elements/1.1/"
   xmlns:cc="http://creativecommons.org/ns#"
   xmlns:rdf="http://www.w3.org/1999/02/22-rdf-syntax-ns#"
   xmlns:svg="http://www.w3.org/2000/svg"
   xmlns="http://www.w3.org/2000/svg"
   xmlns:sodipodi="http://sodipodi.sourceforge.net/DTD/sodipodi-0.dtd"
   xmlns:inkscape="http://www.inkscape.org/namespaces/inkscape"
   width="277.58005"
   height="211.73766"
   id="svg2"
   version="1.1"
   inkscape:version="0.48.3.1 r9886"
   sodipodi:docname="truth.or.desparate.attempts.of.loveless.man.to.find.comfort.in.logic.svg">
  <defs
     id="defs4" />
  <sodipodi:namedview
     id="base"
     pagecolor="#ffffff"
     bordercolor="#666666"
     borderopacity="1.0"
     inkscape:pageopacity="0.0"
     inkscape:pageshadow="2"
     inkscape:zoom="2.8"
     inkscape:cx="141.39235"
     inkscape:cy="102.8821"
     inkscape:document-units="px"
     inkscape:current-layer="layer1"
     showgrid="false"
     inkscape:window-width="1440"
     inkscape:window-height="853"
     inkscape:window-x="0"
     inkscape:window-y="0"
     inkscape:window-maximized="1"
     fit-margin-top="10"
     fit-margin-left="10"
     fit-margin-right="10"
     fit-margin-bottom="10" />
  <metadata
     id="metadata7">
    <rdf:RDF>
      <cc:Work
         rdf:about="">
        <dc:format>image/svg+xml</dc:format>
        <dc:type
           rdf:resource="http://purl.org/dc/dcmitype/StillImage" />
        <dc:title />
      </cc:Work>
    </rdf:RDF>
  </metadata>
  <g
     inkscape:label="Layer 1"
     inkscape:groupmode="layer"
     id="layer1"
     transform="translate(-237.79935,-326.44589)">
    <path
       sodipodi:type="arc"
       style="fill:#ffccaa;stroke:none"
       id="path2820"
       sodipodi:cx="421.78571"
       sodipodi:cy="429.50504"
       sodipodi:rx="32.5"
       sodipodi:ry="32.5"
       d="m 454.28571,429.50504 c 0,17.94925 -14.55075,32.5 -32.5,32.5 -17.94926,0 -32.5,-14.55075 -32.5,-32.5 0,-17.94926 14.55074,-32.5 32.5,-32.5 17.94925,0 32.5,14.55074 32.5,32.5 z"
       transform="matrix(0.19151244,0.01055058,-0.01055058,0.19151244,388.39963,322.47473)" />
    <rect
       style="fill:#ffccaa;stroke:none"
       id="rect3598"
       width="10.994383"
       height="15.941854"
       x="605.5705"
       y="102.65726"
       transform="matrix(0.844383,0.53574001,-0.53574001,0.844383,0,0)" />
    <rect
       style="fill:#ffccaa;fill-opacity:1;stroke:none"
       id="rect3602"
       width="3.8173611"
       height="12.046163"
       x="609.38153"
       y="83.366539"
       transform="matrix(0.81232047,0.58321134,-0.56117813,0.82769506,0,0)" />
    <rect
       transform="matrix(0.79551192,0.60593794,-0.53881665,0.84242306,0,0)"
       y="65.889305"
       x="614.89899"
       height="12.971709"
       width="3.9995878"
       id="rect3604"
       style="fill:#ffccaa;fill-opacity:1;stroke:none" />
    <path
       sodipodi:type="arc"
       style="fill:#ffccaa;fill-opacity:1;stroke:none"
       id="path3606"
       sodipodi:cx="431.83035"
       sodipodi:cy="414.68362"
       sodipodi:rx="0.58035713"
       sodipodi:ry="2.9464285"
       d="m 432.41071,414.68362 c 0,1.62727 -0.25983,2.94643 -0.58036,2.94643 -0.32052,0 -0.58035,-1.31916 -0.58035,-2.94643 0,-1.62726 0.25983,-2.94642 0.58035,-2.94642 0.32053,0 0.58036,1.31916 0.58036,2.94642 z"
       transform="matrix(0.59447527,0.42259186,-0.41950562,0.60007167,369.07446,-2.7211012)" />
    <rect
       transform="matrix(0.32305745,0.94637936,-0.93735896,0.34836502,0,0)"
       y="-298.31516"
       x="544.85223"
       height="12.046163"
       width="3.8173611"
       id="rect3608"
       style="fill:#ffccaa;fill-opacity:1;stroke:none" />
    <rect
       style="fill:#ffccaa;fill-opacity:1;stroke:none"
       id="rect3610"
       width="3.8173611"
       height="12.046163"
       x="393.32959"
       y="472.59183"
       transform="matrix(0.99216946,-0.12489903,0.15150826,0.98845599,0,0)" />
    <text
       xml:space="preserve"
       style="font-size:4px;font-style:normal;font-weight:normal;text-align:center;text-anchor:middle;fill:#000000;fill-opacity:1;stroke:none;font-family:Bitstream Vera Sans"
       x="613.91602"
       y="82.596878"
       id="text3612"
       transform="matrix(0.84753327,0.53074228,-0.53074228,0.84753327,0,0)"><tspan
         sodipodi:role="line"
         id="tspan3614"
         x="613.91602"
         y="82.596878">I'll do my best to raise my family</tspan><tspan
         sodipodi:role="line"
         x="613.91602"
         y="87.596878"
         id="tspan3620">and keep them safe, even if it</tspan><tspan
         sodipodi:role="line"
         x="613.91602"
         y="92.596878"
         id="tspan3622">means putting my dreams aside</tspan></text>
    <text
       xml:space="preserve"
       style="font-size:9px;font-style:normal;font-weight:normal;text-align:center;text-anchor:middle;fill:#000000;fill-opacity:1;stroke:none;font-family:Bitstream Vera Sans"
       x="386.42856"
       y="357.71933"
       id="text3616"><tspan
         sodipodi:role="line"
         id="tspan3618"
         x="386.42856"
         y="357.71933"
         style="font-size:28px">Vicious Cycle</tspan></text>
    <path
       transform="matrix(0.04866327,-0.06095717,0.06095717,0.04866327,343.53478,422.09991)"
       d="m 454.28571,429.50504 c 0,17.94925 -14.55075,32.5 -32.5,32.5 -17.94926,0 -32.5,-14.55075 -32.5,-32.5 0,-17.94926 14.55074,-32.5 32.5,-32.5 17.94925,0 32.5,14.55074 32.5,32.5 z"
       sodipodi:ry="32.5"
       sodipodi:rx="32.5"
       sodipodi:cy="429.50504"
       sodipodi:cx="421.78571"
       id="path3624"
       style="fill:#ffccaa;stroke:none"
       sodipodi:type="arc" />
    <rect
       transform="matrix(0.92614638,-0.37716427,0.37716427,0.92614638,0,0)"
       y="536.13007"
       x="201.60114"
       height="6.482976"
       width="4.4710183"
       id="rect3626"
       style="fill:#ffccaa;stroke:none" />
    <rect
       transform="matrix(0.94622365,-0.32351321,0.34881643,0.93719107,0,0)"
       y="530.21057"
       x="218.20003"
       height="4.8987393"
       width="1.5523829"
       id="rect3628"
       style="fill:#ffccaa;fill-opacity:1;stroke:none" />
    <rect
       style="fill:#ffccaa;fill-opacity:1;stroke:none"
       id="rect3630"
       width="1.6264879"
       height="5.2751255"
       x="207.05424"
       y="524.85602"
       transform="matrix(0.95498947,-0.2966397,0.37378329,0.92751607,0,0)" />
    <path
       transform="matrix(0.28020536,-0.09727387,0.09985577,0.28050284,231.24394,351.805)"
       d="m 432.41071,414.68362 c 0,1.62727 -0.25983,2.94643 -0.58036,2.94643 -0.32052,0 -0.58035,-1.31916 -0.58035,-2.94643 0,-1.62726 0.25983,-2.94642 0.58035,-2.94642 0.32053,0 0.58036,1.31916 0.58036,2.94642 z"
       sodipodi:ry="2.9464285"
       sodipodi:rx="0.58035713"
       sodipodi:cy="414.68362"
       sodipodi:cx="431.83035"
       id="path3632"
       style="fill:#ffccaa;fill-opacity:1;stroke:none"
       sodipodi:type="arc" />
    <rect
       style="fill:#ffccaa;fill-opacity:1;stroke:none"
       id="rect3634"
       width="1.5523829"
       height="4.8987393"
       x="485.13159"
       y="292.31412"
       transform="matrix(0.95832347,0.28568536,-0.25983721,0.96565243,0,0)" />
    <rect
       transform="matrix(0.47367052,-0.88070213,0.89310927,0.44983978,0,0)"
       y="544.96191"
       x="-198.87843"
       height="4.8987393"
       width="1.5523829"
       id="rect3636"
       style="fill:#ffccaa;fill-opacity:1;stroke:none" />
    <text
       xml:space="preserve"
       style="font-size:2px;font-style:normal;font-weight:normal;text-align:center;text-anchor:middle;fill:#000000;fill-opacity:1;stroke:none;font-family:Bitstream Vera Sans"
       x="226.69695"
       y="518.28986"
       id="text3638"
       transform="matrix(0.94183105,-0.3360867,0.3360867,0.94183105,0,0)"><tspan
         sodipodi:role="line"
         id="tspan3640"
         x="226.69695"
         y="518.28986">derp i'm 12mo</tspan><tspan
         sodipodi:role="line"
         x="226.69695"
         y="520.78986"
         id="tspan3642">and what is this</tspan></text>
    <path
       transform="matrix(-0.04111361,0.1873446,-0.1873446,-0.04111361,563.97147,428.22407)"
       d="m 454.28571,429.50504 c 0,17.94925 -14.55075,32.5 -32.5,32.5 -17.94926,0 -32.5,-14.55075 -32.5,-32.5 0,-17.94926 14.55074,-32.5 32.5,-32.5 17.94925,0 32.5,14.55074 32.5,32.5 z"
       sodipodi:ry="32.5"
       sodipodi:rx="32.5"
       sodipodi:cy="429.50504"
       sodipodi:cx="421.78571"
       id="path3644"
       style="fill:#ffccaa;stroke:none"
       sodipodi:type="arc" />
    <rect
       transform="matrix(-0.66416668,0.74758453,-0.74758453,-0.66416668,0,0)"
       y="-667.58221"
       x="50.412483"
       height="15.941854"
       width="10.994383"
       id="rect3646"
       style="fill:#ffccaa;stroke:none" />
    <rect
       transform="matrix(-0.7058845,0.70832696,-0.72703466,-0.68660076,0,0)"
       y="-654.0863"
       x="30.841005"
       height="12.046163"
       width="3.8173611"
       id="rect3648"
       style="fill:#ffccaa;fill-opacity:1;stroke:none" />
    <rect
       style="fill:#ffccaa;fill-opacity:1;stroke:none"
       id="rect3650"
       width="3.9995878"
       height="12.971709"
       x="55.057751"
       y="-656.51306"
       transform="matrix(-0.72562279,0.6880927,-0.74515676,-0.66688935,0,0)" />
    <path
       transform="matrix(-0.51242149,0.51904619,-0.52506494,-0.51027225,888.05981,461.27773)"
       d="m 432.41071,414.68362 c 0,1.62727 -0.25983,2.94643 -0.58036,2.94643 -0.32052,0 -0.58035,-1.31916 -0.58035,-2.94643 0,-1.62726 0.25983,-2.94642 0.58035,-2.94642 0.32053,0 0.58036,1.31916 0.58036,2.94642 z"
       sodipodi:ry="2.9464285"
       sodipodi:rx="0.58035713"
       sodipodi:cy="414.68362"
       sodipodi:cx="431.83035"
       id="path3652"
       style="fill:#ffccaa;fill-opacity:1;stroke:none"
       sodipodi:type="arc" />
    <rect
       style="fill:#ffccaa;fill-opacity:1;stroke:none"
       id="rect3654"
       width="3.8173611"
       height="12.046163"
       x="-363.45157"
       y="-551.49078"
       transform="matrix(-0.98592723,0.16717506,-0.19360135,-0.98108028,0,0)" />
    <rect
       transform="matrix(-0.03576099,0.99936037,-0.99996039,-0.0089006,0,0)"
       y="-475.13501"
       x="481.49051"
       height="12.046163"
       width="3.8173611"
       id="rect3656"
       style="fill:#ffccaa;fill-opacity:1;stroke:none" />
    <text
       transform="matrix(-0.65973856,0.7514952,-0.7514952,-0.65973856,0,0)"
       id="text3658"
       y="-690.90887"
       x="63.318024"
       style="font-size:4px;font-style:normal;font-weight:normal;text-align:center;text-anchor:middle;fill:#000000;fill-opacity:1;stroke:none;font-family:Bitstream Vera Sans"
       xml:space="preserve"><tspan
         id="tspan3664"
         y="-690.90887"
         x="63.318024"
         sodipodi:role="line">Damn, I wasted the best years</tspan><tspan
         y="-685.90887"
         x="63.318024"
         sodipodi:role="line"
         id="tspan3671">of my life raising my kids who</tspan><tspan
         y="-680.90887"
         x="63.318024"
         sodipodi:role="line"
         id="tspan3673">barely talk to me</tspan></text>
    <path
       sodipodi:type="arc"
       style="fill:#ffccaa;stroke:none"
       id="path3675"
       sodipodi:cx="421.78571"
       sodipodi:cy="429.50504"
       sodipodi:rx="32.5"
       sodipodi:ry="32.5"
       d="m 454.28571,429.50504 c 0,17.94925 -14.55075,32.5 -32.5,32.5 -17.94926,0 -32.5,-14.55075 -32.5,-32.5 0,-17.94926 14.55074,-32.5 32.5,-32.5 17.94925,0 32.5,14.55074 32.5,32.5 z"
       transform="matrix(-0.1842827,0.05318093,-0.05318093,-0.1842827,485.75403,559.75309)" />
    <rect
       style="fill:#ffccaa;stroke:none"
       id="rect3677"
       width="10.994383"
       height="15.941854"
       x="-495.46234"
       y="-396.18671"
       transform="matrix(-0.97380335,-0.2273918,0.2273918,-0.97380335,0,0)" />
    <rect
       style="fill:#ffccaa;fill-opacity:1;stroke:none"
       id="rect3679"
       width="3.8173611"
       height="12.046163"
       x="-506.7193"
       y="-351.76953"
       transform="matrix(-0.95918485,-0.28277981,0.25690957,-0.96643545,0,0)" />
    <rect
       transform="matrix(-0.9508091,-0.30977744,0.2309426,-0.97296738,0,0)"
       y="-338.39532"
       x="-491.65652"
       height="12.971709"
       width="3.9995878"
       id="rect3681"
       style="fill:#ffccaa;fill-opacity:1;stroke:none" />
    <path
       d="m 376.96429,450.57648 c 0,9.66498 -15.67003,17.5 -35,17.5 -19.32996,0 -35,-7.83502 -35,-17.5 0,-9.66499 15.67004,-17.5 35,-17.5 19.32997,0 35,7.83501 35,17.5 z"
       sodipodi:ry="17.5"
       sodipodi:rx="35"
       sodipodi:cy="450.57648"
       sodipodi:cx="341.96429"
       id="path3596"
       style="fill:none;stroke:#000000;stroke-width:10;stroke-miterlimit:4;stroke-opacity:1;stroke-dasharray:none"
       sodipodi:type="arc"
       transform="translate(70.892857,0)" />
    <path
       sodipodi:type="arc"
       style="fill:#ffccaa;fill-opacity:1;stroke:none"
       id="path3683"
       sodipodi:cx="431.83035"
       sodipodi:cy="414.68362"
       sodipodi:rx="0.58035713"
       sodipodi:ry="2.9464285"
       d="m 432.41071,414.68362 c 0,1.62727 -0.25983,2.94643 -0.58036,2.94643 -0.32052,0 -0.58035,-1.31916 -0.58035,-2.94643 0,-1.62726 0.25983,-2.94642 0.58035,-2.94642 0.32053,0 0.58036,1.31916 0.58036,2.94642 z"
       transform="matrix(-0.7005641,-0.20296472,0.1982059,-0.70483004,611.21561,860.39439)" />
    <rect
       transform="matrix(-0.61701492,-0.78695145,0.77009152,-0.63793343,0,0)"
       y="2.0775549"
       x="-634.09253"
       height="12.046163"
       width="3.8173611"
       id="rect3685"
       style="fill:#ffccaa;fill-opacity:1;stroke:none" />
    <rect
       style="fill:#ffccaa;fill-opacity:1;stroke:none"
       id="rect3687"
       width="3.8173611"
       height="12.046163"
       x="-108.45962"
       y="-613.70398"
       transform="matrix(-0.89551401,0.44503333,-0.46893041,-0.88323512,0,0)" />
    <text
       xml:space="preserve"
       style="font-size:4px;font-style:normal;font-weight:normal;text-align:center;text-anchor:middle;fill:#000000;fill-opacity:1;stroke:none;font-family:Bitstream Vera Sans"
       x="-484.15054"
       y="-422.74292"
       id="text3689"
       transform="matrix(-0.97512973,-0.22163487,0.22163487,-0.97512973,0,0)"><tspan
         id="tspan3695"
         sodipodi:role="line"
         x="-484.15054"
         y="-422.74292">FFFFFFFFF here it comes...</tspan><tspan
         sodipodi:role="line"
         x="-484.15054"
         y="-417.74292"
         id="tspan3702">I wish I would have done</tspan><tspan
         sodipodi:role="line"
         x="-484.15054"
         y="-412.74292"
         id="tspan3704">&lt;blah blah blah&gt;</tspan></text>
    <path
       transform="matrix(-0.19151244,-0.01055058,0.01055058,-0.19151244,364.77911,579.34482)"
       d="m 454.28571,429.50504 c 0,17.94925 -14.55075,32.5 -32.5,32.5 -17.94926,0 -32.5,-14.55075 -32.5,-32.5 0,-17.94926 14.55074,-32.5 32.5,-32.5 17.94925,0 32.5,14.55074 32.5,32.5 z"
       sodipodi:ry="32.5"
       sodipodi:rx="32.5"
       sodipodi:cy="429.50504"
       sodipodi:cx="421.78571"
       id="path3706"
       style="fill:#ffccaa;stroke:none"
       sodipodi:type="arc" />
    <rect
       transform="matrix(-0.844383,-0.53574001,0.53574001,-0.844383,0,0)"
       y="-255.3158"
       x="-513.54163"
       height="15.941854"
       width="10.994383"
       id="rect3708"
       style="fill:#ffccaa;stroke:none" />
    <rect
       transform="matrix(-0.81232046,-0.58321134,0.56117813,-0.82769506,0,0)"
       y="-210.04343"
       x="-520.51001"
       height="12.046163"
       width="3.8173611"
       id="rect3710"
       style="fill:#ffccaa;fill-opacity:1;stroke:none" />
    <rect
       style="fill:#ffccaa;fill-opacity:1;stroke:none"
       id="rect3712"
       width="3.9995878"
       height="12.971709"
       x="-509.28088"
       y="-196.01749"
       transform="matrix(-0.79551192,-0.60593794,0.53881665,-0.84242306,0,0)" />
    <path
       transform="matrix(-0.59447527,-0.42259186,0.41950562,-0.60007167,382.77845,906.4347)"
       d="m 432.41071,414.68362 c 0,1.62727 -0.25983,2.94643 -0.58036,2.94643 -0.32052,0 -0.58035,-1.31916 -0.58035,-2.94643 0,-1.62726 0.25983,-2.94642 0.58035,-2.94642 0.32053,0 0.58036,1.31916 0.58036,2.94642 z"
       sodipodi:ry="2.9464285"
       sodipodi:rx="0.58035713"
       sodipodi:cy="414.68362"
       sodipodi:cx="431.83035"
       id="path3714"
       style="fill:#ffffff;fill-opacity:1;stroke:none"
       sodipodi:type="arc" />
    <rect
       style="fill:#ffccaa;fill-opacity:1;stroke:none"
       id="rect3716"
       width="3.8173611"
       height="12.046163"
       x="-563.25745"
       y="123.29028"
       transform="matrix(-0.32305745,-0.94637936,0.93735896,-0.34836502,0,0)" />
    <rect
       transform="matrix(-0.99216946,0.12489903,-0.15150826,-0.98845599,0,0)"
       y="-516.5943"
       x="-214.7408"
       height="12.046163"
       width="3.8173611"
       id="rect3718"
       style="fill:#ffccaa;fill-opacity:1;stroke:none" />
    <text
       transform="matrix(-0.84753327,-0.53074228,0.53074228,-0.84753327,0,0)"
       id="text3720"
       y="-281.98138"
       x="-503.0618"
       style="font-size:4px;font-style:normal;font-weight:normal;text-align:center;text-anchor:middle;fill:#000000;fill-opacity:1;stroke:none;font-family:Bitstream Vera Sans"
       xml:space="preserve"><tspan
         y="-281.98138"
         x="-503.0618"
         id="tspan3722"
         sodipodi:role="line">I'll do my best to raise my family</tspan><tspan
         id="tspan3724"
         y="-276.98138"
         x="-503.0618"
         sodipodi:role="line">and keep them safe, even if it</tspan><tspan
         id="tspan3726"
         y="-271.98138"
         x="-503.0618"
         sodipodi:role="line">means putting my dreams aside</tspan></text>
    <path
       sodipodi:type="arc"
       style="fill:#ffccaa;stroke:none"
       id="path3728"
       sodipodi:cx="421.78571"
       sodipodi:cy="429.50504"
       sodipodi:rx="32.5"
       sodipodi:ry="32.5"
       d="m 454.28571,429.50504 c 0,17.94925 -14.55075,32.5 -32.5,32.5 -17.94926,0 -32.5,-14.55075 -32.5,-32.5 0,-17.94926 14.55074,-32.5 32.5,-32.5 17.94925,0 32.5,14.55074 32.5,32.5 z"
       transform="matrix(-0.04866327,0.06095717,-0.06095717,-0.04866327,409.64396,479.71964)" />
    <rect
       style="fill:#ffccaa;stroke:none"
       id="rect3730"
       width="4.4710183"
       height="6.482976"
       x="-155.81853"
       y="-583.15894"
       transform="matrix(-0.92614638,0.37716427,-0.37716427,-0.92614638,0,0)" />
    <rect
       style="fill:#ffccaa;fill-opacity:1;stroke:none"
       id="rect3732"
       width="1.5523829"
       height="4.8987393"
       x="-173.24417"
       y="-567.17181"
       transform="matrix(-0.94622365,0.32351321,-0.34881643,-0.93719107,0,0)" />
    <rect
       transform="matrix(-0.95498947,0.2966397,-0.37378329,-0.92751607,0,0)"
       y="-563.44391"
       x="-155.6622"
       height="5.2751255"
       width="1.6264879"
       id="rect3734"
       style="fill:#ffccaa;fill-opacity:1;stroke:none" />
    <path
       sodipodi:type="arc"
       style="fill:#ffffff;fill-opacity:1;stroke:none"
       id="path3736"
       sodipodi:cx="431.83035"
       sodipodi:cy="414.68362"
       sodipodi:rx="0.58035713"
       sodipodi:ry="2.9464285"
       d="m 432.41071,414.68362 c 0,1.62727 -0.25983,2.94643 -0.58036,2.94643 -0.32052,0 -0.58035,-1.31916 -0.58035,-2.94643 0,-1.62726 0.25983,-2.94642 0.58035,-2.94642 0.32053,0 0.58036,1.31916 0.58036,2.94642 z"
       transform="matrix(-0.28020536,0.09727387,-0.09985577,-0.28050284,522.26626,550.63011)" />
    <rect
       transform="matrix(-0.95832347,-0.28568536,0.25983721,-0.96565243,0,0)"
       y="-356.98294"
       x="-476.85074"
       height="4.8987393"
       width="1.5523829"
       id="rect3738"
       style="fill:#ffccaa;fill-opacity:1;stroke:none" />
    <rect
       style="fill:#ffccaa;fill-opacity:1;stroke:none"
       id="rect3740"
       width="1.5523829"
       height="4.8987393"
       x="267.90372"
       y="-545.92322"
       transform="matrix(-0.47367052,0.88070213,-0.89310927,-0.44983978,0,0)" />
    <text
       transform="matrix(-0.94183105,0.3360867,-0.3360867,-0.94183105,0,0)"
       id="text3742"
       y="-584.2052"
       x="-179.5806"
       style="font-size:2px;font-style:normal;font-weight:normal;text-align:center;text-anchor:middle;fill:#000000;fill-opacity:1;stroke:none;font-family:Bitstream Vera Sans"
       xml:space="preserve"><tspan
         y="-584.2052"
         x="-179.5806"
         id="tspan3744"
         sodipodi:role="line">derp i'm 12mo</tspan><tspan
         id="tspan3746"
         y="-581.7052"
         x="-179.5806"
         sodipodi:role="line">and what is this</tspan></text>
    <path
       sodipodi:type="arc"
       style="fill:#ffccaa;stroke:none"
       id="path3748"
       sodipodi:cx="421.78571"
       sodipodi:cy="429.50504"
       sodipodi:rx="32.5"
       sodipodi:ry="32.5"
       d="m 454.28571,429.50504 c 0,17.94925 -14.55075,32.5 -32.5,32.5 -17.94926,0 -32.5,-14.55075 -32.5,-32.5 0,-17.94926 14.55074,-32.5 32.5,-32.5 17.94925,0 32.5,14.55074 32.5,32.5 z"
       transform="matrix(0.04111361,-0.1873446,0.1873446,0.04111361,189.20727,473.59548)" />
    <rect
       style="fill:#ffccaa;stroke:none"
       id="rect3750"
       width="10.994383"
       height="15.941854"
       x="-123.53761"
       y="494.44107"
       transform="matrix(0.66416668,-0.74758453,0.74758453,0.66416668,0,0)" />
    <rect
       style="fill:#ffccaa;fill-opacity:1;stroke:none"
       id="rect3752"
       width="3.8173611"
       height="12.046163"
       x="-107.72997"
       y="516.41345"
       transform="matrix(0.7058845,-0.70832696,0.72703466,0.68660076,0,0)" />
    <rect
       transform="matrix(0.72562279,-0.6880927,0.74515676,0.66688935,0,0)"
       y="520.06964"
       x="-115.22327"
       height="12.971709"
       width="3.9995878"
       id="rect3754"
       style="fill:#ffccaa;fill-opacity:1;stroke:none" />
    <path
       sodipodi:type="arc"
       style="fill:#ffffff;fill-opacity:1;stroke:none"
       id="path3756"
       sodipodi:cx="431.83035"
       sodipodi:cy="414.68362"
       sodipodi:rx="0.58035713"
       sodipodi:ry="2.9464285"
       d="m 432.41071,414.68362 c 0,1.62727 -0.25983,2.94643 -0.58036,2.94643 -0.32052,0 -0.58035,-1.31916 -0.58035,-2.94643 0,-1.62726 0.25983,-2.94642 0.58035,-2.94642 0.32053,0 0.58036,1.31916 0.58036,2.94642 z"
       transform="matrix(0.51242149,-0.51904619,0.52506494,0.51027225,-136.52257,438.83719)" />
    <rect
       transform="matrix(0.98592723,-0.16717506,0.19360135,0.98108028,0,0)"
       y="463.91687"
       x="201.08749"
       height="12.046163"
       width="3.8173611"
       id="rect3758"
       style="fill:#ffccaa;fill-opacity:1;stroke:none" />
    <rect
       style="fill:#ffccaa;fill-opacity:1;stroke:none"
       id="rect3760"
       width="3.8173611"
       height="12.046163"
       x="-413.91278"
       y="310.09531"
       transform="matrix(0.03576099,-0.99936037,0.99996039,0.0089006,0,0)" />
    <text
       xml:space="preserve"
       style="font-size:4px;font-style:normal;font-weight:normal;text-align:center;text-anchor:middle;fill:#000000;fill-opacity:1;stroke:none;font-family:Bitstream Vera Sans"
       x="-117.49395"
       y="470.06647"
       id="text3762"
       transform="matrix(0.65973856,-0.7514952,0.7514952,0.65973856,0,0)"><tspan
         sodipodi:role="line"
         x="-117.49395"
         y="470.06647"
         id="tspan3764">Damn, I wasted the best years</tspan><tspan
         id="tspan3766"
         sodipodi:role="line"
         x="-117.49395"
         y="475.06647">of my life raising my kids who</tspan><tspan
         id="tspan3768"
         sodipodi:role="line"
         x="-117.49395"
         y="480.06647">barely talk to me</tspan></text>
    <path
       transform="matrix(0.1842827,-0.05318093,0.05318093,0.1842827,267.42471,342.06646)"
       d="m 454.28571,429.50504 c 0,17.94925 -14.55075,32.5 -32.5,32.5 -17.94926,0 -32.5,-14.55075 -32.5,-32.5 0,-17.94926 14.55074,-32.5 32.5,-32.5 17.94925,0 32.5,14.55074 32.5,32.5 z"
       sodipodi:ry="32.5"
       sodipodi:rx="32.5"
       sodipodi:cy="429.50504"
       sodipodi:cx="421.78571"
       id="path3770"
       style="fill:#ffccaa;stroke:none"
       sodipodi:type="arc" />
    <rect
       transform="matrix(0.97380335,0.2273918,-0.2273918,0.97380335,0,0)"
       y="310.74155"
       x="443.052"
       height="15.941854"
       width="10.994383"
       id="rect3772"
       style="fill:#ffccaa;stroke:none" />
    <rect
       transform="matrix(0.95918485,0.28277981,-0.25690957,0.96643545,0,0)"
       y="300.49377"
       x="453.21185"
       height="12.046163"
       width="3.8173611"
       id="rect3774"
       style="fill:#ffccaa;fill-opacity:1;stroke:none" />
    <rect
       style="fill:#ffccaa;fill-opacity:1;stroke:none"
       id="rect3776"
       width="3.9995878"
       height="12.971709"
       x="452.59641"
       y="287.84491"
       transform="matrix(0.9508091,0.30977744,-0.2309426,0.97296738,0,0)" />
    <path
       transform="matrix(-1,0,0,-1,682.28588,901.81955)"
       sodipodi:type="arc"
       style="fill:none;stroke:#000000;stroke-width:10;stroke-miterlimit:4;stroke-opacity:1;stroke-dasharray:none"
       id="path3778"
       sodipodi:cx="341.96429"
       sodipodi:cy="450.57648"
       sodipodi:rx="35"
       sodipodi:ry="17.5"
       d="m 376.96429,450.57648 c 0,9.66498 -15.67003,17.5 -35,17.5 -19.32996,0 -35,-7.83502 -35,-17.5 0,-9.66499 15.67004,-17.5 35,-17.5 19.32997,0 35,7.83501 35,17.5 z" />
    <path
       transform="matrix(0.7005641,0.20296472,-0.1982059,0.70483004,142.49977,39.215455)"
       d="m 432.41071,414.68362 c 0,1.62727 -0.25983,2.94643 -0.58036,2.94643 -0.32052,0 -0.58035,-1.31916 -0.58035,-2.94643 0,-1.62726 0.25983,-2.94642 0.58035,-2.94642 0.32053,0 0.58036,1.31916 0.58036,2.94642 z"
       sodipodi:ry="2.9464285"
       sodipodi:rx="0.58035713"
       sodipodi:cy="414.68362"
       sodipodi:cx="431.83035"
       id="path3780"
       style="fill:#ffffff;fill-opacity:1;stroke:none"
       sodipodi:type="arc" />
    <rect
       style="fill:#ffccaa;fill-opacity:1;stroke:none"
       id="rect3782"
       width="3.8173611"
       height="12.046163"
       x="541.29321"
       y="-34.214539"
       transform="matrix(0.61701492,0.78695145,-0.77009152,0.63793343,0,0)" />
    <rect
       transform="matrix(0.89551401,-0.44503333,0.46893041,0.88323512,0,0)"
       y="529.49036"
       x="133.97116"
       height="12.046163"
       width="3.8173611"
       id="rect3784"
       style="fill:#ffccaa;fill-opacity:1;stroke:none" />
    <text
       transform="matrix(0.97512973,0.22163487,-0.22163487,0.97512973,0,0)"
       id="text3786"
       y="289.71747"
       x="450.17111"
       style="font-size:4px;font-style:normal;font-weight:normal;text-align:center;text-anchor:middle;fill:#000000;fill-opacity:1;stroke:none;font-family:Bitstream Vera Sans"
       xml:space="preserve"><tspan
         y="289.71747"
         x="450.17111"
         sodipodi:role="line"
         id="tspan3788">FFFFFFFFF here it comes...</tspan><tspan
         id="tspan3790"
         y="294.71747"
         x="450.17111"
         sodipodi:role="line">I wish I would have done</tspan><tspan
         id="tspan3792"
         y="299.71747"
         x="450.17111"
         sodipodi:role="line">&lt;blah blah blah&gt;</tspan></text>
  </g>
</svg>
