<?xml version="1.0" encoding="UTF-8" standalone="no"?>
<!-- Created with Inkscape (http://www.inkscape.org/) -->

<svg
   xmlns:dc="http://purl.org/dc/elements/1.1/"
   xmlns:cc="http://creativecommons.org/ns#"
   xmlns:rdf="http://www.w3.org/1999/02/22-rdf-syntax-ns#"
   xmlns:svg="http://www.w3.org/2000/svg"
   xmlns="http://www.w3.org/2000/svg"
   xmlns:sodipodi="http://sodipodi.sourceforge.net/DTD/sodipodi-0.dtd"
   xmlns:inkscape="http://www.inkscape.org/namespaces/inkscape"
   width="744.09448819"
   height="1052.3622047"
   id="svg2"
   version="1.1"
   inkscape:version="0.47 r22583"
   sodipodi:docname="New document 1">
  <defs
     id="defs4">
    <inkscape:perspective
       sodipodi:type="inkscape:persp3d"
       inkscape:vp_x="0 : 526.18109 : 1"
       inkscape:vp_y="0 : 1000 : 0"
       inkscape:vp_z="744.09448 : 526.18109 : 1"
       inkscape:persp3d-origin="372.04724 : 350.78739 : 1"
       id="perspective10" />
  </defs>
  <sodipodi:namedview
     id="base"
     pagecolor="#ffffff"
     bordercolor="#666666"
     borderopacity="1.0"
     inkscape:pageopacity="0.0"
     inkscape:pageshadow="2"
     inkscape:zoom="0.98994949"
     inkscape:cx="306.31812"
     inkscape:cy="420.34065"
     inkscape:document-units="px"
     inkscape:current-layer="layer1"
     showgrid="false"
     inkscape:window-width="1440"
     inkscape:window-height="848"
     inkscape:window-x="0"
     inkscape:window-y="0"
     inkscape:window-maximized="1" />
  <metadata
     id="metadata7">
    <rdf:RDF>
      <cc:Work
         rdf:about="">
        <dc:format>image/svg+xml</dc:format>
        <dc:type
           rdf:resource="http://purl.org/dc/dcmitype/StillImage" />
        <dc:title></dc:title>
      </cc:Work>
    </rdf:RDF>
  </metadata>
  <g
     inkscape:label="Layer 1"
     inkscape:groupmode="layer"
     id="layer1">
    <path
       style="fill:#000080;fill-opacity:1;stroke:#000000;stroke-width:0.25;stroke-linecap:square;stroke-miterlimit:4;stroke-opacity:1;stroke-dasharray:none"
       id="path2818"
       d="m 313.18538,979.58622 c -2.33223,-1.0605 -4.73909,-2.00554 -6.98132,-3.24948 -1.53872,-0.77727 -2.95731,-1.83229 -4.15888,-3.06815 -1.16241,-0.79528 -2.2553,-1.688 -3.40356,-2.50823 -1.00934,-0.963 -2.19422,-1.82735 -3.48949,-2.36476 -1.38686,-0.90857 -2.34869,-2.31296 -3.55445,-3.43834 -1.06048,-1.27234 -1.98019,-2.65987 -3.09719,-3.88967 -0.86576,-1.30448 -2.28099,-2.01374 -3.42079,-3.03551 -1.02097,-1.27161 -2.15398,-2.44256 -3.17389,-3.71483 -0.91431,-1.24779 -2.27793,-1.95858 -3.27789,-3.10733 -0.93538,-1.21804 -2.1554,-2.10612 -3.29735,-3.10631 -1.17653,-1.08585 -2.63841,-1.76866 -3.72752,-2.94036 -0.99868,-1.05513 -2.02424,-2.09732 -2.96068,-3.21074 -1.02603,-0.91199 -1.80026,-2.08437 -3.00701,-2.772 -1.19117,-0.85036 -1.88355,-2.20299 -3.11819,-2.99014 -1.17748,-0.9179 -2.28835,-1.92569 -3.57633,-2.69547 -1.27276,-0.94825 -2.63809,-1.86737 -4.11798,-2.46215 -1.30204,-0.986 -2.8132,-1.26982 -4.395,-1.4368 -1.60895,-0.6175 -3.2911,-0.87488 -4.99783,-1.01525 -1.63819,-0.58168 -3.33303,-0.858 -5.05747,-1.00334 -1.9396,-0.12415 -3.88439,-0.12017 -5.82707,-0.12356 -2.02068,5.8e-4 -4.04136,0.005 -6.06204,0.007 -2.02152,0.002 -4.04305,0.002 -6.06458,0.003 -1.87183,0.0768 -3.78259,-0.1631 -5.49954,-0.93474 -1.43018,-0.60485 -2.91094,-1.17058 -4.2352,-1.98828 -1.47064,-0.64363 -2.42645,-1.82727 -3.4292,-3.01343 -0.89243,-1.33651 -1.68573,-2.73512 -2.19217,-4.26503 -0.66465,-1.42108 -1.03915,-2.93947 -1.59956,-4.39947 -0.66379,-1.73665 -0.83239,-3.58803 -0.94529,-5.42701 -0.0895,-2.01056 -0.0799,-4.02382 -0.0785,-6.03587 0.004,-2.02332 0.007,-4.04665 0.009,-6.06997 0.002,-2.02064 0.002,-4.04127 0.002,-6.06191 -0.0649,-1.80666 0.23758,-3.60301 0.87561,-5.29081 0.52623,-1.46145 1.30774,-2.78555 1.72399,-4.286 0.37742,-1.55697 0.9617,-3.04564 1.58923,-4.51466 0.6455,-1.63963 0.74129,-3.40785 0.82352,-5.14763 0.0645,-2.00042 0.0525,-4.0023 0.0491,-6.00347 0.16679,-1.82151 -0.2457,-3.56712 -0.56844,-5.34097 -0.37175,-1.834 -0.26846,-3.71779 -0.51454,-5.5625 -0.44608,-1.72321 -0.59289,-3.49747 -0.89583,-5.24476 -0.36705,-1.99398 -0.84834,-3.9561 -1.32967,-5.92427 -0.25432,-1.86187 -0.85219,-3.63979 -1.26355,-5.46663 -0.38274,-1.91144 -0.43734,-3.86482 -0.48004,-5.8073 0.002,-2.0069 -0.0899,-4.01843 0.0504,-6.02169 0.15328,-1.68438 0.78008,-3.22808 1.39186,-4.78279 0.66601,-1.35068 1.55972,-2.52416 2.14068,-3.91814 0.65616,-1.36489 1.48986,-2.59597 2.04557,-4.00892 0.59812,-1.37166 1.81104,-2.29007 2.65095,-3.49304 0.92888,-1.10633 1.70984,-2.30505 2.52285,-3.49341 0.74278,-1.25963 1.81593,-2.26343 2.5932,-3.49603 1.04554,-1.48223 2.01917,-3.01651 3.15989,-4.42862 1.10572,-1.39038 2.31815,-2.68671 3.4931,-4.01635 1.00102,-1.06874 2.07655,-2.06475 3.07118,-3.13872 1.09847,-0.92044 1.7685,-2.20849 2.66763,-3.30443 0.88603,-1.16851 1.5183,-2.49289 2.25588,-3.75209 0.77401,-1.2404 1.58174,-2.45712 2.31258,-3.72654 0.81489,-1.35479 1.4079,-2.71496 1.7016,-4.27074 0.26661,-1.90511 0.26105,-3.83442 0.27222,-5.75407 0.003,-2.02306 -0.005,-4.04611 -0.009,-6.06916 -0.0165,-1.89094 0.10976,-3.77629 -0.23639,-5.64259 -0.46641,-1.39687 -1.26092,-2.63443 -1.8672,-3.96598 -0.74245,-1.21426 -1.47201,-2.43893 -2.27522,-3.61432 -0.63015,-1.27931 -1.90781,-1.94612 -2.91531,-2.88522 -1.12878,-0.88827 -2.4767,-1.4158 -3.67461,-2.18534 -1.42043,-0.54068 -2.62713,-1.4092 -3.88564,-2.2358 -1.42391,-0.49884 -2.84461,-1.044 -4.30727,-1.44621 -1.57543,-0.33254 -3.04953,-1.02498 -4.50352,-1.70011 -1.41429,-0.56443 -2.74665,-1.31379 -4.10274,-2.01053 -1.62824,-0.77438 -2.88058,-2.08356 -4.45526,-2.93777 -1.60444,-1.12728 -3.00754,-2.50378 -4.54835,-3.71139 -1.22358,-1.10984 -2.35492,-2.32634 -3.74909,-3.22793 -1.23877,-0.97679 -2.59979,-1.89593 -4.07105,-2.48657 -1.67153,-0.4954 -3.43349,-0.50388 -5.16224,-0.54008 -1.83817,-0.21918 -3.54549,0.43513 -5.33566,0.71913 1.02249,-0.94146 -3.95774,2.19436 -2.66751,1.45005 12.45466,-7.1849 15.92567,-10.0238 11.63751,-6.57973 -1.27325,1.01597 -2.26193,2.27243 -3.20911,3.58419 -0.98102,1.08863 -1.82453,2.26225 -2.67692,3.44809 -0.75954,1.42955 -1.66453,2.76339 -2.68599,4.02025 -0.91074,1.23129 -2.07932,2.23174 -2.93262,3.5039 -0.90057,1.16512 -1.47569,2.52651 -2.34548,3.71428 -0.72747,1.30646 -1.33816,2.5947 -2.2467,3.79366 -0.78338,1.27642 -1.33325,2.67634 -2.03235,3.99661 -0.68831,1.43171 -1.37862,2.85706 -2.0331,4.30545 -0.60311,1.62571 -1.36929,3.17024 -1.79274,4.85618 -0.37398,1.86276 -0.39022,3.77078 -0.4168,5.66319 0.0154,1.82339 -0.67542,3.39584 -1.55142,4.94617 -0.7474,1.45169 -1.88091,2.63749 -2.7359,4.01699 -1.05478,1.26091 -1.41003,2.75714 -1.61804,4.34568 -0.0632,1.77295 -0.56368,3.47897 -0.84276,5.22147 -0.2681,1.4425 -0.0661,2.79827 0.79877,3.9902 0.81014,1.0988 1.75525,2.13643 2.79069,3.03151 1.01992,0.99876 1.97158,2.07948 3.05136,3.01593 1.0165,1.10559 2.17467,2.04022 3.00548,3.30322 0.90682,1.68984 1.02639,3.60987 1.12353,5.48586 0.0368,2.00921 0.11824,4.02507 -0.0257,6.03102 -0.13009,1.68839 -0.94288,3.05484 -1.89622,4.39405 -0.93026,1.13265 -1.79481,2.25173 -2.83842,3.28467 -1.05733,0.92042 -2.14584,1.81837 -3.11633,2.83231 -0.84477,1.16763 -1.86235,2.17583 -2.79726,3.27334 -0.93471,1.09567 -1.75352,2.26408 -2.49254,3.50076 -0.62954,1.40859 -1.11869,2.87953 -1.79131,4.26876 -0.79074,1.50497 -0.97181,3.18298 -1.09831,4.84995 -0.10684,1.9827 -0.0946,3.96933 -0.0932,5.95418 0.004,2.02397 0.009,4.04793 0.0109,6.0719 0.15743,1.89288 -0.18597,3.72087 -0.53735,5.56606 -0.33643,1.83883 -0.40123,3.70996 -0.44892,5.57399 0.048,1.82247 -0.36098,3.60939 -0.76255,5.37535 -0.61514,1.57203 -0.95081,3.19754 -1.12946,4.8698 -0.29398,1.70809 -0.67083,3.40228 -1.00557,5.10483 -0.55027,1.57969 -0.75495,3.24506 -1.22919,4.84282 -0.58028,1.65203 -0.7576,3.38786 -0.86906,5.12299 -0.008,1.90208 -0.0919,3.76695 -0.46547,5.63322 -0.39284,1.789 -0.50443,3.61761 -0.57635,5.4423 -0.0578,2.00011 -0.0523,4.00135 -0.0518,6.00209 0.002,2.02219 0.004,4.04438 0.006,6.06657 0.001,2.02073 0.001,4.04146 0.001,6.06218 0.15576,1.89215 -0.18806,3.71936 -0.53949,5.56374 -0.3365,1.83882 -0.40124,3.70996 -0.44891,5.57399 -0.10387,1.71802 0.0221,3.42692 0.59475,5.0569 0.8285,1.5552 1.81922,3.00534 2.79599,4.46678 0.98105,1.10507 1.79132,2.41012 3.08308,3.17548 1.46361,0.43137 2.83947,1.04425 4.34915,1.33075 1.83335,0.26587 3.69117,0.27005 5.53973,0.28638 1.73507,0.44272 3.48675,0.73588 5.27017,0.88048 1.94138,0.12259 3.88773,0.12223 5.83214,0.12732 1.82212,0.0262 3.58124,0.59268 5.39551,0.80507 1.92674,0.17109 3.78729,0.74921 5.59053,1.42264 1.59505,0.56569 3.10629,1.3559 4.68331,1.98889 1.54399,0.73376 2.7897,1.86559 4.12029,2.90279 1.0821,0.9835 2.03705,2.10138 3.13477,3.06621 1.21311,0.76778 2.40356,1.61597 3.43363,2.62279 1.02246,0.97653 2.12034,1.8172 3.32564,2.56044 1.18523,0.87373 2.18622,1.9528 3.31063,2.89512 1.23183,0.75366 2.43052,1.61023 3.46647,2.62285 1.12726,0.84058 1.92582,2.03878 3.15757,2.73653 1.53383,0.9908 3.33168,1.41343 4.92904,2.28805 1.6533,0.8487 3.48304,1.2063 5.1282,2.07476 1.44568,0.76311 2.79272,1.6929 4.20908,2.514 1.41304,0.49951 2.46383,1.60853 3.80455,2.23779 1.52093,0.36504 2.9244,1.0112 4.46744,1.30975 1.83104,0.27337 3.68775,0.2803 5.53493,0.29841 1.76332,0.11644 3.67743,0.38361 5.33851,1.02803 1.55961,0.66124 3.24087,0.81193 4.91177,0.91729 1.76512,0.13389 3.46009,0.68169 5.22903,0.88872 1.71013,0.23064 3.33929,0.79147 5.06651,1.0067 1.60459,0.38499 3.04239,1.16198 4.59171,1.68696 1.5228,0.40666 2.95042,1.10732 4.37123,1.78199 1.40741,0.57124 2.73634,1.31673 4.08961,2.01119 1.53853,0.35967 2.8413,1.14052 4.1835,1.93104 1.39523,0.52108 2.41806,1.64545 3.74537,2.28407 1.12964,0.94298 2.17187,1.96038 3.39171,2.80162 1.13139,0.91692 2.11334,1.99701 3.2218,2.93762 1.02566,1.10129 2.18423,2.04016 3.01579,3.30647 0.72123,0.99968 1.51055,1.93437 2.11744,3.0107 0,0 -13.01707,7.49831 -13.01707,7.49831 l 0,0 c -0.58684,-1.0387 -1.39319,-1.925 -2.06227,-2.91108 -0.77735,-1.13341 -1.89214,-1.97391 -2.82072,-2.97884 -1.03204,-0.95768 -2.03883,-1.94288 -3.14493,-2.81749 -1.11596,-0.86195 -2.13741,-1.83817 -3.28547,-2.64302 -1.25686,-0.77449 -2.41477,-1.70901 -3.77094,-2.32146 -1.31483,-0.78649 -2.74195,-1.25729 -4.13983,-1.86745 -1.32241,-0.71252 -2.68613,-1.35108 -4.05675,-1.96428 -1.38482,-0.66746 -2.83404,-1.19625 -4.29392,-1.67469 -1.43214,-0.58372 -2.86423,-1.1856 -4.40136,-1.44181 -1.69347,-0.30448 -3.33433,-0.84999 -5.05538,-0.99324 -1.72652,-0.28322 -3.41744,-0.78564 -5.17696,-0.82713 -1.75322,-0.19186 -3.46813,-0.53217 -5.11835,-1.17445 -1.66222,-0.38398 -3.34655,-0.75122 -5.06273,-0.69265 -1.9227,-0.047 -3.86146,-0.10073 -5.74211,-0.54455 -1.59666,-0.43741 -3.17787,-0.99165 -4.70219,-1.62897 -1.27983,-0.76858 -2.47281,-1.6805 -3.84219,-2.29993 -1.34417,-0.84205 -2.68754,-1.7022 -4.1072,-2.40786 -1.70635,-0.72295 -3.52107,-1.18288 -5.14116,-2.1058 -1.69747,-0.78188 -3.516,-1.32794 -5.05796,-2.41585 -1.18313,-0.88254 -2.14936,-2.0015 -3.28817,-2.93957 -1.08744,-0.94352 -2.28114,-1.74299 -3.44462,-2.58793 -1.03371,-0.9439 -2.04857,-1.91122 -3.19677,-2.71931 -1.22237,-0.84679 -2.39669,-1.72926 -3.46155,-2.77131 -1.08931,-0.94596 -2.28579,-1.74789 -3.43237,-2.62098 -1.02754,-0.99201 -2.01065,-2.02896 -3.07518,-2.98279 -1.19545,-0.9929 -2.42149,-1.94598 -3.86535,-2.55985 -1.54146,-0.66231 -3.06147,-1.38378 -4.64833,-1.92917 -1.74623,-0.61421 -3.56818,-0.97597 -5.40928,-1.16345 -1.74945,-0.27652 -3.47775,-0.76223 -5.26538,-0.65591 -1.97725,-0.017 -3.95842,-0.0342 -5.92743,-0.23509 -1.73946,-0.21071 -3.44102,-0.64096 -5.18548,-0.78415 -1.924,-0.0442 -3.86458,-0.0922 -5.74734,-0.53259 -1.60489,-0.44152 -3.21895,-1.00091 -4.67937,-1.7979 -1.31189,-1.03277 -2.33315,-2.35101 -3.35,-3.6668 -1.03724,-1.56159 -2.08391,-3.11637 -2.98803,-4.76164 -0.67948,-1.776 -0.93557,-3.67045 -0.82622,-5.56867 0.0286,-1.92668 0.0619,-3.85954 0.32769,-5.77124 0.28861,-1.7858 0.87391,-3.50804 0.67751,-5.34109 -2e-5,-2.02052 -2e-5,-4.04104 -7.4e-4,-6.06155 -9e-4,-2.02213 -0.003,-4.04426 -0.006,-6.06639 -0.002,-2.01433 -0.009,-4.02886 0.0249,-6.04298 0.0461,-1.89134 0.10597,-3.79088 0.44634,-5.65684 0.36725,-1.81611 0.72983,-3.56872 0.57937,-5.44377 0.0723,-1.83112 0.16268,-3.68053 0.67886,-5.45091 0.52395,-1.58439 0.76445,-3.19649 1.25515,-4.79467 0.57492,-1.56003 0.49072,-3.31198 1.14185,-4.8696 0.11862,-1.75078 0.27807,-3.52188 0.96475,-5.15781 0.65613,-1.52423 0.84904,-3.36714 0.9809,-5.00304 0.0287,-1.92666 0.062,-3.85948 0.32775,-5.77115 0.28863,-1.78619 0.87377,-3.50887 0.67612,-5.34231 -0.002,-2.02376 -0.005,-4.04752 -0.0105,-6.07127 -0.004,-2.0105 -0.0177,-4.02166 0.0429,-6.03151 0.0803,-1.8065 0.16998,-3.64587 0.81857,-5.355 0.65405,-1.40006 1.36124,-2.78304 1.78965,-4.27212 0.29907,-0.78007 0.67902,-1.26808 1.10344,-1.95845 0.39498,-0.64249 0.56849,-1.37361 1.26945,-1.79718 0.7857,-1.23255 1.71633,-2.29202 2.81321,-3.23791 0.70207,-1.35758 1.91304,-2.14596 2.95253,-3.22018 1.24414,-0.81292 2.1741,-1.80095 2.92096,-3.08284 1.09805,-0.90288 1.98992,-2.18556 2.30167,-3.58173 0.41811,-1.88746 0.0877,-3.87122 0.15911,-5.79229 -0.0567,-1.59909 -0.0603,-3.27548 -0.76521,-4.74706 -0.78049,-1.13556 -1.90068,-1.97523 -2.82122,-2.99309 -1.03482,-0.98801 -2.03649,-2.01064 -3.05227,-3.01788 -1.06854,-1.02751 -2.12501,-2.09627 -2.96623,-3.32073 -0.99517,-1.4932 -1.55736,-3.17025 -1.29851,-4.98466 0.20585,-1.75084 0.72243,-3.4316 0.87055,-5.17573 0.13152,-1.74018 0.28532,-3.53789 1.26436,-5.03875 1.01107,-1.22442 1.71397,-2.68904 2.83095,-3.84938 0.7222,-1.41871 1.73833,-2.65806 1.88431,-4.30381 0.0112,-1.97385 0.013,-3.95558 0.27066,-5.91618 0.30576,-1.81849 0.97853,-3.43058 1.67037,-5.11693 0.58395,-1.50724 1.30346,-2.9388 1.96388,-4.39472 0.66801,-1.37244 1.40518,-2.70302 1.97537,-4.11629 0.37948,-0.73395 0.79826,-1.08236 1.30042,-1.69247 0.44994,-0.54665 0.36008,-0.75938 0.6018,-1.42876 0.0902,-0.24982 0.21168,-0.48722 0.31752,-0.73082 0.80293,-1.25096 1.76228,-2.37479 2.3182,-3.78138 0.97253,-1.12945 1.68508,-2.55872 2.94789,-3.50967 0.91428,-1.29198 2.15249,-2.40268 2.71753,-3.90589 0.75072,-1.30903 1.62484,-2.49702 2.60279,-3.63439 1.16462,-1.15865 1.77534,-2.77985 3.15541,-3.72862 3.97442,-4.50824 0.35535,-0.5302 13.92344,-8.58307 0.90759,-0.53867 1.9256,-0.85843 2.9641,-1.03262 1.82869,-0.36488 3.63433,-0.6587 5.51051,-0.45224 1.88026,0.0937 3.79186,0.21842 5.52932,1.01527 1.47773,0.77118 2.89738,1.67007 4.20108,2.71005 1.36005,1.00415 2.55283,2.18916 3.79784,3.32906 1.44535,1.21202 2.84334,2.49915 4.43147,3.52485 1.48614,0.94835 2.82297,2.11716 4.44087,2.85698 1.32105,0.71198 2.68363,1.35142 4.05955,1.94902 1.40603,0.65264 2.88336,1.14512 4.38281,1.53539 1.54679,0.52426 3.16425,0.9432 4.56202,1.80633 1.21826,0.83878 2.52716,1.48307 3.83701,2.16338 1.33421,0.71258 2.66656,1.45738 3.83339,2.4285 1.14495,0.96529 2.40761,1.84334 3.10967,3.2116 0.83019,1.25902 1.64098,2.52985 2.39565,3.83641 0.63727,1.4408 1.50555,2.77015 2.01639,4.27257 0.40996,1.95944 0.38915,3.91394 0.34701,5.91214 0.003,2.02517 0.01,4.05033 0.0135,6.07549 -0.001,1.98011 0.01,3.96412 -0.15666,5.93888 -0.18606,1.64155 -0.42223,3.32766 -1.4949,4.65469 -0.48375,1.26928 -1.39399,2.78073 -2.27119,3.81154 -0.68723,1.34134 -1.45974,2.61652 -2.16976,3.93788 -0.81559,1.21716 -1.81781,2.29202 -2.55607,3.56707 -1.15288,0.89175 -2.07946,2.06979 -3.09918,3.10318 -1.35332,1.12582 -2.44265,2.57884 -3.57355,3.91937 -1.22941,1.29791 -2.25437,2.75123 -3.16784,4.28816 -0.92596,1.09393 -1.52266,2.43904 -2.64087,3.39174 -0.72328,1.29411 -1.55791,2.48532 -2.44915,3.6564 -0.93487,1.02404 -1.61072,2.32507 -2.79546,3.18234 -0.40723,0.70691 -0.53254,1.44814 -0.89596,2.17408 -0.82899,1.65593 0.0825,-0.31259 -0.82349,1.15494 -0.13509,0.21883 -0.20928,0.46984 -0.31392,0.70476 -0.41596,0.69611 -0.54909,1.43529 -0.93162,2.14602 -0.78297,1.45475 0.005,-0.15892 -0.86578,1.10954 -0.1424,0.20734 -0.2249,0.44999 -0.33736,0.67498 -0.84891,1.28105 -1.28122,2.85653 -1.62988,4.33878 -0.41704,1.89778 -0.0711,3.88993 -0.1692,5.82093 0.0277,1.85107 0.052,3.71229 0.36305,5.54223 0.37152,1.82841 1.01921,3.58524 1.22255,5.44847 0.4659,1.98968 1.008,3.9527 1.36749,5.96656 0.39281,1.7465 0.43245,3.55762 0.93469,5.28794 0.33867,1.82812 0.17177,3.7076 0.50583,5.54325 0.31695,1.85645 0.84717,3.67619 0.6663,5.5817 0.005,2.01741 0.0166,4.03505 -0.017,6.05227 -0.0495,1.866 -0.0996,3.75342 -0.58252,5.56815 -0.48653,1.47847 -1.23428,2.83337 -1.68954,4.32841 -0.14692,0.84731 -0.29593,1.6781 -0.63418,2.47537 -1.30614,3.07866 0.60184,-1.56585 -0.72242,1.25606 -0.1151,0.24527 -0.16694,0.51552 -0.25041,0.77328 -0.65537,1.52339 -1.24979,3.09329 -1.16363,4.79162 -5e-5,2.02102 -7e-5,4.04205 -0.001,6.06308 -0.002,2.02343 -0.005,4.04687 -0.009,6.0703 -0.003,1.98616 -0.0143,3.97301 0.049,5.95845 0.0779,1.68636 0.16965,3.39582 0.75094,4.99858 0.57331,1.49043 0.95756,3.0332 1.64058,4.48222 0.40271,1.35906 1.12667,2.58067 1.91438,3.75027 0.88092,1.07115 1.83792,1.97287 3.13212,2.54706 1.34367,0.65305 2.68392,1.31273 4.10003,1.79832 1.69666,0.4581 3.40533,0.6269 5.16395,0.52361 2.02115,-4.2e-4 4.04231,-0.001 6.06347,-0.004 2.0227,-0.003 4.04542,-0.009 6.06812,-8.5e-4 1.97829,0.0152 3.96139,0.0274 5.93045,0.24075 1.71231,0.22686 3.36543,0.67361 5.05627,1.00177 1.71141,0.22556 3.36121,0.66196 5.03612,1.06126 1.67054,0.31316 3.20808,0.87036 4.65152,1.78351 1.47235,0.76406 2.88519,1.65157 4.21997,2.63613 1.26865,0.85729 2.44678,1.83088 3.65267,2.77266 1.09887,0.90954 1.91043,2.10528 3.07988,2.9317 1.19644,0.90601 2.16645,2.04846 3.22023,3.11149 0.94311,1.06349 1.90635,2.11364 2.90422,3.12482 1.12533,1.04281 2.52969,1.76896 3.64417,2.83875 1.22389,1.00534 2.39837,2.0326 3.41208,3.25677 1.07177,1.09346 2.40816,1.91617 3.30909,3.19169 0.98088,1.18946 2.02674,2.3181 3.04509,3.47501 1.23989,1.00174 2.59671,1.89099 3.51515,3.22674 1.05495,1.23143 2.0039,2.54601 3.04027,3.7865 1.05167,1.05651 1.97979,2.3225 3.31072,3.03373 1.30547,0.72558 2.54408,1.58275 3.64538,2.59441 1.16528,0.9027 2.40936,1.70535 3.51048,2.68477 1.1615,1.08491 2.44834,2.03213 3.87812,2.73636 2.20856,1.13174 4.45298,2.24001 6.83231,2.96598 0,0 -12.37431,8.47459 -12.37431,8.47459 z" />
    <path
       style="fill:#000080;fill-opacity:1;stroke:#000000;stroke-width:0.25;stroke-linecap:square;stroke-miterlimit:4;stroke-opacity:1;stroke-dasharray:none"
       id="path2820"
       d="m 231.28684,938.25992 c 2.49762,1.05847 5.03148,2.07629 7.6245,2.88162 1.77392,0.8062 3.65133,1.33694 5.23617,2.4967 1.35006,0.72204 2.58096,1.64133 3.93468,2.36349 1.342,0.99503 2.84259,1.71335 4.24207,2.62668 1.52728,0.69297 2.67246,1.96356 4.15091,2.72625 1.51822,0.78986 3.08143,1.56884 4.70574,2.12786 1.68693,0.65094 3.32468,1.43953 5.04084,2.01343 1.51332,0.61135 3.17622,0.92984 4.66922,1.5879 1.43443,0.68246 2.7954,1.50707 4.26372,2.14625 1.9168,0.62075 3.70057,1.56589 5.61549,2.19329 1.76932,0.44555 3.4483,1.1709 5.10135,1.92757 1.6272,0.63409 3.23652,1.28013 4.83594,1.9815 1.49966,0.56171 2.91094,1.32966 4.33857,2.0539 1.45044,0.52781 2.96755,0.96696 4.32459,1.71403 1.40538,0.57807 2.66335,1.37687 4.14993,1.74716 1.45625,0.56252 2.82056,1.33154 4.29349,1.84571 1.67822,0.69495 2.78923,1.87321 3.9629,3.19784 1.24453,1.49574 1.62239,3.34596 1.84977,5.22338 0.17696,1.9191 0.4374,3.86278 0.91886,5.73156 0.52543,1.68161 1.23117,3.30351 1.99341,4.89023 0.76507,1.61543 0.92269,3.4034 1.40725,5.10488 0.26083,0.85388 0.40963,1.73242 0.55372,2.61123 0,0 -13.25764,7.01022 -13.25764,7.01022 l 0,0 c -0.11527,-0.8201 -0.2331,-1.6406 -0.47205,-2.4364 -0.47246,-1.6279 -0.6383,-3.3168 -1.28173,-4.89146 -0.79123,-1.67169 -1.53461,-3.37468 -2.1142,-5.13092 -0.54604,-1.92325 -0.80471,-3.96402 -1.02933,-5.94381 -0.14247,-1.58066 -0.33386,-3.16262 -1.41502,-4.41023 -1.01541,-1.16616 -2.10103,-2.05735 -3.58615,-2.59198 -1.3996,-0.60775 -2.78166,-1.25683 -4.2265,-1.75549 -1.47558,-0.53641 -2.84505,-1.30848 -4.28498,-1.93206 -1.44486,-0.59356 -2.92001,-1.11212 -4.34572,-1.74691 -1.38768,-0.73521 -2.82337,-1.38505 -4.27321,-1.98675 -1.59773,-0.71548 -3.25821,-1.27605 -4.85645,-1.9926 -1.60999,-0.74319 -3.29901,-1.30602 -4.98783,-1.8411 -1.91705,-0.72946 -3.7944,-1.56147 -5.71389,-2.28623 -1.41489,-0.67634 -2.76785,-1.47687 -4.22394,-2.05493 -1.56642,-0.48752 -3.09574,-1.05816 -4.6496,-1.58316 -1.68504,-0.67732 -3.36395,-1.36473 -5.05396,-2.03039 -1.64869,-0.69892 -3.29991,-1.4227 -4.8488,-2.32333 -1.40142,-0.9041 -2.6663,-2.01628 -4.16636,-2.77117 -1.40818,-0.84519 -2.84097,-1.6484 -4.20263,-2.5675 -1.34987,-0.79577 -2.68207,-1.62441 -4.01105,-2.45287 -1.55601,-0.92479 -3.274,-1.51274 -4.93864,-2.20866 -2.5597,-0.90092 -5.0669,-1.94956 -7.64775,-2.79013 0,0 12.37431,-8.4746 12.37431,-8.4746 z" />
    <path
       style="fill:#000080;fill-opacity:1;stroke:#000000;stroke-width:0.25;stroke-linecap:square;stroke-miterlimit:4;stroke-opacity:1;stroke-dasharray:none"
       id="path2822"
       d="m 231.29487,837.67955 c 2.24491,1.44119 4.80235,2.2619 7.07132,3.66065 1.58993,0.72931 2.99128,1.7235 4.42588,2.70278 1.13243,0.92485 2.09133,2.03308 3.19157,2.99014 1.00986,1.10712 2.16186,2.04441 2.98821,3.30608 0.85319,1.54611 1.82165,3.02558 2.67942,4.57059 1.08522,1.37104 1.6961,3.00509 2.41643,4.57736 0.65498,1.25173 1.65126,2.23285 2.5459,3.30218 1.02927,0.9036 1.81499,2.06259 3.02236,2.74209 1.15057,0.84092 2.41984,1.61141 3.76182,2.11391 1.32077,0.70524 2.62583,1.49318 4.03614,2.01107 1.23458,0.84797 2.32779,1.87289 3.57599,2.71649 1.57918,0.82853 3.07976,1.8562 4.49645,2.94634 1.80711,1.44518 3.94001,2.32728 5.98597,3.36617 1.96378,0.68787 3.76449,1.63239 5.54351,2.69033 1.61921,0.8953 3.30564,1.69576 4.89767,2.63767 1.67432,0.98566 3.46271,1.78664 5.08643,2.85353 1.58224,0.86178 2.87733,2.11263 4.22848,3.27871 1.22379,1.11511 2.20973,2.40161 3.11204,3.78423 0.93757,1.47901 1.75198,3.06012 2.43304,4.67567 0.937,1.39081 1.24998,3.01155 1.74173,4.57644 0,0 -13.15217,7.23581 -13.15217,7.23581 l 0,0 c -0.5165,-1.51862 -0.73166,-3.12954 -1.68167,-4.48288 -0.61833,-1.53781 -1.39588,-3.03827 -2.30597,-4.42031 -0.83627,-1.26553 -1.74341,-2.44314 -2.88765,-3.45099 -1.2701,-1.14255 -2.5977,-2.22192 -4.08192,-3.08061 -1.65735,-0.97752 -3.38579,-1.83171 -5.05286,-2.79347 -1.65237,-0.87894 -3.29384,-1.77242 -4.93878,-2.66543 -1.72205,-1.05586 -3.57971,-1.80082 -5.41705,-2.62953 -2.1334,-1.04704 -4.28598,-2.07468 -6.1518,-3.57144 -1.46037,-1.04183 -3.00201,-1.95858 -4.53504,-2.8887 -1.11308,-0.8334 -2.15833,-1.79798 -3.38734,-2.44206 -1.36589,-0.64095 -2.69893,-1.35112 -4.04765,-2.02703 -1.36182,-0.66915 -2.69781,-1.41752 -3.91178,-2.33099 -1.20263,-0.90018 -2.1877,-2.03322 -3.24437,-3.09566 -1.00729,-1.15711 -2.02723,-2.30132 -2.74404,-3.6726 -0.69438,-1.54234 -1.28562,-3.13154 -2.33553,-4.48182 -0.84293,-1.50632 -1.79213,-2.9534 -2.65074,-4.44884 -0.77509,-1.13385 -1.88727,-1.97614 -2.80285,-2.99256 -1.01096,-0.96281 -1.98264,-1.96915 -3.08471,-2.8316 -1.37184,-0.99259 -2.84034,-1.80722 -4.31129,-2.64227 -2.33022,-1.33808 -4.85527,-2.29187 -7.14718,-3.7013 0,0 12.63203,-8.08815 12.63203,-8.08815 z" />
    <path
       style="fill:#000080;fill-opacity:1;stroke:#000000;stroke-width:0.25;stroke-linecap:square;stroke-miterlimit:4;stroke-opacity:1;stroke-dasharray:none"
       id="path2824"
       d="m 152.85967,845.01996 c -1.52949,2.07241 -3.12851,4.09421 -4.81139,6.04417 -1.0955,1.2398 -2.19301,2.48776 -3.39535,3.62557 -0.93235,1.14354 -2.26208,1.81738 -3.38595,2.74084 -26.06208,15.19244 -10.2501,5.9468 -1.23271,0.79557 0.21455,-0.12256 -0.40537,0.28289 -0.61335,0.41631 -0.59832,0.38384 -1.15324,0.79783 -1.73245,1.21104 -4.75916,4.43237 -11.25203,6.41899 -16.75389,9.77521 -0.26851,0.12024 -1.0599,0.50854 -0.80554,0.36071 29.20123,-16.9703 1.28287,-0.63596 -2.20969,1.26912 -4.10546,2.2394 8.11098,-4.6574 12.17537,-6.97052 0.24541,-0.13967 -0.47855,0.2999 -0.71783,0.44984 -1.37125,0.90043 -2.58264,1.99794 -3.82828,3.05587 -1.06845,0.98306 -2.05029,2.05506 -3.11666,3.03923 -1.02993,1.15604 -2.22998,2.13859 -3.30291,3.25169 -1.06059,1.09692 -2.18243,2.1421 -3.19238,3.28623 -0.83421,1.19813 -1.65999,2.40886 -2.64946,3.48552 -0.94514,1.1084 -1.59097,2.41426 -2.33412,3.65457 -0.71963,1.34343 -1.40184,2.68314 -1.89803,4.12588 -0.74783,1.44558 -0.95919,3.06138 -1.43491,4.59661 -0.4402,1.53205 -1.10992,2.97065 -1.59811,4.48739 -0.72871,1.45642 -0.94819,3.07193 -1.42781,4.60915 -0.42203,1.53492 -1.15627,2.9372 -1.54733,4.48083 -0.35425,1.56955 -0.93856,3.0657 -1.56754,4.54072 -0.50812,1.48393 -1.01223,2.98013 -1.694985,4.39456 -0.620011,1.58532 -1.486948,3.03502 -2.426795,4.44751 -0.947956,1.44518 -1.996542,2.83155 -3.184619,4.08794 -0.509934,0.58836 -0.920895,1.24293 -1.398211,1.85784 0,0 -13.820814,5.85396 -13.820814,5.85396 l 0,0 c 0.540702,-0.57497 1.109695,-1.09683 1.389895,-1.85886 1.046686,-1.34194 2.343575,-2.47407 3.306678,-3.89562 0.832173,-1.41691 1.946813,-2.70057 2.461197,-4.27648 0.657681,-1.39408 1.376798,-2.7764 1.753306,-4.27898 0.487489,-1.47909 1.238454,-2.83263 1.679276,-4.33428 0.291981,-1.78658 0.835966,-2.98445 1.467664,-4.62602 0.164065,-0.48861 0.401437,-0.95345 0.530136,-1.45255 0.27901,-1.082 0.269261,-2.25363 0.845906,-3.25628 0.380558,-0.73905 0.485262,-1.48535 0.781978,-2.25726 0.0912,-0.23727 0.207507,-0.46411 0.31126,-0.69616 0.116582,-0.20613 0.263746,-0.39774 0.349746,-0.61838 0.101629,-0.26074 0.138853,-0.5422 0.20828,-0.8133 0.163292,-0.48952 0.399678,-0.95552 0.527439,-1.45548 0.277208,-1.08481 0.265126,-2.25867 0.84435,-3.26309 0.385245,-0.73421 0.492166,-1.4857 0.813681,-2.24544 0.864251,-2.04223 -0.189331,0.59448 0.738984,-1.25531 0.121824,-0.24276 0.183901,-0.51114 0.275851,-0.76671 0.690858,-1.33828 1.466779,-2.60569 2.222354,-3.89966 0.852533,-1.16103 1.936093,-2.12692 2.712763,-3.35381 0.74748,-1.45152 2.05812,-2.35467 3.07343,-3.60399 1.16308,-0.99021 2.14513,-2.17893 3.32551,-3.14328 0.90068,-1.1457 2.05853,-2.08773 3.10281,-3.09482 1.06553,-1.26307 2.4309,-2.30229 3.75829,-3.27149 4.52825,-3.94659 1.48124,-1.36549 14.20688,-8.38264 4.0819,-2.25083 -8.06705,4.67284 -12.10014,7.01001 -0.24346,0.14108 0.48768,-0.28082 0.73123,-0.42174 13.86348,-8.02156 8.9747,-5.36426 14.34375,-8.27231 9.6058,-4.74622 -16.21137,9.57858 -8.83806,5.3292 0.64472,-0.72963 1.43125,-1.33707 2.26825,-1.82566 0.4191,-0.24465 33.39643,-19.56108 1.25284,-0.74151 1.19747,-0.78548 2.23213,-1.78595 3.49876,-2.47248 1.03866,-1.29516 2.37475,-2.33594 3.47934,-3.58196 1.58806,-1.98114 3.34848,-3.82193 4.84035,-5.88453 0,0 13.74176,-6.01249 13.74176,-6.01249 z" />
    <path
       style="fill:#000080;fill-opacity:1;stroke:#000000;stroke-width:0.25;stroke-linecap:square;stroke-miterlimit:4;stroke-opacity:1;stroke-dasharray:none"
       id="path2826"
       d="m 153.5311,770.28318 c -2.27993,-1.38911 -4.68347,-2.57646 -6.95117,-3.98086 -1.51131,-0.84849 -2.93177,-1.90836 -4.13967,-3.1538 -1.17013,-0.97474 -2.05431,-2.30402 -2.73014,-3.66067 -0.7664,-1.20929 -1.47993,-2.45117 -2.27755,-3.63968 -0.79026,-1.38174 -1.37812,-2.89312 -1.91695,-4.39243 -0.40845,-1.49002 -0.97842,-2.92991 -1.63225,-4.32748 -0.76599,-1.68859 -0.95324,-3.53084 -1.07959,-5.35763 -0.0588,-1.73914 0.44605,-3.37442 1.06829,-4.9713 0.48775,-1.49866 1.00811,-2.99887 1.7005,-4.41683 0.58252,-1.43327 1.18467,-2.87441 1.64957,-4.35253 0.46422,-1.77728 0.50406,-3.62428 0.54949,-5.44971 0.0314,-2.01309 0.0208,-4.02654 0.0167,-6.03979 -0.0229,-1.75965 0.18036,-3.55457 -0.46818,-5.22683 -0.54654,-1.22416 -1.45707,-2.28847 -2.45012,-3.18005 -1.00223,-1.0039 -1.95532,-2.07382 -3.03125,-3.00197 -1.01112,-1.20086 -1.88618,-2.5152 -2.94778,-3.67918 -1.13346,-1.05283 -1.78315,-2.54958 -2.94864,-3.55096 -0.88556,-0.645 -1.14196,-1.74407 -1.77518,-2.57219 -0.26606,-0.34794 -0.59745,-0.6411 -0.88069,-0.9752 -0.87399,-1.36714 -1.62928,-2.81395 -2.11439,-4.36626 -0.49482,-1.73125 -1.15124,-3.39842 -1.74764,-5.09416 -0.58493,-1.86843 -1.15692,-3.72371 -1.49339,-5.65537 -0.30234,-2.02862 -0.33374,-4.08293 -0.35879,-6.12969 -0.0774,-1.81215 0.23153,-3.61334 0.87492,-5.30457 0.55027,-1.45635 1.27371,-2.81753 1.7838,-4.29007 0.5307,-1.44133 1.25622,-2.80139 1.78039,-4.24277 0.60931,-1.46985 1.02102,-3.01202 1.59136,-4.49505 0.5063,-1.48296 1.24625,-2.84891 1.64292,-4.36844 0.47786,-1.60228 0.96577,-3.1739 1.20208,-4.83425 0.32474,-1.68978 0.7912,-3.33402 1.01421,-5.04471 0.20164,-1.93098 0.20927,-3.87503 0.2225,-5.81438 0.007,-2.02053 7.3e-4,-4.04109 -0.002,-6.06163 -0.003,-2.02156 -0.003,-4.04313 -0.004,-6.0647 -2.7e-4,-2.02038 -2.2e-4,-4.04076 -2e-4,-6.06114 2e-5,-2.02029 4e-5,-4.04058 4e-5,-6.06087 1e-5,-2.0203 1e-5,-4.04061 1e-5,-6.06091 -0.16891,-1.6036 -0.48563,-3.19087 -1.01321,-4.7144 -0.57515,-1.43116 -1.08967,-2.89453 -1.6767,-4.32273 -0.77564,-1.62055 -1.0507,-3.38029 -1.22195,-5.14968 -0.14553,-1.99746 -0.13866,-4.00186 -0.14119,-6.0034 -0.0767,-1.93992 0.007,-3.84031 0.38869,-5.74254 0.26667,-1.58163 1.21247,-2.86184 1.94919,-4.24034 0.71604,-1.29211 1.69603,-2.38291 2.63688,-3.50752 1.03449,-0.98774 1.84849,-2.19641 2.50615,-3.46133 0.72709,-1.28726 1.47279,-2.58697 2.0091,-3.96761 0.38561,-1.49963 1.30821,-2.75061 1.9316,-4.14226 0.76148,-1.66655 1.12007,-3.46395 1.70489,-5.18932 0.52522,-1.61066 0.83858,-3.26956 1.32884,-4.89171 0.40916,-1.47262 0.72749,-2.99453 0.21469,-4.47314 -0.61426,-1.49062 -1.55724,-2.80192 -2.46942,-4.12047 -0.82131,-1.54615 -1.69126,-3.04412 -2.6542,-4.50541 -0.86795,-1.40391 -1.61755,-2.8551 -2.27771,-4.36999 -0.53165,-1.74436 -1.22264,-3.43707 -1.67942,-5.20459 -0.42708,-1.91319 -0.47841,-3.87915 -0.52117,-5.83065 -0.0273,-2.02064 -0.0168,-4.04155 -0.0126,-6.0623 0.0308,-1.74595 0.53486,-3.39321 1.16211,-5.00197 0.46317,-1.52682 1.13151,-2.96504 1.49452,-4.52141 0.17777,-1.81598 0.50296,-3.55511 1.1569,-5.26101 0.7419,-1.69637 0.88634,-3.55106 1.35595,-5.32255 0.42374,-1.6416 0.72101,-3.29808 1.20072,-4.92571 0.29978,-1.63813 0.79704,-3.22198 1.20768,-4.83272 0.27413,-1.16913 0.35784,-2.36751 0.43439,-3.56188 0,0 13.38541,-6.73363 13.38541,-6.73363 l 0,0 c -0.0497,1.26194 -0.10259,2.52691 -0.30666,3.7756 -0.31476,1.66701 -0.98912,3.2077 -1.17124,4.89883 -0.4196,1.65298 -0.97509,3.23756 -1.20102,4.93937 -0.54234,1.80381 -0.74402,3.65023 -1.30511,5.45254 -0.63801,1.64291 -1.31169,3.20233 -1.26544,5.01352 -0.25298,1.66599 -0.81917,3.16293 -1.38381,4.72419 -0.49516,1.52758 -1.26101,2.92682 -1.4202,4.56114 -0.004,2.01125 -0.0138,4.02256 0.002,6.03379 0.0264,1.84589 0.0442,3.70495 0.38426,5.52565 0.39335,1.70096 1.08725,3.30275 1.55271,4.9824 0.62663,1.43516 1.35807,2.80096 2.16679,4.13917 0.95203,1.452 1.79036,2.95394 2.61548,4.47904 0.99488,1.41116 1.98526,2.84241 2.68015,4.42942 0.69477,1.74437 0.65184,3.5102 0.20663,5.32535 -0.42835,1.67019 -0.99602,3.27543 -1.29527,4.98056 -0.61565,1.72356 -0.983,3.49994 -1.6876,5.19419 -0.42566,1.51185 -1.28009,2.69531 -1.96054,4.08743 -0.38285,1.55858 -1.15649,2.87147 -1.84163,4.30348 -0.87499,1.19916 -1.35472,2.66747 -2.36003,3.79415 -1.09466,0.87297 -2.00238,2.05205 -2.76601,3.21143 -0.8985,1.1202 -1.49883,2.48987 -2.2072,3.73501 -0.37633,1.8303 -0.74273,3.59307 -0.54642,5.48462 -8.8e-4,1.96113 -0.0118,3.92402 0.0943,5.88299 0.12213,1.62045 0.30476,3.24282 1.02485,4.72534 0.61764,1.44624 1.10295,2.95806 1.71795,4.40445 0.59443,1.68221 0.95159,3.41164 1.21621,5.17801 0,2.02031 0,4.04061 0,6.06092 -1e-5,2.02029 -2e-5,4.04058 -4e-5,6.06088 -2e-5,2.02031 -8e-5,4.04062 6e-5,6.06094 2.2e-4,2.02111 5.3e-4,4.04222 0.003,6.06333 0.002,2.02298 0.007,4.04596 0.007,6.06894 -0.005,1.98247 -0.003,3.96726 -0.13885,5.9461 -0.15163,1.72018 -0.39429,3.42918 -1.00803,5.05489 -0.15733,1.69735 -0.38894,3.39656 -1.13285,4.95265 -0.29819,1.80098 -0.83032,2.95088 -1.52715,4.58331 -0.1828,0.46808 -0.44414,0.90497 -0.60264,1.38183 -0.33382,1.0043 -0.40007,2.11068 -1.0454,3.00539 -0.37551,1.56755 -1.15105,2.8999 -1.69814,4.40099 -0.38977,0.72845 -0.50115,1.47356 -0.82266,2.22999 -1.28974,3.03445 0.58554,-1.52518 -0.72433,1.25697 -0.11556,0.24544 -0.16796,0.51591 -0.25194,0.77387 -0.65829,1.52221 -1.26045,3.09105 -1.17053,4.79016 0.0126,1.97735 0.0197,3.96094 0.25684,5.92701 0.27812,1.86273 0.82306,3.63096 1.3911,5.42064 0.57725,1.72349 1.25337,3.4061 1.78715,5.14509 0.38036,1.36672 1.05392,2.62496 1.81654,3.81346 0.94854,1.10342 1.58571,2.36963 2.57566,3.42271 1.09487,1.14003 1.88414,2.53053 2.99714,3.66375 0.99253,1.15209 1.88839,2.38436 2.88072,3.529 1.03996,0.98857 2.05152,2.00841 3.05238,3.03595 1.08965,1.10196 2.14505,2.29384 2.7616,3.73224 0.7683,1.84755 0.76668,3.77458 0.70169,5.75174 0.004,2.02194 0.0138,4.04393 6.1e-4,6.06586 -0.0241,1.92207 -0.0425,3.8555 -0.36687,5.75555 -0.345,1.61088 -1.06866,3.03576 -1.51554,4.61124 -0.66319,1.39213 -1.39376,2.77095 -1.77315,4.27361 -0.48448,1.48696 -1.24357,2.84175 -1.36056,4.44124 0.085,1.64157 0.17794,3.31465 0.84042,4.84425 0.67406,1.44164 1.29429,2.92102 1.70076,4.46174 0.47412,1.39205 1.0373,2.782 1.74438,4.0664 0.81356,1.25333 1.59458,2.52494 2.3682,3.80427 0.59624,1.22873 1.43633,2.34347 2.47817,3.22905 1.18087,1.11214 2.48393,2.09204 3.89733,2.89143 2.24373,1.33642 4.48568,2.69684 6.86246,3.78594 0,0 -12.47467,8.31333 -12.47467,8.31333 z" />
    <path
       style="fill:#000080;fill-opacity:1;stroke:#000000;stroke-width:0.25000000000000000;stroke-linecap:square;stroke-miterlimit:4;stroke-opacity:1;stroke-dasharray:none"
       id="path2828"
       d="m 134.88918,483.99742 c 0.74899,-2.80912 1.56944,-5.60398 2.21629,-8.43964 0.47724,-2.14855 0.60504,-4.34579 0.66838,-6.53858 0.14694,-1.77872 0.59125,-3.50944 0.80213,-5.28211 0.35074,-1.95715 0.78694,-3.88873 1.01268,-5.86707 0.19094,-1.99325 0.20423,-3.99741 0.21761,-5.99797 0.0371,-2.00832 -0.0696,-4.02006 0.0647,-6.02498 0.3313,-1.74222 0.64073,-3.47888 0.79616,-5.24685 0.13785,-1.9619 0.14145,-3.92986 0.14922,-5.89559 0.003,-2.02109 -0.001,-4.04219 -0.003,-6.06328 -0.1574,-1.89296 0.18575,-3.72108 0.53698,-5.5664 0.33629,-1.8389 0.40109,-3.71008 0.44877,-5.57417 0.17968,-1.79784 0.55275,-3.57877 0.8932,-5.35418 0.53478,-1.89137 0.84441,-3.82179 1.01465,-5.77636 -0.031,-1.87548 0.32862,-3.68828 0.6832,-5.51664 0.14815,-1.73172 0.5935,-3.39654 0.97993,-5.08291 0.27852,-1.89026 0.5095,-3.77479 0.87811,-5.65191 0.20182,-1.94407 0.76394,-3.81105 1.14873,-5.71855 0.22093,-1.89578 0.81606,-3.71125 1.15228,-5.58502 0.45462,-1.88305 0.77515,-3.80575 1.34755,-5.658 0.51876,-1.7713 1.01101,-3.54971 1.55932,-5.31276 0.65718,-1.70586 1.31646,-3.40971 1.94512,-5.12615 0.57439,-1.52416 1.36613,-2.95603 1.93414,-4.47991 0.51298,-1.48942 1.10657,-2.94796 1.82222,-4.35136 0.7184,-1.26131 1.74913,-2.27491 2.68324,-3.36678 0.81419,-1.2025 1.64743,-2.40027 2.63581,-3.46725 0.94388,-1.09009 2.09279,-1.92602 3.11202,-2.94858 0.87005,-1.19643 2.16845,-1.93361 3.27031,-2.88453 1.2567,-0.96351 2.38558,-2.07804 3.56996,-3.12632 1.43502,-1.07434 2.88254,-2.13317 4.35612,-3.15552 5.07499,-4.32161 11.37911,-6.75048 17.02795,-10.25212 0.43812,-0.34414 1.01301,-0.33302 1.49654,-0.55499 0.66979,-0.30746 1.37797,-0.7745 2.00174,-1.17193 -4.04782,2.32959 -8.09563,4.65918 -12.14345,6.98877 4.802,-3.73234 10.72764,-6.53525 15.78387,-9.36553 1.20374,-0.40941 0.64277,-0.14773 1.6899,-0.76991 -1.52905,1.10827 4.71453,-2.40374 3.02869,-1.42818 -13.12669,7.59616 -16.0776,9.63433 -11.61543,6.58816 14.66453,-13.01935 8.57186,-6.09457 15.15542,-8.1406 0.75983,-0.23614 1.44219,-0.60312 2.22848,-0.80595 0.83389,-0.73258 1.93537,-0.76347 2.91649,-1.11496 0.48104,-0.17233 0.91456,-0.45852 1.38826,-0.6501 1.44852,-0.47606 2.76411,-1.26936 4.12988,-1.94421 0.24943,-0.0832 0.51321,-0.13181 0.74829,-0.24961 1.8523,-0.92819 -0.68718,0.0473 1.2723,-0.76167 0.76732,-0.31681 1.48729,-0.39246 2.22155,-0.79685 1.64429,-0.64364 3.26052,-1.27776 5.00154,-1.62313 2.01642,-0.3126 3.967,-0.94962 5.91351,-1.551 1.93626,-0.28827 3.75305,-0.92219 5.6423,-1.38896 0.29405,-0.0522 0.59693,-0.0682 0.88216,-0.15672 0.50498,-0.15676 0.95639,-0.45834 1.45905,-0.62241 0.81976,-0.26759 1.65861,-0.38183 2.50974,-0.49272 1.46683,-0.85433 3.23259,-0.69746 4.75407,-1.31766 1.70953,-0.43569 3.37763,-0.99686 5.09893,-1.39527 1.85321,-0.16159 3.5396,-0.90111 5.36389,-1.22139 1.84989,-0.22562 3.79131,-0.45019 5.50645,-1.21317 1.71822,-0.64579 3.52251,-0.94753 5.29116,-1.4251 1.78231,-0.5494 3.37447,-1.21051 5.25079,-1.48426 1.78994,-0.005 3.4334,-0.66904 5.18593,-0.94657 1.80451,0.0179 3.45982,-0.48844 5.19628,-0.86617 1.7098,-0.12438 3.24029,-0.83964 4.92194,-1.13559 0.29665,-0.0362 0.60015,-0.0356 0.88994,-0.10853 0.51511,-0.12971 0.98343,-0.40746 1.49344,-0.55597 0.84232,-0.24526 1.65528,-0.34955 2.48244,-0.65522 1.7936,-0.40306 3.37864,-1.26803 5.17893,-1.65691 1.90627,-0.32388 3.84606,-0.33613 5.77407,-0.35667 1.97821,-0.46809 3.98934,-0.72783 6.01369,-0.87814 2.11843,-0.25492 4.1943,-0.72092 6.33392,-0.91384 2.8559,-0.18151 5.71873,-0.18851 8.57919,-0.19181 3.29504,-0.005 6.59011,-2.2e-4 9.88515,0.008 3.33312,-0.002 6.66622,0.005 9.99934,-0.002 3.23947,0.007 6.47894,-0.002 9.71841,5e-5 3.30712,0.31772 6.43057,-0.77585 9.65156,-1.31999 3.17385,-0.51908 6.39321,-0.63145 9.60269,-0.6905 2.62212,-0.0416 5.24463,-0.0437 7.86701,-0.0441 2.07105,9.1e-4 4.1421,0.002 6.21316,0.003 2.01407,6.4e-4 4.02814,7e-4 6.04222,7.5e-4 2.01911,2e-5 4.03823,0 6.05735,0 2.00111,0.088 4.03789,-0.20904 6.0071,0.19732 1.81799,0.28772 3.54493,0.87977 5.32892,1.30686 1.87937,0.16859 3.65842,0.66189 5.48673,1.08566 1.87551,0.17058 3.67715,0.63487 5.52023,0.99595 2.03999,0.20243 3.98958,0.82159 6.01097,1.14668 1.93589,0.0461 3.76245,0.48878 5.63934,0.89703 1.70491,0.13482 3.26136,0.8223 4.93306,1.13638 1.8319,0.27387 3.68895,0.28789 5.53715,0.3094 2.01569,0.515 4.11933,0.56322 6.12667,1.07853 1.96122,0.55223 3.98388,0.75935 6.01022,0.87378 1.99511,0.50144 4.02224,0.80005 6.07056,0.95871 2.04198,0.1266 4.08885,0.11663 6.13374,0.1306 1.97598,0.15283 3.99741,-0.16656 5.9683,0.0213 0.25029,0.0238 3.54445,0.65492 3.74756,0.69346 4.02939,0.52303 7.95949,1.44711 11.93638,2.25625 4.05963,0.78629 8.19512,0.96489 12.31771,1.07381 3.84428,0.0714 7.68946,0.0446 11.53417,0.0398 3.5743,-0.007 7.14859,-0.0191 10.7229,-0.0219 3.16963,0.67689 6.33436,1.33497 9.5549,1.719 2.27468,0.24641 4.56395,0.27062 6.84929,0.28071 2.1117,-0.005 4.22336,-0.004 6.33505,-0.003 2.84018,0.009 5.68036,0.008 8.52054,0.0166 2.99734,0.38686 5.70729,-0.79818 8.58995,-1.35044 2.8059,-0.29582 5.56981,-0.75039 8.35132,-1.21806 2.10864,-0.0896 4.01087,-0.61479 6.03884,-1.07227 1.86979,-0.24043 3.69891,-0.40803 5.53935,-0.81267 2.04397,-0.27228 3.98151,-0.94675 6.01401,-1.29334 1.93373,-0.81752 4.06061,-0.85301 6.04951,-1.42294 1.93191,-0.28283 3.7196,-0.97702 5.59182,-1.47269 1.19022,-0.38599 2.47674,-0.21475 3.6862,-0.42466 0.54451,-0.0945 1.05698,-0.32361 1.58901,-0.47319 1.82201,-0.32269 3.5427,-0.95062 5.37121,-1.26648 1.77828,-0.35147 3.46599,-0.9412 5.28692,-1.16416 1.70266,-0.27449 3.32727,-0.81558 5.06425,-1.01561 1.78088,0.0324 3.41596,-0.63076 5.15669,-0.90747 1.22784,-0.2773 2.5224,-0.0704 3.75425,-0.25223 0.55243,-0.0815 1.07513,-0.30248 1.61473,-0.44623 1.98275,-0.11283 3.82984,-0.6931 5.74564,-1.1365 1.89244,-0.37587 3.82687,-0.42038 5.74938,-0.45888 2.01299,-0.0251 4.02621,-0.0157 6.0393,-0.0118 2.02154,0.004 4.04308,0.006 6.06461,0.007 2.0205,6.7e-4 4.041,6.2e-4 6.0615,6.1e-4 2.02029,-2e-5 4.04059,-5e-5 6.06089,-6e-5 2.05904,0.0528 3.69485,0.0878 5.69671,-0.41303 1.72228,-0.52727 3.58062,-0.24553 5.28158,-0.78003 1.70096,-0.55371 3.48882,-0.67769 5.26257,-0.76908 1.74806,-0.15148 3.42555,-0.69379 5.18792,-0.88932 1.95729,-0.0654 3.84975,-0.18606 5.76636,-0.57247 2.01468,-0.40086 4.06703,-0.51434 6.11496,-0.58356 1.69564,-0.55426 3.44784,-0.79844 5.21886,-0.9349 1.96818,-0.11671 3.94083,-0.11413 5.91169,-0.11752 2.02143,3.8e-4 4.04285,0.005 6.06427,0.007 1.74399,0.43038 3.49856,0.73835 5.28811,0.88777 1.9464,-0.0203 3.72854,0.35982 5.33513,1.47557 1.53791,0.79093 2.76788,1.87432 3.85086,3.21347 1.09432,1.00884 1.90703,2.22589 2.78979,3.4069 0.87481,1.1931 1.68732,2.41862 2.45628,3.6863 0.91938,1.16785 1.73632,2.4462 2.37843,3.78892 0.71771,1.76804 0.81714,3.6832 0.89835,5.56579 0.0571,2.02021 0.0422,4.04159 0.0369,6.06235 -0.006,2.02328 -0.009,4.04656 -0.0109,6.06985 -0.001,2.02049 -0.001,4.04098 -0.001,6.06147 2e-5,2.02027 7e-5,4.04054 9e-5,6.06081 2e-5,2.0203 2e-5,4.0406 3e-5,6.0609 0,2.02031 0,4.04061 0,6.06092 0,2.0203 0,4.04061 0,6.06091 0.2211,1.72882 0.60404,3.4263 0.79854,5.16132 0.18521,1.97485 0.19951,3.9601 0.21424,5.94193 0.11919,1.84153 -0.38798,3.62243 -0.67582,5.4232 -0.29155,1.87883 -0.23635,3.7845 -0.39603,5.67341 -0.35764,1.73286 -0.65918,3.4659 -0.81215,5.22946 -0.13529,1.96353 -0.13787,3.93291 -0.14501,5.90012 -0.0333,2.00958 0.0719,4.02268 -0.0632,6.02882 -0.33184,1.74277 -0.6416,3.48002 -0.7972,5.24862 -0.0482,1.87952 -0.14817,3.7237 -0.52801,5.56675 -0.39964,1.78582 -0.5098,3.61312 -0.58151,5.4359 0.0256,1.91595 -0.0554,3.79342 -0.43019,5.67297 -0.2991,1.90347 -0.91345,3.72943 -1.26601,5.62158 -0.26253,1.9518 -0.63476,3.90008 -1.27,5.76652 -0.75298,1.89604 -0.9194,3.93009 -1.04469,5.9453 0.0518,2.13615 -0.32324,4.22605 -0.64704,6.32633 -0.20112,1.90545 -0.3685,3.78972 -0.79757,5.65952 -0.22999,1.67995 -0.73111,3.28948 -1.14527,4.92694 -0.42549,1.7958 -0.39309,3.64847 -0.56562,5.47435 -0.24369,1.82799 -0.91859,3.54731 -1.3811,5.32172 -0.39064,1.97371 -0.94385,3.90411 -1.26661,5.89135 -0.14097,1.81375 -0.69936,3.54832 -1.01079,5.33293 -0.27912,1.88555 -0.30414,3.79539 -0.32983,5.69753 0.0634,1.93105 -0.0109,3.82286 -0.38536,5.7179 -0.3919,1.78825 -0.50637,3.61548 -0.5795,5.43931 -0.059,1.99958 -0.0537,4.00033 -0.0533,6.00056 0.002,2.02218 0.004,4.04435 0.006,6.06653 0.001,2.02073 0.001,4.04146 0.001,6.0622 3e-5,2.0203 0,4.0406 -10e-6,6.06091 -2e-5,2.02029 -2e-5,4.04059 -2e-5,6.06089 0,2.02031 0,4.04061 0,6.06091 0,2.02031 0,4.04062 0,6.06092 0,2.02031 0,4.04061 0,6.06092 0,2.0203 0,4.04061 0,6.06091 0,2.02031 0,4.04061 0,6.06092 0.2211,1.72881 0.60404,3.4263 0.79854,5.16131 0.18521,1.97485 0.19951,3.9601 0.21425,5.94193 0.008,2.02232 0.003,4.04467 7.7e-4,6.067 -0.0724,1.77307 0.43374,3.4925 0.69002,5.23449 0.2517,1.94717 0.28475,3.91279 0.31182,5.87318 0.0585,1.99462 -0.0781,3.9956 0.0888,5.98506 0.35244,2.02235 0.63383,4.05038 0.78928,6.09742 0.13387,1.90176 0.0183,3.80307 0.37417,5.68135 0.42473,1.80881 0.59475,3.65619 0.69664,5.50669 0.0848,2.00638 0.0817,4.01509 0.0834,6.02285 -9e-4,2.02246 -0.004,4.0449 -0.005,6.06736 -0.001,2.02064 -0.002,4.04129 -0.002,6.06194 0.14955,1.82648 -0.3108,3.48292 -1.04375,5.12443 -0.64452,1.37297 -1.36282,2.71313 -2.12088,4.02803 -0.90197,1.33569 -2.02807,2.5021 -3.20029,3.60257 -1.38859,1.06096 -2.81484,2.05537 -4.2413,3.06154 -4.52727,2.5911 -9.05453,5.1822 -13.5818,7.7733 -0.27837,0.0709 -0.56765,0.10789 -0.8351,0.21271 -1.05242,0.41249 -1.89138,0.84909 -3.02996,1.0698 -0.64038,0.49767 -1.48538,0.53629 -2.19663,0.84417 -0.72417,0.31348 -1.30345,0.71214 -2.07632,0.95883 -1.56664,0.44938 -3.06013,1.16413 -4.60682,1.72143 -1.22928,0.50926 -2.58944,0.41591 -3.86251,0.67516 -0.56592,0.11525 -1.0989,0.35631 -1.65289,0.51955 -1.14199,0.42334 -2.39788,0.28155 -3.56637,0.51385 -0.53451,0.10627 -1.03403,0.34517 -1.556,0.50182 -1.76951,0.45983 -3.60455,0.52587 -5.42216,0.58443 -1.89763,-0.18754 -3.6461,0.24591 -5.47738,0.61778 -1.8533,0.3239 -3.73867,0.36727 -5.61492,0.40535 -2.01142,0.0271 -4.0231,0.0198 -6.03464,0.0171 -2.05956,-0.005 -4.11914,4.4e-4 -6.17867,-0.0117 -2.28034,-0.006 -4.56069,-7.8e-4 -6.84103,0.002 -2.06199,0.002 -4.12398,0.003 -6.18598,0.004 -1.96076,0.20348 -3.79709,-0.18246 -5.69682,-0.5714 -1.87786,-0.20784 -3.66012,-0.81555 -5.52316,-1.12574 -1.91178,-0.39208 -3.76358,-0.91015 -5.71947,-1.13284 -1.785,-0.50142 -3.56108,-0.88614 -5.30037,-1.51831 -1.5888,-0.40682 -3.15594,-0.93424 -4.6572,-1.60355 -1.72278,-0.49268 -3.38765,-1.14379 -5.10985,-1.63934 -1.73158,-0.17993 -3.36323,-0.67197 -5.04961,-1.06847 -1.66965,-0.49201 -3.26072,-1.01869 -5.00854,-1.23143 -1.87504,-0.54364 -3.76558,-0.95888 -5.63921,-1.49987 -1.99549,-0.38402 -3.90767,-1.04829 -5.9106,-1.40577 -1.79654,-0.31087 -3.4999,-0.91954 -5.32107,-1.15575 -1.70412,-0.24442 -3.32805,-0.79966 -5.05174,-1.0124 -1.84237,0.0373 -3.56815,-0.39148 -5.35059,-0.76982 -1.78551,-0.23381 -3.52201,-0.3589 -5.26334,-0.82315 -1.72448,-0.44104 -3.50726,-0.52105 -5.27738,-0.58354 -1.86643,0.14702 -3.6261,-0.45709 -5.44647,-0.74666 -1.85694,-0.24737 -3.73342,-0.26985 -5.60362,-0.29338 -2.00447,-0.44065 -4.02869,-0.73369 -6.07376,-0.89022 -2.00679,-0.12353 -4.01834,-0.12451 -6.02811,-0.12925 -2.01953,-6.2e-4 -4.03906,0.004 -6.05858,0.006 -2.02043,0.002 -4.04087,0.002 -6.0613,0.002 -2.02032,1.2e-4 -4.04065,8e-5 -6.06097,6e-5 -2.02031,-2e-5 -4.04061,-3e-5 -6.06091,-4e-5 -2.02031,0 -4.04061,0 -6.06092,0 -2.0203,0 -4.04061,0 -6.06091,0 -2.00134,0.086 -4.03652,-0.2038 -6.00759,0.19226 -2.00062,0.44957 -4.04061,0.63686 -6.08374,0.74558 -2.02892,0.0836 -4.06008,0.0797 -6.09033,0.0805 -2.05962,-0.0541 -3.69516,-0.0928 -5.6983,0.40639 -1.78976,0.42015 -3.63111,0.50067 -5.46102,0.56297 -1.83501,-0.1559 -3.54062,0.48557 -5.33064,0.76057 -1.90293,0.24076 -3.82402,0.26137 -5.7392,0.28299 -2.01704,0.0133 -4.03415,0.007 -6.05121,0.004 -1.78089,0.0561 -3.49662,0.61759 -5.28008,0.8171 -1.93941,0.17442 -3.8885,0.18252 -5.83415,0.19415 -2.01985,0.006 -4.03972,2e-4 -6.05957,-0.002 -2.0215,-0.002 -4.043,-0.003 -6.0645,-0.003 -2.02039,-2.4e-4 -4.04077,-1.9e-4 -6.06116,-1.7e-4 -2.02029,2e-5 -4.04058,3e-5 -6.06088,4e-5 -1.89786,0.19869 -3.68857,-0.41036 -5.53799,-0.70761 -1.85452,-0.25133 -3.72911,-0.27569 -5.59735,-0.30036 -2.01037,-0.0162 -4.02084,-0.01 -6.03126,-0.007 -2.02205,0.003 -4.0441,0.004 -6.06615,0.004 -2.02057,4.5e-4 -4.04114,4.1e-4 -6.06171,4e-4 -2.0203,-2e-5 -4.04059,-3e-5 -6.06088,-4e-5 -2.0203,-10e-6 -4.0406,-10e-6 -6.06091,-10e-6 -2.0203,0 -4.0406,0 -6.06091,0 -2.02031,0 -4.04061,0 -6.06092,0 -2.0203,0 -4.04061,0 -6.06091,0 -2.02031,0 -4.04061,0 -6.06092,0 -2.0203,0 -4.04061,0 -6.06091,0 -1.69635,0.50644 -3.43458,0.7565 -5.19431,0.89425 -1.72596,0.20335 -3.37664,0.74781 -5.12461,0.94648 -1.87668,0.28837 -3.82647,-0.0786 -5.66395,0.39748 -1.72814,0.50442 -3.5241,0.63823 -5.31235,0.72995 -1.98935,0.0762 -3.98065,0.0707 -5.97111,0.0707 -2.0223,-0.002 -4.0446,-0.005 -6.06689,-0.007 -2.05976,-0.0539 -3.69596,-0.0894 -5.69856,0.41142 -1.71633,0.13342 -3.26751,0.74812 -4.91551,1.16053 -0.28288,0.0504 -0.57487,0.0639 -0.84862,0.15122 -0.4935,0.15737 -0.93177,0.46053 -1.42365,0.62291 -0.80877,0.26698 -1.539,0.33714 -2.30413,0.72728 -5.10395,2.00833 -0.94215,0.40985 11.55395,-6.6702 0.19352,-0.10964 -0.40293,0.19478 -0.58129,0.32767 -0.60234,0.4488 -1.14017,1.08476 -1.67007,1.61481 -1.2537,1.25348 -2.32337,2.61696 -3.35078,4.0558 -0.73222,1.36423 -1.56886,2.6558 -2.41649,3.94851 -0.84016,1.49935 -0.9259,3.2323 -1.01756,4.90935 -0.058,1.86718 -0.16441,3.73059 0.18222,5.57334 0.26629,1.55249 0.6616,3.09034 1.32,4.52546 0.56905,1.23806 1.4284,2.3553 2.41877,3.28779 1.21757,1.02501 1.91071,2.319 2.66315,3.68617 0.89951,1.57806 1.16928,3.3565 1.34261,5.13521 0.18539,1.88688 0.27961,3.70389 -1.01581,5.20251 -4.84577,3.19988 -2.63468,1.75758 -14.12598,8.19343 -0.23558,0.13194 -0.53271,0.1094 -0.78055,0.21655 -0.73398,0.3173 -1.31388,0.7002 -2.1006,0.93864 -1.65673,0.31789 -3.34717,0.31522 -4.77331,1.30502 -1.53115,0.70089 -3.15737,1.26516 -4.79712,1.6782 -4.75314,2.19671 -10.33006,5.67783 10.617,-6.19289 0.22825,-0.12934 -0.45216,0.26617 -0.67779,0.40002 -0.93123,0.55243 -0.54923,0.31863 -1.48109,0.91917 -4.56151,2.57997 -9.13257,5.14314 -13.68453,7.73992 -7.61467,4.34395 16.46819,-9.94963 9.46077,-5.29526 -0.95356,1.0526 -2.07412,1.98692 -2.94415,3.1172 -1.01138,0.99601 -2.0088,1.97294 -2.85261,3.12562 -0.94885,1.3075 -1.47571,2.77897 -2.01952,4.28212 -0.49299,1.70063 -1.23256,3.30252 -1.64056,5.02746 -0.35898,1.86952 -0.37852,3.78026 -0.4056,5.6771 -0.1246,1.85284 0.0304,3.64457 0.39882,5.45517 0.20847,1.67685 1.05181,3.15614 1.65166,4.70894 0.64827,1.90562 0.90787,3.91672 0.87568,5.92287 -0.15418,1.76061 -1.17819,2.82789 -2.46502,3.87885 -15.62437,13.13998 -8.46732,6.21562 -15.23372,8.05285 -0.7734,0.21 -1.49387,0.568 -2.28639,0.76013 -4.59418,2.39021 -10.20067,5.65574 10.91843,-6.2968 1.40842,-0.7971 -1.34606,0.87304 -1.71227,1.17961 -1.12238,1.11023 -1.64385,2.39835 -2.05149,3.8884 -0.63895,1.57615 -0.91974,3.22997 -1.07715,4.91271 -0.12056,1.83535 -0.23745,3.6691 0.096,5.48491 0.39391,1.78932 0.54467,3.6111 0.93444,5.40054 0.48475,1.91636 0.73099,3.81984 0.35518,5.76859 -0.40548,1.52779 -1.16613,2.74737 -2.19926,3.90859 -0.87028,1.15189 -1.75923,2.29997 -2.77169,3.33165 -0.97157,1.04949 -1.94538,2.10719 -2.99616,3.07941 -1.00764,1.02973 -2.14872,1.84937 -3.17191,2.86791 -0.9488,1.07263 -1.8781,2.17052 -2.90799,3.16747 -1.0597,0.98995 -1.90061,2.13864 -2.7109,3.3354 -0.94896,1.0821 -1.77641,2.23617 -2.6142,3.40145 -0.80463,1.20443 -1.72769,2.34094 -2.75459,3.36347 -0.64541,0.7281 -0.31276,0.38511 -0.99486,1.03193 0,0 -13.85495,5.81794 -13.85495,5.81794 l 0,0 c 0.60126,-0.76421 0.26369,-0.43051 1.00449,-1.00933 0.86747,-1.12355 1.97937,-2.02882 2.8462,-3.15756 0.73578,-1.28212 1.58937,-2.44856 2.54062,-3.56557 1.04883,-1.02884 1.49746,-2.50079 2.68879,-3.38673 0.87206,-1.12824 1.98673,-2.05116 2.93003,-3.11631 0.847,-1.23318 1.83936,-2.21076 3.14029,-2.94164 0.88321,-1.11771 2.01634,-2.02751 3.01593,-3.03332 0.86234,-1.13757 1.96259,-2.06922 2.82482,-3.21101 0.74383,-1.2708 2.07906,-1.94875 2.38895,-3.50276 0.87002,-1.58432 0.40492,-3.37659 0.048,-5.05607 -0.41572,-1.79947 -0.62712,-3.61109 -0.97261,-5.42434 -0.40686,-1.9403 -0.39847,-3.87418 -0.26923,-5.8516 0.10398,-1.77378 0.23935,-3.57017 0.88861,-5.24329 0.61455,-1.46104 0.53931,-3.21788 1.82847,-4.3532 0.42581,-0.76802 0.75786,-1.20137 1.52519,-1.64422 3.46139,-1.99771 9.63774,-6.69512 14.97896,-8.30003 5.57516,-1.81969 14.19964,-5.02136 -8.36516,5.81527 1.25238,-0.66294 2.38268,-1.35578 3.03344,-2.66299 0.31822,-1.76529 -0.0869,-3.61594 -0.55431,-5.32544 -0.61237,-1.63287 -1.56011,-3.15914 -1.77695,-4.91816 -0.39173,-1.91084 -0.69142,-3.78392 -0.52354,-5.74786 0.012,-1.97423 0.0159,-3.95578 0.26677,-5.91741 0.29684,-1.82958 0.96159,-3.47698 1.55907,-5.20913 0.49316,-1.54548 0.85473,-3.22514 1.87672,-4.51579 0.52327,-1.22183 1.57229,-2.72656 2.72691,-3.40337 1.16011,-1.19446 -0.18313,0.26883 0.8805,-1.17672 0.59358,-0.80672 1.68021,-1.09313 1.98087,-2.1562 3.3724,-3.57482 33.39137,-18.99327 4.14847,-2.6991 5.84707,-3.0801 11.01511,-7.7266 17.40613,-9.66128 1.59411,-0.54309 3.18832,-1.09244 4.68204,-1.87924 1.60525,-0.46592 3.27804,-0.6048 4.84012,-1.21325 0.69532,-0.32488 1.39602,-0.63086 2.09209,-0.94992 0.23184,-0.10627 0.89781,-0.48395 0.67764,-0.35523 -13.06266,7.63661 -16.09868,9.61599 -11.57413,6.68692 2.10793,-0.59609 1.83101,-1.83216 1.71378,-3.75138 -0.11753,-1.57659 -0.27035,-3.17079 -1.07215,-4.57176 -0.68402,-1.24835 -1.32569,-2.3891 -2.452,-3.32012 -1.0558,-1.11561 -2.0488,-2.33037 -2.67718,-3.74304 -0.71937,-1.53333 -1.19388,-3.17725 -1.47581,-4.84554 -0.41465,-1.95467 -0.41079,-3.90603 -0.33133,-5.90067 0.0535,-1.84872 0.1,-3.73133 0.69386,-5.50178 0.6398,-1.4635 1.83181,-2.55788 2.37915,-4.07529 0.91731,-1.53468 1.89964,-3.04831 3.27839,-4.2153 3.67736,-5.2431 10.92696,-8.25122 16.32934,-10.39806 1.57135,-0.41159 3.06427,-1.05012 4.65599,-1.38804 1.63382,-0.49235 3.30303,-0.74492 4.97717,-1.06861 1.93715,-0.28696 3.89998,-0.11945 5.85226,-0.1596 2.02152,0.002 4.04305,0.007 6.06457,0.003 1.97337,-0.009 3.94927,-0.0136 5.91822,-0.16177 1.77083,-0.16596 3.50647,-0.49639 5.25205,-0.82748 1.89031,-0.0976 3.79248,-0.0852 5.66575,-0.39465 1.71962,-0.31297 3.39849,-0.84085 5.1586,-0.89214 1.76353,-0.22969 3.49193,-0.71501 5.27336,-0.75991 2.0203,0 4.04061,0 6.06091,0 2.02031,0 4.04061,0 6.06092,0 2.0203,0 4.04061,0 6.06091,0 2.02031,0 4.04061,0 6.06092,0 2.0203,0 4.04061,0 6.06092,0 2.0203,0 4.0406,0 6.0609,10e-6 2.02029,2e-5 4.04058,4e-5 6.06087,3e-5 2.02044,-3e-5 4.04089,-4e-5 6.06133,-8e-4 2.02181,-9.4e-4 4.04362,-0.003 6.06543,-0.005 2.01765,-0.002 4.03553,-0.008 6.05291,0.0306 1.92263,0.052 3.85178,0.12688 5.74793,0.47621 1.78178,0.33931 3.53839,0.66733 5.36687,0.50932 2.02029,-1e-5 4.04058,-3e-5 6.06088,-4e-5 2.02045,10e-6 4.0409,-10e-6 6.06135,5.1e-4 2.02173,6.8e-4 4.04345,0.002 6.06518,0.005 2.0167,0.002 4.0335,0.008 6.05011,-0.0145 1.91566,-0.0331 3.8378,-0.0736 5.73621,-0.3573 1.78852,-0.29832 3.55521,-0.7799 5.38745,-0.63721 2.01199,0.002 4.02423,0.008 6.03595,-0.0308 1.87945,-0.052 3.76638,-0.12411 5.61743,-0.48228 1.80003,-0.35967 3.58199,-0.65707 5.42925,-0.60124 1.80014,-0.1197 3.58655,-0.33736 5.34644,-0.74706 1.93618,-0.28485 3.89724,-0.11386 5.84828,-0.15985 2.01116,-0.009 4.02436,-0.0179 6.0315,-0.16019 2.02714,-0.17148 4.0286,-0.49667 6.03809,-0.80576 2.03652,-0.0946 4.076,-0.0318 6.11425,-0.0494 2.0203,0 4.04061,0 6.06091,0 2.02031,0 4.04061,0 6.06092,10e-6 2.0203,0 4.04061,2e-5 6.06091,4e-5 2.02028,0 4.04056,5e-5 6.06084,-2.7e-4 2.02015,-4.2e-4 4.0403,-0.001 6.06046,-0.004 2.02146,-0.002 4.04295,-0.008 6.0644,0.002 2.03599,0.0179 4.07499,0.0417 6.10345,0.23556 2.01295,0.21899 3.99591,0.64219 6.01333,0.79868 1.92475,0.0503 3.85637,0.12172 5.75488,0.46996 1.76678,0.33883 3.51196,0.67734 5.32521,0.60352 1.84012,0.1157 3.67511,0.31068 5.45883,0.8022 1.73002,0.37665 3.517,0.36213 5.24033,0.79384 1.75127,0.387 3.51145,0.50284 5.29186,0.69681 1.69632,0.30447 3.33778,0.84772 5.05701,1.024 1.7971,0.34174 3.52549,0.94661 5.33723,1.21803 2.00564,0.45187 3.98052,1.03169 5.98261,1.49904 1.82268,0.51481 3.67837,0.92013 5.52274,1.34532 1.75174,0.3099 3.38887,0.93571 5.11907,1.3291 1.69044,0.44603 3.41221,0.683 5.09707,1.14552 1.72387,0.58706 3.47179,1.0915 5.17431,1.73729 1.53371,0.5485 3.06072,1.10016 4.62845,1.54434 1.65453,0.56741 3.3846,0.91195 5.08932,1.29021 1.94964,0.30361 3.82761,0.87173 5.77326,1.18758 1.85178,0.38331 3.68036,0.86469 5.55568,1.12987 1.82334,0.36445 3.64233,0.41142 5.50106,0.34347 2.05884,3.5e-4 4.11768,9.2e-4 6.17651,0.003 2.27802,0.003 4.55604,0.009 6.83406,0.004 2.06531,-0.01 4.13063,-7.1e-4 6.19596,-5.2e-4 2.00353,0 4.00765,0.005 6.01038,-0.0597 1.83968,-0.0802 3.68165,-0.20859 5.48248,-0.61908 1.85315,-0.37106 3.71083,-0.38348 5.59645,-0.42723 1.77529,-0.11977 3.54326,-0.32344 5.25034,-0.85354 1.69178,-0.40128 3.45471,-0.45618 5.11603,-1.01286 1.80437,-0.44114 3.69768,-0.53391 5.41412,-1.31169 1.52593,-0.62071 3.06803,-1.19658 4.62132,-1.74031 1.41534,-0.65439 2.86342,-1.24752 4.36804,-1.66595 5.41227,-1.85467 13.7876,-7.31778 -8.44909,5.51955 1.51451,-0.87525 2.89566,-1.91146 4.28057,-2.96915 1.28509,-0.72121 2.44646,-2.03354 3.35407,-3.18184 1.03377,-1.07497 1.39994,-2.50892 2.28108,-3.69175 0.57715,-1.53942 1.56541,-2.86879 1.33522,-4.61844 8e-5,-2.02096 1.7e-4,-4.04191 0.001,-6.06287 0.001,-2.02195 0.004,-4.0439 0.006,-6.06585 3.2e-4,-1.98471 0.006,-3.97002 -0.0573,-5.95396 -0.077,-1.7792 -0.19751,-3.5617 -0.6088,-5.30069 -0.41016,-1.94353 -0.39436,-3.88429 -0.4411,-5.86592 -0.12303,-2.02624 -0.35263,-4.04038 -0.75421,-6.03227 -0.29941,-2.02663 -0.10392,-4.0805 -0.16498,-6.12462 -0.0179,-1.90031 -0.0341,-3.8051 -0.24046,-5.69637 -0.23731,-1.81512 -0.79164,-3.5932 -0.76806,-5.42926 0.002,-2.019 0.007,-4.038 0.003,-6.05699 -0.009,-1.93574 -0.0132,-3.87405 -0.1603,-5.80535 -0.17042,-1.79047 -0.52798,-3.5402 -0.85562,-5.30636 0,-2.0203 0,-4.04061 0,-6.06091 0,-2.02031 0,-4.04061 0,-6.06092 0,-2.0203 0,-4.04061 0,-6.06091 0,-2.02031 0,-4.04061 0,-6.06092 0,-2.0203 0,-4.04061 0,-6.06091 0,-2.0203 0,-4.0406 10e-6,-6.06091 2e-5,-2.02029 4e-5,-4.04058 4e-5,-6.06087 -2e-5,-2.02052 -2e-5,-4.04104 -7.6e-4,-6.06156 -9.1e-4,-2.02214 -0.003,-4.04428 -0.005,-6.06641 -0.002,-2.01406 -0.009,-4.02832 0.0259,-6.04215 0.0471,-1.88974 0.10856,-3.78762 0.45073,-5.65168 0.37036,-1.8283 0.72638,-3.58965 0.53243,-5.47707 0.0125,-1.95985 0.0209,-3.92417 0.2209,-5.87589 0.23058,-1.81445 0.79845,-3.53443 1.03341,-5.33501 0.25985,-2.03785 0.79162,-3.99829 1.2031,-6.00148 0.36633,-1.78063 1.0372,-3.44773 1.41252,-5.22232 0.43492,-1.80798 0.12312,-3.72144 0.52273,-5.54878 0.31745,-1.67532 0.99856,-3.22776 1.14444,-4.93436 0.40837,-1.85406 0.8492,-3.65336 0.87402,-5.57114 0.28902,-2.06865 0.81155,-4.10353 0.71719,-6.20693 0.0958,-2.11935 0.18514,-4.28619 0.82325,-6.32313 0.67549,-1.78202 1.23107,-3.61218 1.39985,-5.52408 0.27311,-1.93127 0.88353,-3.75857 1.22539,-5.66301 0.36921,-1.82139 0.73003,-3.57773 0.56019,-5.45848 0.0459,-1.89117 0.10472,-3.79087 0.44819,-5.65622 0.36964,-1.80053 0.74729,-3.53869 0.62748,-5.3996 0.10754,-1.79322 0.27686,-3.58605 0.7499,-5.32611 0.41392,-1.91238 0.0519,-3.91636 0.16875,-5.86104 0.002,-1.99643 -0.002,-3.99393 0.0878,-5.9888 0.10529,-1.79438 0.26818,-3.59035 0.75162,-5.3293 0.42684,-1.84488 0.0988,-3.78751 0.40424,-5.66011 0.21484,-1.76078 0.76239,-3.46942 0.7904,-5.23672 -0.009,-1.93574 -0.0132,-3.87405 -0.16031,-5.80535 -0.17041,-1.79047 -0.52797,-3.54021 -0.85561,-5.30636 0,-2.0203 0,-4.04061 0,-6.06091 0,-2.02031 0,-4.04061 0,-6.06092 0,-2.02029 -10e-6,-4.04059 -2e-5,-6.06088 -2e-5,-2.02028 -6e-5,-4.04056 -10e-5,-6.06083 -1e-5,-2.02084 -1e-4,-4.04167 8.8e-4,-6.0625 0.001,-2.02425 0.003,-4.0485 0.01,-6.07274 0.006,-2.00222 0.0203,-4.00473 -0.0159,-6.00675 -0.0505,-1.6837 -0.0742,-3.40893 -0.64354,-5.01413 -0.60585,-1.30466 -1.44291,-2.50054 -2.30289,-3.64861 -0.75122,-1.22791 -1.53978,-2.41707 -2.39318,-3.5747 -0.84418,-1.17215 -1.71217,-2.30461 -2.73887,-3.33125 -1.0159,-1.18433 -2.18924,-2.06932 -3.57164,-2.80009 -1.55365,-0.77323 -3.24908,-0.81749 -4.95389,-0.93315 -1.7378,-0.21512 -3.43932,-0.65659 -5.18553,-0.77237 -2.01987,-0.002 -4.03977,-0.008 -6.05963,0.002 -1.94696,0.0172 -3.89859,0.0325 -5.83621,0.24505 -1.76464,0.23286 -3.48194,0.72123 -5.25677,0.8563 -2.01448,0.11968 -4.01932,0.33548 -5.99914,0.73854 -1.92922,0.29744 -3.8844,0.24495 -5.81484,0.5434 -1.7441,0.30263 -3.45509,0.80643 -5.24049,0.8041 -1.7486,0.17087 -3.45831,0.50396 -5.16292,0.92727 -1.77374,0.17858 -3.54623,0.35809 -5.28422,0.776 -1.9363,0.28719 -3.89837,0.12022 -5.84984,0.16226 -2.02031,2e-5 -4.04061,5e-5 -6.06091,3e-5 -2.02065,-7e-5 -4.04129,-1.2e-4 -6.06194,-0.001 -2.02177,-0.001 -4.04354,-0.004 -6.06531,-0.007 -2.00439,-0.002 -4.00944,-0.01 -6.01304,0.0555 -1.87444,0.0849 -3.75444,0.2207 -5.5737,0.71444 -1.90702,0.48977 -3.84774,0.7138 -5.77195,1.12198 -1.78496,0.32997 -3.61982,0.25038 -5.3968,0.65638 -1.71971,0.38099 -3.42392,0.73577 -5.18643,0.86157 -1.69147,0.32307 -3.331,0.87265 -5.05421,1.02537 -1.75865,0.35687 -3.45365,0.96187 -5.23702,1.20574 -1.78977,0.42822 -3.55056,0.96436 -5.35642,1.32845 -1.73451,0.36857 -3.54046,0.35475 -5.23269,0.94196 -1.84581,0.58224 -3.73408,0.94882 -5.61725,1.39253 -2.05021,0.37623 -4.06681,0.85441 -6.08281,1.38147 -2.00308,0.44592 -3.98193,0.98989 -6.01341,1.30419 -1.83586,0.34024 -3.71686,0.37776 -5.52852,0.86153 -1.99195,0.48365 -4.01903,0.63971 -6.04178,0.95657 -2.7575,0.46704 -5.53995,0.72412 -8.2865,1.24982 -2.90016,0.6841 -5.73656,1.39444 -8.75608,1.08414 -2.85949,0.01 -5.71902,0.0103 -8.57848,0.0286 -2.12193,0.009 -4.24397,0.0297 -6.36587,8.5e-4 -2.30642,-0.0432 -4.61526,-0.13513 -6.90114,-0.46858 -3.14395,-0.47308 -6.23619,-1.25062 -9.39709,-1.5854 -3.56654,0.002 -7.13309,-0.001 -10.69962,0.006 -3.84649,0.006 -7.69361,0.007 -11.53901,-0.0971 -4.17376,-0.15523 -8.35438,-0.42145 -12.45051,-1.29322 -3.96573,-0.84067 -7.93279,-1.58049 -11.93975,-2.19624 -3.21811,-0.51287 -6.4308,-0.51655 -9.68464,-0.42896 -2.07805,-0.004 -4.15955,-0.0285 -6.22963,-0.22906 -2.03291,-0.22977 -4.02707,-0.66211 -6.05243,-0.93288 -2.06782,-0.18936 -4.10887,-0.52995 -6.12332,-1.04052 -1.98135,-0.32371 -3.96993,-0.66847 -5.96865,-0.84264 -1.91787,-0.0508 -3.84841,-0.1153 -5.72827,-0.53535 -1.64153,-0.40846 -3.25228,-0.91533 -4.93505,-1.14385 -1.84474,-0.42621 -3.70726,-0.59002 -5.57891,-0.86097 -2.01143,-0.39863 -4.00302,-0.88431 -6.0354,-1.1732 -1.85162,-0.39432 -3.7199,-0.643 -5.57195,-1.02839 -1.81332,-0.46362 -3.65241,-0.71 -5.4795,-1.10862 -1.73013,-0.46506 -3.46323,-0.91323 -5.24168,-1.15938 -1.95516,-0.10538 -3.91601,-0.0133 -5.87321,-0.0443 -2.01921,3e-5 -4.03842,1e-4 -6.05763,1.5e-4 -2.01428,-1e-5 -4.02856,10e-5 -6.04284,-0.002 -2.06604,-0.002 -4.13209,-0.007 -6.19812,-0.0163 -2.59327,-0.0105 -5.187,-0.027 -7.77987,0.0313 -3.16332,0.10334 -6.33267,0.26767 -9.44888,0.86264 -3.25553,0.63629 -6.47302,1.40428 -9.82332,1.11399 -3.23937,0.002 -6.47873,-0.007 -9.7181,-5.7e-4 -3.32783,-0.008 -6.65566,-0.003 -9.98348,-0.0104 -3.29879,0.003 -6.59758,-0.006 -9.89634,0.014 -2.8506,0.0342 -5.70875,0.0507 -8.54613,0.35743 -2.13059,0.276 -4.22198,0.80374 -6.3735,0.91012 -2.03416,0.22299 -4.03768,0.66247 -6.07949,0.79565 -1.8708,0.0591 -3.76212,0.13049 -5.57074,0.66108 -1.716,0.56748 -3.3852,1.26208 -5.14797,1.6894 -1.65377,0.40233 -3.26143,0.9644 -4.94597,1.232 -1.63137,0.43184 -3.2418,0.89178 -4.9146,1.14678 -1.72733,0.41403 -3.47884,0.51812 -5.22627,0.82058 -1.71852,0.38534 -3.42435,0.7467 -5.17649,0.94815 -1.75474,0.4357 -3.40233,1.18871 -5.17605,1.56079 -1.75743,0.47505 -3.55356,0.80216 -5.24623,1.49997 -1.86012,0.43453 -3.72818,0.78257 -5.6128,1.08622 -1.76672,0.45159 -3.51811,0.92718 -5.31226,1.26305 -1.6968,0.4912 -3.40448,0.9333 -5.09603,1.4429 -1.64407,0.30104 -3.21877,0.80417 -4.8395,1.19015 -1.61787,0.37861 -3.14172,1.04236 -4.77305,1.37331 -1.84746,0.54339 -3.74387,0.84281 -5.58509,1.41012 -1.96532,0.60181 -3.9708,1.0574 -5.97797,1.49523 -1.66534,0.49926 -3.2757,1.16511 -4.87843,1.83571 -1.46887,0.47126 -2.78898,1.23752 -4.17954,1.89214 -1.35013,0.72082 -2.7853,1.2815 -4.20935,1.83719 -1.4439,0.58931 -2.94187,1.05748 -4.38089,1.65845 -5.45717,1.97012 -14.12265,5.51855 8.48481,-5.69738 -5.56221,3.48999 -11.13546,6.97104 -17.10802,9.679 -4.70037,2.04289 -11.03627,6.1581 10.33152,-6.18045 1.89245,-1.09277 -4.21391,2.27017 -2.17434,1.35944 -5.77652,3.44495 -11.00158,7.01969 -16.98712,9.72468 -5.01931,2.25053 -0.37808,0.19967 11.40092,-6.71093 0.23306,-0.13673 -0.49894,0.21204 -0.73078,0.35085 -0.99879,0.59801 -0.38736,0.36921 -1.31472,1.12678 -0.23879,0.19507 -0.51233,0.34323 -0.7685,0.51484 -1.35161,1.17708 -2.95483,2.03622 -4.31085,3.20776 -1.38055,0.76859 -2.39735,2.03791 -3.57033,3.07216 -1.18115,0.79296 -2.19576,1.80688 -3.401,2.56601 -0.84309,1.22509 -1.83384,2.20122 -3.11146,2.94988 -0.84844,1.14931 -1.9284,2.10091 -2.7049,3.31275 -0.6715,1.33604 -1.87006,2.15021 -2.67371,3.38722 -1.02603,1.13932 -1.32012,2.62093 -2.02144,3.95442 -0.4113,1.65632 -1.2615,3.06437 -1.87115,4.64488 -0.84003,1.59826 -1.21997,3.41924 -1.97523,5.06374 -0.77981,1.6455 -1.07236,3.49941 -1.58869,5.23925 -0.61555,1.79003 -0.9606,3.61535 -1.45982,5.44442 -0.25566,1.91464 -0.86261,3.72545 -1.15727,5.6215 -0.29756,1.94433 -0.95356,3.77251 -1.13471,5.73362 -0.34731,1.88475 -0.7517,3.73448 -0.84635,5.65602 -0.30235,1.70344 -0.94713,3.30845 -0.99866,5.05133 -0.29072,1.80402 -0.88247,3.54139 -0.7711,5.3916 -0.12668,2.0163 -0.33326,4.03316 -0.9015,5.98066 -0.47058,1.65976 -0.51652,3.41957 -1.04033,5.07578 -0.0287,1.92668 -0.062,3.85953 -0.32766,5.77123 -0.28854,1.78635 -0.87343,3.50926 -0.67565,5.34282 0.002,2.02252 0.005,4.04503 0.006,6.06755 -0.002,1.99533 8e-4,3.99178 -0.0912,5.98546 -0.10739,1.79248 -0.27637,3.5846 -0.74888,5.32402 -0.41363,1.91259 -0.0493,3.91658 -0.16898,5.86139 -0.006,2.04216 -0.01,4.08658 -0.15332,6.12476 -0.17173,1.97948 -0.45566,3.94473 -0.99761,5.86106 -0.14729,1.75479 -0.41522,3.48532 -0.87165,5.18881 -0.0449,2.2839 -0.13752,4.57507 -0.58961,6.8215 -0.61013,2.85497 -1.54938,5.61898 -2.10335,8.48677 0,0 -13.54768,6.43449 -13.54768,6.43449 z" />
    <path
       style="fill:#008000;fill-opacity:1;stroke:#000000;stroke-width:0.25000000000000000;stroke-linecap:square;stroke-miterlimit:4;stroke-opacity:1;stroke-dasharray:none"
       id="path2830"
       d="m 260.37432,401.10097 c 0.90237,3.73324 2.51045,7.22492 4.02326,10.73668 1.3123,3.48247 3.22755,6.62779 5.12682,9.80425 0.89974,2.18083 2.50985,3.94644 3.63078,6.00052 2.12161,3.88781 -0.64438,-0.76626 1.37611,2.57194 1.43038,2.62417 2.89057,5.23479 4.12507,7.95896 1.05611,2.64244 1.4757,5.45043 1.69218,8.26884 0.12486,2.12135 0.1061,4.24748 0.0978,6.37145 0.041,2.21882 -0.34799,4.41231 -1.15828,6.47079 -1.63079,3.14087 -3.46369,6.18758 -5.53654,9.05693 -3.59283,4.9106 -8.58652,8.46096 -13.23824,12.28157 -5.12403,4.28082 -10.28425,8.51854 -15.30364,12.92235 -2.24948,1.91718 -4.28286,4.07763 -6.59064,5.92851 -1.78848,1.4344 -3.69117,2.69305 -5.45944,4.15745 -2.17601,1.7887 -4.31419,3.62154 -6.43627,5.47342 -1.1855,0.96837 -2.13753,2.11797 -2.95913,3.4017 -0.65457,1.29716 -0.92522,2.72997 -0.4432,4.11986 0.60525,1.56819 2.28938,2.2576 3.57148,3.20926 1.27347,1.05728 2.90323,1.27927 4.37845,1.88994 0,0 -12.44568,8.36431 -12.44568,8.36431 l 0,0 c -1.61385,-0.56399 -3.21213,-1.14213 -4.56255,-2.2348 -1.5677,-1.10111 -3.37227,-2.02163 -4.07183,-3.92587 -0.69109,-1.71945 -0.67569,-3.45941 -0.11055,-5.22709 0.57209,-1.48184 1.54767,-2.90343 2.79032,-3.89285 1.98854,-2.08502 4.40982,-3.74246 6.59183,-5.61656 1.58772,-1.44436 1.61686,-1.56033 3.42063,-2.82298 0.69919,-0.48944 1.45448,-0.89702 2.14204,-1.40269 1.88539,-1.38662 2.64366,-2.23268 4.37931,-3.83664 0.75693,-0.6995 1.52283,-1.38922 2.28424,-2.08383 5.01145,-4.43756 10.18999,-8.67664 15.3208,-12.97444 4.52439,-3.81032 9.54236,-7.16411 13.19681,-11.88506 2.09444,-2.74715 3.79683,-5.71317 5.48973,-8.71679 1.01169,-1.76951 1.37495,-3.83571 1.40463,-5.86491 0.0128,-2.09773 0.0413,-4.19636 -0.0257,-6.29348 -0.13201,-2.65934 -0.4146,-5.32572 -1.38396,-7.83013 -1.18299,-2.68448 -2.6786,-5.21107 -4.05754,-7.79722 -2.15474,-3.67069 0.57479,1.07587 -1.34884,-2.57704 -1.09176,-2.0732 -2.65193,-3.87179 -3.61142,-6.0205 -1.93036,-3.23686 -3.83263,-6.46286 -5.14958,-10.015 -1.53676,-3.56051 -3.16148,-7.08341 -4.318,-10.79265 0,0 13.16874,-7.1782 13.16874,-7.1782 z" />
    <path
       style="fill:#ff0000;fill-opacity:1;stroke:#000000;stroke-width:0.25000000000000000;stroke-linecap:square;stroke-miterlimit:4;stroke-opacity:1;stroke-dasharray:none"
       id="path2832"
       d="m 343.91245,441.66408 c 0.20587,-1.15307 0.34128,-2.31667 0.4895,-3.47802 0.0288,-0.22558 0.0275,-0.87279 0.12996,-0.66976 0.21752,0.43109 0.38158,0.88712 0.57238,1.33068 -4.58068,2.98863 4.36815,-2.86344 11.65614,-6.61324 0.43446,-0.22354 -0.61717,0.758 -0.90938,1.14958 -1.40795,1.8867 -2.72354,3.84638 -4.04037,5.79651 -3.715,6.23817 -5.99398,13.16652 -7.81068,20.15655 -1.72321,7.09574 -1.97584,14.40857 -2.16155,21.67249 -0.0258,7.44589 2.69895,14.33817 5.86337,20.94452 3.57514,7.23025 8.96052,13.12372 14.73296,18.64607 6.13304,5.36118 12.78408,10.06841 19.45427,14.725 5.47389,3.78786 10.90447,7.65563 16.5243,11.22537 3.14258,2.01211 5.91617,4.44789 8.67486,6.93677 1.53651,1.46057 2.41744,3.26096 2.25645,5.38321 -0.6156,1.84493 -2.33854,2.98858 -3.96015,3.92685 -14.29111,8.26902 -9.79107,6.12084 -17.33036,9.56286 -5.43854,2.14347 -10.78635,4.57721 -16.34096,6.41789 -2.66388,0.88275 -8.47584,2.45639 -11.12017,3.18947 -12.35294,3.78314 -24.99401,6.37055 -37.64467,8.90903 -2.13817,0.3757 -4.27793,0.74248 -6.41451,1.12709 -5.92682,1.0669 -6.66969,1.29833 -12.60413,2.19617 -5.74739,0.86954 -11.5291,1.45087 -17.28615,2.25034 -7.12819,1.11033 -14.28931,1.98203 -21.48435,2.5053 -2.80228,0.11536 -5.18508,-0.54254 -6.76994,-2.90943 -1.301,-1.65933 -1.75518,-3.65772 -2.26851,-5.64676 -0.783,-2.48245 -0.9048,-5.07847 -1.00979,-7.65866 -0.0913,-4.78529 -0.0473,-9.57185 -0.0108,-14.35747 -0.28642,-6.32814 1.00694,-12.42564 3.12049,-18.34595 2.1361,-5.91122 4.89653,-11.59162 7.8835,-17.11599 3.28642,-5.42825 7.38464,-10.32508 11.63473,-15.01834 3.50425,-4.34983 7.60029,-8.11772 12.00577,-11.52856 5.65145,-3.88401 11.6579,-7.13329 17.67195,-10.46496 1.19134,-0.65997 2.26222,-0.603 3.45926,-0.1568 1.6995,1.25349 1.16463,3.15903 0.28772,4.73825 -1.01409,1.4379 -1.84909,2.98823 -2.92294,4.38444 -0.99947,1.38564 -1.46755,3.05693 -2.2314,4.57279 -0.6385,1.50269 -1.29264,3.01686 -1.79016,4.57449 -0.47263,1.77771 -0.51156,3.62745 -0.55628,5.45497 -0.23471,1.9153 0.73259,3.47339 1.46082,5.15788 1.65814,3.21637 4.38576,5.60031 6.89285,8.13097 2.3278,2.50906 5.02103,4.64213 7.61652,6.86242 0,0 -12.45193,7.76826 -12.45193,7.76826 l 0,0 c -2.63944,-2.23742 -5.35695,-4.40516 -7.73873,-6.92428 -2.67032,-2.63933 -5.53701,-5.15405 -7.35471,-8.50014 -0.82529,-1.84446 -1.97737,-3.60779 -1.78317,-5.71931 0.0233,-1.92668 0.0398,-3.86537 0.37234,-5.76903 0.37282,-1.69696 1.14724,-3.2042 1.66634,-4.8525 0.77919,-1.57406 1.50945,-3.14245 2.12091,-4.79375 0.99297,-1.44914 2.14553,-2.77617 2.94655,-4.36011 0.54265,-0.61524 0.78273,-1.05395 1.14766,-1.75373 0.14044,-0.2693 0.45971,-0.30574 0.002,-0.38188 -0.69878,0.0592 -0.72965,0.0206 -1.49327,0.32223 -0.4138,0.16346 -1.59251,0.79031 -1.21071,0.56189 20.81189,-12.4511 12.07011,-7.04032 7.55859,-4.28043 -4.53722,3.22614 -8.71689,6.97738 -12.21801,11.31878 -4.28902,4.565 -8.31801,9.4295 -11.74005,14.68196 -3.07343,5.43602 -5.82626,11.09976 -8.03064,16.94276 -2.20401,5.71697 -3.52647,11.68488 -3.28905,17.85102 0.0374,4.73118 0.0378,9.46403 0.19258,14.19318 0.11198,2.46076 0.22008,4.94434 0.95061,7.31638 0.51196,1.81236 0.77425,3.68769 2.02086,5.19679 1.33112,1.81027 3.64912,1.81363 5.72858,1.7617 7.02863,-0.43532 14.0202,-1.265 20.99112,-2.25755 12.0761,-1.55181 24.15552,-3.02304 36.08675,-5.52436 12.6707,-2.54058 25.29813,-5.26856 37.66605,-9.06118 3.78988,-1.08624 7.43023,-2.06965 11.15303,-3.36701 5.63366,-1.96328 11.10266,-4.40419 16.57837,-6.75892 6.56245,-3.22859 2.64378,-1.38025 -7.95724,4.90286 -0.50973,0.3021 1.06713,-0.52201 1.56393,-0.84492 0.4104,-0.26676 0.76456,-0.61138 1.14685,-0.91707 0.31287,-0.15891 0.64391,-0.28625 0.93863,-0.47674 0.22622,-0.14621 0.4088,-0.35083 0.6132,-0.52625 0.78929,-1.52578 -0.37535,-2.9587 -1.43037,-4.04335 -2.59247,-2.50917 -5.30321,-4.84879 -8.31158,-6.85995 -5.52956,-3.68636 -10.93194,-7.5606 -16.36421,-11.38781 -6.70337,-4.72633 -13.41709,-9.45777 -19.55403,-14.92112 -5.8906,-5.6428 -11.35852,-11.71213 -15.04078,-19.07019 -3.25119,-6.80617 -6.1959,-13.86048 -6.18865,-21.53989 0.14208,-7.3556 0.30408,-14.77147 2.00697,-21.96717 1.80338,-7.06516 3.99397,-14.06495 7.45295,-20.51766 1.23215,-1.94425 2.56048,-3.81243 3.81376,-5.74045 0.2679,-0.41212 0.35608,-0.98567 0.76246,-1.26221 9.79174,-6.66343 8.79284,-6.15697 13.96102,-8.64073 0.33626,0.37351 0.72568,0.70529 1.00878,1.12054 0.37591,0.55137 -0.7781,3.68467 -0.55137,4.49669 0,0 -13.46263,6.62063 -13.46263,6.62063 z" />
    <path
       style="fill:#ffff00;fill-opacity:1;stroke:#000000;stroke-width:0.25000000000000000;stroke-linecap:square;stroke-miterlimit:4;stroke-opacity:1;stroke-dasharray:none"
       id="path2834"
       d="m 225.0539,361.49176 c 3.38692,-1.64913 6.70724,-3.43305 10.18431,-4.89787 -1.07346,0.43855 4.03188,-2.19498 3.04074,-1.61605 -25.18384,14.70997 -2.56303,0.64488 6.1404,-3.32154 0.52498,-0.28819 2.09428,-1.16278 1.57492,-0.86458 -37.04796,21.27223 33.65494,-19.50851 -4.55798,2.4575 6.20076,-1.21681 10.45193,-6.40929 15.98524,-9.01958 0.5465,-0.2578 1.13479,-0.42394 1.67153,-0.70148 0.49716,-0.25708 1.90622,-1.17317 1.41949,-0.89685 -10.7324,6.09281 -15.17971,9.04539 -10.31803,5.85121 4.81082,-3.56498 9.99669,-6.11184 15.46019,-8.94894 0.7953,-0.41298 1.69325,1.07443 1.9756,1.50253 0.88926,2.42156 0.66547,5.13749 0.65605,7.68172 -0.59443,3.95961 -1.35525,7.87064 -1.72557,11.86616 -0.40237,5.89514 -1.37081,11.72918 -1.89929,17.61635 -0.54703,7.64302 -0.58817,15.31219 -0.64505,22.97132 -0.005,6.57874 0.0577,13.15722 0.10034,19.73575 0.0254,4.77091 0.0369,9.54193 0.0503,14.3129 0.33023,3.52221 0.91059,7.0322 1.91581,10.42593 0.67579,2.01056 0.98055,4.09728 1.13265,6.20373 0.0756,1.98589 0.16181,3.98007 0.0235,5.96429 -1.42729,6.47045 -12.95839,9.61104 -16.10794,11.35897 -3.71139,2.149 -7.77988,3.5188 -11.64478,5.36469 -6.28569,2.38921 -12.5693,4.78591 -18.88837,7.08963 -5.44293,2.21362 -10.64254,4.90972 -16.33363,6.45837 -2.7267,0.91435 -4.88786,1.93786 -6.48604,-1.03031 -0.7575,-2.37094 -0.44975,-4.89711 0.0439,-7.28685 0.75781,-3.4458 1.84445,-6.76741 3.39246,-9.93637 2.26953,-4.62381 5.00488,-9.00129 7.78916,-13.3281 2.82908,-4.61299 5.59494,-9.26997 8.58811,-13.77927 2.76609,-3.34598 4.73488,-7.15295 6.55637,-11.05979 0.96037,-1.95085 1.34146,-4.04541 1.49524,-6.19154 0.24657,-2.04332 -0.43415,-3.84307 -1.27313,-5.65433 -1.22138,-2.41378 -3.44652,-4.09305 -5.34461,-5.95826 -2.78214,-2.65417 -5.18839,-5.6835 -8.20558,-8.07963 -1.33463,-0.96887 -2.23939,-2.38084 -3.45757,-3.46825 -0.99855,-0.89135 -1.93301,-1.62179 -2.81276,-2.65343 -1.60512,-2.08727 -1.8523,-4.31677 -1.07183,-6.76462 1.96761,-3.71404 5.73308,-5.8383 9.02054,-8.24161 7.70903,-4.75798 15.53375,-9.5109 23.85765,-13.1474 1.07802,-0.47096 6.23589,-2.45341 7.27904,-2.85715 7.43095,-2.84589 15.05178,-5.20869 22.68239,-7.46034 6.03461,-2.13419 12.16398,-4.02206 18.15974,-6.25814 3.44408,-1.33855 7.05619,-2.09283 10.56326,-3.21756 1.97135,-0.67389 3.88322,-1.3276 5.96883,-1.54871 2.25435,-0.20534 4.51967,-0.22055 6.7815,-0.23113 2.56153,-0.1601 3.35625,0.0733 5.16728,1.81352 1.32829,1.73251 2.11368,3.7976 2.91555,5.80849 1.23073,3.2479 1.995,6.62973 3.12733,9.90916 1.89017,6.53882 3.48476,13.17686 4.99785,19.81496 2.0858,9.45089 4.05327,18.93271 5.82441,28.44818 0.27218,1.74664 0.57249,3.48913 0.81654,5.23992 1.11328,7.98661 0.16587,2.54602 1.34766,10.60184 0.80548,5.49056 1.78027,10.95404 2.58026,16.44639 1.34923,6.94851 1.94624,14.01808 3.19586,20.98086 0.57583,3.20848 1.29831,6.3889 1.94695,9.58346 1.37175,8.68318 3.59964,17.19636 5.79691,25.69875 2.00335,6.21785 4.15502,12.40708 6.76231,18.39998 2.31363,6.18888 5.2961,12.06685 8.62316,17.76426 3.14707,5.67632 5.98918,11.51351 9.30394,17.09572 2.95532,4.13047 6.14896,8.0889 9.26482,12.10077 0.51456,0.60267 0.99656,1.23474 1.54368,1.80801 1.13497,1.05436 2.03312,1.8558 3.10001,2.97499 1.13961,1.19549 2.10087,2.36462 3.40638,3.38166 1.80236,0.96733 3.70322,1.81718 5.71987,2.21695 0.29228,0.0373 0.58224,0.11644 0.87686,0.11184 0.67456,-0.0105 0.83317,-0.19297 1.40009,-0.51065 -4.078,2.27675 -8.12133,4.61673 -12.234,6.83023 -0.28278,0.15219 0.5007,-0.40477 0.72412,-0.63545 0.30402,-0.31389 0.5696,-0.66287 0.8544,-0.9943 2.34255,-3.3919 4.40254,-6.943 6.34829,-10.57389 2.75502,-5.45569 5.63586,-10.84553 8.37333,-16.31019 3.67854,-8.01828 6.84279,-16.2605 10.09294,-24.4584 3.72909,-10.1607 6.52054,-20.61964 9.70668,-30.95434 3.05567,-10.57897 5.73542,-21.2594 8.68418,-31.86706 2.18879,-8.76802 4.79679,-17.43006 6.88607,-26.22202 1.65952,-6.89361 3.18641,-13.82872 4.5112,-20.79565 0.70315,-5.05078 1.35742,-10.08164 2.28982,-15.09684 0.73686,-3.85527 0.97263,-7.77365 1.10973,-11.688 0.0987,-3.2081 -0.16832,-6.40734 0.52257,-9.55959 0.11305,-1.38127 1.68501,-3.64717 0.67765,-4.92993 -1.39799,-0.50015 -2.95991,-0.42124 -4.42767,-0.43678 -2.021,5.7e-4 -4.04191,0.025 -6.06286,0.0373 -2.02807,0.0112 -4.05618,0.0128 -6.08427,0.014 -1.9783,-0.56043 -4.03351,-0.6549 -6.03596,-1.06478 -3.49943,-0.36725 -6.87588,-1.25758 -10.3212,-1.93671 -4.74475,-0.57521 -9.40025,-1.65552 -14.12623,-2.36231 -3.42518,-0.52435 -7.09812,-0.56982 -10.09706,-2.44676 -1.88566,-1.54216 -2.39357,-3.73044 -2.63007,-6.03676 -0.1286,-2.05087 -0.0748,-4.10764 -0.052,-6.1609 -0.11481,-1.55602 0.86993,-3.08483 0.53166,-4.61999 -0.0554,-0.84175 -0.82297,0.27566 -0.69687,0.20883 4.25725,-2.25606 8.38747,-4.74593 12.63614,-7.01811 0.17793,-0.0952 -0.29427,0.2867 -0.38566,0.4666 -0.13563,0.26699 -0.18952,0.56815 -0.28428,0.85223 -0.55209,3.24558 -0.49584,6.56437 -0.52503,9.84704 0.0651,4.10074 -0.23595,8.22266 0.20201,12.30597 0.30926,4.24495 1.78813,8.16331 3.25109,12.10661 1.26559,4.09649 3.07538,7.98705 4.29623,12.09713 0.96748,3.174 0.92532,6.50332 1.8685,9.67309 0.76106,2.11024 1.2071,4.29189 1.43747,6.51719 0.16405,2.0589 0.1648,4.12656 0.14904,6.19053 -0.0254,2.90368 -0.0396,5.80739 -0.0524,8.71118 0.15269,3.8438 -0.0623,7.59433 -1.08516,11.30929 -1.24969,4.07399 -2.58891,8.0899 -4.33817,11.97934 -1.69004,4.50919 -4.50967,8.40964 -6.99458,12.48895 -2.48955,3.89553 -4.71455,7.95032 -6.90484,12.01909 -0.45032,1.07532 -2.18234,3.79315 -0.44378,4.69267 0.37486,0.19395 0.79756,0.27648 1.19634,0.41472 4.57753,1.85741 9.4795,2.88498 14.31361,3.8608 4.46918,0.8999 9.08707,0.67712 13.42539,2.17075 0.25636,0.14779 0.51272,0.29557 0.76907,0.44335 0,0 -12.57791,8.2107 -12.57791,8.2107 l 0,0 c -0.18303,-0.0922 -0.36606,-0.18435 -0.5491,-0.27653 -4.22973,-1.39728 -8.77873,-1.14475 -13.09547,-2.18162 -4.95694,-1.06611 -9.99846,-2.05048 -14.69452,-4.00544 -0.52221,-0.28576 -1.09719,-0.49123 -1.56663,-0.85727 -2.17144,-1.69319 -1.26951,-4.38215 -0.25528,-6.42205 2.19712,-4.09364 4.40717,-8.18843 6.91319,-12.10217 2.42505,-4.06784 5.36724,-7.85404 7.03641,-12.32826 1.79792,-3.81677 3.18432,-7.743 4.37186,-11.78618 1.2521,-3.53592 1.41362,-7.15531 1.23357,-10.88244 -0.008,-2.88998 -0.0123,-5.77988 -0.0266,-8.6698 -0.0147,-2.02005 0.0113,-4.0421 -0.10539,-6.05981 -0.16681,-2.14274 -0.5287,-4.251 -1.2443,-6.28653 -0.24845,-0.84337 -0.63116,-2.05003 -0.76348,-2.90688 -0.35009,-2.26709 -0.27156,-4.61802 -1.00954,-6.82731 -1.15919,-4.09296 -2.95224,-7.95438 -4.21064,-12.0157 -1.52967,-4.03759 -3.06535,-8.04719 -3.44896,-12.39672 -0.56747,-4.12579 -0.16009,-8.31297 -0.29775,-12.46916 0.005,-3.34937 -0.0281,-6.70648 0.23814,-10.04769 0.047,-0.39072 0.20887,-1.89785 0.29653,-1.95452 4.80585,-3.1067 11.15377,-11.92779 15.1132,-6.29033 0.5952,1.72238 0.05,3.34013 -0.37331,5.05526 -0.0227,2.0109 -0.0729,4.02293 -0.0113,6.03352 0.1158,1.82056 0.27211,3.65424 1.86918,4.81119 2.93284,1.51378 6.44472,1.48253 9.62957,2.10719 4.7346,0.78519 9.43746,1.74623 14.19503,2.38752 3.46265,0.70051 6.91221,1.38791 10.42083,1.81941 1.97607,0.27504 3.94414,0.62366 5.92379,0.82944 2.02609,-0.002 4.0522,-0.006 6.07825,-0.0202 2.0333,-0.0143 4.06725,-0.047 6.10029,0.002 1.88507,0.0891 3.869,0.15068 5.25725,1.60602 1.30337,2.09864 0.48114,3.8985 -0.19288,6.09472 -0.1758,0.58751 -0.61487,1.9616 -0.67775,2.56191 -0.2329,2.22364 0.17114,4.51535 -0.0705,6.74358 -0.11447,3.98995 -0.35587,7.98542 -1.06678,11.92 -0.42609,2.25762 -0.99568,4.51741 -1.32475,6.79077 -0.40385,2.78991 -0.49734,5.63195 -1.12928,8.39162 -1.34253,7.00139 -2.91318,13.96365 -4.57169,20.89525 -2.08842,8.86848 -4.94842,17.53923 -7.10845,26.39295 -2.99106,10.61282 -5.68783,21.30565 -8.69501,31.91482 -3.20846,10.33233 -5.96969,20.79875 -9.56919,31.00771 -3.20228,8.19548 -6.28463,16.44743 -9.87058,24.48518 -2.62547,5.45965 -5.41305,10.837 -8.13109,16.25061 -1.07127,2.04327 -2.04274,4.19535 -3.25782,6.15902 -1.56484,2.52893 -0.69759,0.66426 -2.0572,3.1119 -0.26697,0.48062 -0.48529,0.98668 -0.72794,1.48002 -0.26064,0.34369 -0.52837,0.68211 -0.78193,1.03106 -0.20739,0.28541 -0.30055,0.68587 -0.60056,0.87152 -6.68634,4.13748 -9.84144,9.13456 -16.3045,7.667 -2.12836,-0.62559 -4.19464,-1.55795 -6.01425,-2.83098 -1.25537,-1.10831 -2.24316,-2.33572 -3.38143,-3.55796 -0.99948,-1.07321 -2.12094,-2.02877 -3.11493,-3.10706 -0.55063,-0.59733 -1.04449,-1.2446 -1.56673,-1.8669 -3.14942,-4.06021 -6.38175,-8.06758 -9.29197,-12.30309 -3.27109,-5.61006 -6.05487,-11.48049 -9.22275,-17.1483 -3.35375,-5.74444 -6.44285,-11.63415 -8.75407,-17.88663 -2.64965,-6.06854 -4.81119,-12.33844 -6.7695,-18.66126 -2.17935,-8.54609 -4.23454,-17.14542 -5.67582,-25.8496 -0.64406,-3.2208 -1.36536,-6.42699 -1.93715,-9.6614 -1.23368,-6.97851 -1.77811,-14.06694 -3.14265,-21.02662 -0.78162,-5.50074 -1.76571,-10.95895 -2.60574,-16.44925 -1.12816,-7.37342 -0.35231,-3.28087 -1.35111,-10.56584 -0.23805,-1.73628 -0.53566,-3.46386 -0.80349,-5.19579 -1.79535,-9.46876 -3.7674,-18.91099 -6.00017,-28.28579 -1.54091,-6.54775 -3.15054,-13.10342 -5.1524,-19.52372 -1.24962,-3.21607 -2.05974,-6.54608 -3.25531,-9.78133 -0.7413,-1.79917 -1.4464,-3.66271 -2.67963,-5.19092 -1.35822,-1.22237 -2.73456,-0.91513 -4.48166,-0.90412 -2.21994,0.0269 -4.45036,0.0575 -6.64793,0.40689 -1.98885,0.41955 -3.87247,1.15425 -5.82522,1.70901 -3.44421,1.02108 -6.97595,1.75464 -10.31782,3.11218 -5.99376,2.07141 -12.00044,4.10814 -18.03383,6.0626 -7.59293,2.32254 -15.2216,4.59276 -22.5987,7.54442 -3.59532,1.42502 -7.11644,2.88365 -10.5833,4.60123 -1.01484,0.50279 -3.99372,2.13093 -3.03375,1.52996 4.08878,-2.5597 14.72108,-8.55085 7.51635,-4.47883 -3.13319,2.35481 -6.66481,4.31249 -9.11942,7.42685 -1.04468,1.83681 -1.02418,3.57283 0.29746,5.29544 0.85251,0.97869 1.81661,1.71957 2.74663,2.61546 1.12639,1.08505 2.01131,2.416 3.29353,3.34444 2.97795,2.50943 5.42004,5.54635 8.29489,8.1704 2.06004,1.97041 4.42028,3.76623 5.70883,6.37553 0.93621,2.00211 1.82202,4.02325 1.63713,6.29496 -0.098,2.31393 -0.35487,4.61266 -1.33732,6.74458 -1.85723,3.98229 -3.76504,7.97092 -6.63129,11.34973 -3.07432,4.45933 -5.85014,9.12421 -8.62304,13.77435 -2.83771,4.2139 -5.48021,8.59326 -7.7519,13.13991 -1.63919,3.01535 -2.69944,6.2006 -3.40478,9.55282 -0.57822,2.04548 -0.90212,4.17761 -0.44934,6.28645 0.7365,1.54938 4.07416,-0.45058 5.12755,-0.51933 5.54425,-1.69696 10.68301,-4.34992 16.09379,-6.40373 6.33054,-2.34283 12.67112,-4.66894 18.90436,-7.26192 3.98059,-1.82737 8.03706,-3.47812 11.9432,-5.46528 -3.93596,2.30568 -7.89727,4.56861 -11.80788,6.91702 -0.26149,0.15703 0.58566,-0.18608 0.85073,-0.33698 0.85067,-0.48424 1.33907,-1.29383 1.84374,-2.08968 0.41466,-1.85773 0.0804,-3.8127 0.12448,-5.70343 -0.10329,-2.01167 -0.3244,-4.01277 -0.93065,-5.94462 -0.98014,-3.55416 -1.50595,-7.21024 -1.96899,-10.86462 0.0112,-4.78483 0.0188,-9.56967 0.0338,-14.35448 0.0295,-6.61802 0.0717,-13.23595 0.11223,-19.85393 0.021,-7.66811 0.0468,-15.33903 0.45623,-22.99867 0.42102,-5.87705 1.4265,-11.68402 1.79809,-17.55844 0.23587,-3.94445 0.71504,-7.84213 1.64182,-11.69074 -0.0285,-2.25687 0.0824,-4.58065 -0.39344,-6.79567 -0.29575,-0.33749 -0.90104,0.20161 -0.79756,0.14116 21.61154,-12.62464 14.5601,-8.78256 10.20454,-5.82195 -0.35763,0.28419 -0.68031,0.61901 -1.07289,0.85255 -4.6458,2.7638 -9.34119,5.44355 -14.03065,8.1326 -1.02294,0.58657 -2.05136,1.01237 -3.10548,1.53914 -0.54322,0.27146 -2.13729,1.15283 -1.61509,0.84286 3.66052,-2.17286 7.35472,-4.28848 11.03208,-6.43271 -4.76702,2.75308 -9.50573,5.55576 -14.30105,8.25924 -3.72775,2.10161 7.39483,-4.30907 11.09811,-6.4535 0.55524,-0.32152 -1.10544,0.65175 -1.65389,0.98472 -0.54645,0.33176 -1.07914,0.68621 -1.63069,1.00941 -14.15907,8.29699 -9.49917,5.88832 -15.97963,9.18428 -1.04883,0.5236 -4.12817,2.22172 -3.11667,1.62919 3.72114,-2.17985 14.93713,-8.62893 11.19116,-6.49201 -5.74993,3.28009 -11.30573,6.89771 -17.27663,9.75901 -3.46971,1.59415 -6.84089,3.38973 -10.33881,4.91371 0,0 11.78859,-9.2287 11.78859,-9.2287 z" />
    <rect
       style="fill:#32c6b0;fill-opacity:1;stroke:#000000;stroke-width:0.25000000000000000;stroke-linecap:square;stroke-miterlimit:4;stroke-opacity:1;stroke-dasharray:none"
       id="rect2836"
       width="34.345188"
       height="194.95944"
       x="183.84776"
       y="452.33157" />
    <path
       sodipodi:type="arc"
       style="fill:#bb4820;fill-opacity:1;stroke:#000000;stroke-width:0.25000000000000000;stroke-linecap:square;stroke-miterlimit:4;stroke-opacity:1;stroke-dasharray:none"
       id="path3613"
       sodipodi:cx="445.98236"
       sodipodi:cy="571.02448"
       sodipodi:rx="24.748737"
       sodipodi:ry="32.829956"
       d="m 470.7311,571.02448 a 24.748737,32.829956 0 1 1 -49.49748,0 24.748737,32.829956 0 1 1 49.49748,0 z" />
    <g
       sodipodi:type="inkscape:box3d"
       style="fill:#bb29b9;fill-opacity:1;stroke:#000000;stroke-width:0.25000000000000000;stroke-linecap:square;stroke-miterlimit:4;stroke-opacity:1;stroke-dasharray:none"
       id="g3615"
       inkscape:perspectiveID="#perspective10"
       inkscape:corner0="0.35407344 : 0.44910461 : 0 : 1"
       inkscape:corner7="0.19580513 : 0.3977853 : 0.25 : 1">
      <path
         sodipodi:type="inkscape:box3dside"
         id="path3627"
         style="fill:#bb29b9;fill-rule:evenodd;stroke:none;fill-opacity:1"
         inkscape:box3dsidetype="11"
         d="m 347.90855,355.54619 38.08459,-18.67893 0,35.49532 -38.08459,15.17673 z" />
      <path
         sodipodi:type="inkscape:box3dside"
         id="path3617"
         style="fill:#bb29b9;fill-rule:evenodd;stroke:none;fill-opacity:1"
         inkscape:box3dsidetype="6"
         d="m 274.76149,324.0422 0,37.89994 73.14706,25.59717 0,-31.99312 z" />
      <path
         sodipodi:type="inkscape:box3dside"
         id="path3619"
         style="fill:#bb29b9;fill-rule:evenodd;stroke:none;fill-opacity:1"
         inkscape:box3dsidetype="5"
         d="m 274.76149,324.0422 36.36549,-26.75368 74.86616,39.57874 -38.08459,18.67893 z" />
      <path
         sodipodi:type="inkscape:box3dside"
         id="path3625"
         style="fill:#bb29b9;fill-rule:evenodd;stroke:none;fill-opacity:1"
         inkscape:box3dsidetype="13"
         d="m 274.76149,361.94214 36.36549,-21.7375 74.86616,32.15794 -38.08459,15.17673 z" />
      <path
         sodipodi:type="inkscape:box3dside"
         id="path3623"
         style="fill:#bb29b9;fill-rule:evenodd;stroke:none;fill-opacity:1"
         inkscape:box3dsidetype="14"
         d="m 311.12698,297.28852 0,42.91612 74.86616,32.15794 0,-35.49532 z" />
      <path
         sodipodi:type="inkscape:box3dside"
         id="path3621"
         style="fill:#bb29b9;fill-rule:evenodd;stroke:none;fill-opacity:1"
         inkscape:box3dsidetype="3"
         d="m 274.76149,324.0422 36.36549,-26.75368 0,42.91612 -36.36549,21.7375 z" />
    </g>
    <path
       sodipodi:type="star"
       style="fill:#917c6f;fill-opacity:1;stroke:#000000;stroke-width:0.25000000000000000;stroke-linecap:square;stroke-miterlimit:4;stroke-opacity:1;stroke-dasharray:none"
       id="path3629"
       sodipodi:sides="5"
       sodipodi:cx="255.56859"
       sodipodi:cy="591.73262"
       sodipodi:r1="50.759537"
       sodipodi:r2="25.379769"
       sodipodi:arg1="-0.54383246"
       sodipodi:arg2="0.084486074"
       inkscape:flatsided="false"
       inkscape:rounded="0"
       inkscape:randomized="0"
       d="m 299.00515,565.46864 -18.14732,28.40565 13.11191,31.05293 -32.62321,-8.4813 -25.48128,22.06605 -2.01494,-33.64738 -28.86021,-17.41536 31.37791,-12.31393 7.6447,-32.82933 21.40755,26.03695 33.58489,-2.87428 z" />
    <rect
       style="fill:#917c6f;fill-opacity:1;stroke:#000000;stroke-width:0.25;stroke-linecap:square;stroke-miterlimit:4;stroke-opacity:1;stroke-dasharray:none"
       id="rect3631"
       width="154.55334"
       height="39.39595"
       x="543.4621"
       y="459.40265" />
    <rect
       style="fill:#917c6f;fill-opacity:1;stroke:#000000;stroke-width:0.25;stroke-linecap:square;stroke-miterlimit:4;stroke-opacity:1;stroke-dasharray:none"
       id="rect3633"
       width="45.456863"
       height="104.04572"
       x="543.4621"
       y="361.41782" />
    <flowRoot
       xml:space="preserve"
       id="flowRoot3637"
       style="font-size:20px;font-style:normal;font-weight:normal;fill:#000000;fill-opacity:1;stroke:none;font-family:Bitstream Vera Sans"
       transform="translate(-8.0812204,3.0304576)"><flowRegion
         id="flowRegion3639"><rect
           id="rect3641"
           width="130.30968"
           height="48.487324"
           x="603.0611"
           y="400.81378" /></flowRegion><flowPara
         id="flowPara3643">city goes here</flowPara><flowPara
         id="flowPara3645" /></flowRoot>    <path
       sodipodi:type="spiral"
       style="fill:#ff9955;stroke:#0000c3;stroke-width:1px;stroke-linecap:butt;stroke-linejoin:miter;stroke-opacity:1"
       id="path3647"
       sodipodi:cx="587.90875"
       sodipodi:cy="545.26562"
       sodipodi:expansion="4.29"
       sodipodi:revolution="14.4"
       sodipodi:radius="37.046577"
       sodipodi:argument="-17.730213"
       sodipodi:t0="0"
       d="m 587.90875,545.26562 c 0,10e-6 0,10e-6 0,10e-6 -1e-5,0 -1e-5,-2e-5 -1e-5,-2e-5 1e-5,-5e-5 8e-5,-5e-5 1.2e-4,-4e-5 1.6e-4,7e-5 1.3e-4,2.9e-4 7e-5,4.1e-4 -2.3e-4,4e-4 -8e-4,3.2e-4 -0.001,10e-5 -8.2e-4,-5.9e-4 -6.2e-4,-0.002 -6e-5,-0.002 0.001,-0.002 0.004,-0.001 0.005,1.2e-4 0.003,0.002 0.002,0.007 -5.5e-4,0.009 -0.004,0.004 -0.0112,0.003 -0.015,-0.001 -0.006,-0.007 -0.004,-0.018 0.003,-0.0239 0.0109,-0.01 0.0276,-0.006 0.0363,0.005 0.0136,0.0163 0.008,0.0406 -0.008,0.0531 -0.0236,0.0189 -0.058,0.01 -0.0755,-0.0126 -0.0256,-0.0331 -0.0131,-0.0805 0.0187,-0.10443 0.0452,-0.034 0.1093,-0.0167 0.1412,0.0269 0.0443,0.0605 0.0211,0.1454 -0.0374,0.1872 -0.0795,0.0568 -0.19002,0.0262 -0.24391,-0.0508 -0.072,-0.10281 -0.0321,-0.24449 0.0675,-0.31297 0.13098,-0.09 0.31022,-0.039 0.39612,0.0882 0.1113,0.16472 0.0468,0.38874 -0.11325,0.49526 -0.20475,0.13626 -0.48168,0.0558 -0.61242,-0.14342 -0.16528,-0.25184 -0.0659,-0.59081 0.17936,-0.74975 0.30682,-0.19882 0.718,-0.0773 0.90958,0.22178 0.23733,0.37056 0.0901,0.86521 -0.27147,1.09432 -0.44399,0.28131 -1.03454,0.10442 -1.30657,-0.32921 -0.33128,-0.52809 -0.12029,-1.22824 0.39589,-1.54907 0.62389,-0.38777 1.44862,-0.13786 1.82469,0.47242 0.45137,0.73249 0.15725,1.69815 -0.55977,2.13646 -0.85501,0.52267 -1.97941,0.17856 -2.48756,-0.65896 -0.60228,-0.99267 -0.20191,-2.29511 0.77106,-2.8813 1.14672,-0.69088 2.64808,-0.22745 3.32119,0.89718 0.78912,1.31846 0.25528,3.04128 -1.03851,3.81084 -1.50926,0.89772 -3.47781,0.28554 -4.35406,-1.19626 -1.01743,-1.72057 -0.31837,-3.96088 1.37173,-4.95479 1.95384,-1.14901 4.49382,-0.35391 5.61714,1.56624 1.29324,2.21062 0.3923,5.08014 -1.78119,6.34538 -2.49253,1.45096 -5.72343,0.43368 -7.14395,-2.01803 -1.62301,-2.80121 -0.4782,-6.42744 2.27826,-8.01743 3.13839,-1.81028 7.19606,-0.52601 8.97058,2.56344 2.01368,3.50584 0.57729,8.0333 -2.87517,10.00833 -3.90543,2.23415 -8.94332,0.63217 -11.13577,-3.21514 -2.47267,-4.33904 -0.69085,-9.93041 3.58507,-12.35817 4.80864,-2.73023 10.99899,-0.75346 13.68094,3.98676 3.00787,5.31627 0.82019,12.15365 -4.42204,15.1097 -5.86402,3.30665 -13.3991,0.89122 -16.6502,-4.89284 -3.62768,-6.45402 -0.96674,-14.74017 5.4011,-18.3084 7.08852,-3.97206 16.18189,-1.04691 20.09041,5.94886 4.34097,7.76979 1.13193,17.72939 -6.5382,22.00254 -8.50018,4.73558 -19.38795,1.22199 -24.05125,-7.17127 -5.15713,-9.28209 -1.31728,-21.163 7.85028,-26.24318 10.11802,-5.60686 23.06013,-1.41802 28.58517,8.57749 6.08606,11.01049 1.52439,25.08506 -9.35523,31.08421 -11.96213,6.59605 -27.24367,1.63661 -33.74751,-10.18589 -7.13818,-12.9756 -1.75489,-29.54198 11.07194,-36.58242 14.05365,-7.71384 31.98615,-1.87945 39.5965,12.01587 8.32441,15.1991 2.01049,34.58253 -13.0203,42.79748 -16.4148,8.97139 -37.33757,2.14826 -46.19328,-14.08783 -5.51806,-10.11682 -5.73432,-22.53576 -0.79889,-32.92095"
       transform="translate(-32.324881,27.274119)" />
    <flowRoot
       xml:space="preserve"
       id="flowRoot3649"
       style="fill:black;stroke:none;stroke-opacity:1;stroke-width:1px;stroke-linejoin:miter;stroke-linecap:butt;fill-opacity:1;font-family:Bitstream Vera Sans;font-style:normal;font-weight:normal;font-size:20"><flowRegion
         id="flowRegion3651"><rect
           id="rect3653"
           width="296.98486"
           height="171.72594"
           x="439.41635"
           y="710.9306" /></flowRegion><flowPara
         id="flowPara3655"></flowPara></flowRoot>    <text
       xml:space="preserve"
       style="font-size:20px;font-style:normal;font-weight:normal;fill:#000000;fill-opacity:1;stroke:none;font-family:Bitstream Vera Sans"
       x="566.69556"
       y="777.60071"
       id="text3657"><tspan
         sodipodi:role="line"
         id="tspan3659"
         x="566.69556"
         y="777.60071">this does not</tspan><tspan
         sodipodi:role="line"
         x="566.69556"
         y="802.60071"
         id="tspan3661">do it justice.</tspan></text>
  </g>
</svg>
