<?xml version="1.0" encoding="UTF-8" standalone="no"?>
<!-- Created with Inkscape (http://www.inkscape.org/) -->

<svg
   xmlns:dc="http://purl.org/dc/elements/1.1/"
   xmlns:cc="http://creativecommons.org/ns#"
   xmlns:rdf="http://www.w3.org/1999/02/22-rdf-syntax-ns#"
   xmlns:svg="http://www.w3.org/2000/svg"
   xmlns="http://www.w3.org/2000/svg"
   version="1.2"
   width="15320.945"
   height="12714.211"
   id="svg2">
  <defs
     id="defs4" />
  <metadata
     id="metadata7">
    <rdf:RDF>
      <cc:Work
         rdf:about="">
        <dc:format>image/svg+xml</dc:format>
        <dc:type
           rdf:resource="http://purl.org/dc/dcmitype/StillImage" />
        <dc:title></dc:title>
      </cc:Work>
    </rdf:RDF>
  </metadata>
  <rect
     width="702.4715"
     height="1023.0313"
     x="3807.3972"
     y="2086.3687"
     id="rect2985"
     style="fill:#ffffff;fill-opacity:1;fill-rule:evenodd;stroke:#000000;stroke-width:7.63899994;stroke-miterlimit:4;stroke-opacity:1;stroke-dasharray:none" />
  <path
     d="m 3958.836,2175.3894 a 60.609156,60.609156 0 1 1 -121.2183,0 60.609156,60.609156 0 1 1 121.2183,0 z"
     id="path3755"
     style="fill:#000000;fill-opacity:1;fill-rule:evenodd;stroke:none" />
  <path
     d="m 3914.6419,2160.9947 -226.2742,-185.868 -737.4114,0"
     id="path3759"
     style="fill:none;stroke:#000000;stroke-width:77;stroke-linecap:butt;stroke-linejoin:miter;stroke-miterlimit:4;stroke-opacity:1;stroke-dasharray:none" />
  <flowRoot
     transform="translate(3785.0898,316.92551)"
     id="flowRoot3761"
     xml:space="preserve"
     style="font-size:4px;font-style:normal;font-weight:normal;line-height:125%;letter-spacing:0px;word-spacing:0px;fill:#000000;fill-opacity:1;stroke:none;font-family:Sans"><flowRegion
       id="flowRegion3763"><rect
         width="549.52301"
         height="94.954338"
         x="-684.88342"
         y="-244.67369"
         id="rect3765" /></flowRegion><flowPara
       id="flowPara3767" /></flowRoot>  <text
     x="3160.8169"
     y="1917.964"
     id="text3495"
     xml:space="preserve"
     style="font-size:4px;font-style:normal;font-weight:normal;line-height:125%;letter-spacing:0px;word-spacing:0px;fill:#000000;fill-opacity:1;stroke:none;font-family:Sans"><tspan
       x="3160.8169"
       y="1917.964"
       id="tspan3497"><tspan
         x="3160.8169"
         y="1917.964"
         id="tspan3499"
         style="font-size:64px">fooSlot</tspan></tspan></text>
  <rect
     width="702.4715"
     height="1023.0313"
     x="53.11153"
     y="332.74377"
     id="rect3777"
     style="fill:#ffffff;fill-opacity:1;fill-rule:evenodd;stroke:#000000;stroke-width:7.63899994;stroke-miterlimit:4;stroke-opacity:1;stroke-dasharray:none" />
  <path
     d="m 204.55032,421.7646 a 60.609156,60.609156 0 1 1 -121.218311,0 60.609156,60.609156 0 1 1 121.218311,0 z"
     id="path3779"
     style="fill:#ffffff;fill-opacity:1;fill-rule:evenodd;stroke:#000000;stroke-width:15.89999962;stroke-miterlimit:4;stroke-opacity:1;stroke-dasharray:none" />
  <text
     x="6.5313001"
     y="58.625008"
     id="text3475"
     xml:space="preserve"
     style="font-size:4px;font-style:normal;font-weight:normal;line-height:125%;letter-spacing:0px;word-spacing:0px;fill:#000000;fill-opacity:1;stroke:none;font-family:Sans"><tspan
       x="6.5313001"
       y="58.625008"
       id="tspan3477"><tspan
         x="6.5313001"
         y="58.625008"
         id="tspan3479"
         style="font-size:64px">(unnamed slot with 0 or </tspan></tspan><tspan
       x="6.5313001"
       y="138.625"
       id="tspan3481"><tspan
         x="6.5313001"
         y="138.625"
         id="tspan3483"
         style="font-size:64px">more statements (here </tspan></tspan><tspan
       x="6.5313001"
       y="218.625"
       id="tspan3485"><tspan
         x="6.5313001"
         y="218.625"
         id="tspan3487"
         style="font-size:64px">seen with 0 statements))</tspan></tspan></text>
  <rect
     width="702.4715"
     height="1023.0313"
     x="5580.0146"
     y="2574.46"
     id="rect3799"
     style="fill:#ffffff;fill-opacity:1;fill-rule:evenodd;stroke:#000000;stroke-width:7.63899994;stroke-miterlimit:4;stroke-opacity:1;stroke-dasharray:none" />
  <path
     d="m 5731.4532,2663.4808 a 60.609156,60.609156 0 1 1 -121.2183,0 60.609156,60.609156 0 1 1 121.2183,0 z"
     id="path3801"
     style="fill:#000000;fill-opacity:1;fill-rule:evenodd;stroke:none" />
  <path
     d="m 5675.8305,2646.229 -242.6414,-185.868 -790.7512,0"
     id="path3803"
     style="fill:none;stroke:#000000;stroke-width:79.73623657;stroke-linecap:butt;stroke-linejoin:miter;stroke-miterlimit:4;stroke-opacity:1;stroke-dasharray:none" />
  <text
     x="4922.0059"
     y="2403.1982"
     id="text3501"
     xml:space="preserve"
     style="font-size:4px;font-style:normal;font-weight:normal;line-height:125%;letter-spacing:0px;word-spacing:0px;fill:#000000;fill-opacity:1;stroke:none;font-family:Sans"><tspan
       x="4922.0059"
       y="2403.1982"
       id="tspan3503"><tspan
         x="4922.0059"
         y="2403.1982"
         id="tspan3505"
         style="font-size:64px">barSlotItnvoke</tspan></tspan></text>
  <path
     d="m 2613.6612,1984.3411 a 128.57143,150 0 1 1 -257.1428,0 128.57143,150 0 1 1 257.1428,0 z"
     id="path3825"
     style="fill:#ffffff;fill-opacity:1;fill-rule:evenodd;stroke:#000000;stroke-width:15.89999962;stroke-miterlimit:4;stroke-opacity:1;stroke-dasharray:none" />
  <path
     d="m 2482.2327,2137.1982 8.5714,631.4286"
     id="path3827"
     style="fill:none;stroke:#000000;stroke-width:1px;stroke-linecap:butt;stroke-linejoin:miter;stroke-opacity:1" />
  <path
     d="m 2490.8041,2402.9125 c 11.4286,0 257.1428,-222.8571 257.1428,-222.8571"
     id="path3829"
     style="fill:none;stroke:#000000;stroke-width:1px;stroke-linecap:butt;stroke-linejoin:miter;stroke-opacity:1" />
  <path
     d="m 2225.0899,2180.0554 c 11.4286,0 257.1428,222.8571 257.1428,222.8571"
     id="path3831"
     style="fill:none;stroke:#000000;stroke-width:1px;stroke-linecap:butt;stroke-linejoin:miter;stroke-opacity:1" />
  <path
     d="m 2493.6612,2760.0554 -188.5714,348.5714"
     id="path3833"
     style="fill:none;stroke:#000000;stroke-width:1px;stroke-linecap:butt;stroke-linejoin:miter;stroke-opacity:1" />
  <path
     d="M 2682.2327,3105.7697 2493.6613,2757.1982"
     id="path3835"
     style="fill:none;stroke:#000000;stroke-width:1px;stroke-linecap:butt;stroke-linejoin:miter;stroke-opacity:1" />
  <path
     d="m 901.69312,567.47889 a 60.609156,60.609156 0 1 1 -121.21831,0 60.609156,60.609156 0 1 1 121.21831,0 z"
     id="path3837"
     style="fill:#000000;fill-opacity:1;fill-rule:evenodd;stroke:none" />
  <rect
     width="154.28572"
     height="74.285713"
     x="667.94696"
     y="529.28772"
     id="rect3839"
     style="fill:#000000;fill-opacity:1;fill-rule:evenodd;stroke:none" />
  <path
     d="m 4693.8058,2294.8397 a 60.609156,60.609156 0 1 1 -121.2183,0 60.609156,60.609156 0 1 1 121.2183,0 z"
     id="path3841"
     style="fill:#000000;fill-opacity:1;fill-rule:evenodd;stroke:none" />
  <rect
     width="154.28572"
     height="74.285713"
     x="4460.0596"
     y="2256.6484"
     id="rect3843"
     style="fill:#000000;fill-opacity:1;fill-rule:evenodd;stroke:none" />
  <path
     d="m 4695.8261,2458.4844 a 60.609156,60.609156 0 1 1 -121.2183,0 60.609156,60.609156 0 1 1 121.2183,0 z"
     id="path3845"
     style="fill:#000000;fill-opacity:1;fill-rule:evenodd;stroke:none" />
  <rect
     width="154.28572"
     height="74.285713"
     x="4462.0801"
     y="2420.2932"
     id="rect3847"
     style="fill:#000000;fill-opacity:1;fill-rule:evenodd;stroke:none" />
  <path
     d="m 4695.8261,2616.0682 a 60.609156,60.609156 0 1 1 -121.2183,0 60.609156,60.609156 0 1 1 121.2183,0 z"
     id="path3849"
     style="fill:#000000;fill-opacity:1;fill-rule:evenodd;stroke:none" />
  <rect
     width="154.28572"
     height="74.285713"
     x="4462.0801"
     y="2577.877"
     id="rect3851"
     style="fill:#000000;fill-opacity:1;fill-rule:evenodd;stroke:none" />
  <rect
     width="702.4715"
     height="1023.0313"
     x="3807.3972"
     y="4260.2168"
     id="rect3855"
     style="fill:#ffffff;fill-opacity:1;fill-rule:evenodd;stroke:#000000;stroke-width:7.63899994;stroke-miterlimit:4;stroke-opacity:1;stroke-dasharray:none" />
  <path
     d="m 3958.836,4349.2377 a 60.609156,60.609156 0 1 1 -121.2183,0 60.609156,60.609156 0 1 1 121.2183,0 z"
     id="path3857"
     style="fill:#000000;fill-opacity:1;fill-rule:evenodd;stroke:none" />
  <path
     d="m 3914.6419,4334.843 -226.2742,-185.868 -737.4114,0"
     id="path3859"
     style="fill:none;stroke:#000000;stroke-width:77;stroke-linecap:butt;stroke-linejoin:miter;stroke-miterlimit:4;stroke-opacity:1;stroke-dasharray:none" />
  <text
     x="3160.8169"
     y="4091.8123"
     id="text3513"
     xml:space="preserve"
     style="font-size:4px;font-style:normal;font-weight:normal;line-height:125%;letter-spacing:0px;word-spacing:0px;fill:#000000;fill-opacity:1;stroke:none;font-family:Sans"><tspan
       x="3160.8169"
       y="4091.8123"
       id="tspan3515"><tspan
         x="3160.8169"
         y="4091.8123"
         id="tspan3517"
         style="font-size:64px">fooSlot</tspan></tspan></text>
  <path
     d="m 2613.6612,4158.1894 a 128.57143,150 0 1 1 -257.1428,0 128.57143,150 0 1 1 257.1428,0 z"
     id="path3883"
     style="fill:#ffffff;fill-opacity:1;fill-rule:evenodd;stroke:#000000;stroke-width:15.89999962;stroke-miterlimit:4;stroke-opacity:1;stroke-dasharray:none" />
  <path
     d="m 2482.2327,4311.0465 8.5714,631.4286"
     id="path3885"
     style="fill:none;stroke:#000000;stroke-width:1px;stroke-linecap:butt;stroke-linejoin:miter;stroke-opacity:1" />
  <path
     d="m 2490.8041,4576.7608 c 11.4286,0 257.1428,-222.8571 257.1428,-222.8571"
     id="path3887"
     style="fill:none;stroke:#000000;stroke-width:1px;stroke-linecap:butt;stroke-linejoin:miter;stroke-opacity:1" />
  <path
     d="m 2225.0899,4353.9037 c 11.4286,0 257.1428,222.8571 257.1428,222.8571"
     id="path3889"
     style="fill:none;stroke:#000000;stroke-width:1px;stroke-linecap:butt;stroke-linejoin:miter;stroke-opacity:1" />
  <path
     d="m 2493.6612,4933.9037 -188.5714,348.5714"
     id="path3891"
     style="fill:none;stroke:#000000;stroke-width:1px;stroke-linecap:butt;stroke-linejoin:miter;stroke-opacity:1" />
  <path
     d="M 2682.2327,5279.618 2493.6613,4931.0465"
     id="path3893"
     style="fill:none;stroke:#000000;stroke-width:1px;stroke-linecap:butt;stroke-linejoin:miter;stroke-opacity:1" />
  <path
     d="m 4693.8058,4468.688 a 60.609156,60.609156 0 1 1 -121.2183,0 60.609156,60.609156 0 1 1 121.2183,0 z"
     id="path3895"
     style="fill:#000000;fill-opacity:1;fill-rule:evenodd;stroke:none" />
  <rect
     width="154.28572"
     height="74.285713"
     x="4460.0596"
     y="4430.4966"
     id="rect3897"
     style="fill:#000000;fill-opacity:1;fill-rule:evenodd;stroke:none" />
  <path
     d="m 5691.777,4632.3327 a 60.609156,60.609156 0 1 1 -121.2183,0 60.609156,60.609156 0 1 1 121.2183,0 z"
     id="path3899"
     style="fill:none;stroke:#000000;stroke-width:21.5;stroke-miterlimit:4;stroke-opacity:1;stroke-dasharray:none" />
  <rect
     width="1111.91"
     height="74.285713"
     x="4466.1206"
     y="4594.1411"
     id="rect3901"
     style="fill:#000000;fill-opacity:1;fill-rule:evenodd;stroke:none" />
  <path
     d="m 4695.8261,4789.9165 a 60.609156,60.609156 0 1 1 -121.2183,0 60.609156,60.609156 0 1 1 121.2183,0 z"
     id="path3903"
     style="fill:#000000;fill-opacity:1;fill-rule:evenodd;stroke:none" />
  <rect
     width="154.28572"
     height="74.285713"
     x="4462.0801"
     y="4751.7251"
     id="rect3905"
     style="fill:#000000;fill-opacity:1;fill-rule:evenodd;stroke:none" />
  <text
     x="4929.3882"
     y="4580.3838"
     id="text3519"
     xml:space="preserve"
     style="font-size:4px;font-style:normal;font-weight:normal;line-height:125%;letter-spacing:0px;word-spacing:0px;fill:#000000;fill-opacity:1;stroke:none;font-family:Sans"><tspan
       x="4929.3882"
       y="4580.3838"
       id="tspan3521"><tspan
         x="4929.3882"
         y="4580.3838"
         id="tspan3523"
         style="font-size:64px">fooSignal</tspan></tspan></text>
  <text
     x="2717.7808"
     y="1563.7522"
     id="text3489"
     xml:space="preserve"
     style="font-size:4px;font-style:normal;font-weight:normal;line-height:125%;letter-spacing:0px;word-spacing:0px;fill:#000000;fill-opacity:1;stroke:none;font-family:Sans"><tspan
       x="2717.7808"
       y="1563.7522"
       id="tspan3491"><tspan
         x="2717.7808"
         y="1563.7522"
         id="tspan3493"
         style="font-size:64px">regular slot invoke</tspan></tspan></text>
  <text
     x="2717.7808"
     y="3786.6094"
     id="text3507"
     xml:space="preserve"
     style="font-size:4px;font-style:normal;font-weight:normal;line-height:125%;letter-spacing:0px;word-spacing:0px;fill:#000000;fill-opacity:1;stroke:none;font-family:Sans"><tspan
       x="2717.7808"
       y="3786.6094"
       id="tspan3509"><tspan
         x="2717.7808"
         y="3786.6094"
         id="tspan3511"
         style="font-size:64px">signal with no listeners</tspan></tspan></text>
  <rect
     width="702.4715"
     height="1023.0313"
     x="3807.3972"
     y="6237.3594"
     id="rect3933"
     style="fill:#ffffff;fill-opacity:1;fill-rule:evenodd;stroke:#000000;stroke-width:7.63899994;stroke-miterlimit:4;stroke-opacity:1;stroke-dasharray:none" />
  <path
     d="m 3958.836,6326.3805 a 60.609156,60.609156 0 1 1 -121.2183,0 60.609156,60.609156 0 1 1 121.2183,0 z"
     id="path3935"
     style="fill:#000000;fill-opacity:1;fill-rule:evenodd;stroke:none" />
  <path
     d="m 3914.6419,6311.9858 -226.2742,-185.868 -737.4114,0"
     id="path3937"
     style="fill:none;stroke:#000000;stroke-width:77;stroke-linecap:butt;stroke-linejoin:miter;stroke-miterlimit:4;stroke-opacity:1;stroke-dasharray:none" />
  <text
     x="3160.8169"
     y="6068.9551"
     id="text3531"
     xml:space="preserve"
     style="font-size:4px;font-style:normal;font-weight:normal;line-height:125%;letter-spacing:0px;word-spacing:0px;fill:#000000;fill-opacity:1;stroke:none;font-family:Sans"><tspan
       x="3160.8169"
       y="6068.9551"
       id="tspan3533"><tspan
         x="3160.8169"
         y="6068.9551"
         id="tspan3535"
         style="font-size:64px">fooSlot</tspan></tspan></text>
  <path
     d="m 2613.6612,6135.3322 a 128.57143,150 0 1 1 -257.1428,0 128.57143,150 0 1 1 257.1428,0 z"
     id="path3947"
     style="fill:#ffffff;fill-opacity:1;fill-rule:evenodd;stroke:#000000;stroke-width:15.89999962;stroke-miterlimit:4;stroke-opacity:1;stroke-dasharray:none" />
  <path
     d="m 2482.2327,6288.1893 8.5714,631.4286"
     id="path3949"
     style="fill:none;stroke:#000000;stroke-width:1px;stroke-linecap:butt;stroke-linejoin:miter;stroke-opacity:1" />
  <path
     d="m 2490.8041,6553.9036 c 11.4286,0 257.1428,-222.8571 257.1428,-222.8571"
     id="path3951"
     style="fill:none;stroke:#000000;stroke-width:1px;stroke-linecap:butt;stroke-linejoin:miter;stroke-opacity:1" />
  <path
     d="m 2225.0899,6331.0465 c 11.4286,0 257.1428,222.8571 257.1428,222.8571"
     id="path3953"
     style="fill:none;stroke:#000000;stroke-width:1px;stroke-linecap:butt;stroke-linejoin:miter;stroke-opacity:1" />
  <path
     d="m 2493.6612,6911.0465 -188.5714,348.5714"
     id="path3955"
     style="fill:none;stroke:#000000;stroke-width:1px;stroke-linecap:butt;stroke-linejoin:miter;stroke-opacity:1" />
  <path
     d="M 2682.2327,7256.7608 2493.6613,6908.1893"
     id="path3957"
     style="fill:none;stroke:#000000;stroke-width:1px;stroke-linecap:butt;stroke-linejoin:miter;stroke-opacity:1" />
  <path
     d="m 5905.4128,6600.176 a 60.609156,60.609156 0 1 1 -121.2183,0 60.609156,60.609156 0 1 1 121.2183,0 z"
     id="path3959"
     style="fill:#000000;fill-opacity:1;fill-rule:evenodd;stroke:none" />
  <rect
     width="154.28572"
     height="74.285713"
     x="4460.0596"
     y="6407.6392"
     id="rect3961"
     style="fill:#000000;fill-opacity:1;fill-rule:evenodd;stroke:none" />
  <rect
     width="1111.91"
     height="74.285713"
     x="4466.1206"
     y="6571.2837"
     id="rect3965"
     style="fill:#000000;fill-opacity:1;fill-rule:evenodd;stroke:none" />
  <path
     d="m 4695.8261,6767.0593 a 60.609156,60.609156 0 1 1 -121.2183,0 60.609156,60.609156 0 1 1 121.2183,0 z"
     id="path3967"
     style="fill:#000000;fill-opacity:1;fill-rule:evenodd;stroke:none" />
  <rect
     width="154.28572"
     height="74.285713"
     x="4462.0801"
     y="6728.8677"
     id="rect3969"
     style="fill:#000000;fill-opacity:1;fill-rule:evenodd;stroke:none" />
  <text
     x="4929.3882"
     y="6557.5264"
     id="text3537"
     xml:space="preserve"
     style="font-size:4px;font-style:normal;font-weight:normal;line-height:125%;letter-spacing:0px;word-spacing:0px;fill:#000000;fill-opacity:1;stroke:none;font-family:Sans"><tspan
       x="4929.3882"
       y="6557.5264"
       id="tspan3539"><tspan
         x="4929.3882"
         y="6557.5264"
         id="tspan3541"
         style="font-size:64px">fooSignal</tspan></tspan></text>
  <text
     x="2717.7808"
     y="5763.752"
     id="text3525"
     xml:space="preserve"
     style="font-size:4px;font-style:normal;font-weight:normal;line-height:125%;letter-spacing:0px;word-spacing:0px;fill:#000000;fill-opacity:1;stroke:none;font-family:Sans"><tspan
       x="2717.7808"
       y="5763.752"
       id="tspan3527"><tspan
         x="2717.7808"
         y="5763.752"
         id="tspan3529"
         style="font-size:64px">signal with 1 listener</tspan></tspan></text>
  <rect
     width="224.25386"
     height="420.22348"
     x="5565.9404"
     y="6538.7329"
     id="rect3987"
     style="fill:#000000;fill-opacity:1;stroke:none" />
  <path
     d="m 5905.4128,6741.5974 a 60.609156,60.609156 0 1 1 -121.2183,0 60.609156,60.609156 0 1 1 121.2183,0 z"
     id="path3989"
     style="fill:#000000;fill-opacity:1;fill-rule:evenodd;stroke:none" />
  <path
     d="m 5905.4128,6885.0391 a 60.609156,60.609156 0 1 1 -121.2183,0 60.609156,60.609156 0 1 1 121.2183,0 z"
     id="path3991"
     style="fill:#000000;fill-opacity:1;fill-rule:evenodd;stroke:none" />
  <rect
     width="702.4715"
     height="1023.0313"
     x="6888.5859"
     y="6671.6025"
     id="rect3993"
     style="fill:#ffffff;fill-opacity:1;fill-rule:evenodd;stroke:#000000;stroke-width:7.63899994;stroke-miterlimit:4;stroke-opacity:1;stroke-dasharray:none" />
  <path
     d="m 7040.0246,6760.6237 a 60.609156,60.609156 0 1 1 -121.2183,0 60.609156,60.609156 0 1 1 121.2183,0 z"
     id="path3995"
     style="fill:#000000;fill-opacity:1;fill-rule:evenodd;stroke:none" />
  <rect
     width="1111.91"
     height="74.285713"
     x="5883.2632"
     y="6705.5693"
     id="rect3999"
     style="fill:#000000;fill-opacity:1;fill-rule:evenodd;stroke:none" />
  <text
     x="6346.5312"
     y="6691.812"
     id="text3543"
     xml:space="preserve"
     style="font-size:4px;font-style:normal;font-weight:normal;line-height:125%;letter-spacing:0px;word-spacing:0px;fill:#000000;fill-opacity:1;stroke:none;font-family:Sans"><tspan
       x="6346.5312"
       y="6691.812"
       id="tspan3545"><tspan
         x="6346.5312"
         y="6691.812"
         id="tspan3547"
         style="font-size:64px">barSlot</tspan></tspan></text>
  <path
     d="m 4695.8261,6438.4879 a 60.609156,60.609156 0 1 1 -121.2183,0 60.609156,60.609156 0 1 1 121.2183,0 z"
     id="path4009"
     style="fill:#000000;fill-opacity:1;fill-rule:evenodd;stroke:none" />
  <rect
     width="702.4715"
     height="1023.0313"
     x="3807.3972"
     y="8260.2168"
     id="rect4011"
     style="fill:#ffffff;fill-opacity:1;fill-rule:evenodd;stroke:#000000;stroke-width:7.63899994;stroke-miterlimit:4;stroke-opacity:1;stroke-dasharray:none" />
  <path
     d="m 3958.836,8349.2376 a 60.609156,60.609156 0 1 1 -121.2183,0 60.609156,60.609156 0 1 1 121.2183,0 z"
     id="path4013"
     style="fill:#000000;fill-opacity:1;fill-rule:evenodd;stroke:none" />
  <path
     d="m 3914.6419,8334.8429 -226.2742,-185.868 -737.4114,0"
     id="path4015"
     style="fill:none;stroke:#000000;stroke-width:77;stroke-linecap:butt;stroke-linejoin:miter;stroke-miterlimit:4;stroke-opacity:1;stroke-dasharray:none" />
  <text
     x="3160.8169"
     y="8091.812"
     id="text3555"
     xml:space="preserve"
     style="font-size:4px;font-style:normal;font-weight:normal;line-height:125%;letter-spacing:0px;word-spacing:0px;fill:#000000;fill-opacity:1;stroke:none;font-family:Sans"><tspan
       x="3160.8169"
       y="8091.812"
       id="tspan3557"><tspan
         x="3160.8169"
         y="8091.812"
         id="tspan3559"
         style="font-size:64px">fooSlot</tspan></tspan></text>
  <path
     d="m 2613.6612,8158.1893 a 128.57143,150 0 1 1 -257.1428,0 128.57143,150 0 1 1 257.1428,0 z"
     id="path4025"
     style="fill:#ffffff;fill-opacity:1;fill-rule:evenodd;stroke:#000000;stroke-width:15.89999962;stroke-miterlimit:4;stroke-opacity:1;stroke-dasharray:none" />
  <path
     d="m 2482.2327,8311.0464 8.5714,631.4286"
     id="path4027"
     style="fill:none;stroke:#000000;stroke-width:1px;stroke-linecap:butt;stroke-linejoin:miter;stroke-opacity:1" />
  <path
     d="m 2490.8041,8576.7607 c 11.4286,0 257.1428,-222.8571 257.1428,-222.8571"
     id="path4029"
     style="fill:none;stroke:#000000;stroke-width:1px;stroke-linecap:butt;stroke-linejoin:miter;stroke-opacity:1" />
  <path
     d="m 2225.0899,8353.9036 c 11.4286,0 257.1428,222.8571 257.1428,222.8571"
     id="path4031"
     style="fill:none;stroke:#000000;stroke-width:1px;stroke-linecap:butt;stroke-linejoin:miter;stroke-opacity:1" />
  <path
     d="M 2493.6612,8933.9036 2305.0898,9282.475"
     id="path4033"
     style="fill:none;stroke:#000000;stroke-width:1px;stroke-linecap:butt;stroke-linejoin:miter;stroke-opacity:1" />
  <path
     d="M 2682.2327,9279.6179 2493.6613,8931.0464"
     id="path4035"
     style="fill:none;stroke:#000000;stroke-width:1px;stroke-linecap:butt;stroke-linejoin:miter;stroke-opacity:1" />
  <path
     d="m 5905.4128,8623.0331 a 60.609156,60.609156 0 1 1 -121.2183,0 60.609156,60.609156 0 1 1 121.2183,0 z"
     id="path4037"
     style="fill:#000000;fill-opacity:1;fill-rule:evenodd;stroke:none" />
  <rect
     width="154.28572"
     height="74.285713"
     x="4460.0596"
     y="8430.4961"
     id="rect4039"
     style="fill:#000000;fill-opacity:1;fill-rule:evenodd;stroke:none" />
  <rect
     width="1111.91"
     height="74.285713"
     x="4466.1206"
     y="8594.1416"
     id="rect4041"
     style="fill:#000000;fill-opacity:1;fill-rule:evenodd;stroke:none" />
  <path
     d="m 4695.8261,8789.9164 a 60.609156,60.609156 0 1 1 -121.2183,0 60.609156,60.609156 0 1 1 121.2183,0 z"
     id="path4043"
     style="fill:#000000;fill-opacity:1;fill-rule:evenodd;stroke:none" />
  <rect
     width="154.28572"
     height="74.285713"
     x="4462.0801"
     y="8751.7256"
     id="rect4045"
     style="fill:#000000;fill-opacity:1;fill-rule:evenodd;stroke:none" />
  <text
     x="4929.3882"
     y="8580.3838"
     id="text3561"
     xml:space="preserve"
     style="font-size:4px;font-style:normal;font-weight:normal;line-height:125%;letter-spacing:0px;word-spacing:0px;fill:#000000;fill-opacity:1;stroke:none;font-family:Sans"><tspan
       x="4929.3882"
       y="8580.3838"
       id="tspan3563"><tspan
         x="4929.3882"
         y="8580.3838"
         id="tspan3565"
         style="font-size:64px">fooSignal</tspan></tspan></text>
  <text
     x="2717.7808"
     y="7786.6094"
     id="text3549"
     xml:space="preserve"
     style="font-size:4px;font-style:normal;font-weight:normal;line-height:125%;letter-spacing:0px;word-spacing:0px;fill:#000000;fill-opacity:1;stroke:none;font-family:Sans"><tspan
       x="2717.7808"
       y="7786.6094"
       id="tspan3551"><tspan
         x="2717.7808"
         y="7786.6094"
         id="tspan3553"
         style="font-size:64px">signal with 3 listener</tspan></tspan></text>
  <rect
     width="224.25386"
     height="1820.2235"
     x="5565.9404"
     y="8561.5908"
     id="rect4063"
     style="fill:#000000;fill-opacity:1;stroke:none" />
  <path
     d="m 5905.4128,8764.4545 a 60.609156,60.609156 0 1 1 -121.2183,0 60.609156,60.609156 0 1 1 121.2183,0 z"
     id="path4065"
     style="fill:#000000;fill-opacity:1;fill-rule:evenodd;stroke:none" />
  <path
     d="m 5905.4128,9273.6105 a 60.609156,60.609156 0 1 1 -121.2183,0 60.609156,60.609156 0 1 1 121.2183,0 z"
     id="path4067"
     style="fill:#000000;fill-opacity:1;fill-rule:evenodd;stroke:none" />
  <rect
     width="702.4715"
     height="1023.0313"
     x="6888.5859"
     y="8694.46"
     id="rect4069"
     style="fill:#ffffff;fill-opacity:1;fill-rule:evenodd;stroke:#000000;stroke-width:7.63899994;stroke-miterlimit:4;stroke-opacity:1;stroke-dasharray:none" />
  <path
     d="m 7040.0246,8783.4808 a 60.609156,60.609156 0 1 1 -121.2183,0 60.609156,60.609156 0 1 1 121.2183,0 z"
     id="path4071"
     style="fill:#000000;fill-opacity:1;fill-rule:evenodd;stroke:none" />
  <rect
     width="1111.91"
     height="74.285713"
     x="5883.2632"
     y="8728.4268"
     id="rect4073"
     style="fill:#000000;fill-opacity:1;fill-rule:evenodd;stroke:none" />
  <text
     x="6346.5312"
     y="8714.6689"
     id="text3567"
     xml:space="preserve"
     style="font-size:4px;font-style:normal;font-weight:normal;line-height:125%;letter-spacing:0px;word-spacing:0px;fill:#000000;fill-opacity:1;stroke:none;font-family:Sans"><tspan
       x="6346.5312"
       y="8714.6689"
       id="tspan3569"><tspan
         x="6346.5312"
         y="8714.6689"
         id="tspan3571"
         style="font-size:64px">barSlot0</tspan></tspan></text>
  <path
     d="m 4695.8261,8461.345 a 60.609156,60.609156 0 1 1 -121.2183,0 60.609156,60.609156 0 1 1 121.2183,0 z"
     id="path4083"
     style="fill:#000000;fill-opacity:1;fill-rule:evenodd;stroke:none" />
  <path
     d="m 5905.4128,9863.0331 a 60.609156,60.609156 0 1 1 -121.2183,0 60.609156,60.609156 0 1 1 121.2183,0 z"
     id="path4091"
     style="fill:#000000;fill-opacity:1;fill-rule:evenodd;stroke:none" />
  <path
     d="m 5905.4128,10004.455 a 60.609156,60.609156 0 1 1 -121.2183,0 60.609156,60.609156 0 1 1 121.2183,0 z"
     id="path4093"
     style="fill:#000000;fill-opacity:1;fill-rule:evenodd;stroke:none" />
  <path
     d="m 5905.4128,10147.897 a 60.609156,60.609156 0 1 1 -121.2183,0 60.609156,60.609156 0 1 1 121.2183,0 z"
     id="path4095"
     style="fill:#000000;fill-opacity:1;fill-rule:evenodd;stroke:none" />
  <rect
     width="702.4715"
     height="1023.0313"
     x="7945.729"
     y="9785.8887"
     id="rect4097"
     style="fill:#ffffff;fill-opacity:1;fill-rule:evenodd;stroke:#000000;stroke-width:7.63899994;stroke-miterlimit:4;stroke-opacity:1;stroke-dasharray:none" />
  <path
     d="m 8097.1675,9874.9094 a 60.609156,60.609156 0 1 1 -121.2183,0 60.609156,60.609156 0 1 1 121.2183,0 z"
     id="path4099"
     style="fill:#000000;fill-opacity:1;fill-rule:evenodd;stroke:none" />
  <rect
     width="2140.4814"
     height="74.285713"
     x="5883.2632"
     y="9819.8555"
     id="rect4101"
     style="fill:#000000;fill-opacity:1;fill-rule:evenodd;stroke:none" />
  <text
     x="6346.5312"
     y="9806.0977"
     id="text3573"
     xml:space="preserve"
     style="font-size:4px;font-style:normal;font-weight:normal;line-height:125%;letter-spacing:0px;word-spacing:0px;fill:#000000;fill-opacity:1;stroke:none;font-family:Sans"><tspan
       x="6346.5312"
       y="9806.0977"
       id="tspan3575"><tspan
         x="6346.5312"
         y="9806.0977"
         id="tspan3577"
         style="font-size:64px">zedSlot</tspan></tspan></text>
  <rect
     width="702.4715"
     height="1023.0313"
     x="6888.5859"
     y="10083.031"
     id="rect4111"
     style="fill:#ffffff;fill-opacity:1;fill-rule:evenodd;stroke:#000000;stroke-width:7.63899994;stroke-miterlimit:4;stroke-opacity:1;stroke-dasharray:none" />
  <path
     d="m 7040.0246,10172.053 a 60.609156,60.609156 0 1 1 -121.2183,0 60.609156,60.609156 0 1 1 121.2183,0 z"
     id="path4113"
     style="fill:#000000;fill-opacity:1;fill-rule:evenodd;stroke:none" />
  <rect
     width="1111.91"
     height="74.285713"
     x="5883.2632"
     y="10116.998"
     id="rect4115"
     style="fill:#000000;fill-opacity:1;fill-rule:evenodd;stroke:none" />
  <text
     x="6346.5312"
     y="10103.241"
     id="text3579"
     xml:space="preserve"
     style="font-size:4px;font-style:normal;font-weight:normal;line-height:125%;letter-spacing:0px;word-spacing:0px;fill:#000000;fill-opacity:1;stroke:none;font-family:Sans"><tspan
       x="6346.5312"
       y="10103.241"
       id="tspan3581"><tspan
         x="6346.5312"
         y="10103.241"
         id="tspan3583"
         style="font-size:64px">barSlot1</tspan></tspan></text>
  <path
     d="m 5905.4128,10290.169 a 60.609156,60.609156 0 1 1 -121.2183,0 60.609156,60.609156 0 1 1 121.2183,0 z"
     id="path4125"
     style="fill:#000000;fill-opacity:1;fill-rule:evenodd;stroke:none" />
  <rect
     width="702.4715"
     height="1023.0313"
     x="10466.322"
     y="8260.2168"
     id="rect4127"
     style="fill:#ffffff;fill-opacity:1;fill-rule:evenodd;stroke:#000000;stroke-width:7.63899994;stroke-miterlimit:4;stroke-opacity:1;stroke-dasharray:none" />
  <path
     d="m 10617.762,8349.2376 a 60.609156,60.609156 0 1 1 -121.218,0 60.609156,60.609156 0 1 1 121.218,0 z"
     id="path4129"
     style="fill:#000000;fill-opacity:1;fill-rule:evenodd;stroke:none" />
  <path
     d="m 10573.567,8334.8429 -226.274,-185.868 -737.4111,0"
     id="path4131"
     style="fill:none;stroke:#ff0000;stroke-width:77;stroke-linecap:butt;stroke-linejoin:miter;stroke-miterlimit:4;stroke-opacity:1;stroke-dasharray:none" />
  <text
     x="9819.7432"
     y="8091.812"
     id="text3597"
     xml:space="preserve"
     style="font-size:4px;font-style:normal;font-weight:normal;line-height:125%;letter-spacing:0px;word-spacing:0px;fill:#000000;fill-opacity:1;stroke:none;font-family:Sans"><tspan
       x="9819.7432"
       y="8091.812"
       id="tspan3599"><tspan
         x="9819.7432"
         y="8091.812"
         id="tspan3601"
         style="font-size:64px">fooSlot</tspan></tspan></text>
  <path
     d="m 9272.5864,8158.1893 a 128.57143,150 0 1 1 -257.1428,0 128.57143,150 0 1 1 257.1428,0 z"
     id="path4141"
     style="fill:#ffffff;fill-opacity:1;fill-rule:evenodd;stroke:#000000;stroke-width:15.89999962;stroke-miterlimit:4;stroke-opacity:1;stroke-dasharray:none" />
  <path
     d="m 9141.1583,8311.0464 8.5714,631.4286"
     id="path4143"
     style="fill:none;stroke:#000000;stroke-width:1px;stroke-linecap:butt;stroke-linejoin:miter;stroke-opacity:1" />
  <path
     d="m 9149.7297,8576.7607 c 11.4286,0 257.1428,-222.8571 257.1428,-222.8571"
     id="path4145"
     style="fill:none;stroke:#000000;stroke-width:1px;stroke-linecap:butt;stroke-linejoin:miter;stroke-opacity:1" />
  <path
     d="m 8884.0155,8353.9036 c 11.4286,0 257.1428,222.8571 257.1428,222.8571"
     id="path4147"
     style="fill:none;stroke:#000000;stroke-width:1px;stroke-linecap:butt;stroke-linejoin:miter;stroke-opacity:1" />
  <path
     d="M 9152.5868,8933.9036 8964.0154,9282.475"
     id="path4149"
     style="fill:none;stroke:#000000;stroke-width:1px;stroke-linecap:butt;stroke-linejoin:miter;stroke-opacity:1" />
  <path
     d="M 9341.1583,9279.6179 9152.5869,8931.0464"
     id="path4151"
     style="fill:none;stroke:#000000;stroke-width:1px;stroke-linecap:butt;stroke-linejoin:miter;stroke-opacity:1" />
  <path
     d="m 12564.338,8623.0331 a 60.609156,60.609156 0 1 1 -121.218,0 60.609156,60.609156 0 1 1 121.218,0 z"
     id="path4153"
     style="fill:#0000ff;fill-opacity:1;fill-rule:evenodd;stroke:none" />
  <rect
     width="154.28572"
     height="74.285713"
     x="11118.985"
     y="8430.4961"
     id="rect4155"
     style="fill:#000000;fill-opacity:1;fill-rule:evenodd;stroke:none" />
  <rect
     width="1111.91"
     height="74.285713"
     x="11125.046"
     y="8594.1416"
     id="rect4157"
     style="fill:#0000ff;fill-opacity:1;fill-rule:evenodd;stroke:none" />
  <path
     d="m 11354.752,8789.9164 a 60.609156,60.609156 0 1 1 -121.218,0 60.609156,60.609156 0 1 1 121.218,0 z"
     id="path4159"
     style="fill:#000000;fill-opacity:1;fill-rule:evenodd;stroke:none" />
  <rect
     width="154.28572"
     height="74.285713"
     x="11121.005"
     y="8751.7256"
     id="rect4161"
     style="fill:#000000;fill-opacity:1;fill-rule:evenodd;stroke:none" />
  <text
     x="11588.314"
     y="8580.3838"
     id="text3603"
     xml:space="preserve"
     style="font-size:4px;font-style:normal;font-weight:normal;line-height:125%;letter-spacing:0px;word-spacing:0px;fill:#000000;fill-opacity:1;stroke:none;font-family:Sans"><tspan
       x="11588.314"
       y="8580.3838"
       id="tspan3605"><tspan
         x="11588.314"
         y="8580.3838"
         id="tspan3607"
         style="font-size:64px">fooSignal</tspan></tspan></text>
  <text
     x="9376.7061"
     y="7786.6094"
     id="text3585"
     xml:space="preserve"
     style="font-size:4px;font-style:normal;font-weight:normal;line-height:125%;letter-spacing:0px;word-spacing:0px;fill:#000000;fill-opacity:1;stroke:none;font-family:Sans"><tspan
       x="9376.7061"
       y="7786.6094"
       id="tspan3587"><tspan
         x="9376.7061"
         y="7786.6094"
         id="tspan3589"
         style="font-size:64px">signal with 3 listener</tspan><tspan
         x="10043.581"
         y="7786.6094"
         dx="0"
         id="tspan3591"
         style="font-size:64px" /></tspan><tspan
       x="9376.7061"
       y="7866.6094"
       id="tspan3593"><tspan
         x="9376.7061"
         y="7866.6094"
         id="tspan3595"
         style="font-size:64px">(colorized attempt)</tspan></tspan></text>
  <rect
     width="224.25386"
     height="1820.2235"
     x="12224.866"
     y="8561.5908"
     id="rect4179"
     style="fill:#0000ff;fill-opacity:1;stroke:none" />
  <path
     d="m 12564.338,9273.6105 a 60.609156,60.609156 0 1 1 -121.218,0 60.609156,60.609156 0 1 1 121.218,0 z"
     id="path4183"
     style="fill:#0000ff;fill-opacity:1;fill-rule:evenodd;stroke:none" />
  <rect
     width="702.4715"
     height="1023.0313"
     x="13547.512"
     y="8694.46"
     id="rect4185"
     style="fill:#ffffff;fill-opacity:1;fill-rule:evenodd;stroke:#000000;stroke-width:7.63899994;stroke-miterlimit:4;stroke-opacity:1;stroke-dasharray:none" />
  <path
     d="m 13698.95,8783.4808 a 60.609156,60.609156 0 1 1 -121.218,0 60.609156,60.609156 0 1 1 121.218,0 z"
     id="path4187"
     style="fill:#000000;fill-opacity:1;fill-rule:evenodd;stroke:none" />
  <rect
     width="1111.91"
     height="74.285713"
     x="12542.189"
     y="8728.4268"
     id="rect4189"
     style="fill:#ff0000;fill-opacity:1;fill-rule:evenodd;stroke:none" />
  <path
     d="m 12564.338,8764.4545 a 60.609156,60.609156 0 1 1 -121.218,0 60.609156,60.609156 0 1 1 121.218,0 z"
     id="path4181"
     style="fill:#0000ff;fill-opacity:1;fill-rule:evenodd;stroke:none" />
  <text
     x="13005.457"
     y="8714.6689"
     id="text3609"
     xml:space="preserve"
     style="font-size:4px;font-style:normal;font-weight:normal;line-height:125%;letter-spacing:0px;word-spacing:0px;fill:#000000;fill-opacity:1;stroke:none;font-family:Sans"><tspan
       x="13005.457"
       y="8714.6689"
       id="tspan3611"><tspan
         x="13005.457"
         y="8714.6689"
         id="tspan3613"
         style="font-size:64px">barSlot0</tspan></tspan></text>
  <path
     d="m 11354.752,8461.345 a 60.609156,60.609156 0 1 1 -121.218,0 60.609156,60.609156 0 1 1 121.218,0 z"
     id="path4199"
     style="fill:#000000;fill-opacity:1;fill-rule:evenodd;stroke:none" />
  <path
     d="m 12564.338,10004.455 a 60.609156,60.609156 0 1 1 -121.218,0 60.609156,60.609156 0 1 1 121.218,0 z"
     id="path4203"
     style="fill:#0000ff;fill-opacity:1;fill-rule:evenodd;stroke:none" />
  <rect
     width="702.4715"
     height="1023.0313"
     x="14604.654"
     y="9785.8887"
     id="rect4207"
     style="fill:#ffffff;fill-opacity:1;fill-rule:evenodd;stroke:#000000;stroke-width:7.63899994;stroke-miterlimit:4;stroke-opacity:1;stroke-dasharray:none" />
  <path
     d="m 14756.093,9874.9094 a 60.609156,60.609156 0 1 1 -121.218,0 60.609156,60.609156 0 1 1 121.218,0 z"
     id="path4209"
     style="fill:#000000;fill-opacity:1;fill-rule:evenodd;stroke:none" />
  <rect
     width="2140.4814"
     height="74.285713"
     x="12542.189"
     y="9819.8555"
     id="rect4211"
     style="fill:#ff0000;fill-opacity:1;fill-rule:evenodd;stroke:none" />
  <path
     d="m 12564.338,9863.0331 a 60.609156,60.609156 0 1 1 -121.218,0 60.609156,60.609156 0 1 1 121.218,0 z"
     id="path4201"
     style="fill:#0000ff;fill-opacity:1;fill-rule:evenodd;stroke:none" />
  <text
     x="13005.457"
     y="9806.0977"
     id="text3615"
     xml:space="preserve"
     style="font-size:4px;font-style:normal;font-weight:normal;line-height:125%;letter-spacing:0px;word-spacing:0px;fill:#000000;fill-opacity:1;stroke:none;font-family:Sans"><tspan
       x="13005.457"
       y="9806.0977"
       id="tspan3617"><tspan
         x="13005.457"
         y="9806.0977"
         id="tspan3619"
         style="font-size:64px">zedSlot</tspan></tspan></text>
  <rect
     width="702.4715"
     height="1023.0313"
     x="13547.512"
     y="10083.031"
     id="rect4221"
     style="fill:#ffffff;fill-opacity:1;fill-rule:evenodd;stroke:#000000;stroke-width:7.63899994;stroke-miterlimit:4;stroke-opacity:1;stroke-dasharray:none" />
  <path
     d="m 13698.95,10172.053 a 60.609156,60.609156 0 1 1 -121.218,0 60.609156,60.609156 0 1 1 121.218,0 z"
     id="path4223"
     style="fill:#000000;fill-opacity:1;fill-rule:evenodd;stroke:none" />
  <rect
     width="1111.91"
     height="74.285713"
     x="12542.189"
     y="10116.998"
     id="rect4225"
     style="fill:#ff0000;fill-opacity:1;fill-rule:evenodd;stroke:none" />
  <path
     d="m 12564.338,10147.897 a 60.609156,60.609156 0 1 1 -121.218,0 60.609156,60.609156 0 1 1 121.218,0 z"
     id="path4205"
     style="fill:#0000ff;fill-opacity:1;fill-rule:evenodd;stroke:none" />
  <text
     x="13005.457"
     y="10103.241"
     id="text3621"
     xml:space="preserve"
     style="font-size:4px;font-style:normal;font-weight:normal;line-height:125%;letter-spacing:0px;word-spacing:0px;fill:#000000;fill-opacity:1;stroke:none;font-family:Sans"><tspan
       x="13005.457"
       y="10103.241"
       id="tspan3623"><tspan
         x="13005.457"
         y="10103.241"
         id="tspan3625"
         style="font-size:64px">barSlot1</tspan></tspan></text>
  <path
     d="m 12564.338,10290.169 a 60.609156,60.609156 0 1 1 -121.218,0 60.609156,60.609156 0 1 1 121.218,0 z"
     id="path4235"
     style="fill:#0000ff;fill-opacity:1;fill-rule:evenodd;stroke:none" />
  <rect
     width="702.4715"
     height="1023.0313"
     x="10550.254"
     y="11677.36"
     id="rect4255"
     style="fill:#ffffff;fill-opacity:1;fill-rule:evenodd;stroke:#000000;stroke-width:7.63899994;stroke-miterlimit:4;stroke-opacity:1;stroke-dasharray:none" />
  <path
     d="m 10701.693,11766.382 a 60.609156,60.609156 0 1 1 -121.218,0 60.609156,60.609156 0 1 1 121.218,0 z"
     id="path4257"
     style="fill:#000000;fill-opacity:1;fill-rule:evenodd;stroke:none" />
  <path
     d="m 10657.499,11751.987 -226.274,-185.868 -737.4116,0"
     id="path4259"
     style="fill:none;stroke:#ff0000;stroke-width:77;stroke-linecap:butt;stroke-linejoin:miter;stroke-miterlimit:4;stroke-opacity:1;stroke-dasharray:none" />
  <text
     x="9903.6738"
     y="11508.956"
     id="text3639"
     xml:space="preserve"
     style="font-size:4px;font-style:normal;font-weight:normal;line-height:125%;letter-spacing:0px;word-spacing:0px;fill:#000000;fill-opacity:1;stroke:none;font-family:Sans"><tspan
       x="9903.6738"
       y="11508.956"
       id="tspan3641"><tspan
         x="9903.6738"
         y="11508.956"
         id="tspan3643"
         style="font-size:64px">fooSlot</tspan></tspan></text>
  <path
     d="m 9356.5184,11575.333 a 128.57143,150 0 1 1 -257.1428,0 128.57143,150 0 1 1 257.1428,0 z"
     id="path4269"
     style="fill:#ffffff;fill-opacity:1;fill-rule:evenodd;stroke:#000000;stroke-width:15.89999962;stroke-miterlimit:4;stroke-opacity:1;stroke-dasharray:none" />
  <path
     d="m 9225.0898,11728.19 8.5714,631.429"
     id="path4271"
     style="fill:none;stroke:#000000;stroke-width:1px;stroke-linecap:butt;stroke-linejoin:miter;stroke-opacity:1" />
  <path
     d="m 9233.6612,11993.905 c 11.4286,0 257.1428,-222.857 257.1428,-222.857"
     id="path4273"
     style="fill:none;stroke:#000000;stroke-width:1px;stroke-linecap:butt;stroke-linejoin:miter;stroke-opacity:1" />
  <path
     d="m 8967.947,11771.048 c 11.4286,0 257.1428,222.857 257.1428,222.857"
     id="path4275"
     style="fill:none;stroke:#000000;stroke-width:1px;stroke-linecap:butt;stroke-linejoin:miter;stroke-opacity:1" />
  <path
     d="m 9236.5183,12351.048 -188.5714,348.57"
     id="path4277"
     style="fill:none;stroke:#000000;stroke-width:1px;stroke-linecap:butt;stroke-linejoin:miter;stroke-opacity:1" />
  <path
     d="M 9425.0898,12696.761 9236.5184,12348.19"
     id="path4279"
     style="fill:none;stroke:#000000;stroke-width:1px;stroke-linecap:butt;stroke-linejoin:miter;stroke-opacity:1" />
  <path
     d="m 11436.663,11885.832 a 60.609156,60.609156 0 1 1 -121.218,0 60.609156,60.609156 0 1 1 121.218,0 z"
     id="path4281"
     style="fill:#000000;fill-opacity:1;fill-rule:evenodd;stroke:none" />
  <rect
     width="154.28572"
     height="74.285713"
     x="11202.916"
     y="11847.64"
     id="rect4283"
     style="fill:#000000;fill-opacity:1;fill-rule:evenodd;stroke:none" />
  <path
     d="m 12434.634,12049.477 a 60.609156,60.609156 0 1 1 -121.218,0 60.609156,60.609156 0 1 1 121.218,0 z"
     id="path4285"
     style="fill:none;stroke:#0000ff;stroke-width:21.5;stroke-miterlimit:4;stroke-opacity:1;stroke-dasharray:none" />
  <rect
     width="1111.91"
     height="74.285713"
     x="11208.978"
     y="12011.284"
     id="rect4287"
     style="fill:#0000ff;fill-opacity:1;fill-rule:evenodd;stroke:none" />
  <path
     d="m 11438.683,12207.061 a 60.609156,60.609156 0 1 1 -121.218,0 60.609156,60.609156 0 1 1 121.218,0 z"
     id="path4289"
     style="fill:#000000;fill-opacity:1;fill-rule:evenodd;stroke:none" />
  <rect
     width="154.28572"
     height="74.285713"
     x="11204.937"
     y="12168.868"
     id="rect4291"
     style="fill:#000000;fill-opacity:1;fill-rule:evenodd;stroke:none" />
  <text
     x="11672.245"
     y="11997.528"
     id="text3645"
     xml:space="preserve"
     style="font-size:4px;font-style:normal;font-weight:normal;line-height:125%;letter-spacing:0px;word-spacing:0px;fill:#000000;fill-opacity:1;stroke:none;font-family:Sans"><tspan
       x="11672.245"
       y="11997.528"
       id="tspan3647"><tspan
         x="11672.245"
         y="11997.528"
         id="tspan3649"
         style="font-size:64px">fooSignal</tspan></tspan></text>
  <text
     x="9460.6377"
     y="11203.753"
     id="text3627"
     xml:space="preserve"
     style="font-size:4px;font-style:normal;font-weight:normal;line-height:125%;letter-spacing:0px;word-spacing:0px;fill:#000000;fill-opacity:1;stroke:none;font-family:Sans"><tspan
       x="9460.6377"
       y="11203.753"
       id="tspan3629"><tspan
         x="9460.6377"
         y="11203.753"
         id="tspan3631"
         style="font-size:64px">signal with no listeners</tspan><tspan
         x="10199.888"
         y="11203.753"
         dx="0"
         id="tspan3633"
         style="font-size:64px" /></tspan><tspan
       x="9460.6377"
       y="11283.753"
       id="tspan3635"><tspan
         x="9460.6377"
         y="11283.753"
         id="tspan3637"
         style="font-size:64px">(colorized attempt)</tspan></tspan></text>
</svg>
