<?xml version="1.0" encoding="UTF-8" standalone="no"?>
<!-- Created with Inkscape (http://www.inkscape.org/) -->

<svg
   xmlns:dc="http://purl.org/dc/elements/1.1/"
   xmlns:cc="http://creativecommons.org/ns#"
   xmlns:rdf="http://www.w3.org/1999/02/22-rdf-syntax-ns#"
   xmlns:svg="http://www.w3.org/2000/svg"
   xmlns="http://www.w3.org/2000/svg"
   version="1.2"
   width="1002.7549"
   height="713.1571"
   id="svg2">
  <defs
     id="defs4" />
  <metadata
     id="metadata7">
    <rdf:RDF>
      <cc:Work
         rdf:about="">
        <dc:format>image/svg+xml</dc:format>
        <dc:type
           rdf:resource="http://purl.org/dc/dcmitype/StillImage" />
        <dc:title></dc:title>
      </cc:Work>
    </rdf:RDF>
  </metadata>
  <g
     transform="translate(-9.135715,-7.2121863)"
     id="layer1">
    <rect
       width="217.14285"
       height="682.85712"
       x="24.285715"
       y="22.362186"
       id="rect2985"
       style="fill:none;stroke:#000000;stroke-width:10.30000019;stroke-miterlimit:4;stroke-opacity:1;stroke-dasharray:none" />
    <path
       d="m 436.3859,347.02316 a 23.991123,23.991123 0 1 1 -47.98225,0 23.991123,23.991123 0 1 1 47.98225,0 z"
       transform="translate(-210.15845,-279.00726)"
       id="path2989"
       style="fill:none;stroke:#000000;stroke-width:5;stroke-miterlimit:4;stroke-opacity:1;stroke-dasharray:none" />
    <path
       d="m 176.37223,95.130217 51.88408,0"
       id="path3759"
       style="fill:none;stroke:#000000;stroke-width:1.03353834px;stroke-linecap:butt;stroke-linejoin:miter;stroke-opacity:1" />
    <path
       d="m 176.37223,40.960787 51.88408,0"
       id="path3761"
       style="fill:none;stroke:#000000;stroke-width:1.03353834px;stroke-linecap:butt;stroke-linejoin:miter;stroke-opacity:1" />
    <path
       d="m 436.3859,347.02316 a 23.991123,23.991123 0 1 1 -47.98225,0 23.991123,23.991123 0 1 1 47.98225,0 z"
       transform="translate(-349.81203,-279.00726)"
       id="path3763"
       style="fill:none;stroke:#000000;stroke-width:5;stroke-miterlimit:4;stroke-opacity:1;stroke-dasharray:none" />
    <path
       d="m 36.718635,95.130217 51.884084,0"
       id="path3765"
       style="fill:none;stroke:#000000;stroke-width:1.03353834px;stroke-linecap:butt;stroke-linejoin:miter;stroke-opacity:1" />
    <path
       d="m 36.718635,40.960787 51.884084,0"
       id="path3767"
       style="fill:none;stroke:#000000;stroke-width:1.03353834px;stroke-linecap:butt;stroke-linejoin:miter;stroke-opacity:1" />
    <path
       d="m 436.3859,347.02316 a 23.991123,23.991123 0 1 1 -47.98225,0 23.991123,23.991123 0 1 1 47.98225,0 z"
       transform="translate(-210.15845,-216.50727)"
       id="path3769"
       style="fill:none;stroke:#000000;stroke-width:5;stroke-miterlimit:4;stroke-opacity:1;stroke-dasharray:none" />
    <path
       d="m 176.37223,157.63022 51.88408,0"
       id="path3771"
       style="fill:none;stroke:#000000;stroke-width:1.03353834px;stroke-linecap:butt;stroke-linejoin:miter;stroke-opacity:1" />
    <path
       d="m 176.37223,103.46079 51.88408,0"
       id="path3773"
       style="fill:none;stroke:#000000;stroke-width:1.03353834px;stroke-linecap:butt;stroke-linejoin:miter;stroke-opacity:1" />
    <path
       d="m 436.3859,347.02316 a 23.991123,23.991123 0 1 1 -47.98225,0 23.991123,23.991123 0 1 1 47.98225,0 z"
       transform="translate(-349.81203,-216.50727)"
       id="path3775"
       style="fill:none;stroke:#000000;stroke-width:5;stroke-miterlimit:4;stroke-opacity:1;stroke-dasharray:none" />
    <path
       d="m 36.718635,157.63022 51.884084,0"
       id="path3777"
       style="fill:none;stroke:#000000;stroke-width:1.03353834px;stroke-linecap:butt;stroke-linejoin:miter;stroke-opacity:1" />
    <path
       d="m 36.718635,103.46079 51.884084,0"
       id="path3779"
       style="fill:none;stroke:#000000;stroke-width:1.03353834px;stroke-linecap:butt;stroke-linejoin:miter;stroke-opacity:1" />
    <path
       d="m 436.3859,347.02316 a 23.991123,23.991123 0 1 1 -47.98225,0 23.991123,23.991123 0 1 1 47.98225,0 z"
       transform="translate(-210.15845,-153.65012)"
       id="path3781"
       style="fill:none;stroke:#000000;stroke-width:5;stroke-miterlimit:4;stroke-opacity:1;stroke-dasharray:none" />
    <path
       d="m 176.37223,220.48736 51.88408,0"
       id="path3783"
       style="fill:none;stroke:#000000;stroke-width:1.03353834px;stroke-linecap:butt;stroke-linejoin:miter;stroke-opacity:1" />
    <path
       d="m 176.37223,166.31793 51.88408,0"
       id="path3785"
       style="fill:none;stroke:#000000;stroke-width:1.03353834px;stroke-linecap:butt;stroke-linejoin:miter;stroke-opacity:1" />
    <path
       d="m 436.3859,347.02316 a 23.991123,23.991123 0 1 1 -47.98225,0 23.991123,23.991123 0 1 1 47.98225,0 z"
       transform="translate(-349.81203,-153.65012)"
       id="path3787"
       style="fill:none;stroke:#000000;stroke-width:5;stroke-miterlimit:4;stroke-opacity:1;stroke-dasharray:none" />
    <path
       d="m 36.718635,220.48736 51.884084,0"
       id="path3789"
       style="fill:none;stroke:#000000;stroke-width:1.03353834px;stroke-linecap:butt;stroke-linejoin:miter;stroke-opacity:1" />
    <path
       d="m 36.718635,166.31793 51.884084,0"
       id="path3791"
       style="fill:none;stroke:#000000;stroke-width:1.03353834px;stroke-linecap:butt;stroke-linejoin:miter;stroke-opacity:1" />
    <path
       d="m 436.3859,347.02316 a 23.991123,23.991123 0 1 1 -47.98225,0 23.991123,23.991123 0 1 1 47.98225,0 z"
       transform="translate(-210.15845,-91.150122)"
       id="path3793"
       style="fill:none;stroke:#000000;stroke-width:5;stroke-miterlimit:4;stroke-opacity:1;stroke-dasharray:none" />
    <path
       d="m 176.37223,282.98736 51.88408,0"
       id="path3795"
       style="fill:none;stroke:#000000;stroke-width:1.03353834px;stroke-linecap:butt;stroke-linejoin:miter;stroke-opacity:1" />
    <path
       d="m 176.37223,228.81793 51.88408,0"
       id="path3797"
       style="fill:none;stroke:#000000;stroke-width:1.03353834px;stroke-linecap:butt;stroke-linejoin:miter;stroke-opacity:1" />
    <path
       d="m 436.3859,347.02316 a 23.991123,23.991123 0 1 1 -47.98225,0 23.991123,23.991123 0 1 1 47.98225,0 z"
       transform="translate(-349.81203,-91.150122)"
       id="path3799"
       style="fill:none;stroke:#000000;stroke-width:5;stroke-miterlimit:4;stroke-opacity:1;stroke-dasharray:none" />
    <path
       d="m 36.718635,282.98736 51.884084,0"
       id="path3801"
       style="fill:none;stroke:#000000;stroke-width:1.03353834px;stroke-linecap:butt;stroke-linejoin:miter;stroke-opacity:1" />
    <path
       d="m 36.718635,228.81793 51.884084,0"
       id="path3803"
       style="fill:none;stroke:#000000;stroke-width:1.03353834px;stroke-linecap:butt;stroke-linejoin:miter;stroke-opacity:1" />
    <path
       d="m 436.3859,347.02316 a 23.991123,23.991123 0 1 1 -47.98225,0 23.991123,23.991123 0 1 1 47.98225,0 z"
       transform="translate(-210.15845,-29.007263)"
       id="path3805"
       style="fill:none;stroke:#000000;stroke-width:5;stroke-miterlimit:4;stroke-opacity:1;stroke-dasharray:none" />
    <path
       d="m 176.37223,345.13022 51.88408,0"
       id="path3807"
       style="fill:none;stroke:#000000;stroke-width:1.03353834px;stroke-linecap:butt;stroke-linejoin:miter;stroke-opacity:1" />
    <path
       d="m 176.37223,290.96079 51.88408,0"
       id="path3809"
       style="fill:none;stroke:#000000;stroke-width:1.03353834px;stroke-linecap:butt;stroke-linejoin:miter;stroke-opacity:1" />
    <path
       d="m 436.3859,347.02316 a 23.991123,23.991123 0 1 1 -47.98225,0 23.991123,23.991123 0 1 1 47.98225,0 z"
       transform="translate(-349.81203,-29.007263)"
       id="path3811"
       style="fill:none;stroke:#000000;stroke-width:5;stroke-miterlimit:4;stroke-opacity:1;stroke-dasharray:none" />
    <path
       d="m 36.718635,345.13022 51.884084,0"
       id="path3813"
       style="fill:none;stroke:#000000;stroke-width:1.03353834px;stroke-linecap:butt;stroke-linejoin:miter;stroke-opacity:1" />
    <path
       d="m 36.718635,290.96079 51.884084,0"
       id="path3815"
       style="fill:none;stroke:#000000;stroke-width:1.03353834px;stroke-linecap:butt;stroke-linejoin:miter;stroke-opacity:1" />
    <path
       d="m 436.3859,347.02316 a 23.991123,23.991123 0 1 1 -47.98225,0 23.991123,23.991123 0 1 1 47.98225,0 z"
       transform="translate(-210.15845,33.492737)"
       id="path3817"
       style="fill:none;stroke:#000000;stroke-width:5;stroke-miterlimit:4;stroke-opacity:1;stroke-dasharray:none" />
    <path
       d="m 176.37223,407.63022 51.88408,0"
       id="path3819"
       style="fill:none;stroke:#000000;stroke-width:1.03353834px;stroke-linecap:butt;stroke-linejoin:miter;stroke-opacity:1" />
    <path
       d="m 176.37223,353.46079 51.88408,0"
       id="path3821"
       style="fill:none;stroke:#000000;stroke-width:1.03353834px;stroke-linecap:butt;stroke-linejoin:miter;stroke-opacity:1" />
    <path
       d="m 436.3859,347.02316 a 23.991123,23.991123 0 1 1 -47.98225,0 23.991123,23.991123 0 1 1 47.98225,0 z"
       transform="translate(-349.81203,33.492737)"
       id="path3823"
       style="fill:none;stroke:#000000;stroke-width:5;stroke-miterlimit:4;stroke-opacity:1;stroke-dasharray:none" />
    <path
       d="m 36.718635,407.63022 51.884084,0"
       id="path3825"
       style="fill:none;stroke:#000000;stroke-width:1.03353834px;stroke-linecap:butt;stroke-linejoin:miter;stroke-opacity:1" />
    <path
       d="m 36.718635,353.46079 51.884084,0"
       id="path3827"
       style="fill:none;stroke:#000000;stroke-width:1.03353834px;stroke-linecap:butt;stroke-linejoin:miter;stroke-opacity:1" />
    <path
       d="m 436.3859,347.02316 a 23.991123,23.991123 0 1 1 -47.98225,0 23.991123,23.991123 0 1 1 47.98225,0 z"
       transform="translate(-210.15845,96.349877)"
       id="path3829"
       style="fill:none;stroke:#000000;stroke-width:5;stroke-miterlimit:4;stroke-opacity:1;stroke-dasharray:none" />
    <path
       d="m 176.37223,470.48736 51.88408,0"
       id="path3831"
       style="fill:none;stroke:#000000;stroke-width:1.03353834px;stroke-linecap:butt;stroke-linejoin:miter;stroke-opacity:1" />
    <path
       d="m 176.37223,416.31793 51.88408,0"
       id="path3833"
       style="fill:none;stroke:#000000;stroke-width:1.03353834px;stroke-linecap:butt;stroke-linejoin:miter;stroke-opacity:1" />
    <path
       d="m 436.3859,347.02316 a 23.991123,23.991123 0 1 1 -47.98225,0 23.991123,23.991123 0 1 1 47.98225,0 z"
       transform="translate(-349.81203,96.349877)"
       id="path3835"
       style="fill:none;stroke:#000000;stroke-width:5;stroke-miterlimit:4;stroke-opacity:1;stroke-dasharray:none" />
    <path
       d="m 36.718635,470.48736 51.884084,0"
       id="path3837"
       style="fill:none;stroke:#000000;stroke-width:1.03353834px;stroke-linecap:butt;stroke-linejoin:miter;stroke-opacity:1" />
    <path
       d="m 36.718635,416.31793 51.884084,0"
       id="path3839"
       style="fill:none;stroke:#000000;stroke-width:1.03353834px;stroke-linecap:butt;stroke-linejoin:miter;stroke-opacity:1" />
    <path
       d="m 436.3859,347.02316 a 23.991123,23.991123 0 1 1 -47.98225,0 23.991123,23.991123 0 1 1 47.98225,0 z"
       transform="translate(-210.15845,158.84988)"
       id="path3841"
       style="fill:none;stroke:#000000;stroke-width:5;stroke-miterlimit:4;stroke-opacity:1;stroke-dasharray:none" />
    <path
       d="m 176.37223,532.98736 51.88408,0"
       id="path3843"
       style="fill:none;stroke:#000000;stroke-width:1.03353834px;stroke-linecap:butt;stroke-linejoin:miter;stroke-opacity:1" />
    <path
       d="m 176.37223,478.81793 51.88408,0"
       id="path3845"
       style="fill:none;stroke:#000000;stroke-width:1.03353834px;stroke-linecap:butt;stroke-linejoin:miter;stroke-opacity:1" />
    <path
       d="m 436.3859,347.02316 a 23.991123,23.991123 0 1 1 -47.98225,0 23.991123,23.991123 0 1 1 47.98225,0 z"
       transform="translate(-349.81203,158.84988)"
       id="path3847"
       style="fill:none;stroke:#000000;stroke-width:5;stroke-miterlimit:4;stroke-opacity:1;stroke-dasharray:none" />
    <path
       d="m 36.718635,532.98736 51.884084,0"
       id="path3849"
       style="fill:none;stroke:#000000;stroke-width:1.03353834px;stroke-linecap:butt;stroke-linejoin:miter;stroke-opacity:1" />
    <path
       d="m 36.718635,478.81793 51.884084,0"
       id="path3851"
       style="fill:none;stroke:#000000;stroke-width:1.03353834px;stroke-linecap:butt;stroke-linejoin:miter;stroke-opacity:1" />
    <path
       d="m 436.3859,347.02316 a 23.991123,23.991123 0 1 1 -47.98225,0 23.991123,23.991123 0 1 1 47.98225,0 z"
       transform="translate(-210.15845,224.20702)"
       id="path3853"
       style="fill:none;stroke:#000000;stroke-width:5;stroke-miterlimit:4;stroke-opacity:1;stroke-dasharray:none" />
    <path
       d="m 176.37223,598.3445 51.88408,0"
       id="path3855"
       style="fill:none;stroke:#000000;stroke-width:1.03353834px;stroke-linecap:butt;stroke-linejoin:miter;stroke-opacity:1" />
    <path
       d="m 176.37223,544.17507 51.88408,0"
       id="path3857"
       style="fill:none;stroke:#000000;stroke-width:1.03353834px;stroke-linecap:butt;stroke-linejoin:miter;stroke-opacity:1" />
    <path
       d="m 436.3859,347.02316 a 23.991123,23.991123 0 1 1 -47.98225,0 23.991123,23.991123 0 1 1 47.98225,0 z"
       transform="translate(-349.81203,224.20702)"
       id="path3859"
       style="fill:none;stroke:#000000;stroke-width:5;stroke-miterlimit:4;stroke-opacity:1;stroke-dasharray:none" />
    <path
       d="m 36.718635,598.3445 51.884084,0"
       id="path3861"
       style="fill:none;stroke:#000000;stroke-width:1.03353834px;stroke-linecap:butt;stroke-linejoin:miter;stroke-opacity:1" />
    <path
       d="m 36.718635,544.17507 51.884084,0"
       id="path3863"
       style="fill:none;stroke:#000000;stroke-width:1.03353834px;stroke-linecap:butt;stroke-linejoin:miter;stroke-opacity:1" />
    <path
       d="m 436.3859,347.02316 a 23.991123,23.991123 0 1 1 -47.98225,0 23.991123,23.991123 0 1 1 47.98225,0 z"
       transform="translate(-210.15845,286.70702)"
       id="path3865"
       style="fill:none;stroke:#000000;stroke-width:5;stroke-miterlimit:4;stroke-opacity:1;stroke-dasharray:none" />
    <path
       d="m 176.37223,660.8445 51.88408,0"
       id="path3867"
       style="fill:none;stroke:#000000;stroke-width:1.03353834px;stroke-linecap:butt;stroke-linejoin:miter;stroke-opacity:1" />
    <path
       d="m 176.37223,606.67507 51.88408,0"
       id="path3869"
       style="fill:none;stroke:#000000;stroke-width:1.03353834px;stroke-linecap:butt;stroke-linejoin:miter;stroke-opacity:1" />
    <path
       d="m 436.3859,347.02316 a 23.991123,23.991123 0 1 1 -47.98225,0 23.991123,23.991123 0 1 1 47.98225,0 z"
       transform="translate(-349.81203,286.70702)"
       id="path3871"
       style="fill:none;stroke:#000000;stroke-width:5;stroke-miterlimit:4;stroke-opacity:1;stroke-dasharray:none" />
    <path
       d="m 36.718635,660.8445 51.884084,0"
       id="path3873"
       style="fill:none;stroke:#000000;stroke-width:1.03353834px;stroke-linecap:butt;stroke-linejoin:miter;stroke-opacity:1" />
    <path
       d="m 36.718635,606.67507 51.884084,0"
       id="path3875"
       style="fill:none;stroke:#000000;stroke-width:1.03353834px;stroke-linecap:butt;stroke-linejoin:miter;stroke-opacity:1" />
    <path
       d="m 449.8967,300.30362 a 20.329321,20.329321 0 1 1 -40.65864,0 20.329321,20.329321 0 1 1 40.65864,0 z"
       transform="translate(-227.33104,-232.28771)"
       id="path3879"
       style="fill:#000000;fill-opacity:1;fill-rule:evenodd;stroke:none" />
    <path
       d="m 449.8967,300.30362 a 20.329321,20.329321 0 1 1 -40.65864,0 20.329321,20.329321 0 1 1 40.65864,0 z"
       transform="translate(-367.23716,-232.28771)"
       id="path3881"
       style="fill:#000000;fill-opacity:1;fill-rule:evenodd;stroke:none" />
    <rect
       width="217.14285"
       height="682.85712"
       x="584.6828"
       y="22.362186"
       id="rect3883"
       style="fill:none;stroke:#000000;stroke-width:10.30000019;stroke-miterlimit:4;stroke-opacity:1;stroke-dasharray:none" />
    <rect
       width="70.35714"
       height="5.7142859"
       x="177.5"
       y="96.290756"
       id="rect4009"
       style="fill:#ff0000;fill-opacity:1;fill-rule:evenodd;stroke:none" />
    <rect
       width="239.7482"
       height="7.8243279"
       x="204.28572"
       y="65.793106"
       id="rect4013"
       style="fill:#000000;fill-opacity:1;fill-rule:evenodd;stroke:none" />
    <rect
       width="70.35714"
       height="5.7142859"
       x="213.10043"
       y="156.39941"
       transform="matrix(0.96592583,-0.25881905,0.25881905,0.96592583,0,0)"
       id="rect4011"
       style="fill:#ff0000;fill-opacity:1;fill-rule:evenodd;stroke:none" />
    <text
       x="345.21964"
       y="64.432991"
       id="text4015"
       xml:space="preserve"
       style="font-size:4px;font-style:normal;font-weight:normal;line-height:125%;letter-spacing:0px;word-spacing:0px;fill:#000000;fill-opacity:1;stroke:none;font-family:Sans"><tspan
         x="345.21964"
         y="64.432991"
         id="tspan4017">Existing Statement</tspan></text>
    <path
       d="m 317.94553,83.499619 a 2.7147849,2.6516504 0 1 1 -5.42957,0 2.7147849,2.6516504 0 1 1 5.42957,0 z"
       transform="translate(-0.37880721,-2.9041886)"
       id="path4019"
       style="fill:#000000;fill-opacity:1;fill-rule:evenodd;stroke:none" />
    <text
       x="317.48013"
       y="82.191788"
       id="text4220"
       xml:space="preserve"
       style="font-size:4px;font-style:normal;font-weight:normal;line-height:125%;letter-spacing:0px;word-spacing:0px;fill:#000000;fill-opacity:1;stroke:none;font-family:Sans"><tspan
         x="317.48013"
         y="82.191788"
         id="tspan4222"><tspan
           x="317.48013"
           y="82.191788"
           id="tspan4224">Mouse Position</tspan></tspan></text>
    <path
       d="m 594.77165,35.738403 195.9696,0"
       id="path4029"
       style="fill:none;stroke:#000000;stroke-width:1px;stroke-linecap:butt;stroke-linejoin:miter;stroke-opacity:1" />
    <path
       d="m 594.77165,76.144505 195.9696,0"
       id="path4037"
       style="fill:none;stroke:#000000;stroke-width:1px;stroke-linecap:butt;stroke-linejoin:miter;stroke-opacity:1" />
    <path
       d="m 594.77165,117.56076 195.9696,0"
       id="path4039"
       style="fill:none;stroke:#000000;stroke-width:1px;stroke-linecap:butt;stroke-linejoin:miter;stroke-opacity:1" />
    <path
       d="m 594.77165,157.96686 195.9696,0"
       id="path4041"
       style="fill:none;stroke:#000000;stroke-width:1px;stroke-linecap:butt;stroke-linejoin:miter;stroke-opacity:1" />
    <path
       d="m 594.77165,203.42373 195.9696,0"
       id="path4043"
       style="fill:none;stroke:#000000;stroke-width:1px;stroke-linecap:butt;stroke-linejoin:miter;stroke-opacity:1" />
    <path
       d="m 594.77165,243.82983 195.9696,0"
       id="path4045"
       style="fill:none;stroke:#000000;stroke-width:1px;stroke-linecap:butt;stroke-linejoin:miter;stroke-opacity:1" />
    <path
       d="m 594.77165,285.24608 195.9696,0"
       id="path4047"
       style="fill:none;stroke:#000000;stroke-width:1px;stroke-linecap:butt;stroke-linejoin:miter;stroke-opacity:1" />
    <path
       d="m 594.77165,325.65218 195.9696,0"
       id="path4049"
       style="fill:none;stroke:#000000;stroke-width:1px;stroke-linecap:butt;stroke-linejoin:miter;stroke-opacity:1" />
    <rect
       width="215.06154"
       height="5.7142859"
       x="594.69305"
       y="73.309792"
       id="rect4057"
       style="fill:#ff0000;fill-opacity:1;fill-rule:evenodd;stroke:none" />
    <rect
       width="407.43353"
       height="7.8243279"
       x="594.45715"
       y="51.145893"
       id="rect4059"
       style="fill:#000000;fill-opacity:1;fill-rule:evenodd;stroke:none" />
    <rect
       width="407.43353"
       height="7.8243279"
       x="594.45715"
       y="93.067223"
       id="rect4077"
       style="fill:#000000;fill-opacity:1;fill-rule:evenodd;stroke:none" />
    <rect
       width="70.35714"
       height="5.7142859"
       x="805.16589"
       y="-111.50579"
       transform="matrix(0.97412699,0.22600134,-0.22600134,0.97412699,0,0)"
       id="rect4061"
       style="fill:#ff0000;fill-opacity:1;fill-rule:evenodd;stroke:none" />
    <path
       d="m 317.94553,83.499619 a 2.7147849,2.6516504 0 1 1 -5.42957,0 2.7147849,2.6516504 0 1 1 5.42957,0 z"
       transform="translate(560.86029,8.2359505)"
       id="path4067"
       style="fill:#000000;fill-opacity:1;fill-rule:evenodd;stroke:none" />
    <text
       x="949.29047"
       y="92.076942"
       id="text4079"
       xml:space="preserve"
       style="font-size:4px;font-style:normal;font-weight:normal;line-height:125%;letter-spacing:0px;word-spacing:0px;fill:#000000;fill-opacity:1;stroke:none;font-family:Sans"><tspan
         x="949.29047"
         y="92.076942"
         id="tspan4081">Existing Statement</tspan></text>
    <text
       x="878.71924"
       y="92.974785"
       id="text4226"
       xml:space="preserve"
       style="font-size:4px;font-style:normal;font-weight:normal;line-height:125%;letter-spacing:0px;word-spacing:0px;fill:#000000;fill-opacity:1;stroke:none;font-family:Sans"><tspan
         x="878.71924"
         y="92.974785"
         id="tspan4228"><tspan
           x="878.71924"
           y="92.974785"
           id="tspan4230">Mouse Position</tspan></tspan></text>
    <text
       x="949.29047"
       y="49.219799"
       id="text4083"
       xml:space="preserve"
       style="font-size:4px;font-style:normal;font-weight:normal;line-height:125%;letter-spacing:0px;word-spacing:0px;fill:#000000;fill-opacity:1;stroke:none;font-family:Sans"><tspan
         x="949.29047"
         y="49.219799"
         id="tspan4085">Existing Statement</tspan></text>
    <text
       x="330.35446"
       y="274.73569"
       id="text4136"
       xml:space="preserve"
       style="font-size:4px;font-style:normal;font-weight:normal;line-height:125%;letter-spacing:0px;word-spacing:0px;fill:#000000;fill-opacity:1;stroke:none;font-family:Sans"><tspan
         x="330.35446"
         y="274.73569"
         id="tspan4138"><tspan
           x="330.35446"
           y="274.73569"
           id="tspan4140"
           style="font-size:12px">In any case, the code/logic need </tspan></tspan><tspan
         x="330.35446"
         y="289.73569"
         id="tspan4142"><tspan
           x="330.35446"
           y="289.73569"
           id="tspan4144"
           style="font-size:12px">only worry about a list</tspan><tspan
           x="464.58102"
           y="289.73569"
           dx="0"
           id="tspan4146"
           style="font-size:12px" /></tspan><tspan
         x="330.35446"
         y="304.73569"
         id="tspan4148"><tspan
           x="330.35446"
           y="304.73569"
           id="tspan4150"
           style="font-size:12px">of statements, and having the </tspan></tspan><tspan
         x="330.35446"
         y="319.73569"
         id="tspan4152"><tspan
           x="330.35446"
           y="319.73569"
           id="tspan4154"
           style="font-size:12px">ability to highlight-for-snapping </tspan></tspan><tspan
         x="330.35446"
         y="334.73569"
         id="tspan4156"><tspan
           x="330.35446"
           y="334.73569"
           id="tspan4158"
           style="font-size:12px">before index 0, &quot;append&quot; index, </tspan></tspan><tspan
         x="330.35446"
         y="349.73569"
         id="tspan4160"><tspan
           x="330.35446"
           y="349.73569"
           id="tspan4162"
           style="font-size:12px">and between any two indexes.</tspan><tspan
           x="514.01074"
           y="349.73569"
           dx="0"
           id="tspan4164"
           style="font-size:12px" /></tspan><tspan
         x="330.35446"
         y="364.73569"
         id="tspan4166"><tspan
           x="330.35446"
           y="364.73569"
           id="tspan4168"
           style="font-size:12px" /></tspan><tspan
         x="330.35446"
         y="379.73569"
         id="tspan4170"><tspan
           x="330.35446"
           y="379.73569"
           id="tspan4172"
           style="font-size:12px">The slot entry point is not an </tspan></tspan><tspan
         x="330.35446"
         y="394.73569"
         id="tspan4174"><tspan
           x="330.35446"
           y="394.73569"
           id="tspan4176"
           style="font-size:12px">event/statement of that slot, but </tspan></tspan><tspan
         x="330.35446"
         y="409.73569"
         id="tspan4178"><tspan
           x="330.35446"
           y="409.73569"
           id="tspan4180"
           style="font-size:12px">a connection/statement-ESQ thing </tspan></tspan><tspan
         x="330.35446"
         y="424.73569"
         id="tspan4182"><tspan
           x="330.35446"
           y="424.73569"
           id="tspan4184"
           style="font-size:12px">should still show up visually and </tspan></tspan><tspan
         x="330.35446"
         y="439.73569"
         id="tspan4186"><tspan
           x="330.35446"
           y="439.73569"
           id="tspan4188"
           style="font-size:12px">immoveably at the top-left/right </tspan></tspan><tspan
         x="330.35446"
         y="454.73569"
         id="tspan4190"><tspan
           x="330.35446"
           y="454.73569"
           id="tspan4192"
           style="font-size:12px">(once the slot is named/</tspan></tspan><tspan
         x="330.35446"
         y="469.73569"
         id="tspan4194"><tspan
           x="330.35446"
           y="469.73569"
           id="tspan4196"
           style="font-size:12px">connected)</tspan></tspan></text>
    <text
       x="634.06873"
       y="466.40979"
       id="text4198"
       xml:space="preserve"
       style="font-size:4px;font-style:normal;font-weight:normal;line-height:125%;letter-spacing:0px;word-spacing:0px;fill:#000000;fill-opacity:1;stroke:none;font-family:Sans"><tspan
         x="634.06873"
         y="466.40979"
         id="tspan4200"><tspan
           x="634.06873"
           y="466.40979"
           id="tspan4202"
           style="font-size:12px">If a mouse click </tspan></tspan><tspan
         x="634.06873"
         y="481.40979"
         id="tspan4204"><tspan
           x="634.06873"
           y="481.40979"
           id="tspan4206"
           style="font-size:12px">occurs down here </tspan></tspan><tspan
         x="634.06873"
         y="496.40979"
         id="tspan4208"><tspan
           x="634.06873"
           y="496.40979"
           id="tspan4210"
           style="font-size:12px">(hell, if we even draw </tspan></tspan><tspan
         x="634.06873"
         y="511.40979"
         id="tspan4212"><tspan
           x="634.06873"
           y="511.40979"
           id="tspan4214"
           style="font-size:12px">down here), the </tspan></tspan><tspan
         x="634.06873"
         y="526.40979"
         id="tspan4216"><tspan
           x="634.06873"
           y="526.40979"
           id="tspan4218"
           style="font-size:12px">append index is used</tspan></tspan></text>
  </g>
</svg>
