<?xml version="1.0" encoding="UTF-8" standalone="no"?>
<!-- Created with Inkscape (http://www.inkscape.org/) -->

<svg
   xmlns:dc="http://purl.org/dc/elements/1.1/"
   xmlns:cc="http://creativecommons.org/ns#"
   xmlns:rdf="http://www.w3.org/1999/02/22-rdf-syntax-ns#"
   xmlns:svg="http://www.w3.org/2000/svg"
   xmlns="http://www.w3.org/2000/svg"
   version="1.2"
   width="463.26697"
   height="589.92914"
   id="svg2">
  <defs
     id="defs4" />
  <metadata
     id="metadata7">
    <rdf:RDF>
      <cc:Work
         rdf:about="">
        <dc:format>image/svg+xml</dc:format>
        <dc:type
           rdf:resource="http://purl.org/dc/dcmitype/StillImage" />
        <dc:title></dc:title>
      </cc:Work>
    </rdf:RDF>
  </metadata>
  <g
     transform="translate(-200.01021,-226.0574)"
     id="layer1">
    <path
       d="m 464.67017,350.30615 a 112.12693,124.24876 0 1 1 -224.25386,0 112.12693,124.24876 0 1 1 224.25386,0 z"
       id="path2985"
       style="fill:#ffccaa;fill-rule:evenodd;stroke:none" />
    <rect
       width="37.472866"
       height="3.0304577"
       x="337.50812"
       y="325.05234"
       id="rect3797"
       style="fill:none;stroke:#000000;stroke-width:1.18315601;stroke-opacity:1" />
    <rect
       width="305.06607"
       height="339.41125"
       x="200.01021"
       y="476.57526"
       id="rect3755"
       style="fill:#000080;stroke:none" />
    <path
       d="m 472.7514,355.1044 a 4.0406103,24.496199 0 1 1 -8.08123,0 4.0406103,24.496199 0 1 1 8.08123,0 z"
       transform="matrix(1,0,0,1.2061856,-231.32493,-78.268167)"
       id="path3759"
       style="fill:#ffccaa;stroke:none" />
    <rect
       width="66.609741"
       height="44.386383"
       x="375.55438"
       y="325.33505"
       id="rect3761"
       style="fill:none;stroke:#000000;stroke-width:0.55525064;stroke-opacity:1" />
    <rect
       width="66.609741"
       height="44.386383"
       x="271.0036"
       y="325.33505"
       id="rect3763"
       style="fill:none;stroke:#000000;stroke-width:0.55525064;stroke-opacity:1" />
    <flowRoot
       transform="translate(-2.5253813,-1.5152288)"
       id="flowRoot3765"
       xml:space="preserve"
       style="font-size:11px;font-style:normal;font-weight:normal;line-height:125%;letter-spacing:0px;word-spacing:0px;fill:#000000;fill-opacity:1;stroke:none;font-family:Sans"><flowRegion
         id="flowRegion3767"><rect
           width="52.527882"
           height="37.880737"
           x="281.32748"
           y="331.61835"
           id="rect3769"
           style="font-size:11px" /></flowRegion><flowPara
         id="flowPara3771"
         style="font-size:4px">Semi-Transparen overlay,</flowPara><flowPara
         id="flowPara3773"
         style="font-size:4px">or maybe completely opaque but only taking up a small corner of the eyesight (in which case maybe no glasses frames at all)</flowPara></flowRoot>    <rect
       width="26.769043"
       height="3.0304577"
       x="243.44676"
       y="325.05234"
       id="rect3775"
       style="fill:none;stroke:#000000;stroke-opacity:1" />
    <rect
       width="20.504717"
       height="3.0304577"
       x="441.43668"
       y="325.05234"
       id="rect3777"
       style="fill:none;stroke:#000000;stroke-width:0.87520635;stroke-opacity:1" />
    <rect
       width="12.150447"
       height="9.8180161"
       x="350.14349"
       y="321.66504"
       id="rect3779"
       style="fill:#000000;stroke:none" />
    <path
       d="m 378.80719,335.15387 a 13.637059,13.637059 0 1 1 -27.27411,0 13.637059,13.637059 0 1 1 27.27411,0 z"
       transform="matrix(0.2854578,0,0,0.2854578,252.09064,230.69768)"
       id="path3781"
       style="fill:#000000;stroke:#ff0000" />
    <rect
       width="1.2101525"
       height="31.819805"
       x="467.46579"
       y="82.80941"
       transform="matrix(0.88105632,0.47301137,-0.47301137,0.88105632,0,0)"
       id="rect3783"
       style="fill:#000000;stroke:#ffffff;stroke-width:0.177;stroke-miterlimit:4;stroke-opacity:1;stroke-dasharray:none" />
    <rect
       width="1.210148"
       height="6.756588"
       x="353.60852"
       y="315.79538"
       transform="matrix(0.99999982,-5.9301413e-4,0.01315344,0.99991349,0,0)"
       id="rect3785"
       style="fill:#000000;stroke:#ffffff;stroke-width:0.08156192;stroke-miterlimit:4;stroke-opacity:1;stroke-dasharray:none" />
    <rect
       width="1.210148"
       height="6.756588"
       x="-465.63586"
       y="132.05011"
       transform="matrix(-0.53159134,-0.84700097,0.84025711,-0.54218814,0,0)"
       id="rect3787"
       style="fill:#000000;stroke:#ffffff;stroke-width:0.08156192;stroke-miterlimit:4;stroke-opacity:1;stroke-dasharray:none" />
    <flowRoot
       transform="translate(9.8214287,-7.5892857)"
       id="flowRoot3789"
       xml:space="preserve"
       style="font-size:40px;font-style:normal;font-weight:normal;line-height:125%;letter-spacing:0px;word-spacing:0px;fill:#000000;fill-opacity:1;stroke:none;font-family:Sans"><flowRegion
         id="flowRegion3791"><rect
           width="69.285721"
           height="56.249992"
           x="363.57144"
           y="273.07648"
           id="rect3793" /></flowRegion><flowPara
         id="flowPara3795"
         style="font-size:4px">Camera, with a phsyically split CSI cable that feeds into an online computer (for immediate broadcast) and an offline computer (for securely saving). The same cable split occurs with a/the mic (not shown). The comps, including the Arduino Micro/Battery/Radio(s)/etc, are stuffed somewhere in the frames or ear handle things</flowPara></flowRoot>    <rect
       width="11.136316"
       height="93.994957"
       x="24.102417"
       y="825.65387"
       transform="matrix(0.79017489,-0.61288143,0.65537308,0.75530532,0,0)"
       id="rect3805"
       style="fill:#ffccaa;stroke:none" />
    <rect
       width="88.893425"
       height="135.36044"
       x="-33.549"
       y="698.2298"
       transform="matrix(0.73995392,-0.67265756,0.67265756,0.73995392,0,0)"
       id="rect3799"
       style="fill:#000080;stroke:none" />
    <path
       d="m 463.57143,327.36218 c 1.68359,-0.10213 -0.4209,1.36482 0,1.78572 0.0842,0.0842 0.27296,-0.0842 0.35714,0 0.0115,0.0115 0,0.98481 0,1.07142 0,0.59524 0,1.19048 0,1.78572 0,0.11905 -0.0842,0.27296 0,0.35714 0.0842,0.0842 0.27297,-0.0842 0.35715,0 0.16835,0.16836 -0.16836,0.54593 0,0.71429 0.0144,0.0144 1.29741,0 1.42857,0 2.2619,0 4.52381,0 6.78571,0 0.0866,0 1.05994,-0.0115 1.07143,0 0.0842,0.0842 0,0.23809 0,0.35714 0,0.13116 0.0144,1.4142 0,1.42857 -0.0842,0.0842 -0.27296,-0.0842 -0.35714,0 -0.0115,0.0115 0,0.98481 0,1.07143 0,1.08896 -0.36198,0.005 -0.71429,0.35714 -0.16836,0.16836 0.16836,0.54593 0,0.71429 -0.0842,0.0842 -0.27296,-0.0842 -0.35714,0 -0.0842,0.0842 0.0842,0.27296 0,0.35714 -0.0842,0.0842 -0.27297,-0.0842 -0.35714,0 -0.0842,0.0842 0.0532,0.25066 0,0.35714 -0.0753,0.15059 -0.28186,0.20656 -0.35715,0.35715 -0.0532,0.10648 0.0842,0.27296 0,0.35714 -0.0842,0.0842 -0.27296,-0.0842 -0.35714,0 -0.0842,0.0842 0.0842,0.27296 0,0.35714 -0.0842,0.0842 -0.27296,-0.0842 -0.35714,0 -0.16836,0.16836 0.16836,0.54593 0,0.71429 -0.0842,0.0842 -0.27297,-0.0842 -0.35715,0 -0.17857,0.17857 0.17858,0.89286 0,1.07143 -0.0842,0.0842 -0.27296,-0.0842 -0.35714,0 -0.17857,0.17857 0.17857,0.89285 0,1.07143 -0.0842,0.0842 -0.27296,-0.0842 -0.35714,0 -0.16836,0.16835 0.16836,0.54592 0,0.71428 -0.0842,0.0842 -0.27297,-0.0842 -0.35714,0 -0.17858,0.17857 0.17857,0.89286 0,1.07143 -0.0842,0.0842 -0.27297,-0.0842 -0.35715,0 -0.16836,0.16836 0.16836,0.54593 0,0.71429 -0.0842,0.0842 -0.27296,-0.0842 -0.35714,0 -0.16836,0.16835 0.10648,0.50132 0,0.71428 -0.0753,0.15059 -0.28185,0.20656 -0.35714,0.35714 -0.0532,0.10648 0,0.2381 0,0.35715 0,0.11904 0,0.23809 0,0.35714 0,0.0866 -0.0115,1.05994 0,1.07143 0.16836,0.16836 0.50132,-0.10648 0.71428,0 0.15059,0.0753 0.20656,0.28185 0.35715,0.35714 0.10647,0.0532 0.23809,0 0.35714,0 0.11905,0 0.23809,0 0.35714,0 0.71429,0 1.42857,0 2.14286,0 0.11905,0 0.23809,0 0.35714,0 0.11905,0 0.27296,0.0842 0.35714,0 0.18823,-0.18823 0.16892,-0.52605 0.35715,-0.71428 0.0842,-0.0842 0.23809,0 0.35714,0 0.11905,0 0.23809,0 0.35714,0 0.71429,0 1.42857,0 2.14286,0 0.11905,0 0.27296,-0.0842 0.35714,0 0.0115,0.0115 0,0.98481 0,1.07142 0,0.11905 0.0842,0.27297 0,0.35715 -0.0842,0.0842 -0.27296,-0.0842 -0.35714,0 -0.0842,0.0842 0,0.23809 0,0.35714 0,0.95238 0.11905,-0.11905 -0.35714,0.35714 -0.23792,0.23792 0.23791,0.47637 0,0.71429 -0.0842,0.0842 -0.27297,-0.0842 -0.35715,0 -0.0842,0.0842 0.0532,0.25066 0,0.35714 -0.0753,0.15059 -0.28185,0.20656 -0.35714,0.35714 -0.0532,0.10648 0.0842,0.27297 0,0.35715 -0.0842,0.0842 -0.27296,-0.0842 -0.35714,0 -0.0842,0.0842 0.0842,0.27296 0,0.35714 -0.0842,0.0842 -0.27297,-0.0842 -0.35714,0 -0.16836,0.16836 0.10647,0.50133 0,0.71429 -0.0753,0.15058 -0.28186,0.20655 -0.35715,0.35714 -0.0532,0.10648 0.0842,0.27296 0,0.35714 -0.0842,0.0842 -0.27296,-0.0842 -0.35714,0 -0.17857,0.17857 0.17857,0.89286 0,1.07143 -0.0842,0.0842 -0.27296,-0.0842 -0.35714,0 -0.17857,0.17857 0.17857,0.89286 0,1.07143 -0.0842,0.0842 -0.27297,-0.0842 -0.35715,0 -0.16836,0.16836 0.10648,0.50133 0,0.71428 -0.0753,0.15059 -0.28185,0.20656 -0.35714,0.35715 -0.0708,0.1416 0.073,0.99841 0,1.07143 -0.0842,0.0842 -0.27296,-0.0842 -0.35714,0 -0.16836,0.16835 0.16836,0.54592 0,0.71428 -0.0842,0.0842 -0.27297,-0.0842 -0.35714,0 -0.0115,0.0115 0,0.98481 0,1.07143 0,0.11905 -0.0842,0.27296 0,0.35714 0.0144,0.0144 1.29741,0 1.42857,0 0.95238,0 1.90476,0 2.85714,0 0.11905,0 0.23809,0 0.35714,0 0.11905,0 0.27297,0.0842 0.35715,0 0.0842,-0.0842 -0.0842,-0.27296 0,-0.35714 0.0144,-0.0144 1.29741,0 1.42857,0 0.47619,0 0.95238,0 1.42857,0 0.11905,0 0.23809,0 0.35714,0 0.11905,0 0.35714,-0.11905 0.35714,0 0,0.11905 -0.35714,-0.11905 -0.35714,0 0,0.16836 0.28185,0.20656 0.35714,0.35714 0.0366,0.0733 0.0504,1.02107 0,1.07143 -0.0842,0.0842 -0.27296,-0.0842 -0.35714,0 -0.16836,0.16836 0.16836,0.54593 0,0.71429 -0.0842,0.0842 -0.27296,-0.0842 -0.35714,0 -0.0842,0.0842 0.0842,0.27296 0,0.35714 -0.0842,0.0842 -0.27297,-0.0842 -0.35714,0 -0.17858,0.17857 0.17857,0.89286 0,1.07143 -0.0842,0.0842 -0.27297,-0.0842 -0.35715,0 -0.0859,0.0859 0.0859,1.34263 0,1.42857 -0.0842,0.0842 -0.27296,-0.0842 -0.35714,0 -0.16836,0.16836 0.16836,0.54593 0,0.71429 -0.0842,0.0842 -0.27296,-0.0842 -0.35714,0 -0.17857,0.17857 0.17857,0.89285 0,1.07142 -0.0842,0.0842 -0.27297,-0.0842 -0.35715,0 -0.16836,0.16836 0.16836,0.54593 0,0.71429 -0.0842,0.0842 -0.27296,-0.0842 -0.35714,0 -0.16836,0.16836 0.16836,0.54593 0,0.71429 -0.0842,0.0842 -0.27296,-0.0842 -0.35714,0 -0.16836,0.16835 0.16836,0.54592 0,0.71428 -0.0842,0.0842 -0.27297,-0.0842 -0.35714,0 -0.0842,0.0842 0,0.2381 0,0.35714 0,0.16085 -0.0543,0.96274 0,1.07143 0.0753,0.15059 0.28185,0.20656 0.35714,0.35715 0.0532,0.10648 -0.0842,0.27296 0,0.35714 0.0115,0.0115 0.98481,0 1.07143,0 2.02381,0 4.04762,0 6.07143,0 0.13115,0 1.41419,-0.0144 1.42857,0 0.16836,0.16836 -0.16836,0.54593 0,0.71428 0.0842,0.0842 0.27296,-0.0842 0.35714,0 0.0842,0.0842 0,0.2381 0,0.35715 0,0.11904 0,0.23809 0,0.35714 0,0.83333 0,1.66667 0,2.5 0,0.11905 0.0842,0.27296 0,0.35714 -0.16836,0.16836 -0.54593,-0.16836 -0.71429,0 -0.16836,0.16836 0.16836,0.54593 0,0.71429 -0.0842,0.0842 -0.27296,-0.0842 -0.35714,0 -0.16836,0.16836 0.16836,0.54593 0,0.71428 -0.16836,0.16836 -0.54593,-0.16835 -0.71428,0 -0.16836,0.16836 0.10647,0.50133 0,0.71429 -0.0753,0.15058 -0.28186,0.20656 -0.35715,0.35714 -0.0532,0.10648 0.0842,0.27297 0,0.35715 -0.0842,0.0842 -0.27296,-0.0842 -0.35714,0 -0.0842,0.0842 0.0842,0.27296 0,0.35714 -0.0842,0.0842 -0.27296,-0.0842 -0.35714,0 -0.16836,0.16836 0.16836,0.54593 0,0.71428 -0.16836,0.16836 -0.54593,-0.16835 -0.71429,0 -0.16836,0.16836 0.10648,0.50133 0,0.71429 -0.74317,1.48634 0.0247,-0.3818 -0.71428,0.35714 -0.0842,0.0842 0.0842,0.27297 0,0.35715 -0.0842,0.0842 -0.27297,-0.0842 -0.35715,0 0,0.95238 0.11905,-0.11905 -0.35714,0.35714 -0.0842,0.0842 0.0842,0.27296 0,0.35714 -0.0842,0.0842 -0.27296,-0.0842 -0.35714,0 -0.16836,0.16836 0.16836,0.54593 0,0.71429 -0.0842,0.0842 -0.27297,-0.0842 -0.35715,0 -0.17857,0.17857 0.17858,0.89285 0,1.07143 -0.0842,0.0842 -0.27296,-0.0842 -0.35714,0 -0.0115,0.0115 0,0.98481 0,1.07142 0,0.0866 -0.0115,1.05995 0,1.07143 0.0842,0.0842 0.2381,0 0.35714,0 0.71429,0 1.42858,0 2.14286,0 0.71429,0 1.42857,0 2.14286,0 0.11905,0 0.23809,0 0.35714,0 0.11905,0 0.25066,0.0532 0.35714,0 0.15059,-0.0753 0.20656,-0.28185 0.35715,-0.35714 0.1416,-0.0708 0.99841,0.073 1.07143,0 0.0842,-0.0842 -0.0842,-0.27296 0,-0.35714 0.0859,-0.0859 1.34263,0.0859 1.42857,0 0.0842,-0.0842 -0.0842,-0.27297 0,-0.35715 0.0144,-0.0144 1.29741,0 1.42857,0 0.13115,0 1.4142,-0.0144 1.42857,0 0.0842,0.0842 0,0.2381 0,0.35715 0,0.11904 0,0.23809 0,0.35714 0,1.07143 0,2.14286 0,3.21429 0,0.11904 0,0.23809 0,0.35714 0,0.11905 0.0842,0.27296 0,0.35714 -0.18823,0.18823 -0.52606,0.16891 -0.71429,0.35714 -0.16836,0.16836 0.16836,0.54593 0,0.71429 -0.0842,0.0842 -0.27296,-0.0842 -0.35714,0 -0.0842,0.0842 0.0532,0.25066 0,0.35714 -0.0753,0.15059 -0.28185,0.20656 -0.35714,0.35715 -0.0532,0.10648 0.0842,0.27296 0,0.35714 -0.0842,0.0842 -0.27297,-0.0842 -0.35714,0 -0.16836,0.16836 0.16835,0.54593 0,0.71428 -0.0842,0.0842 -0.27297,-0.0842 -0.35715,0 -0.0842,0.0842 0,0.2381 0,0.35715 -0.11905,0 -0.27296,-0.0842 -0.35714,0 -0.16836,0.16836 0.16836,0.54592 0,0.71428 -0.0842,0.0842 -0.27296,-0.0842 -0.35714,0 -0.0842,0.0842 0.0532,0.25067 0,0.35715 -0.0753,0.15058 -0.28185,0.20655 -0.35715,0.35714 -0.0532,0.10648 0.0532,0.25066 0,0.35714 -0.0753,0.15059 -0.28185,0.20656 -0.35714,0.35714 -0.0469,0.0939 0,1.24182 0,1.42858 0,0.11904 -0.0842,0.27296 0,0.35714 0.0842,0.0842 0.2381,0 0.35714,0 0.11905,0 0.2381,0 0.35715,0 0.11904,0 0.23809,0 0.35714,0 0.11905,0 0.27296,-0.0842 0.35714,0 0.0842,0.0842 -0.0842,0.27296 0,0.35714 0.11059,0.11059 1.67513,-0.11059 1.78572,0 0.0842,0.0842 -0.0842,0.27297 0,0.35714 0.16836,0.16836 0.54592,-0.16835 0.71428,0 0.0842,0.0842 -0.0842,0.27297 0,0.35715 0.17857,0.17857 0.89286,-0.17857 1.07143,0 0.0842,0.0842 -0.0842,0.27296 0,0.35714 0.16836,0.16836 0.54593,-0.16836 0.71429,0 0.0842,0.0842 -0.0842,0.27296 0,0.35714 0.16836,0.16836 0.54592,-0.16836 0.71428,0 0.0842,0.0842 -0.0842,0.27297 0,0.35715 0.0115,0.0115 0.98481,0 1.07143,0 0.95238,0 -0.11905,-0.11905 0.35714,0.35714 0.17858,0.17857 0.89286,-0.17857 1.07143,0 0.0842,0.0842 -0.0842,0.27296 0,0.35714 0.0842,0.0842 0.27297,-0.0842 0.35715,0 0.0115,0.0115 0,0.98481 0,1.07143 0,0.95238 0.11904,-0.11905 -0.35715,0.35714 -0.0842,0.0842 0.0532,0.25067 0,0.35715 -0.0753,0.15058 -0.28185,0.20655 -0.35714,0.35714 -0.10648,0.21296 0.10648,0.50133 0,0.71428 -0.0753,0.15059 -0.26375,0.21706 -0.35714,0.35715 -0.14766,0.22149 -0.16892,0.52605 -0.35715,0.71428 -0.18823,0.18823 -0.52605,0.16892 -0.71428,0.35715 -0.16836,0.16835 0.16836,0.54592 0,0.71428 -0.0842,0.0842 -0.25067,-0.0532 -0.35714,0 -1.48635,0.74317 0.38179,-0.0247 -0.35715,0.71429 -0.0842,0.0842 -0.27296,-0.0842 -0.35714,0 -0.18823,0.18823 -0.19742,0.50132 -0.35714,0.71428 -0.20203,0.26938 -0.47619,0.47619 -0.71429,0.71429 -0.11905,0.11905 -0.19742,0.3039 -0.35714,0.35714 -0.22588,0.0753 -0.54593,-0.16836 -0.71429,0 -0.16836,0.16836 0.0753,0.48841 0,0.71429 -0.22992,0.68977 -0.60679,0.12482 -1.07143,0.35714 -0.10648,0.0532 0.0532,0.25066 0,0.35714 -0.0465,0.093 -0.63633,0.4351 -0.35714,0.71429 0.0859,0.0859 1.34263,-0.0859 1.42857,0 0.0842,0.0842 -0.0842,0.27296 0,0.35714 0.12537,0.12537 1.53903,-0.12334 1.78572,0 0.15058,0.0753 0.20655,0.28185 0.35714,0.35714 0.23201,0.11601 1.55917,-0.11327 1.78571,0 0.15059,0.0753 0.20656,0.28185 0.35715,0.35715 0.21686,0.10843 1.92599,-0.10844 2.14285,0 0.15059,0.0753 0.20656,0.28185 0.35715,0.35714 0.0923,0.0462 1.88971,0 2.14285,0 0.11905,0 0.2381,0 0.35715,0 0.11904,0 0.27296,-0.0842 0.35714,0 0.0842,0.0842 -0.0842,0.27296 0,0.35714 0.17857,0.17857 0.89286,-0.17857 1.07143,0 0.0842,0.0842 -0.0842,0.27297 0,0.35715 0.0842,0.0842 0.27296,-0.0842 0.35714,0 0.0144,0.0144 0,1.29741 0,1.42857 0,0.11904 0.0842,0.27296 0,0.35714 -0.0842,0.0842 -0.27296,-0.0842 -0.35714,0 -0.0842,0.0842 0.0532,0.25066 0,0.35714 -0.0753,0.15059 -0.28185,0.20656 -0.35714,0.35715 -0.0532,0.10648 0.0842,0.27296 0,0.35714 -0.0842,0.0842 -0.27297,-0.0842 -0.35715,0 -0.16836,0.16836 0.16836,0.54593 0,0.71428 -0.0842,0.0842 -0.27296,-0.0842 -0.35714,0 -0.16836,0.16836 0.16836,0.54593 0,0.71429 -0.0842,0.0842 -0.27296,-0.0842 -0.35714,0 -0.0842,0.0842 0.0532,0.25066 0,0.35714 -0.0753,0.15059 -0.28185,0.20656 -0.35715,0.35715 -0.0532,0.10648 0.0842,0.27296 0,0.35714 -0.0842,0.0842 -0.27296,-0.0842 -0.35714,0 -0.16836,0.16836 0.10648,0.50133 0,0.71428 -0.0753,0.15059 -0.28185,0.20656 -0.35714,0.35715 -0.10648,0.21296 0.16836,0.54592 0,0.71428 -0.0842,0.0842 -0.27297,-0.0842 -0.35714,0 -0.0842,0.0842 0,0.2381 0,0.35715 0,0.11904 -0.0842,0.27296 0,0.35714 0.17857,0.17857 0.89285,-0.17857 1.07142,0 0.0842,0.0842 -0.0842,0.27296 0,0.35714 0.0859,0.0859 1.34264,-0.0859 1.42858,0 0.0842,0.0842 0,0.2381 0,0.35714 0.11904,0 0.27296,-0.0842 0.35714,0 0.0842,0.0842 -0.0842,0.27297 0,0.35715 0.16836,0.16836 0.54592,-0.16836 0.71428,0 0.0842,0.0842 -0.0842,0.27296 0,0.35714 0.16836,0.16836 0.54593,-0.16836 0.71429,0 0.0842,0.0842 -0.0842,0.27296 0,0.35714 0.16836,0.16836 0.54593,-0.16836 0.71429,0 0.0842,0.0842 0,0.2381 0,0.35715 0,0.11904 0,0.23809 0,0.35714 0,0.71428 0,1.42857 0,2.14286 0,0.11904 0,0.23809 0,0.35714 0,0.11905 0.0532,0.25066 0,0.35714 -0.0753,0.15059 -0.28186,0.20656 -0.35715,0.35714 -0.0532,0.10648 0.0842,0.27297 0,0.35715 -0.0842,0.0842 -0.27296,-0.0842 -0.35714,0 -0.17857,0.17857 0.17857,0.89285 0,1.07143 -0.0842,0.0842 -0.27296,-0.0842 -0.35714,0 -0.0842,0.0842 0,0.23809 0,0.35714 0,0.11905 -0.0842,0.27296 0,0.35714 0.0144,0.0144 1.29741,0 1.42857,0 0.95238,0 1.90476,0 2.85714,0 0.11905,0 0.2381,0 0.35714,0 0.11905,0 0.27297,-0.0842 0.35715,0 0.0842,0.0842 -0.0842,0.27297 0,0.35714 0.23851,0.23851 0.47577,-0.2385 0.71428,0 0.0842,0.0842 -0.0842,0.27297 0,0.35715 0.0842,0.0842 0.27297,-0.0842 0.35715,0 0.0842,0.0842 0,0.23809 0,0.35714 0,0.11905 0.10647,0.3039 0,0.35714 -0.21296,0.10648 -0.50133,-0.10648 -0.71429,0 -0.10648,0.0532 0.066,0.25809 0,0.35715 -0.18678,0.28016 -0.5637,0.41311 -0.71429,0.71428 -0.10648,0.21296 0.13208,0.51618 0,0.71429 -0.14766,0.22149 -0.50132,0.19742 -0.71428,0.35714 -0.26938,0.20203 -0.51226,0.44491 -0.71429,0.71429 -0.48581,0.64774 -0.19664,0.99117 -1.07143,1.42857 -0.21296,0.10648 -0.50132,-0.10648 -0.71428,0 -0.10648,0.0532 0.0376,0.2442 0,0.35714 -0.0842,0.25254 -0.27297,0.46175 -0.35714,0.71429 -0.0377,0.11293 0.10647,0.3039 0,0.35714 -1.90477,0 0.23809,-0.2381 -0.71429,0.71428 -0.16836,0.16836 -0.54593,-0.16835 -0.71429,0 -0.16836,0.16836 0.10648,0.50133 0,0.71429 -0.0532,0.10648 -0.27296,-0.0842 -0.35714,0 -0.0842,0.0842 0,0.2381 0,0.35714 0,0.2381 0.10648,0.50133 0,0.71429 -0.0532,0.10648 -0.27296,-0.0842 -0.35714,0 -0.0842,0.0842 0.0842,0.27296 0,0.35714 -0.0842,0.0842 -0.27297,-0.0842 -0.35714,0 -0.0842,0.0842 0,0.2381 0,0.35714 -0.11905,0 -0.27297,-0.0842 -0.35715,0 -0.16836,0.16836 0.16836,0.54593 0,0.71429 -0.0842,0.0842 -0.27296,-0.0842 -0.35714,0 -0.0842,0.0842 0.0842,0.27296 0,0.35714 -0.0842,0.0842 -0.27296,-0.0842 -0.35714,0 -0.0842,0.0842 0.0842,0.27297 0,0.35715 -0.0842,0.0842 -0.27297,-0.0842 -0.35715,0 -0.0842,0.0842 0.0842,0.27296 0,0.35714 -0.0842,0.0842 -0.27296,-0.0842 -0.35714,0 -0.0357,0.0357 -0.0357,1.03571 0,1.07143 0.0842,0.0842 0.2381,0 0.35714,0 0.59524,0 1.19048,0 1.78572,0 2.5,0 5,0 7.5,0 0.13115,0 1.4142,-0.0144 1.42857,0 0.0842,0.0842 -0.0842,0.27296 0,0.35714 0.23851,0.23851 0.47578,-0.23851 0.71429,0 0.0144,0.0144 0,1.29742 0,1.42857 0,0.59524 0,1.19048 0,1.78572 0,0.11904 0.0842,0.27296 0,0.35714 -0.0842,0.0842 -0.27297,-0.0842 -0.35715,0 -0.0842,0.0842 0.0842,0.27296 0,0.35714 -0.0842,0.0842 -0.27296,-0.0842 -0.35714,0 -0.17857,0.17857 0.17857,0.89286 0,1.07143 -0.0842,0.0842 -0.27296,-0.0842 -0.35714,0 -0.0842,0.0842 0.0842,0.27296 0,0.35714 -0.0842,0.0842 -0.27297,-0.0842 -0.35715,0 -0.17857,0.17857 0.17858,0.89286 0,1.07143 -0.0842,0.0842 -0.27296,-0.0842 -0.35714,0 -0.0842,0.0842 0.0842,0.27297 0,0.35714 -0.47619,0.47619 -0.35714,-0.59523 -0.35714,0.35715 0,0.11904 0,0.23809 0,0.35714 0,0.11905 0.0842,0.27296 0,0.35714 -0.0842,0.0842 -0.27297,-0.0842 -0.35714,0 -0.0842,0.0842 0,0.2381 0,0.35715 0,0.11904 -0.0842,0.27296 0,0.35714 0.17857,0.17857 0.89285,-0.17857 1.07142,0 0.0842,0.0842 -0.0842,0.27296 0,0.35714 0.0842,0.0842 0.2381,0 0.35715,0 0.11904,0 0.23809,0 0.35714,0 1.42857,0 2.85714,0 4.28571,0 0.13116,0 1.4142,-0.0144 1.42858,0 0.0842,0.0842 0,0.2381 0,0.35714 0,0.1684 0.0162,1.76953 0,1.78572 -0.0842,0.0842 -0.27297,-0.0842 -0.35715,0 -0.16836,0.16836 0.16836,0.54593 0,0.71428 -0.0842,0.0842 -0.27296,-0.0842 -0.35714,0 -0.0842,0.0842 0,0.2381 0,0.35715 -0.11905,0 -0.27296,-0.0842 -0.35714,0 -0.16836,0.16836 0.16836,0.54592 0,0.71428 -0.0842,0.0842 -0.27297,-0.0842 -0.35715,0 -0.16836,0.16836 0.16836,0.54593 0,0.71429 -0.0842,0.0842 -0.25066,-0.0532 -0.35714,0 -1.48634,0.74317 0.3818,-0.0247 -0.35714,0.71428 -0.0842,0.0842 -0.27297,-0.0842 -0.35714,0 -0.16836,0.16836 0.16835,0.54593 0,0.71429 -0.0842,0.0842 -0.27297,-0.0842 -0.35715,0 -0.0842,0.0842 0.0842,0.27296 0,0.35714 -0.0842,0.0842 -0.27296,-0.0842 -0.35714,0 -0.23807,0.23807 0.23807,0.47622 0,0.71429 -0.0842,0.0842 -0.27296,-0.0842 -0.35714,0 -0.16836,0.16836 0.16836,0.54593 0,0.71428 -0.0842,0.0842 -0.27297,-0.0842 -0.35715,0 -0.0842,0.0842 0,0.2381 0,0.35715 0,0.11905 -0.0842,0.27296 0,0.35714 0.0842,0.0842 0.2381,0 0.35715,0 0.11904,0 0.23809,0 0.35714,0 1.30952,0 2.61905,0 3.92857,0 0.11905,0 0.2381,0 0.35714,0 0.11905,0 0.27297,-0.0842 0.35715,0 0.0115,0.0115 0,0.98481 0,1.07143 0,0.13115 0.0144,1.4142 0,1.42857 -0.0842,0.0842 -0.27297,-0.0842 -0.35715,0 -0.16836,0.16836 0.16836,0.54593 0,0.71429 -0.0842,0.0842 -0.27296,-0.0842 -0.35714,0 -0.16836,0.16835 0.16836,0.54592 0,0.71428 -0.0842,0.0842 -0.27296,-0.0842 -0.35714,0 -0.16836,0.16836 0.16836,0.54593 0,0.71429 -0.0842,0.0842 -0.27297,-0.0842 -0.35714,0 0,0.95238 0.11904,-0.11905 -0.35715,0.35714 -0.0842,0.0842 0.0842,0.27296 0,0.35714 -0.0842,0.0842 -0.27296,-0.0842 -0.35714,0 -0.0842,0.0842 0,0.2381 0,0.35715 0,0.11904 -0.0842,0.27296 0,0.35714 0.0842,0.0842 0.23809,0 0.35714,0 0.11905,0 0.2381,0 0.35715,0 1.30952,0 2.61904,0 3.92857,0 0.11904,0 0.23809,0 0.35714,0 0.11905,0 0.27296,-0.0842 0.35714,0 0.0842,0.0842 0,0.23809 0,0.35714 0,0.0866 0.0115,1.05994 0,1.07143 -0.0842,0.0842 -0.27296,-0.0842 -0.35714,0 -0.0842,0.0842 0.0532,0.25066 0,0.35714 -0.0753,0.15059 -0.28185,0.20656 -0.35714,0.35715 -0.0532,0.10648 0.0532,0.25066 0,0.35714 -0.0753,0.15058 -0.28185,0.20656 -0.35715,0.35714 -0.0532,0.10648 0.0532,0.25067 0,0.35714 -0.0753,0.15059 -0.28185,0.20656 -0.35714,0.35715 -0.0532,0.10648 0.0842,0.27296 0,0.35714 -0.0842,0.0842 -0.27296,-0.0842 -0.35714,0 -0.16836,0.16836 0.16836,0.54593 0,0.71429 -0.0842,0.0842 -0.25067,-0.0532 -0.35714,0 -0.78967,0.39483 -0.11083,0.22165 -0.35715,0.71428 -0.0753,0.15059 -0.28185,0.20656 -0.35714,0.35714 -0.10648,0.21296 0.16836,0.54593 0,0.71429 -0.0842,0.0842 -0.27296,-0.0842 -0.35714,0 -0.0842,0.0842 -0.0842,0.27296 0,0.35714 0.0842,0.0842 0.23809,0 0.35714,0 0.11905,0 0.23809,0 0.35714,0 0.83334,0 1.66667,0 2.5,0 0.11905,0 0.27297,-0.0842 0.35715,0 0.0842,0.0842 -0.0842,0.27297 0,0.35715 0.16835,0.16835 0.54592,-0.16836 0.71428,0 0.0842,0.0842 0,0.23809 0,0.35714 0.11905,0 0.27296,-0.0842 0.35714,0 0.0842,0.0842 -0.0842,0.27296 0,0.35714 0.0842,0.0842 0.2381,0 0.35715,0 0.11904,0 0.23809,0 0.35714,0 0.11905,0 0.27296,-0.0842 0.35714,0 0.0842,0.0842 0,0.2381 0,0.35714 0,0.11905 0,0.2381 0,0.35715 0,0.95238 0,1.90476 0,2.85714 0,0.11905 0,0.2381 0,0.35714 0,0.11905 0.0842,0.27297 0,0.35715 -0.0842,0.0842 -0.27296,-0.0842 -0.35714,0 -0.0842,0.0842 0.0842,0.27296 0,0.35714 -0.0842,0.0842 -0.27296,-0.0842 -0.35714,0 -0.16836,0.16836 0.16836,0.54593 0,0.71428 -0.0842,0.0842 -0.27297,-0.0842 -0.35715,0 -0.0842,0.0842 0.0532,0.25067 0,0.35715 -0.15058,0.30117 -0.5637,0.41311 -0.71428,0.71428 -0.0532,0.10648 0.0842,0.27297 0,0.35715 -0.0842,0.0842 -0.27297,-0.0842 -0.35714,0 -0.0842,0.0842 0.0842,0.27296 0,0.35714 -0.0842,0.0842 -0.27297,-0.0842 -0.35715,0 -0.0842,0.0842 -0.0842,0.27296 0,0.35714 0.0144,0.0144 1.29742,0 1.42857,0 1.90477,0 3.80953,0 5.71429,0 0.0866,0 1.05994,-0.0115 1.07143,0 0.0144,0.0144 0,1.29742 0,1.42857 0,0.71429 0,1.42857 0,2.14286 0,0.11905 0.0842,0.27296 0,0.35714 -0.0842,0.0842 -0.27297,-0.0842 -0.35714,0 -0.16836,0.16836 0.16835,0.54593 0,0.71429 -0.0842,0.0842 -0.27297,-0.0842 -0.35715,0 -0.0842,0.0842 0.0842,0.27296 0,0.35714 -0.0842,0.0842 -0.27296,-0.0842 -0.35714,0 -0.16836,0.16836 0.16836,0.54593 0,0.71429 -0.0842,0.0842 -0.27296,-0.0842 -0.35714,0 -0.0842,0.0842 0.0842,0.27296 0,0.35714 -0.0842,0.0842 -0.27297,-0.0842 -0.35715,0 -0.23806,0.23807 0.23807,0.47622 0,0.71429 -0.0842,0.0842 -0.27296,-0.0842 -0.35714,0 -0.0842,0.0842 0.0532,0.25066 0,0.35714 -0.0753,0.15058 -0.28185,0.20656 -0.35714,0.35714 -0.0532,0.10648 0.0842,0.27297 0,0.35714 -0.0842,0.0842 -0.27297,-0.0842 -0.35714,0 -0.0842,0.0842 0.0842,0.27297 0,0.35715 -0.0842,0.0842 -0.27297,-0.0842 -0.35715,0 -0.0842,0.0842 0.0532,0.25066 0,0.35714 -0.0465,0.093 -0.63633,0.4351 -0.35714,0.71429 0.0842,0.0842 0.23809,0 0.35714,0 0.95238,0 1.90476,0 2.85715,0 0.11904,0 0.23809,0 0.35714,0 0.11905,0 0.27296,0.0842 0.35714,0 0.0842,-0.0842 -0.0842,-0.27297 0,-0.35715 0.0842,-0.0842 0.27296,0.0842 0.35714,0 0.0842,-0.0842 -0.0842,-0.27296 0,-0.35714 0.0357,-0.0357 1.03572,-0.0357 1.07143,0 0.0842,0.0842 0,0.2381 0,0.35714 0,0.13116 0.0144,1.4142 0,1.42857 -0.0842,0.0842 -0.27296,-0.0842 -0.35714,0 -0.17857,0.17858 0.17857,0.89286 0,1.07143 -0.0842,0.0842 -0.27296,-0.0842 -0.35714,0 -0.0842,0.0842 0.0842,0.27297 0,0.35715 -0.0842,0.0842 -0.27297,-0.0842 -0.35715,0 -0.16836,0.16835 0.10648,0.50132 0,0.71428 -0.0753,0.15059 -0.28185,0.20656 -0.35714,0.35714 -0.0532,0.10648 0.0842,0.27297 0,0.35715 -0.0842,0.0842 -0.27296,-0.0842 -0.35714,0 -0.16836,0.16836 0.16836,0.54592 0,0.71428 -0.0842,0.0842 -0.27297,-0.0842 -0.35714,0 -0.0115,0.0115 0,0.98482 0,1.07143 0,0.11905 -0.0842,0.27297 0,0.35714 0.0842,0.0842 0.23809,0 0.35714,0 0.11905,0 0.23809,0 0.35714,0 0.16839,0 1.76953,0.0162 1.78572,0 0.0842,-0.0842 -0.0842,-0.27296 0,-0.35714 0.073,-0.073 0.92982,0.0708 1.07142,0 0.15059,-0.0753 0.20656,-0.28185 0.35715,-0.35714 0.1416,-0.0708 0.99841,0.073 1.07143,0 0.0842,-0.0842 -0.0842,-0.27296 0,-0.35714 0.0842,-0.0842 0.23809,0 0.35714,0 0.11905,0 0.27296,-0.0842 0.35714,0 0.0357,0.0357 0.0357,1.03571 0,1.07142 -0.0842,0.0842 -0.27296,-0.0842 -0.35714,0 -0.0842,0.0842 0.0842,0.27297 0,0.35715 -0.16836,0.16836 -0.54593,-0.16836 -0.71429,0 -0.0842,0.0842 0.0532,0.25066 0,0.35714 -0.0753,0.15058 -0.28185,0.20656 -0.35714,0.35714 -0.0532,0.10648 0.0842,0.27297 0,0.35715 -0.0842,0.0842 -0.25066,-0.0532 -0.35714,0 -0.0948,0.0474 -1.02402,0.9766 -1.07143,1.07142 -0.0532,0.10648 0.0842,0.27297 0,0.35715 -0.0842,0.0842 -0.27297,-0.0842 -0.35714,0 -0.0842,0.0842 0.0842,0.27296 0,0.35714 -0.0842,0.0842 -0.27297,-0.0842 -0.35715,0 -0.0842,0.0842 0.0842,0.27296 0,0.35714 -0.16836,0.16836 -0.54592,-0.16836 -0.71428,0 -0.0842,0.0842 0.0842,0.27297 0,0.35715 -0.0842,0.0842 -0.27297,-0.0842 -0.35715,0 -0.0842,0.0842 0.0842,0.27296 0,0.35714 -0.0842,0.0842 -0.27296,-0.0842 -0.35714,0 -0.0842,0.0842 0.0842,0.27296 0,0.35714 -0.0842,0.0842 -0.47619,0 -0.35714,0 1.07143,0 2.14286,0 3.21428,0 0.18676,0 1.33467,0.047 1.42858,0 0.15058,-0.0753 0.20655,-0.28185 0.35714,-0.35714 0.19374,-0.0969 1.33085,0.0977 1.42857,0 0.47619,-0.47619 -0.59524,-0.35714 0.35714,-0.35714 0.16839,0 1.76953,-0.0162 1.78572,0 0.0115,0.0115 0,0.98481 0,1.07142 0,0.11905 0.0842,0.27297 0,0.35715 -0.0842,0.0842 -0.27297,-0.0842 -0.35715,0 -0.0842,0.0842 0.0532,0.25066 0,0.35714 -0.0753,0.15058 -0.28185,0.20656 -0.35714,0.35714 -0.0532,0.10648 0.0842,0.27297 0,0.35715 -0.0842,0.0842 -0.27296,-0.0842 -0.35714,0 -0.16836,0.16835 0.10648,0.50132 0,0.71428 -0.0753,0.15059 -0.28185,0.20656 -0.35714,0.35714 -0.0532,0.10648 0.0842,0.27297 0,0.35715 -0.0842,0.0842 -0.27297,-0.0842 -0.35715,0 -0.23806,0.23806 0.23807,0.47622 0,0.71428 -0.0842,0.0842 -0.27296,-0.0842 -0.35714,0 -0.16836,0.16836 0.16836,0.54593 0,0.71429 -0.0842,0.0842 -0.27296,-0.0842 -0.35714,0 -0.0842,0.0842 0.0842,0.27296 0,0.35714 -0.0842,0.0842 -0.27297,-0.0842 -0.35715,0 -0.0842,0.0842 0,0.2381 0,0.35714 0,0.11905 -0.0842,0.27297 0,0.35715 0.0842,0.0842 0.2381,0 0.35715,0 0.11904,0 0.23809,0 0.35714,0 0.24841,0 1.65656,0.0646 1.78571,0 0.15059,-0.0753 0.20656,-0.28185 0.35715,-0.35715 0.12915,-0.0646 1.5373,0 1.78571,0 0.11905,0 0.27296,0.0842 0.35714,0 0.0842,-0.0842 -0.0842,-0.27296 0,-0.35714 0.17858,-0.17857 0.89286,0.17857 1.07143,0 0.0842,-0.0842 0,-0.23809 0,-0.35714 0.84619,0.27805 1.67955,0.59873 2.53858,0.83416 0.2698,0.0739 1.92736,-0.0929 2.0203,0 0.11905,0.11905 -0.11905,0.38603 0,0.50507 0.2381,0.2381 0.77206,-0.23809 1.01015,0 0.11905,0.11905 0,0.33672 0,0.50508 0,0.16836 0,0.33672 0,0.50508 0,0.84179 0,1.68358 0,2.52538 0,0.16836 0.11905,0.38603 0,0.50507 -0.11904,0.11905 -0.38603,-0.11904 -0.50507,0 -0.2381,0.2381 0.23809,0.77206 0,1.01016 -0.11905,0.11904 -0.42979,-0.15059 -0.50508,0 -0.16338,0.32676 0.18143,1.83887 0,2.0203 -0.11905,0.11905 -0.38603,-0.11905 -0.50508,0 -0.12153,0.12154 0.12154,1.89877 0,2.02031 -0.11904,0.11904 -0.38602,-0.11905 -0.50507,0 -0.2381,0.23809 0.23809,0.77205 0,1.01015 -0.11905,0.11905 -0.50508,0.16836 -0.50508,0 0,-0.16836 0.33672,0 0.50508,0 1.18449,0 -0.2381,-0.11905 1.01015,0.50508 0.15059,0.0753 0.33672,0 0.50508,0 0.16836,0 0.33671,0 0.50507,0 1.51523,0 3.03046,0 4.54569,0 0.16836,0 0.33672,0 0.50508,0 0.16836,0 0.38602,-0.11905 0.50507,0 0.11905,0.11904 0,0.33671 0,0.50507 0,0.22747 0.0769,1.36152 0,1.51523 -0.10648,0.21296 -0.39859,0.29212 -0.50507,0.50508 -0.0753,0.15058 0.11904,0.38603 0,0.50507 -0.11905,0.11905 -0.38603,-0.11904 -0.50508,0 -0.25254,0.25254 0.25254,1.26269 0,1.51523 -0.11905,0.11905 -0.38603,-0.11905 -0.50508,0 -0.23809,0.2381 0.2381,0.77206 0,1.01015 -0.11904,0.11905 -0.38602,-0.11904 -0.50507,0 -0.2381,0.2381 0.23809,0.77206 0,1.01016 -0.67344,0.67343 -0.50508,-0.8418 -0.50508,0.50507 0,0.16836 0.11905,0.38603 0,0.50508 -0.11905,0.11905 -0.38603,-0.11905 -0.50508,0 -0.11904,0.11905 0,0.33672 0,0.50508 0,0.16835 -0.11904,0.38602 0,0.50507 0.11905,0.11905 0.33672,0 0.50508,0 0.16836,0 0.33672,0 0.50508,0 1.34687,0 2.69374,0 4.04061,0 0.16836,0 0.33672,0 0.50507,0 0.16836,0 0.38603,-0.11905 0.50508,0 0.0203,0.0203 0,1.83482 0,2.02031 0,0.16836 0.11905,0.38603 0,0.50507 -0.11905,0.11905 -0.38603,-0.11904 -0.50508,0 -0.23809,0.2381 0.2381,0.77206 0,1.01016 -0.11904,0.11904 -0.38602,-0.11905 -0.50507,0 -0.25254,0.25253 0.25254,1.26269 0,1.51523 -0.11905,0.11904 -0.38603,-0.11905 -0.50508,0 -0.11905,0.11904 0,0.33671 0,0.50507 0,0.16836 -0.11905,0.38603 0,0.50508 0.11905,0.11905 0.33672,0 0.50508,0 0.84179,0 1.68359,0 2.52538,0 0.16836,0 0.38603,-0.11905 0.50508,0 0.11904,0.11905 -0.11905,0.38603 0,0.50507 0.0203,0.0203 1.83482,0 2.0203,0 0.12249,0 1.49899,-0.0162 1.51523,0 0.0203,0.0203 0,1.83483 0,2.02031 0,0.16836 0.11905,0.38603 0,0.50508 -0.11905,0.11904 -0.38603,-0.11905 -0.50508,0 -0.23809,0.23809 0.2381,0.77205 0,1.01015 -0.11904,0.11905 -0.38603,-0.11905 -0.50507,0 -0.25254,0.25254 0.25253,1.26269 0,1.51523 -0.11905,0.11904 -0.38603,-0.11905 -0.50508,0 -0.23809,0.23809 0.2381,0.77205 0,1.01015 -0.11905,0.11905 -0.38603,-0.11905 -0.50508,0 -0.23809,0.23809 0.2381,0.77206 0,1.01015 -0.11904,0.11905 -0.38602,-0.11905 -0.50507,0 -0.0505,0.0505 -0.0505,1.46472 0,1.51523 0.0203,0.0203 1.83482,0 2.0203,0 1.34687,0 -0.16836,-0.16836 0.50508,0.50508 0.11905,0.11904 0.33672,0 0.50508,0 0.16835,0 0.33671,0 0.50507,0 1.68359,0 3.36718,0 5.05076,0 0.16836,0 0.33672,0 0.50508,0 0.16836,0 0.38603,-0.11905 0.50508,0 0.11904,0.11904 0,0.33671 0,0.50507 0,0.18549 0.0203,1.99998 0,2.02031 -0.11905,0.11905 -0.38603,-0.11905 -0.50508,0 -0.23809,0.23809 0.2381,0.77206 0,1.01015 -0.11905,0.11905 -0.38603,-0.11905 -0.50508,0 -0.23809,0.2381 0.2381,0.77206 0,1.01015 -0.11904,0.11905 -0.38602,-0.11904 -0.50507,0 -0.2381,0.2381 0.23809,0.77206 0,1.01016 -0.11905,0.11904 -0.38603,-0.11905 -0.50508,0 -0.11905,0.11904 0.11905,0.38602 0,0.50507 -0.67343,0.67344 -0.50507,-0.84179 -0.50507,0.50508 0,0.16836 0,0.33672 0,0.50507 0,0.16836 0.11904,0.38603 0,0.50508 -0.11905,0.11905 -0.38603,-0.11905 -0.50508,0 -0.11905,0.11905 -0.11905,0.38603 0,0.50508 0.0162,0.0162 1.39273,0 1.51523,0 0.26411,0 1.8875,-0.0664 2.0203,0 0.21296,0.10648 0.29212,0.39859 0.50508,0.50507 0.13059,0.0653 2.67246,0 3.03046,0 0.16836,0 0.38603,-0.11904 0.50507,0 0.0163,0.0163 0,1.39274 0,1.51523 0,0.16836 0.11905,0.38603 0,0.50508 -0.11904,0.11905 -0.38603,-0.11905 -0.50507,0 -0.2381,0.23809 0.23809,0.77206 0,1.01015 -0.11905,0.11905 -0.38603,-0.11905 -0.50508,0 -0.11905,0.11905 0.11905,0.38603 0,0.50508 -0.11905,0.11904 -0.38603,-0.11905 -0.50508,0 -0.25253,0.25254 0.25254,1.26269 0,1.51523 -0.11904,0.11904 -0.38602,-0.11905 -0.50507,0 -0.33684,0.33684 0.33684,0.67331 0,1.01015 -0.11905,0.11905 -0.38603,-0.11905 -0.50508,0 -0.12153,0.12154 0.12154,1.89877 0,2.0203 -0.11905,0.11905 -0.38603,-0.11904 -0.50507,0 -0.0505,0.0505 -0.0505,1.46472 0,1.51523 0.0229,0.0229 2.28723,0 2.52538,0 0.18548,0 1.99998,-0.0203 2.0203,0 0.11905,0.11905 -0.11905,0.38603 0,0.50508 0.11905,0.11905 0.33672,0 0.50508,0 0.84179,0 1.68359,0 2.52538,0 0.16836,0 0.38603,0.11905 0.50508,0 0.11904,-0.11905 -0.11905,-0.38603 0,-0.50508 0.11904,-0.11905 0.33671,0 0.50507,0 0.16836,0 0.33672,0 0.50508,0 0.16836,0 0.38603,0.11905 0.50508,0 0.11904,-0.11905 -0.11905,-0.38603 0,-0.50507 0.11904,-0.11905 0.33671,0 0.50507,0 0.16836,0 0.38603,-0.11905 0.50508,0 0.11905,0.11904 0,0.33671 0,0.50507 0,1.01016 0,2.02031 0,3.03046 0,0.16836 0,0.33672 0,0.50508 0,0.16836 0.11905,0.38603 0,0.50507 -0.11905,0.11905 -0.38603,-0.11904 -0.50508,0 -0.23809,0.2381 0.2381,0.77206 0,1.01016 -0.11905,0.11904 -0.38603,-0.11905 -0.50507,0 -0.11905,0.11904 0.11904,0.38602 0,0.50507 -0.11905,0.11905 -0.38603,-0.11905 -0.50508,0 -0.11905,0.11905 -0.11905,0.38603 0,0.50508 0.11905,0.11905 0.33672,0 0.50508,0 0.16835,0 0.33671,0 0.50507,0 1.68359,0 3.36718,0 5.05076,0 0.35526,0 1.40788,-0.29038 1.01016,0.50507 -0.10648,0.21296 -0.3986,0.29212 -0.50508,0.50508 -0.0753,0.15059 0.11905,0.38603 0,0.50508 -0.11905,0.11904 -0.38603,-0.11905 -0.50508,0 -0.11904,0.11904 0.11905,0.38603 0,0.50507 -0.11904,0.11905 -0.38602,-0.11904 -0.50507,0 -0.11905,0.11905 0.0753,0.35449 0,0.50508 -0.10648,0.21296 -0.3986,0.29212 -0.50508,0.50508 -0.0753,0.15058 0.11905,0.38602 0,0.50507 -0.11905,0.11905 -0.38603,-0.11905 -0.50507,0 -0.11905,0.11905 0.11904,0.38603 0,0.50508 -1.04503,1.04502 0.0408,-1.59693 -1.01016,0.50507 -0.15058,0.30117 0.2381,0.77206 0,1.01016 -0.23809,0.23809 -0.77205,-0.2381 -1.01015,0 -0.11905,0.11904 0.0753,0.35449 0,0.50507 -0.10648,0.21296 -0.3986,0.29212 -0.50508,0.50508 -0.0753,0.15058 0.11905,0.38603 0,0.50508 -0.11904,0.11904 -0.38602,-0.11905 -0.50507,0 -0.11905,0.11904 -0.11905,0.38602 0,0.50507 0.0162,0.0163 1.39273,0 1.51523,0 2.52538,0 5.05076,0 7.57614,0 0.1225,0 1.49899,-0.0162 1.51523,0 0.11905,0.11905 0,0.33672 0,0.50508 0,0.16836 0.11905,0.38603 0,0.50507 -0.11905,0.11905 -0.38603,-0.11904 -0.50508,0 -0.11904,0.11905 0.11905,0.38603 0,0.50508 -0.11904,0.11905 -0.38603,-0.11905 -0.50507,0 -0.2381,0.2381 0.23809,0.77206 0,1.01015 -0.11905,0.11905 -0.38603,-0.11904 -0.50508,0 -0.23809,0.2381 0.2381,0.77206 0,1.01016 -0.11905,0.11904 -0.38603,-0.11905 -0.50508,0 -0.11904,0.11904 0.11905,0.38602 0,0.50507 -0.11904,0.11905 -0.38602,-0.11905 -0.50507,0 -0.33684,0.33684 0.33684,0.67331 0,1.01015 -0.11905,0.11905 -0.38603,-0.11904 -0.50508,0 -0.23809,0.2381 0.2381,0.77206 0,1.01016 -0.11905,0.11904 -0.38603,-0.11905 -0.50507,0 -0.11905,0.11904 0.11904,0.38603 0,0.50507 -0.11905,0.11905 -0.50508,0.16836 -0.50508,0 0,-0.16836 0.33672,0 0.50508,0 0.16835,0 0.33671,0 0.50507,0 1.17851,0 2.35702,0 3.53554,0 0.16835,0 0.38602,0.11905 0.50507,0 0.11905,-0.11904 -0.11905,-0.38603 0,-0.50507 0.2381,-0.2381 0.77206,0.23809 1.01015,0 0.11905,-0.11905 -0.11904,-0.38603 0,-0.50508 0.2381,-0.23809 0.77206,0.2381 1.01016,0 0.11904,-0.11905 -0.11905,-0.38603 0,-0.50508 0.11904,-0.11904 0.35449,0.0753 0.50507,0 0.21296,-0.10647 0.29212,-0.39859 0.50508,-0.50507 0.15058,-0.0753 0.33672,0 0.50508,0 0.16835,0 0.38602,-0.11905 0.50507,0 0.11905,0.11905 0,0.33672 0,0.50507 0,0.18549 0.0203,1.99998 0,2.02031 -0.11905,0.11905 -0.38603,-0.11905 -0.50507,0 -0.11905,0.11905 0.11904,0.38603 0,0.50508 -0.11905,0.11904 -0.38603,-0.11905 -0.50508,0 -0.2381,0.23809 0.15058,0.70898 0,1.01015 -0.10648,0.21296 -0.3986,0.29212 -0.50508,0.50507 -0.15058,0.30117 0.2381,0.77206 0,1.01016 -0.11904,0.11905 -0.38603,-0.11905 -0.50507,0 -0.11905,0.11905 -0.11905,0.38603 0,0.50507 0.11904,0.11905 0.33671,0 0.50507,0 0.16836,0 0.33672,0 0.50508,0 1.51523,0 3.03046,0 4.54569,0 0.16835,0 0.33671,0 0.50507,0 0.16836,0 0.38603,-0.11904 0.50508,0 0.11905,0.11905 0,0.33672 0,0.50508 0,0.16836 0.11905,0.38603 0,0.50508 -0.11905,0.11904 -0.38603,-0.11905 -0.50508,0 -0.11905,0.11904 0.11905,0.38602 0,0.50507 -0.11905,0.11905 -0.38603,-0.11905 -0.50507,0 -0.11905,0.11905 0.11904,0.38603 0,0.50508 -0.11905,0.11905 -0.38603,-0.11905 -0.50508,0 -0.2381,0.23809 0.15058,0.70898 0,1.01015 -0.10648,0.21296 -0.3986,0.29212 -0.50508,0.50508 -0.0753,0.15058 0.11905,0.38603 0,0.50507 -0.11904,0.11905 -0.38603,-0.11904 -0.50507,0 -0.11905,0.11905 0.0753,0.3545 0,0.50508 -0.10648,0.21296 -0.3986,0.29212 -0.50508,0.50508 -0.15058,0.30117 0.2381,0.77205 0,1.01015 -0.11905,0.11905 -0.38603,-0.11905 -0.50508,0 -0.23809,0.23809 0.2381,0.77206 0,1.01015 -0.11904,0.11905 -0.38602,-0.11905 -0.50507,0 -0.11905,0.11905 0.11905,0.38603 0,0.50508 -0.11905,0.11905 -0.38603,-0.11905 -0.50508,0 -0.11905,0.11905 -0.11905,0.38603 0,0.50507 0.11905,0.11905 0.33672,0 0.50508,0 0.16836,0 0.33672,0 0.50507,0 0.18549,0 1.99998,0.0203 2.02031,0 0.11905,-0.11904 -0.11905,-0.38602 0,-0.50507 0.11905,-0.11905 0.38603,0.11905 0.50508,0 0.11904,-0.11905 -0.11905,-0.38603 0,-0.50508 0.11904,-0.11905 0.38602,0.11905 0.50507,0 0.11905,-0.11905 -0.11905,-0.38603 0,-0.50507 1.04502,-1.04503 -0.0408,1.59693 1.01015,-0.50508 0.0753,-0.15059 -0.11904,-0.38603 0,-0.50508 0.11905,-0.11904 0.38603,0.11905 0.50508,0 0.11905,-0.11904 -0.11905,-0.38603 0,-0.50507 0.11905,-0.11905 0.38603,0.11904 0.50508,0 0.11904,-0.11905 -0.11905,-0.38603 0,-0.50508 0.11904,-0.11905 0.38603,0.11905 0.50507,0 0.11905,-0.11905 -0.11904,-0.38603 0,-0.50508 0.11905,-0.11904 0.33672,0 0.50508,0 0.16836,0 0.38603,-0.11904 0.50508,0 0.11904,0.11905 0,0.33672 0,0.50508 0,0.16836 0,0.33672 0,0.50508 0,0.12249 0.0162,1.49898 0,1.51523 -0.11905,0.11904 -0.38603,-0.11905 -0.50508,0 -0.11905,0.11904 0.0753,0.35449 0,0.50507 -0.10648,0.21296 -0.3986,0.29212 -0.50508,0.50508 -0.0753,0.15058 0.11905,0.38603 0,0.50507 -0.11904,0.11905 -0.38603,-0.11904 -0.50507,0 -0.25254,0.25254 0.25254,1.26269 0,1.51523 -0.11905,0.11905 -0.38603,-0.11904 -0.50508,0 -0.10325,0.10326 0.10013,1.31497 0,1.51523 -0.10648,0.21296 -0.50508,0.26698 -0.50508,0.50508 0,0.16836 0.33672,0 0.50508,0 0.50508,0 1.01015,0 1.51523,0 0.84179,0 1.68359,0 2.52538,0 0.16836,0 0.38603,0.11905 0.50508,0 0.67343,-0.67344 -0.8418,-0.50508 0.50507,-0.50508 0.16836,0 0.33672,0 0.50508,0 0.16836,0 0.38603,-0.11905 0.50508,0 0.0162,0.0162 0,1.39274 0,1.51523 0,0.16836 0,0.33672 0,0.50508 0,0.16836 0.11904,0.38603 0,0.50507 -0.11905,0.11905 -0.38603,-0.11904 -0.50508,0 -0.2381,0.2381 0.15058,0.70899 0,1.01016 -0.10648,0.21295 -0.3986,0.29211 -0.50508,0.50507 -0.15058,0.30117 0.2381,0.77206 0,1.01015 -0.11904,0.11905 -0.38602,-0.11904 -0.50507,0 -0.2381,0.2381 0.23809,0.77206 0,1.01016 -0.11905,0.11904 -0.38603,-0.11905 -0.50508,0 -0.23809,0.23809 0.15059,0.70898 0,1.01015 -0.10648,0.21296 -0.3986,0.29212 -0.50508,0.50508 -0.0753,0.15058 0.11905,0.38602 0,0.50507 -0.11904,0.11905 -0.38602,-0.11905 -0.50507,0 -0.25254,0.25254 0.25254,1.26269 0,1.51523 -0.11905,0.11905 -0.38603,-0.11905 -0.50508,0 -0.12153,0.12154 0.12154,1.89877 0,2.02031 -0.11905,0.11904 -0.38603,-0.11905 -0.50507,0 -0.2381,0.23809 0.23809,0.77205 0,1.01015 -0.11905,0.11905 -0.38603,-0.11905 -0.50508,0 -0.11905,0.11905 -0.11905,0.38603 0,0.50507 0.11905,0.11905 0.33672,0 0.50508,0 0.16835,0 0.33671,0 0.50507,0 0.8418,0 1.68359,0 2.52538,0 0.16836,0 0.38603,0.11905 0.50508,0 0.11905,-0.11904 -0.11905,-0.38602 0,-0.50507 0.0505,-0.0505 1.46472,-0.0505 1.51523,0 0.11905,0.11905 0,0.33672 0,0.50507 0,0.16836 0,0.33672 0,0.50508 0,0.22747 0.0769,1.36152 0,1.51523 -0.10648,0.21296 -0.3986,0.29212 -0.50508,0.50508 -0.0518,0.1036 -0.0712,1.444 0,1.51522 0.0203,0.0203 1.83483,0 2.02031,0 0.33672,0 0.67343,0 1.01015,0 0.84179,0 1.68359,0 2.52538,0 0.16836,0 0.38603,0.11905 0.50508,0 0.11905,-0.11904 -0.11905,-0.38602 0,-0.50507 0.23809,-0.2381 0.77206,0.23809 1.01015,0 0.11905,-0.11905 -0.11905,-0.38603 0,-0.50508 0.25254,-0.25254 1.26269,0.25254 1.51523,0 0.11905,-0.11905 -0.11905,-0.38603 0,-0.50507 0.23809,-0.2381 0.77206,0.23809 1.01015,0 0.11905,-0.11905 0,-0.67344 0,-0.50508 0,0.67343 0,1.34687 0,2.0203 0,0.16836 0.11905,0.38603 0,0.50508 -0.11905,0.11905 -0.38603,-0.11905 -0.50507,0 -0.2381,0.2381 0.23809,0.77206 0,1.01015 -0.11905,0.11905 -0.38603,-0.11904 -0.50508,0 -0.12154,0.12154 0.12154,1.89877 0,2.02031 -0.11905,0.11905 -0.38603,-0.11905 -0.50508,0 -0.11904,0.11905 0.11905,0.38603 0,0.50508 -0.11904,0.11904 -0.38603,-0.11905 -0.50507,0 -0.2381,0.23809 0.23809,0.77205 0,1.01015 -0.11905,0.11905 -0.38603,-0.11905 -0.50508,0 -0.23809,0.23809 0.2381,0.77206 0,1.01015 -0.11905,0.11905 -0.38603,-0.11905 -0.50508,0 -0.25253,0.25254 0.25254,1.26269 0,1.51523 -0.11904,0.11905 -0.38602,-0.11905 -0.50507,0 -0.11905,0.11905 -0.11905,0.38603 0,0.50508 0.11905,0.11904 0.33672,0 0.50507,0 1.17852,0 2.35703,0 3.53554,0 0.16836,0 0.33672,0 0.50507,0 0.16836,0 0.50508,-0.16836 0.50508,0 0,0.16835 -0.38603,-0.11905 -0.50508,0 -0.11904,0.11904 0.11905,0.38602 0,0.50507 -0.11904,0.11905 -0.38602,-0.11905 -0.50507,0 -0.11905,0.11905 0.11905,0.38603 0,0.50508 -0.11905,0.11905 -0.38603,-0.11905 -0.50508,0 -0.23809,0.23809 0.2381,0.77206 0,1.01015 -0.11905,0.11905 -0.38603,-0.11905 -0.50507,0 -0.11905,0.11905 0.11904,0.38603 0,0.50508 -0.11905,0.11904 -0.38603,-0.11905 -0.50508,0 -0.11905,0.11904 0.11905,0.38603 0,0.50507 -0.11905,0.11905 -0.38603,-0.11904 -0.50508,0 -0.23809,0.2381 0.2381,0.77206 0,1.01016 -0.11904,0.11904 -0.38603,-0.11905 -0.50507,0 -0.11905,0.11904 0.11904,0.38602 0,0.50507 -0.11905,0.11905 -0.38603,-0.11905 -0.50508,0 -0.11905,0.11905 -0.11905,0.38603 0,0.50508 0.11905,0.11905 0.50508,-0.16836 0.50508,0 0,0.16836 -0.67344,0 -0.50508,0 0.12002,0 1.9071,-0.0566 2.02031,0 0.21295,0.10648 0.29211,0.39859 0.50507,0.50507 0.15059,0.0753 0.33672,0 0.50508,0 0.16836,0 0.33672,0 0.50507,0"
       id="path3803"
       style="fill:none;stroke:#000000;stroke-width:1px;stroke-linecap:butt;stroke-linejoin:miter;stroke-opacity:1" />
    <path
       d="m 472.7514,355.1044 a 4.0406103,24.496199 0 1 1 -8.08123,0 4.0406103,24.496199 0 1 1 8.08123,0 z"
       transform="matrix(1,0,0,1.2061856,-0.50507627,-78.268167)"
       id="path3757"
       style="fill:#ffccaa;stroke:none" />
    <flowRoot
       transform="translate(-33.587572,-19.697975)"
       id="flowRoot3807"
       xml:space="preserve"
       style="font-size:4px;font-style:normal;font-weight:normal;line-height:125%;letter-spacing:0px;word-spacing:0px;fill:#000000;fill-opacity:1;stroke:none;font-family:Sans"><flowRegion
         id="flowRegion3809"><rect
           width="67.562325"
           height="62.285179"
           x="517.14288"
           y="336.64789"
           id="rect3811"
           style="font-size:4px" /></flowRegion><flowPara
         id="flowPara3813">Curly telephone cable(s), or something similar that gives the arms plenty of wiggle room. The wire also goes back behind the ears offers strain support or whatever it's called. There also needs to be some kind of strain support on the wrist/hand end of course, which I'm currently solving using a wristband</flowPara></flowRoot>    <path
       d="m 639.28574,695.57648 a 17.142857,33.214287 0 1 1 -34.28571,0 17.142857,33.214287 0 1 1 34.28571,0 z"
       transform="matrix(0.67502959,-0.42555754,0.46112186,0.6229675,-119.99606,502.72682)"
       id="path3815"
       style="fill:#ffccaa;stroke:none" />
    <path
       d="m 639.28574,694.86218 a 4.6428571,26.071428 0 1 1 -9.28571,0 4.6428571,26.071428 0 1 1 9.28571,0 z"
       transform="matrix(0.68126485,-0.73203702,0.73203702,0.68126485,-297.09614,666.05909)"
       id="path3817"
       style="fill:#ffccaa;stroke:none" />
    <path
       d="m 639.28574,694.86218 a 4.6428571,26.071428 0 1 1 -9.28571,0 4.6428571,26.071428 0 1 1 9.28571,0 z"
       transform="matrix(0.68126485,-0.73203702,0.73203702,0.68126485,-304.239,677.48766)"
       id="path3819"
       style="fill:#ffccaa;stroke:none" />
    <path
       d="m 639.28574,694.86218 a 4.6428571,26.071428 0 1 1 -9.28571,0 4.6428571,26.071428 0 1 1 9.28571,0 z"
       transform="matrix(0.68126485,-0.73203702,0.73203702,0.68126485,-309.239,688.91623)"
       id="path3821"
       style="fill:#ffccaa;stroke:none" />
    <path
       d="m 639.28574,694.86218 a 4.6428571,26.071428 0 1 1 -9.28571,0 4.6428571,26.071428 0 1 1 9.28571,0 z"
       transform="matrix(0.68126485,-0.73203702,0.73203702,0.68126485,-319.239,691.77337)"
       id="path3823"
       style="fill:#ffccaa;stroke:none" />
    <path
       d="m 639.28574,694.86218 a 4.6428571,26.071428 0 1 1 -9.28571,0 4.6428571,26.071428 0 1 1 9.28571,0 z"
       transform="matrix(0.68126485,-0.73203702,0.73203702,0.68126485,-332.09614,699.63051)"
       id="path3825"
       style="fill:#ffccaa;stroke:none" />
    <flowRoot
       transform="translate(249.50768,237.67415)"
       id="flowRoot3827"
       xml:space="preserve"
       style="font-size:40px;font-style:normal;font-weight:normal;line-height:125%;letter-spacing:0px;word-spacing:0px;fill:#000000;fill-opacity:1;stroke:none;font-family:Sans"><flowRegion
         id="flowRegion3829"><rect
           width="58.000717"
           height="25.677111"
           x="327.14285"
           y="427.07199"
           id="rect3831" /></flowRegion><flowPara
         id="flowPara3833"
         style="font-size:4px">Yea the sensors and the fingers they are attached to are too difficult to draw :-P</flowPara></flowRoot>  </g>
</svg>
