<?xml version="1.0" encoding="UTF-8" standalone="no"?>
<!-- Created with Inkscape (http://www.inkscape.org/) -->

<svg
   xmlns:dc="http://purl.org/dc/elements/1.1/"
   xmlns:cc="http://creativecommons.org/ns#"
   xmlns:rdf="http://www.w3.org/1999/02/22-rdf-syntax-ns#"
   xmlns:svg="http://www.w3.org/2000/svg"
   xmlns="http://www.w3.org/2000/svg"
   xmlns:sodipodi="http://sodipodi.sourceforge.net/DTD/sodipodi-0.dtd"
   xmlns:inkscape="http://www.inkscape.org/namespaces/inkscape"
   width="309.07269"
   height="367.7395"
   id="svg2846"
   version="1.1"
   inkscape:version="0.47 r22583"
   sodipodi:docname="launchPlaceholderSvgStickFigureMeditating.svg">
  <defs
     id="defs2848">
    <inkscape:perspective
       sodipodi:type="inkscape:persp3d"
       inkscape:vp_x="0 : 526.18109 : 1"
       inkscape:vp_y="0 : 1000 : 0"
       inkscape:vp_z="744.09448 : 526.18109 : 1"
       inkscape:persp3d-origin="372.04724 : 350.78739 : 1"
       id="perspective2854" />
  </defs>
  <sodipodi:namedview
     id="base"
     pagecolor="#ffffff"
     bordercolor="#666666"
     borderopacity="1.0"
     inkscape:pageopacity="0.0"
     inkscape:pageshadow="2"
     inkscape:zoom="1.4"
     inkscape:cx="170.7397"
     inkscape:cy="179.28947"
     inkscape:document-units="px"
     inkscape:current-layer="layer1"
     showgrid="false"
     inkscape:window-width="1280"
     inkscape:window-height="972"
     inkscape:window-x="0"
     inkscape:window-y="0"
     inkscape:window-maximized="1" />
  <metadata
     id="metadata2851">
    <rdf:RDF>
      <cc:Work
         rdf:about="">
        <dc:format>image/svg+xml</dc:format>
        <dc:type
           rdf:resource="http://purl.org/dc/dcmitype/StillImage" />
        <dc:title></dc:title>
      </cc:Work>
    </rdf:RDF>
  </metadata>
  <g
     inkscape:label="Layer 1"
     inkscape:groupmode="layer"
     id="layer1"
     transform="translate(-268.01421,-166.12305)">
    <rect
       style="fill:none;stroke:#000000;stroke-width:1.20220506;stroke-miterlimit:4;stroke-opacity:1;stroke-dasharray:none"
       id="rect2879"
       width="6.6233974"
       height="46.171635"
       x="494.00024"
       y="271.87552" />
    <rect
       y="322.58981"
       x="494.00024"
       height="46.171635"
       width="6.6233974"
       id="rect3653"
       style="fill:none;stroke:#000000;stroke-width:1.20220506;stroke-miterlimit:4;stroke-opacity:1;stroke-dasharray:none" />
    <rect
       style="fill:none;stroke:#000000;stroke-width:1.20220506;stroke-miterlimit:4;stroke-opacity:1;stroke-dasharray:none"
       id="rect3655"
       width="6.6233974"
       height="46.171635"
       x="494.00024"
       y="374.73267" />
    <rect
       y="271.87552"
       x="345.4288"
       height="46.171635"
       width="6.6233974"
       id="rect3657"
       style="fill:none;stroke:#000000;stroke-width:1.20220506;stroke-miterlimit:4;stroke-opacity:1;stroke-dasharray:none" />
    <rect
       style="fill:none;stroke:#000000;stroke-width:1.20220506;stroke-miterlimit:4;stroke-opacity:1;stroke-dasharray:none"
       id="rect3659"
       width="6.6233974"
       height="46.171635"
       x="345.4288"
       y="322.58981" />
    <rect
       y="374.73267"
       x="345.4288"
       height="46.171635"
       width="6.6233974"
       id="rect3661"
       style="fill:none;stroke:#000000;stroke-width:1.20220506;stroke-miterlimit:4;stroke-opacity:1;stroke-dasharray:none" />
    <rect
       style="fill:none;stroke:#000000;stroke-width:1.10247862;stroke-miterlimit:4;stroke-opacity:1;stroke-dasharray:none"
       id="rect3663"
       width="41.008839"
       height="6.2713609"
       x="355.37897"
       y="271.82568" />
    <rect
       y="271.82568"
       x="403.23611"
       height="6.2713609"
       width="41.008839"
       id="rect3665"
       style="fill:none;stroke:#000000;stroke-width:1.10247862;stroke-miterlimit:4;stroke-opacity:1;stroke-dasharray:none" />
    <rect
       style="fill:none;stroke:#000000;stroke-width:1.10247862;stroke-miterlimit:4;stroke-opacity:1;stroke-dasharray:none"
       id="rect3667"
       width="41.008839"
       height="6.2713609"
       x="448.23611"
       y="271.82568" />
    <rect
       y="413.96854"
       x="355.37897"
       height="6.2713609"
       width="41.008839"
       id="rect3669"
       style="fill:none;stroke:#000000;stroke-width:1.10247862;stroke-miterlimit:4;stroke-opacity:1;stroke-dasharray:none" />
    <rect
       style="fill:none;stroke:#000000;stroke-width:1.10247862;stroke-miterlimit:4;stroke-opacity:1;stroke-dasharray:none"
       id="rect3671"
       width="41.008839"
       height="6.2713609"
       x="403.23611"
       y="413.96854" />
    <rect
       y="413.96854"
       x="448.23611"
       height="6.2713609"
       width="41.008839"
       id="rect3673"
       style="fill:none;stroke:#000000;stroke-width:1.10247862;stroke-miterlimit:4;stroke-opacity:1;stroke-dasharray:none" />
    <rect
       style="fill:none;stroke:#000000;stroke-width:1.20220506;stroke-miterlimit:4;stroke-opacity:1;stroke-dasharray:none"
       id="rect3675"
       width="6.6233974"
       height="46.171635"
       x="406.72513"
       y="220.47798"
       transform="matrix(0.96592583,0.25881905,-0.25881905,0.96592583,0,0)" />
    <rect
       transform="matrix(0.96592583,0.25881905,-0.25881905,0.96592583,0,0)"
       y="177.38106"
       x="393.69836"
       height="46.171635"
       width="6.6233974"
       id="rect3677"
       style="fill:none;stroke:#000000;stroke-width:1.20220506;stroke-miterlimit:4;stroke-opacity:1;stroke-dasharray:none" />
    <rect
       style="fill:none;stroke:#000000;stroke-width:1.20220506;stroke-miterlimit:4;stroke-opacity:1;stroke-dasharray:none"
       id="rect3679"
       width="6.6233974"
       height="46.171635"
       x="392.47064"
       y="227.99487"
       transform="matrix(0.96592583,0.25881905,-0.25881905,0.96592583,0,0)" />
    <rect
       transform="matrix(0.86602541,-0.49999999,0.49999999,0.86602541,0,0)"
       y="420.1254"
       x="75.858574"
       height="46.171635"
       width="6.6233974"
       id="rect3681"
       style="fill:none;stroke:#000000;stroke-width:1.20220506;stroke-miterlimit:4;stroke-opacity:1;stroke-dasharray:none" />
    <rect
       style="fill:none;stroke:#000000;stroke-width:1.20220506;stroke-miterlimit:4;stroke-opacity:1;stroke-dasharray:none"
       id="rect3683"
       width="6.6233974"
       height="46.171635"
       x="58.601254"
       y="435.73029"
       transform="matrix(0.86602541,-0.49999999,0.49999999,0.86602541,0,0)" />
    <rect
       transform="matrix(0.5,0.8660254,-0.8660254,0.5,0,0)"
       y="-106.66817"
       x="483.68616"
       height="46.171635"
       width="6.6233974"
       id="rect3685"
       style="fill:none;stroke:#000000;stroke-width:1.20220506;stroke-miterlimit:4;stroke-opacity:1;stroke-dasharray:none" />
    <rect
       transform="matrix(-0.96592583,0.25881905,0.25881905,0.96592583,0,0)"
       y="439.20627"
       x="-409.5799"
       height="46.171635"
       width="6.6233974"
       id="rect3687"
       style="fill:none;stroke:#000000;stroke-width:1.20220506;stroke-miterlimit:4;stroke-opacity:1;stroke-dasharray:none" />
    <rect
       style="fill:none;stroke:#000000;stroke-width:1.20220506;stroke-miterlimit:4;stroke-opacity:1;stroke-dasharray:none"
       id="rect3689"
       width="6.6233974"
       height="46.171635"
       x="-422.60663"
       y="396.10934"
       transform="matrix(-0.96592583,0.25881905,0.25881905,0.96592583,0,0)" />
    <rect
       transform="matrix(-0.96592583,0.25881905,0.25881905,0.96592583,0,0)"
       y="446.72314"
       x="-423.83435"
       height="46.171635"
       width="6.6233974"
       id="rect3691"
       style="fill:none;stroke:#000000;stroke-width:1.20220506;stroke-miterlimit:4;stroke-opacity:1;stroke-dasharray:none" />
    <rect
       style="fill:none;stroke:#000000;stroke-width:1.20220506;stroke-miterlimit:4;stroke-opacity:1;stroke-dasharray:none"
       id="rect3693"
       width="6.6233974"
       height="46.171635"
       x="-656.02045"
       y="-2.4251351"
       transform="matrix(-0.86602541,-0.49999999,-0.49999999,0.86602541,0,0)" />
    <rect
       transform="matrix(-0.86602541,-0.49999999,-0.49999999,0.86602541,0,0)"
       y="13.179724"
       x="-673.27777"
       height="46.171635"
       width="6.6233974"
       id="rect3695"
       style="fill:none;stroke:#000000;stroke-width:1.20220506;stroke-miterlimit:4;stroke-opacity:1;stroke-dasharray:none" />
    <rect
       style="fill:none;stroke:#000000;stroke-width:1.20220506;stroke-miterlimit:4;stroke-opacity:1;stroke-dasharray:none"
       id="rect3697"
       width="6.6233974"
       height="46.171635"
       x="61.135578"
       y="625.21088"
       transform="matrix(-0.5,0.8660254,0.8660254,0.5,0,0)" />
    <path
       sodipodi:type="spiral"
       style="fill:none;stroke:#000000;stroke-width:1;stroke-linecap:butt;stroke-linejoin:miter;stroke-miterlimit:4;stroke-opacity:1;stroke-dasharray:none"
       id="path3699"
       sodipodi:cx="478.57144"
       sodipodi:cy="190.21933"
       sodipodi:expansion="146.39999"
       sodipodi:revolution="14.281005"
       sodipodi:radius="17.595898"
       sodipodi:argument="-90.844391"
       sodipodi:t0="0"
       d="m 478.57144,190.21933 c 0,0 0,0 0,0 0,0 0,0 0,0 0,0 0,0 0,0 0,0 0,0 0,0 0,0 0,0 0,0 0,0 0,0 0,0 -2e-5,0 -3e-5,-4e-5 -4e-5,-5e-5 -4e-5,-3.6e-4 6.2e-4,-5.1e-4 8.3e-4,-5.3e-4 0.005,-6.3e-4 0.008,0.009 0.008,0.0125 0.008,0.0781 -0.13241,0.11011 -0.18075,0.11493 -1.07635,0.1072 -1.5052,-1.80927 -1.56693,-2.48294 -0.52284,-5.70527 5.2694,-10.76118 9.49695,-13.43722"
       transform="matrix(3.0449952,-3.0449952,3.0449952,3.0449952,-1624.2899,1136.8569)" />
    <path
       transform="matrix(-3.0449952,-3.0449952,-3.0449952,3.0449952,2456.0231,1136.8569)"
       d="m 478.57144,190.21933 c 0,0 0,0 0,0 0,0 0,0 0,0 0,0 0,0 0,0 0,0 0,0 0,0 0,0 0,0 0,0 0,0 0,0 0,0 -2e-5,0 -3e-5,-4e-5 -4e-5,-5e-5 -4e-5,-3.6e-4 6.2e-4,-5.1e-4 8.3e-4,-5.3e-4 0.005,-6.3e-4 0.008,0.009 0.008,0.0125 0.008,0.0781 -0.13241,0.11011 -0.18075,0.11493 -1.07635,0.1072 -1.5052,-1.80927 -1.56693,-2.48294 -0.52284,-5.70527 5.2694,-10.76118 9.49695,-13.43722"
       sodipodi:t0="0"
       sodipodi:argument="-90.844391"
       sodipodi:radius="17.595898"
       sodipodi:revolution="14.281005"
       sodipodi:expansion="146.39999"
       sodipodi:cy="190.21933"
       sodipodi:cx="478.57144"
       id="path3701"
       style="fill:none;stroke:#000000;stroke-width:1;stroke-linecap:butt;stroke-linejoin:miter;stroke-miterlimit:4;stroke-opacity:1;stroke-dasharray:none"
       sodipodi:type="spiral" />
    <path
       sodipodi:type="arc"
       style="fill:none;stroke:#000000;stroke-width:6.03622389;stroke-linecap:butt;stroke-miterlimit:4;stroke-opacity:1;stroke-dasharray:none;stroke-dashoffset:0"
       id="path3703"
       sodipodi:cx="433.35544"
       sodipodi:cy="182.62083"
       sodipodi:rx="33.335033"
       sodipodi:ry="14.647212"
       d="m 466.69047,182.62083 c 0,8.08944 -14.9246,14.64722 -33.33503,14.64722 -18.41043,0 -33.33504,-6.55778 -33.33504,-14.64722 0,-1.14294 0.30446,-2.28196 0.90717,-3.3938"
       transform="matrix(-0.82833246,0,0,-0.82833246,774.89269,332.02658)"
       sodipodi:start="0"
       sodipodi:end="3.375421"
       sodipodi:open="true" />
    <rect
       style="fill:none;stroke:#000000;stroke-width:1.20220506;stroke-miterlimit:4;stroke-opacity:1;stroke-dasharray:none"
       id="rect3705"
       width="6.6233974"
       height="46.171635"
       x="512.30402"
       y="195.7393"
       transform="matrix(0.8660254,0.5,-0.5,0.8660254,0,0)" />
    <rect
       transform="matrix(0.8660254,0.5,-0.5,0.8660254,0,0)"
       y="248.60783"
       x="513.66705"
       height="46.171635"
       width="6.6233974"
       id="rect3707"
       style="fill:none;stroke:#000000;stroke-width:1.20220506;stroke-miterlimit:4;stroke-opacity:1;stroke-dasharray:none" />
    <rect
       style="fill:none;stroke:#000000;stroke-width:1.20220506;stroke-miterlimit:4;stroke-opacity:1;stroke-dasharray:none"
       id="rect3709"
       width="6.6233974"
       height="46.171635"
       x="590.82562"
       y="-215.51782"
       transform="matrix(0.25881904,0.96592583,-0.96592583,0.25881904,0,0)" />
    <rect
       transform="matrix(0.25881904,0.96592583,-0.96592583,0.25881904,0,0)"
       y="-250.55103"
       x="569.36206"
       height="46.171635"
       width="6.6233974"
       id="rect3711"
       style="fill:none;stroke:#000000;stroke-width:1.20220506;stroke-miterlimit:4;stroke-opacity:1;stroke-dasharray:none" />
    <rect
       transform="matrix(0.8660254,0.5,-0.5,0.8660254,0,0)"
       y="182.63872"
       x="542.06598"
       height="46.171635"
       width="6.6233974"
       id="rect3715"
       style="fill:none;stroke:#000000;stroke-width:1.20220506;stroke-miterlimit:4;stroke-opacity:1;stroke-dasharray:none" />
    <rect
       style="fill:none;stroke:#000000;stroke-width:1.20220506;stroke-miterlimit:4;stroke-opacity:1;stroke-dasharray:none"
       id="rect3717"
       width="6.6233974"
       height="46.171635"
       x="537.40442"
       y="233.15346"
       transform="matrix(0.8660254,0.5,-0.5,0.8660254,0,0)" />
    <rect
       transform="matrix(0.25881904,0.96592583,-0.96592583,0.25881904,0,0)"
       y="-273.72339"
       x="590.21204"
       height="46.171635"
       width="6.6233974"
       id="rect3719"
       style="fill:none;stroke:#000000;stroke-width:1.20220506;stroke-miterlimit:4;stroke-opacity:1;stroke-dasharray:none" />
    <rect
       transform="matrix(-0.8660254,0.5,0.5,0.8660254,0,0)"
       y="619.31061"
       x="-221.343"
       height="46.171635"
       width="6.6233974"
       id="rect3721"
       style="fill:none;stroke:#000000;stroke-width:1.20220506;stroke-miterlimit:4;stroke-opacity:1;stroke-dasharray:none" />
    <rect
       style="fill:none;stroke:#000000;stroke-width:1.20220506;stroke-miterlimit:4;stroke-opacity:1;stroke-dasharray:none"
       id="rect3723"
       width="6.6233974"
       height="46.171635"
       x="-219.97997"
       y="672.17914"
       transform="matrix(-0.8660254,0.5,0.5,0.8660254,0,0)" />
    <rect
       transform="matrix(-0.25881904,0.96592583,0.96592583,0.25881904,0,0)"
       y="602.75909"
       x="371.56903"
       height="46.171635"
       width="6.6233974"
       id="rect3725"
       style="fill:none;stroke:#000000;stroke-width:1.20220506;stroke-miterlimit:4;stroke-opacity:1;stroke-dasharray:none" />
    <rect
       style="fill:none;stroke:#000000;stroke-width:1.20220506;stroke-miterlimit:4;stroke-opacity:1;stroke-dasharray:none"
       id="rect3727"
       width="6.6233974"
       height="46.171635"
       x="350.10547"
       y="567.72589"
       transform="matrix(-0.25881904,0.96592583,0.96592583,0.25881904,0,0)" />
    <rect
       style="fill:none;stroke:#000000;stroke-width:1.20220506;stroke-miterlimit:4;stroke-opacity:1;stroke-dasharray:none"
       id="rect3729"
       width="6.6233974"
       height="46.171635"
       x="-191.58104"
       y="606.21002"
       transform="matrix(-0.8660254,0.5,0.5,0.8660254,0,0)" />
    <rect
       transform="matrix(-0.8660254,0.5,0.5,0.8660254,0,0)"
       y="656.72473"
       x="-196.2426"
       height="46.171635"
       width="6.6233974"
       id="rect3731"
       style="fill:none;stroke:#000000;stroke-width:1.20220506;stroke-miterlimit:4;stroke-opacity:1;stroke-dasharray:none" />
    <rect
       style="fill:none;stroke:#000000;stroke-width:1.20220506;stroke-miterlimit:4;stroke-opacity:1;stroke-dasharray:none"
       id="rect3733"
       width="6.6233974"
       height="46.171635"
       x="370.95544"
       y="544.55353"
       transform="matrix(-0.25881904,0.96592583,0.96592583,0.25881904,0,0)" />
    <flowRoot
       xml:space="preserve"
       id="flowRoot3735"
       style="font-size:12px;font-style:normal;font-weight:normal;text-align:center;text-anchor:middle;fill:#000000;fill-opacity:1;stroke:none;font-family:Bitstream Vera Sans"
       transform="translate(268.01421,166.12305)"><flowRegion
         id="flowRegion3737"><rect
           id="rect3739"
           width="92.934036"
           height="61.619305"
           x="209.10158"
           y="27.318094"
           style="font-size:12px" /></flowRegion><flowPara
         id="flowPara3741">TODOreq: Scale To Size of Video Embed</flowPara></flowRoot>  </g>
</svg>
