<?xml version="1.0" encoding="UTF-8" standalone="no"?>
<!-- Created with Inkscape (http://www.inkscape.org/) -->

<svg
   xmlns:dc="http://purl.org/dc/elements/1.1/"
   xmlns:cc="http://creativecommons.org/ns#"
   xmlns:rdf="http://www.w3.org/1999/02/22-rdf-syntax-ns#"
   xmlns:svg="http://www.w3.org/2000/svg"
   xmlns="http://www.w3.org/2000/svg"
   xmlns:xlink="http://www.w3.org/1999/xlink"
   xmlns:sodipodi="http://sodipodi.sourceforge.net/DTD/sodipodi-0.dtd"
   xmlns:inkscape="http://www.inkscape.org/namespaces/inkscape"
   width="444.54633"
   height="714.51318"
   id="svg2"
   version="1.1"
   inkscape:version="0.47 r22583"
   sodipodi:docname="meAnalyzingTheSituationWithPoliceHelicopterJuryAimingBothGunAndNetAtMe.svg">
  <defs
     id="defs4" />
  <sodipodi:namedview
     id="base"
     pagecolor="#ffffff"
     bordercolor="#666666"
     borderopacity="1.0"
     inkscape:pageopacity="0.0"
     inkscape:pageshadow="2"
     inkscape:zoom="1.4142136"
     inkscape:cx="201.55587"
     inkscape:cy="438.93783"
     inkscape:document-units="px"
     inkscape:current-layer="layer1"
     showgrid="false"
     inkscape:snap-grids="false"
     inkscape:snap-to-guides="false"
     inkscape:snap-center="true"
     inkscape:snap-midpoints="true"
     inkscape:object-nodes="false"
     inkscape:snap-bbox="false"
     inkscape:snap-nodes="false"
     inkscape:snap-global="false"
     inkscape:window-width="1280"
     inkscape:window-height="972"
     inkscape:window-x="0"
     inkscape:window-y="0"
     inkscape:window-maximized="1" />
  <metadata
     id="metadata7">
    <rdf:RDF>
      <cc:Work
         rdf:about="">
        <dc:format>image/svg+xml</dc:format>
        <dc:type
           rdf:resource="http://purl.org/dc/dcmitype/StillImage" />
        <dc:title></dc:title>
      </cc:Work>
    </rdf:RDF>
  </metadata>
  <g
     inkscape:label="Layer 1"
     inkscape:groupmode="layer"
     id="layer1"
     transform="translate(-132.68662,-263.63718)">
    <a
       xlink:href="user/d3fault/data"
       id="a3598"
       xlink:title="TODOreq: Folder Browser View Of Data (also accessible via /view or /view/browse)"
       transform="translate(-57.142857,174.28571)">
      <path
         id="path3592"
         d="m 191.92898,803.86466 442.44682,0 -191.32033,-714.01718 0.90657,0.344402 -60.57983,-0.840415 -191.45323,714.513193 z"
         style="fill:#006700;fill-opacity:1;stroke:none" />
    </a>
    <a
       xlink:href="user/d3fault/data/view/timeline"
       id="a3633"
       xlink:title="TODOreq: Hacked Together Timeline View"
       transform="translate(-57.142857,174.28571)">
      <rect
         transform="matrix(0.87521363,-0.4837366,0.05605853,0.99842748,0,0)"
         y="840.84052"
         x="163.03813"
         height="43.281967"
         width="439.51489"
         id="rect3601"
         style="fill:#000000;fill-opacity:1;stroke:none" />
    </a>
    <rect
       style="fill:#ffffff;fill-opacity:1;stroke:none"
       id="rect3603"
       width="48.579597"
       height="74.903534"
       x="326.54745"
       y="837.95392"
       transform="matrix(0.96525922,0.26129416,-0.24949347,0.96837648,0,0)" />
    <rect
       transform="matrix(0.96915676,-0.24644506,0.24644506,0.96915676,0,0)"
       y="806.23663"
       x="316.48575"
       height="95.964493"
       width="63.63961"
       id="rect3605"
       style="fill:#ffffff;fill-opacity:1;stroke:none" />
    <a
       xlink:href="user/d3fault/data/view/timeline"
       id="a3630"
       xlink:title="TODOreq: Hacked Together Timeline View"
       transform="translate(-57.142857,174.28571)">
      <rect
         style="fill:#000000;fill-opacity:1;stroke:none"
         id="rect3607"
         width="245.02046"
         height="24.312969"
         x="294.90689"
         y="564.78687"
         transform="matrix(0.87315429,-0.48744393,0.05550299,0.99845852,0,0)" />
    </a>
    <rect
       style="fill:#ffffff;fill-opacity:1;stroke:none"
       id="rect3609"
       width="63.63961"
       height="95.964493"
       x="312.52997"
       y="546.87567"
       transform="matrix(0.96915676,-0.24644506,0.24644506,0.96915676,0,0)" />
    <rect
       transform="matrix(0.96871482,0.24817655,-0.24817655,0.96871482,0,0)"
       y="496.7189"
       x="312.83981"
       height="95.964493"
       width="63.63961"
       id="rect3611"
       style="fill:#ffffff;fill-opacity:1;stroke:none" />
    <a
       xlink:href="user/d3fault/data/view/timeline"
       id="a3627"
       xlink:title="TODOreq: Hacked Together Timeline View"
       transform="translate(-57.142857,174.28571)">
      <rect
         transform="matrix(0.87521363,-0.4837366,0.05605853,0.99842748,0,0)"
         y="380.91315"
         x="358.18671"
         height="18.381737"
         width="186.6608"
         id="rect3613"
         style="fill:#000000;fill-opacity:1;stroke:none" />
    </a>
    <rect
       transform="matrix(0.96871482,0.24817655,-0.24817655,0.96871482,0,0)"
       y="245.83098"
       x="315.70337"
       height="95.964493"
       width="63.63961"
       id="rect3621"
       style="fill:#ffffff;fill-opacity:1;stroke:none" />
    <rect
       style="fill:#ffffff;fill-opacity:1;stroke:none"
       id="rect3623"
       width="63.63961"
       height="95.964493"
       x="304.50366"
       y="376.11868"
       transform="matrix(0.96608324,-0.25823084,0.25823084,0.96608324,0,0)" />
    <flowRoot
       xml:space="preserve"
       id="flowRoot2826"
       style="font-size:20px;font-style:normal;font-weight:normal;text-align:center;text-anchor:middle;fill:#ffffff;fill-opacity:1;stroke:none;font-family:Bitstream Vera Sans"
       transform="matrix(0.87036086,-0.49241444,0.49241444,0.87036086,-275.49721,456.39344)"><flowRegion
         id="flowRegion2828"><rect
           id="rect2830"
           width="247.48738"
           height="41.416256"
           x="136.37059"
           y="622.58929"
           style="fill:#ffffff" /></flowRegion><flowPara
         id="flowPara2832">Pursuit of Happiness</flowPara></flowRoot>    <path
       sodipodi:type="arc"
       style="fill:#deaa87;fill-opacity:1;stroke:none"
       id="path2834"
       sodipodi:cx="195.46452"
       sodipodi:cy="351.36334"
       sodipodi:rx="22.728432"
       sodipodi:ry="44.95179"
       d="m 218.19296,351.36334 a 22.728432,44.95179 0 1 1 -45.45687,0 22.728432,44.95179 0 1 1 45.45687,0 z"
       transform="matrix(0.79040932,0,0,0.79040932,193.3786,343.01049)" />
    <rect
       style="fill:#000080;fill-opacity:1;stroke:none"
       id="rect2836"
       width="43.115437"
       height="81.440269"
       x="325.12021"
       y="657.06006" />
    <rect
       style="fill:#000080;fill-opacity:1;stroke:none"
       id="rect2838"
       width="42.010307"
       height="21.541065"
       x="-284.03781"
       y="835.81793"
       transform="matrix(0.93138755,-0.36402917,0.73766517,0.67516672,0,0)" />
    <rect
       transform="matrix(-0.93138755,-0.36402917,-0.73766517,0.67516672,0,0)"
       y="553.49811"
       x="-807.6579"
       height="21.541065"
       width="42.010307"
       id="rect2840"
       style="fill:#000080;fill-opacity:1;stroke:none" />
    <rect
       style="fill:#000080;fill-opacity:1;stroke:none"
       id="rect2842"
       width="17.964764"
       height="39.9217"
       x="387.79727"
       y="626.7196" />
    <rect
       y="626.7196"
       x="289.98911"
       height="39.9217"
       width="17.964764"
       id="rect2844"
       style="fill:#000080;fill-opacity:1;stroke:none" />
    <rect
       style="fill:#ac9393;fill-opacity:1;stroke:none"
       id="rect2846"
       width="19.192898"
       height="88.893425"
       x="326.38336"
       y="734.70355" />
    <rect
       y="734.70355"
       x="347.84912"
       height="88.893425"
       width="19.192898"
       id="rect2848"
       style="fill:#ac9393;fill-opacity:1;stroke:none" />
    <path
       sodipodi:type="arc"
       style="fill:#ffffff;fill-opacity:1;stroke:#000000;stroke-width:2.20000004999999987;stroke-linecap:butt;stroke-miterlimit:4;stroke-opacity:1;stroke-dasharray:none;stroke-dashoffset:0"
       id="path3717"
       sodipodi:cx="179.28572"
       sodipodi:cy="335.58463"
       sodipodi:rx="10"
       sodipodi:ry="10.357142"
       d="m 189.28572,335.58463 a 10,10.357142 0 1 1 -20,0 10,10.357142 0 1 1 20,0 z"
       transform="translate(132.68662,263.63718)" />
    <path
       transform="matrix(1.9040703,0,0,1.9040703,-49.365099,-69.396866)"
       d="m 189.28572,335.58463 a 10,10.357142 0 1 1 -20,0 10,10.357142 0 1 1 20,0 z"
       sodipodi:ry="10.357142"
       sodipodi:rx="10"
       sodipodi:cy="335.58463"
       sodipodi:cx="179.28572"
       id="path3719"
       style="fill:#ffffff;fill-opacity:1;stroke:#000000;stroke-width:2.20000005;stroke-linecap:butt;stroke-miterlimit:4;stroke-opacity:1;stroke-dasharray:none;stroke-dashoffset:0"
       sodipodi:type="arc" />
    <path
       sodipodi:type="arc"
       style="fill:#ffffff;fill-opacity:1;stroke:#000000;stroke-width:2.20000005;stroke-linecap:butt;stroke-miterlimit:4;stroke-opacity:1;stroke-dasharray:none;stroke-dashoffset:0"
       id="path3721"
       sodipodi:cx="179.28572"
       sodipodi:cy="335.58463"
       sodipodi:rx="10"
       sodipodi:ry="10.357142"
       d="m 189.28572,335.58463 a 10,10.357142 0 1 1 -20,0 10,10.357142 0 1 1 20,0 z"
       transform="matrix(3.0574369,0,0,3.0574369,-290.48776,-503.23469)" />
    <path
       transform="matrix(11.878756,0,0,7.8806286,-1867.975,-2241.4898)"
       d="m 189.28572,335.58463 a 10,10.357142 0 1 1 -20,0 10,10.357142 0 1 1 20,0 z"
       sodipodi:ry="10.357142"
       sodipodi:rx="10"
       sodipodi:cy="335.58463"
       sodipodi:cx="179.28572"
       id="path3723"
       style="fill:#ffffff;fill-opacity:1;stroke:#000000;stroke-width:2.20000005;stroke-linecap:butt;stroke-miterlimit:4;stroke-opacity:1;stroke-dasharray:none;stroke-dashoffset:0"
       sodipodi:type="arc" />
    <flowRoot
       xml:space="preserve"
       id="flowRoot3725"
       style="font-size:12px;font-style:normal;font-weight:normal;text-align:center;text-anchor:middle;fill:#000000;fill-opacity:1;stroke:none;font-family:Bitstream Vera Sans"
       transform="translate(124.12209,233.72615)"><flowRegion
         id="flowRegion3727"><rect
           id="rect3729"
           width="173.13634"
           height="109.48441"
           x="50.714287"
           y="133.79889"
           style="font-size:12px" /></flowRegion><flowPara
         id="flowPara3731">My mind might disintegrate</flowPara><flowPara
         id="flowPara4080">for 20 years in a small room</flowPara><flowPara
         id="flowPara4082">with no windows if the justice system fails to find</flowPara><flowPara
         id="flowPara4084">my innocence!!!</flowPara><flowPara
         id="flowPara4088">I can't live like that...</flowPara></flowRoot>    <path
       sodipodi:type="arc"
       style="fill:#4d4d4d;fill-opacity:1;stroke:#000000;stroke-width:2.20000004999999987;stroke-linecap:butt;stroke-miterlimit:4;stroke-opacity:1;stroke-dasharray:none;stroke-dashoffset:0"
       id="path3756"
       sodipodi:cx="347.99756"
       sodipodi:cy="317.52322"
       sodipodi:rx="78.286819"
       sodipodi:ry="54.548237"
       d="m 426.28438,317.52322 a 78.286819,54.548237 0 1 1 -156.57364,0 78.286819,54.548237 0 1 1 156.57364,0 z"
       transform="translate(132.68662,258.58642)" />
    <rect
       style="fill:#4d4d4d;fill-opacity:1;stroke:#000000;stroke-width:2.20000005;stroke-linecap:butt;stroke-miterlimit:4;stroke-opacity:1;stroke-dasharray:none;stroke-dashoffset:0"
       id="rect3758"
       width="19.192898"
       height="8.0812206"
       x="471.5928"
       y="517.01575" />
    <rect
       style="fill:#4d4d4d;fill-opacity:1;stroke:#000000;stroke-width:2.08389997;stroke-linecap:butt;stroke-miterlimit:4;stroke-opacity:1;stroke-dasharray:none;stroke-dashoffset:0"
       id="rect3760"
       width="83.958763"
       height="4.6617861"
       x="478.10074"
       y="514.93738" />
    <rect
       y="515.06366"
       x="391.35388"
       height="4.6617861"
       width="83.958763"
       id="rect3762"
       style="fill:#4d4d4d;fill-opacity:1;stroke:#000000;stroke-width:2.08389997;stroke-linecap:butt;stroke-miterlimit:4;stroke-opacity:1;stroke-dasharray:none;stroke-dashoffset:0" />
    <rect
       style="fill:#4d4d4d;fill-opacity:1;stroke:#000000;stroke-width:2.20000005;stroke-linecap:butt;stroke-miterlimit:4;stroke-opacity:1;stroke-dasharray:none;stroke-dashoffset:0"
       id="rect3764"
       width="29.7995"
       height="9.5964489"
       x="393.45441"
       y="298.33032"
       transform="translate(132.68662,263.63718)" />
    <rect
       style="fill:#4d4d4d;fill-opacity:1;stroke:#000000;stroke-width:2.20000005;stroke-linecap:butt;stroke-miterlimit:4;stroke-opacity:1;stroke-dasharray:none;stroke-dashoffset:0"
       id="rect3766"
       width="6.0609155"
       height="38.890873"
       x="418.20316"
       y="303.88617"
       transform="translate(132.68662,263.63718)" />
    <rect
       y="525.60199"
       x="550.3847"
       height="38.890873"
       width="6.0609155"
       id="rect3768"
       style="fill:#4d4d4d;fill-opacity:1;stroke:#000000;stroke-width:2.20000005;stroke-linecap:butt;stroke-miterlimit:4;stroke-opacity:1;stroke-dasharray:none;stroke-dashoffset:0" />
    <rect
       style="fill:#4d4d4d;fill-opacity:1;stroke:#000000;stroke-width:2.27814245;stroke-linecap:butt;stroke-miterlimit:4;stroke-opacity:1;stroke-dasharray:none;stroke-dashoffset:0"
       id="rect3770"
       width="83.536972"
       height="49.419235"
       x="439.30698"
       y="555.84467" />
    <path
       sodipodi:type="arc"
       style="fill:#deaa87;fill-opacity:1;stroke:none"
       id="path3772"
       sodipodi:cx="298.12128"
       sodipodi:cy="287.09238"
       sodipodi:rx="5.177032"
       sodipodi:ry="8.9651041"
       d="m 303.29831,287.09238 a 5.177032,8.9651041 0 1 1 -10.35407,0 5.177032,8.9651041 0 1 1 10.35407,0 z"
       transform="translate(131.67647,261.49061)" />
    <rect
       style="fill:#aa4400;fill-opacity:1;stroke:none"
       id="rect3774"
       width="12.37937"
       height="21.465742"
       x="423.35806"
       y="556.91681" />
    <rect
       style="fill:#aa4400;fill-opacity:1;stroke:none"
       id="rect3776"
       width="10.606602"
       height="3.7880721"
       x="-197.85519"
       y="676.62225"
       transform="matrix(0.60805253,-0.79389679,0.79389679,0.60805253,0,0)" />
    <rect
       transform="matrix(0.60805253,-0.79389679,0.79389679,0.60805253,0,0)"
       y="680.92297"
       x="-201.08228"
       height="3.7880721"
       width="10.606602"
       id="rect3778"
       style="fill:#aa4400;fill-opacity:1;stroke:none" />
    <rect
       style="fill:#000000;fill-opacity:1;stroke:none"
       id="rect3780"
       width="4.7350903"
       height="8.586297"
       x="424.17874"
       y="577.75116" />
    <rect
       y="577.87744"
       x="430.55533"
       height="8.586297"
       width="4.7350903"
       id="rect3782"
       style="fill:#000000;fill-opacity:1;stroke:none" />
    <rect
       style="fill:#000000;fill-opacity:1;stroke:none"
       id="rect3784"
       width="23.991123"
       height="3.4723995"
       x="279.62286"
       y="322.19519"
       transform="translate(132.68662,263.63718)" />
    <rect
       style="fill:#000000;fill-opacity:1;stroke:none"
       id="rect3786"
       width="19.256033"
       height="4.0406103"
       x="247.44859"
       y="678.0675"
       transform="matrix(0.96592583,-0.25881905,0.25881905,0.96592583,0,0)" />
    <rect
       style="fill:#000000;fill-opacity:1;stroke:none"
       id="rect3788"
       width="1.1364216"
       height="9.3439112"
       x="277.79196"
       y="308.55814"
       transform="translate(132.68662,263.63718)" />
    <rect
       style="fill:#000000;fill-opacity:1;stroke:none"
       id="rect3790"
       width="2.5253813"
       height="6.5659914"
       x="409.72095"
       y="567.27081" />
    <rect
       style="fill:#d40000;fill-opacity:1;stroke:none;font-size:6"
       id="rect3792"
       width="3.4092648"
       height="3.0304577"
       x="406.31171"
       y="577.68799" />
    <text
       xml:space="preserve"
       style="font-size:4px;font-style:normal;font-weight:normal;text-align:center;text-anchor:middle;fill:#ffffff;fill-opacity:1;stroke:none;font-family:Bitstream Vera Sans"
       x="407.51123"
       y="584.06464"
       id="text3794"><tspan
         sodipodi:role="line"
         id="tspan3796"
         x="407.51123"
         y="584.06464">Kill</tspan></text>
    <rect
       y="577.87738"
       x="413.00397"
       height="3.0304577"
       width="3.4092648"
       id="rect3798"
       style="font-size:6px;fill:#d40000;fill-opacity:1;stroke:none" />
    <text
       id="text3800"
       y="583.11761"
       x="416.28693"
       style="font-size:2px;font-style:normal;font-weight:normal;text-align:center;text-anchor:middle;fill:#ffffff;fill-opacity:1;stroke:none;font-family:Bitstream Vera Sans"
       xml:space="preserve"><tspan
         y="583.11761"
         x="416.28693"
         id="tspan3802"
         sodipodi:role="line"
         style="font-size:2px;fill:#ffffff">Imprison</tspan></text>
    <path
       style="fill:#ffffff;fill-opacity:1;stroke:#000000;stroke-width:1.24129736px;stroke-linecap:butt;stroke-linejoin:miter;stroke-opacity:1"
       d="m 432.57004,553.63937 c 0,0 29.84674,-34.60445 33.45458,-19.32457 3.60786,15.2799 -5.73975,17.67674 -5.73975,17.67674 l -27.71483,1.64783 z"
       id="path3806" />
    <flowRoot
       xml:space="preserve"
       id="flowRoot3808"
       style="fill:black;stroke:none;stroke-opacity:1;stroke-width:1px;stroke-linejoin:miter;stroke-linecap:butt;fill-opacity:1;font-family:Bitstream Vera Sans;font-style:normal;font-weight:normal;font-size:6;text-anchor:middle;text-align:center"><flowRegion
         id="flowRegion3810"><rect
           id="rect3812"
           width="6.8185296"
           height="8.8388348"
           x="313.77863"
           y="276.61206" /></flowRegion><flowPara
         id="flowPara3814"></flowPara></flowRoot>    <flowRoot
       xml:space="preserve"
       id="flowRoot3816"
       style="font-size:4px;font-style:normal;font-weight:normal;text-align:center;text-anchor:middle;fill:#000000;fill-opacity:1;stroke:none;font-family:Bitstream Vera Sans"
       transform="translate(135.13624,263.43515)"><flowRegion
         id="flowRegion3818"><rect
           id="rect3820"
           width="25.632563"
           height="11.869283"
           x="305.06607"
           y="274.3392"
           style="font-size:4px" /></flowRegion><flowPara
         id="flowPara3822"
         style="font-size:3px">   Tell Me</flowPara><flowPara
         id="flowPara3824"
         style="font-size:3px">What to Do,</flowPara><flowPara
         style="font-size:3px"
         id="flowPara4086">Justice System</flowPara></flowRoot>    <rect
       style="fill:#ff0000;fill-opacity:1;stroke:none"
       id="rect3828"
       width="5.0946412"
       height="2.871525"
       x="-98.423805"
       y="700.21228"
       transform="matrix(0.70392474,-0.71027456,0.71027456,0.70392474,0,0)" />
    <rect
       style="fill:#ffffff;fill-opacity:1;stroke:none"
       id="rect3830"
       width="5.1044621"
       height="0.2502121"
       x="-98.428688"
       y="702.62506"
       transform="matrix(0.70392474,-0.71027456,0.71027456,0.70392474,0,0)" />
    <rect
       y="702.17786"
       x="-98.428688"
       height="0.2502121"
       width="5.1044621"
       id="rect3836"
       style="fill:#ffffff;fill-opacity:1;stroke:none"
       transform="matrix(0.70392474,-0.71027456,0.71027456,0.70392474,0,0)" />
    <rect
       style="fill:#ffffff;fill-opacity:1;stroke:none"
       id="rect3838"
       width="5.1044621"
       height="0.2502121"
       x="-98.428688"
       y="701.7121"
       transform="matrix(0.70392474,-0.71027456,0.71027456,0.70392474,0,0)" />
    <rect
       y="701.28363"
       x="-98.428688"
       height="0.2502121"
       width="5.1044621"
       id="rect3840"
       style="fill:#ffffff;fill-opacity:1;stroke:none"
       transform="matrix(0.70392474,-0.71027456,0.71027456,0.70392474,0,0)" />
    <rect
       style="fill:#ffffff;fill-opacity:1;stroke:none"
       id="rect3842"
       width="5.1044621"
       height="0.2502121"
       x="-98.428688"
       y="700.87372"
       transform="matrix(0.70392474,-0.71027456,0.71027456,0.70392474,0,0)" />
    <rect
       y="700.43372"
       x="-98.428688"
       height="0.2502121"
       width="5.1044621"
       id="rect3844"
       style="fill:#ffffff;fill-opacity:1;stroke:none"
       transform="matrix(0.70392474,-0.71027456,0.71027456,0.70392474,0,0)" />
    <rect
       style="fill:#000080;fill-opacity:1;stroke:none"
       id="rect3846"
       width="2.8136313"
       height="1.5168136"
       x="-98.435371"
       y="700.20074"
       transform="matrix(0.70392474,-0.71027456,0.71027456,0.70392474,0,0)" />
    <path
       sodipodi:type="star"
       style="fill:#ffffff;fill-opacity:1;stroke:none"
       id="path3848"
       sodipodi:sides="5"
       sodipodi:cx="295.84821"
       sodipodi:cy="297.16943"
       sodipodi:r1="0.33943987"
       sodipodi:r2="0.17036091"
       sodipodi:arg1="1.0924439"
       sodipodi:arg2="1.7207625"
       inkscape:flatsided="false"
       inkscape:rounded="0.22"
       inkscape:randomized="0"
       d="m 296.00446,297.47077 c -0.044,0.0228 -0.13274,-0.12549 -0.18171,-0.13289 -0.049,-0.007 -0.17758,0.10804 -0.21285,0.0733 -0.0353,-0.0348 0.0783,-0.16502 0.0702,-0.21388 -0.008,-0.0489 -0.15764,-0.13551 -0.13547,-0.17979 0.0222,-0.0443 0.18115,0.0235 0.22512,7e-4 0.044,-0.0228 0.0802,-0.19179 0.12913,-0.18439 0.049,0.007 0.0336,0.17955 0.0689,0.21432 0.0353,0.0348 0.20718,0.017 0.21527,0.0658 0.008,0.0489 -0.16037,0.0875 -0.18254,0.13174 -0.0222,0.0443 0.0479,0.20229 0.004,0.22508 z"
       transform="matrix(0.17678057,-0.2252869,0.2252869,0.17678057,309.08122,576.90085)" />
    <path
       transform="matrix(0.17678057,-0.2252869,0.2252869,0.17678057,309.27254,577.09046)"
       d="m 296.00446,297.47077 c -0.044,0.0228 -0.13274,-0.12549 -0.18171,-0.13289 -0.049,-0.007 -0.17758,0.10804 -0.21285,0.0733 -0.0353,-0.0348 0.0783,-0.16502 0.0702,-0.21388 -0.008,-0.0489 -0.15764,-0.13551 -0.13547,-0.17979 0.0222,-0.0443 0.18115,0.0235 0.22512,7e-4 0.044,-0.0228 0.0802,-0.19179 0.12913,-0.18439 0.049,0.007 0.0336,0.17955 0.0689,0.21432 0.0353,0.0348 0.20718,0.017 0.21527,0.0658 0.008,0.0489 -0.16037,0.0875 -0.18254,0.13174 -0.0222,0.0443 0.0479,0.20229 0.004,0.22508 z"
       inkscape:randomized="0"
       inkscape:rounded="0.22"
       inkscape:flatsided="false"
       sodipodi:arg2="1.7207625"
       sodipodi:arg1="1.0924439"
       sodipodi:r2="0.17036091"
       sodipodi:r1="0.33943987"
       sodipodi:cy="297.16943"
       sodipodi:cx="295.84821"
       sodipodi:sides="5"
       id="path3850"
       style="fill:#ffffff;fill-opacity:1;stroke:none"
       sodipodi:type="star" />
    <path
       sodipodi:type="star"
       style="fill:#ffffff;fill-opacity:1;stroke:none"
       id="path3852"
       sodipodi:sides="5"
       sodipodi:cx="295.84821"
       sodipodi:cy="297.16943"
       sodipodi:r1="0.33943987"
       sodipodi:r2="0.17036091"
       sodipodi:arg1="1.0924439"
       sodipodi:arg2="1.7207625"
       inkscape:flatsided="false"
       inkscape:rounded="0.22"
       inkscape:randomized="0"
       d="m 296.00446,297.47077 c -0.044,0.0228 -0.13274,-0.12549 -0.18171,-0.13289 -0.049,-0.007 -0.17758,0.10804 -0.21285,0.0733 -0.0353,-0.0348 0.0783,-0.16502 0.0702,-0.21388 -0.008,-0.0489 -0.15764,-0.13551 -0.13547,-0.17979 0.0222,-0.0443 0.18115,0.0235 0.22512,7e-4 0.044,-0.0228 0.0802,-0.19179 0.12913,-0.18439 0.049,0.007 0.0336,0.17955 0.0689,0.21432 0.0353,0.0348 0.20718,0.017 0.21527,0.0658 0.008,0.0489 -0.16037,0.0875 -0.18254,0.13174 -0.0222,0.0443 0.0479,0.20229 0.004,0.22508 z"
       transform="matrix(0.17678057,-0.2252869,0.2252869,0.17678057,309.48015,577.29621)" />
    <path
       transform="matrix(0.17678057,-0.2252869,0.2252869,0.17678057,309.67961,577.49389)"
       d="m 296.00446,297.47077 c -0.044,0.0228 -0.13274,-0.12549 -0.18171,-0.13289 -0.049,-0.007 -0.17758,0.10804 -0.21285,0.0733 -0.0353,-0.0348 0.0783,-0.16502 0.0702,-0.21388 -0.008,-0.0489 -0.15764,-0.13551 -0.13547,-0.17979 0.0222,-0.0443 0.18115,0.0235 0.22512,7e-4 0.044,-0.0228 0.0802,-0.19179 0.12913,-0.18439 0.049,0.007 0.0336,0.17955 0.0689,0.21432 0.0353,0.0348 0.20718,0.017 0.21527,0.0658 0.008,0.0489 -0.16037,0.0875 -0.18254,0.13174 -0.0222,0.0443 0.0479,0.20229 0.004,0.22508 z"
       inkscape:randomized="0"
       inkscape:rounded="0.22"
       inkscape:flatsided="false"
       sodipodi:arg2="1.7207625"
       sodipodi:arg1="1.0924439"
       sodipodi:r2="0.17036091"
       sodipodi:r1="0.33943987"
       sodipodi:cy="297.16943"
       sodipodi:cx="295.84821"
       sodipodi:sides="5"
       id="path3854"
       style="fill:#ffffff;fill-opacity:1;stroke:none"
       sodipodi:type="star" />
    <path
       sodipodi:type="star"
       style="fill:#ffffff;fill-opacity:1;stroke:none"
       id="path3856"
       sodipodi:sides="5"
       sodipodi:cx="295.84821"
       sodipodi:cy="297.16943"
       sodipodi:r1="0.33943987"
       sodipodi:r2="0.17036091"
       sodipodi:arg1="1.0924439"
       sodipodi:arg2="1.7207625"
       inkscape:flatsided="false"
       inkscape:rounded="0.22"
       inkscape:randomized="0"
       d="m 296.00446,297.47077 c -0.044,0.0228 -0.13274,-0.12549 -0.18171,-0.13289 -0.049,-0.007 -0.17758,0.10804 -0.21285,0.0733 -0.0353,-0.0348 0.0783,-0.16502 0.0702,-0.21388 -0.008,-0.0489 -0.15764,-0.13551 -0.13547,-0.17979 0.0222,-0.0443 0.18115,0.0235 0.22512,7e-4 0.044,-0.0228 0.0802,-0.19179 0.12913,-0.18439 0.049,0.007 0.0336,0.17955 0.0689,0.21432 0.0353,0.0348 0.20718,0.017 0.21527,0.0658 0.008,0.0489 -0.16037,0.0875 -0.18254,0.13174 -0.0222,0.0443 0.0479,0.20229 0.004,0.22508 z"
       transform="matrix(0.17678057,-0.2252869,0.2252869,0.17678057,309.88315,577.69561)" />
    <path
       transform="matrix(0.17678057,-0.2252869,0.2252869,0.17678057,309.3606,576.8469)"
       d="m 296.00446,297.47077 c -0.044,0.0228 -0.13274,-0.12549 -0.18171,-0.13289 -0.049,-0.007 -0.17758,0.10804 -0.21285,0.0733 -0.0353,-0.0348 0.0783,-0.16502 0.0702,-0.21388 -0.008,-0.0489 -0.15764,-0.13551 -0.13547,-0.17979 0.0222,-0.0443 0.18115,0.0235 0.22512,7e-4 0.044,-0.0228 0.0802,-0.19179 0.12913,-0.18439 0.049,0.007 0.0336,0.17955 0.0689,0.21432 0.0353,0.0348 0.20718,0.017 0.21527,0.0658 0.008,0.0489 -0.16037,0.0875 -0.18254,0.13174 -0.0222,0.0443 0.0479,0.20229 0.004,0.22508 z"
       inkscape:randomized="0"
       inkscape:rounded="0.22"
       inkscape:flatsided="false"
       sodipodi:arg2="1.7207625"
       sodipodi:arg1="1.0924439"
       sodipodi:r2="0.17036091"
       sodipodi:r1="0.33943987"
       sodipodi:cy="297.16943"
       sodipodi:cx="295.84821"
       sodipodi:sides="5"
       id="path3858"
       style="fill:#ffffff;fill-opacity:1;stroke:none"
       sodipodi:type="star" />
    <path
       sodipodi:type="star"
       style="fill:#ffffff;fill-opacity:1;stroke:none"
       id="path3860"
       sodipodi:sides="5"
       sodipodi:cx="295.84821"
       sodipodi:cy="297.16943"
       sodipodi:r1="0.33943987"
       sodipodi:r2="0.17036091"
       sodipodi:arg1="1.0924439"
       sodipodi:arg2="1.7207625"
       inkscape:flatsided="false"
       inkscape:rounded="0.22"
       inkscape:randomized="0"
       d="m 296.00446,297.47077 c -0.044,0.0228 -0.13274,-0.12549 -0.18171,-0.13289 -0.049,-0.007 -0.17758,0.10804 -0.21285,0.0733 -0.0353,-0.0348 0.0783,-0.16502 0.0702,-0.21388 -0.008,-0.0489 -0.15764,-0.13551 -0.13547,-0.17979 0.0222,-0.0443 0.18115,0.0235 0.22512,7e-4 0.044,-0.0228 0.0802,-0.19179 0.12913,-0.18439 0.049,0.007 0.0336,0.17955 0.0689,0.21432 0.0353,0.0348 0.20718,0.017 0.21527,0.0658 0.008,0.0489 -0.16037,0.0875 -0.18254,0.13174 -0.0222,0.0443 0.0479,0.20229 0.004,0.22508 z"
       transform="matrix(0.17678057,-0.2252869,0.2252869,0.17678057,309.55193,577.03652)" />
    <path
       transform="matrix(0.17678057,-0.2252869,0.2252869,0.17678057,309.75954,577.24227)"
       d="m 296.00446,297.47077 c -0.044,0.0228 -0.13274,-0.12549 -0.18171,-0.13289 -0.049,-0.007 -0.17758,0.10804 -0.21285,0.0733 -0.0353,-0.0348 0.0783,-0.16502 0.0702,-0.21388 -0.008,-0.0489 -0.15764,-0.13551 -0.13547,-0.17979 0.0222,-0.0443 0.18115,0.0235 0.22512,7e-4 0.044,-0.0228 0.0802,-0.19179 0.12913,-0.18439 0.049,0.007 0.0336,0.17955 0.0689,0.21432 0.0353,0.0348 0.20718,0.017 0.21527,0.0658 0.008,0.0489 -0.16037,0.0875 -0.18254,0.13174 -0.0222,0.0443 0.0479,0.20229 0.004,0.22508 z"
       inkscape:randomized="0"
       inkscape:rounded="0.22"
       inkscape:flatsided="false"
       sodipodi:arg2="1.7207625"
       sodipodi:arg1="1.0924439"
       sodipodi:r2="0.17036091"
       sodipodi:r1="0.33943987"
       sodipodi:cy="297.16943"
       sodipodi:cx="295.84821"
       sodipodi:sides="5"
       id="path3862"
       style="fill:#ffffff;fill-opacity:1;stroke:none"
       sodipodi:type="star" />
    <path
       sodipodi:type="star"
       style="fill:#ffffff;fill-opacity:1;stroke:none"
       id="path3864"
       sodipodi:sides="5"
       sodipodi:cx="295.84821"
       sodipodi:cy="297.16943"
       sodipodi:r1="0.33943987"
       sodipodi:r2="0.17036091"
       sodipodi:arg1="1.0924439"
       sodipodi:arg2="1.7207625"
       inkscape:flatsided="false"
       inkscape:rounded="0.22"
       inkscape:randomized="0"
       d="m 296.00446,297.47077 c -0.044,0.0228 -0.13274,-0.12549 -0.18171,-0.13289 -0.049,-0.007 -0.17758,0.10804 -0.21285,0.0733 -0.0353,-0.0348 0.0783,-0.16502 0.0702,-0.21388 -0.008,-0.0489 -0.15764,-0.13551 -0.13547,-0.17979 0.0222,-0.0443 0.18115,0.0235 0.22512,7e-4 0.044,-0.0228 0.0802,-0.19179 0.12913,-0.18439 0.049,0.007 0.0336,0.17955 0.0689,0.21432 0.0353,0.0348 0.20718,0.017 0.21527,0.0658 0.008,0.0489 -0.16037,0.0875 -0.18254,0.13174 -0.0222,0.0443 0.0479,0.20229 0.004,0.22508 z"
       transform="matrix(0.17678057,-0.2252869,0.2252869,0.17678057,309.959,577.43995)" />
    <path
       transform="matrix(0.17678057,-0.2252869,0.2252869,0.17678057,309.39186,576.5874)"
       d="m 296.00446,297.47077 c -0.044,0.0228 -0.13274,-0.12549 -0.18171,-0.13289 -0.049,-0.007 -0.17758,0.10804 -0.21285,0.0733 -0.0353,-0.0348 0.0783,-0.16502 0.0702,-0.21388 -0.008,-0.0489 -0.15764,-0.13551 -0.13547,-0.17979 0.0222,-0.0443 0.18115,0.0235 0.22512,7e-4 0.044,-0.0228 0.0802,-0.19179 0.12913,-0.18439 0.049,0.007 0.0336,0.17955 0.0689,0.21432 0.0353,0.0348 0.20718,0.017 0.21527,0.0658 0.008,0.0489 -0.16037,0.0875 -0.18254,0.13174 -0.0222,0.0443 0.0479,0.20229 0.004,0.22508 z"
       inkscape:randomized="0"
       inkscape:rounded="0.22"
       inkscape:flatsided="false"
       sodipodi:arg2="1.7207625"
       sodipodi:arg1="1.0924439"
       sodipodi:r2="0.17036091"
       sodipodi:r1="0.33943987"
       sodipodi:cy="297.16943"
       sodipodi:cx="295.84821"
       sodipodi:sides="5"
       id="path3868"
       style="fill:#ffffff;fill-opacity:1;stroke:none"
       sodipodi:type="star" />
    <path
       sodipodi:type="star"
       style="fill:#ffffff;fill-opacity:1;stroke:none"
       id="path3870"
       sodipodi:sides="5"
       sodipodi:cx="295.84821"
       sodipodi:cy="297.16943"
       sodipodi:r1="0.33943987"
       sodipodi:r2="0.17036091"
       sodipodi:arg1="1.0924439"
       sodipodi:arg2="1.7207625"
       inkscape:flatsided="false"
       inkscape:rounded="0.22"
       inkscape:randomized="0"
       d="m 296.00446,297.47077 c -0.044,0.0228 -0.13274,-0.12549 -0.18171,-0.13289 -0.049,-0.007 -0.17758,0.10804 -0.21285,0.0733 -0.0353,-0.0348 0.0783,-0.16502 0.0702,-0.21388 -0.008,-0.0489 -0.15764,-0.13551 -0.13547,-0.17979 0.0222,-0.0443 0.18115,0.0235 0.22512,7e-4 0.044,-0.0228 0.0802,-0.19179 0.12913,-0.18439 0.049,0.007 0.0336,0.17955 0.0689,0.21432 0.0353,0.0348 0.20718,0.017 0.21527,0.0658 0.008,0.0489 -0.16037,0.0875 -0.18254,0.13174 -0.0222,0.0443 0.0479,0.20229 0.004,0.22508 z"
       transform="matrix(0.17678057,-0.2252869,0.2252869,0.17678057,309.58319,576.77702)" />
    <path
       transform="matrix(0.17678057,-0.2252869,0.2252869,0.17678057,309.79079,576.98277)"
       d="m 296.00446,297.47077 c -0.044,0.0228 -0.13274,-0.12549 -0.18171,-0.13289 -0.049,-0.007 -0.17758,0.10804 -0.21285,0.0733 -0.0353,-0.0348 0.0783,-0.16502 0.0702,-0.21388 -0.008,-0.0489 -0.15764,-0.13551 -0.13547,-0.17979 0.0222,-0.0443 0.18115,0.0235 0.22512,7e-4 0.044,-0.0228 0.0802,-0.19179 0.12913,-0.18439 0.049,0.007 0.0336,0.17955 0.0689,0.21432 0.0353,0.0348 0.20718,0.017 0.21527,0.0658 0.008,0.0489 -0.16037,0.0875 -0.18254,0.13174 -0.0222,0.0443 0.0479,0.20229 0.004,0.22508 z"
       inkscape:randomized="0"
       inkscape:rounded="0.22"
       inkscape:flatsided="false"
       sodipodi:arg2="1.7207625"
       sodipodi:arg1="1.0924439"
       sodipodi:r2="0.17036091"
       sodipodi:r1="0.33943987"
       sodipodi:cy="297.16943"
       sodipodi:cx="295.84821"
       sodipodi:sides="5"
       id="path3872"
       style="fill:#ffffff;fill-opacity:1;stroke:none"
       sodipodi:type="star" />
    <path
       sodipodi:type="star"
       style="fill:#ffffff;fill-opacity:1;stroke:none"
       id="path3874"
       sodipodi:sides="5"
       sodipodi:cx="295.84821"
       sodipodi:cy="297.16943"
       sodipodi:r1="0.33943987"
       sodipodi:r2="0.17036091"
       sodipodi:arg1="1.0924439"
       sodipodi:arg2="1.7207625"
       inkscape:flatsided="false"
       inkscape:rounded="0.22"
       inkscape:randomized="0"
       d="m 296.00446,297.47077 c -0.044,0.0228 -0.13274,-0.12549 -0.18171,-0.13289 -0.049,-0.007 -0.17758,0.10804 -0.21285,0.0733 -0.0353,-0.0348 0.0783,-0.16502 0.0702,-0.21388 -0.008,-0.0489 -0.15764,-0.13551 -0.13547,-0.17979 0.0222,-0.0443 0.18115,0.0235 0.22512,7e-4 0.044,-0.0228 0.0802,-0.19179 0.12913,-0.18439 0.049,0.007 0.0336,0.17955 0.0689,0.21432 0.0353,0.0348 0.20718,0.017 0.21527,0.0658 0.008,0.0489 -0.16037,0.0875 -0.18254,0.13174 -0.0222,0.0443 0.0479,0.20229 0.004,0.22508 z"
       transform="matrix(0.17678057,-0.2252869,0.2252869,0.17678057,309.99025,577.18044)" />
    <path
       transform="matrix(0.17678057,-0.2252869,0.2252869,0.17678057,310.19379,577.38216)"
       d="m 296.00446,297.47077 c -0.044,0.0228 -0.13274,-0.12549 -0.18171,-0.13289 -0.049,-0.007 -0.17758,0.10804 -0.21285,0.0733 -0.0353,-0.0348 0.0783,-0.16502 0.0702,-0.21388 -0.008,-0.0489 -0.15764,-0.13551 -0.13547,-0.17979 0.0222,-0.0443 0.18115,0.0235 0.22512,7e-4 0.044,-0.0228 0.0802,-0.19179 0.12913,-0.18439 0.049,0.007 0.0336,0.17955 0.0689,0.21432 0.0353,0.0348 0.20718,0.017 0.21527,0.0658 0.008,0.0489 -0.16037,0.0875 -0.18254,0.13174 -0.0222,0.0443 0.0479,0.20229 0.004,0.22508 z"
       inkscape:randomized="0"
       inkscape:rounded="0.22"
       inkscape:flatsided="false"
       sodipodi:arg2="1.7207625"
       sodipodi:arg1="1.0924439"
       sodipodi:r2="0.17036091"
       sodipodi:r1="0.33943987"
       sodipodi:cy="297.16943"
       sodipodi:cx="295.84821"
       sodipodi:sides="5"
       id="path3876"
       style="fill:#ffffff;fill-opacity:1;stroke:none"
       sodipodi:type="star" />
    <path
       sodipodi:type="star"
       style="fill:#ffffff;fill-opacity:1;stroke:none"
       id="path3878"
       sodipodi:sides="5"
       sodipodi:cx="295.84821"
       sodipodi:cy="297.16943"
       sodipodi:r1="0.33943987"
       sodipodi:r2="0.17036091"
       sodipodi:arg1="1.0924439"
       sodipodi:arg2="1.7207625"
       inkscape:flatsided="false"
       inkscape:rounded="0.22"
       inkscape:randomized="0"
       d="m 296.00446,297.47077 c -0.044,0.0228 -0.13274,-0.12549 -0.18171,-0.13289 -0.049,-0.007 -0.17758,0.10804 -0.21285,0.0733 -0.0353,-0.0348 0.0783,-0.16502 0.0702,-0.21388 -0.008,-0.0489 -0.15764,-0.13551 -0.13547,-0.17979 0.0222,-0.0443 0.18115,0.0235 0.22512,7e-4 0.044,-0.0228 0.0802,-0.19179 0.12913,-0.18439 0.049,0.007 0.0336,0.17955 0.0689,0.21432 0.0353,0.0348 0.20718,0.017 0.21527,0.0658 0.008,0.0489 -0.16037,0.0875 -0.18254,0.13174 -0.0222,0.0443 0.0479,0.20229 0.004,0.22508 z"
       transform="matrix(0.17678057,-0.2252869,0.2252869,0.17678057,309.67124,576.53347)" />
    <path
       transform="matrix(0.17678057,-0.2252869,0.2252869,0.17678057,309.86257,576.72308)"
       d="m 296.00446,297.47077 c -0.044,0.0228 -0.13274,-0.12549 -0.18171,-0.13289 -0.049,-0.007 -0.17758,0.10804 -0.21285,0.0733 -0.0353,-0.0348 0.0783,-0.16502 0.0702,-0.21388 -0.008,-0.0489 -0.15764,-0.13551 -0.13547,-0.17979 0.0222,-0.0443 0.18115,0.0235 0.22512,7e-4 0.044,-0.0228 0.0802,-0.19179 0.12913,-0.18439 0.049,0.007 0.0336,0.17955 0.0689,0.21432 0.0353,0.0348 0.20718,0.017 0.21527,0.0658 0.008,0.0489 -0.16037,0.0875 -0.18254,0.13174 -0.0222,0.0443 0.0479,0.20229 0.004,0.22508 z"
       inkscape:randomized="0"
       inkscape:rounded="0.22"
       inkscape:flatsided="false"
       sodipodi:arg2="1.7207625"
       sodipodi:arg1="1.0924439"
       sodipodi:r2="0.17036091"
       sodipodi:r1="0.33943987"
       sodipodi:cy="297.16943"
       sodipodi:cx="295.84821"
       sodipodi:sides="5"
       id="path3880"
       style="fill:#ffffff;fill-opacity:1;stroke:none"
       sodipodi:type="star" />
    <path
       sodipodi:type="star"
       style="fill:#ffffff;fill-opacity:1;stroke:none"
       id="path3882"
       sodipodi:sides="5"
       sodipodi:cx="295.84821"
       sodipodi:cy="297.16943"
       sodipodi:r1="0.33943987"
       sodipodi:r2="0.17036091"
       sodipodi:arg1="1.0924439"
       sodipodi:arg2="1.7207625"
       inkscape:flatsided="false"
       inkscape:rounded="0.22"
       inkscape:randomized="0"
       d="m 296.00446,297.47077 c -0.044,0.0228 -0.13274,-0.12549 -0.18171,-0.13289 -0.049,-0.007 -0.17758,0.10804 -0.21285,0.0733 -0.0353,-0.0348 0.0783,-0.16502 0.0702,-0.21388 -0.008,-0.0489 -0.15764,-0.13551 -0.13547,-0.17979 0.0222,-0.0443 0.18115,0.0235 0.22512,7e-4 0.044,-0.0228 0.0802,-0.19179 0.12913,-0.18439 0.049,0.007 0.0336,0.17955 0.0689,0.21432 0.0353,0.0348 0.20718,0.017 0.21527,0.0658 0.008,0.0489 -0.16037,0.0875 -0.18254,0.13174 -0.0222,0.0443 0.0479,0.20229 0.004,0.22508 z"
       transform="matrix(0.17678057,-0.2252869,0.2252869,0.17678057,310.07017,576.92883)" />
    <path
       transform="matrix(0.17678057,-0.2252869,0.2252869,0.17678057,310.26964,577.12652)"
       d="m 296.00446,297.47077 c -0.044,0.0228 -0.13274,-0.12549 -0.18171,-0.13289 -0.049,-0.007 -0.17758,0.10804 -0.21285,0.0733 -0.0353,-0.0348 0.0783,-0.16502 0.0702,-0.21388 -0.008,-0.0489 -0.15764,-0.13551 -0.13547,-0.17979 0.0222,-0.0443 0.18115,0.0235 0.22512,7e-4 0.044,-0.0228 0.0802,-0.19179 0.12913,-0.18439 0.049,0.007 0.0336,0.17955 0.0689,0.21432 0.0353,0.0348 0.20718,0.017 0.21527,0.0658 0.008,0.0489 -0.16037,0.0875 -0.18254,0.13174 -0.0222,0.0443 0.0479,0.20229 0.004,0.22508 z"
       inkscape:randomized="0"
       inkscape:rounded="0.22"
       inkscape:flatsided="false"
       sodipodi:arg2="1.7207625"
       sodipodi:arg1="1.0924439"
       sodipodi:r2="0.17036091"
       sodipodi:r1="0.33943987"
       sodipodi:cy="297.16943"
       sodipodi:cx="295.84821"
       sodipodi:sides="5"
       id="path3884"
       style="fill:#ffffff;fill-opacity:1;stroke:none"
       sodipodi:type="star" />
    <path
       sodipodi:type="star"
       style="fill:#ffffff;fill-opacity:1;stroke:none"
       id="path3886"
       sodipodi:sides="5"
       sodipodi:cx="295.84821"
       sodipodi:cy="297.16943"
       sodipodi:r1="0.33943987"
       sodipodi:r2="0.17036091"
       sodipodi:arg1="1.0924439"
       sodipodi:arg2="1.7207625"
       inkscape:flatsided="false"
       inkscape:rounded="0.22"
       inkscape:randomized="0"
       d="m 296.00446,297.47077 c -0.044,0.0228 -0.13274,-0.12549 -0.18171,-0.13289 -0.049,-0.007 -0.17758,0.10804 -0.21285,0.0733 -0.0353,-0.0348 0.0783,-0.16502 0.0702,-0.21388 -0.008,-0.0489 -0.15764,-0.13551 -0.13547,-0.17979 0.0222,-0.0443 0.18115,0.0235 0.22512,7e-4 0.044,-0.0228 0.0802,-0.19179 0.12913,-0.18439 0.049,0.007 0.0336,0.17955 0.0689,0.21432 0.0353,0.0348 0.20718,0.017 0.21527,0.0658 0.008,0.0489 -0.16037,0.0875 -0.18254,0.13174 -0.0222,0.0443 0.0479,0.20229 0.004,0.22508 z"
       transform="matrix(0.17678057,-0.2252869,0.2252869,0.17678057,309.7025,576.27396)" />
    <path
       transform="matrix(0.17678057,-0.2252869,0.2252869,0.17678057,309.89383,576.46357)"
       d="m 296.00446,297.47077 c -0.044,0.0228 -0.13274,-0.12549 -0.18171,-0.13289 -0.049,-0.007 -0.17758,0.10804 -0.21285,0.0733 -0.0353,-0.0348 0.0783,-0.16502 0.0702,-0.21388 -0.008,-0.0489 -0.15764,-0.13551 -0.13547,-0.17979 0.0222,-0.0443 0.18115,0.0235 0.22512,7e-4 0.044,-0.0228 0.0802,-0.19179 0.12913,-0.18439 0.049,0.007 0.0336,0.17955 0.0689,0.21432 0.0353,0.0348 0.20718,0.017 0.21527,0.0658 0.008,0.0489 -0.16037,0.0875 -0.18254,0.13174 -0.0222,0.0443 0.0479,0.20229 0.004,0.22508 z"
       inkscape:randomized="0"
       inkscape:rounded="0.22"
       inkscape:flatsided="false"
       sodipodi:arg2="1.7207625"
       sodipodi:arg1="1.0924439"
       sodipodi:r2="0.17036091"
       sodipodi:r1="0.33943987"
       sodipodi:cy="297.16943"
       sodipodi:cx="295.84821"
       sodipodi:sides="5"
       id="path3888"
       style="fill:#ffffff;fill-opacity:1;stroke:none"
       sodipodi:type="star" />
    <path
       sodipodi:type="star"
       style="fill:#ffffff;fill-opacity:1;stroke:none"
       id="path3890"
       sodipodi:sides="5"
       sodipodi:cx="295.84821"
       sodipodi:cy="297.16943"
       sodipodi:r1="0.33943987"
       sodipodi:r2="0.17036091"
       sodipodi:arg1="1.0924439"
       sodipodi:arg2="1.7207625"
       inkscape:flatsided="false"
       inkscape:rounded="0.22"
       inkscape:randomized="0"
       d="m 296.00446,297.47077 c -0.044,0.0228 -0.13274,-0.12549 -0.18171,-0.13289 -0.049,-0.007 -0.17758,0.10804 -0.21285,0.0733 -0.0353,-0.0348 0.0783,-0.16502 0.0702,-0.21388 -0.008,-0.0489 -0.15764,-0.13551 -0.13547,-0.17979 0.0222,-0.0443 0.18115,0.0235 0.22512,7e-4 0.044,-0.0228 0.0802,-0.19179 0.12913,-0.18439 0.049,0.007 0.0336,0.17955 0.0689,0.21432 0.0353,0.0348 0.20718,0.017 0.21527,0.0658 0.008,0.0489 -0.16037,0.0875 -0.18254,0.13174 -0.0222,0.0443 0.0479,0.20229 0.004,0.22508 z"
       transform="matrix(0.17678057,-0.2252869,0.2252869,0.17678057,310.10144,576.66932)" />
    <path
       transform="matrix(0.17678057,-0.2252869,0.2252869,0.17678057,310.30089,576.867)"
       d="m 296.00446,297.47077 c -0.044,0.0228 -0.13274,-0.12549 -0.18171,-0.13289 -0.049,-0.007 -0.17758,0.10804 -0.21285,0.0733 -0.0353,-0.0348 0.0783,-0.16502 0.0702,-0.21388 -0.008,-0.0489 -0.15764,-0.13551 -0.13547,-0.17979 0.0222,-0.0443 0.18115,0.0235 0.22512,7e-4 0.044,-0.0228 0.0802,-0.19179 0.12913,-0.18439 0.049,0.007 0.0336,0.17955 0.0689,0.21432 0.0353,0.0348 0.20718,0.017 0.21527,0.0658 0.008,0.0489 -0.16037,0.0875 -0.18254,0.13174 -0.0222,0.0443 0.0479,0.20229 0.004,0.22508 z"
       inkscape:randomized="0"
       inkscape:rounded="0.22"
       inkscape:flatsided="false"
       sodipodi:arg2="1.7207625"
       sodipodi:arg1="1.0924439"
       sodipodi:r2="0.17036091"
       sodipodi:r1="0.33943987"
       sodipodi:cy="297.16943"
       sodipodi:cx="295.84821"
       sodipodi:sides="5"
       id="path3892"
       style="fill:#ffffff;fill-opacity:1;stroke:none"
       sodipodi:type="star" />
    <path
       sodipodi:type="star"
       style="fill:#ffffff;fill-opacity:1;stroke:none"
       id="path3894"
       sodipodi:sides="5"
       sodipodi:cx="295.84821"
       sodipodi:cy="297.16943"
       sodipodi:r1="0.33943987"
       sodipodi:r2="0.17036091"
       sodipodi:arg1="1.0924439"
       sodipodi:arg2="1.7207625"
       inkscape:flatsided="false"
       inkscape:rounded="0.22"
       inkscape:randomized="0"
       d="m 296.00446,297.47077 c -0.044,0.0228 -0.13274,-0.12549 -0.18171,-0.13289 -0.049,-0.007 -0.17758,0.10804 -0.21285,0.0733 -0.0353,-0.0348 0.0783,-0.16502 0.0702,-0.21388 -0.008,-0.0489 -0.15764,-0.13551 -0.13547,-0.17979 0.0222,-0.0443 0.18115,0.0235 0.22512,7e-4 0.044,-0.0228 0.0802,-0.19179 0.12913,-0.18439 0.049,0.007 0.0336,0.17955 0.0689,0.21432 0.0353,0.0348 0.20718,0.017 0.21527,0.0658 0.008,0.0489 -0.16037,0.0875 -0.18254,0.13174 -0.0222,0.0443 0.0479,0.20229 0.004,0.22508 z"
       transform="matrix(0.17678057,-0.2252869,0.2252869,0.17678057,310.50443,577.06872)" />
    <path
       transform="matrix(0.17678057,-0.2252869,0.2252869,0.17678057,309.98188,576.22002)"
       d="m 296.00446,297.47077 c -0.044,0.0228 -0.13274,-0.12549 -0.18171,-0.13289 -0.049,-0.007 -0.17758,0.10804 -0.21285,0.0733 -0.0353,-0.0348 0.0783,-0.16502 0.0702,-0.21388 -0.008,-0.0489 -0.15764,-0.13551 -0.13547,-0.17979 0.0222,-0.0443 0.18115,0.0235 0.22512,7e-4 0.044,-0.0228 0.0802,-0.19179 0.12913,-0.18439 0.049,0.007 0.0336,0.17955 0.0689,0.21432 0.0353,0.0348 0.20718,0.017 0.21527,0.0658 0.008,0.0489 -0.16037,0.0875 -0.18254,0.13174 -0.0222,0.0443 0.0479,0.20229 0.004,0.22508 z"
       inkscape:randomized="0"
       inkscape:rounded="0.22"
       inkscape:flatsided="false"
       sodipodi:arg2="1.7207625"
       sodipodi:arg1="1.0924439"
       sodipodi:r2="0.17036091"
       sodipodi:r1="0.33943987"
       sodipodi:cy="297.16943"
       sodipodi:cx="295.84821"
       sodipodi:sides="5"
       id="path3896"
       style="fill:#ffffff;fill-opacity:1;stroke:none"
       sodipodi:type="star" />
    <path
       sodipodi:type="star"
       style="fill:#ffffff;fill-opacity:1;stroke:none"
       id="path3898"
       sodipodi:sides="5"
       sodipodi:cx="295.84821"
       sodipodi:cy="297.16943"
       sodipodi:r1="0.33943987"
       sodipodi:r2="0.17036091"
       sodipodi:arg1="1.0924439"
       sodipodi:arg2="1.7207625"
       inkscape:flatsided="false"
       inkscape:rounded="0.22"
       inkscape:randomized="0"
       d="m 296.00446,297.47077 c -0.044,0.0228 -0.13274,-0.12549 -0.18171,-0.13289 -0.049,-0.007 -0.17758,0.10804 -0.21285,0.0733 -0.0353,-0.0348 0.0783,-0.16502 0.0702,-0.21388 -0.008,-0.0489 -0.15764,-0.13551 -0.13547,-0.17979 0.0222,-0.0443 0.18115,0.0235 0.22512,7e-4 0.044,-0.0228 0.0802,-0.19179 0.12913,-0.18439 0.049,0.007 0.0336,0.17955 0.0689,0.21432 0.0353,0.0348 0.20718,0.017 0.21527,0.0658 0.008,0.0489 -0.16037,0.0875 -0.18254,0.13174 -0.0222,0.0443 0.0479,0.20229 0.004,0.22508 z"
       transform="matrix(0.17678057,-0.2252869,0.2252869,0.17678057,310.17321,576.40964)" />
    <path
       transform="matrix(0.17678057,-0.2252869,0.2252869,0.17678057,310.38081,576.61539)"
       d="m 296.00446,297.47077 c -0.044,0.0228 -0.13274,-0.12549 -0.18171,-0.13289 -0.049,-0.007 -0.17758,0.10804 -0.21285,0.0733 -0.0353,-0.0348 0.0783,-0.16502 0.0702,-0.21388 -0.008,-0.0489 -0.15764,-0.13551 -0.13547,-0.17979 0.0222,-0.0443 0.18115,0.0235 0.22512,7e-4 0.044,-0.0228 0.0802,-0.19179 0.12913,-0.18439 0.049,0.007 0.0336,0.17955 0.0689,0.21432 0.0353,0.0348 0.20718,0.017 0.21527,0.0658 0.008,0.0489 -0.16037,0.0875 -0.18254,0.13174 -0.0222,0.0443 0.0479,0.20229 0.004,0.22508 z"
       inkscape:randomized="0"
       inkscape:rounded="0.22"
       inkscape:flatsided="false"
       sodipodi:arg2="1.7207625"
       sodipodi:arg1="1.0924439"
       sodipodi:r2="0.17036091"
       sodipodi:r1="0.33943987"
       sodipodi:cy="297.16943"
       sodipodi:cx="295.84821"
       sodipodi:sides="5"
       id="path3900"
       style="fill:#ffffff;fill-opacity:1;stroke:none"
       sodipodi:type="star" />
    <path
       sodipodi:type="star"
       style="fill:#ffffff;fill-opacity:1;stroke:none"
       id="path3902"
       sodipodi:sides="5"
       sodipodi:cx="295.84821"
       sodipodi:cy="297.16943"
       sodipodi:r1="0.33943987"
       sodipodi:r2="0.17036091"
       sodipodi:arg1="1.0924439"
       sodipodi:arg2="1.7207625"
       inkscape:flatsided="false"
       inkscape:rounded="0.22"
       inkscape:randomized="0"
       d="m 296.00446,297.47077 c -0.044,0.0228 -0.13274,-0.12549 -0.18171,-0.13289 -0.049,-0.007 -0.17758,0.10804 -0.21285,0.0733 -0.0353,-0.0348 0.0783,-0.16502 0.0702,-0.21388 -0.008,-0.0489 -0.15764,-0.13551 -0.13547,-0.17979 0.0222,-0.0443 0.18115,0.0235 0.22512,7e-4 0.044,-0.0228 0.0802,-0.19179 0.12913,-0.18439 0.049,0.007 0.0336,0.17955 0.0689,0.21432 0.0353,0.0348 0.20718,0.017 0.21527,0.0658 0.008,0.0489 -0.16037,0.0875 -0.18254,0.13174 -0.0222,0.0443 0.0479,0.20229 0.004,0.22508 z"
       transform="matrix(0.17678057,-0.2252869,0.2252869,0.17678057,310.58028,576.81307)" />
    <path
       transform="matrix(0.17678057,-0.2252869,0.2252869,0.17678057,310.03331,575.94016)"
       d="m 296.00446,297.47077 c -0.044,0.0228 -0.13274,-0.12549 -0.18171,-0.13289 -0.049,-0.007 -0.17758,0.10804 -0.21285,0.0733 -0.0353,-0.0348 0.0783,-0.16502 0.0702,-0.21388 -0.008,-0.0489 -0.15764,-0.13551 -0.13547,-0.17979 0.0222,-0.0443 0.18115,0.0235 0.22512,7e-4 0.044,-0.0228 0.0802,-0.19179 0.12913,-0.18439 0.049,0.007 0.0336,0.17955 0.0689,0.21432 0.0353,0.0348 0.20718,0.017 0.21527,0.0658 0.008,0.0489 -0.16037,0.0875 -0.18254,0.13174 -0.0222,0.0443 0.0479,0.20229 0.004,0.22508 z"
       inkscape:randomized="0"
       inkscape:rounded="0.22"
       inkscape:flatsided="false"
       sodipodi:arg2="1.7207625"
       sodipodi:arg1="1.0924439"
       sodipodi:r2="0.17036091"
       sodipodi:r1="0.33943987"
       sodipodi:cy="297.16943"
       sodipodi:cx="295.84821"
       sodipodi:sides="5"
       id="path3904"
       style="fill:#ffffff;fill-opacity:1;stroke:none"
       sodipodi:type="star" />
    <path
       sodipodi:type="star"
       style="fill:#ffffff;fill-opacity:1;stroke:none"
       id="path3906"
       sodipodi:sides="5"
       sodipodi:cx="295.84821"
       sodipodi:cy="297.16943"
       sodipodi:r1="0.33943987"
       sodipodi:r2="0.17036091"
       sodipodi:arg1="1.0924439"
       sodipodi:arg2="1.7207625"
       inkscape:flatsided="false"
       inkscape:rounded="0.22"
       inkscape:randomized="0"
       d="m 296.00446,297.47077 c -0.044,0.0228 -0.13274,-0.12549 -0.18171,-0.13289 -0.049,-0.007 -0.17758,0.10804 -0.21285,0.0733 -0.0353,-0.0348 0.0783,-0.16502 0.0702,-0.21388 -0.008,-0.0489 -0.15764,-0.13551 -0.13547,-0.17979 0.0222,-0.0443 0.18115,0.0235 0.22512,7e-4 0.044,-0.0228 0.0802,-0.19179 0.12913,-0.18439 0.049,0.007 0.0336,0.17955 0.0689,0.21432 0.0353,0.0348 0.20718,0.017 0.21527,0.0658 0.008,0.0489 -0.16037,0.0875 -0.18254,0.13174 -0.0222,0.0443 0.0479,0.20229 0.004,0.22508 z"
       transform="matrix(0.17678057,-0.2252869,0.2252869,0.17678057,310.22464,576.12978)" />
    <path
       transform="matrix(0.17678057,-0.2252869,0.2252869,0.17678057,310.43224,576.33553)"
       d="m 296.00446,297.47077 c -0.044,0.0228 -0.13274,-0.12549 -0.18171,-0.13289 -0.049,-0.007 -0.17758,0.10804 -0.21285,0.0733 -0.0353,-0.0348 0.0783,-0.16502 0.0702,-0.21388 -0.008,-0.0489 -0.15764,-0.13551 -0.13547,-0.17979 0.0222,-0.0443 0.18115,0.0235 0.22512,7e-4 0.044,-0.0228 0.0802,-0.19179 0.12913,-0.18439 0.049,0.007 0.0336,0.17955 0.0689,0.21432 0.0353,0.0348 0.20718,0.017 0.21527,0.0658 0.008,0.0489 -0.16037,0.0875 -0.18254,0.13174 -0.0222,0.0443 0.0479,0.20229 0.004,0.22508 z"
       inkscape:randomized="0"
       inkscape:rounded="0.22"
       inkscape:flatsided="false"
       sodipodi:arg2="1.7207625"
       sodipodi:arg1="1.0924439"
       sodipodi:r2="0.17036091"
       sodipodi:r1="0.33943987"
       sodipodi:cy="297.16943"
       sodipodi:cx="295.84821"
       sodipodi:sides="5"
       id="path3908"
       style="fill:#ffffff;fill-opacity:1;stroke:none"
       sodipodi:type="star" />
    <path
       sodipodi:type="star"
       style="fill:#ffffff;fill-opacity:1;stroke:none"
       id="path3910"
       sodipodi:sides="5"
       sodipodi:cx="295.84821"
       sodipodi:cy="297.16943"
       sodipodi:r1="0.33943987"
       sodipodi:r2="0.17036091"
       sodipodi:arg1="1.0924439"
       sodipodi:arg2="1.7207625"
       inkscape:flatsided="false"
       inkscape:rounded="0.22"
       inkscape:randomized="0"
       d="m 296.00446,297.47077 c -0.044,0.0228 -0.13274,-0.12549 -0.18171,-0.13289 -0.049,-0.007 -0.17758,0.10804 -0.21285,0.0733 -0.0353,-0.0348 0.0783,-0.16502 0.0702,-0.21388 -0.008,-0.0489 -0.15764,-0.13551 -0.13547,-0.17979 0.0222,-0.0443 0.18115,0.0235 0.22512,7e-4 0.044,-0.0228 0.0802,-0.19179 0.12913,-0.18439 0.049,0.007 0.0336,0.17955 0.0689,0.21432 0.0353,0.0348 0.20718,0.017 0.21527,0.0658 0.008,0.0489 -0.16037,0.0875 -0.18254,0.13174 -0.0222,0.0443 0.0479,0.20229 0.004,0.22508 z"
       transform="matrix(0.17678057,-0.2252869,0.2252869,0.17678057,310.6317,576.53321)" />
    <path
       transform="matrix(0.17678057,-0.2252869,0.2252869,0.17678057,310.83524,576.73492)"
       d="m 296.00446,297.47077 c -0.044,0.0228 -0.13274,-0.12549 -0.18171,-0.13289 -0.049,-0.007 -0.17758,0.10804 -0.21285,0.0733 -0.0353,-0.0348 0.0783,-0.16502 0.0702,-0.21388 -0.008,-0.0489 -0.15764,-0.13551 -0.13547,-0.17979 0.0222,-0.0443 0.18115,0.0235 0.22512,7e-4 0.044,-0.0228 0.0802,-0.19179 0.12913,-0.18439 0.049,0.007 0.0336,0.17955 0.0689,0.21432 0.0353,0.0348 0.20718,0.017 0.21527,0.0658 0.008,0.0489 -0.16037,0.0875 -0.18254,0.13174 -0.0222,0.0443 0.0479,0.20229 0.004,0.22508 z"
       inkscape:randomized="0"
       inkscape:rounded="0.22"
       inkscape:flatsided="false"
       sodipodi:arg2="1.7207625"
       sodipodi:arg1="1.0924439"
       sodipodi:r2="0.17036091"
       sodipodi:r1="0.33943987"
       sodipodi:cy="297.16943"
       sodipodi:cx="295.84821"
       sodipodi:sides="5"
       id="path3912"
       style="fill:#ffffff;fill-opacity:1;stroke:none"
       sodipodi:type="star" />
    <path
       sodipodi:type="star"
       style="fill:#ffffff;fill-opacity:1;stroke:none"
       id="path3914"
       sodipodi:sides="5"
       sodipodi:cx="295.84821"
       sodipodi:cy="297.16943"
       sodipodi:r1="0.33943987"
       sodipodi:r2="0.17036091"
       sodipodi:arg1="1.0924439"
       sodipodi:arg2="1.7207625"
       inkscape:flatsided="false"
       inkscape:rounded="0.22"
       inkscape:randomized="0"
       d="m 296.00446,297.47077 c -0.044,0.0228 -0.13274,-0.12549 -0.18171,-0.13289 -0.049,-0.007 -0.17758,0.10804 -0.21285,0.0733 -0.0353,-0.0348 0.0783,-0.16502 0.0702,-0.21388 -0.008,-0.0489 -0.15764,-0.13551 -0.13547,-0.17979 0.0222,-0.0443 0.18115,0.0235 0.22512,7e-4 0.044,-0.0228 0.0802,-0.19179 0.12913,-0.18439 0.049,0.007 0.0336,0.17955 0.0689,0.21432 0.0353,0.0348 0.20718,0.017 0.21527,0.0658 0.008,0.0489 -0.16037,0.0875 -0.18254,0.13174 -0.0222,0.0443 0.0479,0.20229 0.004,0.22508 z"
       transform="matrix(0.17678057,-0.2252869,0.2252869,0.17678057,310.3127,575.88622)" />
    <path
       transform="matrix(0.17678057,-0.2252869,0.2252869,0.17678057,310.50402,576.07584)"
       d="m 296.00446,297.47077 c -0.044,0.0228 -0.13274,-0.12549 -0.18171,-0.13289 -0.049,-0.007 -0.17758,0.10804 -0.21285,0.0733 -0.0353,-0.0348 0.0783,-0.16502 0.0702,-0.21388 -0.008,-0.0489 -0.15764,-0.13551 -0.13547,-0.17979 0.0222,-0.0443 0.18115,0.0235 0.22512,7e-4 0.044,-0.0228 0.0802,-0.19179 0.12913,-0.18439 0.049,0.007 0.0336,0.17955 0.0689,0.21432 0.0353,0.0348 0.20718,0.017 0.21527,0.0658 0.008,0.0489 -0.16037,0.0875 -0.18254,0.13174 -0.0222,0.0443 0.0479,0.20229 0.004,0.22508 z"
       inkscape:randomized="0"
       inkscape:rounded="0.22"
       inkscape:flatsided="false"
       sodipodi:arg2="1.7207625"
       sodipodi:arg1="1.0924439"
       sodipodi:r2="0.17036091"
       sodipodi:r1="0.33943987"
       sodipodi:cy="297.16943"
       sodipodi:cx="295.84821"
       sodipodi:sides="5"
       id="path3916"
       style="fill:#ffffff;fill-opacity:1;stroke:none"
       sodipodi:type="star" />
    <path
       sodipodi:type="star"
       style="fill:#ffffff;fill-opacity:1;stroke:none"
       id="path3918"
       sodipodi:sides="5"
       sodipodi:cx="295.84821"
       sodipodi:cy="297.16943"
       sodipodi:r1="0.33943987"
       sodipodi:r2="0.17036091"
       sodipodi:arg1="1.0924439"
       sodipodi:arg2="1.7207625"
       inkscape:flatsided="false"
       inkscape:rounded="0.22"
       inkscape:randomized="0"
       d="m 296.00446,297.47077 c -0.044,0.0228 -0.13274,-0.12549 -0.18171,-0.13289 -0.049,-0.007 -0.17758,0.10804 -0.21285,0.0733 -0.0353,-0.0348 0.0783,-0.16502 0.0702,-0.21388 -0.008,-0.0489 -0.15764,-0.13551 -0.13547,-0.17979 0.0222,-0.0443 0.18115,0.0235 0.22512,7e-4 0.044,-0.0228 0.0802,-0.19179 0.12913,-0.18439 0.049,0.007 0.0336,0.17955 0.0689,0.21432 0.0353,0.0348 0.20718,0.017 0.21527,0.0658 0.008,0.0489 -0.16037,0.0875 -0.18254,0.13174 -0.0222,0.0443 0.0479,0.20229 0.004,0.22508 z"
       transform="matrix(0.17678057,-0.2252869,0.2252869,0.17678057,310.71163,576.28159)" />
    <path
       transform="matrix(0.17678057,-0.2252869,0.2252869,0.17678057,310.9111,576.47927)"
       d="m 296.00446,297.47077 c -0.044,0.0228 -0.13274,-0.12549 -0.18171,-0.13289 -0.049,-0.007 -0.17758,0.10804 -0.21285,0.0733 -0.0353,-0.0348 0.0783,-0.16502 0.0702,-0.21388 -0.008,-0.0489 -0.15764,-0.13551 -0.13547,-0.17979 0.0222,-0.0443 0.18115,0.0235 0.22512,7e-4 0.044,-0.0228 0.0802,-0.19179 0.12913,-0.18439 0.049,0.007 0.0336,0.17955 0.0689,0.21432 0.0353,0.0348 0.20718,0.017 0.21527,0.0658 0.008,0.0489 -0.16037,0.0875 -0.18254,0.13174 -0.0222,0.0443 0.0479,0.20229 0.004,0.22508 z"
       inkscape:randomized="0"
       inkscape:rounded="0.22"
       inkscape:flatsided="false"
       sodipodi:arg2="1.7207625"
       sodipodi:arg1="1.0924439"
       sodipodi:r2="0.17036091"
       sodipodi:r1="0.33943987"
       sodipodi:cy="297.16943"
       sodipodi:cx="295.84821"
       sodipodi:sides="5"
       id="path3920"
       style="fill:#ffffff;fill-opacity:1;stroke:none"
       sodipodi:type="star" />
    <path
       sodipodi:type="star"
       style="fill:#ffffff;fill-opacity:1;stroke:none"
       id="path3922"
       sodipodi:sides="5"
       sodipodi:cx="295.84821"
       sodipodi:cy="297.16943"
       sodipodi:r1="0.33943987"
       sodipodi:r2="0.17036091"
       sodipodi:arg1="1.0924439"
       sodipodi:arg2="1.7207625"
       inkscape:flatsided="false"
       inkscape:rounded="0.22"
       inkscape:randomized="0"
       d="m 296.00446,297.47077 c -0.044,0.0228 -0.13274,-0.12549 -0.18171,-0.13289 -0.049,-0.007 -0.17758,0.10804 -0.21285,0.0733 -0.0353,-0.0348 0.0783,-0.16502 0.0702,-0.21388 -0.008,-0.0489 -0.15764,-0.13551 -0.13547,-0.17979 0.0222,-0.0443 0.18115,0.0235 0.22512,7e-4 0.044,-0.0228 0.0802,-0.19179 0.12913,-0.18439 0.049,0.007 0.0336,0.17955 0.0689,0.21432 0.0353,0.0348 0.20718,0.017 0.21527,0.0658 0.008,0.0489 -0.16037,0.0875 -0.18254,0.13174 -0.0222,0.0443 0.0479,0.20229 0.004,0.22508 z"
       transform="matrix(0.17678057,-0.2252869,0.2252869,0.17678057,310.35605,575.61451)" />
    <path
       transform="matrix(0.17678057,-0.2252869,0.2252869,0.17678057,310.54738,575.80413)"
       d="m 296.00446,297.47077 c -0.044,0.0228 -0.13274,-0.12549 -0.18171,-0.13289 -0.049,-0.007 -0.17758,0.10804 -0.21285,0.0733 -0.0353,-0.0348 0.0783,-0.16502 0.0702,-0.21388 -0.008,-0.0489 -0.15764,-0.13551 -0.13547,-0.17979 0.0222,-0.0443 0.18115,0.0235 0.22512,7e-4 0.044,-0.0228 0.0802,-0.19179 0.12913,-0.18439 0.049,0.007 0.0336,0.17955 0.0689,0.21432 0.0353,0.0348 0.20718,0.017 0.21527,0.0658 0.008,0.0489 -0.16037,0.0875 -0.18254,0.13174 -0.0222,0.0443 0.0479,0.20229 0.004,0.22508 z"
       inkscape:randomized="0"
       inkscape:rounded="0.22"
       inkscape:flatsided="false"
       sodipodi:arg2="1.7207625"
       sodipodi:arg1="1.0924439"
       sodipodi:r2="0.17036091"
       sodipodi:r1="0.33943987"
       sodipodi:cy="297.16943"
       sodipodi:cx="295.84821"
       sodipodi:sides="5"
       id="path3924"
       style="fill:#ffffff;fill-opacity:1;stroke:none"
       sodipodi:type="star" />
    <path
       sodipodi:type="star"
       style="fill:#ffffff;fill-opacity:1;stroke:none"
       id="path3926"
       sodipodi:sides="5"
       sodipodi:cx="295.84821"
       sodipodi:cy="297.16943"
       sodipodi:r1="0.33943987"
       sodipodi:r2="0.17036091"
       sodipodi:arg1="1.0924439"
       sodipodi:arg2="1.7207625"
       inkscape:flatsided="false"
       inkscape:rounded="0.22"
       inkscape:randomized="0"
       d="m 296.00446,297.47077 c -0.044,0.0228 -0.13274,-0.12549 -0.18171,-0.13289 -0.049,-0.007 -0.17758,0.10804 -0.21285,0.0733 -0.0353,-0.0348 0.0783,-0.16502 0.0702,-0.21388 -0.008,-0.0489 -0.15764,-0.13551 -0.13547,-0.17979 0.0222,-0.0443 0.18115,0.0235 0.22512,7e-4 0.044,-0.0228 0.0802,-0.19179 0.12913,-0.18439 0.049,0.007 0.0336,0.17955 0.0689,0.21432 0.0353,0.0348 0.20718,0.017 0.21527,0.0658 0.008,0.0489 -0.16037,0.0875 -0.18254,0.13174 -0.0222,0.0443 0.0479,0.20229 0.004,0.22508 z"
       transform="matrix(0.17678057,-0.2252869,0.2252869,0.17678057,310.75499,576.00988)" />
    <path
       transform="matrix(0.17678057,-0.2252869,0.2252869,0.17678057,310.95445,576.20755)"
       d="m 296.00446,297.47077 c -0.044,0.0228 -0.13274,-0.12549 -0.18171,-0.13289 -0.049,-0.007 -0.17758,0.10804 -0.21285,0.0733 -0.0353,-0.0348 0.0783,-0.16502 0.0702,-0.21388 -0.008,-0.0489 -0.15764,-0.13551 -0.13547,-0.17979 0.0222,-0.0443 0.18115,0.0235 0.22512,7e-4 0.044,-0.0228 0.0802,-0.19179 0.12913,-0.18439 0.049,0.007 0.0336,0.17955 0.0689,0.21432 0.0353,0.0348 0.20718,0.017 0.21527,0.0658 0.008,0.0489 -0.16037,0.0875 -0.18254,0.13174 -0.0222,0.0443 0.0479,0.20229 0.004,0.22508 z"
       inkscape:randomized="0"
       inkscape:rounded="0.22"
       inkscape:flatsided="false"
       sodipodi:arg2="1.7207625"
       sodipodi:arg1="1.0924439"
       sodipodi:r2="0.17036091"
       sodipodi:r1="0.33943987"
       sodipodi:cy="297.16943"
       sodipodi:cx="295.84821"
       sodipodi:sides="5"
       id="path3928"
       style="fill:#ffffff;fill-opacity:1;stroke:none"
       sodipodi:type="star" />
    <path
       sodipodi:type="star"
       style="fill:#ffffff;fill-opacity:1;stroke:none"
       id="path3930"
       sodipodi:sides="5"
       sodipodi:cx="295.84821"
       sodipodi:cy="297.16943"
       sodipodi:r1="0.33943987"
       sodipodi:r2="0.17036091"
       sodipodi:arg1="1.0924439"
       sodipodi:arg2="1.7207625"
       inkscape:flatsided="false"
       inkscape:rounded="0.22"
       inkscape:randomized="0"
       d="m 296.00446,297.47077 c -0.044,0.0228 -0.13274,-0.12549 -0.18171,-0.13289 -0.049,-0.007 -0.17758,0.10804 -0.21285,0.0733 -0.0353,-0.0348 0.0783,-0.16502 0.0702,-0.21388 -0.008,-0.0489 -0.15764,-0.13551 -0.13547,-0.17979 0.0222,-0.0443 0.18115,0.0235 0.22512,7e-4 0.044,-0.0228 0.0802,-0.19179 0.12913,-0.18439 0.049,0.007 0.0336,0.17955 0.0689,0.21432 0.0353,0.0348 0.20718,0.017 0.21527,0.0658 0.008,0.0489 -0.16037,0.0875 -0.18254,0.13174 -0.0222,0.0443 0.0479,0.20229 0.004,0.22508 z"
       transform="matrix(0.17678057,-0.2252869,0.2252869,0.17678057,311.15798,576.40927)" />
    <path
       transform="matrix(0.17678057,-0.2252869,0.2252869,0.17678057,310.63544,575.56057)"
       d="m 296.00446,297.47077 c -0.044,0.0228 -0.13274,-0.12549 -0.18171,-0.13289 -0.049,-0.007 -0.17758,0.10804 -0.21285,0.0733 -0.0353,-0.0348 0.0783,-0.16502 0.0702,-0.21388 -0.008,-0.0489 -0.15764,-0.13551 -0.13547,-0.17979 0.0222,-0.0443 0.18115,0.0235 0.22512,7e-4 0.044,-0.0228 0.0802,-0.19179 0.12913,-0.18439 0.049,0.007 0.0336,0.17955 0.0689,0.21432 0.0353,0.0348 0.20718,0.017 0.21527,0.0658 0.008,0.0489 -0.16037,0.0875 -0.18254,0.13174 -0.0222,0.0443 0.0479,0.20229 0.004,0.22508 z"
       inkscape:randomized="0"
       inkscape:rounded="0.22"
       inkscape:flatsided="false"
       sodipodi:arg2="1.7207625"
       sodipodi:arg1="1.0924439"
       sodipodi:r2="0.17036091"
       sodipodi:r1="0.33943987"
       sodipodi:cy="297.16943"
       sodipodi:cx="295.84821"
       sodipodi:sides="5"
       id="path3932"
       style="fill:#ffffff;fill-opacity:1;stroke:none"
       sodipodi:type="star" />
    <path
       sodipodi:type="star"
       style="fill:#ffffff;fill-opacity:1;stroke:none"
       id="path3934"
       sodipodi:sides="5"
       sodipodi:cx="295.84821"
       sodipodi:cy="297.16943"
       sodipodi:r1="0.33943987"
       sodipodi:r2="0.17036091"
       sodipodi:arg1="1.0924439"
       sodipodi:arg2="1.7207625"
       inkscape:flatsided="false"
       inkscape:rounded="0.22"
       inkscape:randomized="0"
       d="m 296.00446,297.47077 c -0.044,0.0228 -0.13274,-0.12549 -0.18171,-0.13289 -0.049,-0.007 -0.17758,0.10804 -0.21285,0.0733 -0.0353,-0.0348 0.0783,-0.16502 0.0702,-0.21388 -0.008,-0.0489 -0.15764,-0.13551 -0.13547,-0.17979 0.0222,-0.0443 0.18115,0.0235 0.22512,7e-4 0.044,-0.0228 0.0802,-0.19179 0.12913,-0.18439 0.049,0.007 0.0336,0.17955 0.0689,0.21432 0.0353,0.0348 0.20718,0.017 0.21527,0.0658 0.008,0.0489 -0.16037,0.0875 -0.18254,0.13174 -0.0222,0.0443 0.0479,0.20229 0.004,0.22508 z"
       transform="matrix(0.17678057,-0.2252869,0.2252869,0.17678057,310.82677,575.75019)" />
    <path
       transform="matrix(0.17678057,-0.2252869,0.2252869,0.17678057,311.03437,575.95594)"
       d="m 296.00446,297.47077 c -0.044,0.0228 -0.13274,-0.12549 -0.18171,-0.13289 -0.049,-0.007 -0.17758,0.10804 -0.21285,0.0733 -0.0353,-0.0348 0.0783,-0.16502 0.0702,-0.21388 -0.008,-0.0489 -0.15764,-0.13551 -0.13547,-0.17979 0.0222,-0.0443 0.18115,0.0235 0.22512,7e-4 0.044,-0.0228 0.0802,-0.19179 0.12913,-0.18439 0.049,0.007 0.0336,0.17955 0.0689,0.21432 0.0353,0.0348 0.20718,0.017 0.21527,0.0658 0.008,0.0489 -0.16037,0.0875 -0.18254,0.13174 -0.0222,0.0443 0.0479,0.20229 0.004,0.22508 z"
       inkscape:randomized="0"
       inkscape:rounded="0.22"
       inkscape:flatsided="false"
       sodipodi:arg2="1.7207625"
       sodipodi:arg1="1.0924439"
       sodipodi:r2="0.17036091"
       sodipodi:r1="0.33943987"
       sodipodi:cy="297.16943"
       sodipodi:cx="295.84821"
       sodipodi:sides="5"
       id="path3936"
       style="fill:#ffffff;fill-opacity:1;stroke:none"
       sodipodi:type="star" />
    <path
       sodipodi:type="star"
       style="fill:#ffffff;fill-opacity:1;stroke:none"
       id="path3938"
       sodipodi:sides="5"
       sodipodi:cx="295.84821"
       sodipodi:cy="297.16943"
       sodipodi:r1="0.33943987"
       sodipodi:r2="0.17036091"
       sodipodi:arg1="1.0924439"
       sodipodi:arg2="1.7207625"
       inkscape:flatsided="false"
       inkscape:rounded="0.22"
       inkscape:randomized="0"
       d="m 296.00446,297.47077 c -0.044,0.0228 -0.13274,-0.12549 -0.18171,-0.13289 -0.049,-0.007 -0.17758,0.10804 -0.21285,0.0733 -0.0353,-0.0348 0.0783,-0.16502 0.0702,-0.21388 -0.008,-0.0489 -0.15764,-0.13551 -0.13547,-0.17979 0.0222,-0.0443 0.18115,0.0235 0.22512,7e-4 0.044,-0.0228 0.0802,-0.19179 0.12913,-0.18439 0.049,0.007 0.0336,0.17955 0.0689,0.21432 0.0353,0.0348 0.20718,0.017 0.21527,0.0658 0.008,0.0489 -0.16037,0.0875 -0.18254,0.13174 -0.0222,0.0443 0.0479,0.20229 0.004,0.22508 z"
       transform="matrix(0.17678057,-0.2252869,0.2252869,0.17678057,311.23384,576.15362)" />
    <path
       transform="matrix(0.17678057,-0.2252869,0.2252869,0.17678057,310.6909,575.27664)"
       d="m 296.00446,297.47077 c -0.044,0.0228 -0.13274,-0.12549 -0.18171,-0.13289 -0.049,-0.007 -0.17758,0.10804 -0.21285,0.0733 -0.0353,-0.0348 0.0783,-0.16502 0.0702,-0.21388 -0.008,-0.0489 -0.15764,-0.13551 -0.13547,-0.17979 0.0222,-0.0443 0.18115,0.0235 0.22512,7e-4 0.044,-0.0228 0.0802,-0.19179 0.12913,-0.18439 0.049,0.007 0.0336,0.17955 0.0689,0.21432 0.0353,0.0348 0.20718,0.017 0.21527,0.0658 0.008,0.0489 -0.16037,0.0875 -0.18254,0.13174 -0.0222,0.0443 0.0479,0.20229 0.004,0.22508 z"
       inkscape:randomized="0"
       inkscape:rounded="0.22"
       inkscape:flatsided="false"
       sodipodi:arg2="1.7207625"
       sodipodi:arg1="1.0924439"
       sodipodi:r2="0.17036091"
       sodipodi:r1="0.33943987"
       sodipodi:cy="297.16943"
       sodipodi:cx="295.84821"
       sodipodi:sides="5"
       id="path3940"
       style="fill:#ffffff;fill-opacity:1;stroke:none"
       sodipodi:type="star" />
    <path
       sodipodi:type="star"
       style="fill:#ffffff;fill-opacity:1;stroke:none"
       id="path3942"
       sodipodi:sides="5"
       sodipodi:cx="295.84821"
       sodipodi:cy="297.16943"
       sodipodi:r1="0.33943987"
       sodipodi:r2="0.17036091"
       sodipodi:arg1="1.0924439"
       sodipodi:arg2="1.7207625"
       inkscape:flatsided="false"
       inkscape:rounded="0.22"
       inkscape:randomized="0"
       d="m 296.00446,297.47077 c -0.044,0.0228 -0.13274,-0.12549 -0.18171,-0.13289 -0.049,-0.007 -0.17758,0.10804 -0.21285,0.0733 -0.0353,-0.0348 0.0783,-0.16502 0.0702,-0.21388 -0.008,-0.0489 -0.15764,-0.13551 -0.13547,-0.17979 0.0222,-0.0443 0.18115,0.0235 0.22512,7e-4 0.044,-0.0228 0.0802,-0.19179 0.12913,-0.18439 0.049,0.007 0.0336,0.17955 0.0689,0.21432 0.0353,0.0348 0.20718,0.017 0.21527,0.0658 0.008,0.0489 -0.16037,0.0875 -0.18254,0.13174 -0.0222,0.0443 0.0479,0.20229 0.004,0.22508 z"
       transform="matrix(0.17678057,-0.2252869,0.2252869,0.17678057,310.88223,575.46626)" />
    <path
       transform="matrix(0.17678057,-0.2252869,0.2252869,0.17678057,311.08984,575.67201)"
       d="m 296.00446,297.47077 c -0.044,0.0228 -0.13274,-0.12549 -0.18171,-0.13289 -0.049,-0.007 -0.17758,0.10804 -0.21285,0.0733 -0.0353,-0.0348 0.0783,-0.16502 0.0702,-0.21388 -0.008,-0.0489 -0.15764,-0.13551 -0.13547,-0.17979 0.0222,-0.0443 0.18115,0.0235 0.22512,7e-4 0.044,-0.0228 0.0802,-0.19179 0.12913,-0.18439 0.049,0.007 0.0336,0.17955 0.0689,0.21432 0.0353,0.0348 0.20718,0.017 0.21527,0.0658 0.008,0.0489 -0.16037,0.0875 -0.18254,0.13174 -0.0222,0.0443 0.0479,0.20229 0.004,0.22508 z"
       inkscape:randomized="0"
       inkscape:rounded="0.22"
       inkscape:flatsided="false"
       sodipodi:arg2="1.7207625"
       sodipodi:arg1="1.0924439"
       sodipodi:r2="0.17036091"
       sodipodi:r1="0.33943987"
       sodipodi:cy="297.16943"
       sodipodi:cx="295.84821"
       sodipodi:sides="5"
       id="path3944"
       style="fill:#ffffff;fill-opacity:1;stroke:none"
       sodipodi:type="star" />
    <path
       sodipodi:type="star"
       style="fill:#ffffff;fill-opacity:1;stroke:none"
       id="path3946"
       sodipodi:sides="5"
       sodipodi:cx="295.84821"
       sodipodi:cy="297.16943"
       sodipodi:r1="0.33943987"
       sodipodi:r2="0.17036091"
       sodipodi:arg1="1.0924439"
       sodipodi:arg2="1.7207625"
       inkscape:flatsided="false"
       inkscape:rounded="0.22"
       inkscape:randomized="0"
       d="m 296.00446,297.47077 c -0.044,0.0228 -0.13274,-0.12549 -0.18171,-0.13289 -0.049,-0.007 -0.17758,0.10804 -0.21285,0.0733 -0.0353,-0.0348 0.0783,-0.16502 0.0702,-0.21388 -0.008,-0.0489 -0.15764,-0.13551 -0.13547,-0.17979 0.0222,-0.0443 0.18115,0.0235 0.22512,7e-4 0.044,-0.0228 0.0802,-0.19179 0.12913,-0.18439 0.049,0.007 0.0336,0.17955 0.0689,0.21432 0.0353,0.0348 0.20718,0.017 0.21527,0.0658 0.008,0.0489 -0.16037,0.0875 -0.18254,0.13174 -0.0222,0.0443 0.0479,0.20229 0.004,0.22508 z"
       transform="matrix(0.17678057,-0.2252869,0.2252869,0.17678057,311.2893,575.86968)" />
    <path
       transform="matrix(0.17678057,-0.2252869,0.2252869,0.17678057,311.49283,576.0714)"
       d="m 296.00446,297.47077 c -0.044,0.0228 -0.13274,-0.12549 -0.18171,-0.13289 -0.049,-0.007 -0.17758,0.10804 -0.21285,0.0733 -0.0353,-0.0348 0.0783,-0.16502 0.0702,-0.21388 -0.008,-0.0489 -0.15764,-0.13551 -0.13547,-0.17979 0.0222,-0.0443 0.18115,0.0235 0.22512,7e-4 0.044,-0.0228 0.0802,-0.19179 0.12913,-0.18439 0.049,0.007 0.0336,0.17955 0.0689,0.21432 0.0353,0.0348 0.20718,0.017 0.21527,0.0658 0.008,0.0489 -0.16037,0.0875 -0.18254,0.13174 -0.0222,0.0443 0.0479,0.20229 0.004,0.22508 z"
       inkscape:randomized="0"
       inkscape:rounded="0.22"
       inkscape:flatsided="false"
       sodipodi:arg2="1.7207625"
       sodipodi:arg1="1.0924439"
       sodipodi:r2="0.17036091"
       sodipodi:r1="0.33943987"
       sodipodi:cy="297.16943"
       sodipodi:cx="295.84821"
       sodipodi:sides="5"
       id="path3948"
       style="fill:#ffffff;fill-opacity:1;stroke:none"
       sodipodi:type="star" />
    <rect
       style="fill:#666666;fill-opacity:1;stroke:none"
       id="rect3950"
       width="77.251419"
       height="43.663845"
       x="309.71277"
       y="295.02209"
       transform="translate(132.68662,263.63718)" />
    <rect
       style="fill:#000000;fill-opacity:1;stroke:none"
       id="rect3952"
       width="10.253048"
       height="8.8942108"
       x="444.87427"
       y="568.03271" />
    <rect
       y="560.25031"
       x="445.86252"
       height="8.2750683"
       width="8.4000874"
       id="rect3954"
       style="fill:#000000;fill-opacity:1;stroke:none" />
    <rect
       y="568.03271"
       x="457.77896"
       height="8.8942108"
       width="10.253048"
       id="rect3956"
       style="fill:#000000;fill-opacity:1;stroke:none" />
    <rect
       style="fill:#000000;fill-opacity:1;stroke:none"
       id="rect3958"
       width="8.4000874"
       height="8.2750683"
       x="458.76721"
       y="560.25031" />
    <rect
       style="fill:#000000;fill-opacity:1;stroke:none"
       id="rect3960"
       width="10.253048"
       height="8.8942108"
       x="470.5069"
       y="568.03271" />
    <rect
       y="560.25031"
       x="471.49515"
       height="8.2750683"
       width="8.4000874"
       id="rect3962"
       style="fill:#000000;fill-opacity:1;stroke:none" />
    <rect
       y="568.03271"
       x="482.88126"
       height="8.8942108"
       width="10.253048"
       id="rect3964"
       style="fill:#000000;fill-opacity:1;stroke:none" />
    <rect
       style="fill:#000000;fill-opacity:1;stroke:none"
       id="rect3966"
       width="8.4000874"
       height="8.2750683"
       x="483.86951"
       y="560.25031" />
    <rect
       style="fill:#000000;fill-opacity:1;stroke:none"
       id="rect3968"
       width="10.253048"
       height="8.8942108"
       x="494.90207"
       y="568.03271" />
    <rect
       y="560.25031"
       x="495.89032"
       height="8.2750683"
       width="8.4000874"
       id="rect3970"
       style="fill:#000000;fill-opacity:1;stroke:none" />
    <rect
       y="568.03271"
       x="506.56934"
       height="8.8942108"
       width="10.253048"
       id="rect3972"
       style="fill:#000000;fill-opacity:1;stroke:none" />
    <rect
       style="fill:#000000;fill-opacity:1;stroke:none"
       id="rect3974"
       width="8.4000874"
       height="8.2750683"
       x="507.55759"
       y="560.25031" />
    <rect
       y="588.71558"
       x="444.87427"
       height="8.8942108"
       width="10.253048"
       id="rect3976"
       style="fill:#000000;fill-opacity:1;stroke:none" />
    <rect
       style="fill:#000000;fill-opacity:1;stroke:none"
       id="rect3978"
       width="8.4000874"
       height="8.2750683"
       x="445.86252"
       y="580.93317" />
    <rect
       style="fill:#000000;fill-opacity:1;stroke:none"
       id="rect3980"
       width="10.253048"
       height="8.8942108"
       x="457.77896"
       y="588.71558" />
    <rect
       y="580.93317"
       x="458.76721"
       height="8.2750683"
       width="8.4000874"
       id="rect3982"
       style="fill:#000000;fill-opacity:1;stroke:none" />
    <rect
       y="588.71558"
       x="470.5069"
       height="8.8942108"
       width="10.253048"
       id="rect3984"
       style="fill:#000000;fill-opacity:1;stroke:none" />
    <rect
       style="fill:#000000;fill-opacity:1;stroke:none"
       id="rect3986"
       width="8.4000874"
       height="8.2750683"
       x="471.49515"
       y="580.93317" />
    <rect
       style="fill:#000000;fill-opacity:1;stroke:none"
       id="rect3988"
       width="10.253048"
       height="8.8942108"
       x="482.88126"
       y="588.71558" />
    <rect
       y="580.93317"
       x="483.86951"
       height="8.2750683"
       width="8.4000874"
       id="rect3990"
       style="fill:#000000;fill-opacity:1;stroke:none" />
    <rect
       y="588.71558"
       x="494.90207"
       height="8.8942108"
       width="10.253048"
       id="rect3992"
       style="fill:#000000;fill-opacity:1;stroke:none" />
    <rect
       style="fill:#000000;fill-opacity:1;stroke:none"
       id="rect3994"
       width="8.4000874"
       height="8.2750683"
       x="495.89032"
       y="580.93317" />
    <rect
       style="fill:#000000;fill-opacity:1;stroke:none"
       id="rect3996"
       width="10.253048"
       height="8.8942108"
       x="506.56934"
       y="588.71558" />
    <rect
       y="580.93317"
       x="507.55759"
       height="8.2750683"
       width="8.4000874"
       id="rect3998"
       style="fill:#000000;fill-opacity:1;stroke:none" />
    <rect
       style="fill:#000000;fill-opacity:1;stroke:none"
       id="rect4000"
       width="3.8890872"
       height="13.435029"
       x="318.19806"
       y="359.19202"
       transform="translate(132.68662,263.63718)" />
    <rect
       style="fill:#000000;fill-opacity:1;stroke:none"
       id="rect4002"
       width="30.405592"
       height="4.2426405"
       x="424.81015"
       y="634.23132" />
    <text
       xml:space="preserve"
       style="font-size:3.02662063px;font-style:normal;font-weight:normal;text-align:center;text-anchor:middle;fill:#ffffff;fill-opacity:1;stroke:none;font-family:Bitstream Vera Sans"
       x="437.06085"
       y="637.367"
       id="text4004"><tspan
         sodipodi:role="line"
         id="tspan4006"
         x="437.06085"
         y="637.367">Pew Pew</tspan></text>
    <rect
       style="fill:#000000;fill-opacity:1;stroke:none"
       id="rect4008"
       width="14.318913"
       height="5.6568542"
       x="334.10794"
       y="363.61145"
       transform="translate(132.68662,263.63718)" />
    <rect
       style="fill:#000000;fill-opacity:1;stroke:none"
       id="rect4010"
       width="23.864853"
       height="21.38998"
       x="327.56723"
       y="369.26831"
       transform="translate(132.68662,263.63718)" />
    <rect
       style="fill:#ffffff;fill-opacity:1;stroke:none"
       id="rect4012"
       width="0.53033006"
       height="1.9445436"
       x="425.60559"
       y="635.73389" />
    <rect
       y="634.67322"
       x="461.66803"
       height="17.67767"
       width="0.53033006"
       id="rect4014"
       style="fill:#ffffff;fill-opacity:1;stroke:none" />
    <text
       xml:space="preserve"
       style="font-size:4px;font-style:normal;font-weight:normal;text-align:center;text-anchor:middle;fill:#ffffff;fill-opacity:1;stroke:none;font-family:Bitstream Vera Sans"
       x="472.94559"
       y="639.85522"
       id="text4016"><tspan
         sodipodi:role="line"
         x="472.94559"
         y="639.85522"
         id="tspan4024">Net</tspan><tspan
         sodipodi:role="line"
         x="472.94559"
         y="644.85522"
         id="tspan4030">Launcher</tspan><tspan
         sodipodi:role="line"
         x="472.94559"
         y="649.85522"
         id="tspan4028">5000</tspan></text>
    <path
       sodipodi:type="arc"
       style="fill:#ffffff;fill-opacity:1;stroke:none"
       id="path4032"
       sodipodi:cx="207.4375"
       sodipodi:cy="347.70068"
       sodipodi:rx="5.4375"
       sodipodi:ry="5.4375"
       d="m 212.875,347.70068 a 5.4375,5.4375 0 1 1 -10.875,0 5.4375,5.4375 0 1 1 10.875,0 z"
       transform="translate(132.68662,263.63718)" />
    <path
       transform="translate(147.68662,263.63718)"
       d="m 212.875,347.70068 a 5.4375,5.4375 0 1 1 -10.875,0 5.4375,5.4375 0 1 1 10.875,0 z"
       sodipodi:ry="5.4375"
       sodipodi:rx="5.4375"
       sodipodi:cy="347.70068"
       sodipodi:cx="207.4375"
       id="path4034"
       style="fill:#ffffff;fill-opacity:1;stroke:none"
       sodipodi:type="arc" />
    <path
       style="fill:none;stroke:#000000;stroke-width:1px;stroke-linecap:butt;stroke-linejoin:miter;stroke-opacity:1"
       d="m 204.75,371.76318 22.25,0"
       id="path4036"
       transform="translate(132.68662,263.63718)" />
    <path
       sodipodi:type="arc"
       style="fill:#0000ff;fill-opacity:1;stroke:none"
       id="path4040"
       sodipodi:cx="207.75"
       sodipodi:cy="348.63818"
       sodipodi:rx="3.25"
       sodipodi:ry="3.25"
       d="m 211,348.63818 a 3.25,3.25 0 1 1 -6.5,0 3.25,3.25 0 1 1 6.5,0 z"
       transform="translate(132.43662,262.76218)" />
    <path
       transform="translate(147.68662,262.76218)"
       d="m 211,348.63818 a 3.25,3.25 0 1 1 -6.5,0 3.25,3.25 0 1 1 6.5,0 z"
       sodipodi:ry="3.25"
       sodipodi:rx="3.25"
       sodipodi:cy="348.63818"
       sodipodi:cx="207.75"
       id="path4042"
       style="fill:#0000ff;fill-opacity:1;stroke:none"
       sodipodi:type="arc" />
    <path
       sodipodi:type="arc"
       style="fill:#000000;fill-opacity:1;stroke:none"
       id="path4044"
       sodipodi:cx="214"
       sodipodi:cy="338.88818"
       sodipodi:rx="1.375"
       sodipodi:ry="1.375"
       d="m 215.375,338.88818 a 1.375,1.375 0 1 1 -2.75,0 1.375,1.375 0 1 1 2.75,0 z"
       transform="translate(126.18662,272.63718)" />
    <path
       transform="translate(141.56162,272.63718)"
       d="m 215.375,338.88818 a 1.375,1.375 0 1 1 -2.75,0 1.375,1.375 0 1 1 2.75,0 z"
       sodipodi:ry="1.375"
       sodipodi:rx="1.375"
       sodipodi:cy="338.88818"
       sodipodi:cx="214"
       id="path4046"
       style="fill:#000000;fill-opacity:1;stroke:none"
       sodipodi:type="arc" />
    <path
       sodipodi:type="arc"
       style="fill:#0000ff;fill-opacity:1;stroke:none"
       id="path4048"
       sodipodi:cx="341.25"
       sodipodi:cy="270.01318"
       sodipodi:rx="2.75"
       sodipodi:ry="4.5"
       d="m 344,270.01318 a 2.75,4.5 0 1 1 -5.5,0 2.75,4.5 0 1 1 5.5,0 z"
       transform="translate(133.74728,253.73768)" />
    <path
       transform="translate(140.74728,253.73768)"
       d="m 344,270.01318 a 2.75,4.5 0 1 1 -5.5,0 2.75,4.5 0 1 1 5.5,0 z"
       sodipodi:ry="4.5"
       sodipodi:rx="2.75"
       sodipodi:cy="270.01318"
       sodipodi:cx="341.25"
       id="path4050"
       style="fill:#ff0000;fill-opacity:1;stroke:none"
       sodipodi:type="arc" />
    <rect
       style="fill:#000000;fill-opacity:1;stroke:none"
       id="rect4052"
       width="3.1819806"
       height="63.63961"
       x="336.05981"
       y="719.92487"
       transform="matrix(0.96592583,-0.25881905,0.25881905,0.96592583,0,0)" />
    <rect
       style="fill:#000000;fill-opacity:1;stroke:none"
       id="rect4054"
       width="24.04163"
       height="2.8284271"
       x="792.70953"
       y="66.668922"
       transform="matrix(0.70710678,0.70710678,-0.70710678,0.70710678,0,0)" />
    <rect
       transform="matrix(-0.37444947,0.92724732,0.92724732,0.37444947,0,0)"
       y="701.34247"
       x="372.06958"
       height="2.8284271"
       width="24.04163"
       id="rect4056"
       style="fill:#000000;fill-opacity:1;stroke:none" />
    <rect
       style="fill:#ffffff;fill-opacity:1;stroke:#000000;stroke-opacity:1"
       id="rect4058"
       width="106.77318"
       height="68.235825"
       x="329.86533"
       y="404.44687"
       transform="translate(132.68662,263.63718)" />
    <text
       xml:space="preserve"
       style="font-size:5.83298874px;font-style:normal;font-weight:normal;text-align:center;text-anchor:middle;fill:#000000;fill-opacity:1;stroke:none;font-family:Bitstream Vera Sans"
       x="515.53992"
       y="679.27087"
       id="text4060"><tspan
         sodipodi:role="line"
         id="tspan4062"
         x="515.53992"
         y="679.27087">12 randomly selected peers decide</tspan><tspan
         sodipodi:role="line"
         x="515.53992"
         y="686.56213"
         id="tspan4066">my fate. I can very easily see them</tspan><tspan
         sodipodi:role="line"
         x="515.53992"
         y="693.85333"
         id="tspan4068">deciding to imprison me because</tspan><tspan
         sodipodi:role="line"
         x="515.53992"
         y="701.14459"
         id="tspan4070">I'm quiet and look creepy in</tspan><tspan
         sodipodi:role="line"
         x="515.53992"
         y="708.43579"
         id="tspan4078">in certain photos (though</tspan><tspan
         sodipodi:role="line"
         x="515.53992"
         y="715.72705"
         id="tspan4072">they will never admit it and the</tspan><tspan
         sodipodi:role="line"
         x="515.53992"
         y="723.01831"
         id="tspan4074">justice system will claim that</tspan><tspan
         sodipodi:role="line"
         x="515.53992"
         y="730.30951"
         id="tspan4076">that doesn't really happen)</tspan><tspan
         sodipodi:role="line"
         x="515.53992"
         y="737.60077"
         id="tspan4064" /></text>
  </g>
</svg>
