<?xml version="1.0" encoding="UTF-8" standalone="no"?>
<!-- Created with Inkscape (http://www.inkscape.org/) -->

<svg
   xmlns:dc="http://purl.org/dc/elements/1.1/"
   xmlns:cc="http://creativecommons.org/ns#"
   xmlns:rdf="http://www.w3.org/1999/02/22-rdf-syntax-ns#"
   xmlns:svg="http://www.w3.org/2000/svg"
   xmlns="http://www.w3.org/2000/svg"
   xmlns:xlink="http://www.w3.org/1999/xlink"
   xmlns:sodipodi="http://sodipodi.sourceforge.net/DTD/sodipodi-0.dtd"
   xmlns:inkscape="http://www.inkscape.org/namespaces/inkscape"
   width="444.54633"
   height="714.51318"
   id="svg2"
   version="1.1"
   inkscape:version="0.47 r22583"
   sodipodi:docname="pursuingHappiness.svg">
  <defs
     id="defs4">
    <inkscape:perspective
       sodipodi:type="inkscape:persp3d"
       inkscape:vp_x="0 : 357.25659 : 1"
       inkscape:vp_y="0 : 1000 : 0"
       inkscape:vp_z="444.54633 : 357.25659 : 1"
       inkscape:persp3d-origin="222.27316 : 238.17106 : 1"
       id="perspective70" />
  </defs>
  <sodipodi:namedview
     id="base"
     pagecolor="#ffffff"
     bordercolor="#666666"
     borderopacity="1.0"
     inkscape:pageopacity="0.0"
     inkscape:pageshadow="2"
     inkscape:zoom="1.4"
     inkscape:cx="146.19119"
     inkscape:cy="167.85136"
     inkscape:document-units="px"
     inkscape:current-layer="layer1"
     showgrid="false"
     inkscape:snap-grids="false"
     inkscape:snap-to-guides="false"
     inkscape:snap-center="true"
     inkscape:snap-midpoints="true"
     inkscape:object-nodes="false"
     inkscape:snap-bbox="false"
     inkscape:snap-nodes="false"
     inkscape:snap-global="false"
     inkscape:window-width="1280"
     inkscape:window-height="972"
     inkscape:window-x="0"
     inkscape:window-y="0"
     inkscape:window-maximized="1" />
  <metadata
     id="metadata7">
    <rdf:RDF>
      <cc:Work
         rdf:about="">
        <dc:format>image/svg+xml</dc:format>
        <dc:type
           rdf:resource="http://purl.org/dc/dcmitype/StillImage" />
        <dc:title></dc:title>
      </cc:Work>
    </rdf:RDF>
  </metadata>
  <g
     inkscape:label="Layer 1"
     inkscape:groupmode="layer"
     id="layer1"
     transform="translate(-132.68662,-263.63718)">
    <a
       xlink:href="user/d3fault/data"
       id="a3598"
       xlink:title="TODOreq: Folder Browser View Of Data (also accessible via /view or /view/browse)"
       transform="translate(-57.142857,174.28571)">
      <path
         id="path3592"
         d="m 191.92898,803.86466 442.44682,0 -191.32033,-714.01718 0.90657,0.344402 -60.57983,-0.840415 -191.45323,714.513193 z"
         style="fill:#006700;fill-opacity:1;stroke:none" />
    </a>
    <a
       xlink:href="user/d3fault/data/view/timeline"
       id="a3633"
       xlink:title="TODOreq: Hacked Together Timeline View"
       transform="translate(-57.142857,174.28571)">
      <rect
         transform="matrix(0.87521363,-0.4837366,0.05605853,0.99842748,0,0)"
         y="840.84052"
         x="163.03813"
         height="43.281967"
         width="439.51489"
         id="rect3601"
         style="fill:#000000;fill-opacity:1;stroke:none" />
    </a>
    <rect
       style="fill:#ffffff;fill-opacity:1;stroke:none"
       id="rect3603"
       width="48.579597"
       height="74.903534"
       x="326.54745"
       y="837.95392"
       transform="matrix(0.96525922,0.26129416,-0.24949347,0.96837648,0,0)" />
    <rect
       transform="matrix(0.96915676,-0.24644506,0.24644506,0.96915676,0,0)"
       y="806.23663"
       x="316.48575"
       height="95.964493"
       width="63.63961"
       id="rect3605"
       style="fill:#ffffff;fill-opacity:1;stroke:none" />
    <a
       xlink:href="user/d3fault/data/view/timeline"
       id="a3630"
       xlink:title="TODOreq: Hacked Together Timeline View"
       transform="translate(-57.142857,174.28571)">
      <rect
         style="fill:#000000;fill-opacity:1;stroke:none"
         id="rect3607"
         width="245.02046"
         height="24.312969"
         x="294.90689"
         y="564.78687"
         transform="matrix(0.87315429,-0.48744393,0.05550299,0.99845852,0,0)" />
    </a>
    <rect
       style="fill:#ffffff;fill-opacity:1;stroke:none"
       id="rect3609"
       width="63.63961"
       height="95.964493"
       x="312.52997"
       y="546.87567"
       transform="matrix(0.96915676,-0.24644506,0.24644506,0.96915676,0,0)" />
    <rect
       transform="matrix(0.96871482,0.24817655,-0.24817655,0.96871482,0,0)"
       y="496.7189"
       x="312.83981"
       height="95.964493"
       width="63.63961"
       id="rect3611"
       style="fill:#ffffff;fill-opacity:1;stroke:none" />
    <a
       xlink:href="user/d3fault/data/view/timeline"
       id="a3627"
       xlink:title="TODOreq: Hacked Together Timeline View"
       transform="translate(-57.142857,174.28571)">
      <rect
         transform="matrix(0.87521363,-0.4837366,0.05605853,0.99842748,0,0)"
         y="380.91315"
         x="358.18671"
         height="18.381737"
         width="186.6608"
         id="rect3613"
         style="fill:#000000;fill-opacity:1;stroke:none" />
    </a>
    <rect
       transform="matrix(0.96871482,0.24817655,-0.24817655,0.96871482,0,0)"
       y="245.83098"
       x="315.70337"
       height="95.964493"
       width="63.63961"
       id="rect3621"
       style="fill:#ffffff;fill-opacity:1;stroke:none" />
    <rect
       style="fill:#ffffff;fill-opacity:1;stroke:none"
       id="rect3623"
       width="63.63961"
       height="95.964493"
       x="304.50366"
       y="376.11868"
       transform="matrix(0.96608324,-0.25823084,0.25823084,0.96608324,0,0)" />
    <flowRoot
       xml:space="preserve"
       id="flowRoot2826"
       style="font-size:20px;font-style:normal;font-weight:normal;text-align:center;text-anchor:middle;fill:#ffffff;fill-opacity:1;stroke:none;font-family:Bitstream Vera Sans"
       transform="matrix(0.87036086,-0.49241444,0.49241444,0.87036086,-275.49721,456.39344)"><flowRegion
         id="flowRegion2828"><rect
           id="rect2830"
           width="247.48738"
           height="41.416256"
           x="136.37059"
           y="622.58929"
           style="fill:#ffffff" /></flowRegion><flowPara
         id="flowPara2832">Pursuit of Happiness</flowPara></flowRoot>    <path
       sodipodi:type="arc"
       style="fill:#deaa87;fill-opacity:1;stroke:none"
       id="path2834"
       sodipodi:cx="195.46452"
       sodipodi:cy="351.36334"
       sodipodi:rx="22.728432"
       sodipodi:ry="44.95179"
       d="m 218.19296,351.36334 c 0,24.82619 -10.17587,44.95179 -22.72844,44.95179 -12.55256,0 -22.72843,-20.1256 -22.72843,-44.95179 0,-24.82619 10.17587,-44.95179 22.72843,-44.95179 12.55257,0 22.72844,20.1256 22.72844,44.95179 z"
       transform="matrix(0.79040932,0,0,0.79040932,193.3786,343.01049)" />
    <rect
       style="fill:#000080;fill-opacity:1;stroke:none"
       id="rect2836"
       width="43.115437"
       height="81.440269"
       x="325.12021"
       y="657.06006" />
    <rect
       style="fill:#000080;fill-opacity:1;stroke:none"
       id="rect2842"
       width="17.964764"
       height="63.49313"
       x="169.67305"
       y="740.70837"
       transform="matrix(0.96592583,-0.25881905,0.25881905,0.96592583,0,0)" />
    <rect
       y="556.12701"
       x="479.52704"
       height="69.207413"
       width="17.964764"
       id="rect2844"
       style="fill:#000080;fill-opacity:1;stroke:none"
       transform="matrix(0.96592583,0.25881905,-0.25881905,0.96592583,0,0)" />
    <rect
       style="fill:#ac9393;fill-opacity:1;stroke:none"
       id="rect2846"
       width="16.17392"
       height="51.51778"
       x="230.40112"
       y="770.35303"
       transform="matrix(0.99193081,-0.12678042,0.12678042,0.99193081,0,0)" />
    <rect
       y="811.33649"
       x="-69.0186"
       height="51.51778"
       width="16.17392"
       id="rect2876"
       style="fill:#ac9393;fill-opacity:1;stroke:none"
       transform="matrix(0.8660254,-0.5,0.5,0.8660254,0,0)" />
    <rect
       y="-714.80072"
       x="-534.68256"
       height="52.643669"
       width="16.199554"
       id="rect2878"
       style="fill:#ac9393;fill-opacity:1;stroke:none"
       transform="matrix(-0.96439729,-0.26445767,0.25328368,-0.96739205,0,0)" />
    <rect
       transform="matrix(0.97773877,0.20982587,0.20982587,-0.97773877,0,0)"
       style="fill:#ac9393;fill-opacity:1;stroke:none"
       id="rect2880"
       width="16.17392"
       height="51.51778"
       x="520.65942"
       y="-724.67548" />
    <path
       sodipodi:type="arc"
       style="fill:#ffffff;fill-opacity:1;stroke:none"
       id="path2898"
       sodipodi:cx="223.57143"
       sodipodi:cy="342.90604"
       sodipodi:rx="3.9285715"
       sodipodi:ry="3.9285715"
       d="m 227.5,342.90604 a 3.9285715,3.9285715 0 1 1 -7.85715,0 3.9285715,3.9285715 0 1 1 7.85715,0 z"
       transform="matrix(1.2272727,0,0,1.2272727,81.51779,186.95399)" />
    <path
       style="fill:none;stroke:#000000;stroke-width:1px;stroke-linecap:butt;stroke-linejoin:miter;stroke-opacity:1"
       d="m 350.00805,632.97179 c 10.17857,3.57143 14.46428,1.96428 14.46428,1.96428"
       id="path2900" />
    <path
       sodipodi:type="arc"
       style="fill:#0000ff;fill-opacity:1;stroke:none"
       id="path2902"
       sodipodi:cx="210"
       sodipodi:cy="345.31674"
       sodipodi:rx="2.5"
       sodipodi:ry="2.5"
       d="m 212.5,345.31674 a 2.5,2.5 0 1 1 -5,0 2.5,2.5 0 1 1 5,0 z"
       transform="translate(146.79376,262.74432)" />
    <path
       sodipodi:type="arc"
       style="fill:#000000;fill-opacity:1;stroke:none"
       id="path2904"
       sodipodi:cx="212.54465"
       sodipodi:cy="347.86139"
       sodipodi:rx="1.0267857"
       sodipodi:ry="1.0267857"
       d="m 213.57143,347.86139 a 1.0267857,1.0267857 0 1 1 -2.05357,0 1.0267857,1.0267857 0 1 1 2.05357,0 z"
       transform="translate(144.47233,260.42289)" />
    <flowRoot
       xml:space="preserve"
       id="flowRoot2906"
       style="font-size:20px;font-style:normal;font-weight:normal;text-align:center;text-anchor:middle;fill:#000000;fill-opacity:1;stroke:none;font-family:Bitstream Vera Sans"
       transform="translate(131.97233,260.06575)"><flowRegion
         id="flowRegion2908"><rect
           id="rect2910"
           width="164.28572"
           height="91.428574"
           x="212.85715"
           y="607.3703" /></flowRegion><flowPara
         id="flowPara2912">Intentionally Unfinished For Now</flowPara></flowRoot>  </g>
</svg>
