<?xml version="1.0" encoding="UTF-8" standalone="no"?><svg xmlns:dc="http://purl.org/dc/elements/1.1/" xmlns:cc="http://creativecommons.org/ns#" xmlns:rdf="http://www.w3.org/1999/02/22-rdf-syntax-ns#" xmlns:svg="http://www.w3.org/2000/svg" xmlns="http://www.w3.org/2000/svg" version="1.1" width="300" height="100.01167" id="svg3039"><metadata id="metadata3053"><rdf:RDF><cc:Work rdf:about=""><dc:format>image/svg+xml</dc:format><dc:type rdf:resource="http://purl.org/dc/dcmitype/StillImage" /><dc:title></dc:title></cc:Work></rdf:RDF></metadata><defs id="defs3051" /><g transform="matrix(0.16666667,0,0,0.16666667,0,-0.14118123)" id="g3190"><rect width="64" height="270" x="-360.91711" y="165" transform="matrix(0,-1,1,0,0,0)" id="rect3041" style="fill:#000000" /><path d="M 300,0.91711953 C 135,0.91711953 0,135.91712 0,300.91712 c 0,165 135,300 300,300 165,0 300,-135 300,-300 0,-165 -135,-300.00000047 -300,-300.00000047 z M 300,64.91712 c 131,0 236,105 236,236 0,131 -105,236 -236,236 -131,0 -236,-105 -236,-236 0,-131 105,-236 236,-236 z" id="path3043" style="fill:#000000" /><rect width="64" height="500" x="-328.45071" y="-405.02679" transform="matrix(-0.90630779,-0.42261826,0.42261826,-0.90630779,0,0)" id="rect3045" style="fill:#000000" /><rect width="64" height="500" x="-279.26566" y="-658.59778" transform="matrix(-0.90630779,0.42261826,-0.42261826,-0.90630779,0,0)" id="rect3047" style="fill:#000000" /></g><g transform="matrix(0.10204082,0,0,0.10204082,200,0.01167177)" id="g3117"><circle cx="490" cy="490" r="440" id="circle3107" style="fill:none;stroke:#000000;stroke-width:100" /><path d="m 486,215 c -130,0 -239,91 -267,213 l 131,0 c 24,-52 76,-88 136,-88 83,0 150,67 150,150 0,83 -67,150 -150,150 -60,0 -112,-36 -136,-87 l -131,0 C 247,674 356,765 486,765 638,765 761,642 761,490 761,338 638,215 486,215 z" id="path3109" /></g><g transform="matrix(1.5626664,0,0,1.5626664,100.00385,-0.00375716)" id="g3175"><path d="M 63.033,39.744 C 58.759,56.887 41.396,67.32 24.251,63.045 7.113,58.771 -3.32,41.407 0.956,24.265 5.228,7.12 22.591,-3.314 39.731,0.96 56.875,5.234 67.307,22.6 63.033,39.744 z" id="path3177" style="fill:#f7931a" /><path d="M 46.103,27.444 C 46.74,23.186 43.498,20.897 39.065,19.37 l 1.438,-5.768 -3.511,-0.875 -1.4,5.616 c -0.923,-0.23 -1.871,-0.447 -2.813,-0.662 l 1.41,-5.653 -3.509,-0.875 -1.439,5.766 c -0.764,-0.174 -1.514,-0.346 -2.242,-0.527 l 0.004,-0.018 -4.842,-1.209 -0.934,3.75 c 0,0 2.605,0.597 2.55,0.634 1.422,0.355 1.679,1.296 1.636,2.042 l -1.638,6.571 c 0.098,0.025 0.225,0.061 0.365,0.117 -0.117,-0.029 -0.242,-0.061 -0.371,-0.092 l -2.296,9.205 c -0.174,0.432 -0.615,1.08 -1.609,0.834 0.035,0.051 -2.552,-0.637 -2.552,-0.637 l -1.743,4.019 4.569,1.139 c 0.85,0.213 1.683,0.436 2.503,0.646 l -1.453,5.834 3.507,0.875 1.439,-5.772 c 0.958,0.26 1.888,0.5 2.798,0.726 l -1.434,5.745 3.511,0.875 1.453,-5.823 c 5.987,1.133 10.489,0.676 12.384,-4.739 1.527,-4.36 -0.076,-6.875 -3.226,-8.515 2.294,-0.529 4.022,-2.038 4.483,-5.155 z m -8.022,11.249 c -1.085,4.36 -8.426,2.003 -10.806,1.412 l 1.928,-7.729 c 2.38,0.594 10.012,1.77 8.878,6.317 z m 1.086,-11.312 c -0.99,3.966 -7.1,1.951 -9.082,1.457 l 1.748,-7.01 c 1.982,0.494 8.365,1.416 7.334,5.553 z" id="path3179" style="fill:#ffffff" /></g></svg>
